M48
; DRILL file {KiCad (5.1.12)-1} date 03/23/22 16:05:52
; FORMAT={-:-/ absolute / inch / decimal}
; #@! TF.CreationDate,2022-03-23T16:05:52-05:00
; #@! TF.GenerationSoftware,Kicad,Pcbnew,(5.1.12)-1
; #@! TF.FileFunction,Plated,1,2,PTH
FMAT,2
INCH
T1C0.0157
T2C0.0394
T3C0.0400
%
G90
G05
T1
X4.5275Y-3.2329
X4.5649Y-2.9278
X4.6259Y-2.7506
X4.6377Y-2.9868
X4.6417Y-2.9278
X4.6417Y-3.2585
X4.6476Y-3.1443
X4.6749Y-2.3665
X4.7007Y-3.5419
X4.7007Y-3.8411
X4.7184Y-3.0104
X4.7243Y-2.3766
X4.748Y-3.7309
X4.748Y-4.1541
X4.748Y-4.6522
X4.7716Y-3.4002
X4.8109Y-2.6837
X4.8169Y-4.3156
X4.8346Y-2.0065
X4.8621Y-2.3372
X4.8661Y-3.164
X4.8661Y-3.224
X4.8661Y-3.4789
X4.868Y-3.036
X4.8739Y-2.0065
X4.8779Y-3.6325
X4.9015Y-2.5931
X4.9015Y-2.7703
X4.9153Y-4.036
X4.9291Y-3.1955
X4.9684Y-3.1561
X4.9846Y-2.8475
X4.992Y-4.3766
X5.0191Y-2.8506
X5.0354Y-2.8844
X5.0787Y-3.2033
X5.0983Y-2.5931
X5.118Y-2.0616
X5.118Y-2.7703
X5.118Y-3.1246
X5.1259Y-2.9524
X5.1574Y-2.3687
X5.1574Y-2.9081
X5.1653Y-1.9947
X5.1653Y-2.0616
X5.1771Y-2.9868
X5.1968Y-3.2427
X5.2519Y-1.9829
X5.2834Y-2.0222
X5.2834Y-2.9041
X5.37Y-2.9199
X5.4409Y-1.9907
X5.4566Y-2.4081
X5.4881Y-2.3923
X5.4901Y-4.8096
X5.5314Y-2.8884
X5.5511Y-3.8096
X5.5827Y-3.7955
X5.6161Y-3.7978
X5.6239Y-2.7447
X5.6266Y-2.9888
X5.6532Y-3.7909
X5.6879Y-1.7437
X5.7184Y-2.9888
X5.7735Y-4.5281
X5.7735Y-4.6069
X5.7873Y-1.8333
X5.7991Y-2.9888
X5.8523Y-4.7329
X5.8602Y-2.6236
X5.8661Y-2.7801
X5.872Y-3.7978
X5.8877Y-4.5281
X5.8897Y-4.0006
X5.8917Y-4.6069
X5.9251Y-3.7998
X5.9389Y-2.6541
X5.9527Y-2.8333
X5.9901Y-4.0065
X5.991Y-3.9032
X5.992Y-3.9396
X5.992Y-3.973
X5.994Y-2.9888
X6.0001Y-4.0384
X6.0314Y-1.7467
X6.0787Y-2.3844
X6.1456Y-2.6817
X6.1495Y-4.8096
X6.1574Y-2.3844
X6.2135Y-3.2791
X6.2558Y-3.4573
X6.2568Y-3.7417
X6.2598Y-1.8648
X6.2617Y-3.0065
X6.2834Y-2.7919
X6.3011Y-2.7447
X6.3031Y-2.6758
X6.3779Y-1.9041
X6.4724Y-2.7624
X6.4861Y-2.6502
X6.4861Y-2.8982
X6.5058Y-3.4573
X6.5294Y-2.6512
X6.5334Y-2.7053
X6.5354Y-3.5026
X6.5393Y-3.8608
X6.5491Y-2.9553
X6.5531Y-3.0124
X6.5708Y-3.8411
X6.5787Y-3.2211
X6.6043Y-3.6994
X6.6082Y-3.6581
X6.6495Y-3.1856
X6.6495Y-3.4927
X6.6535Y-3.597
X6.6919Y-3.921
X6.6928Y-3.7939
X6.6928Y-3.8825
X6.6928Y-4.0144
X6.6931Y-3.64
X6.6948Y-3.6758
X6.6968Y-3.0715
X6.6968Y-3.5793
X6.6987Y-3.2919
X6.6987Y-3.8352
X6.6987Y-3.9652
X6.7106Y-3.1207
X6.7538Y-3.5853
X6.7617Y-3.0774
X6.7637Y-4.8569
X6.7755Y-3.5026
X6.809Y-3.4494
X6.8109Y-3.7063
X6.8381Y-3.5919
X6.8385Y-3.6423
X6.8678Y-3.6072
X6.8798Y-3.6384
X6.9291Y-4.7703
X6.9527Y-3.7152
X6.9822Y-3.2309
X7.058Y-4.0163
X7.0894Y-3.9881
X7.0942Y-4.1622
X7.1043Y-3.5321
X7.1148Y-4.0163
X7.1353Y-4.1657
X7.1531Y-3.9969
X7.1535Y-3.4927
X7.1733Y-4.1537
X7.1771Y-4.099
X7.1791Y-3.2722
X7.1799Y-4.0171
X7.181Y-3.3106
X7.2046Y-3.353
X7.209Y-4.1272
X7.2095Y-4.0015
X7.2188Y-4.0724
X7.2322Y-3.0951
X7.265Y-3.1814
X7.2716Y-3.6541
X7.2775Y-3.0931
X7.2893Y-3.0577
X7.3059Y-3.1855
X7.313Y-4.1147
X7.3405Y-3.1719
X7.37Y-3.1896
X7.3709Y-3.0704
X7.3978Y-3.1709
X7.4113Y-3.0537
X7.4254Y-3.1897
X7.4645Y-3.0697
X7.4783Y-3.4455
X7.5275Y-4.0262
X7.5324Y-4.1089
X7.5806Y-3.4868
X7.5885Y-4.0813
X7.6043Y-4.0065
X7.6043Y-4.1187
X7.6367Y-4.2389
X7.6495Y-3.8589
X7.67Y-4.2363
X7.6992Y-3.9338
X7.8326Y-4.0341
X7.8503Y-4.1197
X7.8739Y-4.036
X7.9645Y-4.1728
X7.9842Y-3.9652
X7.992Y-4.1463
X7.9999Y-3.6994
X8.0117Y-4.0596
X8.0472Y-3.9317
X8.2204Y-2.853
T2
X5.2566Y-3.6443
X5.3566Y-3.6443
X5.4566Y-3.6443
X5.5432Y-2.4868
X5.6432Y-2.4868
X5.7432Y-2.4868
X5.7637Y-3.5522
X5.7637Y-3.6522
X5.8432Y-2.4868
X6.8661Y-3.1608
X6.8661Y-3.2608
X6.8661Y-3.3608
X7.559Y-3.1719
X7.559Y-3.2719
X7.7165Y-3.1719
X7.7165Y-3.2719
T3
X6.0273Y-2.4898
X6.1273Y-2.4898
X6.2273Y-2.4898
X6.3273Y-2.4898
X6.3848Y-4.3898
X6.4273Y-2.4898
X6.4848Y-4.3898
X6.5273Y-2.4898
X6.5848Y-4.3898
X6.6273Y-2.4898
X6.6848Y-4.3898
X6.7273Y-2.4898
X6.7848Y-4.3898
X6.8273Y-2.4898
X6.8848Y-4.3898
X6.9273Y-2.4898
X6.9848Y-4.3898
X7.0848Y-4.3898
X7.0898Y-2.4898
X7.1898Y-2.4898
X7.2873Y-4.3898
X7.2898Y-2.4898
X7.3873Y-4.3898
X7.3898Y-2.4898
X7.4873Y-4.3898
X7.4898Y-2.4898
X7.5873Y-4.3898
X7.5898Y-2.4898
X7.6873Y-4.3898
X7.6898Y-2.4898
X7.7873Y-4.3898
X7.7898Y-2.4898
T0
M30
