G04 #@! TF.GenerationSoftware,KiCad,Pcbnew,(5.1.12)-1*
G04 #@! TF.CreationDate,2022-03-24T17:08:19-05:00*
G04 #@! TF.ProjectId,AVR-CTF,4156522d-4354-4462-9e6b-696361645f70,rev?*
G04 #@! TF.SameCoordinates,Original*
G04 #@! TF.FileFunction,Paste,Top*
G04 #@! TF.FilePolarity,Positive*
%FSLAX46Y46*%
G04 Gerber Fmt 4.6, Leading zero omitted, Abs format (unit mm)*
G04 Created by KiCad (PCBNEW (5.1.12)-1) date 2022-03-24 17:08:19*
%MOMM*%
%LPD*%
G01*
G04 APERTURE LIST*
%ADD10C,0.001000*%
%ADD11R,3.500000X1.800000*%
%ADD12R,1.900000X2.000000*%
%ADD13R,0.400000X1.400000*%
%ADD14R,1.400000X0.400000*%
%ADD15R,2.000000X1.900000*%
%ADD16R,2.100000X1.400000*%
%ADD17R,2.000000X1.500000*%
%ADD18R,2.000000X3.800000*%
%ADD19R,5.000000X5.000000*%
%ADD20R,0.900000X2.000000*%
%ADD21R,2.000000X0.900000*%
%ADD22R,1.460500X0.538480*%
%ADD23R,1.340599X0.507200*%
%ADD24R,0.507200X1.340599*%
%ADD25R,1.750000X1.800000*%
%ADD26R,1.500000X1.000000*%
G04 APERTURE END LIST*
D10*
G36*
X196798000Y-123365000D02*
G01*
X196798000Y-123765000D01*
X196798000Y-123777000D01*
X196797000Y-123789000D01*
X196795000Y-123800000D01*
X196793000Y-123812000D01*
X196790000Y-123823000D01*
X196787000Y-123835000D01*
X196783000Y-123846000D01*
X196779000Y-123857000D01*
X196773000Y-123867000D01*
X196768000Y-123878000D01*
X196762000Y-123888000D01*
X196755000Y-123897000D01*
X196748000Y-123907000D01*
X196740000Y-123916000D01*
X196732000Y-123924000D01*
X196724000Y-123932000D01*
X196715000Y-123940000D01*
X196705000Y-123947000D01*
X196696000Y-123954000D01*
X196686000Y-123960000D01*
X196675000Y-123965000D01*
X196665000Y-123971000D01*
X196654000Y-123975000D01*
X196643000Y-123979000D01*
X196631000Y-123982000D01*
X196620000Y-123985000D01*
X196608000Y-123987000D01*
X196597000Y-123989000D01*
X196585000Y-123990000D01*
X196573000Y-123990000D01*
X196561000Y-123990000D01*
X196549000Y-123989000D01*
X196538000Y-123987000D01*
X196526000Y-123985000D01*
X196515000Y-123982000D01*
X196503000Y-123979000D01*
X196492000Y-123975000D01*
X196481000Y-123971000D01*
X196471000Y-123965000D01*
X196461000Y-123960000D01*
X196450000Y-123954000D01*
X196441000Y-123947000D01*
X196431000Y-123940000D01*
X196422000Y-123932000D01*
X196414000Y-123924000D01*
X196406000Y-123916000D01*
X196398000Y-123907000D01*
X196391000Y-123897000D01*
X196384000Y-123888000D01*
X196378000Y-123877000D01*
X196373000Y-123867000D01*
X196367000Y-123857000D01*
X196363000Y-123846000D01*
X196359000Y-123835000D01*
X196356000Y-123823000D01*
X196353000Y-123812000D01*
X196351000Y-123800000D01*
X196349000Y-123789000D01*
X196348000Y-123777000D01*
X196348000Y-123765000D01*
X196348000Y-123365000D01*
X196048000Y-123365000D01*
X196048000Y-123765000D01*
X196049000Y-123792000D01*
X196051000Y-123820000D01*
X196054000Y-123847000D01*
X196059000Y-123874000D01*
X196066000Y-123901000D01*
X196074000Y-123927000D01*
X196083000Y-123953000D01*
X196093000Y-123979000D01*
X196105000Y-124003000D01*
X196118000Y-124027000D01*
X196133000Y-124051000D01*
X196148000Y-124074000D01*
X196165000Y-124095000D01*
X196183000Y-124116000D01*
X196202000Y-124136000D01*
X196222000Y-124155000D01*
X196243000Y-124173000D01*
X196264000Y-124190000D01*
X196287000Y-124205000D01*
X196311000Y-124220000D01*
X196335000Y-124233000D01*
X196359000Y-124245000D01*
X196385000Y-124255000D01*
X196411000Y-124264000D01*
X196437000Y-124272000D01*
X196464000Y-124279000D01*
X196491000Y-124284000D01*
X196518000Y-124287000D01*
X196546000Y-124289000D01*
X196573000Y-124290000D01*
X196600000Y-124289000D01*
X196628000Y-124287000D01*
X196655000Y-124284000D01*
X196682000Y-124279000D01*
X196709000Y-124272000D01*
X196735000Y-124264000D01*
X196761000Y-124255000D01*
X196787000Y-124245000D01*
X196811000Y-124233000D01*
X196835000Y-124220000D01*
X196859000Y-124205000D01*
X196882000Y-124190000D01*
X196903000Y-124173000D01*
X196924000Y-124155000D01*
X196944000Y-124136000D01*
X196963000Y-124116000D01*
X196981000Y-124095000D01*
X196998000Y-124074000D01*
X197013000Y-124051000D01*
X197028000Y-124028000D01*
X197041000Y-124003000D01*
X197053000Y-123979000D01*
X197063000Y-123953000D01*
X197072000Y-123927000D01*
X197080000Y-123901000D01*
X197087000Y-123874000D01*
X197092000Y-123847000D01*
X197095000Y-123820000D01*
X197097000Y-123792000D01*
X197098000Y-123765000D01*
X197098000Y-123365000D01*
X196798000Y-123365000D01*
G37*
X196798000Y-123365000D02*
X196798000Y-123765000D01*
X196798000Y-123777000D01*
X196797000Y-123789000D01*
X196795000Y-123800000D01*
X196793000Y-123812000D01*
X196790000Y-123823000D01*
X196787000Y-123835000D01*
X196783000Y-123846000D01*
X196779000Y-123857000D01*
X196773000Y-123867000D01*
X196768000Y-123878000D01*
X196762000Y-123888000D01*
X196755000Y-123897000D01*
X196748000Y-123907000D01*
X196740000Y-123916000D01*
X196732000Y-123924000D01*
X196724000Y-123932000D01*
X196715000Y-123940000D01*
X196705000Y-123947000D01*
X196696000Y-123954000D01*
X196686000Y-123960000D01*
X196675000Y-123965000D01*
X196665000Y-123971000D01*
X196654000Y-123975000D01*
X196643000Y-123979000D01*
X196631000Y-123982000D01*
X196620000Y-123985000D01*
X196608000Y-123987000D01*
X196597000Y-123989000D01*
X196585000Y-123990000D01*
X196573000Y-123990000D01*
X196561000Y-123990000D01*
X196549000Y-123989000D01*
X196538000Y-123987000D01*
X196526000Y-123985000D01*
X196515000Y-123982000D01*
X196503000Y-123979000D01*
X196492000Y-123975000D01*
X196481000Y-123971000D01*
X196471000Y-123965000D01*
X196461000Y-123960000D01*
X196450000Y-123954000D01*
X196441000Y-123947000D01*
X196431000Y-123940000D01*
X196422000Y-123932000D01*
X196414000Y-123924000D01*
X196406000Y-123916000D01*
X196398000Y-123907000D01*
X196391000Y-123897000D01*
X196384000Y-123888000D01*
X196378000Y-123877000D01*
X196373000Y-123867000D01*
X196367000Y-123857000D01*
X196363000Y-123846000D01*
X196359000Y-123835000D01*
X196356000Y-123823000D01*
X196353000Y-123812000D01*
X196351000Y-123800000D01*
X196349000Y-123789000D01*
X196348000Y-123777000D01*
X196348000Y-123765000D01*
X196348000Y-123365000D01*
X196048000Y-123365000D01*
X196048000Y-123765000D01*
X196049000Y-123792000D01*
X196051000Y-123820000D01*
X196054000Y-123847000D01*
X196059000Y-123874000D01*
X196066000Y-123901000D01*
X196074000Y-123927000D01*
X196083000Y-123953000D01*
X196093000Y-123979000D01*
X196105000Y-124003000D01*
X196118000Y-124027000D01*
X196133000Y-124051000D01*
X196148000Y-124074000D01*
X196165000Y-124095000D01*
X196183000Y-124116000D01*
X196202000Y-124136000D01*
X196222000Y-124155000D01*
X196243000Y-124173000D01*
X196264000Y-124190000D01*
X196287000Y-124205000D01*
X196311000Y-124220000D01*
X196335000Y-124233000D01*
X196359000Y-124245000D01*
X196385000Y-124255000D01*
X196411000Y-124264000D01*
X196437000Y-124272000D01*
X196464000Y-124279000D01*
X196491000Y-124284000D01*
X196518000Y-124287000D01*
X196546000Y-124289000D01*
X196573000Y-124290000D01*
X196600000Y-124289000D01*
X196628000Y-124287000D01*
X196655000Y-124284000D01*
X196682000Y-124279000D01*
X196709000Y-124272000D01*
X196735000Y-124264000D01*
X196761000Y-124255000D01*
X196787000Y-124245000D01*
X196811000Y-124233000D01*
X196835000Y-124220000D01*
X196859000Y-124205000D01*
X196882000Y-124190000D01*
X196903000Y-124173000D01*
X196924000Y-124155000D01*
X196944000Y-124136000D01*
X196963000Y-124116000D01*
X196981000Y-124095000D01*
X196998000Y-124074000D01*
X197013000Y-124051000D01*
X197028000Y-124028000D01*
X197041000Y-124003000D01*
X197053000Y-123979000D01*
X197063000Y-123953000D01*
X197072000Y-123927000D01*
X197080000Y-123901000D01*
X197087000Y-123874000D01*
X197092000Y-123847000D01*
X197095000Y-123820000D01*
X197097000Y-123792000D01*
X197098000Y-123765000D01*
X197098000Y-123365000D01*
X196798000Y-123365000D01*
G36*
X196348000Y-123365000D02*
G01*
X196348000Y-122965000D01*
X196348000Y-122953000D01*
X196349000Y-122941000D01*
X196351000Y-122930000D01*
X196353000Y-122918000D01*
X196356000Y-122907000D01*
X196359000Y-122895000D01*
X196363000Y-122884000D01*
X196367000Y-122873000D01*
X196373000Y-122863000D01*
X196378000Y-122853000D01*
X196384000Y-122842000D01*
X196391000Y-122833000D01*
X196398000Y-122823000D01*
X196406000Y-122814000D01*
X196414000Y-122806000D01*
X196422000Y-122798000D01*
X196431000Y-122790000D01*
X196441000Y-122783000D01*
X196450000Y-122776000D01*
X196461000Y-122770000D01*
X196471000Y-122765000D01*
X196481000Y-122759000D01*
X196492000Y-122755000D01*
X196503000Y-122751000D01*
X196515000Y-122748000D01*
X196526000Y-122745000D01*
X196538000Y-122743000D01*
X196549000Y-122741000D01*
X196561000Y-122740000D01*
X196573000Y-122740000D01*
X196585000Y-122740000D01*
X196597000Y-122741000D01*
X196608000Y-122743000D01*
X196620000Y-122745000D01*
X196631000Y-122748000D01*
X196643000Y-122751000D01*
X196654000Y-122755000D01*
X196665000Y-122759000D01*
X196675000Y-122765000D01*
X196686000Y-122770000D01*
X196696000Y-122776000D01*
X196705000Y-122783000D01*
X196715000Y-122790000D01*
X196724000Y-122798000D01*
X196732000Y-122806000D01*
X196740000Y-122814000D01*
X196748000Y-122823000D01*
X196755000Y-122833000D01*
X196762000Y-122842000D01*
X196768000Y-122852000D01*
X196773000Y-122863000D01*
X196779000Y-122873000D01*
X196783000Y-122884000D01*
X196787000Y-122895000D01*
X196790000Y-122907000D01*
X196793000Y-122918000D01*
X196795000Y-122930000D01*
X196797000Y-122941000D01*
X196798000Y-122953000D01*
X196798000Y-122965000D01*
X196798000Y-123365000D01*
X197098000Y-123365000D01*
X197098000Y-122965000D01*
X197097000Y-122938000D01*
X197095000Y-122910000D01*
X197092000Y-122883000D01*
X197087000Y-122856000D01*
X197080000Y-122829000D01*
X197072000Y-122803000D01*
X197063000Y-122777000D01*
X197053000Y-122751000D01*
X197041000Y-122727000D01*
X197028000Y-122702000D01*
X197013000Y-122679000D01*
X196998000Y-122656000D01*
X196981000Y-122635000D01*
X196963000Y-122614000D01*
X196944000Y-122594000D01*
X196924000Y-122575000D01*
X196903000Y-122557000D01*
X196882000Y-122540000D01*
X196859000Y-122525000D01*
X196835000Y-122510000D01*
X196811000Y-122497000D01*
X196787000Y-122485000D01*
X196761000Y-122475000D01*
X196735000Y-122466000D01*
X196709000Y-122458000D01*
X196682000Y-122451000D01*
X196655000Y-122446000D01*
X196628000Y-122443000D01*
X196600000Y-122441000D01*
X196573000Y-122440000D01*
X196546000Y-122441000D01*
X196518000Y-122443000D01*
X196491000Y-122446000D01*
X196464000Y-122451000D01*
X196437000Y-122458000D01*
X196411000Y-122466000D01*
X196385000Y-122475000D01*
X196359000Y-122485000D01*
X196335000Y-122497000D01*
X196311000Y-122510000D01*
X196287000Y-122525000D01*
X196264000Y-122540000D01*
X196243000Y-122557000D01*
X196222000Y-122575000D01*
X196202000Y-122594000D01*
X196183000Y-122614000D01*
X196165000Y-122635000D01*
X196148000Y-122656000D01*
X196133000Y-122679000D01*
X196118000Y-122703000D01*
X196105000Y-122727000D01*
X196093000Y-122751000D01*
X196083000Y-122777000D01*
X196074000Y-122803000D01*
X196066000Y-122829000D01*
X196059000Y-122856000D01*
X196054000Y-122883000D01*
X196051000Y-122910000D01*
X196049000Y-122938000D01*
X196048000Y-122965000D01*
X196048000Y-123365000D01*
X196348000Y-123365000D01*
G37*
X196348000Y-123365000D02*
X196348000Y-122965000D01*
X196348000Y-122953000D01*
X196349000Y-122941000D01*
X196351000Y-122930000D01*
X196353000Y-122918000D01*
X196356000Y-122907000D01*
X196359000Y-122895000D01*
X196363000Y-122884000D01*
X196367000Y-122873000D01*
X196373000Y-122863000D01*
X196378000Y-122853000D01*
X196384000Y-122842000D01*
X196391000Y-122833000D01*
X196398000Y-122823000D01*
X196406000Y-122814000D01*
X196414000Y-122806000D01*
X196422000Y-122798000D01*
X196431000Y-122790000D01*
X196441000Y-122783000D01*
X196450000Y-122776000D01*
X196461000Y-122770000D01*
X196471000Y-122765000D01*
X196481000Y-122759000D01*
X196492000Y-122755000D01*
X196503000Y-122751000D01*
X196515000Y-122748000D01*
X196526000Y-122745000D01*
X196538000Y-122743000D01*
X196549000Y-122741000D01*
X196561000Y-122740000D01*
X196573000Y-122740000D01*
X196585000Y-122740000D01*
X196597000Y-122741000D01*
X196608000Y-122743000D01*
X196620000Y-122745000D01*
X196631000Y-122748000D01*
X196643000Y-122751000D01*
X196654000Y-122755000D01*
X196665000Y-122759000D01*
X196675000Y-122765000D01*
X196686000Y-122770000D01*
X196696000Y-122776000D01*
X196705000Y-122783000D01*
X196715000Y-122790000D01*
X196724000Y-122798000D01*
X196732000Y-122806000D01*
X196740000Y-122814000D01*
X196748000Y-122823000D01*
X196755000Y-122833000D01*
X196762000Y-122842000D01*
X196768000Y-122852000D01*
X196773000Y-122863000D01*
X196779000Y-122873000D01*
X196783000Y-122884000D01*
X196787000Y-122895000D01*
X196790000Y-122907000D01*
X196793000Y-122918000D01*
X196795000Y-122930000D01*
X196797000Y-122941000D01*
X196798000Y-122953000D01*
X196798000Y-122965000D01*
X196798000Y-123365000D01*
X197098000Y-123365000D01*
X197098000Y-122965000D01*
X197097000Y-122938000D01*
X197095000Y-122910000D01*
X197092000Y-122883000D01*
X197087000Y-122856000D01*
X197080000Y-122829000D01*
X197072000Y-122803000D01*
X197063000Y-122777000D01*
X197053000Y-122751000D01*
X197041000Y-122727000D01*
X197028000Y-122702000D01*
X197013000Y-122679000D01*
X196998000Y-122656000D01*
X196981000Y-122635000D01*
X196963000Y-122614000D01*
X196944000Y-122594000D01*
X196924000Y-122575000D01*
X196903000Y-122557000D01*
X196882000Y-122540000D01*
X196859000Y-122525000D01*
X196835000Y-122510000D01*
X196811000Y-122497000D01*
X196787000Y-122485000D01*
X196761000Y-122475000D01*
X196735000Y-122466000D01*
X196709000Y-122458000D01*
X196682000Y-122451000D01*
X196655000Y-122446000D01*
X196628000Y-122443000D01*
X196600000Y-122441000D01*
X196573000Y-122440000D01*
X196546000Y-122441000D01*
X196518000Y-122443000D01*
X196491000Y-122446000D01*
X196464000Y-122451000D01*
X196437000Y-122458000D01*
X196411000Y-122466000D01*
X196385000Y-122475000D01*
X196359000Y-122485000D01*
X196335000Y-122497000D01*
X196311000Y-122510000D01*
X196287000Y-122525000D01*
X196264000Y-122540000D01*
X196243000Y-122557000D01*
X196222000Y-122575000D01*
X196202000Y-122594000D01*
X196183000Y-122614000D01*
X196165000Y-122635000D01*
X196148000Y-122656000D01*
X196133000Y-122679000D01*
X196118000Y-122703000D01*
X196105000Y-122727000D01*
X196093000Y-122751000D01*
X196083000Y-122777000D01*
X196074000Y-122803000D01*
X196066000Y-122829000D01*
X196059000Y-122856000D01*
X196054000Y-122883000D01*
X196051000Y-122910000D01*
X196049000Y-122938000D01*
X196048000Y-122965000D01*
X196048000Y-123365000D01*
X196348000Y-123365000D01*
G36*
X189648000Y-123365000D02*
G01*
X189648000Y-123765000D01*
X189648000Y-123777000D01*
X189647000Y-123789000D01*
X189645000Y-123800000D01*
X189643000Y-123812000D01*
X189640000Y-123823000D01*
X189637000Y-123835000D01*
X189633000Y-123846000D01*
X189629000Y-123857000D01*
X189623000Y-123867000D01*
X189618000Y-123877000D01*
X189612000Y-123888000D01*
X189605000Y-123897000D01*
X189598000Y-123907000D01*
X189590000Y-123916000D01*
X189582000Y-123924000D01*
X189574000Y-123932000D01*
X189565000Y-123940000D01*
X189555000Y-123947000D01*
X189546000Y-123954000D01*
X189535000Y-123960000D01*
X189525000Y-123965000D01*
X189515000Y-123971000D01*
X189504000Y-123975000D01*
X189493000Y-123979000D01*
X189481000Y-123982000D01*
X189470000Y-123985000D01*
X189458000Y-123987000D01*
X189447000Y-123989000D01*
X189435000Y-123990000D01*
X189423000Y-123990000D01*
X189411000Y-123990000D01*
X189399000Y-123989000D01*
X189388000Y-123987000D01*
X189376000Y-123985000D01*
X189365000Y-123982000D01*
X189353000Y-123979000D01*
X189342000Y-123975000D01*
X189331000Y-123971000D01*
X189321000Y-123965000D01*
X189310000Y-123960000D01*
X189300000Y-123954000D01*
X189291000Y-123947000D01*
X189281000Y-123940000D01*
X189272000Y-123932000D01*
X189264000Y-123924000D01*
X189256000Y-123916000D01*
X189248000Y-123907000D01*
X189241000Y-123897000D01*
X189234000Y-123888000D01*
X189228000Y-123878000D01*
X189223000Y-123867000D01*
X189217000Y-123857000D01*
X189213000Y-123846000D01*
X189209000Y-123835000D01*
X189206000Y-123823000D01*
X189203000Y-123812000D01*
X189201000Y-123800000D01*
X189199000Y-123789000D01*
X189198000Y-123777000D01*
X189198000Y-123765000D01*
X189198000Y-123365000D01*
X188898000Y-123365000D01*
X188898000Y-123765000D01*
X188899000Y-123792000D01*
X188901000Y-123820000D01*
X188904000Y-123847000D01*
X188909000Y-123874000D01*
X188916000Y-123901000D01*
X188924000Y-123927000D01*
X188933000Y-123953000D01*
X188943000Y-123979000D01*
X188955000Y-124003000D01*
X188968000Y-124028000D01*
X188983000Y-124051000D01*
X188998000Y-124074000D01*
X189015000Y-124095000D01*
X189033000Y-124116000D01*
X189052000Y-124136000D01*
X189072000Y-124155000D01*
X189093000Y-124173000D01*
X189114000Y-124190000D01*
X189137000Y-124205000D01*
X189161000Y-124220000D01*
X189185000Y-124233000D01*
X189209000Y-124245000D01*
X189235000Y-124255000D01*
X189261000Y-124264000D01*
X189287000Y-124272000D01*
X189314000Y-124279000D01*
X189341000Y-124284000D01*
X189368000Y-124287000D01*
X189396000Y-124289000D01*
X189423000Y-124290000D01*
X189450000Y-124289000D01*
X189478000Y-124287000D01*
X189505000Y-124284000D01*
X189532000Y-124279000D01*
X189559000Y-124272000D01*
X189585000Y-124264000D01*
X189611000Y-124255000D01*
X189637000Y-124245000D01*
X189661000Y-124233000D01*
X189685000Y-124220000D01*
X189709000Y-124205000D01*
X189732000Y-124190000D01*
X189753000Y-124173000D01*
X189774000Y-124155000D01*
X189794000Y-124136000D01*
X189813000Y-124116000D01*
X189831000Y-124095000D01*
X189848000Y-124074000D01*
X189863000Y-124051000D01*
X189878000Y-124027000D01*
X189891000Y-124003000D01*
X189903000Y-123979000D01*
X189913000Y-123953000D01*
X189922000Y-123927000D01*
X189930000Y-123901000D01*
X189937000Y-123874000D01*
X189942000Y-123847000D01*
X189945000Y-123820000D01*
X189947000Y-123792000D01*
X189948000Y-123765000D01*
X189948000Y-123365000D01*
X189648000Y-123365000D01*
G37*
X189648000Y-123365000D02*
X189648000Y-123765000D01*
X189648000Y-123777000D01*
X189647000Y-123789000D01*
X189645000Y-123800000D01*
X189643000Y-123812000D01*
X189640000Y-123823000D01*
X189637000Y-123835000D01*
X189633000Y-123846000D01*
X189629000Y-123857000D01*
X189623000Y-123867000D01*
X189618000Y-123877000D01*
X189612000Y-123888000D01*
X189605000Y-123897000D01*
X189598000Y-123907000D01*
X189590000Y-123916000D01*
X189582000Y-123924000D01*
X189574000Y-123932000D01*
X189565000Y-123940000D01*
X189555000Y-123947000D01*
X189546000Y-123954000D01*
X189535000Y-123960000D01*
X189525000Y-123965000D01*
X189515000Y-123971000D01*
X189504000Y-123975000D01*
X189493000Y-123979000D01*
X189481000Y-123982000D01*
X189470000Y-123985000D01*
X189458000Y-123987000D01*
X189447000Y-123989000D01*
X189435000Y-123990000D01*
X189423000Y-123990000D01*
X189411000Y-123990000D01*
X189399000Y-123989000D01*
X189388000Y-123987000D01*
X189376000Y-123985000D01*
X189365000Y-123982000D01*
X189353000Y-123979000D01*
X189342000Y-123975000D01*
X189331000Y-123971000D01*
X189321000Y-123965000D01*
X189310000Y-123960000D01*
X189300000Y-123954000D01*
X189291000Y-123947000D01*
X189281000Y-123940000D01*
X189272000Y-123932000D01*
X189264000Y-123924000D01*
X189256000Y-123916000D01*
X189248000Y-123907000D01*
X189241000Y-123897000D01*
X189234000Y-123888000D01*
X189228000Y-123878000D01*
X189223000Y-123867000D01*
X189217000Y-123857000D01*
X189213000Y-123846000D01*
X189209000Y-123835000D01*
X189206000Y-123823000D01*
X189203000Y-123812000D01*
X189201000Y-123800000D01*
X189199000Y-123789000D01*
X189198000Y-123777000D01*
X189198000Y-123765000D01*
X189198000Y-123365000D01*
X188898000Y-123365000D01*
X188898000Y-123765000D01*
X188899000Y-123792000D01*
X188901000Y-123820000D01*
X188904000Y-123847000D01*
X188909000Y-123874000D01*
X188916000Y-123901000D01*
X188924000Y-123927000D01*
X188933000Y-123953000D01*
X188943000Y-123979000D01*
X188955000Y-124003000D01*
X188968000Y-124028000D01*
X188983000Y-124051000D01*
X188998000Y-124074000D01*
X189015000Y-124095000D01*
X189033000Y-124116000D01*
X189052000Y-124136000D01*
X189072000Y-124155000D01*
X189093000Y-124173000D01*
X189114000Y-124190000D01*
X189137000Y-124205000D01*
X189161000Y-124220000D01*
X189185000Y-124233000D01*
X189209000Y-124245000D01*
X189235000Y-124255000D01*
X189261000Y-124264000D01*
X189287000Y-124272000D01*
X189314000Y-124279000D01*
X189341000Y-124284000D01*
X189368000Y-124287000D01*
X189396000Y-124289000D01*
X189423000Y-124290000D01*
X189450000Y-124289000D01*
X189478000Y-124287000D01*
X189505000Y-124284000D01*
X189532000Y-124279000D01*
X189559000Y-124272000D01*
X189585000Y-124264000D01*
X189611000Y-124255000D01*
X189637000Y-124245000D01*
X189661000Y-124233000D01*
X189685000Y-124220000D01*
X189709000Y-124205000D01*
X189732000Y-124190000D01*
X189753000Y-124173000D01*
X189774000Y-124155000D01*
X189794000Y-124136000D01*
X189813000Y-124116000D01*
X189831000Y-124095000D01*
X189848000Y-124074000D01*
X189863000Y-124051000D01*
X189878000Y-124027000D01*
X189891000Y-124003000D01*
X189903000Y-123979000D01*
X189913000Y-123953000D01*
X189922000Y-123927000D01*
X189930000Y-123901000D01*
X189937000Y-123874000D01*
X189942000Y-123847000D01*
X189945000Y-123820000D01*
X189947000Y-123792000D01*
X189948000Y-123765000D01*
X189948000Y-123365000D01*
X189648000Y-123365000D01*
G36*
X189198000Y-123365000D02*
G01*
X189198000Y-122965000D01*
X189198000Y-122953000D01*
X189199000Y-122941000D01*
X189201000Y-122930000D01*
X189203000Y-122918000D01*
X189206000Y-122907000D01*
X189209000Y-122895000D01*
X189213000Y-122884000D01*
X189217000Y-122873000D01*
X189223000Y-122863000D01*
X189228000Y-122852000D01*
X189234000Y-122842000D01*
X189241000Y-122833000D01*
X189248000Y-122823000D01*
X189256000Y-122814000D01*
X189264000Y-122806000D01*
X189272000Y-122798000D01*
X189281000Y-122790000D01*
X189291000Y-122783000D01*
X189300000Y-122776000D01*
X189310000Y-122770000D01*
X189321000Y-122765000D01*
X189331000Y-122759000D01*
X189342000Y-122755000D01*
X189353000Y-122751000D01*
X189365000Y-122748000D01*
X189376000Y-122745000D01*
X189388000Y-122743000D01*
X189399000Y-122741000D01*
X189411000Y-122740000D01*
X189423000Y-122740000D01*
X189435000Y-122740000D01*
X189447000Y-122741000D01*
X189458000Y-122743000D01*
X189470000Y-122745000D01*
X189481000Y-122748000D01*
X189493000Y-122751000D01*
X189504000Y-122755000D01*
X189515000Y-122759000D01*
X189525000Y-122765000D01*
X189535000Y-122770000D01*
X189546000Y-122776000D01*
X189555000Y-122783000D01*
X189565000Y-122790000D01*
X189574000Y-122798000D01*
X189582000Y-122806000D01*
X189590000Y-122814000D01*
X189598000Y-122823000D01*
X189605000Y-122833000D01*
X189612000Y-122842000D01*
X189618000Y-122853000D01*
X189623000Y-122863000D01*
X189629000Y-122873000D01*
X189633000Y-122884000D01*
X189637000Y-122895000D01*
X189640000Y-122907000D01*
X189643000Y-122918000D01*
X189645000Y-122930000D01*
X189647000Y-122941000D01*
X189648000Y-122953000D01*
X189648000Y-122965000D01*
X189648000Y-123365000D01*
X189948000Y-123365000D01*
X189948000Y-122965000D01*
X189947000Y-122938000D01*
X189945000Y-122910000D01*
X189942000Y-122883000D01*
X189937000Y-122856000D01*
X189930000Y-122829000D01*
X189922000Y-122803000D01*
X189913000Y-122777000D01*
X189903000Y-122751000D01*
X189891000Y-122727000D01*
X189878000Y-122703000D01*
X189863000Y-122679000D01*
X189848000Y-122656000D01*
X189831000Y-122635000D01*
X189813000Y-122614000D01*
X189794000Y-122594000D01*
X189774000Y-122575000D01*
X189753000Y-122557000D01*
X189732000Y-122540000D01*
X189709000Y-122525000D01*
X189685000Y-122510000D01*
X189661000Y-122497000D01*
X189637000Y-122485000D01*
X189611000Y-122475000D01*
X189585000Y-122466000D01*
X189559000Y-122458000D01*
X189532000Y-122451000D01*
X189505000Y-122446000D01*
X189478000Y-122443000D01*
X189450000Y-122441000D01*
X189423000Y-122440000D01*
X189396000Y-122441000D01*
X189368000Y-122443000D01*
X189341000Y-122446000D01*
X189314000Y-122451000D01*
X189287000Y-122458000D01*
X189261000Y-122466000D01*
X189235000Y-122475000D01*
X189209000Y-122485000D01*
X189185000Y-122497000D01*
X189161000Y-122510000D01*
X189137000Y-122525000D01*
X189114000Y-122540000D01*
X189093000Y-122557000D01*
X189072000Y-122575000D01*
X189052000Y-122594000D01*
X189033000Y-122614000D01*
X189015000Y-122635000D01*
X188998000Y-122656000D01*
X188983000Y-122679000D01*
X188968000Y-122702000D01*
X188955000Y-122727000D01*
X188943000Y-122751000D01*
X188933000Y-122777000D01*
X188924000Y-122803000D01*
X188916000Y-122829000D01*
X188909000Y-122856000D01*
X188904000Y-122883000D01*
X188901000Y-122910000D01*
X188899000Y-122938000D01*
X188898000Y-122965000D01*
X188898000Y-123365000D01*
X189198000Y-123365000D01*
G37*
X189198000Y-123365000D02*
X189198000Y-122965000D01*
X189198000Y-122953000D01*
X189199000Y-122941000D01*
X189201000Y-122930000D01*
X189203000Y-122918000D01*
X189206000Y-122907000D01*
X189209000Y-122895000D01*
X189213000Y-122884000D01*
X189217000Y-122873000D01*
X189223000Y-122863000D01*
X189228000Y-122852000D01*
X189234000Y-122842000D01*
X189241000Y-122833000D01*
X189248000Y-122823000D01*
X189256000Y-122814000D01*
X189264000Y-122806000D01*
X189272000Y-122798000D01*
X189281000Y-122790000D01*
X189291000Y-122783000D01*
X189300000Y-122776000D01*
X189310000Y-122770000D01*
X189321000Y-122765000D01*
X189331000Y-122759000D01*
X189342000Y-122755000D01*
X189353000Y-122751000D01*
X189365000Y-122748000D01*
X189376000Y-122745000D01*
X189388000Y-122743000D01*
X189399000Y-122741000D01*
X189411000Y-122740000D01*
X189423000Y-122740000D01*
X189435000Y-122740000D01*
X189447000Y-122741000D01*
X189458000Y-122743000D01*
X189470000Y-122745000D01*
X189481000Y-122748000D01*
X189493000Y-122751000D01*
X189504000Y-122755000D01*
X189515000Y-122759000D01*
X189525000Y-122765000D01*
X189535000Y-122770000D01*
X189546000Y-122776000D01*
X189555000Y-122783000D01*
X189565000Y-122790000D01*
X189574000Y-122798000D01*
X189582000Y-122806000D01*
X189590000Y-122814000D01*
X189598000Y-122823000D01*
X189605000Y-122833000D01*
X189612000Y-122842000D01*
X189618000Y-122853000D01*
X189623000Y-122863000D01*
X189629000Y-122873000D01*
X189633000Y-122884000D01*
X189637000Y-122895000D01*
X189640000Y-122907000D01*
X189643000Y-122918000D01*
X189645000Y-122930000D01*
X189647000Y-122941000D01*
X189648000Y-122953000D01*
X189648000Y-122965000D01*
X189648000Y-123365000D01*
X189948000Y-123365000D01*
X189948000Y-122965000D01*
X189947000Y-122938000D01*
X189945000Y-122910000D01*
X189942000Y-122883000D01*
X189937000Y-122856000D01*
X189930000Y-122829000D01*
X189922000Y-122803000D01*
X189913000Y-122777000D01*
X189903000Y-122751000D01*
X189891000Y-122727000D01*
X189878000Y-122703000D01*
X189863000Y-122679000D01*
X189848000Y-122656000D01*
X189831000Y-122635000D01*
X189813000Y-122614000D01*
X189794000Y-122594000D01*
X189774000Y-122575000D01*
X189753000Y-122557000D01*
X189732000Y-122540000D01*
X189709000Y-122525000D01*
X189685000Y-122510000D01*
X189661000Y-122497000D01*
X189637000Y-122485000D01*
X189611000Y-122475000D01*
X189585000Y-122466000D01*
X189559000Y-122458000D01*
X189532000Y-122451000D01*
X189505000Y-122446000D01*
X189478000Y-122443000D01*
X189450000Y-122441000D01*
X189423000Y-122440000D01*
X189396000Y-122441000D01*
X189368000Y-122443000D01*
X189341000Y-122446000D01*
X189314000Y-122451000D01*
X189287000Y-122458000D01*
X189261000Y-122466000D01*
X189235000Y-122475000D01*
X189209000Y-122485000D01*
X189185000Y-122497000D01*
X189161000Y-122510000D01*
X189137000Y-122525000D01*
X189114000Y-122540000D01*
X189093000Y-122557000D01*
X189072000Y-122575000D01*
X189052000Y-122594000D01*
X189033000Y-122614000D01*
X189015000Y-122635000D01*
X188998000Y-122656000D01*
X188983000Y-122679000D01*
X188968000Y-122702000D01*
X188955000Y-122727000D01*
X188943000Y-122751000D01*
X188933000Y-122777000D01*
X188924000Y-122803000D01*
X188916000Y-122829000D01*
X188909000Y-122856000D01*
X188904000Y-122883000D01*
X188901000Y-122910000D01*
X188899000Y-122938000D01*
X188898000Y-122965000D01*
X188898000Y-123365000D01*
X189198000Y-123365000D01*
G36*
X113398000Y-73315000D02*
G01*
X113798000Y-73315000D01*
X113810000Y-73315000D01*
X113822000Y-73316000D01*
X113833000Y-73318000D01*
X113845000Y-73320000D01*
X113856000Y-73323000D01*
X113868000Y-73326000D01*
X113879000Y-73330000D01*
X113890000Y-73334000D01*
X113900000Y-73340000D01*
X113911000Y-73345000D01*
X113921000Y-73351000D01*
X113930000Y-73358000D01*
X113940000Y-73365000D01*
X113949000Y-73373000D01*
X113957000Y-73381000D01*
X113965000Y-73389000D01*
X113973000Y-73398000D01*
X113980000Y-73408000D01*
X113987000Y-73417000D01*
X113993000Y-73427000D01*
X113998000Y-73438000D01*
X114004000Y-73448000D01*
X114008000Y-73459000D01*
X114012000Y-73470000D01*
X114015000Y-73482000D01*
X114018000Y-73493000D01*
X114020000Y-73505000D01*
X114022000Y-73516000D01*
X114023000Y-73528000D01*
X114023000Y-73540000D01*
X114023000Y-73552000D01*
X114022000Y-73564000D01*
X114020000Y-73575000D01*
X114018000Y-73587000D01*
X114015000Y-73598000D01*
X114012000Y-73610000D01*
X114008000Y-73621000D01*
X114004000Y-73632000D01*
X113998000Y-73642000D01*
X113993000Y-73652000D01*
X113987000Y-73663000D01*
X113980000Y-73672000D01*
X113973000Y-73682000D01*
X113965000Y-73691000D01*
X113957000Y-73699000D01*
X113949000Y-73707000D01*
X113940000Y-73715000D01*
X113930000Y-73722000D01*
X113921000Y-73729000D01*
X113910000Y-73735000D01*
X113900000Y-73740000D01*
X113890000Y-73746000D01*
X113879000Y-73750000D01*
X113868000Y-73754000D01*
X113856000Y-73757000D01*
X113845000Y-73760000D01*
X113833000Y-73762000D01*
X113822000Y-73764000D01*
X113810000Y-73765000D01*
X113798000Y-73765000D01*
X113398000Y-73765000D01*
X113398000Y-74065000D01*
X113798000Y-74065000D01*
X113825000Y-74064000D01*
X113853000Y-74062000D01*
X113880000Y-74059000D01*
X113907000Y-74054000D01*
X113934000Y-74047000D01*
X113960000Y-74039000D01*
X113986000Y-74030000D01*
X114012000Y-74020000D01*
X114036000Y-74008000D01*
X114060000Y-73995000D01*
X114084000Y-73980000D01*
X114107000Y-73965000D01*
X114128000Y-73948000D01*
X114149000Y-73930000D01*
X114169000Y-73911000D01*
X114188000Y-73891000D01*
X114206000Y-73870000D01*
X114223000Y-73849000D01*
X114238000Y-73826000D01*
X114253000Y-73802000D01*
X114266000Y-73778000D01*
X114278000Y-73754000D01*
X114288000Y-73728000D01*
X114297000Y-73702000D01*
X114305000Y-73676000D01*
X114312000Y-73649000D01*
X114317000Y-73622000D01*
X114320000Y-73595000D01*
X114322000Y-73567000D01*
X114323000Y-73540000D01*
X114322000Y-73513000D01*
X114320000Y-73485000D01*
X114317000Y-73458000D01*
X114312000Y-73431000D01*
X114305000Y-73404000D01*
X114297000Y-73378000D01*
X114288000Y-73352000D01*
X114278000Y-73326000D01*
X114266000Y-73302000D01*
X114253000Y-73278000D01*
X114238000Y-73254000D01*
X114223000Y-73231000D01*
X114206000Y-73210000D01*
X114188000Y-73189000D01*
X114169000Y-73169000D01*
X114149000Y-73150000D01*
X114128000Y-73132000D01*
X114107000Y-73115000D01*
X114084000Y-73100000D01*
X114061000Y-73085000D01*
X114036000Y-73072000D01*
X114012000Y-73060000D01*
X113986000Y-73050000D01*
X113960000Y-73041000D01*
X113934000Y-73033000D01*
X113907000Y-73026000D01*
X113880000Y-73021000D01*
X113853000Y-73018000D01*
X113825000Y-73016000D01*
X113798000Y-73015000D01*
X113398000Y-73015000D01*
X113398000Y-73315000D01*
G37*
X113398000Y-73315000D02*
X113798000Y-73315000D01*
X113810000Y-73315000D01*
X113822000Y-73316000D01*
X113833000Y-73318000D01*
X113845000Y-73320000D01*
X113856000Y-73323000D01*
X113868000Y-73326000D01*
X113879000Y-73330000D01*
X113890000Y-73334000D01*
X113900000Y-73340000D01*
X113911000Y-73345000D01*
X113921000Y-73351000D01*
X113930000Y-73358000D01*
X113940000Y-73365000D01*
X113949000Y-73373000D01*
X113957000Y-73381000D01*
X113965000Y-73389000D01*
X113973000Y-73398000D01*
X113980000Y-73408000D01*
X113987000Y-73417000D01*
X113993000Y-73427000D01*
X113998000Y-73438000D01*
X114004000Y-73448000D01*
X114008000Y-73459000D01*
X114012000Y-73470000D01*
X114015000Y-73482000D01*
X114018000Y-73493000D01*
X114020000Y-73505000D01*
X114022000Y-73516000D01*
X114023000Y-73528000D01*
X114023000Y-73540000D01*
X114023000Y-73552000D01*
X114022000Y-73564000D01*
X114020000Y-73575000D01*
X114018000Y-73587000D01*
X114015000Y-73598000D01*
X114012000Y-73610000D01*
X114008000Y-73621000D01*
X114004000Y-73632000D01*
X113998000Y-73642000D01*
X113993000Y-73652000D01*
X113987000Y-73663000D01*
X113980000Y-73672000D01*
X113973000Y-73682000D01*
X113965000Y-73691000D01*
X113957000Y-73699000D01*
X113949000Y-73707000D01*
X113940000Y-73715000D01*
X113930000Y-73722000D01*
X113921000Y-73729000D01*
X113910000Y-73735000D01*
X113900000Y-73740000D01*
X113890000Y-73746000D01*
X113879000Y-73750000D01*
X113868000Y-73754000D01*
X113856000Y-73757000D01*
X113845000Y-73760000D01*
X113833000Y-73762000D01*
X113822000Y-73764000D01*
X113810000Y-73765000D01*
X113798000Y-73765000D01*
X113398000Y-73765000D01*
X113398000Y-74065000D01*
X113798000Y-74065000D01*
X113825000Y-74064000D01*
X113853000Y-74062000D01*
X113880000Y-74059000D01*
X113907000Y-74054000D01*
X113934000Y-74047000D01*
X113960000Y-74039000D01*
X113986000Y-74030000D01*
X114012000Y-74020000D01*
X114036000Y-74008000D01*
X114060000Y-73995000D01*
X114084000Y-73980000D01*
X114107000Y-73965000D01*
X114128000Y-73948000D01*
X114149000Y-73930000D01*
X114169000Y-73911000D01*
X114188000Y-73891000D01*
X114206000Y-73870000D01*
X114223000Y-73849000D01*
X114238000Y-73826000D01*
X114253000Y-73802000D01*
X114266000Y-73778000D01*
X114278000Y-73754000D01*
X114288000Y-73728000D01*
X114297000Y-73702000D01*
X114305000Y-73676000D01*
X114312000Y-73649000D01*
X114317000Y-73622000D01*
X114320000Y-73595000D01*
X114322000Y-73567000D01*
X114323000Y-73540000D01*
X114322000Y-73513000D01*
X114320000Y-73485000D01*
X114317000Y-73458000D01*
X114312000Y-73431000D01*
X114305000Y-73404000D01*
X114297000Y-73378000D01*
X114288000Y-73352000D01*
X114278000Y-73326000D01*
X114266000Y-73302000D01*
X114253000Y-73278000D01*
X114238000Y-73254000D01*
X114223000Y-73231000D01*
X114206000Y-73210000D01*
X114188000Y-73189000D01*
X114169000Y-73169000D01*
X114149000Y-73150000D01*
X114128000Y-73132000D01*
X114107000Y-73115000D01*
X114084000Y-73100000D01*
X114061000Y-73085000D01*
X114036000Y-73072000D01*
X114012000Y-73060000D01*
X113986000Y-73050000D01*
X113960000Y-73041000D01*
X113934000Y-73033000D01*
X113907000Y-73026000D01*
X113880000Y-73021000D01*
X113853000Y-73018000D01*
X113825000Y-73016000D01*
X113798000Y-73015000D01*
X113398000Y-73015000D01*
X113398000Y-73315000D01*
G36*
X113398000Y-73765000D02*
G01*
X112998000Y-73765000D01*
X112986000Y-73765000D01*
X112974000Y-73764000D01*
X112963000Y-73762000D01*
X112951000Y-73760000D01*
X112940000Y-73757000D01*
X112928000Y-73754000D01*
X112917000Y-73750000D01*
X112906000Y-73746000D01*
X112896000Y-73740000D01*
X112886000Y-73735000D01*
X112875000Y-73729000D01*
X112866000Y-73722000D01*
X112856000Y-73715000D01*
X112847000Y-73707000D01*
X112839000Y-73699000D01*
X112831000Y-73691000D01*
X112823000Y-73682000D01*
X112816000Y-73672000D01*
X112809000Y-73663000D01*
X112803000Y-73652000D01*
X112798000Y-73642000D01*
X112792000Y-73632000D01*
X112788000Y-73621000D01*
X112784000Y-73610000D01*
X112781000Y-73598000D01*
X112778000Y-73587000D01*
X112776000Y-73575000D01*
X112774000Y-73564000D01*
X112773000Y-73552000D01*
X112773000Y-73540000D01*
X112773000Y-73528000D01*
X112774000Y-73516000D01*
X112776000Y-73505000D01*
X112778000Y-73493000D01*
X112781000Y-73482000D01*
X112784000Y-73470000D01*
X112788000Y-73459000D01*
X112792000Y-73448000D01*
X112798000Y-73438000D01*
X112803000Y-73427000D01*
X112809000Y-73417000D01*
X112816000Y-73408000D01*
X112823000Y-73398000D01*
X112831000Y-73389000D01*
X112839000Y-73381000D01*
X112847000Y-73373000D01*
X112856000Y-73365000D01*
X112866000Y-73358000D01*
X112875000Y-73351000D01*
X112885000Y-73345000D01*
X112896000Y-73340000D01*
X112906000Y-73334000D01*
X112917000Y-73330000D01*
X112928000Y-73326000D01*
X112940000Y-73323000D01*
X112951000Y-73320000D01*
X112963000Y-73318000D01*
X112974000Y-73316000D01*
X112986000Y-73315000D01*
X112998000Y-73315000D01*
X113398000Y-73315000D01*
X113398000Y-73015000D01*
X112998000Y-73015000D01*
X112971000Y-73016000D01*
X112943000Y-73018000D01*
X112916000Y-73021000D01*
X112889000Y-73026000D01*
X112862000Y-73033000D01*
X112836000Y-73041000D01*
X112810000Y-73050000D01*
X112784000Y-73060000D01*
X112760000Y-73072000D01*
X112735000Y-73085000D01*
X112712000Y-73100000D01*
X112689000Y-73115000D01*
X112668000Y-73132000D01*
X112647000Y-73150000D01*
X112627000Y-73169000D01*
X112608000Y-73189000D01*
X112590000Y-73210000D01*
X112573000Y-73231000D01*
X112558000Y-73254000D01*
X112543000Y-73278000D01*
X112530000Y-73302000D01*
X112518000Y-73326000D01*
X112508000Y-73352000D01*
X112499000Y-73378000D01*
X112491000Y-73404000D01*
X112484000Y-73431000D01*
X112479000Y-73458000D01*
X112476000Y-73485000D01*
X112474000Y-73513000D01*
X112473000Y-73540000D01*
X112474000Y-73567000D01*
X112476000Y-73595000D01*
X112479000Y-73622000D01*
X112484000Y-73649000D01*
X112491000Y-73676000D01*
X112499000Y-73702000D01*
X112508000Y-73728000D01*
X112518000Y-73754000D01*
X112530000Y-73778000D01*
X112543000Y-73802000D01*
X112558000Y-73826000D01*
X112573000Y-73849000D01*
X112590000Y-73870000D01*
X112608000Y-73891000D01*
X112627000Y-73911000D01*
X112647000Y-73930000D01*
X112668000Y-73948000D01*
X112689000Y-73965000D01*
X112712000Y-73980000D01*
X112736000Y-73995000D01*
X112760000Y-74008000D01*
X112784000Y-74020000D01*
X112810000Y-74030000D01*
X112836000Y-74039000D01*
X112862000Y-74047000D01*
X112889000Y-74054000D01*
X112916000Y-74059000D01*
X112943000Y-74062000D01*
X112971000Y-74064000D01*
X112998000Y-74065000D01*
X113398000Y-74065000D01*
X113398000Y-73765000D01*
G37*
X113398000Y-73765000D02*
X112998000Y-73765000D01*
X112986000Y-73765000D01*
X112974000Y-73764000D01*
X112963000Y-73762000D01*
X112951000Y-73760000D01*
X112940000Y-73757000D01*
X112928000Y-73754000D01*
X112917000Y-73750000D01*
X112906000Y-73746000D01*
X112896000Y-73740000D01*
X112886000Y-73735000D01*
X112875000Y-73729000D01*
X112866000Y-73722000D01*
X112856000Y-73715000D01*
X112847000Y-73707000D01*
X112839000Y-73699000D01*
X112831000Y-73691000D01*
X112823000Y-73682000D01*
X112816000Y-73672000D01*
X112809000Y-73663000D01*
X112803000Y-73652000D01*
X112798000Y-73642000D01*
X112792000Y-73632000D01*
X112788000Y-73621000D01*
X112784000Y-73610000D01*
X112781000Y-73598000D01*
X112778000Y-73587000D01*
X112776000Y-73575000D01*
X112774000Y-73564000D01*
X112773000Y-73552000D01*
X112773000Y-73540000D01*
X112773000Y-73528000D01*
X112774000Y-73516000D01*
X112776000Y-73505000D01*
X112778000Y-73493000D01*
X112781000Y-73482000D01*
X112784000Y-73470000D01*
X112788000Y-73459000D01*
X112792000Y-73448000D01*
X112798000Y-73438000D01*
X112803000Y-73427000D01*
X112809000Y-73417000D01*
X112816000Y-73408000D01*
X112823000Y-73398000D01*
X112831000Y-73389000D01*
X112839000Y-73381000D01*
X112847000Y-73373000D01*
X112856000Y-73365000D01*
X112866000Y-73358000D01*
X112875000Y-73351000D01*
X112885000Y-73345000D01*
X112896000Y-73340000D01*
X112906000Y-73334000D01*
X112917000Y-73330000D01*
X112928000Y-73326000D01*
X112940000Y-73323000D01*
X112951000Y-73320000D01*
X112963000Y-73318000D01*
X112974000Y-73316000D01*
X112986000Y-73315000D01*
X112998000Y-73315000D01*
X113398000Y-73315000D01*
X113398000Y-73015000D01*
X112998000Y-73015000D01*
X112971000Y-73016000D01*
X112943000Y-73018000D01*
X112916000Y-73021000D01*
X112889000Y-73026000D01*
X112862000Y-73033000D01*
X112836000Y-73041000D01*
X112810000Y-73050000D01*
X112784000Y-73060000D01*
X112760000Y-73072000D01*
X112735000Y-73085000D01*
X112712000Y-73100000D01*
X112689000Y-73115000D01*
X112668000Y-73132000D01*
X112647000Y-73150000D01*
X112627000Y-73169000D01*
X112608000Y-73189000D01*
X112590000Y-73210000D01*
X112573000Y-73231000D01*
X112558000Y-73254000D01*
X112543000Y-73278000D01*
X112530000Y-73302000D01*
X112518000Y-73326000D01*
X112508000Y-73352000D01*
X112499000Y-73378000D01*
X112491000Y-73404000D01*
X112484000Y-73431000D01*
X112479000Y-73458000D01*
X112476000Y-73485000D01*
X112474000Y-73513000D01*
X112473000Y-73540000D01*
X112474000Y-73567000D01*
X112476000Y-73595000D01*
X112479000Y-73622000D01*
X112484000Y-73649000D01*
X112491000Y-73676000D01*
X112499000Y-73702000D01*
X112508000Y-73728000D01*
X112518000Y-73754000D01*
X112530000Y-73778000D01*
X112543000Y-73802000D01*
X112558000Y-73826000D01*
X112573000Y-73849000D01*
X112590000Y-73870000D01*
X112608000Y-73891000D01*
X112627000Y-73911000D01*
X112647000Y-73930000D01*
X112668000Y-73948000D01*
X112689000Y-73965000D01*
X112712000Y-73980000D01*
X112736000Y-73995000D01*
X112760000Y-74008000D01*
X112784000Y-74020000D01*
X112810000Y-74030000D01*
X112836000Y-74039000D01*
X112862000Y-74047000D01*
X112889000Y-74054000D01*
X112916000Y-74059000D01*
X112943000Y-74062000D01*
X112971000Y-74064000D01*
X112998000Y-74065000D01*
X113398000Y-74065000D01*
X113398000Y-73765000D01*
G36*
X113398000Y-80465000D02*
G01*
X113798000Y-80465000D01*
X113810000Y-80465000D01*
X113822000Y-80466000D01*
X113833000Y-80468000D01*
X113845000Y-80470000D01*
X113856000Y-80473000D01*
X113868000Y-80476000D01*
X113879000Y-80480000D01*
X113890000Y-80484000D01*
X113900000Y-80490000D01*
X113910000Y-80495000D01*
X113921000Y-80501000D01*
X113930000Y-80508000D01*
X113940000Y-80515000D01*
X113949000Y-80523000D01*
X113957000Y-80531000D01*
X113965000Y-80539000D01*
X113973000Y-80548000D01*
X113980000Y-80558000D01*
X113987000Y-80567000D01*
X113993000Y-80578000D01*
X113998000Y-80588000D01*
X114004000Y-80598000D01*
X114008000Y-80609000D01*
X114012000Y-80620000D01*
X114015000Y-80632000D01*
X114018000Y-80643000D01*
X114020000Y-80655000D01*
X114022000Y-80666000D01*
X114023000Y-80678000D01*
X114023000Y-80690000D01*
X114023000Y-80702000D01*
X114022000Y-80714000D01*
X114020000Y-80725000D01*
X114018000Y-80737000D01*
X114015000Y-80748000D01*
X114012000Y-80760000D01*
X114008000Y-80771000D01*
X114004000Y-80782000D01*
X113998000Y-80792000D01*
X113993000Y-80803000D01*
X113987000Y-80813000D01*
X113980000Y-80822000D01*
X113973000Y-80832000D01*
X113965000Y-80841000D01*
X113957000Y-80849000D01*
X113949000Y-80857000D01*
X113940000Y-80865000D01*
X113930000Y-80872000D01*
X113921000Y-80879000D01*
X113911000Y-80885000D01*
X113900000Y-80890000D01*
X113890000Y-80896000D01*
X113879000Y-80900000D01*
X113868000Y-80904000D01*
X113856000Y-80907000D01*
X113845000Y-80910000D01*
X113833000Y-80912000D01*
X113822000Y-80914000D01*
X113810000Y-80915000D01*
X113798000Y-80915000D01*
X113398000Y-80915000D01*
X113398000Y-81215000D01*
X113798000Y-81215000D01*
X113825000Y-81214000D01*
X113853000Y-81212000D01*
X113880000Y-81209000D01*
X113907000Y-81204000D01*
X113934000Y-81197000D01*
X113960000Y-81189000D01*
X113986000Y-81180000D01*
X114012000Y-81170000D01*
X114036000Y-81158000D01*
X114061000Y-81145000D01*
X114084000Y-81130000D01*
X114107000Y-81115000D01*
X114128000Y-81098000D01*
X114149000Y-81080000D01*
X114169000Y-81061000D01*
X114188000Y-81041000D01*
X114206000Y-81020000D01*
X114223000Y-80999000D01*
X114238000Y-80976000D01*
X114253000Y-80952000D01*
X114266000Y-80928000D01*
X114278000Y-80904000D01*
X114288000Y-80878000D01*
X114297000Y-80852000D01*
X114305000Y-80826000D01*
X114312000Y-80799000D01*
X114317000Y-80772000D01*
X114320000Y-80745000D01*
X114322000Y-80717000D01*
X114323000Y-80690000D01*
X114322000Y-80663000D01*
X114320000Y-80635000D01*
X114317000Y-80608000D01*
X114312000Y-80581000D01*
X114305000Y-80554000D01*
X114297000Y-80528000D01*
X114288000Y-80502000D01*
X114278000Y-80476000D01*
X114266000Y-80452000D01*
X114253000Y-80428000D01*
X114238000Y-80404000D01*
X114223000Y-80381000D01*
X114206000Y-80360000D01*
X114188000Y-80339000D01*
X114169000Y-80319000D01*
X114149000Y-80300000D01*
X114128000Y-80282000D01*
X114107000Y-80265000D01*
X114084000Y-80250000D01*
X114060000Y-80235000D01*
X114036000Y-80222000D01*
X114012000Y-80210000D01*
X113986000Y-80200000D01*
X113960000Y-80191000D01*
X113934000Y-80183000D01*
X113907000Y-80176000D01*
X113880000Y-80171000D01*
X113853000Y-80168000D01*
X113825000Y-80166000D01*
X113798000Y-80165000D01*
X113398000Y-80165000D01*
X113398000Y-80465000D01*
G37*
X113398000Y-80465000D02*
X113798000Y-80465000D01*
X113810000Y-80465000D01*
X113822000Y-80466000D01*
X113833000Y-80468000D01*
X113845000Y-80470000D01*
X113856000Y-80473000D01*
X113868000Y-80476000D01*
X113879000Y-80480000D01*
X113890000Y-80484000D01*
X113900000Y-80490000D01*
X113910000Y-80495000D01*
X113921000Y-80501000D01*
X113930000Y-80508000D01*
X113940000Y-80515000D01*
X113949000Y-80523000D01*
X113957000Y-80531000D01*
X113965000Y-80539000D01*
X113973000Y-80548000D01*
X113980000Y-80558000D01*
X113987000Y-80567000D01*
X113993000Y-80578000D01*
X113998000Y-80588000D01*
X114004000Y-80598000D01*
X114008000Y-80609000D01*
X114012000Y-80620000D01*
X114015000Y-80632000D01*
X114018000Y-80643000D01*
X114020000Y-80655000D01*
X114022000Y-80666000D01*
X114023000Y-80678000D01*
X114023000Y-80690000D01*
X114023000Y-80702000D01*
X114022000Y-80714000D01*
X114020000Y-80725000D01*
X114018000Y-80737000D01*
X114015000Y-80748000D01*
X114012000Y-80760000D01*
X114008000Y-80771000D01*
X114004000Y-80782000D01*
X113998000Y-80792000D01*
X113993000Y-80803000D01*
X113987000Y-80813000D01*
X113980000Y-80822000D01*
X113973000Y-80832000D01*
X113965000Y-80841000D01*
X113957000Y-80849000D01*
X113949000Y-80857000D01*
X113940000Y-80865000D01*
X113930000Y-80872000D01*
X113921000Y-80879000D01*
X113911000Y-80885000D01*
X113900000Y-80890000D01*
X113890000Y-80896000D01*
X113879000Y-80900000D01*
X113868000Y-80904000D01*
X113856000Y-80907000D01*
X113845000Y-80910000D01*
X113833000Y-80912000D01*
X113822000Y-80914000D01*
X113810000Y-80915000D01*
X113798000Y-80915000D01*
X113398000Y-80915000D01*
X113398000Y-81215000D01*
X113798000Y-81215000D01*
X113825000Y-81214000D01*
X113853000Y-81212000D01*
X113880000Y-81209000D01*
X113907000Y-81204000D01*
X113934000Y-81197000D01*
X113960000Y-81189000D01*
X113986000Y-81180000D01*
X114012000Y-81170000D01*
X114036000Y-81158000D01*
X114061000Y-81145000D01*
X114084000Y-81130000D01*
X114107000Y-81115000D01*
X114128000Y-81098000D01*
X114149000Y-81080000D01*
X114169000Y-81061000D01*
X114188000Y-81041000D01*
X114206000Y-81020000D01*
X114223000Y-80999000D01*
X114238000Y-80976000D01*
X114253000Y-80952000D01*
X114266000Y-80928000D01*
X114278000Y-80904000D01*
X114288000Y-80878000D01*
X114297000Y-80852000D01*
X114305000Y-80826000D01*
X114312000Y-80799000D01*
X114317000Y-80772000D01*
X114320000Y-80745000D01*
X114322000Y-80717000D01*
X114323000Y-80690000D01*
X114322000Y-80663000D01*
X114320000Y-80635000D01*
X114317000Y-80608000D01*
X114312000Y-80581000D01*
X114305000Y-80554000D01*
X114297000Y-80528000D01*
X114288000Y-80502000D01*
X114278000Y-80476000D01*
X114266000Y-80452000D01*
X114253000Y-80428000D01*
X114238000Y-80404000D01*
X114223000Y-80381000D01*
X114206000Y-80360000D01*
X114188000Y-80339000D01*
X114169000Y-80319000D01*
X114149000Y-80300000D01*
X114128000Y-80282000D01*
X114107000Y-80265000D01*
X114084000Y-80250000D01*
X114060000Y-80235000D01*
X114036000Y-80222000D01*
X114012000Y-80210000D01*
X113986000Y-80200000D01*
X113960000Y-80191000D01*
X113934000Y-80183000D01*
X113907000Y-80176000D01*
X113880000Y-80171000D01*
X113853000Y-80168000D01*
X113825000Y-80166000D01*
X113798000Y-80165000D01*
X113398000Y-80165000D01*
X113398000Y-80465000D01*
G36*
X113398000Y-80915000D02*
G01*
X112998000Y-80915000D01*
X112986000Y-80915000D01*
X112974000Y-80914000D01*
X112963000Y-80912000D01*
X112951000Y-80910000D01*
X112940000Y-80907000D01*
X112928000Y-80904000D01*
X112917000Y-80900000D01*
X112906000Y-80896000D01*
X112896000Y-80890000D01*
X112885000Y-80885000D01*
X112875000Y-80879000D01*
X112866000Y-80872000D01*
X112856000Y-80865000D01*
X112847000Y-80857000D01*
X112839000Y-80849000D01*
X112831000Y-80841000D01*
X112823000Y-80832000D01*
X112816000Y-80822000D01*
X112809000Y-80813000D01*
X112803000Y-80803000D01*
X112798000Y-80792000D01*
X112792000Y-80782000D01*
X112788000Y-80771000D01*
X112784000Y-80760000D01*
X112781000Y-80748000D01*
X112778000Y-80737000D01*
X112776000Y-80725000D01*
X112774000Y-80714000D01*
X112773000Y-80702000D01*
X112773000Y-80690000D01*
X112773000Y-80678000D01*
X112774000Y-80666000D01*
X112776000Y-80655000D01*
X112778000Y-80643000D01*
X112781000Y-80632000D01*
X112784000Y-80620000D01*
X112788000Y-80609000D01*
X112792000Y-80598000D01*
X112798000Y-80588000D01*
X112803000Y-80578000D01*
X112809000Y-80567000D01*
X112816000Y-80558000D01*
X112823000Y-80548000D01*
X112831000Y-80539000D01*
X112839000Y-80531000D01*
X112847000Y-80523000D01*
X112856000Y-80515000D01*
X112866000Y-80508000D01*
X112875000Y-80501000D01*
X112886000Y-80495000D01*
X112896000Y-80490000D01*
X112906000Y-80484000D01*
X112917000Y-80480000D01*
X112928000Y-80476000D01*
X112940000Y-80473000D01*
X112951000Y-80470000D01*
X112963000Y-80468000D01*
X112974000Y-80466000D01*
X112986000Y-80465000D01*
X112998000Y-80465000D01*
X113398000Y-80465000D01*
X113398000Y-80165000D01*
X112998000Y-80165000D01*
X112971000Y-80166000D01*
X112943000Y-80168000D01*
X112916000Y-80171000D01*
X112889000Y-80176000D01*
X112862000Y-80183000D01*
X112836000Y-80191000D01*
X112810000Y-80200000D01*
X112784000Y-80210000D01*
X112760000Y-80222000D01*
X112736000Y-80235000D01*
X112712000Y-80250000D01*
X112689000Y-80265000D01*
X112668000Y-80282000D01*
X112647000Y-80300000D01*
X112627000Y-80319000D01*
X112608000Y-80339000D01*
X112590000Y-80360000D01*
X112573000Y-80381000D01*
X112558000Y-80404000D01*
X112543000Y-80428000D01*
X112530000Y-80452000D01*
X112518000Y-80476000D01*
X112508000Y-80502000D01*
X112499000Y-80528000D01*
X112491000Y-80554000D01*
X112484000Y-80581000D01*
X112479000Y-80608000D01*
X112476000Y-80635000D01*
X112474000Y-80663000D01*
X112473000Y-80690000D01*
X112474000Y-80717000D01*
X112476000Y-80745000D01*
X112479000Y-80772000D01*
X112484000Y-80799000D01*
X112491000Y-80826000D01*
X112499000Y-80852000D01*
X112508000Y-80878000D01*
X112518000Y-80904000D01*
X112530000Y-80928000D01*
X112543000Y-80952000D01*
X112558000Y-80976000D01*
X112573000Y-80999000D01*
X112590000Y-81020000D01*
X112608000Y-81041000D01*
X112627000Y-81061000D01*
X112647000Y-81080000D01*
X112668000Y-81098000D01*
X112689000Y-81115000D01*
X112712000Y-81130000D01*
X112735000Y-81145000D01*
X112760000Y-81158000D01*
X112784000Y-81170000D01*
X112810000Y-81180000D01*
X112836000Y-81189000D01*
X112862000Y-81197000D01*
X112889000Y-81204000D01*
X112916000Y-81209000D01*
X112943000Y-81212000D01*
X112971000Y-81214000D01*
X112998000Y-81215000D01*
X113398000Y-81215000D01*
X113398000Y-80915000D01*
G37*
X113398000Y-80915000D02*
X112998000Y-80915000D01*
X112986000Y-80915000D01*
X112974000Y-80914000D01*
X112963000Y-80912000D01*
X112951000Y-80910000D01*
X112940000Y-80907000D01*
X112928000Y-80904000D01*
X112917000Y-80900000D01*
X112906000Y-80896000D01*
X112896000Y-80890000D01*
X112885000Y-80885000D01*
X112875000Y-80879000D01*
X112866000Y-80872000D01*
X112856000Y-80865000D01*
X112847000Y-80857000D01*
X112839000Y-80849000D01*
X112831000Y-80841000D01*
X112823000Y-80832000D01*
X112816000Y-80822000D01*
X112809000Y-80813000D01*
X112803000Y-80803000D01*
X112798000Y-80792000D01*
X112792000Y-80782000D01*
X112788000Y-80771000D01*
X112784000Y-80760000D01*
X112781000Y-80748000D01*
X112778000Y-80737000D01*
X112776000Y-80725000D01*
X112774000Y-80714000D01*
X112773000Y-80702000D01*
X112773000Y-80690000D01*
X112773000Y-80678000D01*
X112774000Y-80666000D01*
X112776000Y-80655000D01*
X112778000Y-80643000D01*
X112781000Y-80632000D01*
X112784000Y-80620000D01*
X112788000Y-80609000D01*
X112792000Y-80598000D01*
X112798000Y-80588000D01*
X112803000Y-80578000D01*
X112809000Y-80567000D01*
X112816000Y-80558000D01*
X112823000Y-80548000D01*
X112831000Y-80539000D01*
X112839000Y-80531000D01*
X112847000Y-80523000D01*
X112856000Y-80515000D01*
X112866000Y-80508000D01*
X112875000Y-80501000D01*
X112886000Y-80495000D01*
X112896000Y-80490000D01*
X112906000Y-80484000D01*
X112917000Y-80480000D01*
X112928000Y-80476000D01*
X112940000Y-80473000D01*
X112951000Y-80470000D01*
X112963000Y-80468000D01*
X112974000Y-80466000D01*
X112986000Y-80465000D01*
X112998000Y-80465000D01*
X113398000Y-80465000D01*
X113398000Y-80165000D01*
X112998000Y-80165000D01*
X112971000Y-80166000D01*
X112943000Y-80168000D01*
X112916000Y-80171000D01*
X112889000Y-80176000D01*
X112862000Y-80183000D01*
X112836000Y-80191000D01*
X112810000Y-80200000D01*
X112784000Y-80210000D01*
X112760000Y-80222000D01*
X112736000Y-80235000D01*
X112712000Y-80250000D01*
X112689000Y-80265000D01*
X112668000Y-80282000D01*
X112647000Y-80300000D01*
X112627000Y-80319000D01*
X112608000Y-80339000D01*
X112590000Y-80360000D01*
X112573000Y-80381000D01*
X112558000Y-80404000D01*
X112543000Y-80428000D01*
X112530000Y-80452000D01*
X112518000Y-80476000D01*
X112508000Y-80502000D01*
X112499000Y-80528000D01*
X112491000Y-80554000D01*
X112484000Y-80581000D01*
X112479000Y-80608000D01*
X112476000Y-80635000D01*
X112474000Y-80663000D01*
X112473000Y-80690000D01*
X112474000Y-80717000D01*
X112476000Y-80745000D01*
X112479000Y-80772000D01*
X112484000Y-80799000D01*
X112491000Y-80826000D01*
X112499000Y-80852000D01*
X112508000Y-80878000D01*
X112518000Y-80904000D01*
X112530000Y-80928000D01*
X112543000Y-80952000D01*
X112558000Y-80976000D01*
X112573000Y-80999000D01*
X112590000Y-81020000D01*
X112608000Y-81041000D01*
X112627000Y-81061000D01*
X112647000Y-81080000D01*
X112668000Y-81098000D01*
X112689000Y-81115000D01*
X112712000Y-81130000D01*
X112735000Y-81145000D01*
X112760000Y-81158000D01*
X112784000Y-81170000D01*
X112810000Y-81180000D01*
X112836000Y-81189000D01*
X112862000Y-81197000D01*
X112889000Y-81204000D01*
X112916000Y-81209000D01*
X112943000Y-81212000D01*
X112971000Y-81214000D01*
X112998000Y-81215000D01*
X113398000Y-81215000D01*
X113398000Y-80915000D01*
G36*
G01*
X128148000Y-109240000D02*
X128148000Y-108290000D01*
G75*
G02*
X128398000Y-108040000I250000J0D01*
G01*
X129073000Y-108040000D01*
G75*
G02*
X129323000Y-108290000I0J-250000D01*
G01*
X129323000Y-109240000D01*
G75*
G02*
X129073000Y-109490000I-250000J0D01*
G01*
X128398000Y-109490000D01*
G75*
G02*
X128148000Y-109240000I0J250000D01*
G01*
G37*
G36*
G01*
X126073000Y-109240000D02*
X126073000Y-108290000D01*
G75*
G02*
X126323000Y-108040000I250000J0D01*
G01*
X126998000Y-108040000D01*
G75*
G02*
X127248000Y-108290000I0J-250000D01*
G01*
X127248000Y-109240000D01*
G75*
G02*
X126998000Y-109490000I-250000J0D01*
G01*
X126323000Y-109490000D01*
G75*
G02*
X126073000Y-109240000I0J250000D01*
G01*
G37*
G36*
G01*
X126073000Y-113115000D02*
X126073000Y-112165000D01*
G75*
G02*
X126323000Y-111915000I250000J0D01*
G01*
X126998000Y-111915000D01*
G75*
G02*
X127248000Y-112165000I0J-250000D01*
G01*
X127248000Y-113115000D01*
G75*
G02*
X126998000Y-113365000I-250000J0D01*
G01*
X126323000Y-113365000D01*
G75*
G02*
X126073000Y-113115000I0J250000D01*
G01*
G37*
G36*
G01*
X128148000Y-113115000D02*
X128148000Y-112165000D01*
G75*
G02*
X128398000Y-111915000I250000J0D01*
G01*
X129073000Y-111915000D01*
G75*
G02*
X129323000Y-112165000I0J-250000D01*
G01*
X129323000Y-113115000D01*
G75*
G02*
X129073000Y-113365000I-250000J0D01*
G01*
X128398000Y-113365000D01*
G75*
G02*
X128148000Y-113115000I0J250000D01*
G01*
G37*
G36*
G01*
X126073000Y-105365000D02*
X126073000Y-104415000D01*
G75*
G02*
X126323000Y-104165000I250000J0D01*
G01*
X126998000Y-104165000D01*
G75*
G02*
X127248000Y-104415000I0J-250000D01*
G01*
X127248000Y-105365000D01*
G75*
G02*
X126998000Y-105615000I-250000J0D01*
G01*
X126323000Y-105615000D01*
G75*
G02*
X126073000Y-105365000I0J250000D01*
G01*
G37*
G36*
G01*
X128148000Y-105365000D02*
X128148000Y-104415000D01*
G75*
G02*
X128398000Y-104165000I250000J0D01*
G01*
X129073000Y-104165000D01*
G75*
G02*
X129323000Y-104415000I0J-250000D01*
G01*
X129323000Y-105365000D01*
G75*
G02*
X129073000Y-105615000I-250000J0D01*
G01*
X128398000Y-105615000D01*
G75*
G02*
X128148000Y-105365000I0J250000D01*
G01*
G37*
G36*
G01*
X126528000Y-116502500D02*
X126528000Y-116027500D01*
G75*
G02*
X126765500Y-115790000I237500J0D01*
G01*
X127365500Y-115790000D01*
G75*
G02*
X127603000Y-116027500I0J-237500D01*
G01*
X127603000Y-116502500D01*
G75*
G02*
X127365500Y-116740000I-237500J0D01*
G01*
X126765500Y-116740000D01*
G75*
G02*
X126528000Y-116502500I0J237500D01*
G01*
G37*
G36*
G01*
X128253000Y-116502500D02*
X128253000Y-116027500D01*
G75*
G02*
X128490500Y-115790000I237500J0D01*
G01*
X129090500Y-115790000D01*
G75*
G02*
X129328000Y-116027500I0J-237500D01*
G01*
X129328000Y-116502500D01*
G75*
G02*
X129090500Y-116740000I-237500J0D01*
G01*
X128490500Y-116740000D01*
G75*
G02*
X128253000Y-116502500I0J237500D01*
G01*
G37*
G36*
G01*
X127923000Y-101602500D02*
X127923000Y-101127500D01*
G75*
G02*
X128160500Y-100890000I237500J0D01*
G01*
X128760500Y-100890000D01*
G75*
G02*
X128998000Y-101127500I0J-237500D01*
G01*
X128998000Y-101602500D01*
G75*
G02*
X128760500Y-101840000I-237500J0D01*
G01*
X128160500Y-101840000D01*
G75*
G02*
X127923000Y-101602500I0J237500D01*
G01*
G37*
G36*
G01*
X126198000Y-101602500D02*
X126198000Y-101127500D01*
G75*
G02*
X126435500Y-100890000I237500J0D01*
G01*
X127035500Y-100890000D01*
G75*
G02*
X127273000Y-101127500I0J-237500D01*
G01*
X127273000Y-101602500D01*
G75*
G02*
X127035500Y-101840000I-237500J0D01*
G01*
X126435500Y-101840000D01*
G75*
G02*
X126198000Y-101602500I0J237500D01*
G01*
G37*
G36*
G01*
X195810500Y-72215000D02*
X196285500Y-72215000D01*
G75*
G02*
X196523000Y-72452500I0J-237500D01*
G01*
X196523000Y-73052500D01*
G75*
G02*
X196285500Y-73290000I-237500J0D01*
G01*
X195810500Y-73290000D01*
G75*
G02*
X195573000Y-73052500I0J237500D01*
G01*
X195573000Y-72452500D01*
G75*
G02*
X195810500Y-72215000I237500J0D01*
G01*
G37*
G36*
G01*
X195810500Y-73940000D02*
X196285500Y-73940000D01*
G75*
G02*
X196523000Y-74177500I0J-237500D01*
G01*
X196523000Y-74777500D01*
G75*
G02*
X196285500Y-75015000I-237500J0D01*
G01*
X195810500Y-75015000D01*
G75*
G02*
X195573000Y-74777500I0J237500D01*
G01*
X195573000Y-74177500D01*
G75*
G02*
X195810500Y-73940000I237500J0D01*
G01*
G37*
G36*
G01*
X192560500Y-72165000D02*
X193035500Y-72165000D01*
G75*
G02*
X193273000Y-72402500I0J-237500D01*
G01*
X193273000Y-73002500D01*
G75*
G02*
X193035500Y-73240000I-237500J0D01*
G01*
X192560500Y-73240000D01*
G75*
G02*
X192323000Y-73002500I0J237500D01*
G01*
X192323000Y-72402500D01*
G75*
G02*
X192560500Y-72165000I237500J0D01*
G01*
G37*
G36*
G01*
X192560500Y-73890000D02*
X193035500Y-73890000D01*
G75*
G02*
X193273000Y-74127500I0J-237500D01*
G01*
X193273000Y-74727500D01*
G75*
G02*
X193035500Y-74965000I-237500J0D01*
G01*
X192560500Y-74965000D01*
G75*
G02*
X192323000Y-74727500I0J237500D01*
G01*
X192323000Y-74127500D01*
G75*
G02*
X192560500Y-73890000I237500J0D01*
G01*
G37*
G36*
G01*
X183635500Y-81840000D02*
X183160500Y-81840000D01*
G75*
G02*
X182923000Y-81602500I0J237500D01*
G01*
X182923000Y-81002500D01*
G75*
G02*
X183160500Y-80765000I237500J0D01*
G01*
X183635500Y-80765000D01*
G75*
G02*
X183873000Y-81002500I0J-237500D01*
G01*
X183873000Y-81602500D01*
G75*
G02*
X183635500Y-81840000I-237500J0D01*
G01*
G37*
G36*
G01*
X183635500Y-83565000D02*
X183160500Y-83565000D01*
G75*
G02*
X182923000Y-83327500I0J237500D01*
G01*
X182923000Y-82727500D01*
G75*
G02*
X183160500Y-82490000I237500J0D01*
G01*
X183635500Y-82490000D01*
G75*
G02*
X183873000Y-82727500I0J-237500D01*
G01*
X183873000Y-83327500D01*
G75*
G02*
X183635500Y-83565000I-237500J0D01*
G01*
G37*
G36*
G01*
X192323000Y-91602500D02*
X192323000Y-91127500D01*
G75*
G02*
X192560500Y-90890000I237500J0D01*
G01*
X193160500Y-90890000D01*
G75*
G02*
X193398000Y-91127500I0J-237500D01*
G01*
X193398000Y-91602500D01*
G75*
G02*
X193160500Y-91840000I-237500J0D01*
G01*
X192560500Y-91840000D01*
G75*
G02*
X192323000Y-91602500I0J237500D01*
G01*
G37*
G36*
G01*
X190598000Y-91602500D02*
X190598000Y-91127500D01*
G75*
G02*
X190835500Y-90890000I237500J0D01*
G01*
X191435500Y-90890000D01*
G75*
G02*
X191673000Y-91127500I0J-237500D01*
G01*
X191673000Y-91602500D01*
G75*
G02*
X191435500Y-91840000I-237500J0D01*
G01*
X190835500Y-91840000D01*
G75*
G02*
X190598000Y-91602500I0J237500D01*
G01*
G37*
G36*
G01*
X190598000Y-90002500D02*
X190598000Y-89527500D01*
G75*
G02*
X190835500Y-89290000I237500J0D01*
G01*
X191435500Y-89290000D01*
G75*
G02*
X191673000Y-89527500I0J-237500D01*
G01*
X191673000Y-90002500D01*
G75*
G02*
X191435500Y-90240000I-237500J0D01*
G01*
X190835500Y-90240000D01*
G75*
G02*
X190598000Y-90002500I0J237500D01*
G01*
G37*
G36*
G01*
X192323000Y-90002500D02*
X192323000Y-89527500D01*
G75*
G02*
X192560500Y-89290000I237500J0D01*
G01*
X193160500Y-89290000D01*
G75*
G02*
X193398000Y-89527500I0J-237500D01*
G01*
X193398000Y-90002500D01*
G75*
G02*
X193160500Y-90240000I-237500J0D01*
G01*
X192560500Y-90240000D01*
G75*
G02*
X192323000Y-90002500I0J237500D01*
G01*
G37*
G36*
G01*
X196998000Y-107602500D02*
X196998000Y-107127500D01*
G75*
G02*
X197235500Y-106890000I237500J0D01*
G01*
X197835500Y-106890000D01*
G75*
G02*
X198073000Y-107127500I0J-237500D01*
G01*
X198073000Y-107602500D01*
G75*
G02*
X197835500Y-107840000I-237500J0D01*
G01*
X197235500Y-107840000D01*
G75*
G02*
X196998000Y-107602500I0J237500D01*
G01*
G37*
G36*
G01*
X198723000Y-107602500D02*
X198723000Y-107127500D01*
G75*
G02*
X198960500Y-106890000I237500J0D01*
G01*
X199560500Y-106890000D01*
G75*
G02*
X199798000Y-107127500I0J-237500D01*
G01*
X199798000Y-107602500D01*
G75*
G02*
X199560500Y-107840000I-237500J0D01*
G01*
X198960500Y-107840000D01*
G75*
G02*
X198723000Y-107602500I0J237500D01*
G01*
G37*
G36*
G01*
X198398000Y-117127500D02*
X198398000Y-117602500D01*
G75*
G02*
X198160500Y-117840000I-237500J0D01*
G01*
X197560500Y-117840000D01*
G75*
G02*
X197323000Y-117602500I0J237500D01*
G01*
X197323000Y-117127500D01*
G75*
G02*
X197560500Y-116890000I237500J0D01*
G01*
X198160500Y-116890000D01*
G75*
G02*
X198398000Y-117127500I0J-237500D01*
G01*
G37*
G36*
G01*
X196673000Y-117127500D02*
X196673000Y-117602500D01*
G75*
G02*
X196435500Y-117840000I-237500J0D01*
G01*
X195835500Y-117840000D01*
G75*
G02*
X195598000Y-117602500I0J237500D01*
G01*
X195598000Y-117127500D01*
G75*
G02*
X195835500Y-116890000I237500J0D01*
G01*
X196435500Y-116890000D01*
G75*
G02*
X196673000Y-117127500I0J-237500D01*
G01*
G37*
G36*
G01*
X126073000Y-94240000D02*
X126073000Y-93290000D01*
G75*
G02*
X126323000Y-93040000I250000J0D01*
G01*
X126998000Y-93040000D01*
G75*
G02*
X127248000Y-93290000I0J-250000D01*
G01*
X127248000Y-94240000D01*
G75*
G02*
X126998000Y-94490000I-250000J0D01*
G01*
X126323000Y-94490000D01*
G75*
G02*
X126073000Y-94240000I0J250000D01*
G01*
G37*
G36*
G01*
X128148000Y-94240000D02*
X128148000Y-93290000D01*
G75*
G02*
X128398000Y-93040000I250000J0D01*
G01*
X129073000Y-93040000D01*
G75*
G02*
X129323000Y-93290000I0J-250000D01*
G01*
X129323000Y-94240000D01*
G75*
G02*
X129073000Y-94490000I-250000J0D01*
G01*
X128398000Y-94490000D01*
G75*
G02*
X128148000Y-94240000I0J250000D01*
G01*
G37*
G36*
G01*
X126298000Y-91002500D02*
X126298000Y-90527500D01*
G75*
G02*
X126535500Y-90290000I237500J0D01*
G01*
X127135500Y-90290000D01*
G75*
G02*
X127373000Y-90527500I0J-237500D01*
G01*
X127373000Y-91002500D01*
G75*
G02*
X127135500Y-91240000I-237500J0D01*
G01*
X126535500Y-91240000D01*
G75*
G02*
X126298000Y-91002500I0J237500D01*
G01*
G37*
G36*
G01*
X128023000Y-91002500D02*
X128023000Y-90527500D01*
G75*
G02*
X128260500Y-90290000I237500J0D01*
G01*
X128860500Y-90290000D01*
G75*
G02*
X129098000Y-90527500I0J-237500D01*
G01*
X129098000Y-91002500D01*
G75*
G02*
X128860500Y-91240000I-237500J0D01*
G01*
X128260500Y-91240000D01*
G75*
G02*
X128023000Y-91002500I0J237500D01*
G01*
G37*
G36*
G01*
X121473000Y-78127500D02*
X121473000Y-78602500D01*
G75*
G02*
X121235500Y-78840000I-237500J0D01*
G01*
X120635500Y-78840000D01*
G75*
G02*
X120398000Y-78602500I0J237500D01*
G01*
X120398000Y-78127500D01*
G75*
G02*
X120635500Y-77890000I237500J0D01*
G01*
X121235500Y-77890000D01*
G75*
G02*
X121473000Y-78127500I0J-237500D01*
G01*
G37*
G36*
G01*
X123198000Y-78127500D02*
X123198000Y-78602500D01*
G75*
G02*
X122960500Y-78840000I-237500J0D01*
G01*
X122360500Y-78840000D01*
G75*
G02*
X122123000Y-78602500I0J237500D01*
G01*
X122123000Y-78127500D01*
G75*
G02*
X122360500Y-77890000I237500J0D01*
G01*
X122960500Y-77890000D01*
G75*
G02*
X123198000Y-78127500I0J-237500D01*
G01*
G37*
G36*
G01*
X128798000Y-82927500D02*
X128798000Y-83402500D01*
G75*
G02*
X128560500Y-83640000I-237500J0D01*
G01*
X127960500Y-83640000D01*
G75*
G02*
X127723000Y-83402500I0J237500D01*
G01*
X127723000Y-82927500D01*
G75*
G02*
X127960500Y-82690000I237500J0D01*
G01*
X128560500Y-82690000D01*
G75*
G02*
X128798000Y-82927500I0J-237500D01*
G01*
G37*
G36*
G01*
X127073000Y-82927500D02*
X127073000Y-83402500D01*
G75*
G02*
X126835500Y-83640000I-237500J0D01*
G01*
X126235500Y-83640000D01*
G75*
G02*
X125998000Y-83402500I0J237500D01*
G01*
X125998000Y-82927500D01*
G75*
G02*
X126235500Y-82690000I237500J0D01*
G01*
X126835500Y-82690000D01*
G75*
G02*
X127073000Y-82927500I0J-237500D01*
G01*
G37*
G36*
G01*
X127073000Y-81127500D02*
X127073000Y-81602500D01*
G75*
G02*
X126835500Y-81840000I-237500J0D01*
G01*
X126235500Y-81840000D01*
G75*
G02*
X125998000Y-81602500I0J237500D01*
G01*
X125998000Y-81127500D01*
G75*
G02*
X126235500Y-80890000I237500J0D01*
G01*
X126835500Y-80890000D01*
G75*
G02*
X127073000Y-81127500I0J-237500D01*
G01*
G37*
G36*
G01*
X128798000Y-81127500D02*
X128798000Y-81602500D01*
G75*
G02*
X128560500Y-81840000I-237500J0D01*
G01*
X127960500Y-81840000D01*
G75*
G02*
X127723000Y-81602500I0J237500D01*
G01*
X127723000Y-81127500D01*
G75*
G02*
X127960500Y-80890000I237500J0D01*
G01*
X128560500Y-80890000D01*
G75*
G02*
X128798000Y-81127500I0J-237500D01*
G01*
G37*
G36*
G01*
X121473000Y-80127500D02*
X121473000Y-80602500D01*
G75*
G02*
X121235500Y-80840000I-237500J0D01*
G01*
X120635500Y-80840000D01*
G75*
G02*
X120398000Y-80602500I0J237500D01*
G01*
X120398000Y-80127500D01*
G75*
G02*
X120635500Y-79890000I237500J0D01*
G01*
X121235500Y-79890000D01*
G75*
G02*
X121473000Y-80127500I0J-237500D01*
G01*
G37*
G36*
G01*
X123198000Y-80127500D02*
X123198000Y-80602500D01*
G75*
G02*
X122960500Y-80840000I-237500J0D01*
G01*
X122360500Y-80840000D01*
G75*
G02*
X122123000Y-80602500I0J237500D01*
G01*
X122123000Y-80127500D01*
G75*
G02*
X122360500Y-79890000I237500J0D01*
G01*
X122960500Y-79890000D01*
G75*
G02*
X123198000Y-80127500I0J-237500D01*
G01*
G37*
G36*
G01*
X145598000Y-101277500D02*
X145598000Y-101752500D01*
G75*
G02*
X145360500Y-101990000I-237500J0D01*
G01*
X144785500Y-101990000D01*
G75*
G02*
X144548000Y-101752500I0J237500D01*
G01*
X144548000Y-101277500D01*
G75*
G02*
X144785500Y-101040000I237500J0D01*
G01*
X145360500Y-101040000D01*
G75*
G02*
X145598000Y-101277500I0J-237500D01*
G01*
G37*
G36*
G01*
X143848000Y-101277500D02*
X143848000Y-101752500D01*
G75*
G02*
X143610500Y-101990000I-237500J0D01*
G01*
X143035500Y-101990000D01*
G75*
G02*
X142798000Y-101752500I0J237500D01*
G01*
X142798000Y-101277500D01*
G75*
G02*
X143035500Y-101040000I237500J0D01*
G01*
X143610500Y-101040000D01*
G75*
G02*
X143848000Y-101277500I0J-237500D01*
G01*
G37*
G36*
G01*
X161160500Y-71227500D02*
X161635500Y-71227500D01*
G75*
G02*
X161873000Y-71465000I0J-237500D01*
G01*
X161873000Y-72040000D01*
G75*
G02*
X161635500Y-72277500I-237500J0D01*
G01*
X161160500Y-72277500D01*
G75*
G02*
X160923000Y-72040000I0J237500D01*
G01*
X160923000Y-71465000D01*
G75*
G02*
X161160500Y-71227500I237500J0D01*
G01*
G37*
G36*
G01*
X161160500Y-69477500D02*
X161635500Y-69477500D01*
G75*
G02*
X161873000Y-69715000I0J-237500D01*
G01*
X161873000Y-70290000D01*
G75*
G02*
X161635500Y-70527500I-237500J0D01*
G01*
X161160500Y-70527500D01*
G75*
G02*
X160923000Y-70290000I0J237500D01*
G01*
X160923000Y-69715000D01*
G75*
G02*
X161160500Y-69477500I237500J0D01*
G01*
G37*
G36*
G01*
X189773000Y-100927500D02*
X189773000Y-101402500D01*
G75*
G02*
X189535500Y-101640000I-237500J0D01*
G01*
X188960500Y-101640000D01*
G75*
G02*
X188723000Y-101402500I0J237500D01*
G01*
X188723000Y-100927500D01*
G75*
G02*
X188960500Y-100690000I237500J0D01*
G01*
X189535500Y-100690000D01*
G75*
G02*
X189773000Y-100927500I0J-237500D01*
G01*
G37*
G36*
G01*
X191523000Y-100927500D02*
X191523000Y-101402500D01*
G75*
G02*
X191285500Y-101640000I-237500J0D01*
G01*
X190710500Y-101640000D01*
G75*
G02*
X190473000Y-101402500I0J237500D01*
G01*
X190473000Y-100927500D01*
G75*
G02*
X190710500Y-100690000I237500J0D01*
G01*
X191285500Y-100690000D01*
G75*
G02*
X191523000Y-100927500I0J-237500D01*
G01*
G37*
G36*
G01*
X191598000Y-103127500D02*
X191598000Y-103602500D01*
G75*
G02*
X191360500Y-103840000I-237500J0D01*
G01*
X190785500Y-103840000D01*
G75*
G02*
X190548000Y-103602500I0J237500D01*
G01*
X190548000Y-103127500D01*
G75*
G02*
X190785500Y-102890000I237500J0D01*
G01*
X191360500Y-102890000D01*
G75*
G02*
X191598000Y-103127500I0J-237500D01*
G01*
G37*
G36*
G01*
X189848000Y-103127500D02*
X189848000Y-103602500D01*
G75*
G02*
X189610500Y-103840000I-237500J0D01*
G01*
X189035500Y-103840000D01*
G75*
G02*
X188798000Y-103602500I0J237500D01*
G01*
X188798000Y-103127500D01*
G75*
G02*
X189035500Y-102890000I237500J0D01*
G01*
X189610500Y-102890000D01*
G75*
G02*
X189848000Y-103127500I0J-237500D01*
G01*
G37*
D11*
X199298000Y-96565000D03*
X194298000Y-96565000D03*
G36*
G01*
X134435500Y-71415000D02*
X133960500Y-71415000D01*
G75*
G02*
X133723000Y-71177500I0J237500D01*
G01*
X133723000Y-70602500D01*
G75*
G02*
X133960500Y-70365000I237500J0D01*
G01*
X134435500Y-70365000D01*
G75*
G02*
X134673000Y-70602500I0J-237500D01*
G01*
X134673000Y-71177500D01*
G75*
G02*
X134435500Y-71415000I-237500J0D01*
G01*
G37*
G36*
G01*
X134435500Y-73165000D02*
X133960500Y-73165000D01*
G75*
G02*
X133723000Y-72927500I0J237500D01*
G01*
X133723000Y-72352500D01*
G75*
G02*
X133960500Y-72115000I237500J0D01*
G01*
X134435500Y-72115000D01*
G75*
G02*
X134673000Y-72352500I0J-237500D01*
G01*
X134673000Y-72927500D01*
G75*
G02*
X134435500Y-73165000I-237500J0D01*
G01*
G37*
G36*
G01*
X136635500Y-73165000D02*
X136160500Y-73165000D01*
G75*
G02*
X135923000Y-72927500I0J237500D01*
G01*
X135923000Y-72352500D01*
G75*
G02*
X136160500Y-72115000I237500J0D01*
G01*
X136635500Y-72115000D01*
G75*
G02*
X136873000Y-72352500I0J-237500D01*
G01*
X136873000Y-72927500D01*
G75*
G02*
X136635500Y-73165000I-237500J0D01*
G01*
G37*
G36*
G01*
X136635500Y-71415000D02*
X136160500Y-71415000D01*
G75*
G02*
X135923000Y-71177500I0J237500D01*
G01*
X135923000Y-70602500D01*
G75*
G02*
X136160500Y-70365000I237500J0D01*
G01*
X136635500Y-70365000D01*
G75*
G02*
X136873000Y-70602500I0J-237500D01*
G01*
X136873000Y-71177500D01*
G75*
G02*
X136635500Y-71415000I-237500J0D01*
G01*
G37*
X121648000Y-84365000D03*
X116648000Y-84365000D03*
D12*
X194198000Y-123365000D03*
X191798000Y-123365000D03*
D13*
X194298000Y-120815000D03*
X193648000Y-120815000D03*
X192998000Y-120815000D03*
X192348000Y-120815000D03*
X191698000Y-120815000D03*
D14*
X115948000Y-75815000D03*
X115948000Y-76465000D03*
X115948000Y-77115000D03*
X115948000Y-77765000D03*
X115948000Y-78415000D03*
D15*
X113398000Y-75915000D03*
X113398000Y-78315000D03*
G36*
G01*
X191573000Y-92727500D02*
X191573000Y-93202500D01*
G75*
G02*
X191335500Y-93440000I-237500J0D01*
G01*
X190835500Y-93440000D01*
G75*
G02*
X190598000Y-93202500I0J237500D01*
G01*
X190598000Y-92727500D01*
G75*
G02*
X190835500Y-92490000I237500J0D01*
G01*
X191335500Y-92490000D01*
G75*
G02*
X191573000Y-92727500I0J-237500D01*
G01*
G37*
G36*
G01*
X193398000Y-92727500D02*
X193398000Y-93202500D01*
G75*
G02*
X193160500Y-93440000I-237500J0D01*
G01*
X192660500Y-93440000D01*
G75*
G02*
X192423000Y-93202500I0J237500D01*
G01*
X192423000Y-92727500D01*
G75*
G02*
X192660500Y-92490000I237500J0D01*
G01*
X193160500Y-92490000D01*
G75*
G02*
X193398000Y-92727500I0J-237500D01*
G01*
G37*
G36*
G01*
X139048000Y-101752500D02*
X139048000Y-101277500D01*
G75*
G02*
X139285500Y-101040000I237500J0D01*
G01*
X139785500Y-101040000D01*
G75*
G02*
X140023000Y-101277500I0J-237500D01*
G01*
X140023000Y-101752500D01*
G75*
G02*
X139785500Y-101990000I-237500J0D01*
G01*
X139285500Y-101990000D01*
G75*
G02*
X139048000Y-101752500I0J237500D01*
G01*
G37*
G36*
G01*
X140873000Y-101752500D02*
X140873000Y-101277500D01*
G75*
G02*
X141110500Y-101040000I237500J0D01*
G01*
X141610500Y-101040000D01*
G75*
G02*
X141848000Y-101277500I0J-237500D01*
G01*
X141848000Y-101752500D01*
G75*
G02*
X141610500Y-101990000I-237500J0D01*
G01*
X141110500Y-101990000D01*
G75*
G02*
X140873000Y-101752500I0J237500D01*
G01*
G37*
G36*
G01*
X148883001Y-115927500D02*
X148883001Y-116402500D01*
G75*
G02*
X148645501Y-116640000I-237500J0D01*
G01*
X148145501Y-116640000D01*
G75*
G02*
X147908001Y-116402500I0J237500D01*
G01*
X147908001Y-115927500D01*
G75*
G02*
X148145501Y-115690000I237500J0D01*
G01*
X148645501Y-115690000D01*
G75*
G02*
X148883001Y-115927500I0J-237500D01*
G01*
G37*
G36*
G01*
X147058001Y-115927500D02*
X147058001Y-116402500D01*
G75*
G02*
X146820501Y-116640000I-237500J0D01*
G01*
X146320501Y-116640000D01*
G75*
G02*
X146083001Y-116402500I0J237500D01*
G01*
X146083001Y-115927500D01*
G75*
G02*
X146320501Y-115690000I237500J0D01*
G01*
X146820501Y-115690000D01*
G75*
G02*
X147058001Y-115927500I0J-237500D01*
G01*
G37*
G36*
G01*
X147908001Y-114367501D02*
X147908001Y-113892501D01*
G75*
G02*
X148145501Y-113655001I237500J0D01*
G01*
X148645501Y-113655001D01*
G75*
G02*
X148883001Y-113892501I0J-237500D01*
G01*
X148883001Y-114367501D01*
G75*
G02*
X148645501Y-114605001I-237500J0D01*
G01*
X148145501Y-114605001D01*
G75*
G02*
X147908001Y-114367501I0J237500D01*
G01*
G37*
G36*
G01*
X146083001Y-114367501D02*
X146083001Y-113892501D01*
G75*
G02*
X146320501Y-113655001I237500J0D01*
G01*
X146820501Y-113655001D01*
G75*
G02*
X147058001Y-113892501I0J-237500D01*
G01*
X147058001Y-114367501D01*
G75*
G02*
X146820501Y-114605001I-237500J0D01*
G01*
X146320501Y-114605001D01*
G75*
G02*
X146083001Y-114367501I0J237500D01*
G01*
G37*
G36*
G01*
X141898000Y-117977500D02*
X141898000Y-118452500D01*
G75*
G02*
X141660500Y-118690000I-237500J0D01*
G01*
X141160500Y-118690000D01*
G75*
G02*
X140923000Y-118452500I0J237500D01*
G01*
X140923000Y-117977500D01*
G75*
G02*
X141160500Y-117740000I237500J0D01*
G01*
X141660500Y-117740000D01*
G75*
G02*
X141898000Y-117977500I0J-237500D01*
G01*
G37*
G36*
G01*
X140073000Y-117977500D02*
X140073000Y-118452500D01*
G75*
G02*
X139835500Y-118690000I-237500J0D01*
G01*
X139335500Y-118690000D01*
G75*
G02*
X139098000Y-118452500I0J237500D01*
G01*
X139098000Y-117977500D01*
G75*
G02*
X139335500Y-117740000I237500J0D01*
G01*
X139835500Y-117740000D01*
G75*
G02*
X140073000Y-117977500I0J-237500D01*
G01*
G37*
G36*
G01*
X169398000Y-87327500D02*
X169398000Y-87802500D01*
G75*
G02*
X169160500Y-88040000I-237500J0D01*
G01*
X168660500Y-88040000D01*
G75*
G02*
X168423000Y-87802500I0J237500D01*
G01*
X168423000Y-87327500D01*
G75*
G02*
X168660500Y-87090000I237500J0D01*
G01*
X169160500Y-87090000D01*
G75*
G02*
X169398000Y-87327500I0J-237500D01*
G01*
G37*
G36*
G01*
X167573000Y-87327500D02*
X167573000Y-87802500D01*
G75*
G02*
X167335500Y-88040000I-237500J0D01*
G01*
X166835500Y-88040000D01*
G75*
G02*
X166598000Y-87802500I0J237500D01*
G01*
X166598000Y-87327500D01*
G75*
G02*
X166835500Y-87090000I237500J0D01*
G01*
X167335500Y-87090000D01*
G75*
G02*
X167573000Y-87327500I0J-237500D01*
G01*
G37*
G36*
G01*
X167573000Y-85327500D02*
X167573000Y-85802500D01*
G75*
G02*
X167335500Y-86040000I-237500J0D01*
G01*
X166835500Y-86040000D01*
G75*
G02*
X166598000Y-85802500I0J237500D01*
G01*
X166598000Y-85327500D01*
G75*
G02*
X166835500Y-85090000I237500J0D01*
G01*
X167335500Y-85090000D01*
G75*
G02*
X167573000Y-85327500I0J-237500D01*
G01*
G37*
G36*
G01*
X169398000Y-85327500D02*
X169398000Y-85802500D01*
G75*
G02*
X169160500Y-86040000I-237500J0D01*
G01*
X168660500Y-86040000D01*
G75*
G02*
X168423000Y-85802500I0J237500D01*
G01*
X168423000Y-85327500D01*
G75*
G02*
X168660500Y-85090000I237500J0D01*
G01*
X169160500Y-85090000D01*
G75*
G02*
X169398000Y-85327500I0J-237500D01*
G01*
G37*
G36*
G01*
X148898000Y-111927500D02*
X148898000Y-112402500D01*
G75*
G02*
X148660500Y-112640000I-237500J0D01*
G01*
X148160500Y-112640000D01*
G75*
G02*
X147923000Y-112402500I0J237500D01*
G01*
X147923000Y-111927500D01*
G75*
G02*
X148160500Y-111690000I237500J0D01*
G01*
X148660500Y-111690000D01*
G75*
G02*
X148898000Y-111927500I0J-237500D01*
G01*
G37*
G36*
G01*
X147073000Y-111927500D02*
X147073000Y-112402500D01*
G75*
G02*
X146835500Y-112640000I-237500J0D01*
G01*
X146335500Y-112640000D01*
G75*
G02*
X146098000Y-112402500I0J237500D01*
G01*
X146098000Y-111927500D01*
G75*
G02*
X146335500Y-111690000I237500J0D01*
G01*
X146835500Y-111690000D01*
G75*
G02*
X147073000Y-111927500I0J-237500D01*
G01*
G37*
G36*
G01*
X201110500Y-102740000D02*
X201585500Y-102740000D01*
G75*
G02*
X201823000Y-102977500I0J-237500D01*
G01*
X201823000Y-103477500D01*
G75*
G02*
X201585500Y-103715000I-237500J0D01*
G01*
X201110500Y-103715000D01*
G75*
G02*
X200873000Y-103477500I0J237500D01*
G01*
X200873000Y-102977500D01*
G75*
G02*
X201110500Y-102740000I237500J0D01*
G01*
G37*
G36*
G01*
X201110500Y-100915000D02*
X201585500Y-100915000D01*
G75*
G02*
X201823000Y-101152500I0J-237500D01*
G01*
X201823000Y-101652500D01*
G75*
G02*
X201585500Y-101890000I-237500J0D01*
G01*
X201110500Y-101890000D01*
G75*
G02*
X200873000Y-101652500I0J237500D01*
G01*
X200873000Y-101152500D01*
G75*
G02*
X201110500Y-100915000I237500J0D01*
G01*
G37*
G36*
G01*
X168423000Y-83802500D02*
X168423000Y-83327500D01*
G75*
G02*
X168660500Y-83090000I237500J0D01*
G01*
X169160500Y-83090000D01*
G75*
G02*
X169398000Y-83327500I0J-237500D01*
G01*
X169398000Y-83802500D01*
G75*
G02*
X169160500Y-84040000I-237500J0D01*
G01*
X168660500Y-84040000D01*
G75*
G02*
X168423000Y-83802500I0J237500D01*
G01*
G37*
G36*
G01*
X166598000Y-83802500D02*
X166598000Y-83327500D01*
G75*
G02*
X166835500Y-83090000I237500J0D01*
G01*
X167335500Y-83090000D01*
G75*
G02*
X167573000Y-83327500I0J-237500D01*
G01*
X167573000Y-83802500D01*
G75*
G02*
X167335500Y-84040000I-237500J0D01*
G01*
X166835500Y-84040000D01*
G75*
G02*
X166598000Y-83802500I0J237500D01*
G01*
G37*
G36*
G01*
X162960500Y-71302500D02*
X163435500Y-71302500D01*
G75*
G02*
X163673000Y-71540000I0J-237500D01*
G01*
X163673000Y-72040000D01*
G75*
G02*
X163435500Y-72277500I-237500J0D01*
G01*
X162960500Y-72277500D01*
G75*
G02*
X162723000Y-72040000I0J237500D01*
G01*
X162723000Y-71540000D01*
G75*
G02*
X162960500Y-71302500I237500J0D01*
G01*
G37*
G36*
G01*
X162960500Y-69477500D02*
X163435500Y-69477500D01*
G75*
G02*
X163673000Y-69715000I0J-237500D01*
G01*
X163673000Y-70215000D01*
G75*
G02*
X163435500Y-70452500I-237500J0D01*
G01*
X162960500Y-70452500D01*
G75*
G02*
X162723000Y-70215000I0J237500D01*
G01*
X162723000Y-69715000D01*
G75*
G02*
X162960500Y-69477500I237500J0D01*
G01*
G37*
G36*
G01*
X184798000Y-101437501D02*
X184798000Y-100962501D01*
G75*
G02*
X185035500Y-100725001I237500J0D01*
G01*
X185535500Y-100725001D01*
G75*
G02*
X185773000Y-100962501I0J-237500D01*
G01*
X185773000Y-101437501D01*
G75*
G02*
X185535500Y-101675001I-237500J0D01*
G01*
X185035500Y-101675001D01*
G75*
G02*
X184798000Y-101437501I0J237500D01*
G01*
G37*
G36*
G01*
X186623000Y-101437501D02*
X186623000Y-100962501D01*
G75*
G02*
X186860500Y-100725001I237500J0D01*
G01*
X187360500Y-100725001D01*
G75*
G02*
X187598000Y-100962501I0J-237500D01*
G01*
X187598000Y-101437501D01*
G75*
G02*
X187360500Y-101675001I-237500J0D01*
G01*
X186860500Y-101675001D01*
G75*
G02*
X186623000Y-101437501I0J237500D01*
G01*
G37*
G36*
G01*
X186623000Y-103602500D02*
X186623000Y-103127500D01*
G75*
G02*
X186860500Y-102890000I237500J0D01*
G01*
X187360500Y-102890000D01*
G75*
G02*
X187598000Y-103127500I0J-237500D01*
G01*
X187598000Y-103602500D01*
G75*
G02*
X187360500Y-103840000I-237500J0D01*
G01*
X186860500Y-103840000D01*
G75*
G02*
X186623000Y-103602500I0J237500D01*
G01*
G37*
G36*
G01*
X184798000Y-103602500D02*
X184798000Y-103127500D01*
G75*
G02*
X185035500Y-102890000I237500J0D01*
G01*
X185535500Y-102890000D01*
G75*
G02*
X185773000Y-103127500I0J-237500D01*
G01*
X185773000Y-103602500D01*
G75*
G02*
X185535500Y-103840000I-237500J0D01*
G01*
X185035500Y-103840000D01*
G75*
G02*
X184798000Y-103602500I0J237500D01*
G01*
G37*
G36*
G01*
X132798000Y-81127500D02*
X132798000Y-81602500D01*
G75*
G02*
X132560500Y-81840000I-237500J0D01*
G01*
X132060500Y-81840000D01*
G75*
G02*
X131823000Y-81602500I0J237500D01*
G01*
X131823000Y-81127500D01*
G75*
G02*
X132060500Y-80890000I237500J0D01*
G01*
X132560500Y-80890000D01*
G75*
G02*
X132798000Y-81127500I0J-237500D01*
G01*
G37*
G36*
G01*
X130973000Y-81127500D02*
X130973000Y-81602500D01*
G75*
G02*
X130735500Y-81840000I-237500J0D01*
G01*
X130235500Y-81840000D01*
G75*
G02*
X129998000Y-81602500I0J237500D01*
G01*
X129998000Y-81127500D01*
G75*
G02*
X130235500Y-80890000I237500J0D01*
G01*
X130735500Y-80890000D01*
G75*
G02*
X130973000Y-81127500I0J-237500D01*
G01*
G37*
G36*
G01*
X133943834Y-67940000D02*
X134418834Y-67940000D01*
G75*
G02*
X134656334Y-68177500I0J-237500D01*
G01*
X134656334Y-68677500D01*
G75*
G02*
X134418834Y-68915000I-237500J0D01*
G01*
X133943834Y-68915000D01*
G75*
G02*
X133706334Y-68677500I0J237500D01*
G01*
X133706334Y-68177500D01*
G75*
G02*
X133943834Y-67940000I237500J0D01*
G01*
G37*
G36*
G01*
X133943834Y-66115000D02*
X134418834Y-66115000D01*
G75*
G02*
X134656334Y-66352500I0J-237500D01*
G01*
X134656334Y-66852500D01*
G75*
G02*
X134418834Y-67090000I-237500J0D01*
G01*
X133943834Y-67090000D01*
G75*
G02*
X133706334Y-66852500I0J237500D01*
G01*
X133706334Y-66352500D01*
G75*
G02*
X133943834Y-66115000I237500J0D01*
G01*
G37*
G36*
G01*
X136160500Y-66115000D02*
X136635500Y-66115000D01*
G75*
G02*
X136873000Y-66352500I0J-237500D01*
G01*
X136873000Y-66852500D01*
G75*
G02*
X136635500Y-67090000I-237500J0D01*
G01*
X136160500Y-67090000D01*
G75*
G02*
X135923000Y-66852500I0J237500D01*
G01*
X135923000Y-66352500D01*
G75*
G02*
X136160500Y-66115000I237500J0D01*
G01*
G37*
G36*
G01*
X136160500Y-67940000D02*
X136635500Y-67940000D01*
G75*
G02*
X136873000Y-68177500I0J-237500D01*
G01*
X136873000Y-68677500D01*
G75*
G02*
X136635500Y-68915000I-237500J0D01*
G01*
X136160500Y-68915000D01*
G75*
G02*
X135923000Y-68677500I0J237500D01*
G01*
X135923000Y-68177500D01*
G75*
G02*
X136160500Y-67940000I237500J0D01*
G01*
G37*
D16*
X131548000Y-70440000D03*
X122448000Y-70440000D03*
X131548000Y-65890000D03*
X122448000Y-65890000D03*
X151548000Y-48840000D03*
X142448000Y-48840000D03*
X151548000Y-44290000D03*
X142448000Y-44290000D03*
X154448000Y-83290000D03*
X163548000Y-83290000D03*
X154448000Y-87840000D03*
X163548000Y-87840000D03*
X163548000Y-95040000D03*
X154448000Y-95040000D03*
X163548000Y-90490000D03*
X154448000Y-90490000D03*
X154448000Y-76090000D03*
X163548000Y-76090000D03*
X154448000Y-80640000D03*
X163548000Y-80640000D03*
D17*
X122348000Y-115565000D03*
X122348000Y-110965000D03*
X122348000Y-113265000D03*
D18*
X116048000Y-113265000D03*
D17*
X122098000Y-104815000D03*
X122098000Y-100215000D03*
X122098000Y-102515000D03*
D18*
X115798000Y-102515000D03*
D19*
X126243000Y-54565000D03*
D20*
X118743000Y-62065000D03*
X120013000Y-62065000D03*
X121283000Y-62065000D03*
X122553000Y-62065000D03*
X123823000Y-62065000D03*
X125093000Y-62065000D03*
X126363000Y-62065000D03*
X127633000Y-62065000D03*
X128903000Y-62065000D03*
X130173000Y-62065000D03*
X131443000Y-62065000D03*
X132713000Y-62065000D03*
X133983000Y-62065000D03*
X135253000Y-62065000D03*
D21*
X136253000Y-59280000D03*
X136253000Y-58010000D03*
X136253000Y-56740000D03*
X136253000Y-55470000D03*
X136253000Y-54200000D03*
X136253000Y-52930000D03*
X136253000Y-51660000D03*
X136253000Y-50390000D03*
X136253000Y-49120000D03*
X136253000Y-47850000D03*
D20*
X135253000Y-45065000D03*
X133983000Y-45065000D03*
X132713000Y-45065000D03*
X131443000Y-45065000D03*
X130173000Y-45065000D03*
X128903000Y-45065000D03*
X127633000Y-45065000D03*
X126363000Y-45065000D03*
X125093000Y-45065000D03*
X123823000Y-45065000D03*
X122553000Y-45065000D03*
X121283000Y-45065000D03*
X120013000Y-45065000D03*
X118743000Y-45065000D03*
D22*
X137673850Y-112460000D03*
X137673850Y-113730000D03*
X137673850Y-115000000D03*
X137673850Y-116270000D03*
X143122150Y-116270000D03*
X143122150Y-115000000D03*
X143122150Y-113730000D03*
X143122150Y-112460000D03*
D23*
X177822499Y-89090001D03*
X177822499Y-89739999D03*
X177822499Y-90390001D03*
X177822499Y-91039999D03*
X177822499Y-91690001D03*
X177822499Y-92339999D03*
X177822499Y-92990001D03*
X177822499Y-93639999D03*
D24*
X179723001Y-95540501D03*
X180372999Y-95540501D03*
X181023001Y-95540501D03*
X181672999Y-95540501D03*
X182323001Y-95540501D03*
X182972999Y-95540501D03*
X183623001Y-95540501D03*
X184272999Y-95540501D03*
D23*
X186173501Y-93639999D03*
X186173501Y-92990001D03*
X186173501Y-92339999D03*
X186173501Y-91690001D03*
X186173501Y-91039999D03*
X186173501Y-90390001D03*
X186173501Y-89739999D03*
X186173501Y-89090001D03*
D24*
X184272999Y-87189499D03*
X183623001Y-87189499D03*
X182972999Y-87189499D03*
X182323001Y-87189499D03*
X181672999Y-87189499D03*
X181023001Y-87189499D03*
X180372999Y-87189499D03*
X179723001Y-87189499D03*
G36*
G01*
X193785500Y-102027500D02*
X193785500Y-101902500D01*
G75*
G02*
X193848000Y-101840000I62500J0D01*
G01*
X194548000Y-101840000D01*
G75*
G02*
X194610500Y-101902500I0J-62500D01*
G01*
X194610500Y-102027500D01*
G75*
G02*
X194548000Y-102090000I-62500J0D01*
G01*
X193848000Y-102090000D01*
G75*
G02*
X193785500Y-102027500I0J62500D01*
G01*
G37*
G36*
G01*
X193785500Y-102527500D02*
X193785500Y-102402500D01*
G75*
G02*
X193848000Y-102340000I62500J0D01*
G01*
X194548000Y-102340000D01*
G75*
G02*
X194610500Y-102402500I0J-62500D01*
G01*
X194610500Y-102527500D01*
G75*
G02*
X194548000Y-102590000I-62500J0D01*
G01*
X193848000Y-102590000D01*
G75*
G02*
X193785500Y-102527500I0J62500D01*
G01*
G37*
G36*
G01*
X193785500Y-103027500D02*
X193785500Y-102902500D01*
G75*
G02*
X193848000Y-102840000I62500J0D01*
G01*
X194548000Y-102840000D01*
G75*
G02*
X194610500Y-102902500I0J-62500D01*
G01*
X194610500Y-103027500D01*
G75*
G02*
X194548000Y-103090000I-62500J0D01*
G01*
X193848000Y-103090000D01*
G75*
G02*
X193785500Y-103027500I0J62500D01*
G01*
G37*
G36*
G01*
X193785500Y-103527500D02*
X193785500Y-103402500D01*
G75*
G02*
X193848000Y-103340000I62500J0D01*
G01*
X194548000Y-103340000D01*
G75*
G02*
X194610500Y-103402500I0J-62500D01*
G01*
X194610500Y-103527500D01*
G75*
G02*
X194548000Y-103590000I-62500J0D01*
G01*
X193848000Y-103590000D01*
G75*
G02*
X193785500Y-103527500I0J62500D01*
G01*
G37*
G36*
G01*
X193785500Y-104027500D02*
X193785500Y-103902500D01*
G75*
G02*
X193848000Y-103840000I62500J0D01*
G01*
X194548000Y-103840000D01*
G75*
G02*
X194610500Y-103902500I0J-62500D01*
G01*
X194610500Y-104027500D01*
G75*
G02*
X194548000Y-104090000I-62500J0D01*
G01*
X193848000Y-104090000D01*
G75*
G02*
X193785500Y-104027500I0J62500D01*
G01*
G37*
G36*
G01*
X193785500Y-104527500D02*
X193785500Y-104402500D01*
G75*
G02*
X193848000Y-104340000I62500J0D01*
G01*
X194548000Y-104340000D01*
G75*
G02*
X194610500Y-104402500I0J-62500D01*
G01*
X194610500Y-104527500D01*
G75*
G02*
X194548000Y-104590000I-62500J0D01*
G01*
X193848000Y-104590000D01*
G75*
G02*
X193785500Y-104527500I0J62500D01*
G01*
G37*
G36*
G01*
X194760500Y-105502500D02*
X194760500Y-104802500D01*
G75*
G02*
X194823000Y-104740000I62500J0D01*
G01*
X194948000Y-104740000D01*
G75*
G02*
X195010500Y-104802500I0J-62500D01*
G01*
X195010500Y-105502500D01*
G75*
G02*
X194948000Y-105565000I-62500J0D01*
G01*
X194823000Y-105565000D01*
G75*
G02*
X194760500Y-105502500I0J62500D01*
G01*
G37*
G36*
G01*
X195260500Y-105502500D02*
X195260500Y-104802500D01*
G75*
G02*
X195323000Y-104740000I62500J0D01*
G01*
X195448000Y-104740000D01*
G75*
G02*
X195510500Y-104802500I0J-62500D01*
G01*
X195510500Y-105502500D01*
G75*
G02*
X195448000Y-105565000I-62500J0D01*
G01*
X195323000Y-105565000D01*
G75*
G02*
X195260500Y-105502500I0J62500D01*
G01*
G37*
G36*
G01*
X195760500Y-105502500D02*
X195760500Y-104802500D01*
G75*
G02*
X195823000Y-104740000I62500J0D01*
G01*
X195948000Y-104740000D01*
G75*
G02*
X196010500Y-104802500I0J-62500D01*
G01*
X196010500Y-105502500D01*
G75*
G02*
X195948000Y-105565000I-62500J0D01*
G01*
X195823000Y-105565000D01*
G75*
G02*
X195760500Y-105502500I0J62500D01*
G01*
G37*
G36*
G01*
X196260500Y-105502500D02*
X196260500Y-104802500D01*
G75*
G02*
X196323000Y-104740000I62500J0D01*
G01*
X196448000Y-104740000D01*
G75*
G02*
X196510500Y-104802500I0J-62500D01*
G01*
X196510500Y-105502500D01*
G75*
G02*
X196448000Y-105565000I-62500J0D01*
G01*
X196323000Y-105565000D01*
G75*
G02*
X196260500Y-105502500I0J62500D01*
G01*
G37*
G36*
G01*
X196760500Y-105502500D02*
X196760500Y-104802500D01*
G75*
G02*
X196823000Y-104740000I62500J0D01*
G01*
X196948000Y-104740000D01*
G75*
G02*
X197010500Y-104802500I0J-62500D01*
G01*
X197010500Y-105502500D01*
G75*
G02*
X196948000Y-105565000I-62500J0D01*
G01*
X196823000Y-105565000D01*
G75*
G02*
X196760500Y-105502500I0J62500D01*
G01*
G37*
G36*
G01*
X197260500Y-105502500D02*
X197260500Y-104802500D01*
G75*
G02*
X197323000Y-104740000I62500J0D01*
G01*
X197448000Y-104740000D01*
G75*
G02*
X197510500Y-104802500I0J-62500D01*
G01*
X197510500Y-105502500D01*
G75*
G02*
X197448000Y-105565000I-62500J0D01*
G01*
X197323000Y-105565000D01*
G75*
G02*
X197260500Y-105502500I0J62500D01*
G01*
G37*
G36*
G01*
X197660500Y-104527500D02*
X197660500Y-104402500D01*
G75*
G02*
X197723000Y-104340000I62500J0D01*
G01*
X198423000Y-104340000D01*
G75*
G02*
X198485500Y-104402500I0J-62500D01*
G01*
X198485500Y-104527500D01*
G75*
G02*
X198423000Y-104590000I-62500J0D01*
G01*
X197723000Y-104590000D01*
G75*
G02*
X197660500Y-104527500I0J62500D01*
G01*
G37*
G36*
G01*
X197660500Y-104027500D02*
X197660500Y-103902500D01*
G75*
G02*
X197723000Y-103840000I62500J0D01*
G01*
X198423000Y-103840000D01*
G75*
G02*
X198485500Y-103902500I0J-62500D01*
G01*
X198485500Y-104027500D01*
G75*
G02*
X198423000Y-104090000I-62500J0D01*
G01*
X197723000Y-104090000D01*
G75*
G02*
X197660500Y-104027500I0J62500D01*
G01*
G37*
G36*
G01*
X197660500Y-103527500D02*
X197660500Y-103402500D01*
G75*
G02*
X197723000Y-103340000I62500J0D01*
G01*
X198423000Y-103340000D01*
G75*
G02*
X198485500Y-103402500I0J-62500D01*
G01*
X198485500Y-103527500D01*
G75*
G02*
X198423000Y-103590000I-62500J0D01*
G01*
X197723000Y-103590000D01*
G75*
G02*
X197660500Y-103527500I0J62500D01*
G01*
G37*
G36*
G01*
X197660500Y-103027500D02*
X197660500Y-102902500D01*
G75*
G02*
X197723000Y-102840000I62500J0D01*
G01*
X198423000Y-102840000D01*
G75*
G02*
X198485500Y-102902500I0J-62500D01*
G01*
X198485500Y-103027500D01*
G75*
G02*
X198423000Y-103090000I-62500J0D01*
G01*
X197723000Y-103090000D01*
G75*
G02*
X197660500Y-103027500I0J62500D01*
G01*
G37*
G36*
G01*
X197660500Y-102527500D02*
X197660500Y-102402500D01*
G75*
G02*
X197723000Y-102340000I62500J0D01*
G01*
X198423000Y-102340000D01*
G75*
G02*
X198485500Y-102402500I0J-62500D01*
G01*
X198485500Y-102527500D01*
G75*
G02*
X198423000Y-102590000I-62500J0D01*
G01*
X197723000Y-102590000D01*
G75*
G02*
X197660500Y-102527500I0J62500D01*
G01*
G37*
G36*
G01*
X197660500Y-102027500D02*
X197660500Y-101902500D01*
G75*
G02*
X197723000Y-101840000I62500J0D01*
G01*
X198423000Y-101840000D01*
G75*
G02*
X198485500Y-101902500I0J-62500D01*
G01*
X198485500Y-102027500D01*
G75*
G02*
X198423000Y-102090000I-62500J0D01*
G01*
X197723000Y-102090000D01*
G75*
G02*
X197660500Y-102027500I0J62500D01*
G01*
G37*
G36*
G01*
X197260500Y-101627500D02*
X197260500Y-100927500D01*
G75*
G02*
X197323000Y-100865000I62500J0D01*
G01*
X197448000Y-100865000D01*
G75*
G02*
X197510500Y-100927500I0J-62500D01*
G01*
X197510500Y-101627500D01*
G75*
G02*
X197448000Y-101690000I-62500J0D01*
G01*
X197323000Y-101690000D01*
G75*
G02*
X197260500Y-101627500I0J62500D01*
G01*
G37*
G36*
G01*
X196760500Y-101627500D02*
X196760500Y-100927500D01*
G75*
G02*
X196823000Y-100865000I62500J0D01*
G01*
X196948000Y-100865000D01*
G75*
G02*
X197010500Y-100927500I0J-62500D01*
G01*
X197010500Y-101627500D01*
G75*
G02*
X196948000Y-101690000I-62500J0D01*
G01*
X196823000Y-101690000D01*
G75*
G02*
X196760500Y-101627500I0J62500D01*
G01*
G37*
G36*
G01*
X196260500Y-101627500D02*
X196260500Y-100927500D01*
G75*
G02*
X196323000Y-100865000I62500J0D01*
G01*
X196448000Y-100865000D01*
G75*
G02*
X196510500Y-100927500I0J-62500D01*
G01*
X196510500Y-101627500D01*
G75*
G02*
X196448000Y-101690000I-62500J0D01*
G01*
X196323000Y-101690000D01*
G75*
G02*
X196260500Y-101627500I0J62500D01*
G01*
G37*
G36*
G01*
X195760500Y-101627500D02*
X195760500Y-100927500D01*
G75*
G02*
X195823000Y-100865000I62500J0D01*
G01*
X195948000Y-100865000D01*
G75*
G02*
X196010500Y-100927500I0J-62500D01*
G01*
X196010500Y-101627500D01*
G75*
G02*
X195948000Y-101690000I-62500J0D01*
G01*
X195823000Y-101690000D01*
G75*
G02*
X195760500Y-101627500I0J62500D01*
G01*
G37*
G36*
G01*
X195260500Y-101627500D02*
X195260500Y-100927500D01*
G75*
G02*
X195323000Y-100865000I62500J0D01*
G01*
X195448000Y-100865000D01*
G75*
G02*
X195510500Y-100927500I0J-62500D01*
G01*
X195510500Y-101627500D01*
G75*
G02*
X195448000Y-101690000I-62500J0D01*
G01*
X195323000Y-101690000D01*
G75*
G02*
X195260500Y-101627500I0J62500D01*
G01*
G37*
G36*
G01*
X194760500Y-101627500D02*
X194760500Y-100927500D01*
G75*
G02*
X194823000Y-100865000I62500J0D01*
G01*
X194948000Y-100865000D01*
G75*
G02*
X195010500Y-100927500I0J-62500D01*
G01*
X195010500Y-101627500D01*
G75*
G02*
X194948000Y-101690000I-62500J0D01*
G01*
X194823000Y-101690000D01*
G75*
G02*
X194760500Y-101627500I0J62500D01*
G01*
G37*
G36*
G01*
X194960500Y-102840001D02*
X194960500Y-102289999D01*
G75*
G02*
X195210499Y-102040000I249999J0D01*
G01*
X195760501Y-102040000D01*
G75*
G02*
X196010500Y-102289999I0J-249999D01*
G01*
X196010500Y-102840001D01*
G75*
G02*
X195760501Y-103090000I-249999J0D01*
G01*
X195210499Y-103090000D01*
G75*
G02*
X194960500Y-102840001I0J249999D01*
G01*
G37*
G36*
G01*
X194960500Y-104140001D02*
X194960500Y-103589999D01*
G75*
G02*
X195210499Y-103340000I249999J0D01*
G01*
X195760501Y-103340000D01*
G75*
G02*
X196010500Y-103589999I0J-249999D01*
G01*
X196010500Y-104140001D01*
G75*
G02*
X195760501Y-104390000I-249999J0D01*
G01*
X195210499Y-104390000D01*
G75*
G02*
X194960500Y-104140001I0J249999D01*
G01*
G37*
G36*
G01*
X196260500Y-102840001D02*
X196260500Y-102289999D01*
G75*
G02*
X196510499Y-102040000I249999J0D01*
G01*
X197060501Y-102040000D01*
G75*
G02*
X197310500Y-102289999I0J-249999D01*
G01*
X197310500Y-102840001D01*
G75*
G02*
X197060501Y-103090000I-249999J0D01*
G01*
X196510499Y-103090000D01*
G75*
G02*
X196260500Y-102840001I0J249999D01*
G01*
G37*
G36*
G01*
X196260500Y-104140001D02*
X196260500Y-103589999D01*
G75*
G02*
X196510499Y-103340000I249999J0D01*
G01*
X197060501Y-103340000D01*
G75*
G02*
X197310500Y-103589999I0J-249999D01*
G01*
X197310500Y-104140001D01*
G75*
G02*
X197060501Y-104390000I-249999J0D01*
G01*
X196510499Y-104390000D01*
G75*
G02*
X196260500Y-104140001I0J249999D01*
G01*
G37*
D18*
X115798000Y-92265000D03*
D17*
X122098000Y-92265000D03*
X122098000Y-89965000D03*
X122098000Y-94565000D03*
G36*
G01*
X126222999Y-76490000D02*
X126773001Y-76490000D01*
G75*
G02*
X127023000Y-76739999I0J-249999D01*
G01*
X127023000Y-77290001D01*
G75*
G02*
X126773001Y-77540000I-249999J0D01*
G01*
X126222999Y-77540000D01*
G75*
G02*
X125973000Y-77290001I0J249999D01*
G01*
X125973000Y-76739999D01*
G75*
G02*
X126222999Y-76490000I249999J0D01*
G01*
G37*
G36*
G01*
X127522999Y-76490000D02*
X128073001Y-76490000D01*
G75*
G02*
X128323000Y-76739999I0J-249999D01*
G01*
X128323000Y-77290001D01*
G75*
G02*
X128073001Y-77540000I-249999J0D01*
G01*
X127522999Y-77540000D01*
G75*
G02*
X127273000Y-77290001I0J249999D01*
G01*
X127273000Y-76739999D01*
G75*
G02*
X127522999Y-76490000I249999J0D01*
G01*
G37*
G36*
G01*
X126222999Y-75190000D02*
X126773001Y-75190000D01*
G75*
G02*
X127023000Y-75439999I0J-249999D01*
G01*
X127023000Y-75990001D01*
G75*
G02*
X126773001Y-76240000I-249999J0D01*
G01*
X126222999Y-76240000D01*
G75*
G02*
X125973000Y-75990001I0J249999D01*
G01*
X125973000Y-75439999D01*
G75*
G02*
X126222999Y-75190000I249999J0D01*
G01*
G37*
G36*
G01*
X127522999Y-75190000D02*
X128073001Y-75190000D01*
G75*
G02*
X128323000Y-75439999I0J-249999D01*
G01*
X128323000Y-75990001D01*
G75*
G02*
X128073001Y-76240000I-249999J0D01*
G01*
X127522999Y-76240000D01*
G75*
G02*
X127273000Y-75990001I0J249999D01*
G01*
X127273000Y-75439999D01*
G75*
G02*
X127522999Y-75190000I249999J0D01*
G01*
G37*
G36*
G01*
X128735500Y-74990000D02*
X129435500Y-74990000D01*
G75*
G02*
X129498000Y-75052500I0J-62500D01*
G01*
X129498000Y-75177500D01*
G75*
G02*
X129435500Y-75240000I-62500J0D01*
G01*
X128735500Y-75240000D01*
G75*
G02*
X128673000Y-75177500I0J62500D01*
G01*
X128673000Y-75052500D01*
G75*
G02*
X128735500Y-74990000I62500J0D01*
G01*
G37*
G36*
G01*
X128735500Y-75490000D02*
X129435500Y-75490000D01*
G75*
G02*
X129498000Y-75552500I0J-62500D01*
G01*
X129498000Y-75677500D01*
G75*
G02*
X129435500Y-75740000I-62500J0D01*
G01*
X128735500Y-75740000D01*
G75*
G02*
X128673000Y-75677500I0J62500D01*
G01*
X128673000Y-75552500D01*
G75*
G02*
X128735500Y-75490000I62500J0D01*
G01*
G37*
G36*
G01*
X128735500Y-75990000D02*
X129435500Y-75990000D01*
G75*
G02*
X129498000Y-76052500I0J-62500D01*
G01*
X129498000Y-76177500D01*
G75*
G02*
X129435500Y-76240000I-62500J0D01*
G01*
X128735500Y-76240000D01*
G75*
G02*
X128673000Y-76177500I0J62500D01*
G01*
X128673000Y-76052500D01*
G75*
G02*
X128735500Y-75990000I62500J0D01*
G01*
G37*
G36*
G01*
X128735500Y-76490000D02*
X129435500Y-76490000D01*
G75*
G02*
X129498000Y-76552500I0J-62500D01*
G01*
X129498000Y-76677500D01*
G75*
G02*
X129435500Y-76740000I-62500J0D01*
G01*
X128735500Y-76740000D01*
G75*
G02*
X128673000Y-76677500I0J62500D01*
G01*
X128673000Y-76552500D01*
G75*
G02*
X128735500Y-76490000I62500J0D01*
G01*
G37*
G36*
G01*
X128735500Y-76990000D02*
X129435500Y-76990000D01*
G75*
G02*
X129498000Y-77052500I0J-62500D01*
G01*
X129498000Y-77177500D01*
G75*
G02*
X129435500Y-77240000I-62500J0D01*
G01*
X128735500Y-77240000D01*
G75*
G02*
X128673000Y-77177500I0J62500D01*
G01*
X128673000Y-77052500D01*
G75*
G02*
X128735500Y-76990000I62500J0D01*
G01*
G37*
G36*
G01*
X128735500Y-77490000D02*
X129435500Y-77490000D01*
G75*
G02*
X129498000Y-77552500I0J-62500D01*
G01*
X129498000Y-77677500D01*
G75*
G02*
X129435500Y-77740000I-62500J0D01*
G01*
X128735500Y-77740000D01*
G75*
G02*
X128673000Y-77677500I0J62500D01*
G01*
X128673000Y-77552500D01*
G75*
G02*
X128735500Y-77490000I62500J0D01*
G01*
G37*
G36*
G01*
X128335500Y-77890000D02*
X128460500Y-77890000D01*
G75*
G02*
X128523000Y-77952500I0J-62500D01*
G01*
X128523000Y-78652500D01*
G75*
G02*
X128460500Y-78715000I-62500J0D01*
G01*
X128335500Y-78715000D01*
G75*
G02*
X128273000Y-78652500I0J62500D01*
G01*
X128273000Y-77952500D01*
G75*
G02*
X128335500Y-77890000I62500J0D01*
G01*
G37*
G36*
G01*
X127835500Y-77890000D02*
X127960500Y-77890000D01*
G75*
G02*
X128023000Y-77952500I0J-62500D01*
G01*
X128023000Y-78652500D01*
G75*
G02*
X127960500Y-78715000I-62500J0D01*
G01*
X127835500Y-78715000D01*
G75*
G02*
X127773000Y-78652500I0J62500D01*
G01*
X127773000Y-77952500D01*
G75*
G02*
X127835500Y-77890000I62500J0D01*
G01*
G37*
G36*
G01*
X127335500Y-77890000D02*
X127460500Y-77890000D01*
G75*
G02*
X127523000Y-77952500I0J-62500D01*
G01*
X127523000Y-78652500D01*
G75*
G02*
X127460500Y-78715000I-62500J0D01*
G01*
X127335500Y-78715000D01*
G75*
G02*
X127273000Y-78652500I0J62500D01*
G01*
X127273000Y-77952500D01*
G75*
G02*
X127335500Y-77890000I62500J0D01*
G01*
G37*
G36*
G01*
X126835500Y-77890000D02*
X126960500Y-77890000D01*
G75*
G02*
X127023000Y-77952500I0J-62500D01*
G01*
X127023000Y-78652500D01*
G75*
G02*
X126960500Y-78715000I-62500J0D01*
G01*
X126835500Y-78715000D01*
G75*
G02*
X126773000Y-78652500I0J62500D01*
G01*
X126773000Y-77952500D01*
G75*
G02*
X126835500Y-77890000I62500J0D01*
G01*
G37*
G36*
G01*
X126335500Y-77890000D02*
X126460500Y-77890000D01*
G75*
G02*
X126523000Y-77952500I0J-62500D01*
G01*
X126523000Y-78652500D01*
G75*
G02*
X126460500Y-78715000I-62500J0D01*
G01*
X126335500Y-78715000D01*
G75*
G02*
X126273000Y-78652500I0J62500D01*
G01*
X126273000Y-77952500D01*
G75*
G02*
X126335500Y-77890000I62500J0D01*
G01*
G37*
G36*
G01*
X125835500Y-77890000D02*
X125960500Y-77890000D01*
G75*
G02*
X126023000Y-77952500I0J-62500D01*
G01*
X126023000Y-78652500D01*
G75*
G02*
X125960500Y-78715000I-62500J0D01*
G01*
X125835500Y-78715000D01*
G75*
G02*
X125773000Y-78652500I0J62500D01*
G01*
X125773000Y-77952500D01*
G75*
G02*
X125835500Y-77890000I62500J0D01*
G01*
G37*
G36*
G01*
X124860500Y-77490000D02*
X125560500Y-77490000D01*
G75*
G02*
X125623000Y-77552500I0J-62500D01*
G01*
X125623000Y-77677500D01*
G75*
G02*
X125560500Y-77740000I-62500J0D01*
G01*
X124860500Y-77740000D01*
G75*
G02*
X124798000Y-77677500I0J62500D01*
G01*
X124798000Y-77552500D01*
G75*
G02*
X124860500Y-77490000I62500J0D01*
G01*
G37*
G36*
G01*
X124860500Y-76990000D02*
X125560500Y-76990000D01*
G75*
G02*
X125623000Y-77052500I0J-62500D01*
G01*
X125623000Y-77177500D01*
G75*
G02*
X125560500Y-77240000I-62500J0D01*
G01*
X124860500Y-77240000D01*
G75*
G02*
X124798000Y-77177500I0J62500D01*
G01*
X124798000Y-77052500D01*
G75*
G02*
X124860500Y-76990000I62500J0D01*
G01*
G37*
G36*
G01*
X124860500Y-76490000D02*
X125560500Y-76490000D01*
G75*
G02*
X125623000Y-76552500I0J-62500D01*
G01*
X125623000Y-76677500D01*
G75*
G02*
X125560500Y-76740000I-62500J0D01*
G01*
X124860500Y-76740000D01*
G75*
G02*
X124798000Y-76677500I0J62500D01*
G01*
X124798000Y-76552500D01*
G75*
G02*
X124860500Y-76490000I62500J0D01*
G01*
G37*
G36*
G01*
X124860500Y-75990000D02*
X125560500Y-75990000D01*
G75*
G02*
X125623000Y-76052500I0J-62500D01*
G01*
X125623000Y-76177500D01*
G75*
G02*
X125560500Y-76240000I-62500J0D01*
G01*
X124860500Y-76240000D01*
G75*
G02*
X124798000Y-76177500I0J62500D01*
G01*
X124798000Y-76052500D01*
G75*
G02*
X124860500Y-75990000I62500J0D01*
G01*
G37*
G36*
G01*
X124860500Y-75490000D02*
X125560500Y-75490000D01*
G75*
G02*
X125623000Y-75552500I0J-62500D01*
G01*
X125623000Y-75677500D01*
G75*
G02*
X125560500Y-75740000I-62500J0D01*
G01*
X124860500Y-75740000D01*
G75*
G02*
X124798000Y-75677500I0J62500D01*
G01*
X124798000Y-75552500D01*
G75*
G02*
X124860500Y-75490000I62500J0D01*
G01*
G37*
G36*
G01*
X124860500Y-74990000D02*
X125560500Y-74990000D01*
G75*
G02*
X125623000Y-75052500I0J-62500D01*
G01*
X125623000Y-75177500D01*
G75*
G02*
X125560500Y-75240000I-62500J0D01*
G01*
X124860500Y-75240000D01*
G75*
G02*
X124798000Y-75177500I0J62500D01*
G01*
X124798000Y-75052500D01*
G75*
G02*
X124860500Y-74990000I62500J0D01*
G01*
G37*
G36*
G01*
X125835500Y-74015000D02*
X125960500Y-74015000D01*
G75*
G02*
X126023000Y-74077500I0J-62500D01*
G01*
X126023000Y-74777500D01*
G75*
G02*
X125960500Y-74840000I-62500J0D01*
G01*
X125835500Y-74840000D01*
G75*
G02*
X125773000Y-74777500I0J62500D01*
G01*
X125773000Y-74077500D01*
G75*
G02*
X125835500Y-74015000I62500J0D01*
G01*
G37*
G36*
G01*
X126335500Y-74015000D02*
X126460500Y-74015000D01*
G75*
G02*
X126523000Y-74077500I0J-62500D01*
G01*
X126523000Y-74777500D01*
G75*
G02*
X126460500Y-74840000I-62500J0D01*
G01*
X126335500Y-74840000D01*
G75*
G02*
X126273000Y-74777500I0J62500D01*
G01*
X126273000Y-74077500D01*
G75*
G02*
X126335500Y-74015000I62500J0D01*
G01*
G37*
G36*
G01*
X126835500Y-74015000D02*
X126960500Y-74015000D01*
G75*
G02*
X127023000Y-74077500I0J-62500D01*
G01*
X127023000Y-74777500D01*
G75*
G02*
X126960500Y-74840000I-62500J0D01*
G01*
X126835500Y-74840000D01*
G75*
G02*
X126773000Y-74777500I0J62500D01*
G01*
X126773000Y-74077500D01*
G75*
G02*
X126835500Y-74015000I62500J0D01*
G01*
G37*
G36*
G01*
X127335500Y-74015000D02*
X127460500Y-74015000D01*
G75*
G02*
X127523000Y-74077500I0J-62500D01*
G01*
X127523000Y-74777500D01*
G75*
G02*
X127460500Y-74840000I-62500J0D01*
G01*
X127335500Y-74840000D01*
G75*
G02*
X127273000Y-74777500I0J62500D01*
G01*
X127273000Y-74077500D01*
G75*
G02*
X127335500Y-74015000I62500J0D01*
G01*
G37*
G36*
G01*
X127835500Y-74015000D02*
X127960500Y-74015000D01*
G75*
G02*
X128023000Y-74077500I0J-62500D01*
G01*
X128023000Y-74777500D01*
G75*
G02*
X127960500Y-74840000I-62500J0D01*
G01*
X127835500Y-74840000D01*
G75*
G02*
X127773000Y-74777500I0J62500D01*
G01*
X127773000Y-74077500D01*
G75*
G02*
X127835500Y-74015000I62500J0D01*
G01*
G37*
G36*
G01*
X128335500Y-74015000D02*
X128460500Y-74015000D01*
G75*
G02*
X128523000Y-74077500I0J-62500D01*
G01*
X128523000Y-74777500D01*
G75*
G02*
X128460500Y-74840000I-62500J0D01*
G01*
X128335500Y-74840000D01*
G75*
G02*
X128273000Y-74777500I0J62500D01*
G01*
X128273000Y-74077500D01*
G75*
G02*
X128335500Y-74015000I62500J0D01*
G01*
G37*
D25*
X196023000Y-76965000D03*
X192773000Y-76965000D03*
D26*
X152948000Y-112765000D03*
X152948000Y-114365000D03*
X152948000Y-115965000D03*
X157848000Y-115965000D03*
X157848000Y-114365000D03*
X157848000Y-112765000D03*
G36*
G01*
X125035500Y-88740000D02*
X124560500Y-88740000D01*
G75*
G02*
X124323000Y-88502500I0J237500D01*
G01*
X124323000Y-88002500D01*
G75*
G02*
X124560500Y-87765000I237500J0D01*
G01*
X125035500Y-87765000D01*
G75*
G02*
X125273000Y-88002500I0J-237500D01*
G01*
X125273000Y-88502500D01*
G75*
G02*
X125035500Y-88740000I-237500J0D01*
G01*
G37*
G36*
G01*
X125035500Y-90565000D02*
X124560500Y-90565000D01*
G75*
G02*
X124323000Y-90327500I0J237500D01*
G01*
X124323000Y-89827500D01*
G75*
G02*
X124560500Y-89590000I237500J0D01*
G01*
X125035500Y-89590000D01*
G75*
G02*
X125273000Y-89827500I0J-237500D01*
G01*
X125273000Y-90327500D01*
G75*
G02*
X125035500Y-90565000I-237500J0D01*
G01*
G37*
G36*
G01*
X127035500Y-99365000D02*
X126560500Y-99365000D01*
G75*
G02*
X126323000Y-99127500I0J237500D01*
G01*
X126323000Y-98627500D01*
G75*
G02*
X126560500Y-98390000I237500J0D01*
G01*
X127035500Y-98390000D01*
G75*
G02*
X127273000Y-98627500I0J-237500D01*
G01*
X127273000Y-99127500D01*
G75*
G02*
X127035500Y-99365000I-237500J0D01*
G01*
G37*
G36*
G01*
X127035500Y-97540000D02*
X126560500Y-97540000D01*
G75*
G02*
X126323000Y-97302500I0J237500D01*
G01*
X126323000Y-96802500D01*
G75*
G02*
X126560500Y-96565000I237500J0D01*
G01*
X127035500Y-96565000D01*
G75*
G02*
X127273000Y-96802500I0J-237500D01*
G01*
X127273000Y-97302500D01*
G75*
G02*
X127035500Y-97540000I-237500J0D01*
G01*
G37*
M02*
