G04 #@! TF.GenerationSoftware,KiCad,Pcbnew,(5.1.12)-1*
G04 #@! TF.CreationDate,2022-03-24T17:08:20-05:00*
G04 #@! TF.ProjectId,AVR-CTF,4156522d-4354-4462-9e6b-696361645f70,rev?*
G04 #@! TF.SameCoordinates,Original*
G04 #@! TF.FileFunction,Profile,NP*
%FSLAX46Y46*%
G04 Gerber Fmt 4.6, Leading zero omitted, Abs format (unit mm)*
G04 Created by KiCad (PCBNEW (5.1.12)-1) date 2022-03-24 17:08:20*
%MOMM*%
%LPD*%
G01*
G04 APERTURE LIST*
G04 #@! TA.AperFunction,Profile*
%ADD10C,0.150000*%
G04 #@! TD*
G04 #@! TA.AperFunction,Profile*
%ADD11C,0.100000*%
G04 #@! TD*
G04 #@! TA.AperFunction,Profile*
%ADD12C,0.010000*%
G04 #@! TD*
G04 APERTURE END LIST*
D10*
X162598000Y-43565000D02*
G75*
G03*
X162598000Y-43565000I-1600000J0D01*
G01*
X204598000Y-123365000D02*
G75*
G03*
X204598000Y-123365000I-1600000J0D01*
G01*
X115598000Y-123365000D02*
G75*
G03*
X115598000Y-123365000I-1600000J0D01*
G01*
D11*
X205998000Y-40565000D02*
X205998000Y-126365000D01*
X110998000Y-40565000D02*
X205998000Y-40565000D01*
X110998000Y-126365000D02*
X110998000Y-40565000D01*
X205998000Y-126365000D02*
X110998000Y-126365000D01*
D12*
X196348000Y-123765000D02*
X196348000Y-122965000D01*
X196798000Y-122965000D02*
X196798000Y-123765000D01*
X189198000Y-123765000D02*
X189198000Y-122965000D01*
X189648000Y-122965000D02*
X189648000Y-123765000D01*
X196573000Y-123990000D02*
G75*
G02*
X196348000Y-123765000I0J225000D01*
G01*
X196798000Y-123765000D02*
G75*
G02*
X196573000Y-123990000I-225000J0D01*
G01*
X196573000Y-122740000D02*
G75*
G02*
X196798000Y-122965000I0J-225000D01*
G01*
X196348000Y-122965000D02*
G75*
G02*
X196573000Y-122740000I225000J0D01*
G01*
X189423000Y-123990000D02*
G75*
G02*
X189198000Y-123765000I0J225000D01*
G01*
X189648000Y-123765000D02*
G75*
G02*
X189423000Y-123990000I-225000J0D01*
G01*
X189423000Y-122740000D02*
G75*
G02*
X189648000Y-122965000I0J-225000D01*
G01*
X189198000Y-122965000D02*
G75*
G02*
X189423000Y-122740000I225000J0D01*
G01*
X113798000Y-73765000D02*
X112998000Y-73765000D01*
X112998000Y-73315000D02*
X113798000Y-73315000D01*
X113798000Y-80915000D02*
X112998000Y-80915000D01*
X112998000Y-80465000D02*
X113798000Y-80465000D01*
X113798000Y-73315000D02*
G75*
G02*
X114023000Y-73540000I0J-225000D01*
G01*
X114023000Y-73540000D02*
G75*
G02*
X113798000Y-73765000I-225000J0D01*
G01*
X112998000Y-73765000D02*
G75*
G02*
X112773000Y-73540000I0J225000D01*
G01*
X112773000Y-73540000D02*
G75*
G02*
X112998000Y-73315000I225000J0D01*
G01*
X113798000Y-80465000D02*
G75*
G02*
X114023000Y-80690000I0J-225000D01*
G01*
X114023000Y-80690000D02*
G75*
G02*
X113798000Y-80915000I-225000J0D01*
G01*
X112998000Y-80915000D02*
G75*
G02*
X112773000Y-80690000I0J225000D01*
G01*
X112773000Y-80690000D02*
G75*
G02*
X112998000Y-80465000I225000J0D01*
G01*
M02*
