G04 #@! TF.GenerationSoftware,KiCad,Pcbnew,(5.1.12)-1*
G04 #@! TF.CreationDate,2022-03-24T17:08:19-05:00*
G04 #@! TF.ProjectId,AVR-CTF,4156522d-4354-4462-9e6b-696361645f70,rev?*
G04 #@! TF.SameCoordinates,Original*
G04 #@! TF.FileFunction,Soldermask,Bot*
G04 #@! TF.FilePolarity,Negative*
%FSLAX46Y46*%
G04 Gerber Fmt 4.6, Leading zero omitted, Abs format (unit mm)*
G04 Created by KiCad (PCBNEW (5.1.12)-1) date 2022-03-24 17:08:19*
%MOMM*%
%LPD*%
G01*
G04 APERTURE LIST*
%ADD10C,0.010000*%
%ADD11R,1.700000X1.700000*%
%ADD12O,1.700000X1.700000*%
%ADD13C,0.450000*%
%ADD14O,1.727200X2.032000*%
G04 APERTURE END LIST*
D10*
G36*
X195853370Y-122215000D02*
G01*
X197298000Y-122215000D01*
X197298000Y-124517170D01*
X195853370Y-124517170D01*
X195853370Y-122215000D01*
G37*
X195853370Y-122215000D02*
X197298000Y-122215000D01*
X197298000Y-124517170D01*
X195853370Y-124517170D01*
X195853370Y-122215000D01*
G36*
X188691180Y-122215000D02*
G01*
X190148000Y-122215000D01*
X190148000Y-124516820D01*
X188691180Y-124516820D01*
X188691180Y-122215000D01*
G37*
X188691180Y-122215000D02*
X190148000Y-122215000D01*
X190148000Y-124516820D01*
X188691180Y-124516820D01*
X188691180Y-122215000D01*
G36*
X114548000Y-72808180D02*
G01*
X114548000Y-74265000D01*
X112246180Y-74265000D01*
X112246180Y-72808180D01*
X114548000Y-72808180D01*
G37*
X114548000Y-72808180D02*
X114548000Y-74265000D01*
X112246180Y-74265000D01*
X112246180Y-72808180D01*
X114548000Y-72808180D01*
G36*
X114548000Y-79970370D02*
G01*
X114548000Y-81415000D01*
X112245830Y-81415000D01*
X112245830Y-79970370D01*
X114548000Y-79970370D01*
G37*
X114548000Y-79970370D02*
X114548000Y-81415000D01*
X112245830Y-81415000D01*
X112245830Y-79970370D01*
X114548000Y-79970370D01*
G36*
G01*
X120548000Y-57890000D02*
X120548000Y-58840000D01*
G75*
G02*
X120298000Y-59090000I-250000J0D01*
G01*
X119623000Y-59090000D01*
G75*
G02*
X119373000Y-58840000I0J250000D01*
G01*
X119373000Y-57890000D01*
G75*
G02*
X119623000Y-57640000I250000J0D01*
G01*
X120298000Y-57640000D01*
G75*
G02*
X120548000Y-57890000I0J-250000D01*
G01*
G37*
G36*
G01*
X122623000Y-57890000D02*
X122623000Y-58840000D01*
G75*
G02*
X122373000Y-59090000I-250000J0D01*
G01*
X121698000Y-59090000D01*
G75*
G02*
X121448000Y-58840000I0J250000D01*
G01*
X121448000Y-57890000D01*
G75*
G02*
X121698000Y-57640000I250000J0D01*
G01*
X122373000Y-57640000D01*
G75*
G02*
X122623000Y-57890000I0J-250000D01*
G01*
G37*
G36*
G01*
X122398000Y-56127500D02*
X122398000Y-56602500D01*
G75*
G02*
X122160500Y-56840000I-237500J0D01*
G01*
X121560500Y-56840000D01*
G75*
G02*
X121323000Y-56602500I0J237500D01*
G01*
X121323000Y-56127500D01*
G75*
G02*
X121560500Y-55890000I237500J0D01*
G01*
X122160500Y-55890000D01*
G75*
G02*
X122398000Y-56127500I0J-237500D01*
G01*
G37*
G36*
G01*
X120673000Y-56127500D02*
X120673000Y-56602500D01*
G75*
G02*
X120435500Y-56840000I-237500J0D01*
G01*
X119835500Y-56840000D01*
G75*
G02*
X119598000Y-56602500I0J237500D01*
G01*
X119598000Y-56127500D01*
G75*
G02*
X119835500Y-55890000I237500J0D01*
G01*
X120435500Y-55890000D01*
G75*
G02*
X120673000Y-56127500I0J-237500D01*
G01*
G37*
G36*
G01*
X120673000Y-54127500D02*
X120673000Y-54602500D01*
G75*
G02*
X120435500Y-54840000I-237500J0D01*
G01*
X119835500Y-54840000D01*
G75*
G02*
X119598000Y-54602500I0J237500D01*
G01*
X119598000Y-54127500D01*
G75*
G02*
X119835500Y-53890000I237500J0D01*
G01*
X120435500Y-53890000D01*
G75*
G02*
X120673000Y-54127500I0J-237500D01*
G01*
G37*
G36*
G01*
X122398000Y-54127500D02*
X122398000Y-54602500D01*
G75*
G02*
X122160500Y-54840000I-237500J0D01*
G01*
X121560500Y-54840000D01*
G75*
G02*
X121323000Y-54602500I0J237500D01*
G01*
X121323000Y-54127500D01*
G75*
G02*
X121560500Y-53890000I237500J0D01*
G01*
X122160500Y-53890000D01*
G75*
G02*
X122398000Y-54127500I0J-237500D01*
G01*
G37*
G36*
G01*
X128198000Y-68402500D02*
X128198000Y-67927500D01*
G75*
G02*
X128435500Y-67690000I237500J0D01*
G01*
X129035500Y-67690000D01*
G75*
G02*
X129273000Y-67927500I0J-237500D01*
G01*
X129273000Y-68402500D01*
G75*
G02*
X129035500Y-68640000I-237500J0D01*
G01*
X128435500Y-68640000D01*
G75*
G02*
X128198000Y-68402500I0J237500D01*
G01*
G37*
G36*
G01*
X129923000Y-68402500D02*
X129923000Y-67927500D01*
G75*
G02*
X130160500Y-67690000I237500J0D01*
G01*
X130760500Y-67690000D01*
G75*
G02*
X130998000Y-67927500I0J-237500D01*
G01*
X130998000Y-68402500D01*
G75*
G02*
X130760500Y-68640000I-237500J0D01*
G01*
X130160500Y-68640000D01*
G75*
G02*
X129923000Y-68402500I0J237500D01*
G01*
G37*
G36*
G01*
X197598000Y-102127500D02*
X197598000Y-102602500D01*
G75*
G02*
X197360500Y-102840000I-237500J0D01*
G01*
X196760500Y-102840000D01*
G75*
G02*
X196523000Y-102602500I0J237500D01*
G01*
X196523000Y-102127500D01*
G75*
G02*
X196760500Y-101890000I237500J0D01*
G01*
X197360500Y-101890000D01*
G75*
G02*
X197598000Y-102127500I0J-237500D01*
G01*
G37*
G36*
G01*
X195873000Y-102127500D02*
X195873000Y-102602500D01*
G75*
G02*
X195635500Y-102840000I-237500J0D01*
G01*
X195035500Y-102840000D01*
G75*
G02*
X194798000Y-102602500I0J237500D01*
G01*
X194798000Y-102127500D01*
G75*
G02*
X195035500Y-101890000I237500J0D01*
G01*
X195635500Y-101890000D01*
G75*
G02*
X195873000Y-102127500I0J-237500D01*
G01*
G37*
G36*
G01*
X195873000Y-104127500D02*
X195873000Y-104602500D01*
G75*
G02*
X195635500Y-104840000I-237500J0D01*
G01*
X195035500Y-104840000D01*
G75*
G02*
X194798000Y-104602500I0J237500D01*
G01*
X194798000Y-104127500D01*
G75*
G02*
X195035500Y-103890000I237500J0D01*
G01*
X195635500Y-103890000D01*
G75*
G02*
X195873000Y-104127500I0J-237500D01*
G01*
G37*
G36*
G01*
X197598000Y-104127500D02*
X197598000Y-104602500D01*
G75*
G02*
X197360500Y-104840000I-237500J0D01*
G01*
X196760500Y-104840000D01*
G75*
G02*
X196523000Y-104602500I0J237500D01*
G01*
X196523000Y-104127500D01*
G75*
G02*
X196760500Y-103890000I237500J0D01*
G01*
X197360500Y-103890000D01*
G75*
G02*
X197598000Y-104127500I0J-237500D01*
G01*
G37*
D11*
X197198000Y-89225000D03*
D12*
X197198000Y-91765000D03*
X133518000Y-92565000D03*
X136058000Y-92565000D03*
D11*
X138598000Y-92565000D03*
X140798000Y-63165000D03*
D12*
X143338000Y-63165000D03*
X145878000Y-63165000D03*
X148418000Y-63165000D03*
X195998000Y-83105000D03*
D11*
X195998000Y-80565000D03*
X191998000Y-80565000D03*
D12*
X191998000Y-83105000D03*
D11*
X174398000Y-85365000D03*
D12*
X174398000Y-82825000D03*
X174398000Y-80285000D03*
D13*
X196573000Y-123365000D03*
X189423000Y-123365000D03*
X113398000Y-73540000D03*
X113398000Y-80690000D03*
D14*
X179955000Y-111502000D03*
X177415000Y-111502000D03*
X174875000Y-111502000D03*
X172335000Y-111502000D03*
X169795000Y-111502000D03*
X167255000Y-111502000D03*
X164715000Y-111502000D03*
X162175000Y-111502000D03*
X185098500Y-111502000D03*
X187638500Y-111502000D03*
X190178500Y-111502000D03*
X192718500Y-111502000D03*
X195258500Y-111502000D03*
X197798500Y-111502000D03*
X153094500Y-63242000D03*
X155634500Y-63242000D03*
X158174500Y-63242000D03*
X160714500Y-63242000D03*
X163254500Y-63242000D03*
X165794500Y-63242000D03*
X168334500Y-63242000D03*
X170874500Y-63242000D03*
X173414500Y-63242000D03*
X175954500Y-63242000D03*
X180082000Y-63242000D03*
X182622000Y-63242000D03*
X185162000Y-63242000D03*
X187702000Y-63242000D03*
X190242000Y-63242000D03*
X192782000Y-63242000D03*
X195322000Y-63242000D03*
X197862000Y-63242000D03*
G36*
G01*
X125823000Y-68402500D02*
X125823000Y-67927500D01*
G75*
G02*
X126060500Y-67690000I237500J0D01*
G01*
X126560500Y-67690000D01*
G75*
G02*
X126798000Y-67927500I0J-237500D01*
G01*
X126798000Y-68402500D01*
G75*
G02*
X126560500Y-68640000I-237500J0D01*
G01*
X126060500Y-68640000D01*
G75*
G02*
X125823000Y-68402500I0J237500D01*
G01*
G37*
G36*
G01*
X123998000Y-68402500D02*
X123998000Y-67927500D01*
G75*
G02*
X124235500Y-67690000I237500J0D01*
G01*
X124735500Y-67690000D01*
G75*
G02*
X124973000Y-67927500I0J-237500D01*
G01*
X124973000Y-68402500D01*
G75*
G02*
X124735500Y-68640000I-237500J0D01*
G01*
X124235500Y-68640000D01*
G75*
G02*
X123998000Y-68402500I0J237500D01*
G01*
G37*
G36*
G01*
X150598000Y-46327500D02*
X150598000Y-46802500D01*
G75*
G02*
X150360500Y-47040000I-237500J0D01*
G01*
X149860500Y-47040000D01*
G75*
G02*
X149623000Y-46802500I0J237500D01*
G01*
X149623000Y-46327500D01*
G75*
G02*
X149860500Y-46090000I237500J0D01*
G01*
X150360500Y-46090000D01*
G75*
G02*
X150598000Y-46327500I0J-237500D01*
G01*
G37*
G36*
G01*
X148773000Y-46327500D02*
X148773000Y-46802500D01*
G75*
G02*
X148535500Y-47040000I-237500J0D01*
G01*
X148035500Y-47040000D01*
G75*
G02*
X147798000Y-46802500I0J237500D01*
G01*
X147798000Y-46327500D01*
G75*
G02*
X148035500Y-46090000I237500J0D01*
G01*
X148535500Y-46090000D01*
G75*
G02*
X148773000Y-46327500I0J-237500D01*
G01*
G37*
M02*
