G04 #@! TF.GenerationSoftware,KiCad,Pcbnew,(5.1.12)-1*
G04 #@! TF.CreationDate,2022-03-23T16:05:10-05:00*
G04 #@! TF.ProjectId,AVR-CTF,4156522d-4354-4462-9e6b-696361645f70,rev?*
G04 #@! TF.SameCoordinates,Original*
G04 #@! TF.FileFunction,Paste,Top*
G04 #@! TF.FilePolarity,Positive*
%FSLAX46Y46*%
G04 Gerber Fmt 4.6, Leading zero omitted, Abs format (unit mm)*
G04 Created by KiCad (PCBNEW (5.1.12)-1) date 2022-03-23 16:05:10*
%MOMM*%
%LPD*%
G01*
G04 APERTURE LIST*
%ADD10C,0.001000*%
%ADD11R,3.500000X1.800000*%
%ADD12R,2.000000X1.900000*%
%ADD13R,1.400000X0.400000*%
%ADD14R,2.100000X1.400000*%
%ADD15R,2.000000X1.500000*%
%ADD16R,2.000000X3.800000*%
%ADD17R,5.000000X5.000000*%
%ADD18R,0.900000X2.000000*%
%ADD19R,2.000000X0.900000*%
%ADD20R,1.460500X0.538480*%
%ADD21R,1.340599X0.507200*%
%ADD22R,0.507200X1.340599*%
%ADD23R,1.750000X1.800000*%
%ADD24R,1.500000X1.000000*%
G04 APERTURE END LIST*
D10*
G36*
X207798000Y-105165000D02*
G01*
X207398000Y-105165000D01*
X207386000Y-105165000D01*
X207374000Y-105164000D01*
X207363000Y-105162000D01*
X207351000Y-105160000D01*
X207340000Y-105157000D01*
X207328000Y-105154000D01*
X207317000Y-105150000D01*
X207306000Y-105146000D01*
X207296000Y-105140000D01*
X207285000Y-105135000D01*
X207275000Y-105129000D01*
X207266000Y-105122000D01*
X207256000Y-105115000D01*
X207247000Y-105107000D01*
X207239000Y-105099000D01*
X207231000Y-105091000D01*
X207223000Y-105082000D01*
X207216000Y-105072000D01*
X207209000Y-105063000D01*
X207203000Y-105053000D01*
X207198000Y-105042000D01*
X207192000Y-105032000D01*
X207188000Y-105021000D01*
X207184000Y-105010000D01*
X207181000Y-104998000D01*
X207178000Y-104987000D01*
X207176000Y-104975000D01*
X207174000Y-104964000D01*
X207173000Y-104952000D01*
X207173000Y-104940000D01*
X207173000Y-104928000D01*
X207174000Y-104916000D01*
X207176000Y-104905000D01*
X207178000Y-104893000D01*
X207181000Y-104882000D01*
X207184000Y-104870000D01*
X207188000Y-104859000D01*
X207192000Y-104848000D01*
X207198000Y-104838000D01*
X207203000Y-104828000D01*
X207209000Y-104817000D01*
X207216000Y-104808000D01*
X207223000Y-104798000D01*
X207231000Y-104789000D01*
X207239000Y-104781000D01*
X207247000Y-104773000D01*
X207256000Y-104765000D01*
X207266000Y-104758000D01*
X207275000Y-104751000D01*
X207286000Y-104745000D01*
X207296000Y-104740000D01*
X207306000Y-104734000D01*
X207317000Y-104730000D01*
X207328000Y-104726000D01*
X207340000Y-104723000D01*
X207351000Y-104720000D01*
X207363000Y-104718000D01*
X207374000Y-104716000D01*
X207386000Y-104715000D01*
X207398000Y-104715000D01*
X207798000Y-104715000D01*
X207798000Y-104415000D01*
X207398000Y-104415000D01*
X207371000Y-104416000D01*
X207343000Y-104418000D01*
X207316000Y-104421000D01*
X207289000Y-104426000D01*
X207262000Y-104433000D01*
X207236000Y-104441000D01*
X207210000Y-104450000D01*
X207184000Y-104460000D01*
X207160000Y-104472000D01*
X207136000Y-104485000D01*
X207112000Y-104500000D01*
X207089000Y-104515000D01*
X207068000Y-104532000D01*
X207047000Y-104550000D01*
X207027000Y-104569000D01*
X207008000Y-104589000D01*
X206990000Y-104610000D01*
X206973000Y-104631000D01*
X206958000Y-104654000D01*
X206943000Y-104678000D01*
X206930000Y-104702000D01*
X206918000Y-104726000D01*
X206908000Y-104752000D01*
X206899000Y-104778000D01*
X206891000Y-104804000D01*
X206884000Y-104831000D01*
X206879000Y-104858000D01*
X206876000Y-104885000D01*
X206874000Y-104913000D01*
X206873000Y-104940000D01*
X206874000Y-104967000D01*
X206876000Y-104995000D01*
X206879000Y-105022000D01*
X206884000Y-105049000D01*
X206891000Y-105076000D01*
X206899000Y-105102000D01*
X206908000Y-105128000D01*
X206918000Y-105154000D01*
X206930000Y-105178000D01*
X206943000Y-105202000D01*
X206958000Y-105226000D01*
X206973000Y-105249000D01*
X206990000Y-105270000D01*
X207008000Y-105291000D01*
X207027000Y-105311000D01*
X207047000Y-105330000D01*
X207068000Y-105348000D01*
X207089000Y-105365000D01*
X207112000Y-105380000D01*
X207135000Y-105395000D01*
X207160000Y-105408000D01*
X207184000Y-105420000D01*
X207210000Y-105430000D01*
X207236000Y-105439000D01*
X207262000Y-105447000D01*
X207289000Y-105454000D01*
X207316000Y-105459000D01*
X207343000Y-105462000D01*
X207371000Y-105464000D01*
X207398000Y-105465000D01*
X207798000Y-105465000D01*
X207798000Y-105165000D01*
G37*
X207798000Y-105165000D02*
X207398000Y-105165000D01*
X207386000Y-105165000D01*
X207374000Y-105164000D01*
X207363000Y-105162000D01*
X207351000Y-105160000D01*
X207340000Y-105157000D01*
X207328000Y-105154000D01*
X207317000Y-105150000D01*
X207306000Y-105146000D01*
X207296000Y-105140000D01*
X207285000Y-105135000D01*
X207275000Y-105129000D01*
X207266000Y-105122000D01*
X207256000Y-105115000D01*
X207247000Y-105107000D01*
X207239000Y-105099000D01*
X207231000Y-105091000D01*
X207223000Y-105082000D01*
X207216000Y-105072000D01*
X207209000Y-105063000D01*
X207203000Y-105053000D01*
X207198000Y-105042000D01*
X207192000Y-105032000D01*
X207188000Y-105021000D01*
X207184000Y-105010000D01*
X207181000Y-104998000D01*
X207178000Y-104987000D01*
X207176000Y-104975000D01*
X207174000Y-104964000D01*
X207173000Y-104952000D01*
X207173000Y-104940000D01*
X207173000Y-104928000D01*
X207174000Y-104916000D01*
X207176000Y-104905000D01*
X207178000Y-104893000D01*
X207181000Y-104882000D01*
X207184000Y-104870000D01*
X207188000Y-104859000D01*
X207192000Y-104848000D01*
X207198000Y-104838000D01*
X207203000Y-104828000D01*
X207209000Y-104817000D01*
X207216000Y-104808000D01*
X207223000Y-104798000D01*
X207231000Y-104789000D01*
X207239000Y-104781000D01*
X207247000Y-104773000D01*
X207256000Y-104765000D01*
X207266000Y-104758000D01*
X207275000Y-104751000D01*
X207286000Y-104745000D01*
X207296000Y-104740000D01*
X207306000Y-104734000D01*
X207317000Y-104730000D01*
X207328000Y-104726000D01*
X207340000Y-104723000D01*
X207351000Y-104720000D01*
X207363000Y-104718000D01*
X207374000Y-104716000D01*
X207386000Y-104715000D01*
X207398000Y-104715000D01*
X207798000Y-104715000D01*
X207798000Y-104415000D01*
X207398000Y-104415000D01*
X207371000Y-104416000D01*
X207343000Y-104418000D01*
X207316000Y-104421000D01*
X207289000Y-104426000D01*
X207262000Y-104433000D01*
X207236000Y-104441000D01*
X207210000Y-104450000D01*
X207184000Y-104460000D01*
X207160000Y-104472000D01*
X207136000Y-104485000D01*
X207112000Y-104500000D01*
X207089000Y-104515000D01*
X207068000Y-104532000D01*
X207047000Y-104550000D01*
X207027000Y-104569000D01*
X207008000Y-104589000D01*
X206990000Y-104610000D01*
X206973000Y-104631000D01*
X206958000Y-104654000D01*
X206943000Y-104678000D01*
X206930000Y-104702000D01*
X206918000Y-104726000D01*
X206908000Y-104752000D01*
X206899000Y-104778000D01*
X206891000Y-104804000D01*
X206884000Y-104831000D01*
X206879000Y-104858000D01*
X206876000Y-104885000D01*
X206874000Y-104913000D01*
X206873000Y-104940000D01*
X206874000Y-104967000D01*
X206876000Y-104995000D01*
X206879000Y-105022000D01*
X206884000Y-105049000D01*
X206891000Y-105076000D01*
X206899000Y-105102000D01*
X206908000Y-105128000D01*
X206918000Y-105154000D01*
X206930000Y-105178000D01*
X206943000Y-105202000D01*
X206958000Y-105226000D01*
X206973000Y-105249000D01*
X206990000Y-105270000D01*
X207008000Y-105291000D01*
X207027000Y-105311000D01*
X207047000Y-105330000D01*
X207068000Y-105348000D01*
X207089000Y-105365000D01*
X207112000Y-105380000D01*
X207135000Y-105395000D01*
X207160000Y-105408000D01*
X207184000Y-105420000D01*
X207210000Y-105430000D01*
X207236000Y-105439000D01*
X207262000Y-105447000D01*
X207289000Y-105454000D01*
X207316000Y-105459000D01*
X207343000Y-105462000D01*
X207371000Y-105464000D01*
X207398000Y-105465000D01*
X207798000Y-105465000D01*
X207798000Y-105165000D01*
G36*
X207798000Y-104715000D02*
G01*
X208198000Y-104715000D01*
X208210000Y-104715000D01*
X208222000Y-104716000D01*
X208233000Y-104718000D01*
X208245000Y-104720000D01*
X208256000Y-104723000D01*
X208268000Y-104726000D01*
X208279000Y-104730000D01*
X208290000Y-104734000D01*
X208300000Y-104740000D01*
X208310000Y-104745000D01*
X208321000Y-104751000D01*
X208330000Y-104758000D01*
X208340000Y-104765000D01*
X208349000Y-104773000D01*
X208357000Y-104781000D01*
X208365000Y-104789000D01*
X208373000Y-104798000D01*
X208380000Y-104808000D01*
X208387000Y-104817000D01*
X208393000Y-104828000D01*
X208398000Y-104838000D01*
X208404000Y-104848000D01*
X208408000Y-104859000D01*
X208412000Y-104870000D01*
X208415000Y-104882000D01*
X208418000Y-104893000D01*
X208420000Y-104905000D01*
X208422000Y-104916000D01*
X208423000Y-104928000D01*
X208423000Y-104940000D01*
X208423000Y-104952000D01*
X208422000Y-104964000D01*
X208420000Y-104975000D01*
X208418000Y-104987000D01*
X208415000Y-104998000D01*
X208412000Y-105010000D01*
X208408000Y-105021000D01*
X208404000Y-105032000D01*
X208398000Y-105042000D01*
X208393000Y-105053000D01*
X208387000Y-105063000D01*
X208380000Y-105072000D01*
X208373000Y-105082000D01*
X208365000Y-105091000D01*
X208357000Y-105099000D01*
X208349000Y-105107000D01*
X208340000Y-105115000D01*
X208330000Y-105122000D01*
X208321000Y-105129000D01*
X208311000Y-105135000D01*
X208300000Y-105140000D01*
X208290000Y-105146000D01*
X208279000Y-105150000D01*
X208268000Y-105154000D01*
X208256000Y-105157000D01*
X208245000Y-105160000D01*
X208233000Y-105162000D01*
X208222000Y-105164000D01*
X208210000Y-105165000D01*
X208198000Y-105165000D01*
X207798000Y-105165000D01*
X207798000Y-105465000D01*
X208198000Y-105465000D01*
X208225000Y-105464000D01*
X208253000Y-105462000D01*
X208280000Y-105459000D01*
X208307000Y-105454000D01*
X208334000Y-105447000D01*
X208360000Y-105439000D01*
X208386000Y-105430000D01*
X208412000Y-105420000D01*
X208436000Y-105408000D01*
X208461000Y-105395000D01*
X208484000Y-105380000D01*
X208507000Y-105365000D01*
X208528000Y-105348000D01*
X208549000Y-105330000D01*
X208569000Y-105311000D01*
X208588000Y-105291000D01*
X208606000Y-105270000D01*
X208623000Y-105249000D01*
X208638000Y-105226000D01*
X208653000Y-105202000D01*
X208666000Y-105178000D01*
X208678000Y-105154000D01*
X208688000Y-105128000D01*
X208697000Y-105102000D01*
X208705000Y-105076000D01*
X208712000Y-105049000D01*
X208717000Y-105022000D01*
X208720000Y-104995000D01*
X208722000Y-104967000D01*
X208723000Y-104940000D01*
X208722000Y-104913000D01*
X208720000Y-104885000D01*
X208717000Y-104858000D01*
X208712000Y-104831000D01*
X208705000Y-104804000D01*
X208697000Y-104778000D01*
X208688000Y-104752000D01*
X208678000Y-104726000D01*
X208666000Y-104702000D01*
X208653000Y-104678000D01*
X208638000Y-104654000D01*
X208623000Y-104631000D01*
X208606000Y-104610000D01*
X208588000Y-104589000D01*
X208569000Y-104569000D01*
X208549000Y-104550000D01*
X208528000Y-104532000D01*
X208507000Y-104515000D01*
X208484000Y-104500000D01*
X208460000Y-104485000D01*
X208436000Y-104472000D01*
X208412000Y-104460000D01*
X208386000Y-104450000D01*
X208360000Y-104441000D01*
X208334000Y-104433000D01*
X208307000Y-104426000D01*
X208280000Y-104421000D01*
X208253000Y-104418000D01*
X208225000Y-104416000D01*
X208198000Y-104415000D01*
X207798000Y-104415000D01*
X207798000Y-104715000D01*
G37*
X207798000Y-104715000D02*
X208198000Y-104715000D01*
X208210000Y-104715000D01*
X208222000Y-104716000D01*
X208233000Y-104718000D01*
X208245000Y-104720000D01*
X208256000Y-104723000D01*
X208268000Y-104726000D01*
X208279000Y-104730000D01*
X208290000Y-104734000D01*
X208300000Y-104740000D01*
X208310000Y-104745000D01*
X208321000Y-104751000D01*
X208330000Y-104758000D01*
X208340000Y-104765000D01*
X208349000Y-104773000D01*
X208357000Y-104781000D01*
X208365000Y-104789000D01*
X208373000Y-104798000D01*
X208380000Y-104808000D01*
X208387000Y-104817000D01*
X208393000Y-104828000D01*
X208398000Y-104838000D01*
X208404000Y-104848000D01*
X208408000Y-104859000D01*
X208412000Y-104870000D01*
X208415000Y-104882000D01*
X208418000Y-104893000D01*
X208420000Y-104905000D01*
X208422000Y-104916000D01*
X208423000Y-104928000D01*
X208423000Y-104940000D01*
X208423000Y-104952000D01*
X208422000Y-104964000D01*
X208420000Y-104975000D01*
X208418000Y-104987000D01*
X208415000Y-104998000D01*
X208412000Y-105010000D01*
X208408000Y-105021000D01*
X208404000Y-105032000D01*
X208398000Y-105042000D01*
X208393000Y-105053000D01*
X208387000Y-105063000D01*
X208380000Y-105072000D01*
X208373000Y-105082000D01*
X208365000Y-105091000D01*
X208357000Y-105099000D01*
X208349000Y-105107000D01*
X208340000Y-105115000D01*
X208330000Y-105122000D01*
X208321000Y-105129000D01*
X208311000Y-105135000D01*
X208300000Y-105140000D01*
X208290000Y-105146000D01*
X208279000Y-105150000D01*
X208268000Y-105154000D01*
X208256000Y-105157000D01*
X208245000Y-105160000D01*
X208233000Y-105162000D01*
X208222000Y-105164000D01*
X208210000Y-105165000D01*
X208198000Y-105165000D01*
X207798000Y-105165000D01*
X207798000Y-105465000D01*
X208198000Y-105465000D01*
X208225000Y-105464000D01*
X208253000Y-105462000D01*
X208280000Y-105459000D01*
X208307000Y-105454000D01*
X208334000Y-105447000D01*
X208360000Y-105439000D01*
X208386000Y-105430000D01*
X208412000Y-105420000D01*
X208436000Y-105408000D01*
X208461000Y-105395000D01*
X208484000Y-105380000D01*
X208507000Y-105365000D01*
X208528000Y-105348000D01*
X208549000Y-105330000D01*
X208569000Y-105311000D01*
X208588000Y-105291000D01*
X208606000Y-105270000D01*
X208623000Y-105249000D01*
X208638000Y-105226000D01*
X208653000Y-105202000D01*
X208666000Y-105178000D01*
X208678000Y-105154000D01*
X208688000Y-105128000D01*
X208697000Y-105102000D01*
X208705000Y-105076000D01*
X208712000Y-105049000D01*
X208717000Y-105022000D01*
X208720000Y-104995000D01*
X208722000Y-104967000D01*
X208723000Y-104940000D01*
X208722000Y-104913000D01*
X208720000Y-104885000D01*
X208717000Y-104858000D01*
X208712000Y-104831000D01*
X208705000Y-104804000D01*
X208697000Y-104778000D01*
X208688000Y-104752000D01*
X208678000Y-104726000D01*
X208666000Y-104702000D01*
X208653000Y-104678000D01*
X208638000Y-104654000D01*
X208623000Y-104631000D01*
X208606000Y-104610000D01*
X208588000Y-104589000D01*
X208569000Y-104569000D01*
X208549000Y-104550000D01*
X208528000Y-104532000D01*
X208507000Y-104515000D01*
X208484000Y-104500000D01*
X208460000Y-104485000D01*
X208436000Y-104472000D01*
X208412000Y-104460000D01*
X208386000Y-104450000D01*
X208360000Y-104441000D01*
X208334000Y-104433000D01*
X208307000Y-104426000D01*
X208280000Y-104421000D01*
X208253000Y-104418000D01*
X208225000Y-104416000D01*
X208198000Y-104415000D01*
X207798000Y-104415000D01*
X207798000Y-104715000D01*
G36*
X207798000Y-98015000D02*
G01*
X207398000Y-98015000D01*
X207386000Y-98015000D01*
X207374000Y-98014000D01*
X207363000Y-98012000D01*
X207351000Y-98010000D01*
X207340000Y-98007000D01*
X207328000Y-98004000D01*
X207317000Y-98000000D01*
X207306000Y-97996000D01*
X207296000Y-97990000D01*
X207286000Y-97985000D01*
X207275000Y-97979000D01*
X207266000Y-97972000D01*
X207256000Y-97965000D01*
X207247000Y-97957000D01*
X207239000Y-97949000D01*
X207231000Y-97941000D01*
X207223000Y-97932000D01*
X207216000Y-97922000D01*
X207209000Y-97913000D01*
X207203000Y-97902000D01*
X207198000Y-97892000D01*
X207192000Y-97882000D01*
X207188000Y-97871000D01*
X207184000Y-97860000D01*
X207181000Y-97848000D01*
X207178000Y-97837000D01*
X207176000Y-97825000D01*
X207174000Y-97814000D01*
X207173000Y-97802000D01*
X207173000Y-97790000D01*
X207173000Y-97778000D01*
X207174000Y-97766000D01*
X207176000Y-97755000D01*
X207178000Y-97743000D01*
X207181000Y-97732000D01*
X207184000Y-97720000D01*
X207188000Y-97709000D01*
X207192000Y-97698000D01*
X207198000Y-97688000D01*
X207203000Y-97677000D01*
X207209000Y-97667000D01*
X207216000Y-97658000D01*
X207223000Y-97648000D01*
X207231000Y-97639000D01*
X207239000Y-97631000D01*
X207247000Y-97623000D01*
X207256000Y-97615000D01*
X207266000Y-97608000D01*
X207275000Y-97601000D01*
X207285000Y-97595000D01*
X207296000Y-97590000D01*
X207306000Y-97584000D01*
X207317000Y-97580000D01*
X207328000Y-97576000D01*
X207340000Y-97573000D01*
X207351000Y-97570000D01*
X207363000Y-97568000D01*
X207374000Y-97566000D01*
X207386000Y-97565000D01*
X207398000Y-97565000D01*
X207798000Y-97565000D01*
X207798000Y-97265000D01*
X207398000Y-97265000D01*
X207371000Y-97266000D01*
X207343000Y-97268000D01*
X207316000Y-97271000D01*
X207289000Y-97276000D01*
X207262000Y-97283000D01*
X207236000Y-97291000D01*
X207210000Y-97300000D01*
X207184000Y-97310000D01*
X207160000Y-97322000D01*
X207135000Y-97335000D01*
X207112000Y-97350000D01*
X207089000Y-97365000D01*
X207068000Y-97382000D01*
X207047000Y-97400000D01*
X207027000Y-97419000D01*
X207008000Y-97439000D01*
X206990000Y-97460000D01*
X206973000Y-97481000D01*
X206958000Y-97504000D01*
X206943000Y-97528000D01*
X206930000Y-97552000D01*
X206918000Y-97576000D01*
X206908000Y-97602000D01*
X206899000Y-97628000D01*
X206891000Y-97654000D01*
X206884000Y-97681000D01*
X206879000Y-97708000D01*
X206876000Y-97735000D01*
X206874000Y-97763000D01*
X206873000Y-97790000D01*
X206874000Y-97817000D01*
X206876000Y-97845000D01*
X206879000Y-97872000D01*
X206884000Y-97899000D01*
X206891000Y-97926000D01*
X206899000Y-97952000D01*
X206908000Y-97978000D01*
X206918000Y-98004000D01*
X206930000Y-98028000D01*
X206943000Y-98052000D01*
X206958000Y-98076000D01*
X206973000Y-98099000D01*
X206990000Y-98120000D01*
X207008000Y-98141000D01*
X207027000Y-98161000D01*
X207047000Y-98180000D01*
X207068000Y-98198000D01*
X207089000Y-98215000D01*
X207112000Y-98230000D01*
X207136000Y-98245000D01*
X207160000Y-98258000D01*
X207184000Y-98270000D01*
X207210000Y-98280000D01*
X207236000Y-98289000D01*
X207262000Y-98297000D01*
X207289000Y-98304000D01*
X207316000Y-98309000D01*
X207343000Y-98312000D01*
X207371000Y-98314000D01*
X207398000Y-98315000D01*
X207798000Y-98315000D01*
X207798000Y-98015000D01*
G37*
X207798000Y-98015000D02*
X207398000Y-98015000D01*
X207386000Y-98015000D01*
X207374000Y-98014000D01*
X207363000Y-98012000D01*
X207351000Y-98010000D01*
X207340000Y-98007000D01*
X207328000Y-98004000D01*
X207317000Y-98000000D01*
X207306000Y-97996000D01*
X207296000Y-97990000D01*
X207286000Y-97985000D01*
X207275000Y-97979000D01*
X207266000Y-97972000D01*
X207256000Y-97965000D01*
X207247000Y-97957000D01*
X207239000Y-97949000D01*
X207231000Y-97941000D01*
X207223000Y-97932000D01*
X207216000Y-97922000D01*
X207209000Y-97913000D01*
X207203000Y-97902000D01*
X207198000Y-97892000D01*
X207192000Y-97882000D01*
X207188000Y-97871000D01*
X207184000Y-97860000D01*
X207181000Y-97848000D01*
X207178000Y-97837000D01*
X207176000Y-97825000D01*
X207174000Y-97814000D01*
X207173000Y-97802000D01*
X207173000Y-97790000D01*
X207173000Y-97778000D01*
X207174000Y-97766000D01*
X207176000Y-97755000D01*
X207178000Y-97743000D01*
X207181000Y-97732000D01*
X207184000Y-97720000D01*
X207188000Y-97709000D01*
X207192000Y-97698000D01*
X207198000Y-97688000D01*
X207203000Y-97677000D01*
X207209000Y-97667000D01*
X207216000Y-97658000D01*
X207223000Y-97648000D01*
X207231000Y-97639000D01*
X207239000Y-97631000D01*
X207247000Y-97623000D01*
X207256000Y-97615000D01*
X207266000Y-97608000D01*
X207275000Y-97601000D01*
X207285000Y-97595000D01*
X207296000Y-97590000D01*
X207306000Y-97584000D01*
X207317000Y-97580000D01*
X207328000Y-97576000D01*
X207340000Y-97573000D01*
X207351000Y-97570000D01*
X207363000Y-97568000D01*
X207374000Y-97566000D01*
X207386000Y-97565000D01*
X207398000Y-97565000D01*
X207798000Y-97565000D01*
X207798000Y-97265000D01*
X207398000Y-97265000D01*
X207371000Y-97266000D01*
X207343000Y-97268000D01*
X207316000Y-97271000D01*
X207289000Y-97276000D01*
X207262000Y-97283000D01*
X207236000Y-97291000D01*
X207210000Y-97300000D01*
X207184000Y-97310000D01*
X207160000Y-97322000D01*
X207135000Y-97335000D01*
X207112000Y-97350000D01*
X207089000Y-97365000D01*
X207068000Y-97382000D01*
X207047000Y-97400000D01*
X207027000Y-97419000D01*
X207008000Y-97439000D01*
X206990000Y-97460000D01*
X206973000Y-97481000D01*
X206958000Y-97504000D01*
X206943000Y-97528000D01*
X206930000Y-97552000D01*
X206918000Y-97576000D01*
X206908000Y-97602000D01*
X206899000Y-97628000D01*
X206891000Y-97654000D01*
X206884000Y-97681000D01*
X206879000Y-97708000D01*
X206876000Y-97735000D01*
X206874000Y-97763000D01*
X206873000Y-97790000D01*
X206874000Y-97817000D01*
X206876000Y-97845000D01*
X206879000Y-97872000D01*
X206884000Y-97899000D01*
X206891000Y-97926000D01*
X206899000Y-97952000D01*
X206908000Y-97978000D01*
X206918000Y-98004000D01*
X206930000Y-98028000D01*
X206943000Y-98052000D01*
X206958000Y-98076000D01*
X206973000Y-98099000D01*
X206990000Y-98120000D01*
X207008000Y-98141000D01*
X207027000Y-98161000D01*
X207047000Y-98180000D01*
X207068000Y-98198000D01*
X207089000Y-98215000D01*
X207112000Y-98230000D01*
X207136000Y-98245000D01*
X207160000Y-98258000D01*
X207184000Y-98270000D01*
X207210000Y-98280000D01*
X207236000Y-98289000D01*
X207262000Y-98297000D01*
X207289000Y-98304000D01*
X207316000Y-98309000D01*
X207343000Y-98312000D01*
X207371000Y-98314000D01*
X207398000Y-98315000D01*
X207798000Y-98315000D01*
X207798000Y-98015000D01*
G36*
X207798000Y-97565000D02*
G01*
X208198000Y-97565000D01*
X208210000Y-97565000D01*
X208222000Y-97566000D01*
X208233000Y-97568000D01*
X208245000Y-97570000D01*
X208256000Y-97573000D01*
X208268000Y-97576000D01*
X208279000Y-97580000D01*
X208290000Y-97584000D01*
X208300000Y-97590000D01*
X208311000Y-97595000D01*
X208321000Y-97601000D01*
X208330000Y-97608000D01*
X208340000Y-97615000D01*
X208349000Y-97623000D01*
X208357000Y-97631000D01*
X208365000Y-97639000D01*
X208373000Y-97648000D01*
X208380000Y-97658000D01*
X208387000Y-97667000D01*
X208393000Y-97677000D01*
X208398000Y-97688000D01*
X208404000Y-97698000D01*
X208408000Y-97709000D01*
X208412000Y-97720000D01*
X208415000Y-97732000D01*
X208418000Y-97743000D01*
X208420000Y-97755000D01*
X208422000Y-97766000D01*
X208423000Y-97778000D01*
X208423000Y-97790000D01*
X208423000Y-97802000D01*
X208422000Y-97814000D01*
X208420000Y-97825000D01*
X208418000Y-97837000D01*
X208415000Y-97848000D01*
X208412000Y-97860000D01*
X208408000Y-97871000D01*
X208404000Y-97882000D01*
X208398000Y-97892000D01*
X208393000Y-97902000D01*
X208387000Y-97913000D01*
X208380000Y-97922000D01*
X208373000Y-97932000D01*
X208365000Y-97941000D01*
X208357000Y-97949000D01*
X208349000Y-97957000D01*
X208340000Y-97965000D01*
X208330000Y-97972000D01*
X208321000Y-97979000D01*
X208310000Y-97985000D01*
X208300000Y-97990000D01*
X208290000Y-97996000D01*
X208279000Y-98000000D01*
X208268000Y-98004000D01*
X208256000Y-98007000D01*
X208245000Y-98010000D01*
X208233000Y-98012000D01*
X208222000Y-98014000D01*
X208210000Y-98015000D01*
X208198000Y-98015000D01*
X207798000Y-98015000D01*
X207798000Y-98315000D01*
X208198000Y-98315000D01*
X208225000Y-98314000D01*
X208253000Y-98312000D01*
X208280000Y-98309000D01*
X208307000Y-98304000D01*
X208334000Y-98297000D01*
X208360000Y-98289000D01*
X208386000Y-98280000D01*
X208412000Y-98270000D01*
X208436000Y-98258000D01*
X208460000Y-98245000D01*
X208484000Y-98230000D01*
X208507000Y-98215000D01*
X208528000Y-98198000D01*
X208549000Y-98180000D01*
X208569000Y-98161000D01*
X208588000Y-98141000D01*
X208606000Y-98120000D01*
X208623000Y-98099000D01*
X208638000Y-98076000D01*
X208653000Y-98052000D01*
X208666000Y-98028000D01*
X208678000Y-98004000D01*
X208688000Y-97978000D01*
X208697000Y-97952000D01*
X208705000Y-97926000D01*
X208712000Y-97899000D01*
X208717000Y-97872000D01*
X208720000Y-97845000D01*
X208722000Y-97817000D01*
X208723000Y-97790000D01*
X208722000Y-97763000D01*
X208720000Y-97735000D01*
X208717000Y-97708000D01*
X208712000Y-97681000D01*
X208705000Y-97654000D01*
X208697000Y-97628000D01*
X208688000Y-97602000D01*
X208678000Y-97576000D01*
X208666000Y-97552000D01*
X208653000Y-97528000D01*
X208638000Y-97504000D01*
X208623000Y-97481000D01*
X208606000Y-97460000D01*
X208588000Y-97439000D01*
X208569000Y-97419000D01*
X208549000Y-97400000D01*
X208528000Y-97382000D01*
X208507000Y-97365000D01*
X208484000Y-97350000D01*
X208461000Y-97335000D01*
X208436000Y-97322000D01*
X208412000Y-97310000D01*
X208386000Y-97300000D01*
X208360000Y-97291000D01*
X208334000Y-97283000D01*
X208307000Y-97276000D01*
X208280000Y-97271000D01*
X208253000Y-97268000D01*
X208225000Y-97266000D01*
X208198000Y-97265000D01*
X207798000Y-97265000D01*
X207798000Y-97565000D01*
G37*
X207798000Y-97565000D02*
X208198000Y-97565000D01*
X208210000Y-97565000D01*
X208222000Y-97566000D01*
X208233000Y-97568000D01*
X208245000Y-97570000D01*
X208256000Y-97573000D01*
X208268000Y-97576000D01*
X208279000Y-97580000D01*
X208290000Y-97584000D01*
X208300000Y-97590000D01*
X208311000Y-97595000D01*
X208321000Y-97601000D01*
X208330000Y-97608000D01*
X208340000Y-97615000D01*
X208349000Y-97623000D01*
X208357000Y-97631000D01*
X208365000Y-97639000D01*
X208373000Y-97648000D01*
X208380000Y-97658000D01*
X208387000Y-97667000D01*
X208393000Y-97677000D01*
X208398000Y-97688000D01*
X208404000Y-97698000D01*
X208408000Y-97709000D01*
X208412000Y-97720000D01*
X208415000Y-97732000D01*
X208418000Y-97743000D01*
X208420000Y-97755000D01*
X208422000Y-97766000D01*
X208423000Y-97778000D01*
X208423000Y-97790000D01*
X208423000Y-97802000D01*
X208422000Y-97814000D01*
X208420000Y-97825000D01*
X208418000Y-97837000D01*
X208415000Y-97848000D01*
X208412000Y-97860000D01*
X208408000Y-97871000D01*
X208404000Y-97882000D01*
X208398000Y-97892000D01*
X208393000Y-97902000D01*
X208387000Y-97913000D01*
X208380000Y-97922000D01*
X208373000Y-97932000D01*
X208365000Y-97941000D01*
X208357000Y-97949000D01*
X208349000Y-97957000D01*
X208340000Y-97965000D01*
X208330000Y-97972000D01*
X208321000Y-97979000D01*
X208310000Y-97985000D01*
X208300000Y-97990000D01*
X208290000Y-97996000D01*
X208279000Y-98000000D01*
X208268000Y-98004000D01*
X208256000Y-98007000D01*
X208245000Y-98010000D01*
X208233000Y-98012000D01*
X208222000Y-98014000D01*
X208210000Y-98015000D01*
X208198000Y-98015000D01*
X207798000Y-98015000D01*
X207798000Y-98315000D01*
X208198000Y-98315000D01*
X208225000Y-98314000D01*
X208253000Y-98312000D01*
X208280000Y-98309000D01*
X208307000Y-98304000D01*
X208334000Y-98297000D01*
X208360000Y-98289000D01*
X208386000Y-98280000D01*
X208412000Y-98270000D01*
X208436000Y-98258000D01*
X208460000Y-98245000D01*
X208484000Y-98230000D01*
X208507000Y-98215000D01*
X208528000Y-98198000D01*
X208549000Y-98180000D01*
X208569000Y-98161000D01*
X208588000Y-98141000D01*
X208606000Y-98120000D01*
X208623000Y-98099000D01*
X208638000Y-98076000D01*
X208653000Y-98052000D01*
X208666000Y-98028000D01*
X208678000Y-98004000D01*
X208688000Y-97978000D01*
X208697000Y-97952000D01*
X208705000Y-97926000D01*
X208712000Y-97899000D01*
X208717000Y-97872000D01*
X208720000Y-97845000D01*
X208722000Y-97817000D01*
X208723000Y-97790000D01*
X208722000Y-97763000D01*
X208720000Y-97735000D01*
X208717000Y-97708000D01*
X208712000Y-97681000D01*
X208705000Y-97654000D01*
X208697000Y-97628000D01*
X208688000Y-97602000D01*
X208678000Y-97576000D01*
X208666000Y-97552000D01*
X208653000Y-97528000D01*
X208638000Y-97504000D01*
X208623000Y-97481000D01*
X208606000Y-97460000D01*
X208588000Y-97439000D01*
X208569000Y-97419000D01*
X208549000Y-97400000D01*
X208528000Y-97382000D01*
X208507000Y-97365000D01*
X208484000Y-97350000D01*
X208461000Y-97335000D01*
X208436000Y-97322000D01*
X208412000Y-97310000D01*
X208386000Y-97300000D01*
X208360000Y-97291000D01*
X208334000Y-97283000D01*
X208307000Y-97276000D01*
X208280000Y-97271000D01*
X208253000Y-97268000D01*
X208225000Y-97266000D01*
X208198000Y-97265000D01*
X207798000Y-97265000D01*
X207798000Y-97565000D01*
G36*
X113398000Y-80915000D02*
G01*
X112998000Y-80915000D01*
X112986000Y-80915000D01*
X112974000Y-80914000D01*
X112963000Y-80912000D01*
X112951000Y-80910000D01*
X112940000Y-80907000D01*
X112928000Y-80904000D01*
X112917000Y-80900000D01*
X112906000Y-80896000D01*
X112896000Y-80890000D01*
X112885000Y-80885000D01*
X112875000Y-80879000D01*
X112866000Y-80872000D01*
X112856000Y-80865000D01*
X112847000Y-80857000D01*
X112839000Y-80849000D01*
X112831000Y-80841000D01*
X112823000Y-80832000D01*
X112816000Y-80822000D01*
X112809000Y-80813000D01*
X112803000Y-80803000D01*
X112798000Y-80792000D01*
X112792000Y-80782000D01*
X112788000Y-80771000D01*
X112784000Y-80760000D01*
X112781000Y-80748000D01*
X112778000Y-80737000D01*
X112776000Y-80725000D01*
X112774000Y-80714000D01*
X112773000Y-80702000D01*
X112773000Y-80690000D01*
X112773000Y-80678000D01*
X112774000Y-80666000D01*
X112776000Y-80655000D01*
X112778000Y-80643000D01*
X112781000Y-80632000D01*
X112784000Y-80620000D01*
X112788000Y-80609000D01*
X112792000Y-80598000D01*
X112798000Y-80588000D01*
X112803000Y-80578000D01*
X112809000Y-80567000D01*
X112816000Y-80558000D01*
X112823000Y-80548000D01*
X112831000Y-80539000D01*
X112839000Y-80531000D01*
X112847000Y-80523000D01*
X112856000Y-80515000D01*
X112866000Y-80508000D01*
X112875000Y-80501000D01*
X112886000Y-80495000D01*
X112896000Y-80490000D01*
X112906000Y-80484000D01*
X112917000Y-80480000D01*
X112928000Y-80476000D01*
X112940000Y-80473000D01*
X112951000Y-80470000D01*
X112963000Y-80468000D01*
X112974000Y-80466000D01*
X112986000Y-80465000D01*
X112998000Y-80465000D01*
X113398000Y-80465000D01*
X113398000Y-80165000D01*
X112998000Y-80165000D01*
X112971000Y-80166000D01*
X112943000Y-80168000D01*
X112916000Y-80171000D01*
X112889000Y-80176000D01*
X112862000Y-80183000D01*
X112836000Y-80191000D01*
X112810000Y-80200000D01*
X112784000Y-80210000D01*
X112760000Y-80222000D01*
X112736000Y-80235000D01*
X112712000Y-80250000D01*
X112689000Y-80265000D01*
X112668000Y-80282000D01*
X112647000Y-80300000D01*
X112627000Y-80319000D01*
X112608000Y-80339000D01*
X112590000Y-80360000D01*
X112573000Y-80381000D01*
X112558000Y-80404000D01*
X112543000Y-80428000D01*
X112530000Y-80452000D01*
X112518000Y-80476000D01*
X112508000Y-80502000D01*
X112499000Y-80528000D01*
X112491000Y-80554000D01*
X112484000Y-80581000D01*
X112479000Y-80608000D01*
X112476000Y-80635000D01*
X112474000Y-80663000D01*
X112473000Y-80690000D01*
X112474000Y-80717000D01*
X112476000Y-80745000D01*
X112479000Y-80772000D01*
X112484000Y-80799000D01*
X112491000Y-80826000D01*
X112499000Y-80852000D01*
X112508000Y-80878000D01*
X112518000Y-80904000D01*
X112530000Y-80928000D01*
X112543000Y-80952000D01*
X112558000Y-80976000D01*
X112573000Y-80999000D01*
X112590000Y-81020000D01*
X112608000Y-81041000D01*
X112627000Y-81061000D01*
X112647000Y-81080000D01*
X112668000Y-81098000D01*
X112689000Y-81115000D01*
X112712000Y-81130000D01*
X112735000Y-81145000D01*
X112760000Y-81158000D01*
X112784000Y-81170000D01*
X112810000Y-81180000D01*
X112836000Y-81189000D01*
X112862000Y-81197000D01*
X112889000Y-81204000D01*
X112916000Y-81209000D01*
X112943000Y-81212000D01*
X112971000Y-81214000D01*
X112998000Y-81215000D01*
X113398000Y-81215000D01*
X113398000Y-80915000D01*
G37*
X113398000Y-80915000D02*
X112998000Y-80915000D01*
X112986000Y-80915000D01*
X112974000Y-80914000D01*
X112963000Y-80912000D01*
X112951000Y-80910000D01*
X112940000Y-80907000D01*
X112928000Y-80904000D01*
X112917000Y-80900000D01*
X112906000Y-80896000D01*
X112896000Y-80890000D01*
X112885000Y-80885000D01*
X112875000Y-80879000D01*
X112866000Y-80872000D01*
X112856000Y-80865000D01*
X112847000Y-80857000D01*
X112839000Y-80849000D01*
X112831000Y-80841000D01*
X112823000Y-80832000D01*
X112816000Y-80822000D01*
X112809000Y-80813000D01*
X112803000Y-80803000D01*
X112798000Y-80792000D01*
X112792000Y-80782000D01*
X112788000Y-80771000D01*
X112784000Y-80760000D01*
X112781000Y-80748000D01*
X112778000Y-80737000D01*
X112776000Y-80725000D01*
X112774000Y-80714000D01*
X112773000Y-80702000D01*
X112773000Y-80690000D01*
X112773000Y-80678000D01*
X112774000Y-80666000D01*
X112776000Y-80655000D01*
X112778000Y-80643000D01*
X112781000Y-80632000D01*
X112784000Y-80620000D01*
X112788000Y-80609000D01*
X112792000Y-80598000D01*
X112798000Y-80588000D01*
X112803000Y-80578000D01*
X112809000Y-80567000D01*
X112816000Y-80558000D01*
X112823000Y-80548000D01*
X112831000Y-80539000D01*
X112839000Y-80531000D01*
X112847000Y-80523000D01*
X112856000Y-80515000D01*
X112866000Y-80508000D01*
X112875000Y-80501000D01*
X112886000Y-80495000D01*
X112896000Y-80490000D01*
X112906000Y-80484000D01*
X112917000Y-80480000D01*
X112928000Y-80476000D01*
X112940000Y-80473000D01*
X112951000Y-80470000D01*
X112963000Y-80468000D01*
X112974000Y-80466000D01*
X112986000Y-80465000D01*
X112998000Y-80465000D01*
X113398000Y-80465000D01*
X113398000Y-80165000D01*
X112998000Y-80165000D01*
X112971000Y-80166000D01*
X112943000Y-80168000D01*
X112916000Y-80171000D01*
X112889000Y-80176000D01*
X112862000Y-80183000D01*
X112836000Y-80191000D01*
X112810000Y-80200000D01*
X112784000Y-80210000D01*
X112760000Y-80222000D01*
X112736000Y-80235000D01*
X112712000Y-80250000D01*
X112689000Y-80265000D01*
X112668000Y-80282000D01*
X112647000Y-80300000D01*
X112627000Y-80319000D01*
X112608000Y-80339000D01*
X112590000Y-80360000D01*
X112573000Y-80381000D01*
X112558000Y-80404000D01*
X112543000Y-80428000D01*
X112530000Y-80452000D01*
X112518000Y-80476000D01*
X112508000Y-80502000D01*
X112499000Y-80528000D01*
X112491000Y-80554000D01*
X112484000Y-80581000D01*
X112479000Y-80608000D01*
X112476000Y-80635000D01*
X112474000Y-80663000D01*
X112473000Y-80690000D01*
X112474000Y-80717000D01*
X112476000Y-80745000D01*
X112479000Y-80772000D01*
X112484000Y-80799000D01*
X112491000Y-80826000D01*
X112499000Y-80852000D01*
X112508000Y-80878000D01*
X112518000Y-80904000D01*
X112530000Y-80928000D01*
X112543000Y-80952000D01*
X112558000Y-80976000D01*
X112573000Y-80999000D01*
X112590000Y-81020000D01*
X112608000Y-81041000D01*
X112627000Y-81061000D01*
X112647000Y-81080000D01*
X112668000Y-81098000D01*
X112689000Y-81115000D01*
X112712000Y-81130000D01*
X112735000Y-81145000D01*
X112760000Y-81158000D01*
X112784000Y-81170000D01*
X112810000Y-81180000D01*
X112836000Y-81189000D01*
X112862000Y-81197000D01*
X112889000Y-81204000D01*
X112916000Y-81209000D01*
X112943000Y-81212000D01*
X112971000Y-81214000D01*
X112998000Y-81215000D01*
X113398000Y-81215000D01*
X113398000Y-80915000D01*
G36*
X113398000Y-80465000D02*
G01*
X113798000Y-80465000D01*
X113810000Y-80465000D01*
X113822000Y-80466000D01*
X113833000Y-80468000D01*
X113845000Y-80470000D01*
X113856000Y-80473000D01*
X113868000Y-80476000D01*
X113879000Y-80480000D01*
X113890000Y-80484000D01*
X113900000Y-80490000D01*
X113910000Y-80495000D01*
X113921000Y-80501000D01*
X113930000Y-80508000D01*
X113940000Y-80515000D01*
X113949000Y-80523000D01*
X113957000Y-80531000D01*
X113965000Y-80539000D01*
X113973000Y-80548000D01*
X113980000Y-80558000D01*
X113987000Y-80567000D01*
X113993000Y-80578000D01*
X113998000Y-80588000D01*
X114004000Y-80598000D01*
X114008000Y-80609000D01*
X114012000Y-80620000D01*
X114015000Y-80632000D01*
X114018000Y-80643000D01*
X114020000Y-80655000D01*
X114022000Y-80666000D01*
X114023000Y-80678000D01*
X114023000Y-80690000D01*
X114023000Y-80702000D01*
X114022000Y-80714000D01*
X114020000Y-80725000D01*
X114018000Y-80737000D01*
X114015000Y-80748000D01*
X114012000Y-80760000D01*
X114008000Y-80771000D01*
X114004000Y-80782000D01*
X113998000Y-80792000D01*
X113993000Y-80803000D01*
X113987000Y-80813000D01*
X113980000Y-80822000D01*
X113973000Y-80832000D01*
X113965000Y-80841000D01*
X113957000Y-80849000D01*
X113949000Y-80857000D01*
X113940000Y-80865000D01*
X113930000Y-80872000D01*
X113921000Y-80879000D01*
X113911000Y-80885000D01*
X113900000Y-80890000D01*
X113890000Y-80896000D01*
X113879000Y-80900000D01*
X113868000Y-80904000D01*
X113856000Y-80907000D01*
X113845000Y-80910000D01*
X113833000Y-80912000D01*
X113822000Y-80914000D01*
X113810000Y-80915000D01*
X113798000Y-80915000D01*
X113398000Y-80915000D01*
X113398000Y-81215000D01*
X113798000Y-81215000D01*
X113825000Y-81214000D01*
X113853000Y-81212000D01*
X113880000Y-81209000D01*
X113907000Y-81204000D01*
X113934000Y-81197000D01*
X113960000Y-81189000D01*
X113986000Y-81180000D01*
X114012000Y-81170000D01*
X114036000Y-81158000D01*
X114061000Y-81145000D01*
X114084000Y-81130000D01*
X114107000Y-81115000D01*
X114128000Y-81098000D01*
X114149000Y-81080000D01*
X114169000Y-81061000D01*
X114188000Y-81041000D01*
X114206000Y-81020000D01*
X114223000Y-80999000D01*
X114238000Y-80976000D01*
X114253000Y-80952000D01*
X114266000Y-80928000D01*
X114278000Y-80904000D01*
X114288000Y-80878000D01*
X114297000Y-80852000D01*
X114305000Y-80826000D01*
X114312000Y-80799000D01*
X114317000Y-80772000D01*
X114320000Y-80745000D01*
X114322000Y-80717000D01*
X114323000Y-80690000D01*
X114322000Y-80663000D01*
X114320000Y-80635000D01*
X114317000Y-80608000D01*
X114312000Y-80581000D01*
X114305000Y-80554000D01*
X114297000Y-80528000D01*
X114288000Y-80502000D01*
X114278000Y-80476000D01*
X114266000Y-80452000D01*
X114253000Y-80428000D01*
X114238000Y-80404000D01*
X114223000Y-80381000D01*
X114206000Y-80360000D01*
X114188000Y-80339000D01*
X114169000Y-80319000D01*
X114149000Y-80300000D01*
X114128000Y-80282000D01*
X114107000Y-80265000D01*
X114084000Y-80250000D01*
X114060000Y-80235000D01*
X114036000Y-80222000D01*
X114012000Y-80210000D01*
X113986000Y-80200000D01*
X113960000Y-80191000D01*
X113934000Y-80183000D01*
X113907000Y-80176000D01*
X113880000Y-80171000D01*
X113853000Y-80168000D01*
X113825000Y-80166000D01*
X113798000Y-80165000D01*
X113398000Y-80165000D01*
X113398000Y-80465000D01*
G37*
X113398000Y-80465000D02*
X113798000Y-80465000D01*
X113810000Y-80465000D01*
X113822000Y-80466000D01*
X113833000Y-80468000D01*
X113845000Y-80470000D01*
X113856000Y-80473000D01*
X113868000Y-80476000D01*
X113879000Y-80480000D01*
X113890000Y-80484000D01*
X113900000Y-80490000D01*
X113910000Y-80495000D01*
X113921000Y-80501000D01*
X113930000Y-80508000D01*
X113940000Y-80515000D01*
X113949000Y-80523000D01*
X113957000Y-80531000D01*
X113965000Y-80539000D01*
X113973000Y-80548000D01*
X113980000Y-80558000D01*
X113987000Y-80567000D01*
X113993000Y-80578000D01*
X113998000Y-80588000D01*
X114004000Y-80598000D01*
X114008000Y-80609000D01*
X114012000Y-80620000D01*
X114015000Y-80632000D01*
X114018000Y-80643000D01*
X114020000Y-80655000D01*
X114022000Y-80666000D01*
X114023000Y-80678000D01*
X114023000Y-80690000D01*
X114023000Y-80702000D01*
X114022000Y-80714000D01*
X114020000Y-80725000D01*
X114018000Y-80737000D01*
X114015000Y-80748000D01*
X114012000Y-80760000D01*
X114008000Y-80771000D01*
X114004000Y-80782000D01*
X113998000Y-80792000D01*
X113993000Y-80803000D01*
X113987000Y-80813000D01*
X113980000Y-80822000D01*
X113973000Y-80832000D01*
X113965000Y-80841000D01*
X113957000Y-80849000D01*
X113949000Y-80857000D01*
X113940000Y-80865000D01*
X113930000Y-80872000D01*
X113921000Y-80879000D01*
X113911000Y-80885000D01*
X113900000Y-80890000D01*
X113890000Y-80896000D01*
X113879000Y-80900000D01*
X113868000Y-80904000D01*
X113856000Y-80907000D01*
X113845000Y-80910000D01*
X113833000Y-80912000D01*
X113822000Y-80914000D01*
X113810000Y-80915000D01*
X113798000Y-80915000D01*
X113398000Y-80915000D01*
X113398000Y-81215000D01*
X113798000Y-81215000D01*
X113825000Y-81214000D01*
X113853000Y-81212000D01*
X113880000Y-81209000D01*
X113907000Y-81204000D01*
X113934000Y-81197000D01*
X113960000Y-81189000D01*
X113986000Y-81180000D01*
X114012000Y-81170000D01*
X114036000Y-81158000D01*
X114061000Y-81145000D01*
X114084000Y-81130000D01*
X114107000Y-81115000D01*
X114128000Y-81098000D01*
X114149000Y-81080000D01*
X114169000Y-81061000D01*
X114188000Y-81041000D01*
X114206000Y-81020000D01*
X114223000Y-80999000D01*
X114238000Y-80976000D01*
X114253000Y-80952000D01*
X114266000Y-80928000D01*
X114278000Y-80904000D01*
X114288000Y-80878000D01*
X114297000Y-80852000D01*
X114305000Y-80826000D01*
X114312000Y-80799000D01*
X114317000Y-80772000D01*
X114320000Y-80745000D01*
X114322000Y-80717000D01*
X114323000Y-80690000D01*
X114322000Y-80663000D01*
X114320000Y-80635000D01*
X114317000Y-80608000D01*
X114312000Y-80581000D01*
X114305000Y-80554000D01*
X114297000Y-80528000D01*
X114288000Y-80502000D01*
X114278000Y-80476000D01*
X114266000Y-80452000D01*
X114253000Y-80428000D01*
X114238000Y-80404000D01*
X114223000Y-80381000D01*
X114206000Y-80360000D01*
X114188000Y-80339000D01*
X114169000Y-80319000D01*
X114149000Y-80300000D01*
X114128000Y-80282000D01*
X114107000Y-80265000D01*
X114084000Y-80250000D01*
X114060000Y-80235000D01*
X114036000Y-80222000D01*
X114012000Y-80210000D01*
X113986000Y-80200000D01*
X113960000Y-80191000D01*
X113934000Y-80183000D01*
X113907000Y-80176000D01*
X113880000Y-80171000D01*
X113853000Y-80168000D01*
X113825000Y-80166000D01*
X113798000Y-80165000D01*
X113398000Y-80165000D01*
X113398000Y-80465000D01*
G36*
X113398000Y-73765000D02*
G01*
X112998000Y-73765000D01*
X112986000Y-73765000D01*
X112974000Y-73764000D01*
X112963000Y-73762000D01*
X112951000Y-73760000D01*
X112940000Y-73757000D01*
X112928000Y-73754000D01*
X112917000Y-73750000D01*
X112906000Y-73746000D01*
X112896000Y-73740000D01*
X112886000Y-73735000D01*
X112875000Y-73729000D01*
X112866000Y-73722000D01*
X112856000Y-73715000D01*
X112847000Y-73707000D01*
X112839000Y-73699000D01*
X112831000Y-73691000D01*
X112823000Y-73682000D01*
X112816000Y-73672000D01*
X112809000Y-73663000D01*
X112803000Y-73652000D01*
X112798000Y-73642000D01*
X112792000Y-73632000D01*
X112788000Y-73621000D01*
X112784000Y-73610000D01*
X112781000Y-73598000D01*
X112778000Y-73587000D01*
X112776000Y-73575000D01*
X112774000Y-73564000D01*
X112773000Y-73552000D01*
X112773000Y-73540000D01*
X112773000Y-73528000D01*
X112774000Y-73516000D01*
X112776000Y-73505000D01*
X112778000Y-73493000D01*
X112781000Y-73482000D01*
X112784000Y-73470000D01*
X112788000Y-73459000D01*
X112792000Y-73448000D01*
X112798000Y-73438000D01*
X112803000Y-73427000D01*
X112809000Y-73417000D01*
X112816000Y-73408000D01*
X112823000Y-73398000D01*
X112831000Y-73389000D01*
X112839000Y-73381000D01*
X112847000Y-73373000D01*
X112856000Y-73365000D01*
X112866000Y-73358000D01*
X112875000Y-73351000D01*
X112885000Y-73345000D01*
X112896000Y-73340000D01*
X112906000Y-73334000D01*
X112917000Y-73330000D01*
X112928000Y-73326000D01*
X112940000Y-73323000D01*
X112951000Y-73320000D01*
X112963000Y-73318000D01*
X112974000Y-73316000D01*
X112986000Y-73315000D01*
X112998000Y-73315000D01*
X113398000Y-73315000D01*
X113398000Y-73015000D01*
X112998000Y-73015000D01*
X112971000Y-73016000D01*
X112943000Y-73018000D01*
X112916000Y-73021000D01*
X112889000Y-73026000D01*
X112862000Y-73033000D01*
X112836000Y-73041000D01*
X112810000Y-73050000D01*
X112784000Y-73060000D01*
X112760000Y-73072000D01*
X112735000Y-73085000D01*
X112712000Y-73100000D01*
X112689000Y-73115000D01*
X112668000Y-73132000D01*
X112647000Y-73150000D01*
X112627000Y-73169000D01*
X112608000Y-73189000D01*
X112590000Y-73210000D01*
X112573000Y-73231000D01*
X112558000Y-73254000D01*
X112543000Y-73278000D01*
X112530000Y-73302000D01*
X112518000Y-73326000D01*
X112508000Y-73352000D01*
X112499000Y-73378000D01*
X112491000Y-73404000D01*
X112484000Y-73431000D01*
X112479000Y-73458000D01*
X112476000Y-73485000D01*
X112474000Y-73513000D01*
X112473000Y-73540000D01*
X112474000Y-73567000D01*
X112476000Y-73595000D01*
X112479000Y-73622000D01*
X112484000Y-73649000D01*
X112491000Y-73676000D01*
X112499000Y-73702000D01*
X112508000Y-73728000D01*
X112518000Y-73754000D01*
X112530000Y-73778000D01*
X112543000Y-73802000D01*
X112558000Y-73826000D01*
X112573000Y-73849000D01*
X112590000Y-73870000D01*
X112608000Y-73891000D01*
X112627000Y-73911000D01*
X112647000Y-73930000D01*
X112668000Y-73948000D01*
X112689000Y-73965000D01*
X112712000Y-73980000D01*
X112736000Y-73995000D01*
X112760000Y-74008000D01*
X112784000Y-74020000D01*
X112810000Y-74030000D01*
X112836000Y-74039000D01*
X112862000Y-74047000D01*
X112889000Y-74054000D01*
X112916000Y-74059000D01*
X112943000Y-74062000D01*
X112971000Y-74064000D01*
X112998000Y-74065000D01*
X113398000Y-74065000D01*
X113398000Y-73765000D01*
G37*
X113398000Y-73765000D02*
X112998000Y-73765000D01*
X112986000Y-73765000D01*
X112974000Y-73764000D01*
X112963000Y-73762000D01*
X112951000Y-73760000D01*
X112940000Y-73757000D01*
X112928000Y-73754000D01*
X112917000Y-73750000D01*
X112906000Y-73746000D01*
X112896000Y-73740000D01*
X112886000Y-73735000D01*
X112875000Y-73729000D01*
X112866000Y-73722000D01*
X112856000Y-73715000D01*
X112847000Y-73707000D01*
X112839000Y-73699000D01*
X112831000Y-73691000D01*
X112823000Y-73682000D01*
X112816000Y-73672000D01*
X112809000Y-73663000D01*
X112803000Y-73652000D01*
X112798000Y-73642000D01*
X112792000Y-73632000D01*
X112788000Y-73621000D01*
X112784000Y-73610000D01*
X112781000Y-73598000D01*
X112778000Y-73587000D01*
X112776000Y-73575000D01*
X112774000Y-73564000D01*
X112773000Y-73552000D01*
X112773000Y-73540000D01*
X112773000Y-73528000D01*
X112774000Y-73516000D01*
X112776000Y-73505000D01*
X112778000Y-73493000D01*
X112781000Y-73482000D01*
X112784000Y-73470000D01*
X112788000Y-73459000D01*
X112792000Y-73448000D01*
X112798000Y-73438000D01*
X112803000Y-73427000D01*
X112809000Y-73417000D01*
X112816000Y-73408000D01*
X112823000Y-73398000D01*
X112831000Y-73389000D01*
X112839000Y-73381000D01*
X112847000Y-73373000D01*
X112856000Y-73365000D01*
X112866000Y-73358000D01*
X112875000Y-73351000D01*
X112885000Y-73345000D01*
X112896000Y-73340000D01*
X112906000Y-73334000D01*
X112917000Y-73330000D01*
X112928000Y-73326000D01*
X112940000Y-73323000D01*
X112951000Y-73320000D01*
X112963000Y-73318000D01*
X112974000Y-73316000D01*
X112986000Y-73315000D01*
X112998000Y-73315000D01*
X113398000Y-73315000D01*
X113398000Y-73015000D01*
X112998000Y-73015000D01*
X112971000Y-73016000D01*
X112943000Y-73018000D01*
X112916000Y-73021000D01*
X112889000Y-73026000D01*
X112862000Y-73033000D01*
X112836000Y-73041000D01*
X112810000Y-73050000D01*
X112784000Y-73060000D01*
X112760000Y-73072000D01*
X112735000Y-73085000D01*
X112712000Y-73100000D01*
X112689000Y-73115000D01*
X112668000Y-73132000D01*
X112647000Y-73150000D01*
X112627000Y-73169000D01*
X112608000Y-73189000D01*
X112590000Y-73210000D01*
X112573000Y-73231000D01*
X112558000Y-73254000D01*
X112543000Y-73278000D01*
X112530000Y-73302000D01*
X112518000Y-73326000D01*
X112508000Y-73352000D01*
X112499000Y-73378000D01*
X112491000Y-73404000D01*
X112484000Y-73431000D01*
X112479000Y-73458000D01*
X112476000Y-73485000D01*
X112474000Y-73513000D01*
X112473000Y-73540000D01*
X112474000Y-73567000D01*
X112476000Y-73595000D01*
X112479000Y-73622000D01*
X112484000Y-73649000D01*
X112491000Y-73676000D01*
X112499000Y-73702000D01*
X112508000Y-73728000D01*
X112518000Y-73754000D01*
X112530000Y-73778000D01*
X112543000Y-73802000D01*
X112558000Y-73826000D01*
X112573000Y-73849000D01*
X112590000Y-73870000D01*
X112608000Y-73891000D01*
X112627000Y-73911000D01*
X112647000Y-73930000D01*
X112668000Y-73948000D01*
X112689000Y-73965000D01*
X112712000Y-73980000D01*
X112736000Y-73995000D01*
X112760000Y-74008000D01*
X112784000Y-74020000D01*
X112810000Y-74030000D01*
X112836000Y-74039000D01*
X112862000Y-74047000D01*
X112889000Y-74054000D01*
X112916000Y-74059000D01*
X112943000Y-74062000D01*
X112971000Y-74064000D01*
X112998000Y-74065000D01*
X113398000Y-74065000D01*
X113398000Y-73765000D01*
G36*
X113398000Y-73315000D02*
G01*
X113798000Y-73315000D01*
X113810000Y-73315000D01*
X113822000Y-73316000D01*
X113833000Y-73318000D01*
X113845000Y-73320000D01*
X113856000Y-73323000D01*
X113868000Y-73326000D01*
X113879000Y-73330000D01*
X113890000Y-73334000D01*
X113900000Y-73340000D01*
X113911000Y-73345000D01*
X113921000Y-73351000D01*
X113930000Y-73358000D01*
X113940000Y-73365000D01*
X113949000Y-73373000D01*
X113957000Y-73381000D01*
X113965000Y-73389000D01*
X113973000Y-73398000D01*
X113980000Y-73408000D01*
X113987000Y-73417000D01*
X113993000Y-73427000D01*
X113998000Y-73438000D01*
X114004000Y-73448000D01*
X114008000Y-73459000D01*
X114012000Y-73470000D01*
X114015000Y-73482000D01*
X114018000Y-73493000D01*
X114020000Y-73505000D01*
X114022000Y-73516000D01*
X114023000Y-73528000D01*
X114023000Y-73540000D01*
X114023000Y-73552000D01*
X114022000Y-73564000D01*
X114020000Y-73575000D01*
X114018000Y-73587000D01*
X114015000Y-73598000D01*
X114012000Y-73610000D01*
X114008000Y-73621000D01*
X114004000Y-73632000D01*
X113998000Y-73642000D01*
X113993000Y-73652000D01*
X113987000Y-73663000D01*
X113980000Y-73672000D01*
X113973000Y-73682000D01*
X113965000Y-73691000D01*
X113957000Y-73699000D01*
X113949000Y-73707000D01*
X113940000Y-73715000D01*
X113930000Y-73722000D01*
X113921000Y-73729000D01*
X113910000Y-73735000D01*
X113900000Y-73740000D01*
X113890000Y-73746000D01*
X113879000Y-73750000D01*
X113868000Y-73754000D01*
X113856000Y-73757000D01*
X113845000Y-73760000D01*
X113833000Y-73762000D01*
X113822000Y-73764000D01*
X113810000Y-73765000D01*
X113798000Y-73765000D01*
X113398000Y-73765000D01*
X113398000Y-74065000D01*
X113798000Y-74065000D01*
X113825000Y-74064000D01*
X113853000Y-74062000D01*
X113880000Y-74059000D01*
X113907000Y-74054000D01*
X113934000Y-74047000D01*
X113960000Y-74039000D01*
X113986000Y-74030000D01*
X114012000Y-74020000D01*
X114036000Y-74008000D01*
X114060000Y-73995000D01*
X114084000Y-73980000D01*
X114107000Y-73965000D01*
X114128000Y-73948000D01*
X114149000Y-73930000D01*
X114169000Y-73911000D01*
X114188000Y-73891000D01*
X114206000Y-73870000D01*
X114223000Y-73849000D01*
X114238000Y-73826000D01*
X114253000Y-73802000D01*
X114266000Y-73778000D01*
X114278000Y-73754000D01*
X114288000Y-73728000D01*
X114297000Y-73702000D01*
X114305000Y-73676000D01*
X114312000Y-73649000D01*
X114317000Y-73622000D01*
X114320000Y-73595000D01*
X114322000Y-73567000D01*
X114323000Y-73540000D01*
X114322000Y-73513000D01*
X114320000Y-73485000D01*
X114317000Y-73458000D01*
X114312000Y-73431000D01*
X114305000Y-73404000D01*
X114297000Y-73378000D01*
X114288000Y-73352000D01*
X114278000Y-73326000D01*
X114266000Y-73302000D01*
X114253000Y-73278000D01*
X114238000Y-73254000D01*
X114223000Y-73231000D01*
X114206000Y-73210000D01*
X114188000Y-73189000D01*
X114169000Y-73169000D01*
X114149000Y-73150000D01*
X114128000Y-73132000D01*
X114107000Y-73115000D01*
X114084000Y-73100000D01*
X114061000Y-73085000D01*
X114036000Y-73072000D01*
X114012000Y-73060000D01*
X113986000Y-73050000D01*
X113960000Y-73041000D01*
X113934000Y-73033000D01*
X113907000Y-73026000D01*
X113880000Y-73021000D01*
X113853000Y-73018000D01*
X113825000Y-73016000D01*
X113798000Y-73015000D01*
X113398000Y-73015000D01*
X113398000Y-73315000D01*
G37*
X113398000Y-73315000D02*
X113798000Y-73315000D01*
X113810000Y-73315000D01*
X113822000Y-73316000D01*
X113833000Y-73318000D01*
X113845000Y-73320000D01*
X113856000Y-73323000D01*
X113868000Y-73326000D01*
X113879000Y-73330000D01*
X113890000Y-73334000D01*
X113900000Y-73340000D01*
X113911000Y-73345000D01*
X113921000Y-73351000D01*
X113930000Y-73358000D01*
X113940000Y-73365000D01*
X113949000Y-73373000D01*
X113957000Y-73381000D01*
X113965000Y-73389000D01*
X113973000Y-73398000D01*
X113980000Y-73408000D01*
X113987000Y-73417000D01*
X113993000Y-73427000D01*
X113998000Y-73438000D01*
X114004000Y-73448000D01*
X114008000Y-73459000D01*
X114012000Y-73470000D01*
X114015000Y-73482000D01*
X114018000Y-73493000D01*
X114020000Y-73505000D01*
X114022000Y-73516000D01*
X114023000Y-73528000D01*
X114023000Y-73540000D01*
X114023000Y-73552000D01*
X114022000Y-73564000D01*
X114020000Y-73575000D01*
X114018000Y-73587000D01*
X114015000Y-73598000D01*
X114012000Y-73610000D01*
X114008000Y-73621000D01*
X114004000Y-73632000D01*
X113998000Y-73642000D01*
X113993000Y-73652000D01*
X113987000Y-73663000D01*
X113980000Y-73672000D01*
X113973000Y-73682000D01*
X113965000Y-73691000D01*
X113957000Y-73699000D01*
X113949000Y-73707000D01*
X113940000Y-73715000D01*
X113930000Y-73722000D01*
X113921000Y-73729000D01*
X113910000Y-73735000D01*
X113900000Y-73740000D01*
X113890000Y-73746000D01*
X113879000Y-73750000D01*
X113868000Y-73754000D01*
X113856000Y-73757000D01*
X113845000Y-73760000D01*
X113833000Y-73762000D01*
X113822000Y-73764000D01*
X113810000Y-73765000D01*
X113798000Y-73765000D01*
X113398000Y-73765000D01*
X113398000Y-74065000D01*
X113798000Y-74065000D01*
X113825000Y-74064000D01*
X113853000Y-74062000D01*
X113880000Y-74059000D01*
X113907000Y-74054000D01*
X113934000Y-74047000D01*
X113960000Y-74039000D01*
X113986000Y-74030000D01*
X114012000Y-74020000D01*
X114036000Y-74008000D01*
X114060000Y-73995000D01*
X114084000Y-73980000D01*
X114107000Y-73965000D01*
X114128000Y-73948000D01*
X114149000Y-73930000D01*
X114169000Y-73911000D01*
X114188000Y-73891000D01*
X114206000Y-73870000D01*
X114223000Y-73849000D01*
X114238000Y-73826000D01*
X114253000Y-73802000D01*
X114266000Y-73778000D01*
X114278000Y-73754000D01*
X114288000Y-73728000D01*
X114297000Y-73702000D01*
X114305000Y-73676000D01*
X114312000Y-73649000D01*
X114317000Y-73622000D01*
X114320000Y-73595000D01*
X114322000Y-73567000D01*
X114323000Y-73540000D01*
X114322000Y-73513000D01*
X114320000Y-73485000D01*
X114317000Y-73458000D01*
X114312000Y-73431000D01*
X114305000Y-73404000D01*
X114297000Y-73378000D01*
X114288000Y-73352000D01*
X114278000Y-73326000D01*
X114266000Y-73302000D01*
X114253000Y-73278000D01*
X114238000Y-73254000D01*
X114223000Y-73231000D01*
X114206000Y-73210000D01*
X114188000Y-73189000D01*
X114169000Y-73169000D01*
X114149000Y-73150000D01*
X114128000Y-73132000D01*
X114107000Y-73115000D01*
X114084000Y-73100000D01*
X114061000Y-73085000D01*
X114036000Y-73072000D01*
X114012000Y-73060000D01*
X113986000Y-73050000D01*
X113960000Y-73041000D01*
X113934000Y-73033000D01*
X113907000Y-73026000D01*
X113880000Y-73021000D01*
X113853000Y-73018000D01*
X113825000Y-73016000D01*
X113798000Y-73015000D01*
X113398000Y-73015000D01*
X113398000Y-73315000D01*
G36*
G01*
X128148000Y-109240000D02*
X128148000Y-108290000D01*
G75*
G02*
X128398000Y-108040000I250000J0D01*
G01*
X129073000Y-108040000D01*
G75*
G02*
X129323000Y-108290000I0J-250000D01*
G01*
X129323000Y-109240000D01*
G75*
G02*
X129073000Y-109490000I-250000J0D01*
G01*
X128398000Y-109490000D01*
G75*
G02*
X128148000Y-109240000I0J250000D01*
G01*
G37*
G36*
G01*
X126073000Y-109240000D02*
X126073000Y-108290000D01*
G75*
G02*
X126323000Y-108040000I250000J0D01*
G01*
X126998000Y-108040000D01*
G75*
G02*
X127248000Y-108290000I0J-250000D01*
G01*
X127248000Y-109240000D01*
G75*
G02*
X126998000Y-109490000I-250000J0D01*
G01*
X126323000Y-109490000D01*
G75*
G02*
X126073000Y-109240000I0J250000D01*
G01*
G37*
G36*
G01*
X126073000Y-113115000D02*
X126073000Y-112165000D01*
G75*
G02*
X126323000Y-111915000I250000J0D01*
G01*
X126998000Y-111915000D01*
G75*
G02*
X127248000Y-112165000I0J-250000D01*
G01*
X127248000Y-113115000D01*
G75*
G02*
X126998000Y-113365000I-250000J0D01*
G01*
X126323000Y-113365000D01*
G75*
G02*
X126073000Y-113115000I0J250000D01*
G01*
G37*
G36*
G01*
X128148000Y-113115000D02*
X128148000Y-112165000D01*
G75*
G02*
X128398000Y-111915000I250000J0D01*
G01*
X129073000Y-111915000D01*
G75*
G02*
X129323000Y-112165000I0J-250000D01*
G01*
X129323000Y-113115000D01*
G75*
G02*
X129073000Y-113365000I-250000J0D01*
G01*
X128398000Y-113365000D01*
G75*
G02*
X128148000Y-113115000I0J250000D01*
G01*
G37*
G36*
G01*
X126073000Y-105365000D02*
X126073000Y-104415000D01*
G75*
G02*
X126323000Y-104165000I250000J0D01*
G01*
X126998000Y-104165000D01*
G75*
G02*
X127248000Y-104415000I0J-250000D01*
G01*
X127248000Y-105365000D01*
G75*
G02*
X126998000Y-105615000I-250000J0D01*
G01*
X126323000Y-105615000D01*
G75*
G02*
X126073000Y-105365000I0J250000D01*
G01*
G37*
G36*
G01*
X128148000Y-105365000D02*
X128148000Y-104415000D01*
G75*
G02*
X128398000Y-104165000I250000J0D01*
G01*
X129073000Y-104165000D01*
G75*
G02*
X129323000Y-104415000I0J-250000D01*
G01*
X129323000Y-105365000D01*
G75*
G02*
X129073000Y-105615000I-250000J0D01*
G01*
X128398000Y-105615000D01*
G75*
G02*
X128148000Y-105365000I0J250000D01*
G01*
G37*
G36*
G01*
X126528000Y-116502500D02*
X126528000Y-116027500D01*
G75*
G02*
X126765500Y-115790000I237500J0D01*
G01*
X127365500Y-115790000D01*
G75*
G02*
X127603000Y-116027500I0J-237500D01*
G01*
X127603000Y-116502500D01*
G75*
G02*
X127365500Y-116740000I-237500J0D01*
G01*
X126765500Y-116740000D01*
G75*
G02*
X126528000Y-116502500I0J237500D01*
G01*
G37*
G36*
G01*
X128253000Y-116502500D02*
X128253000Y-116027500D01*
G75*
G02*
X128490500Y-115790000I237500J0D01*
G01*
X129090500Y-115790000D01*
G75*
G02*
X129328000Y-116027500I0J-237500D01*
G01*
X129328000Y-116502500D01*
G75*
G02*
X129090500Y-116740000I-237500J0D01*
G01*
X128490500Y-116740000D01*
G75*
G02*
X128253000Y-116502500I0J237500D01*
G01*
G37*
G36*
G01*
X127923000Y-101602500D02*
X127923000Y-101127500D01*
G75*
G02*
X128160500Y-100890000I237500J0D01*
G01*
X128760500Y-100890000D01*
G75*
G02*
X128998000Y-101127500I0J-237500D01*
G01*
X128998000Y-101602500D01*
G75*
G02*
X128760500Y-101840000I-237500J0D01*
G01*
X128160500Y-101840000D01*
G75*
G02*
X127923000Y-101602500I0J237500D01*
G01*
G37*
G36*
G01*
X126198000Y-101602500D02*
X126198000Y-101127500D01*
G75*
G02*
X126435500Y-100890000I237500J0D01*
G01*
X127035500Y-100890000D01*
G75*
G02*
X127273000Y-101127500I0J-237500D01*
G01*
X127273000Y-101602500D01*
G75*
G02*
X127035500Y-101840000I-237500J0D01*
G01*
X126435500Y-101840000D01*
G75*
G02*
X126198000Y-101602500I0J237500D01*
G01*
G37*
G36*
G01*
X195810500Y-72215000D02*
X196285500Y-72215000D01*
G75*
G02*
X196523000Y-72452500I0J-237500D01*
G01*
X196523000Y-73052500D01*
G75*
G02*
X196285500Y-73290000I-237500J0D01*
G01*
X195810500Y-73290000D01*
G75*
G02*
X195573000Y-73052500I0J237500D01*
G01*
X195573000Y-72452500D01*
G75*
G02*
X195810500Y-72215000I237500J0D01*
G01*
G37*
G36*
G01*
X195810500Y-73940000D02*
X196285500Y-73940000D01*
G75*
G02*
X196523000Y-74177500I0J-237500D01*
G01*
X196523000Y-74777500D01*
G75*
G02*
X196285500Y-75015000I-237500J0D01*
G01*
X195810500Y-75015000D01*
G75*
G02*
X195573000Y-74777500I0J237500D01*
G01*
X195573000Y-74177500D01*
G75*
G02*
X195810500Y-73940000I237500J0D01*
G01*
G37*
G36*
G01*
X192560500Y-72165000D02*
X193035500Y-72165000D01*
G75*
G02*
X193273000Y-72402500I0J-237500D01*
G01*
X193273000Y-73002500D01*
G75*
G02*
X193035500Y-73240000I-237500J0D01*
G01*
X192560500Y-73240000D01*
G75*
G02*
X192323000Y-73002500I0J237500D01*
G01*
X192323000Y-72402500D01*
G75*
G02*
X192560500Y-72165000I237500J0D01*
G01*
G37*
G36*
G01*
X192560500Y-73890000D02*
X193035500Y-73890000D01*
G75*
G02*
X193273000Y-74127500I0J-237500D01*
G01*
X193273000Y-74727500D01*
G75*
G02*
X193035500Y-74965000I-237500J0D01*
G01*
X192560500Y-74965000D01*
G75*
G02*
X192323000Y-74727500I0J237500D01*
G01*
X192323000Y-74127500D01*
G75*
G02*
X192560500Y-73890000I237500J0D01*
G01*
G37*
G36*
G01*
X183635500Y-81840000D02*
X183160500Y-81840000D01*
G75*
G02*
X182923000Y-81602500I0J237500D01*
G01*
X182923000Y-81002500D01*
G75*
G02*
X183160500Y-80765000I237500J0D01*
G01*
X183635500Y-80765000D01*
G75*
G02*
X183873000Y-81002500I0J-237500D01*
G01*
X183873000Y-81602500D01*
G75*
G02*
X183635500Y-81840000I-237500J0D01*
G01*
G37*
G36*
G01*
X183635500Y-83565000D02*
X183160500Y-83565000D01*
G75*
G02*
X182923000Y-83327500I0J237500D01*
G01*
X182923000Y-82727500D01*
G75*
G02*
X183160500Y-82490000I237500J0D01*
G01*
X183635500Y-82490000D01*
G75*
G02*
X183873000Y-82727500I0J-237500D01*
G01*
X183873000Y-83327500D01*
G75*
G02*
X183635500Y-83565000I-237500J0D01*
G01*
G37*
G36*
G01*
X192323000Y-91602500D02*
X192323000Y-91127500D01*
G75*
G02*
X192560500Y-90890000I237500J0D01*
G01*
X193160500Y-90890000D01*
G75*
G02*
X193398000Y-91127500I0J-237500D01*
G01*
X193398000Y-91602500D01*
G75*
G02*
X193160500Y-91840000I-237500J0D01*
G01*
X192560500Y-91840000D01*
G75*
G02*
X192323000Y-91602500I0J237500D01*
G01*
G37*
G36*
G01*
X190598000Y-91602500D02*
X190598000Y-91127500D01*
G75*
G02*
X190835500Y-90890000I237500J0D01*
G01*
X191435500Y-90890000D01*
G75*
G02*
X191673000Y-91127500I0J-237500D01*
G01*
X191673000Y-91602500D01*
G75*
G02*
X191435500Y-91840000I-237500J0D01*
G01*
X190835500Y-91840000D01*
G75*
G02*
X190598000Y-91602500I0J237500D01*
G01*
G37*
G36*
G01*
X190598000Y-90002500D02*
X190598000Y-89527500D01*
G75*
G02*
X190835500Y-89290000I237500J0D01*
G01*
X191435500Y-89290000D01*
G75*
G02*
X191673000Y-89527500I0J-237500D01*
G01*
X191673000Y-90002500D01*
G75*
G02*
X191435500Y-90240000I-237500J0D01*
G01*
X190835500Y-90240000D01*
G75*
G02*
X190598000Y-90002500I0J237500D01*
G01*
G37*
G36*
G01*
X192323000Y-90002500D02*
X192323000Y-89527500D01*
G75*
G02*
X192560500Y-89290000I237500J0D01*
G01*
X193160500Y-89290000D01*
G75*
G02*
X193398000Y-89527500I0J-237500D01*
G01*
X193398000Y-90002500D01*
G75*
G02*
X193160500Y-90240000I-237500J0D01*
G01*
X192560500Y-90240000D01*
G75*
G02*
X192323000Y-90002500I0J237500D01*
G01*
G37*
G36*
G01*
X195598000Y-107602500D02*
X195598000Y-107127500D01*
G75*
G02*
X195835500Y-106890000I237500J0D01*
G01*
X196435500Y-106890000D01*
G75*
G02*
X196673000Y-107127500I0J-237500D01*
G01*
X196673000Y-107602500D01*
G75*
G02*
X196435500Y-107840000I-237500J0D01*
G01*
X195835500Y-107840000D01*
G75*
G02*
X195598000Y-107602500I0J237500D01*
G01*
G37*
G36*
G01*
X197323000Y-107602500D02*
X197323000Y-107127500D01*
G75*
G02*
X197560500Y-106890000I237500J0D01*
G01*
X198160500Y-106890000D01*
G75*
G02*
X198398000Y-107127500I0J-237500D01*
G01*
X198398000Y-107602500D01*
G75*
G02*
X198160500Y-107840000I-237500J0D01*
G01*
X197560500Y-107840000D01*
G75*
G02*
X197323000Y-107602500I0J237500D01*
G01*
G37*
G36*
G01*
X206598000Y-94727500D02*
X206598000Y-95202500D01*
G75*
G02*
X206360500Y-95440000I-237500J0D01*
G01*
X205760500Y-95440000D01*
G75*
G02*
X205523000Y-95202500I0J237500D01*
G01*
X205523000Y-94727500D01*
G75*
G02*
X205760500Y-94490000I237500J0D01*
G01*
X206360500Y-94490000D01*
G75*
G02*
X206598000Y-94727500I0J-237500D01*
G01*
G37*
G36*
G01*
X204873000Y-94727500D02*
X204873000Y-95202500D01*
G75*
G02*
X204635500Y-95440000I-237500J0D01*
G01*
X204035500Y-95440000D01*
G75*
G02*
X203798000Y-95202500I0J237500D01*
G01*
X203798000Y-94727500D01*
G75*
G02*
X204035500Y-94490000I237500J0D01*
G01*
X204635500Y-94490000D01*
G75*
G02*
X204873000Y-94727500I0J-237500D01*
G01*
G37*
G36*
G01*
X126073000Y-94240000D02*
X126073000Y-93290000D01*
G75*
G02*
X126323000Y-93040000I250000J0D01*
G01*
X126998000Y-93040000D01*
G75*
G02*
X127248000Y-93290000I0J-250000D01*
G01*
X127248000Y-94240000D01*
G75*
G02*
X126998000Y-94490000I-250000J0D01*
G01*
X126323000Y-94490000D01*
G75*
G02*
X126073000Y-94240000I0J250000D01*
G01*
G37*
G36*
G01*
X128148000Y-94240000D02*
X128148000Y-93290000D01*
G75*
G02*
X128398000Y-93040000I250000J0D01*
G01*
X129073000Y-93040000D01*
G75*
G02*
X129323000Y-93290000I0J-250000D01*
G01*
X129323000Y-94240000D01*
G75*
G02*
X129073000Y-94490000I-250000J0D01*
G01*
X128398000Y-94490000D01*
G75*
G02*
X128148000Y-94240000I0J250000D01*
G01*
G37*
G36*
G01*
X126298000Y-91002500D02*
X126298000Y-90527500D01*
G75*
G02*
X126535500Y-90290000I237500J0D01*
G01*
X127135500Y-90290000D01*
G75*
G02*
X127373000Y-90527500I0J-237500D01*
G01*
X127373000Y-91002500D01*
G75*
G02*
X127135500Y-91240000I-237500J0D01*
G01*
X126535500Y-91240000D01*
G75*
G02*
X126298000Y-91002500I0J237500D01*
G01*
G37*
G36*
G01*
X128023000Y-91002500D02*
X128023000Y-90527500D01*
G75*
G02*
X128260500Y-90290000I237500J0D01*
G01*
X128860500Y-90290000D01*
G75*
G02*
X129098000Y-90527500I0J-237500D01*
G01*
X129098000Y-91002500D01*
G75*
G02*
X128860500Y-91240000I-237500J0D01*
G01*
X128260500Y-91240000D01*
G75*
G02*
X128023000Y-91002500I0J237500D01*
G01*
G37*
G36*
G01*
X121473000Y-78127500D02*
X121473000Y-78602500D01*
G75*
G02*
X121235500Y-78840000I-237500J0D01*
G01*
X120635500Y-78840000D01*
G75*
G02*
X120398000Y-78602500I0J237500D01*
G01*
X120398000Y-78127500D01*
G75*
G02*
X120635500Y-77890000I237500J0D01*
G01*
X121235500Y-77890000D01*
G75*
G02*
X121473000Y-78127500I0J-237500D01*
G01*
G37*
G36*
G01*
X123198000Y-78127500D02*
X123198000Y-78602500D01*
G75*
G02*
X122960500Y-78840000I-237500J0D01*
G01*
X122360500Y-78840000D01*
G75*
G02*
X122123000Y-78602500I0J237500D01*
G01*
X122123000Y-78127500D01*
G75*
G02*
X122360500Y-77890000I237500J0D01*
G01*
X122960500Y-77890000D01*
G75*
G02*
X123198000Y-78127500I0J-237500D01*
G01*
G37*
G36*
G01*
X128798000Y-82927500D02*
X128798000Y-83402500D01*
G75*
G02*
X128560500Y-83640000I-237500J0D01*
G01*
X127960500Y-83640000D01*
G75*
G02*
X127723000Y-83402500I0J237500D01*
G01*
X127723000Y-82927500D01*
G75*
G02*
X127960500Y-82690000I237500J0D01*
G01*
X128560500Y-82690000D01*
G75*
G02*
X128798000Y-82927500I0J-237500D01*
G01*
G37*
G36*
G01*
X127073000Y-82927500D02*
X127073000Y-83402500D01*
G75*
G02*
X126835500Y-83640000I-237500J0D01*
G01*
X126235500Y-83640000D01*
G75*
G02*
X125998000Y-83402500I0J237500D01*
G01*
X125998000Y-82927500D01*
G75*
G02*
X126235500Y-82690000I237500J0D01*
G01*
X126835500Y-82690000D01*
G75*
G02*
X127073000Y-82927500I0J-237500D01*
G01*
G37*
G36*
G01*
X127073000Y-81127500D02*
X127073000Y-81602500D01*
G75*
G02*
X126835500Y-81840000I-237500J0D01*
G01*
X126235500Y-81840000D01*
G75*
G02*
X125998000Y-81602500I0J237500D01*
G01*
X125998000Y-81127500D01*
G75*
G02*
X126235500Y-80890000I237500J0D01*
G01*
X126835500Y-80890000D01*
G75*
G02*
X127073000Y-81127500I0J-237500D01*
G01*
G37*
G36*
G01*
X128798000Y-81127500D02*
X128798000Y-81602500D01*
G75*
G02*
X128560500Y-81840000I-237500J0D01*
G01*
X127960500Y-81840000D01*
G75*
G02*
X127723000Y-81602500I0J237500D01*
G01*
X127723000Y-81127500D01*
G75*
G02*
X127960500Y-80890000I237500J0D01*
G01*
X128560500Y-80890000D01*
G75*
G02*
X128798000Y-81127500I0J-237500D01*
G01*
G37*
G36*
G01*
X121473000Y-80127500D02*
X121473000Y-80602500D01*
G75*
G02*
X121235500Y-80840000I-237500J0D01*
G01*
X120635500Y-80840000D01*
G75*
G02*
X120398000Y-80602500I0J237500D01*
G01*
X120398000Y-80127500D01*
G75*
G02*
X120635500Y-79890000I237500J0D01*
G01*
X121235500Y-79890000D01*
G75*
G02*
X121473000Y-80127500I0J-237500D01*
G01*
G37*
G36*
G01*
X123198000Y-80127500D02*
X123198000Y-80602500D01*
G75*
G02*
X122960500Y-80840000I-237500J0D01*
G01*
X122360500Y-80840000D01*
G75*
G02*
X122123000Y-80602500I0J237500D01*
G01*
X122123000Y-80127500D01*
G75*
G02*
X122360500Y-79890000I237500J0D01*
G01*
X122960500Y-79890000D01*
G75*
G02*
X123198000Y-80127500I0J-237500D01*
G01*
G37*
G36*
G01*
X145598000Y-101277500D02*
X145598000Y-101752500D01*
G75*
G02*
X145360500Y-101990000I-237500J0D01*
G01*
X144785500Y-101990000D01*
G75*
G02*
X144548000Y-101752500I0J237500D01*
G01*
X144548000Y-101277500D01*
G75*
G02*
X144785500Y-101040000I237500J0D01*
G01*
X145360500Y-101040000D01*
G75*
G02*
X145598000Y-101277500I0J-237500D01*
G01*
G37*
G36*
G01*
X143848000Y-101277500D02*
X143848000Y-101752500D01*
G75*
G02*
X143610500Y-101990000I-237500J0D01*
G01*
X143035500Y-101990000D01*
G75*
G02*
X142798000Y-101752500I0J237500D01*
G01*
X142798000Y-101277500D01*
G75*
G02*
X143035500Y-101040000I237500J0D01*
G01*
X143610500Y-101040000D01*
G75*
G02*
X143848000Y-101277500I0J-237500D01*
G01*
G37*
G36*
G01*
X161160500Y-71227500D02*
X161635500Y-71227500D01*
G75*
G02*
X161873000Y-71465000I0J-237500D01*
G01*
X161873000Y-72040000D01*
G75*
G02*
X161635500Y-72277500I-237500J0D01*
G01*
X161160500Y-72277500D01*
G75*
G02*
X160923000Y-72040000I0J237500D01*
G01*
X160923000Y-71465000D01*
G75*
G02*
X161160500Y-71227500I237500J0D01*
G01*
G37*
G36*
G01*
X161160500Y-69477500D02*
X161635500Y-69477500D01*
G75*
G02*
X161873000Y-69715000I0J-237500D01*
G01*
X161873000Y-70290000D01*
G75*
G02*
X161635500Y-70527500I-237500J0D01*
G01*
X161160500Y-70527500D01*
G75*
G02*
X160923000Y-70290000I0J237500D01*
G01*
X160923000Y-69715000D01*
G75*
G02*
X161160500Y-69477500I237500J0D01*
G01*
G37*
G36*
G01*
X189773000Y-100927500D02*
X189773000Y-101402500D01*
G75*
G02*
X189535500Y-101640000I-237500J0D01*
G01*
X188960500Y-101640000D01*
G75*
G02*
X188723000Y-101402500I0J237500D01*
G01*
X188723000Y-100927500D01*
G75*
G02*
X188960500Y-100690000I237500J0D01*
G01*
X189535500Y-100690000D01*
G75*
G02*
X189773000Y-100927500I0J-237500D01*
G01*
G37*
G36*
G01*
X191523000Y-100927500D02*
X191523000Y-101402500D01*
G75*
G02*
X191285500Y-101640000I-237500J0D01*
G01*
X190710500Y-101640000D01*
G75*
G02*
X190473000Y-101402500I0J237500D01*
G01*
X190473000Y-100927500D01*
G75*
G02*
X190710500Y-100690000I237500J0D01*
G01*
X191285500Y-100690000D01*
G75*
G02*
X191523000Y-100927500I0J-237500D01*
G01*
G37*
G36*
G01*
X191598000Y-103127500D02*
X191598000Y-103602500D01*
G75*
G02*
X191360500Y-103840000I-237500J0D01*
G01*
X190785500Y-103840000D01*
G75*
G02*
X190548000Y-103602500I0J237500D01*
G01*
X190548000Y-103127500D01*
G75*
G02*
X190785500Y-102890000I237500J0D01*
G01*
X191360500Y-102890000D01*
G75*
G02*
X191598000Y-103127500I0J-237500D01*
G01*
G37*
G36*
G01*
X189848000Y-103127500D02*
X189848000Y-103602500D01*
G75*
G02*
X189610500Y-103840000I-237500J0D01*
G01*
X189035500Y-103840000D01*
G75*
G02*
X188798000Y-103602500I0J237500D01*
G01*
X188798000Y-103127500D01*
G75*
G02*
X189035500Y-102890000I237500J0D01*
G01*
X189610500Y-102890000D01*
G75*
G02*
X189848000Y-103127500I0J-237500D01*
G01*
G37*
D11*
X199298000Y-96565000D03*
X194298000Y-96565000D03*
G36*
G01*
X134435500Y-71415000D02*
X133960500Y-71415000D01*
G75*
G02*
X133723000Y-71177500I0J237500D01*
G01*
X133723000Y-70602500D01*
G75*
G02*
X133960500Y-70365000I237500J0D01*
G01*
X134435500Y-70365000D01*
G75*
G02*
X134673000Y-70602500I0J-237500D01*
G01*
X134673000Y-71177500D01*
G75*
G02*
X134435500Y-71415000I-237500J0D01*
G01*
G37*
G36*
G01*
X134435500Y-73165000D02*
X133960500Y-73165000D01*
G75*
G02*
X133723000Y-72927500I0J237500D01*
G01*
X133723000Y-72352500D01*
G75*
G02*
X133960500Y-72115000I237500J0D01*
G01*
X134435500Y-72115000D01*
G75*
G02*
X134673000Y-72352500I0J-237500D01*
G01*
X134673000Y-72927500D01*
G75*
G02*
X134435500Y-73165000I-237500J0D01*
G01*
G37*
G36*
G01*
X136635500Y-73165000D02*
X136160500Y-73165000D01*
G75*
G02*
X135923000Y-72927500I0J237500D01*
G01*
X135923000Y-72352500D01*
G75*
G02*
X136160500Y-72115000I237500J0D01*
G01*
X136635500Y-72115000D01*
G75*
G02*
X136873000Y-72352500I0J-237500D01*
G01*
X136873000Y-72927500D01*
G75*
G02*
X136635500Y-73165000I-237500J0D01*
G01*
G37*
G36*
G01*
X136635500Y-71415000D02*
X136160500Y-71415000D01*
G75*
G02*
X135923000Y-71177500I0J237500D01*
G01*
X135923000Y-70602500D01*
G75*
G02*
X136160500Y-70365000I237500J0D01*
G01*
X136635500Y-70365000D01*
G75*
G02*
X136873000Y-70602500I0J-237500D01*
G01*
X136873000Y-71177500D01*
G75*
G02*
X136635500Y-71415000I-237500J0D01*
G01*
G37*
X121648000Y-84365000D03*
X116648000Y-84365000D03*
D12*
X207798000Y-100165000D03*
X207798000Y-102565000D03*
D13*
X205248000Y-100065000D03*
X205248000Y-100715000D03*
X205248000Y-101365000D03*
X205248000Y-102015000D03*
X205248000Y-102665000D03*
X115948000Y-75815000D03*
X115948000Y-76465000D03*
X115948000Y-77115000D03*
X115948000Y-77765000D03*
X115948000Y-78415000D03*
D12*
X113398000Y-75915000D03*
X113398000Y-78315000D03*
G36*
G01*
X191573000Y-92727500D02*
X191573000Y-93202500D01*
G75*
G02*
X191335500Y-93440000I-237500J0D01*
G01*
X190835500Y-93440000D01*
G75*
G02*
X190598000Y-93202500I0J237500D01*
G01*
X190598000Y-92727500D01*
G75*
G02*
X190835500Y-92490000I237500J0D01*
G01*
X191335500Y-92490000D01*
G75*
G02*
X191573000Y-92727500I0J-237500D01*
G01*
G37*
G36*
G01*
X193398000Y-92727500D02*
X193398000Y-93202500D01*
G75*
G02*
X193160500Y-93440000I-237500J0D01*
G01*
X192660500Y-93440000D01*
G75*
G02*
X192423000Y-93202500I0J237500D01*
G01*
X192423000Y-92727500D01*
G75*
G02*
X192660500Y-92490000I237500J0D01*
G01*
X193160500Y-92490000D01*
G75*
G02*
X193398000Y-92727500I0J-237500D01*
G01*
G37*
G36*
G01*
X139048000Y-101752500D02*
X139048000Y-101277500D01*
G75*
G02*
X139285500Y-101040000I237500J0D01*
G01*
X139785500Y-101040000D01*
G75*
G02*
X140023000Y-101277500I0J-237500D01*
G01*
X140023000Y-101752500D01*
G75*
G02*
X139785500Y-101990000I-237500J0D01*
G01*
X139285500Y-101990000D01*
G75*
G02*
X139048000Y-101752500I0J237500D01*
G01*
G37*
G36*
G01*
X140873000Y-101752500D02*
X140873000Y-101277500D01*
G75*
G02*
X141110500Y-101040000I237500J0D01*
G01*
X141610500Y-101040000D01*
G75*
G02*
X141848000Y-101277500I0J-237500D01*
G01*
X141848000Y-101752500D01*
G75*
G02*
X141610500Y-101990000I-237500J0D01*
G01*
X141110500Y-101990000D01*
G75*
G02*
X140873000Y-101752500I0J237500D01*
G01*
G37*
G36*
G01*
X148883001Y-115927500D02*
X148883001Y-116402500D01*
G75*
G02*
X148645501Y-116640000I-237500J0D01*
G01*
X148145501Y-116640000D01*
G75*
G02*
X147908001Y-116402500I0J237500D01*
G01*
X147908001Y-115927500D01*
G75*
G02*
X148145501Y-115690000I237500J0D01*
G01*
X148645501Y-115690000D01*
G75*
G02*
X148883001Y-115927500I0J-237500D01*
G01*
G37*
G36*
G01*
X147058001Y-115927500D02*
X147058001Y-116402500D01*
G75*
G02*
X146820501Y-116640000I-237500J0D01*
G01*
X146320501Y-116640000D01*
G75*
G02*
X146083001Y-116402500I0J237500D01*
G01*
X146083001Y-115927500D01*
G75*
G02*
X146320501Y-115690000I237500J0D01*
G01*
X146820501Y-115690000D01*
G75*
G02*
X147058001Y-115927500I0J-237500D01*
G01*
G37*
G36*
G01*
X147908001Y-114367501D02*
X147908001Y-113892501D01*
G75*
G02*
X148145501Y-113655001I237500J0D01*
G01*
X148645501Y-113655001D01*
G75*
G02*
X148883001Y-113892501I0J-237500D01*
G01*
X148883001Y-114367501D01*
G75*
G02*
X148645501Y-114605001I-237500J0D01*
G01*
X148145501Y-114605001D01*
G75*
G02*
X147908001Y-114367501I0J237500D01*
G01*
G37*
G36*
G01*
X146083001Y-114367501D02*
X146083001Y-113892501D01*
G75*
G02*
X146320501Y-113655001I237500J0D01*
G01*
X146820501Y-113655001D01*
G75*
G02*
X147058001Y-113892501I0J-237500D01*
G01*
X147058001Y-114367501D01*
G75*
G02*
X146820501Y-114605001I-237500J0D01*
G01*
X146320501Y-114605001D01*
G75*
G02*
X146083001Y-114367501I0J237500D01*
G01*
G37*
G36*
G01*
X141898000Y-117977500D02*
X141898000Y-118452500D01*
G75*
G02*
X141660500Y-118690000I-237500J0D01*
G01*
X141160500Y-118690000D01*
G75*
G02*
X140923000Y-118452500I0J237500D01*
G01*
X140923000Y-117977500D01*
G75*
G02*
X141160500Y-117740000I237500J0D01*
G01*
X141660500Y-117740000D01*
G75*
G02*
X141898000Y-117977500I0J-237500D01*
G01*
G37*
G36*
G01*
X140073000Y-117977500D02*
X140073000Y-118452500D01*
G75*
G02*
X139835500Y-118690000I-237500J0D01*
G01*
X139335500Y-118690000D01*
G75*
G02*
X139098000Y-118452500I0J237500D01*
G01*
X139098000Y-117977500D01*
G75*
G02*
X139335500Y-117740000I237500J0D01*
G01*
X139835500Y-117740000D01*
G75*
G02*
X140073000Y-117977500I0J-237500D01*
G01*
G37*
G36*
G01*
X169398000Y-87327500D02*
X169398000Y-87802500D01*
G75*
G02*
X169160500Y-88040000I-237500J0D01*
G01*
X168660500Y-88040000D01*
G75*
G02*
X168423000Y-87802500I0J237500D01*
G01*
X168423000Y-87327500D01*
G75*
G02*
X168660500Y-87090000I237500J0D01*
G01*
X169160500Y-87090000D01*
G75*
G02*
X169398000Y-87327500I0J-237500D01*
G01*
G37*
G36*
G01*
X167573000Y-87327500D02*
X167573000Y-87802500D01*
G75*
G02*
X167335500Y-88040000I-237500J0D01*
G01*
X166835500Y-88040000D01*
G75*
G02*
X166598000Y-87802500I0J237500D01*
G01*
X166598000Y-87327500D01*
G75*
G02*
X166835500Y-87090000I237500J0D01*
G01*
X167335500Y-87090000D01*
G75*
G02*
X167573000Y-87327500I0J-237500D01*
G01*
G37*
G36*
G01*
X167573000Y-85327500D02*
X167573000Y-85802500D01*
G75*
G02*
X167335500Y-86040000I-237500J0D01*
G01*
X166835500Y-86040000D01*
G75*
G02*
X166598000Y-85802500I0J237500D01*
G01*
X166598000Y-85327500D01*
G75*
G02*
X166835500Y-85090000I237500J0D01*
G01*
X167335500Y-85090000D01*
G75*
G02*
X167573000Y-85327500I0J-237500D01*
G01*
G37*
G36*
G01*
X169398000Y-85327500D02*
X169398000Y-85802500D01*
G75*
G02*
X169160500Y-86040000I-237500J0D01*
G01*
X168660500Y-86040000D01*
G75*
G02*
X168423000Y-85802500I0J237500D01*
G01*
X168423000Y-85327500D01*
G75*
G02*
X168660500Y-85090000I237500J0D01*
G01*
X169160500Y-85090000D01*
G75*
G02*
X169398000Y-85327500I0J-237500D01*
G01*
G37*
G36*
G01*
X148898000Y-111927500D02*
X148898000Y-112402500D01*
G75*
G02*
X148660500Y-112640000I-237500J0D01*
G01*
X148160500Y-112640000D01*
G75*
G02*
X147923000Y-112402500I0J237500D01*
G01*
X147923000Y-111927500D01*
G75*
G02*
X148160500Y-111690000I237500J0D01*
G01*
X148660500Y-111690000D01*
G75*
G02*
X148898000Y-111927500I0J-237500D01*
G01*
G37*
G36*
G01*
X147073000Y-111927500D02*
X147073000Y-112402500D01*
G75*
G02*
X146835500Y-112640000I-237500J0D01*
G01*
X146335500Y-112640000D01*
G75*
G02*
X146098000Y-112402500I0J237500D01*
G01*
X146098000Y-111927500D01*
G75*
G02*
X146335500Y-111690000I237500J0D01*
G01*
X146835500Y-111690000D01*
G75*
G02*
X147073000Y-111927500I0J-237500D01*
G01*
G37*
G36*
G01*
X201110500Y-102740000D02*
X201585500Y-102740000D01*
G75*
G02*
X201823000Y-102977500I0J-237500D01*
G01*
X201823000Y-103477500D01*
G75*
G02*
X201585500Y-103715000I-237500J0D01*
G01*
X201110500Y-103715000D01*
G75*
G02*
X200873000Y-103477500I0J237500D01*
G01*
X200873000Y-102977500D01*
G75*
G02*
X201110500Y-102740000I237500J0D01*
G01*
G37*
G36*
G01*
X201110500Y-100915000D02*
X201585500Y-100915000D01*
G75*
G02*
X201823000Y-101152500I0J-237500D01*
G01*
X201823000Y-101652500D01*
G75*
G02*
X201585500Y-101890000I-237500J0D01*
G01*
X201110500Y-101890000D01*
G75*
G02*
X200873000Y-101652500I0J237500D01*
G01*
X200873000Y-101152500D01*
G75*
G02*
X201110500Y-100915000I237500J0D01*
G01*
G37*
G36*
G01*
X168423000Y-83802500D02*
X168423000Y-83327500D01*
G75*
G02*
X168660500Y-83090000I237500J0D01*
G01*
X169160500Y-83090000D01*
G75*
G02*
X169398000Y-83327500I0J-237500D01*
G01*
X169398000Y-83802500D01*
G75*
G02*
X169160500Y-84040000I-237500J0D01*
G01*
X168660500Y-84040000D01*
G75*
G02*
X168423000Y-83802500I0J237500D01*
G01*
G37*
G36*
G01*
X166598000Y-83802500D02*
X166598000Y-83327500D01*
G75*
G02*
X166835500Y-83090000I237500J0D01*
G01*
X167335500Y-83090000D01*
G75*
G02*
X167573000Y-83327500I0J-237500D01*
G01*
X167573000Y-83802500D01*
G75*
G02*
X167335500Y-84040000I-237500J0D01*
G01*
X166835500Y-84040000D01*
G75*
G02*
X166598000Y-83802500I0J237500D01*
G01*
G37*
G36*
G01*
X162960500Y-71302500D02*
X163435500Y-71302500D01*
G75*
G02*
X163673000Y-71540000I0J-237500D01*
G01*
X163673000Y-72040000D01*
G75*
G02*
X163435500Y-72277500I-237500J0D01*
G01*
X162960500Y-72277500D01*
G75*
G02*
X162723000Y-72040000I0J237500D01*
G01*
X162723000Y-71540000D01*
G75*
G02*
X162960500Y-71302500I237500J0D01*
G01*
G37*
G36*
G01*
X162960500Y-69477500D02*
X163435500Y-69477500D01*
G75*
G02*
X163673000Y-69715000I0J-237500D01*
G01*
X163673000Y-70215000D01*
G75*
G02*
X163435500Y-70452500I-237500J0D01*
G01*
X162960500Y-70452500D01*
G75*
G02*
X162723000Y-70215000I0J237500D01*
G01*
X162723000Y-69715000D01*
G75*
G02*
X162960500Y-69477500I237500J0D01*
G01*
G37*
G36*
G01*
X184798000Y-101437501D02*
X184798000Y-100962501D01*
G75*
G02*
X185035500Y-100725001I237500J0D01*
G01*
X185535500Y-100725001D01*
G75*
G02*
X185773000Y-100962501I0J-237500D01*
G01*
X185773000Y-101437501D01*
G75*
G02*
X185535500Y-101675001I-237500J0D01*
G01*
X185035500Y-101675001D01*
G75*
G02*
X184798000Y-101437501I0J237500D01*
G01*
G37*
G36*
G01*
X186623000Y-101437501D02*
X186623000Y-100962501D01*
G75*
G02*
X186860500Y-100725001I237500J0D01*
G01*
X187360500Y-100725001D01*
G75*
G02*
X187598000Y-100962501I0J-237500D01*
G01*
X187598000Y-101437501D01*
G75*
G02*
X187360500Y-101675001I-237500J0D01*
G01*
X186860500Y-101675001D01*
G75*
G02*
X186623000Y-101437501I0J237500D01*
G01*
G37*
G36*
G01*
X186623000Y-103602500D02*
X186623000Y-103127500D01*
G75*
G02*
X186860500Y-102890000I237500J0D01*
G01*
X187360500Y-102890000D01*
G75*
G02*
X187598000Y-103127500I0J-237500D01*
G01*
X187598000Y-103602500D01*
G75*
G02*
X187360500Y-103840000I-237500J0D01*
G01*
X186860500Y-103840000D01*
G75*
G02*
X186623000Y-103602500I0J237500D01*
G01*
G37*
G36*
G01*
X184798000Y-103602500D02*
X184798000Y-103127500D01*
G75*
G02*
X185035500Y-102890000I237500J0D01*
G01*
X185535500Y-102890000D01*
G75*
G02*
X185773000Y-103127500I0J-237500D01*
G01*
X185773000Y-103602500D01*
G75*
G02*
X185535500Y-103840000I-237500J0D01*
G01*
X185035500Y-103840000D01*
G75*
G02*
X184798000Y-103602500I0J237500D01*
G01*
G37*
G36*
G01*
X132798000Y-81127500D02*
X132798000Y-81602500D01*
G75*
G02*
X132560500Y-81840000I-237500J0D01*
G01*
X132060500Y-81840000D01*
G75*
G02*
X131823000Y-81602500I0J237500D01*
G01*
X131823000Y-81127500D01*
G75*
G02*
X132060500Y-80890000I237500J0D01*
G01*
X132560500Y-80890000D01*
G75*
G02*
X132798000Y-81127500I0J-237500D01*
G01*
G37*
G36*
G01*
X130973000Y-81127500D02*
X130973000Y-81602500D01*
G75*
G02*
X130735500Y-81840000I-237500J0D01*
G01*
X130235500Y-81840000D01*
G75*
G02*
X129998000Y-81602500I0J237500D01*
G01*
X129998000Y-81127500D01*
G75*
G02*
X130235500Y-80890000I237500J0D01*
G01*
X130735500Y-80890000D01*
G75*
G02*
X130973000Y-81127500I0J-237500D01*
G01*
G37*
G36*
G01*
X133943834Y-67940000D02*
X134418834Y-67940000D01*
G75*
G02*
X134656334Y-68177500I0J-237500D01*
G01*
X134656334Y-68677500D01*
G75*
G02*
X134418834Y-68915000I-237500J0D01*
G01*
X133943834Y-68915000D01*
G75*
G02*
X133706334Y-68677500I0J237500D01*
G01*
X133706334Y-68177500D01*
G75*
G02*
X133943834Y-67940000I237500J0D01*
G01*
G37*
G36*
G01*
X133943834Y-66115000D02*
X134418834Y-66115000D01*
G75*
G02*
X134656334Y-66352500I0J-237500D01*
G01*
X134656334Y-66852500D01*
G75*
G02*
X134418834Y-67090000I-237500J0D01*
G01*
X133943834Y-67090000D01*
G75*
G02*
X133706334Y-66852500I0J237500D01*
G01*
X133706334Y-66352500D01*
G75*
G02*
X133943834Y-66115000I237500J0D01*
G01*
G37*
G36*
G01*
X136160500Y-66115000D02*
X136635500Y-66115000D01*
G75*
G02*
X136873000Y-66352500I0J-237500D01*
G01*
X136873000Y-66852500D01*
G75*
G02*
X136635500Y-67090000I-237500J0D01*
G01*
X136160500Y-67090000D01*
G75*
G02*
X135923000Y-66852500I0J237500D01*
G01*
X135923000Y-66352500D01*
G75*
G02*
X136160500Y-66115000I237500J0D01*
G01*
G37*
G36*
G01*
X136160500Y-67940000D02*
X136635500Y-67940000D01*
G75*
G02*
X136873000Y-68177500I0J-237500D01*
G01*
X136873000Y-68677500D01*
G75*
G02*
X136635500Y-68915000I-237500J0D01*
G01*
X136160500Y-68915000D01*
G75*
G02*
X135923000Y-68677500I0J237500D01*
G01*
X135923000Y-68177500D01*
G75*
G02*
X136160500Y-67940000I237500J0D01*
G01*
G37*
D14*
X131548000Y-70440000D03*
X122448000Y-70440000D03*
X131548000Y-65890000D03*
X122448000Y-65890000D03*
X151548000Y-48840000D03*
X142448000Y-48840000D03*
X151548000Y-44290000D03*
X142448000Y-44290000D03*
X154448000Y-83290000D03*
X163548000Y-83290000D03*
X154448000Y-87840000D03*
X163548000Y-87840000D03*
X163548000Y-95040000D03*
X154448000Y-95040000D03*
X163548000Y-90490000D03*
X154448000Y-90490000D03*
X154448000Y-76090000D03*
X163548000Y-76090000D03*
X154448000Y-80640000D03*
X163548000Y-80640000D03*
D15*
X122348000Y-115565000D03*
X122348000Y-110965000D03*
X122348000Y-113265000D03*
D16*
X116048000Y-113265000D03*
D15*
X122098000Y-104815000D03*
X122098000Y-100215000D03*
X122098000Y-102515000D03*
D16*
X115798000Y-102515000D03*
D17*
X126243000Y-54565000D03*
D18*
X118743000Y-62065000D03*
X120013000Y-62065000D03*
X121283000Y-62065000D03*
X122553000Y-62065000D03*
X123823000Y-62065000D03*
X125093000Y-62065000D03*
X126363000Y-62065000D03*
X127633000Y-62065000D03*
X128903000Y-62065000D03*
X130173000Y-62065000D03*
X131443000Y-62065000D03*
X132713000Y-62065000D03*
X133983000Y-62065000D03*
X135253000Y-62065000D03*
D19*
X136253000Y-59280000D03*
X136253000Y-58010000D03*
X136253000Y-56740000D03*
X136253000Y-55470000D03*
X136253000Y-54200000D03*
X136253000Y-52930000D03*
X136253000Y-51660000D03*
X136253000Y-50390000D03*
X136253000Y-49120000D03*
X136253000Y-47850000D03*
D18*
X135253000Y-45065000D03*
X133983000Y-45065000D03*
X132713000Y-45065000D03*
X131443000Y-45065000D03*
X130173000Y-45065000D03*
X128903000Y-45065000D03*
X127633000Y-45065000D03*
X126363000Y-45065000D03*
X125093000Y-45065000D03*
X123823000Y-45065000D03*
X122553000Y-45065000D03*
X121283000Y-45065000D03*
X120013000Y-45065000D03*
X118743000Y-45065000D03*
D20*
X137673850Y-112460000D03*
X137673850Y-113730000D03*
X137673850Y-115000000D03*
X137673850Y-116270000D03*
X143122150Y-116270000D03*
X143122150Y-115000000D03*
X143122150Y-113730000D03*
X143122150Y-112460000D03*
D21*
X177822499Y-89090001D03*
X177822499Y-89739999D03*
X177822499Y-90390001D03*
X177822499Y-91039999D03*
X177822499Y-91690001D03*
X177822499Y-92339999D03*
X177822499Y-92990001D03*
X177822499Y-93639999D03*
D22*
X179723001Y-95540501D03*
X180372999Y-95540501D03*
X181023001Y-95540501D03*
X181672999Y-95540501D03*
X182323001Y-95540501D03*
X182972999Y-95540501D03*
X183623001Y-95540501D03*
X184272999Y-95540501D03*
D21*
X186173501Y-93639999D03*
X186173501Y-92990001D03*
X186173501Y-92339999D03*
X186173501Y-91690001D03*
X186173501Y-91039999D03*
X186173501Y-90390001D03*
X186173501Y-89739999D03*
X186173501Y-89090001D03*
D22*
X184272999Y-87189499D03*
X183623001Y-87189499D03*
X182972999Y-87189499D03*
X182323001Y-87189499D03*
X181672999Y-87189499D03*
X181023001Y-87189499D03*
X180372999Y-87189499D03*
X179723001Y-87189499D03*
G36*
G01*
X193785500Y-102027500D02*
X193785500Y-101902500D01*
G75*
G02*
X193848000Y-101840000I62500J0D01*
G01*
X194548000Y-101840000D01*
G75*
G02*
X194610500Y-101902500I0J-62500D01*
G01*
X194610500Y-102027500D01*
G75*
G02*
X194548000Y-102090000I-62500J0D01*
G01*
X193848000Y-102090000D01*
G75*
G02*
X193785500Y-102027500I0J62500D01*
G01*
G37*
G36*
G01*
X193785500Y-102527500D02*
X193785500Y-102402500D01*
G75*
G02*
X193848000Y-102340000I62500J0D01*
G01*
X194548000Y-102340000D01*
G75*
G02*
X194610500Y-102402500I0J-62500D01*
G01*
X194610500Y-102527500D01*
G75*
G02*
X194548000Y-102590000I-62500J0D01*
G01*
X193848000Y-102590000D01*
G75*
G02*
X193785500Y-102527500I0J62500D01*
G01*
G37*
G36*
G01*
X193785500Y-103027500D02*
X193785500Y-102902500D01*
G75*
G02*
X193848000Y-102840000I62500J0D01*
G01*
X194548000Y-102840000D01*
G75*
G02*
X194610500Y-102902500I0J-62500D01*
G01*
X194610500Y-103027500D01*
G75*
G02*
X194548000Y-103090000I-62500J0D01*
G01*
X193848000Y-103090000D01*
G75*
G02*
X193785500Y-103027500I0J62500D01*
G01*
G37*
G36*
G01*
X193785500Y-103527500D02*
X193785500Y-103402500D01*
G75*
G02*
X193848000Y-103340000I62500J0D01*
G01*
X194548000Y-103340000D01*
G75*
G02*
X194610500Y-103402500I0J-62500D01*
G01*
X194610500Y-103527500D01*
G75*
G02*
X194548000Y-103590000I-62500J0D01*
G01*
X193848000Y-103590000D01*
G75*
G02*
X193785500Y-103527500I0J62500D01*
G01*
G37*
G36*
G01*
X193785500Y-104027500D02*
X193785500Y-103902500D01*
G75*
G02*
X193848000Y-103840000I62500J0D01*
G01*
X194548000Y-103840000D01*
G75*
G02*
X194610500Y-103902500I0J-62500D01*
G01*
X194610500Y-104027500D01*
G75*
G02*
X194548000Y-104090000I-62500J0D01*
G01*
X193848000Y-104090000D01*
G75*
G02*
X193785500Y-104027500I0J62500D01*
G01*
G37*
G36*
G01*
X193785500Y-104527500D02*
X193785500Y-104402500D01*
G75*
G02*
X193848000Y-104340000I62500J0D01*
G01*
X194548000Y-104340000D01*
G75*
G02*
X194610500Y-104402500I0J-62500D01*
G01*
X194610500Y-104527500D01*
G75*
G02*
X194548000Y-104590000I-62500J0D01*
G01*
X193848000Y-104590000D01*
G75*
G02*
X193785500Y-104527500I0J62500D01*
G01*
G37*
G36*
G01*
X194760500Y-105502500D02*
X194760500Y-104802500D01*
G75*
G02*
X194823000Y-104740000I62500J0D01*
G01*
X194948000Y-104740000D01*
G75*
G02*
X195010500Y-104802500I0J-62500D01*
G01*
X195010500Y-105502500D01*
G75*
G02*
X194948000Y-105565000I-62500J0D01*
G01*
X194823000Y-105565000D01*
G75*
G02*
X194760500Y-105502500I0J62500D01*
G01*
G37*
G36*
G01*
X195260500Y-105502500D02*
X195260500Y-104802500D01*
G75*
G02*
X195323000Y-104740000I62500J0D01*
G01*
X195448000Y-104740000D01*
G75*
G02*
X195510500Y-104802500I0J-62500D01*
G01*
X195510500Y-105502500D01*
G75*
G02*
X195448000Y-105565000I-62500J0D01*
G01*
X195323000Y-105565000D01*
G75*
G02*
X195260500Y-105502500I0J62500D01*
G01*
G37*
G36*
G01*
X195760500Y-105502500D02*
X195760500Y-104802500D01*
G75*
G02*
X195823000Y-104740000I62500J0D01*
G01*
X195948000Y-104740000D01*
G75*
G02*
X196010500Y-104802500I0J-62500D01*
G01*
X196010500Y-105502500D01*
G75*
G02*
X195948000Y-105565000I-62500J0D01*
G01*
X195823000Y-105565000D01*
G75*
G02*
X195760500Y-105502500I0J62500D01*
G01*
G37*
G36*
G01*
X196260500Y-105502500D02*
X196260500Y-104802500D01*
G75*
G02*
X196323000Y-104740000I62500J0D01*
G01*
X196448000Y-104740000D01*
G75*
G02*
X196510500Y-104802500I0J-62500D01*
G01*
X196510500Y-105502500D01*
G75*
G02*
X196448000Y-105565000I-62500J0D01*
G01*
X196323000Y-105565000D01*
G75*
G02*
X196260500Y-105502500I0J62500D01*
G01*
G37*
G36*
G01*
X196760500Y-105502500D02*
X196760500Y-104802500D01*
G75*
G02*
X196823000Y-104740000I62500J0D01*
G01*
X196948000Y-104740000D01*
G75*
G02*
X197010500Y-104802500I0J-62500D01*
G01*
X197010500Y-105502500D01*
G75*
G02*
X196948000Y-105565000I-62500J0D01*
G01*
X196823000Y-105565000D01*
G75*
G02*
X196760500Y-105502500I0J62500D01*
G01*
G37*
G36*
G01*
X197260500Y-105502500D02*
X197260500Y-104802500D01*
G75*
G02*
X197323000Y-104740000I62500J0D01*
G01*
X197448000Y-104740000D01*
G75*
G02*
X197510500Y-104802500I0J-62500D01*
G01*
X197510500Y-105502500D01*
G75*
G02*
X197448000Y-105565000I-62500J0D01*
G01*
X197323000Y-105565000D01*
G75*
G02*
X197260500Y-105502500I0J62500D01*
G01*
G37*
G36*
G01*
X197660500Y-104527500D02*
X197660500Y-104402500D01*
G75*
G02*
X197723000Y-104340000I62500J0D01*
G01*
X198423000Y-104340000D01*
G75*
G02*
X198485500Y-104402500I0J-62500D01*
G01*
X198485500Y-104527500D01*
G75*
G02*
X198423000Y-104590000I-62500J0D01*
G01*
X197723000Y-104590000D01*
G75*
G02*
X197660500Y-104527500I0J62500D01*
G01*
G37*
G36*
G01*
X197660500Y-104027500D02*
X197660500Y-103902500D01*
G75*
G02*
X197723000Y-103840000I62500J0D01*
G01*
X198423000Y-103840000D01*
G75*
G02*
X198485500Y-103902500I0J-62500D01*
G01*
X198485500Y-104027500D01*
G75*
G02*
X198423000Y-104090000I-62500J0D01*
G01*
X197723000Y-104090000D01*
G75*
G02*
X197660500Y-104027500I0J62500D01*
G01*
G37*
G36*
G01*
X197660500Y-103527500D02*
X197660500Y-103402500D01*
G75*
G02*
X197723000Y-103340000I62500J0D01*
G01*
X198423000Y-103340000D01*
G75*
G02*
X198485500Y-103402500I0J-62500D01*
G01*
X198485500Y-103527500D01*
G75*
G02*
X198423000Y-103590000I-62500J0D01*
G01*
X197723000Y-103590000D01*
G75*
G02*
X197660500Y-103527500I0J62500D01*
G01*
G37*
G36*
G01*
X197660500Y-103027500D02*
X197660500Y-102902500D01*
G75*
G02*
X197723000Y-102840000I62500J0D01*
G01*
X198423000Y-102840000D01*
G75*
G02*
X198485500Y-102902500I0J-62500D01*
G01*
X198485500Y-103027500D01*
G75*
G02*
X198423000Y-103090000I-62500J0D01*
G01*
X197723000Y-103090000D01*
G75*
G02*
X197660500Y-103027500I0J62500D01*
G01*
G37*
G36*
G01*
X197660500Y-102527500D02*
X197660500Y-102402500D01*
G75*
G02*
X197723000Y-102340000I62500J0D01*
G01*
X198423000Y-102340000D01*
G75*
G02*
X198485500Y-102402500I0J-62500D01*
G01*
X198485500Y-102527500D01*
G75*
G02*
X198423000Y-102590000I-62500J0D01*
G01*
X197723000Y-102590000D01*
G75*
G02*
X197660500Y-102527500I0J62500D01*
G01*
G37*
G36*
G01*
X197660500Y-102027500D02*
X197660500Y-101902500D01*
G75*
G02*
X197723000Y-101840000I62500J0D01*
G01*
X198423000Y-101840000D01*
G75*
G02*
X198485500Y-101902500I0J-62500D01*
G01*
X198485500Y-102027500D01*
G75*
G02*
X198423000Y-102090000I-62500J0D01*
G01*
X197723000Y-102090000D01*
G75*
G02*
X197660500Y-102027500I0J62500D01*
G01*
G37*
G36*
G01*
X197260500Y-101627500D02*
X197260500Y-100927500D01*
G75*
G02*
X197323000Y-100865000I62500J0D01*
G01*
X197448000Y-100865000D01*
G75*
G02*
X197510500Y-100927500I0J-62500D01*
G01*
X197510500Y-101627500D01*
G75*
G02*
X197448000Y-101690000I-62500J0D01*
G01*
X197323000Y-101690000D01*
G75*
G02*
X197260500Y-101627500I0J62500D01*
G01*
G37*
G36*
G01*
X196760500Y-101627500D02*
X196760500Y-100927500D01*
G75*
G02*
X196823000Y-100865000I62500J0D01*
G01*
X196948000Y-100865000D01*
G75*
G02*
X197010500Y-100927500I0J-62500D01*
G01*
X197010500Y-101627500D01*
G75*
G02*
X196948000Y-101690000I-62500J0D01*
G01*
X196823000Y-101690000D01*
G75*
G02*
X196760500Y-101627500I0J62500D01*
G01*
G37*
G36*
G01*
X196260500Y-101627500D02*
X196260500Y-100927500D01*
G75*
G02*
X196323000Y-100865000I62500J0D01*
G01*
X196448000Y-100865000D01*
G75*
G02*
X196510500Y-100927500I0J-62500D01*
G01*
X196510500Y-101627500D01*
G75*
G02*
X196448000Y-101690000I-62500J0D01*
G01*
X196323000Y-101690000D01*
G75*
G02*
X196260500Y-101627500I0J62500D01*
G01*
G37*
G36*
G01*
X195760500Y-101627500D02*
X195760500Y-100927500D01*
G75*
G02*
X195823000Y-100865000I62500J0D01*
G01*
X195948000Y-100865000D01*
G75*
G02*
X196010500Y-100927500I0J-62500D01*
G01*
X196010500Y-101627500D01*
G75*
G02*
X195948000Y-101690000I-62500J0D01*
G01*
X195823000Y-101690000D01*
G75*
G02*
X195760500Y-101627500I0J62500D01*
G01*
G37*
G36*
G01*
X195260500Y-101627500D02*
X195260500Y-100927500D01*
G75*
G02*
X195323000Y-100865000I62500J0D01*
G01*
X195448000Y-100865000D01*
G75*
G02*
X195510500Y-100927500I0J-62500D01*
G01*
X195510500Y-101627500D01*
G75*
G02*
X195448000Y-101690000I-62500J0D01*
G01*
X195323000Y-101690000D01*
G75*
G02*
X195260500Y-101627500I0J62500D01*
G01*
G37*
G36*
G01*
X194760500Y-101627500D02*
X194760500Y-100927500D01*
G75*
G02*
X194823000Y-100865000I62500J0D01*
G01*
X194948000Y-100865000D01*
G75*
G02*
X195010500Y-100927500I0J-62500D01*
G01*
X195010500Y-101627500D01*
G75*
G02*
X194948000Y-101690000I-62500J0D01*
G01*
X194823000Y-101690000D01*
G75*
G02*
X194760500Y-101627500I0J62500D01*
G01*
G37*
G36*
G01*
X194960500Y-102840001D02*
X194960500Y-102289999D01*
G75*
G02*
X195210499Y-102040000I249999J0D01*
G01*
X195760501Y-102040000D01*
G75*
G02*
X196010500Y-102289999I0J-249999D01*
G01*
X196010500Y-102840001D01*
G75*
G02*
X195760501Y-103090000I-249999J0D01*
G01*
X195210499Y-103090000D01*
G75*
G02*
X194960500Y-102840001I0J249999D01*
G01*
G37*
G36*
G01*
X194960500Y-104140001D02*
X194960500Y-103589999D01*
G75*
G02*
X195210499Y-103340000I249999J0D01*
G01*
X195760501Y-103340000D01*
G75*
G02*
X196010500Y-103589999I0J-249999D01*
G01*
X196010500Y-104140001D01*
G75*
G02*
X195760501Y-104390000I-249999J0D01*
G01*
X195210499Y-104390000D01*
G75*
G02*
X194960500Y-104140001I0J249999D01*
G01*
G37*
G36*
G01*
X196260500Y-102840001D02*
X196260500Y-102289999D01*
G75*
G02*
X196510499Y-102040000I249999J0D01*
G01*
X197060501Y-102040000D01*
G75*
G02*
X197310500Y-102289999I0J-249999D01*
G01*
X197310500Y-102840001D01*
G75*
G02*
X197060501Y-103090000I-249999J0D01*
G01*
X196510499Y-103090000D01*
G75*
G02*
X196260500Y-102840001I0J249999D01*
G01*
G37*
G36*
G01*
X196260500Y-104140001D02*
X196260500Y-103589999D01*
G75*
G02*
X196510499Y-103340000I249999J0D01*
G01*
X197060501Y-103340000D01*
G75*
G02*
X197310500Y-103589999I0J-249999D01*
G01*
X197310500Y-104140001D01*
G75*
G02*
X197060501Y-104390000I-249999J0D01*
G01*
X196510499Y-104390000D01*
G75*
G02*
X196260500Y-104140001I0J249999D01*
G01*
G37*
D16*
X115798000Y-92265000D03*
D15*
X122098000Y-92265000D03*
X122098000Y-89965000D03*
X122098000Y-94565000D03*
G36*
G01*
X126222999Y-76490000D02*
X126773001Y-76490000D01*
G75*
G02*
X127023000Y-76739999I0J-249999D01*
G01*
X127023000Y-77290001D01*
G75*
G02*
X126773001Y-77540000I-249999J0D01*
G01*
X126222999Y-77540000D01*
G75*
G02*
X125973000Y-77290001I0J249999D01*
G01*
X125973000Y-76739999D01*
G75*
G02*
X126222999Y-76490000I249999J0D01*
G01*
G37*
G36*
G01*
X127522999Y-76490000D02*
X128073001Y-76490000D01*
G75*
G02*
X128323000Y-76739999I0J-249999D01*
G01*
X128323000Y-77290001D01*
G75*
G02*
X128073001Y-77540000I-249999J0D01*
G01*
X127522999Y-77540000D01*
G75*
G02*
X127273000Y-77290001I0J249999D01*
G01*
X127273000Y-76739999D01*
G75*
G02*
X127522999Y-76490000I249999J0D01*
G01*
G37*
G36*
G01*
X126222999Y-75190000D02*
X126773001Y-75190000D01*
G75*
G02*
X127023000Y-75439999I0J-249999D01*
G01*
X127023000Y-75990001D01*
G75*
G02*
X126773001Y-76240000I-249999J0D01*
G01*
X126222999Y-76240000D01*
G75*
G02*
X125973000Y-75990001I0J249999D01*
G01*
X125973000Y-75439999D01*
G75*
G02*
X126222999Y-75190000I249999J0D01*
G01*
G37*
G36*
G01*
X127522999Y-75190000D02*
X128073001Y-75190000D01*
G75*
G02*
X128323000Y-75439999I0J-249999D01*
G01*
X128323000Y-75990001D01*
G75*
G02*
X128073001Y-76240000I-249999J0D01*
G01*
X127522999Y-76240000D01*
G75*
G02*
X127273000Y-75990001I0J249999D01*
G01*
X127273000Y-75439999D01*
G75*
G02*
X127522999Y-75190000I249999J0D01*
G01*
G37*
G36*
G01*
X128735500Y-74990000D02*
X129435500Y-74990000D01*
G75*
G02*
X129498000Y-75052500I0J-62500D01*
G01*
X129498000Y-75177500D01*
G75*
G02*
X129435500Y-75240000I-62500J0D01*
G01*
X128735500Y-75240000D01*
G75*
G02*
X128673000Y-75177500I0J62500D01*
G01*
X128673000Y-75052500D01*
G75*
G02*
X128735500Y-74990000I62500J0D01*
G01*
G37*
G36*
G01*
X128735500Y-75490000D02*
X129435500Y-75490000D01*
G75*
G02*
X129498000Y-75552500I0J-62500D01*
G01*
X129498000Y-75677500D01*
G75*
G02*
X129435500Y-75740000I-62500J0D01*
G01*
X128735500Y-75740000D01*
G75*
G02*
X128673000Y-75677500I0J62500D01*
G01*
X128673000Y-75552500D01*
G75*
G02*
X128735500Y-75490000I62500J0D01*
G01*
G37*
G36*
G01*
X128735500Y-75990000D02*
X129435500Y-75990000D01*
G75*
G02*
X129498000Y-76052500I0J-62500D01*
G01*
X129498000Y-76177500D01*
G75*
G02*
X129435500Y-76240000I-62500J0D01*
G01*
X128735500Y-76240000D01*
G75*
G02*
X128673000Y-76177500I0J62500D01*
G01*
X128673000Y-76052500D01*
G75*
G02*
X128735500Y-75990000I62500J0D01*
G01*
G37*
G36*
G01*
X128735500Y-76490000D02*
X129435500Y-76490000D01*
G75*
G02*
X129498000Y-76552500I0J-62500D01*
G01*
X129498000Y-76677500D01*
G75*
G02*
X129435500Y-76740000I-62500J0D01*
G01*
X128735500Y-76740000D01*
G75*
G02*
X128673000Y-76677500I0J62500D01*
G01*
X128673000Y-76552500D01*
G75*
G02*
X128735500Y-76490000I62500J0D01*
G01*
G37*
G36*
G01*
X128735500Y-76990000D02*
X129435500Y-76990000D01*
G75*
G02*
X129498000Y-77052500I0J-62500D01*
G01*
X129498000Y-77177500D01*
G75*
G02*
X129435500Y-77240000I-62500J0D01*
G01*
X128735500Y-77240000D01*
G75*
G02*
X128673000Y-77177500I0J62500D01*
G01*
X128673000Y-77052500D01*
G75*
G02*
X128735500Y-76990000I62500J0D01*
G01*
G37*
G36*
G01*
X128735500Y-77490000D02*
X129435500Y-77490000D01*
G75*
G02*
X129498000Y-77552500I0J-62500D01*
G01*
X129498000Y-77677500D01*
G75*
G02*
X129435500Y-77740000I-62500J0D01*
G01*
X128735500Y-77740000D01*
G75*
G02*
X128673000Y-77677500I0J62500D01*
G01*
X128673000Y-77552500D01*
G75*
G02*
X128735500Y-77490000I62500J0D01*
G01*
G37*
G36*
G01*
X128335500Y-77890000D02*
X128460500Y-77890000D01*
G75*
G02*
X128523000Y-77952500I0J-62500D01*
G01*
X128523000Y-78652500D01*
G75*
G02*
X128460500Y-78715000I-62500J0D01*
G01*
X128335500Y-78715000D01*
G75*
G02*
X128273000Y-78652500I0J62500D01*
G01*
X128273000Y-77952500D01*
G75*
G02*
X128335500Y-77890000I62500J0D01*
G01*
G37*
G36*
G01*
X127835500Y-77890000D02*
X127960500Y-77890000D01*
G75*
G02*
X128023000Y-77952500I0J-62500D01*
G01*
X128023000Y-78652500D01*
G75*
G02*
X127960500Y-78715000I-62500J0D01*
G01*
X127835500Y-78715000D01*
G75*
G02*
X127773000Y-78652500I0J62500D01*
G01*
X127773000Y-77952500D01*
G75*
G02*
X127835500Y-77890000I62500J0D01*
G01*
G37*
G36*
G01*
X127335500Y-77890000D02*
X127460500Y-77890000D01*
G75*
G02*
X127523000Y-77952500I0J-62500D01*
G01*
X127523000Y-78652500D01*
G75*
G02*
X127460500Y-78715000I-62500J0D01*
G01*
X127335500Y-78715000D01*
G75*
G02*
X127273000Y-78652500I0J62500D01*
G01*
X127273000Y-77952500D01*
G75*
G02*
X127335500Y-77890000I62500J0D01*
G01*
G37*
G36*
G01*
X126835500Y-77890000D02*
X126960500Y-77890000D01*
G75*
G02*
X127023000Y-77952500I0J-62500D01*
G01*
X127023000Y-78652500D01*
G75*
G02*
X126960500Y-78715000I-62500J0D01*
G01*
X126835500Y-78715000D01*
G75*
G02*
X126773000Y-78652500I0J62500D01*
G01*
X126773000Y-77952500D01*
G75*
G02*
X126835500Y-77890000I62500J0D01*
G01*
G37*
G36*
G01*
X126335500Y-77890000D02*
X126460500Y-77890000D01*
G75*
G02*
X126523000Y-77952500I0J-62500D01*
G01*
X126523000Y-78652500D01*
G75*
G02*
X126460500Y-78715000I-62500J0D01*
G01*
X126335500Y-78715000D01*
G75*
G02*
X126273000Y-78652500I0J62500D01*
G01*
X126273000Y-77952500D01*
G75*
G02*
X126335500Y-77890000I62500J0D01*
G01*
G37*
G36*
G01*
X125835500Y-77890000D02*
X125960500Y-77890000D01*
G75*
G02*
X126023000Y-77952500I0J-62500D01*
G01*
X126023000Y-78652500D01*
G75*
G02*
X125960500Y-78715000I-62500J0D01*
G01*
X125835500Y-78715000D01*
G75*
G02*
X125773000Y-78652500I0J62500D01*
G01*
X125773000Y-77952500D01*
G75*
G02*
X125835500Y-77890000I62500J0D01*
G01*
G37*
G36*
G01*
X124860500Y-77490000D02*
X125560500Y-77490000D01*
G75*
G02*
X125623000Y-77552500I0J-62500D01*
G01*
X125623000Y-77677500D01*
G75*
G02*
X125560500Y-77740000I-62500J0D01*
G01*
X124860500Y-77740000D01*
G75*
G02*
X124798000Y-77677500I0J62500D01*
G01*
X124798000Y-77552500D01*
G75*
G02*
X124860500Y-77490000I62500J0D01*
G01*
G37*
G36*
G01*
X124860500Y-76990000D02*
X125560500Y-76990000D01*
G75*
G02*
X125623000Y-77052500I0J-62500D01*
G01*
X125623000Y-77177500D01*
G75*
G02*
X125560500Y-77240000I-62500J0D01*
G01*
X124860500Y-77240000D01*
G75*
G02*
X124798000Y-77177500I0J62500D01*
G01*
X124798000Y-77052500D01*
G75*
G02*
X124860500Y-76990000I62500J0D01*
G01*
G37*
G36*
G01*
X124860500Y-76490000D02*
X125560500Y-76490000D01*
G75*
G02*
X125623000Y-76552500I0J-62500D01*
G01*
X125623000Y-76677500D01*
G75*
G02*
X125560500Y-76740000I-62500J0D01*
G01*
X124860500Y-76740000D01*
G75*
G02*
X124798000Y-76677500I0J62500D01*
G01*
X124798000Y-76552500D01*
G75*
G02*
X124860500Y-76490000I62500J0D01*
G01*
G37*
G36*
G01*
X124860500Y-75990000D02*
X125560500Y-75990000D01*
G75*
G02*
X125623000Y-76052500I0J-62500D01*
G01*
X125623000Y-76177500D01*
G75*
G02*
X125560500Y-76240000I-62500J0D01*
G01*
X124860500Y-76240000D01*
G75*
G02*
X124798000Y-76177500I0J62500D01*
G01*
X124798000Y-76052500D01*
G75*
G02*
X124860500Y-75990000I62500J0D01*
G01*
G37*
G36*
G01*
X124860500Y-75490000D02*
X125560500Y-75490000D01*
G75*
G02*
X125623000Y-75552500I0J-62500D01*
G01*
X125623000Y-75677500D01*
G75*
G02*
X125560500Y-75740000I-62500J0D01*
G01*
X124860500Y-75740000D01*
G75*
G02*
X124798000Y-75677500I0J62500D01*
G01*
X124798000Y-75552500D01*
G75*
G02*
X124860500Y-75490000I62500J0D01*
G01*
G37*
G36*
G01*
X124860500Y-74990000D02*
X125560500Y-74990000D01*
G75*
G02*
X125623000Y-75052500I0J-62500D01*
G01*
X125623000Y-75177500D01*
G75*
G02*
X125560500Y-75240000I-62500J0D01*
G01*
X124860500Y-75240000D01*
G75*
G02*
X124798000Y-75177500I0J62500D01*
G01*
X124798000Y-75052500D01*
G75*
G02*
X124860500Y-74990000I62500J0D01*
G01*
G37*
G36*
G01*
X125835500Y-74015000D02*
X125960500Y-74015000D01*
G75*
G02*
X126023000Y-74077500I0J-62500D01*
G01*
X126023000Y-74777500D01*
G75*
G02*
X125960500Y-74840000I-62500J0D01*
G01*
X125835500Y-74840000D01*
G75*
G02*
X125773000Y-74777500I0J62500D01*
G01*
X125773000Y-74077500D01*
G75*
G02*
X125835500Y-74015000I62500J0D01*
G01*
G37*
G36*
G01*
X126335500Y-74015000D02*
X126460500Y-74015000D01*
G75*
G02*
X126523000Y-74077500I0J-62500D01*
G01*
X126523000Y-74777500D01*
G75*
G02*
X126460500Y-74840000I-62500J0D01*
G01*
X126335500Y-74840000D01*
G75*
G02*
X126273000Y-74777500I0J62500D01*
G01*
X126273000Y-74077500D01*
G75*
G02*
X126335500Y-74015000I62500J0D01*
G01*
G37*
G36*
G01*
X126835500Y-74015000D02*
X126960500Y-74015000D01*
G75*
G02*
X127023000Y-74077500I0J-62500D01*
G01*
X127023000Y-74777500D01*
G75*
G02*
X126960500Y-74840000I-62500J0D01*
G01*
X126835500Y-74840000D01*
G75*
G02*
X126773000Y-74777500I0J62500D01*
G01*
X126773000Y-74077500D01*
G75*
G02*
X126835500Y-74015000I62500J0D01*
G01*
G37*
G36*
G01*
X127335500Y-74015000D02*
X127460500Y-74015000D01*
G75*
G02*
X127523000Y-74077500I0J-62500D01*
G01*
X127523000Y-74777500D01*
G75*
G02*
X127460500Y-74840000I-62500J0D01*
G01*
X127335500Y-74840000D01*
G75*
G02*
X127273000Y-74777500I0J62500D01*
G01*
X127273000Y-74077500D01*
G75*
G02*
X127335500Y-74015000I62500J0D01*
G01*
G37*
G36*
G01*
X127835500Y-74015000D02*
X127960500Y-74015000D01*
G75*
G02*
X128023000Y-74077500I0J-62500D01*
G01*
X128023000Y-74777500D01*
G75*
G02*
X127960500Y-74840000I-62500J0D01*
G01*
X127835500Y-74840000D01*
G75*
G02*
X127773000Y-74777500I0J62500D01*
G01*
X127773000Y-74077500D01*
G75*
G02*
X127835500Y-74015000I62500J0D01*
G01*
G37*
G36*
G01*
X128335500Y-74015000D02*
X128460500Y-74015000D01*
G75*
G02*
X128523000Y-74077500I0J-62500D01*
G01*
X128523000Y-74777500D01*
G75*
G02*
X128460500Y-74840000I-62500J0D01*
G01*
X128335500Y-74840000D01*
G75*
G02*
X128273000Y-74777500I0J62500D01*
G01*
X128273000Y-74077500D01*
G75*
G02*
X128335500Y-74015000I62500J0D01*
G01*
G37*
D23*
X196023000Y-76965000D03*
X192773000Y-76965000D03*
D24*
X152948000Y-112765000D03*
X152948000Y-114365000D03*
X152948000Y-115965000D03*
X157848000Y-115965000D03*
X157848000Y-114365000D03*
X157848000Y-112765000D03*
M02*
