G04 #@! TF.GenerationSoftware,KiCad,Pcbnew,(5.1.12)-1*
G04 #@! TF.CreationDate,2022-03-24T09:17:42-05:00*
G04 #@! TF.ProjectId,AVR-CTF,4156522d-4354-4462-9e6b-696361645f70,rev?*
G04 #@! TF.SameCoordinates,Original*
G04 #@! TF.FileFunction,Legend,Top*
G04 #@! TF.FilePolarity,Positive*
%FSLAX46Y46*%
G04 Gerber Fmt 4.6, Leading zero omitted, Abs format (unit mm)*
G04 Created by KiCad (PCBNEW (5.1.12)-1) date 2022-03-24 09:17:42*
%MOMM*%
%LPD*%
G01*
G04 APERTURE LIST*
%ADD10C,0.150000*%
%ADD11C,0.010000*%
%ADD12C,0.120000*%
%ADD13C,0.200000*%
%ADD14C,0.127000*%
%ADD15C,0.100000*%
G04 APERTURE END LIST*
D10*
X176450380Y-57031666D02*
X175450380Y-57031666D01*
X175450380Y-56793571D01*
X175498000Y-56650714D01*
X175593238Y-56555476D01*
X175688476Y-56507857D01*
X175878952Y-56460238D01*
X176021809Y-56460238D01*
X176212285Y-56507857D01*
X176307523Y-56555476D01*
X176402761Y-56650714D01*
X176450380Y-56793571D01*
X176450380Y-57031666D01*
X176402761Y-56079285D02*
X176450380Y-55936428D01*
X176450380Y-55698333D01*
X176402761Y-55603095D01*
X176355142Y-55555476D01*
X176259904Y-55507857D01*
X176164666Y-55507857D01*
X176069428Y-55555476D01*
X176021809Y-55603095D01*
X175974190Y-55698333D01*
X175926571Y-55888809D01*
X175878952Y-55984047D01*
X175831333Y-56031666D01*
X175736095Y-56079285D01*
X175640857Y-56079285D01*
X175545619Y-56031666D01*
X175498000Y-55984047D01*
X175450380Y-55888809D01*
X175450380Y-55650714D01*
X175498000Y-55507857D01*
X176450380Y-55079285D02*
X175450380Y-55079285D01*
X175450380Y-54841190D01*
X175498000Y-54698333D01*
X175593238Y-54603095D01*
X175688476Y-54555476D01*
X175878952Y-54507857D01*
X176021809Y-54507857D01*
X176212285Y-54555476D01*
X176307523Y-54603095D01*
X176402761Y-54698333D01*
X176450380Y-54841190D01*
X176450380Y-55079285D01*
X176164666Y-53365000D02*
X176164666Y-52888809D01*
X176450380Y-53460238D02*
X175450380Y-53126904D01*
X176450380Y-52793571D01*
X175450380Y-52603095D02*
X176450380Y-52269761D01*
X175450380Y-51936428D01*
X176450380Y-51031666D02*
X175974190Y-51365000D01*
X176450380Y-51603095D02*
X175450380Y-51603095D01*
X175450380Y-51222142D01*
X175498000Y-51126904D01*
X175545619Y-51079285D01*
X175640857Y-51031666D01*
X175783714Y-51031666D01*
X175878952Y-51079285D01*
X175926571Y-51126904D01*
X175974190Y-51222142D01*
X175974190Y-51603095D01*
X176355142Y-49269761D02*
X176402761Y-49317380D01*
X176450380Y-49460238D01*
X176450380Y-49555476D01*
X176402761Y-49698333D01*
X176307523Y-49793571D01*
X176212285Y-49841190D01*
X176021809Y-49888809D01*
X175878952Y-49888809D01*
X175688476Y-49841190D01*
X175593238Y-49793571D01*
X175498000Y-49698333D01*
X175450380Y-49555476D01*
X175450380Y-49460238D01*
X175498000Y-49317380D01*
X175545619Y-49269761D01*
X175450380Y-48984047D02*
X175450380Y-48412619D01*
X176450380Y-48698333D02*
X175450380Y-48698333D01*
X175926571Y-47745952D02*
X175926571Y-48079285D01*
X176450380Y-48079285D02*
X175450380Y-48079285D01*
X175450380Y-47603095D01*
X333890880Y-203612785D02*
X333890880Y-204184214D01*
X333890880Y-203898500D02*
X332890880Y-203898500D01*
X333033738Y-203993738D01*
X333128976Y-204088976D01*
X333176595Y-204184214D01*
D11*
G36*
X157057631Y-52517597D02*
G01*
X157228058Y-52352189D01*
X157467245Y-52150985D01*
X157738488Y-51942081D01*
X158005087Y-51753578D01*
X158230339Y-51613574D01*
X158377541Y-51550168D01*
X158390419Y-51549000D01*
X158545576Y-51596825D01*
X158745432Y-51713367D01*
X158764757Y-51727352D01*
X158925933Y-51829754D01*
X159079733Y-51865141D01*
X159294605Y-51842061D01*
X159442829Y-51812019D01*
X159857928Y-51744310D01*
X160231929Y-51722178D01*
X160524463Y-51745484D01*
X160695158Y-51814089D01*
X160697478Y-51816346D01*
X160832862Y-51866425D01*
X160904912Y-51828574D01*
X161202491Y-51701165D01*
X161598583Y-51702256D01*
X161732897Y-51727512D01*
X162143295Y-51749786D01*
X162480528Y-51626317D01*
X162730943Y-51369893D01*
X162880888Y-50993302D01*
X162919333Y-50616182D01*
X162850069Y-50179508D01*
X162653395Y-49839320D01*
X162345989Y-49613200D01*
X161944529Y-49518730D01*
X161876622Y-49517000D01*
X161581015Y-49579196D01*
X161310134Y-49738432D01*
X161127671Y-49953688D01*
X161101848Y-50016026D01*
X161095220Y-50286528D01*
X161212252Y-50553271D01*
X161415582Y-50763927D01*
X161667843Y-50866164D01*
X161710881Y-50868974D01*
X161899222Y-50808385D01*
X162046107Y-50658443D01*
X162114497Y-50475316D01*
X162072315Y-50320910D01*
X161936274Y-50206710D01*
X161855062Y-50225327D01*
X161862562Y-50368561D01*
X161863470Y-50371450D01*
X161879525Y-50502404D01*
X161786176Y-50522444D01*
X161764314Y-50518644D01*
X161619521Y-50420443D01*
X161577942Y-50244623D01*
X161652709Y-50063267D01*
X161833902Y-49954090D01*
X162050076Y-49971431D01*
X162259898Y-50090641D01*
X162422038Y-50287075D01*
X162495165Y-50536085D01*
X162496000Y-50566137D01*
X162420240Y-50832077D01*
X162225921Y-51072829D01*
X161962486Y-51242001D01*
X161719346Y-51294869D01*
X161318345Y-51221098D01*
X160958638Y-51021891D01*
X160674951Y-50729829D01*
X160502009Y-50377496D01*
X160465393Y-50118313D01*
X160538719Y-49746316D01*
X160732008Y-49367980D01*
X161009994Y-49044633D01*
X161142622Y-48940587D01*
X161342757Y-48825567D01*
X161546215Y-48771821D01*
X161821532Y-48765303D01*
X161962748Y-48772502D01*
X162248273Y-48783930D01*
X162391309Y-48770213D01*
X162417436Y-48726839D01*
X162397385Y-48695861D01*
X162261967Y-48605725D01*
X162036479Y-48515824D01*
X161965111Y-48494837D01*
X161527967Y-48457134D01*
X161056988Y-48548879D01*
X160589397Y-48747909D01*
X160162415Y-49032064D01*
X159813265Y-49379179D01*
X159579169Y-49767095D01*
X159521062Y-49950030D01*
X159402113Y-50301512D01*
X159204230Y-50557786D01*
X158885072Y-50771254D01*
X158837539Y-50796010D01*
X158561967Y-50920431D01*
X158409190Y-50945249D01*
X158365331Y-50870831D01*
X158376568Y-50808167D01*
X158417190Y-50628755D01*
X158464855Y-50377854D01*
X158473021Y-50330538D01*
X158517460Y-50168356D01*
X158607761Y-50000780D01*
X158765105Y-49800284D01*
X159010673Y-49539345D01*
X159305914Y-49248183D01*
X159827243Y-48774684D01*
X160288050Y-48429839D01*
X160715566Y-48197483D01*
X161137025Y-48061450D01*
X161370946Y-48022440D01*
X161909597Y-48038897D01*
X162447458Y-48201880D01*
X162891236Y-48463786D01*
X163178537Y-48682920D01*
X163541333Y-48507294D01*
X163953772Y-48361780D01*
X164337200Y-48358156D01*
X164746321Y-48492223D01*
X165154706Y-48763156D01*
X165436087Y-49145849D01*
X165545466Y-49437779D01*
X165612303Y-49643795D01*
X165697697Y-49725237D01*
X165856695Y-49722887D01*
X165917588Y-49713469D01*
X166331437Y-49724969D01*
X166714619Y-49876752D01*
X167042116Y-50139863D01*
X167288911Y-50485345D01*
X167429987Y-50884243D01*
X167440325Y-51307601D01*
X167412029Y-51443167D01*
X167321444Y-51703514D01*
X167213524Y-51919998D01*
X167200865Y-51938935D01*
X167132915Y-52062188D01*
X167153601Y-52167044D01*
X167280879Y-52309672D01*
X167336194Y-52362269D01*
X167650650Y-52756698D01*
X167801924Y-53191569D01*
X167788113Y-53659518D01*
X167728086Y-53877334D01*
X167509520Y-54258968D01*
X167158418Y-54571518D01*
X166819338Y-54745155D01*
X166433000Y-54893334D01*
X166421293Y-55338606D01*
X166332158Y-55801060D01*
X166191819Y-56040500D01*
X166191819Y-54052762D01*
X166511609Y-53978867D01*
X166778517Y-53810582D01*
X166968587Y-53574925D01*
X167057861Y-53298915D01*
X167022384Y-53009570D01*
X166905382Y-52807214D01*
X166742764Y-52607334D01*
X166460882Y-52767997D01*
X166150762Y-52960193D01*
X165983082Y-53107434D01*
X165942587Y-53226450D01*
X165977999Y-53297519D01*
X166100596Y-53376946D01*
X166256518Y-53412334D01*
X166371593Y-53392901D01*
X166390667Y-53357501D01*
X166330773Y-53269959D01*
X166242500Y-53194215D01*
X166141227Y-53105208D01*
X166182693Y-53052618D01*
X166249065Y-53025136D01*
X166435200Y-53026091D01*
X166573558Y-53146576D01*
X166617893Y-53336799D01*
X166603790Y-53407076D01*
X166469444Y-53585516D01*
X166242148Y-53699066D01*
X165995349Y-53714235D01*
X165953509Y-53703613D01*
X165780199Y-53606762D01*
X165604858Y-53456636D01*
X165593948Y-53448939D01*
X165593948Y-52057000D01*
X165958479Y-51989673D01*
X166266266Y-51809573D01*
X166493206Y-51549522D01*
X166615196Y-51242344D01*
X166608134Y-50920862D01*
X166546170Y-50760268D01*
X166335219Y-50495541D01*
X166050268Y-50376714D01*
X165917990Y-50366360D01*
X165766949Y-50375505D01*
X165678402Y-50434055D01*
X165621811Y-50582721D01*
X165573172Y-50826038D01*
X165537084Y-51141194D01*
X165575549Y-51315215D01*
X165696297Y-51362553D01*
X165840333Y-51325618D01*
X165958093Y-51230092D01*
X165961083Y-51124575D01*
X165862837Y-51073834D01*
X165790217Y-51085804D01*
X165659263Y-51101859D01*
X165639223Y-51008510D01*
X165643023Y-50986648D01*
X165731208Y-50833232D01*
X165880912Y-50793269D01*
X166044319Y-50850908D01*
X166173613Y-50990298D01*
X166221333Y-51178367D01*
X166145234Y-51437796D01*
X165939123Y-51625507D01*
X165636279Y-51714610D01*
X165553058Y-51718334D01*
X165303192Y-51748848D01*
X165179701Y-51832721D01*
X165177892Y-51837056D01*
X165162141Y-51961212D01*
X165252539Y-52029384D01*
X165475127Y-52055340D01*
X165593948Y-52057000D01*
X165593948Y-53448939D01*
X165405795Y-53316187D01*
X165260022Y-53319212D01*
X165169828Y-53367426D01*
X165172850Y-53441501D01*
X165278051Y-53585239D01*
X165326293Y-53643048D01*
X165550396Y-53844785D01*
X165807832Y-53992336D01*
X165843104Y-54005248D01*
X166191819Y-54052762D01*
X166191819Y-56040500D01*
X166102949Y-56192127D01*
X165752482Y-56480892D01*
X165713161Y-56502090D01*
X165421722Y-56591650D01*
X165234705Y-56607213D01*
X165234705Y-55822896D01*
X165533757Y-55693794D01*
X165630820Y-55610847D01*
X165739757Y-55431327D01*
X165793928Y-55205457D01*
X165784708Y-55001932D01*
X165720355Y-54897673D01*
X165594948Y-54858007D01*
X165368679Y-54813685D01*
X165254688Y-54796502D01*
X165018664Y-54770001D01*
X164905173Y-54789167D01*
X164869427Y-54873621D01*
X164866667Y-54966492D01*
X164909805Y-55146708D01*
X164997378Y-55189667D01*
X165097575Y-55124632D01*
X165103211Y-55041500D01*
X165132464Y-54921492D01*
X165231100Y-54898376D01*
X165330399Y-54971062D01*
X165359332Y-55045568D01*
X165334729Y-55254876D01*
X165197271Y-55388995D01*
X164991624Y-55434884D01*
X164762449Y-55379498D01*
X164604372Y-55266039D01*
X164469963Y-55047578D01*
X164459310Y-54809459D01*
X164447361Y-54566114D01*
X164349733Y-54441737D01*
X164216066Y-54389153D01*
X164214246Y-54390687D01*
X164214246Y-51005299D01*
X164337793Y-50906645D01*
X164473015Y-50774252D01*
X164661508Y-50565049D01*
X164752757Y-50379471D01*
X164780809Y-50135178D01*
X164782000Y-50026954D01*
X164765622Y-49737647D01*
X164698297Y-49540388D01*
X164552732Y-49359556D01*
X164534513Y-49341154D01*
X164239473Y-49141514D01*
X163928888Y-49101468D01*
X163628548Y-49223312D01*
X163584880Y-49256585D01*
X163385000Y-49419504D01*
X163545389Y-49720191D01*
X163689913Y-49953679D01*
X163837981Y-50139137D01*
X163859941Y-50160394D01*
X163975593Y-50245741D01*
X164049315Y-50206954D01*
X164115472Y-50077430D01*
X164169940Y-49888064D01*
X164141654Y-49785338D01*
X164046264Y-49801882D01*
X164001655Y-49840145D01*
X163858723Y-49933851D01*
X163776010Y-49889131D01*
X163766000Y-49823701D01*
X163834125Y-49644810D01*
X163999380Y-49563100D01*
X164188697Y-49601327D01*
X164389714Y-49791135D01*
X164461708Y-50047439D01*
X164404380Y-50326714D01*
X164217428Y-50585434D01*
X164195620Y-50605022D01*
X164082329Y-50775342D01*
X164099447Y-50913952D01*
X164146709Y-51003280D01*
X164214246Y-51005299D01*
X164214246Y-54390687D01*
X164139944Y-54453315D01*
X164108115Y-54654478D01*
X164104667Y-54816282D01*
X164171886Y-55180570D01*
X164351528Y-55480571D01*
X164610563Y-55699089D01*
X164915965Y-55818929D01*
X165234705Y-55822896D01*
X165234705Y-56607213D01*
X165060024Y-56621751D01*
X164705796Y-56591951D01*
X164449639Y-56509235D01*
X164309695Y-56450421D01*
X164180697Y-56466508D01*
X164002848Y-56571492D01*
X163914219Y-56634562D01*
X163405790Y-56905455D01*
X163249094Y-56937645D01*
X163249094Y-55732644D01*
X163363855Y-55722432D01*
X163531670Y-55673917D01*
X163586301Y-55585809D01*
X163541753Y-55412889D01*
X163494856Y-55299484D01*
X163417963Y-55124264D01*
X163376101Y-55035634D01*
X163301701Y-55053689D01*
X163181285Y-55119683D01*
X162967489Y-55176644D01*
X162949161Y-55167145D01*
X162949161Y-54909050D01*
X163046611Y-54906867D01*
X163115577Y-54863800D01*
X163241901Y-54810780D01*
X163291431Y-54827988D01*
X163317016Y-54816592D01*
X163295750Y-54742586D01*
X163191097Y-54618897D01*
X163119284Y-54597000D01*
X162998868Y-54659403D01*
X162927157Y-54791213D01*
X162949161Y-54909050D01*
X162949161Y-55167145D01*
X162791594Y-55085481D01*
X162688525Y-54867378D01*
X162680348Y-54815822D01*
X162704204Y-54583563D01*
X162804589Y-54360956D01*
X162947270Y-54207747D01*
X163048285Y-54173667D01*
X163142690Y-54106176D01*
X163175136Y-53960041D01*
X163129002Y-53819769D01*
X163119868Y-53809757D01*
X163002442Y-53797554D01*
X162834650Y-53898431D01*
X162657510Y-54082911D01*
X162576452Y-54200237D01*
X162460463Y-54500052D01*
X162414014Y-54858466D01*
X162441996Y-55197667D01*
X162502815Y-55371734D01*
X162679950Y-55552680D01*
X162952797Y-55682795D01*
X163249094Y-55732644D01*
X163249094Y-56937645D01*
X162859047Y-57017775D01*
X162288314Y-56973895D01*
X161707911Y-56776190D01*
X161132160Y-56427031D01*
X160758365Y-56111651D01*
X160531128Y-55907051D01*
X160345987Y-55759078D01*
X160240907Y-55697918D01*
X160237744Y-55697667D01*
X160118226Y-55634092D01*
X159955943Y-55476551D01*
X159797641Y-55274820D01*
X159720936Y-55147334D01*
X159655836Y-54961811D01*
X159593664Y-54692855D01*
X159573743Y-54575834D01*
X159553956Y-54315664D01*
X159602115Y-54188367D01*
X159732114Y-54190850D01*
X159957848Y-54320019D01*
X160136512Y-54450544D01*
X160451331Y-54761850D01*
X160647289Y-55140439D01*
X160839113Y-55542163D01*
X161114584Y-55868173D01*
X161508757Y-56155495D01*
X161722108Y-56275644D01*
X162162635Y-56467647D01*
X162592413Y-56552844D01*
X163046333Y-56552681D01*
X163180926Y-56538693D01*
X163196322Y-56510276D01*
X163078212Y-56451352D01*
X162888765Y-56375654D01*
X162613621Y-56251695D01*
X162381657Y-56119233D01*
X162305307Y-56062114D01*
X162063327Y-55743730D01*
X161901328Y-55312473D01*
X161825653Y-54807957D01*
X161842645Y-54269792D01*
X161941730Y-53791669D01*
X162005856Y-53546247D01*
X162033645Y-53371321D01*
X162028931Y-53324732D01*
X161931241Y-53298517D01*
X161722302Y-53296402D01*
X161579546Y-53306438D01*
X161311314Y-53309314D01*
X161311314Y-53230168D01*
X161503071Y-53189998D01*
X161597355Y-53112884D01*
X161684071Y-52934146D01*
X161619368Y-52768986D01*
X161508510Y-52698412D01*
X161333568Y-52697883D01*
X161316066Y-52705061D01*
X161316066Y-52305134D01*
X161494730Y-52280872D01*
X161657685Y-52192678D01*
X161733752Y-52064786D01*
X161734000Y-52057000D01*
X161681863Y-51960533D01*
X161632400Y-51904600D01*
X161473012Y-51824018D01*
X161274707Y-51807577D01*
X161122843Y-51858800D01*
X161102067Y-51882704D01*
X161136814Y-51934431D01*
X161287570Y-51946204D01*
X161474050Y-51969978D01*
X161522333Y-52057000D01*
X161450920Y-52158410D01*
X161336043Y-52177730D01*
X161207950Y-52198476D01*
X161192873Y-52241230D01*
X161316066Y-52305134D01*
X161316066Y-52705061D01*
X161239890Y-52736307D01*
X161153257Y-52801952D01*
X161214830Y-52812077D01*
X161226000Y-52811077D01*
X161455681Y-52812270D01*
X161554875Y-52881372D01*
X161564667Y-52938945D01*
X161500752Y-53071239D01*
X161338266Y-53099467D01*
X161183667Y-53047698D01*
X161068491Y-52996607D01*
X161085251Y-53044885D01*
X161130533Y-53101472D01*
X161311314Y-53230168D01*
X161311314Y-53309314D01*
X161271279Y-53309744D01*
X161024538Y-53265147D01*
X160975255Y-53244076D01*
X160793286Y-53186593D01*
X160691977Y-53234490D01*
X160538423Y-53294950D01*
X160264395Y-53319538D01*
X159914979Y-53307927D01*
X159535260Y-53259795D01*
X159448000Y-53243449D01*
X159198980Y-53207194D01*
X159016117Y-53235026D01*
X158815979Y-53345942D01*
X158726687Y-53407711D01*
X158386375Y-53648151D01*
X157689521Y-53192758D01*
X157392415Y-52987243D01*
X157158396Y-52803756D01*
X157018510Y-52667851D01*
X156992667Y-52619108D01*
X157057631Y-52517597D01*
G37*
X157057631Y-52517597D02*
X157228058Y-52352189D01*
X157467245Y-52150985D01*
X157738488Y-51942081D01*
X158005087Y-51753578D01*
X158230339Y-51613574D01*
X158377541Y-51550168D01*
X158390419Y-51549000D01*
X158545576Y-51596825D01*
X158745432Y-51713367D01*
X158764757Y-51727352D01*
X158925933Y-51829754D01*
X159079733Y-51865141D01*
X159294605Y-51842061D01*
X159442829Y-51812019D01*
X159857928Y-51744310D01*
X160231929Y-51722178D01*
X160524463Y-51745484D01*
X160695158Y-51814089D01*
X160697478Y-51816346D01*
X160832862Y-51866425D01*
X160904912Y-51828574D01*
X161202491Y-51701165D01*
X161598583Y-51702256D01*
X161732897Y-51727512D01*
X162143295Y-51749786D01*
X162480528Y-51626317D01*
X162730943Y-51369893D01*
X162880888Y-50993302D01*
X162919333Y-50616182D01*
X162850069Y-50179508D01*
X162653395Y-49839320D01*
X162345989Y-49613200D01*
X161944529Y-49518730D01*
X161876622Y-49517000D01*
X161581015Y-49579196D01*
X161310134Y-49738432D01*
X161127671Y-49953688D01*
X161101848Y-50016026D01*
X161095220Y-50286528D01*
X161212252Y-50553271D01*
X161415582Y-50763927D01*
X161667843Y-50866164D01*
X161710881Y-50868974D01*
X161899222Y-50808385D01*
X162046107Y-50658443D01*
X162114497Y-50475316D01*
X162072315Y-50320910D01*
X161936274Y-50206710D01*
X161855062Y-50225327D01*
X161862562Y-50368561D01*
X161863470Y-50371450D01*
X161879525Y-50502404D01*
X161786176Y-50522444D01*
X161764314Y-50518644D01*
X161619521Y-50420443D01*
X161577942Y-50244623D01*
X161652709Y-50063267D01*
X161833902Y-49954090D01*
X162050076Y-49971431D01*
X162259898Y-50090641D01*
X162422038Y-50287075D01*
X162495165Y-50536085D01*
X162496000Y-50566137D01*
X162420240Y-50832077D01*
X162225921Y-51072829D01*
X161962486Y-51242001D01*
X161719346Y-51294869D01*
X161318345Y-51221098D01*
X160958638Y-51021891D01*
X160674951Y-50729829D01*
X160502009Y-50377496D01*
X160465393Y-50118313D01*
X160538719Y-49746316D01*
X160732008Y-49367980D01*
X161009994Y-49044633D01*
X161142622Y-48940587D01*
X161342757Y-48825567D01*
X161546215Y-48771821D01*
X161821532Y-48765303D01*
X161962748Y-48772502D01*
X162248273Y-48783930D01*
X162391309Y-48770213D01*
X162417436Y-48726839D01*
X162397385Y-48695861D01*
X162261967Y-48605725D01*
X162036479Y-48515824D01*
X161965111Y-48494837D01*
X161527967Y-48457134D01*
X161056988Y-48548879D01*
X160589397Y-48747909D01*
X160162415Y-49032064D01*
X159813265Y-49379179D01*
X159579169Y-49767095D01*
X159521062Y-49950030D01*
X159402113Y-50301512D01*
X159204230Y-50557786D01*
X158885072Y-50771254D01*
X158837539Y-50796010D01*
X158561967Y-50920431D01*
X158409190Y-50945249D01*
X158365331Y-50870831D01*
X158376568Y-50808167D01*
X158417190Y-50628755D01*
X158464855Y-50377854D01*
X158473021Y-50330538D01*
X158517460Y-50168356D01*
X158607761Y-50000780D01*
X158765105Y-49800284D01*
X159010673Y-49539345D01*
X159305914Y-49248183D01*
X159827243Y-48774684D01*
X160288050Y-48429839D01*
X160715566Y-48197483D01*
X161137025Y-48061450D01*
X161370946Y-48022440D01*
X161909597Y-48038897D01*
X162447458Y-48201880D01*
X162891236Y-48463786D01*
X163178537Y-48682920D01*
X163541333Y-48507294D01*
X163953772Y-48361780D01*
X164337200Y-48358156D01*
X164746321Y-48492223D01*
X165154706Y-48763156D01*
X165436087Y-49145849D01*
X165545466Y-49437779D01*
X165612303Y-49643795D01*
X165697697Y-49725237D01*
X165856695Y-49722887D01*
X165917588Y-49713469D01*
X166331437Y-49724969D01*
X166714619Y-49876752D01*
X167042116Y-50139863D01*
X167288911Y-50485345D01*
X167429987Y-50884243D01*
X167440325Y-51307601D01*
X167412029Y-51443167D01*
X167321444Y-51703514D01*
X167213524Y-51919998D01*
X167200865Y-51938935D01*
X167132915Y-52062188D01*
X167153601Y-52167044D01*
X167280879Y-52309672D01*
X167336194Y-52362269D01*
X167650650Y-52756698D01*
X167801924Y-53191569D01*
X167788113Y-53659518D01*
X167728086Y-53877334D01*
X167509520Y-54258968D01*
X167158418Y-54571518D01*
X166819338Y-54745155D01*
X166433000Y-54893334D01*
X166421293Y-55338606D01*
X166332158Y-55801060D01*
X166191819Y-56040500D01*
X166191819Y-54052762D01*
X166511609Y-53978867D01*
X166778517Y-53810582D01*
X166968587Y-53574925D01*
X167057861Y-53298915D01*
X167022384Y-53009570D01*
X166905382Y-52807214D01*
X166742764Y-52607334D01*
X166460882Y-52767997D01*
X166150762Y-52960193D01*
X165983082Y-53107434D01*
X165942587Y-53226450D01*
X165977999Y-53297519D01*
X166100596Y-53376946D01*
X166256518Y-53412334D01*
X166371593Y-53392901D01*
X166390667Y-53357501D01*
X166330773Y-53269959D01*
X166242500Y-53194215D01*
X166141227Y-53105208D01*
X166182693Y-53052618D01*
X166249065Y-53025136D01*
X166435200Y-53026091D01*
X166573558Y-53146576D01*
X166617893Y-53336799D01*
X166603790Y-53407076D01*
X166469444Y-53585516D01*
X166242148Y-53699066D01*
X165995349Y-53714235D01*
X165953509Y-53703613D01*
X165780199Y-53606762D01*
X165604858Y-53456636D01*
X165593948Y-53448939D01*
X165593948Y-52057000D01*
X165958479Y-51989673D01*
X166266266Y-51809573D01*
X166493206Y-51549522D01*
X166615196Y-51242344D01*
X166608134Y-50920862D01*
X166546170Y-50760268D01*
X166335219Y-50495541D01*
X166050268Y-50376714D01*
X165917990Y-50366360D01*
X165766949Y-50375505D01*
X165678402Y-50434055D01*
X165621811Y-50582721D01*
X165573172Y-50826038D01*
X165537084Y-51141194D01*
X165575549Y-51315215D01*
X165696297Y-51362553D01*
X165840333Y-51325618D01*
X165958093Y-51230092D01*
X165961083Y-51124575D01*
X165862837Y-51073834D01*
X165790217Y-51085804D01*
X165659263Y-51101859D01*
X165639223Y-51008510D01*
X165643023Y-50986648D01*
X165731208Y-50833232D01*
X165880912Y-50793269D01*
X166044319Y-50850908D01*
X166173613Y-50990298D01*
X166221333Y-51178367D01*
X166145234Y-51437796D01*
X165939123Y-51625507D01*
X165636279Y-51714610D01*
X165553058Y-51718334D01*
X165303192Y-51748848D01*
X165179701Y-51832721D01*
X165177892Y-51837056D01*
X165162141Y-51961212D01*
X165252539Y-52029384D01*
X165475127Y-52055340D01*
X165593948Y-52057000D01*
X165593948Y-53448939D01*
X165405795Y-53316187D01*
X165260022Y-53319212D01*
X165169828Y-53367426D01*
X165172850Y-53441501D01*
X165278051Y-53585239D01*
X165326293Y-53643048D01*
X165550396Y-53844785D01*
X165807832Y-53992336D01*
X165843104Y-54005248D01*
X166191819Y-54052762D01*
X166191819Y-56040500D01*
X166102949Y-56192127D01*
X165752482Y-56480892D01*
X165713161Y-56502090D01*
X165421722Y-56591650D01*
X165234705Y-56607213D01*
X165234705Y-55822896D01*
X165533757Y-55693794D01*
X165630820Y-55610847D01*
X165739757Y-55431327D01*
X165793928Y-55205457D01*
X165784708Y-55001932D01*
X165720355Y-54897673D01*
X165594948Y-54858007D01*
X165368679Y-54813685D01*
X165254688Y-54796502D01*
X165018664Y-54770001D01*
X164905173Y-54789167D01*
X164869427Y-54873621D01*
X164866667Y-54966492D01*
X164909805Y-55146708D01*
X164997378Y-55189667D01*
X165097575Y-55124632D01*
X165103211Y-55041500D01*
X165132464Y-54921492D01*
X165231100Y-54898376D01*
X165330399Y-54971062D01*
X165359332Y-55045568D01*
X165334729Y-55254876D01*
X165197271Y-55388995D01*
X164991624Y-55434884D01*
X164762449Y-55379498D01*
X164604372Y-55266039D01*
X164469963Y-55047578D01*
X164459310Y-54809459D01*
X164447361Y-54566114D01*
X164349733Y-54441737D01*
X164216066Y-54389153D01*
X164214246Y-54390687D01*
X164214246Y-51005299D01*
X164337793Y-50906645D01*
X164473015Y-50774252D01*
X164661508Y-50565049D01*
X164752757Y-50379471D01*
X164780809Y-50135178D01*
X164782000Y-50026954D01*
X164765622Y-49737647D01*
X164698297Y-49540388D01*
X164552732Y-49359556D01*
X164534513Y-49341154D01*
X164239473Y-49141514D01*
X163928888Y-49101468D01*
X163628548Y-49223312D01*
X163584880Y-49256585D01*
X163385000Y-49419504D01*
X163545389Y-49720191D01*
X163689913Y-49953679D01*
X163837981Y-50139137D01*
X163859941Y-50160394D01*
X163975593Y-50245741D01*
X164049315Y-50206954D01*
X164115472Y-50077430D01*
X164169940Y-49888064D01*
X164141654Y-49785338D01*
X164046264Y-49801882D01*
X164001655Y-49840145D01*
X163858723Y-49933851D01*
X163776010Y-49889131D01*
X163766000Y-49823701D01*
X163834125Y-49644810D01*
X163999380Y-49563100D01*
X164188697Y-49601327D01*
X164389714Y-49791135D01*
X164461708Y-50047439D01*
X164404380Y-50326714D01*
X164217428Y-50585434D01*
X164195620Y-50605022D01*
X164082329Y-50775342D01*
X164099447Y-50913952D01*
X164146709Y-51003280D01*
X164214246Y-51005299D01*
X164214246Y-54390687D01*
X164139944Y-54453315D01*
X164108115Y-54654478D01*
X164104667Y-54816282D01*
X164171886Y-55180570D01*
X164351528Y-55480571D01*
X164610563Y-55699089D01*
X164915965Y-55818929D01*
X165234705Y-55822896D01*
X165234705Y-56607213D01*
X165060024Y-56621751D01*
X164705796Y-56591951D01*
X164449639Y-56509235D01*
X164309695Y-56450421D01*
X164180697Y-56466508D01*
X164002848Y-56571492D01*
X163914219Y-56634562D01*
X163405790Y-56905455D01*
X163249094Y-56937645D01*
X163249094Y-55732644D01*
X163363855Y-55722432D01*
X163531670Y-55673917D01*
X163586301Y-55585809D01*
X163541753Y-55412889D01*
X163494856Y-55299484D01*
X163417963Y-55124264D01*
X163376101Y-55035634D01*
X163301701Y-55053689D01*
X163181285Y-55119683D01*
X162967489Y-55176644D01*
X162949161Y-55167145D01*
X162949161Y-54909050D01*
X163046611Y-54906867D01*
X163115577Y-54863800D01*
X163241901Y-54810780D01*
X163291431Y-54827988D01*
X163317016Y-54816592D01*
X163295750Y-54742586D01*
X163191097Y-54618897D01*
X163119284Y-54597000D01*
X162998868Y-54659403D01*
X162927157Y-54791213D01*
X162949161Y-54909050D01*
X162949161Y-55167145D01*
X162791594Y-55085481D01*
X162688525Y-54867378D01*
X162680348Y-54815822D01*
X162704204Y-54583563D01*
X162804589Y-54360956D01*
X162947270Y-54207747D01*
X163048285Y-54173667D01*
X163142690Y-54106176D01*
X163175136Y-53960041D01*
X163129002Y-53819769D01*
X163119868Y-53809757D01*
X163002442Y-53797554D01*
X162834650Y-53898431D01*
X162657510Y-54082911D01*
X162576452Y-54200237D01*
X162460463Y-54500052D01*
X162414014Y-54858466D01*
X162441996Y-55197667D01*
X162502815Y-55371734D01*
X162679950Y-55552680D01*
X162952797Y-55682795D01*
X163249094Y-55732644D01*
X163249094Y-56937645D01*
X162859047Y-57017775D01*
X162288314Y-56973895D01*
X161707911Y-56776190D01*
X161132160Y-56427031D01*
X160758365Y-56111651D01*
X160531128Y-55907051D01*
X160345987Y-55759078D01*
X160240907Y-55697918D01*
X160237744Y-55697667D01*
X160118226Y-55634092D01*
X159955943Y-55476551D01*
X159797641Y-55274820D01*
X159720936Y-55147334D01*
X159655836Y-54961811D01*
X159593664Y-54692855D01*
X159573743Y-54575834D01*
X159553956Y-54315664D01*
X159602115Y-54188367D01*
X159732114Y-54190850D01*
X159957848Y-54320019D01*
X160136512Y-54450544D01*
X160451331Y-54761850D01*
X160647289Y-55140439D01*
X160839113Y-55542163D01*
X161114584Y-55868173D01*
X161508757Y-56155495D01*
X161722108Y-56275644D01*
X162162635Y-56467647D01*
X162592413Y-56552844D01*
X163046333Y-56552681D01*
X163180926Y-56538693D01*
X163196322Y-56510276D01*
X163078212Y-56451352D01*
X162888765Y-56375654D01*
X162613621Y-56251695D01*
X162381657Y-56119233D01*
X162305307Y-56062114D01*
X162063327Y-55743730D01*
X161901328Y-55312473D01*
X161825653Y-54807957D01*
X161842645Y-54269792D01*
X161941730Y-53791669D01*
X162005856Y-53546247D01*
X162033645Y-53371321D01*
X162028931Y-53324732D01*
X161931241Y-53298517D01*
X161722302Y-53296402D01*
X161579546Y-53306438D01*
X161311314Y-53309314D01*
X161311314Y-53230168D01*
X161503071Y-53189998D01*
X161597355Y-53112884D01*
X161684071Y-52934146D01*
X161619368Y-52768986D01*
X161508510Y-52698412D01*
X161333568Y-52697883D01*
X161316066Y-52705061D01*
X161316066Y-52305134D01*
X161494730Y-52280872D01*
X161657685Y-52192678D01*
X161733752Y-52064786D01*
X161734000Y-52057000D01*
X161681863Y-51960533D01*
X161632400Y-51904600D01*
X161473012Y-51824018D01*
X161274707Y-51807577D01*
X161122843Y-51858800D01*
X161102067Y-51882704D01*
X161136814Y-51934431D01*
X161287570Y-51946204D01*
X161474050Y-51969978D01*
X161522333Y-52057000D01*
X161450920Y-52158410D01*
X161336043Y-52177730D01*
X161207950Y-52198476D01*
X161192873Y-52241230D01*
X161316066Y-52305134D01*
X161316066Y-52705061D01*
X161239890Y-52736307D01*
X161153257Y-52801952D01*
X161214830Y-52812077D01*
X161226000Y-52811077D01*
X161455681Y-52812270D01*
X161554875Y-52881372D01*
X161564667Y-52938945D01*
X161500752Y-53071239D01*
X161338266Y-53099467D01*
X161183667Y-53047698D01*
X161068491Y-52996607D01*
X161085251Y-53044885D01*
X161130533Y-53101472D01*
X161311314Y-53230168D01*
X161311314Y-53309314D01*
X161271279Y-53309744D01*
X161024538Y-53265147D01*
X160975255Y-53244076D01*
X160793286Y-53186593D01*
X160691977Y-53234490D01*
X160538423Y-53294950D01*
X160264395Y-53319538D01*
X159914979Y-53307927D01*
X159535260Y-53259795D01*
X159448000Y-53243449D01*
X159198980Y-53207194D01*
X159016117Y-53235026D01*
X158815979Y-53345942D01*
X158726687Y-53407711D01*
X158386375Y-53648151D01*
X157689521Y-53192758D01*
X157392415Y-52987243D01*
X157158396Y-52803756D01*
X157018510Y-52667851D01*
X156992667Y-52619108D01*
X157057631Y-52517597D01*
G36*
X169191984Y-46874183D02*
G01*
X169210477Y-46739510D01*
X169221125Y-46723000D01*
X169312240Y-46710067D01*
X169543810Y-46674088D01*
X169889171Y-46619293D01*
X170321658Y-46549915D01*
X170814603Y-46470184D01*
X170821891Y-46469000D01*
X171316654Y-46389081D01*
X171752445Y-46319478D01*
X172102294Y-46264435D01*
X172339226Y-46228195D01*
X172436270Y-46215002D01*
X172436432Y-46215000D01*
X172471935Y-46288609D01*
X172486667Y-46465164D01*
X172464189Y-46638930D01*
X172363291Y-46726990D01*
X172190333Y-46770920D01*
X171996513Y-46821969D01*
X171913149Y-46915257D01*
X171894148Y-47109808D01*
X171894000Y-47150392D01*
X171906262Y-47362932D01*
X171971320Y-47460461D01*
X172131582Y-47496986D01*
X172169167Y-47500803D01*
X172366671Y-47545020D01*
X172452142Y-47657318D01*
X172471124Y-47760167D01*
X172468136Y-47928287D01*
X172425857Y-47993000D01*
X172325744Y-47980257D01*
X172090863Y-47945435D01*
X171753582Y-47893646D01*
X171386000Y-47836211D01*
X171386000Y-47335394D01*
X171386000Y-47104685D01*
X171364835Y-46942076D01*
X171273133Y-46905239D01*
X171195500Y-46919213D01*
X171007322Y-46954130D01*
X170723907Y-46996268D01*
X170506414Y-47024282D01*
X170232241Y-47069584D01*
X170125562Y-47118489D01*
X170184613Y-47169561D01*
X170407630Y-47221366D01*
X170792848Y-47272470D01*
X170814500Y-47274786D01*
X171386000Y-47335394D01*
X171386000Y-47836211D01*
X171346269Y-47830002D01*
X170901292Y-47759614D01*
X170451020Y-47687594D01*
X170027820Y-47619054D01*
X169664060Y-47559105D01*
X169459833Y-47524596D01*
X169289556Y-47483154D01*
X169209584Y-47401814D01*
X169185961Y-47228200D01*
X169184667Y-47100164D01*
X169191984Y-46874183D01*
G37*
X169191984Y-46874183D02*
X169210477Y-46739510D01*
X169221125Y-46723000D01*
X169312240Y-46710067D01*
X169543810Y-46674088D01*
X169889171Y-46619293D01*
X170321658Y-46549915D01*
X170814603Y-46470184D01*
X170821891Y-46469000D01*
X171316654Y-46389081D01*
X171752445Y-46319478D01*
X172102294Y-46264435D01*
X172339226Y-46228195D01*
X172436270Y-46215002D01*
X172436432Y-46215000D01*
X172471935Y-46288609D01*
X172486667Y-46465164D01*
X172464189Y-46638930D01*
X172363291Y-46726990D01*
X172190333Y-46770920D01*
X171996513Y-46821969D01*
X171913149Y-46915257D01*
X171894148Y-47109808D01*
X171894000Y-47150392D01*
X171906262Y-47362932D01*
X171971320Y-47460461D01*
X172131582Y-47496986D01*
X172169167Y-47500803D01*
X172366671Y-47545020D01*
X172452142Y-47657318D01*
X172471124Y-47760167D01*
X172468136Y-47928287D01*
X172425857Y-47993000D01*
X172325744Y-47980257D01*
X172090863Y-47945435D01*
X171753582Y-47893646D01*
X171386000Y-47836211D01*
X171386000Y-47335394D01*
X171386000Y-47104685D01*
X171364835Y-46942076D01*
X171273133Y-46905239D01*
X171195500Y-46919213D01*
X171007322Y-46954130D01*
X170723907Y-46996268D01*
X170506414Y-47024282D01*
X170232241Y-47069584D01*
X170125562Y-47118489D01*
X170184613Y-47169561D01*
X170407630Y-47221366D01*
X170792848Y-47272470D01*
X170814500Y-47274786D01*
X171386000Y-47335394D01*
X171386000Y-47836211D01*
X171346269Y-47830002D01*
X170901292Y-47759614D01*
X170451020Y-47687594D01*
X170027820Y-47619054D01*
X169664060Y-47559105D01*
X169459833Y-47524596D01*
X169289556Y-47483154D01*
X169209584Y-47401814D01*
X169185961Y-47228200D01*
X169184667Y-47100164D01*
X169191984Y-46874183D01*
G36*
X169438667Y-48162334D02*
G01*
X169589028Y-48171583D01*
X169664008Y-48228450D01*
X169689814Y-48376615D01*
X169692667Y-48585667D01*
X169692667Y-49009000D01*
X170539333Y-49009000D01*
X170539333Y-48670334D01*
X170549363Y-48453178D01*
X170603718Y-48356643D01*
X170738792Y-48332201D01*
X170793333Y-48331667D01*
X170956200Y-48345041D01*
X171028601Y-48417513D01*
X171046932Y-48597612D01*
X171047333Y-48670334D01*
X171047333Y-49009000D01*
X171978667Y-49009000D01*
X171978667Y-48585667D01*
X171984216Y-48335064D01*
X172018336Y-48210098D01*
X172107235Y-48167087D01*
X172232667Y-48162334D01*
X172486667Y-48162334D01*
X172486667Y-48825556D01*
X172479914Y-49145900D01*
X172462022Y-49397372D01*
X172436535Y-49534759D01*
X172430222Y-49545223D01*
X172331576Y-49562939D01*
X172090967Y-49578376D01*
X171735760Y-49590601D01*
X171293321Y-49598676D01*
X170791015Y-49601666D01*
X170779222Y-49601667D01*
X169184667Y-49601667D01*
X169184667Y-48162334D01*
X169438667Y-48162334D01*
G37*
X169438667Y-48162334D02*
X169589028Y-48171583D01*
X169664008Y-48228450D01*
X169689814Y-48376615D01*
X169692667Y-48585667D01*
X169692667Y-49009000D01*
X170539333Y-49009000D01*
X170539333Y-48670334D01*
X170549363Y-48453178D01*
X170603718Y-48356643D01*
X170738792Y-48332201D01*
X170793333Y-48331667D01*
X170956200Y-48345041D01*
X171028601Y-48417513D01*
X171046932Y-48597612D01*
X171047333Y-48670334D01*
X171047333Y-49009000D01*
X171978667Y-49009000D01*
X171978667Y-48585667D01*
X171984216Y-48335064D01*
X172018336Y-48210098D01*
X172107235Y-48167087D01*
X172232667Y-48162334D01*
X172486667Y-48162334D01*
X172486667Y-48825556D01*
X172479914Y-49145900D01*
X172462022Y-49397372D01*
X172436535Y-49534759D01*
X172430222Y-49545223D01*
X172331576Y-49562939D01*
X172090967Y-49578376D01*
X171735760Y-49590601D01*
X171293321Y-49598676D01*
X170791015Y-49601666D01*
X170779222Y-49601667D01*
X169184667Y-49601667D01*
X169184667Y-48162334D01*
X169438667Y-48162334D01*
G36*
X168631558Y-50495436D02*
G01*
X168775870Y-50195131D01*
X169025401Y-49985437D01*
X169110062Y-49949513D01*
X169410205Y-49863131D01*
X169589229Y-49867850D01*
X169674192Y-49972815D01*
X169692667Y-50146377D01*
X169674382Y-50347269D01*
X169592175Y-50436334D01*
X169459833Y-50463877D01*
X169271163Y-50531416D01*
X169198425Y-50692759D01*
X169218405Y-50876565D01*
X169283092Y-50966629D01*
X169474351Y-51037917D01*
X169686241Y-51004908D01*
X169943743Y-50857204D01*
X170271835Y-50584407D01*
X170330000Y-50530830D01*
X170762455Y-50165881D01*
X171135839Y-49940655D01*
X171474532Y-49847532D01*
X171802916Y-49878893D01*
X172071175Y-49986722D01*
X172323458Y-50203332D01*
X172464842Y-50505319D01*
X172489649Y-50845385D01*
X172392201Y-51176233D01*
X172239179Y-51386180D01*
X172007407Y-51565573D01*
X171747898Y-51630490D01*
X171646513Y-51633667D01*
X171426943Y-51625061D01*
X171328311Y-51572067D01*
X171302262Y-51433924D01*
X171301333Y-51342698D01*
X171317759Y-51143798D01*
X171400030Y-51056336D01*
X171576500Y-51025198D01*
X171774284Y-50980742D01*
X171859764Y-50868321D01*
X171878172Y-50768787D01*
X171865599Y-50588040D01*
X171744320Y-50500269D01*
X171696791Y-50486730D01*
X171416112Y-50498344D01*
X171090766Y-50665232D01*
X170716254Y-50989817D01*
X170666333Y-51041000D01*
X170314646Y-51364059D01*
X169996448Y-51553584D01*
X169674379Y-51629844D01*
X169573855Y-51633667D01*
X169165936Y-51570941D01*
X168857835Y-51390189D01*
X168712650Y-51198055D01*
X168605980Y-50843896D01*
X168631558Y-50495436D01*
G37*
X168631558Y-50495436D02*
X168775870Y-50195131D01*
X169025401Y-49985437D01*
X169110062Y-49949513D01*
X169410205Y-49863131D01*
X169589229Y-49867850D01*
X169674192Y-49972815D01*
X169692667Y-50146377D01*
X169674382Y-50347269D01*
X169592175Y-50436334D01*
X169459833Y-50463877D01*
X169271163Y-50531416D01*
X169198425Y-50692759D01*
X169218405Y-50876565D01*
X169283092Y-50966629D01*
X169474351Y-51037917D01*
X169686241Y-51004908D01*
X169943743Y-50857204D01*
X170271835Y-50584407D01*
X170330000Y-50530830D01*
X170762455Y-50165881D01*
X171135839Y-49940655D01*
X171474532Y-49847532D01*
X171802916Y-49878893D01*
X172071175Y-49986722D01*
X172323458Y-50203332D01*
X172464842Y-50505319D01*
X172489649Y-50845385D01*
X172392201Y-51176233D01*
X172239179Y-51386180D01*
X172007407Y-51565573D01*
X171747898Y-51630490D01*
X171646513Y-51633667D01*
X171426943Y-51625061D01*
X171328311Y-51572067D01*
X171302262Y-51433924D01*
X171301333Y-51342698D01*
X171317759Y-51143798D01*
X171400030Y-51056336D01*
X171576500Y-51025198D01*
X171774284Y-50980742D01*
X171859764Y-50868321D01*
X171878172Y-50768787D01*
X171865599Y-50588040D01*
X171744320Y-50500269D01*
X171696791Y-50486730D01*
X171416112Y-50498344D01*
X171090766Y-50665232D01*
X170716254Y-50989817D01*
X170666333Y-51041000D01*
X170314646Y-51364059D01*
X169996448Y-51553584D01*
X169674379Y-51629844D01*
X169573855Y-51633667D01*
X169165936Y-51570941D01*
X168857835Y-51390189D01*
X168712650Y-51198055D01*
X168605980Y-50843896D01*
X168631558Y-50495436D01*
G36*
X169200095Y-52774893D02*
G01*
X169247865Y-52373742D01*
X169349358Y-52105058D01*
X169532716Y-51943995D01*
X169826080Y-51865704D01*
X170252832Y-51845334D01*
X170589234Y-51851030D01*
X170802152Y-51875709D01*
X170937266Y-51930755D01*
X171040255Y-52027554D01*
X171054814Y-52045214D01*
X171170131Y-52273720D01*
X171216667Y-52532047D01*
X171216667Y-52819000D01*
X172486667Y-52819000D01*
X172486667Y-53327000D01*
X170243000Y-53327000D01*
X170243000Y-52819000D01*
X170543138Y-52812789D01*
X170710526Y-52787445D01*
X170781506Y-52732905D01*
X170793333Y-52666600D01*
X170739728Y-52478791D01*
X170691733Y-52412600D01*
X170538479Y-52346165D01*
X170291731Y-52313924D01*
X170024661Y-52320125D01*
X169826591Y-52362392D01*
X169722457Y-52477923D01*
X169692667Y-52616392D01*
X169703506Y-52725376D01*
X169761478Y-52786088D01*
X169904762Y-52812582D01*
X170171538Y-52818916D01*
X170243000Y-52819000D01*
X170243000Y-53327000D01*
X169164940Y-53327000D01*
X169200095Y-52774893D01*
G37*
X169200095Y-52774893D02*
X169247865Y-52373742D01*
X169349358Y-52105058D01*
X169532716Y-51943995D01*
X169826080Y-51865704D01*
X170252832Y-51845334D01*
X170589234Y-51851030D01*
X170802152Y-51875709D01*
X170937266Y-51930755D01*
X171040255Y-52027554D01*
X171054814Y-52045214D01*
X171170131Y-52273720D01*
X171216667Y-52532047D01*
X171216667Y-52819000D01*
X172486667Y-52819000D01*
X172486667Y-53327000D01*
X170243000Y-53327000D01*
X170243000Y-52819000D01*
X170543138Y-52812789D01*
X170710526Y-52787445D01*
X170781506Y-52732905D01*
X170793333Y-52666600D01*
X170739728Y-52478791D01*
X170691733Y-52412600D01*
X170538479Y-52346165D01*
X170291731Y-52313924D01*
X170024661Y-52320125D01*
X169826591Y-52362392D01*
X169722457Y-52477923D01*
X169692667Y-52616392D01*
X169703506Y-52725376D01*
X169761478Y-52786088D01*
X169904762Y-52812582D01*
X170171538Y-52818916D01*
X170243000Y-52819000D01*
X170243000Y-53327000D01*
X169164940Y-53327000D01*
X169200095Y-52774893D01*
G36*
X169438667Y-53665667D02*
G01*
X169589028Y-53674916D01*
X169664008Y-53731783D01*
X169689814Y-53879948D01*
X169692667Y-54089000D01*
X169692667Y-54512334D01*
X170539333Y-54512334D01*
X170539333Y-54173667D01*
X170549363Y-53956512D01*
X170603718Y-53859977D01*
X170738792Y-53835535D01*
X170793333Y-53835000D01*
X170956200Y-53848374D01*
X171028601Y-53920847D01*
X171046932Y-54100945D01*
X171047333Y-54173667D01*
X171047333Y-54512334D01*
X171978667Y-54512334D01*
X171978667Y-54089000D01*
X171984216Y-53838398D01*
X172018336Y-53713431D01*
X172107235Y-53670421D01*
X172232667Y-53665667D01*
X172486667Y-53665667D01*
X172486667Y-55020334D01*
X169184667Y-55020334D01*
X169184667Y-53665667D01*
X169438667Y-53665667D01*
G37*
X169438667Y-53665667D02*
X169589028Y-53674916D01*
X169664008Y-53731783D01*
X169689814Y-53879948D01*
X169692667Y-54089000D01*
X169692667Y-54512334D01*
X170539333Y-54512334D01*
X170539333Y-54173667D01*
X170549363Y-53956512D01*
X170603718Y-53859977D01*
X170738792Y-53835535D01*
X170793333Y-53835000D01*
X170956200Y-53848374D01*
X171028601Y-53920847D01*
X171046932Y-54100945D01*
X171047333Y-54173667D01*
X171047333Y-54512334D01*
X171978667Y-54512334D01*
X171978667Y-54089000D01*
X171984216Y-53838398D01*
X172018336Y-53713431D01*
X172107235Y-53670421D01*
X172232667Y-53665667D01*
X172486667Y-53665667D01*
X172486667Y-55020334D01*
X169184667Y-55020334D01*
X169184667Y-53665667D01*
X169438667Y-53665667D01*
G36*
X169438667Y-55359000D02*
G01*
X169589028Y-55368249D01*
X169664008Y-55425116D01*
X169689814Y-55573281D01*
X169692667Y-55782334D01*
X169692667Y-56205667D01*
X170539333Y-56205667D01*
X170539333Y-55867000D01*
X170549363Y-55649845D01*
X170603718Y-55553310D01*
X170738792Y-55528868D01*
X170793333Y-55528334D01*
X170956200Y-55541708D01*
X171028601Y-55614180D01*
X171046932Y-55794279D01*
X171047333Y-55867000D01*
X171047333Y-56205667D01*
X171978667Y-56205667D01*
X171978667Y-55782334D01*
X171984216Y-55531731D01*
X172018336Y-55406764D01*
X172107235Y-55363754D01*
X172232667Y-55359000D01*
X172486667Y-55359000D01*
X172486667Y-56713667D01*
X169184667Y-56713667D01*
X169184667Y-55359000D01*
X169438667Y-55359000D01*
G37*
X169438667Y-55359000D02*
X169589028Y-55368249D01*
X169664008Y-55425116D01*
X169689814Y-55573281D01*
X169692667Y-55782334D01*
X169692667Y-56205667D01*
X170539333Y-56205667D01*
X170539333Y-55867000D01*
X170549363Y-55649845D01*
X170603718Y-55553310D01*
X170738792Y-55528868D01*
X170793333Y-55528334D01*
X170956200Y-55541708D01*
X171028601Y-55614180D01*
X171046932Y-55794279D01*
X171047333Y-55867000D01*
X171047333Y-56205667D01*
X171978667Y-56205667D01*
X171978667Y-55782334D01*
X171984216Y-55531731D01*
X172018336Y-55406764D01*
X172107235Y-55363754D01*
X172232667Y-55359000D01*
X172486667Y-55359000D01*
X172486667Y-56713667D01*
X169184667Y-56713667D01*
X169184667Y-55359000D01*
X169438667Y-55359000D01*
G36*
X168682197Y-57882395D02*
G01*
X168705855Y-57653842D01*
X168758236Y-57501867D01*
X168849936Y-57380174D01*
X168878874Y-57350430D01*
X169023358Y-57232805D01*
X169203469Y-57148342D01*
X169445690Y-57093164D01*
X169776504Y-57063397D01*
X170222392Y-57055163D01*
X170809836Y-57064586D01*
X170828567Y-57065066D01*
X171290750Y-57078372D01*
X171615706Y-57094327D01*
X171835510Y-57118928D01*
X171982236Y-57158173D01*
X172087959Y-57218061D01*
X172184751Y-57304589D01*
X172202183Y-57321938D01*
X172319372Y-57458312D01*
X172392804Y-57611834D01*
X172436563Y-57830569D01*
X172464734Y-58162582D01*
X172468891Y-58232104D01*
X172508423Y-58915000D01*
X169184667Y-58915000D01*
X169184667Y-58322334D01*
X171894000Y-58322334D01*
X171894000Y-58066238D01*
X171854261Y-57857136D01*
X171707685Y-57740064D01*
X171676821Y-57727572D01*
X171481679Y-57688803D01*
X171165061Y-57662689D01*
X170774352Y-57649230D01*
X170356935Y-57648425D01*
X169960197Y-57660274D01*
X169631520Y-57684778D01*
X169418289Y-57721936D01*
X169401845Y-57727572D01*
X169237331Y-57836979D01*
X169185309Y-58029600D01*
X169184667Y-58066238D01*
X169184667Y-58322334D01*
X169184667Y-58915000D01*
X168676667Y-58915000D01*
X168676667Y-58233819D01*
X168682197Y-57882395D01*
G37*
X168682197Y-57882395D02*
X168705855Y-57653842D01*
X168758236Y-57501867D01*
X168849936Y-57380174D01*
X168878874Y-57350430D01*
X169023358Y-57232805D01*
X169203469Y-57148342D01*
X169445690Y-57093164D01*
X169776504Y-57063397D01*
X170222392Y-57055163D01*
X170809836Y-57064586D01*
X170828567Y-57065066D01*
X171290750Y-57078372D01*
X171615706Y-57094327D01*
X171835510Y-57118928D01*
X171982236Y-57158173D01*
X172087959Y-57218061D01*
X172184751Y-57304589D01*
X172202183Y-57321938D01*
X172319372Y-57458312D01*
X172392804Y-57611834D01*
X172436563Y-57830569D01*
X172464734Y-58162582D01*
X172468891Y-58232104D01*
X172508423Y-58915000D01*
X169184667Y-58915000D01*
X169184667Y-58322334D01*
X171894000Y-58322334D01*
X171894000Y-58066238D01*
X171854261Y-57857136D01*
X171707685Y-57740064D01*
X171676821Y-57727572D01*
X171481679Y-57688803D01*
X171165061Y-57662689D01*
X170774352Y-57649230D01*
X170356935Y-57648425D01*
X169960197Y-57660274D01*
X169631520Y-57684778D01*
X169418289Y-57721936D01*
X169401845Y-57727572D01*
X169237331Y-57836979D01*
X169185309Y-58029600D01*
X169184667Y-58066238D01*
X169184667Y-58322334D01*
X169184667Y-58915000D01*
X168676667Y-58915000D01*
X168676667Y-58233819D01*
X168682197Y-57882395D01*
G36*
X173194557Y-48416398D02*
G01*
X173200445Y-48416334D01*
X173309242Y-48344363D01*
X173359029Y-48225834D01*
X173396503Y-48035334D01*
X173459460Y-48225834D01*
X173548782Y-48363663D01*
X173727225Y-48413837D01*
X173810220Y-48416334D01*
X174005290Y-48400973D01*
X174081951Y-48327238D01*
X174091299Y-48183500D01*
X174095822Y-47945203D01*
X174111121Y-47790446D01*
X174092651Y-47636198D01*
X174006186Y-47599879D01*
X173910230Y-47686850D01*
X173879148Y-47769193D01*
X173764483Y-47979823D01*
X173576683Y-48048629D01*
X173460333Y-48023618D01*
X173382023Y-47925575D01*
X173338956Y-47748659D01*
X173335338Y-47559870D01*
X173375374Y-47426207D01*
X173421204Y-47400334D01*
X173477723Y-47472127D01*
X173484704Y-47624286D01*
X173497078Y-47819718D01*
X173570588Y-47870841D01*
X173672809Y-47774480D01*
X173732923Y-47648576D01*
X173833295Y-47463964D01*
X173967738Y-47410416D01*
X174026943Y-47414971D01*
X174135389Y-47446644D01*
X174197817Y-47530094D01*
X174230483Y-47706179D01*
X174247472Y-47969224D01*
X174256329Y-48259231D01*
X174239448Y-48422623D01*
X174184275Y-48501603D01*
X174078252Y-48538375D01*
X174078139Y-48538400D01*
X173768639Y-48583730D01*
X173423272Y-48603712D01*
X173227500Y-48598435D01*
X173103989Y-48545376D01*
X173089621Y-48461901D01*
X173194557Y-48416398D01*
G37*
X173194557Y-48416398D02*
X173200445Y-48416334D01*
X173309242Y-48344363D01*
X173359029Y-48225834D01*
X173396503Y-48035334D01*
X173459460Y-48225834D01*
X173548782Y-48363663D01*
X173727225Y-48413837D01*
X173810220Y-48416334D01*
X174005290Y-48400973D01*
X174081951Y-48327238D01*
X174091299Y-48183500D01*
X174095822Y-47945203D01*
X174111121Y-47790446D01*
X174092651Y-47636198D01*
X174006186Y-47599879D01*
X173910230Y-47686850D01*
X173879148Y-47769193D01*
X173764483Y-47979823D01*
X173576683Y-48048629D01*
X173460333Y-48023618D01*
X173382023Y-47925575D01*
X173338956Y-47748659D01*
X173335338Y-47559870D01*
X173375374Y-47426207D01*
X173421204Y-47400334D01*
X173477723Y-47472127D01*
X173484704Y-47624286D01*
X173497078Y-47819718D01*
X173570588Y-47870841D01*
X173672809Y-47774480D01*
X173732923Y-47648576D01*
X173833295Y-47463964D01*
X173967738Y-47410416D01*
X174026943Y-47414971D01*
X174135389Y-47446644D01*
X174197817Y-47530094D01*
X174230483Y-47706179D01*
X174247472Y-47969224D01*
X174256329Y-48259231D01*
X174239448Y-48422623D01*
X174184275Y-48501603D01*
X174078252Y-48538375D01*
X174078139Y-48538400D01*
X173768639Y-48583730D01*
X173423272Y-48603712D01*
X173227500Y-48598435D01*
X173103989Y-48545376D01*
X173089621Y-48461901D01*
X173194557Y-48416398D01*
G36*
X173366990Y-48980742D02*
G01*
X173426529Y-48836074D01*
X173441092Y-48823604D01*
X173586698Y-48779010D01*
X173802692Y-48759172D01*
X174028178Y-48763260D01*
X174202259Y-48790448D01*
X174264667Y-48834799D01*
X174189183Y-48889019D01*
X173999373Y-48930980D01*
X173904833Y-48940632D01*
X173669914Y-48973014D01*
X173556067Y-49042972D01*
X173517945Y-49157167D01*
X173517749Y-49273887D01*
X173588552Y-49329826D01*
X173771656Y-49346852D01*
X173877778Y-49347667D01*
X174107031Y-49364243D01*
X174245766Y-49406248D01*
X174264667Y-49432334D01*
X174188239Y-49479300D01*
X173991624Y-49510044D01*
X173812718Y-49517000D01*
X173360770Y-49517000D01*
X173348977Y-49203307D01*
X173366990Y-48980742D01*
G37*
X173366990Y-48980742D02*
X173426529Y-48836074D01*
X173441092Y-48823604D01*
X173586698Y-48779010D01*
X173802692Y-48759172D01*
X174028178Y-48763260D01*
X174202259Y-48790448D01*
X174264667Y-48834799D01*
X174189183Y-48889019D01*
X173999373Y-48930980D01*
X173904833Y-48940632D01*
X173669914Y-48973014D01*
X173556067Y-49042972D01*
X173517945Y-49157167D01*
X173517749Y-49273887D01*
X173588552Y-49329826D01*
X173771656Y-49346852D01*
X173877778Y-49347667D01*
X174107031Y-49364243D01*
X174245766Y-49406248D01*
X174264667Y-49432334D01*
X174188239Y-49479300D01*
X173991624Y-49510044D01*
X173812718Y-49517000D01*
X173360770Y-49517000D01*
X173348977Y-49203307D01*
X173366990Y-48980742D01*
G36*
X173399270Y-49794311D02*
G01*
X173467258Y-49737726D01*
X173689701Y-49684903D01*
X173805950Y-49755375D01*
X173841239Y-49965666D01*
X173841333Y-49982667D01*
X173865905Y-50196307D01*
X173948747Y-50276356D01*
X173977596Y-50279000D01*
X174067619Y-50239822D01*
X174088960Y-50096092D01*
X174079264Y-49982667D01*
X174078227Y-49763471D01*
X174146302Y-49686728D01*
X174154668Y-49686334D01*
X174230160Y-49757481D01*
X174262611Y-49927536D01*
X174251194Y-50131419D01*
X174195081Y-50304052D01*
X174163067Y-50346734D01*
X173988624Y-50426158D01*
X173744916Y-50443720D01*
X173566167Y-50408466D01*
X173566167Y-50257834D01*
X173648500Y-50216157D01*
X173672000Y-50067334D01*
X173639599Y-49902490D01*
X173566167Y-49876834D01*
X173476400Y-49980013D01*
X173460333Y-50067334D01*
X173510281Y-50215641D01*
X173566167Y-50257834D01*
X173566167Y-50408466D01*
X173520303Y-50399420D01*
X173434933Y-50346734D01*
X173350672Y-50178351D01*
X173340130Y-49968853D01*
X173399270Y-49794311D01*
G37*
X173399270Y-49794311D02*
X173467258Y-49737726D01*
X173689701Y-49684903D01*
X173805950Y-49755375D01*
X173841239Y-49965666D01*
X173841333Y-49982667D01*
X173865905Y-50196307D01*
X173948747Y-50276356D01*
X173977596Y-50279000D01*
X174067619Y-50239822D01*
X174088960Y-50096092D01*
X174079264Y-49982667D01*
X174078227Y-49763471D01*
X174146302Y-49686728D01*
X174154668Y-49686334D01*
X174230160Y-49757481D01*
X174262611Y-49927536D01*
X174251194Y-50131419D01*
X174195081Y-50304052D01*
X174163067Y-50346734D01*
X173988624Y-50426158D01*
X173744916Y-50443720D01*
X173566167Y-50408466D01*
X173566167Y-50257834D01*
X173648500Y-50216157D01*
X173672000Y-50067334D01*
X173639599Y-49902490D01*
X173566167Y-49876834D01*
X173476400Y-49980013D01*
X173460333Y-50067334D01*
X173510281Y-50215641D01*
X173566167Y-50257834D01*
X173566167Y-50408466D01*
X173520303Y-50399420D01*
X173434933Y-50346734D01*
X173350672Y-50178351D01*
X173340130Y-49968853D01*
X173399270Y-49794311D01*
G36*
X173362865Y-50974606D02*
G01*
X173402890Y-50752224D01*
X173444995Y-50683858D01*
X173591405Y-50639379D01*
X173807544Y-50621011D01*
X174032350Y-50627377D01*
X174204761Y-50657101D01*
X174264667Y-50702334D01*
X174188992Y-50752827D01*
X173997529Y-50783116D01*
X173883667Y-50787000D01*
X173645572Y-50798080D01*
X173532984Y-50844086D01*
X173502812Y-50944169D01*
X173502667Y-50956334D01*
X173527595Y-51062154D01*
X173631108Y-51112193D01*
X173856296Y-51125603D01*
X173883667Y-51125667D01*
X174147077Y-51147236D01*
X174253337Y-51198041D01*
X174200070Y-51257232D01*
X173984897Y-51303958D01*
X173904833Y-51311299D01*
X173672579Y-51342710D01*
X173566933Y-51407479D01*
X173545000Y-51506667D01*
X173576039Y-51618209D01*
X173697431Y-51676708D01*
X173904833Y-51702035D01*
X174159291Y-51739288D01*
X174255193Y-51791890D01*
X174200443Y-51844118D01*
X174002944Y-51880247D01*
X173811533Y-51887667D01*
X173358399Y-51887667D01*
X173351694Y-51317562D01*
X173362865Y-50974606D01*
G37*
X173362865Y-50974606D02*
X173402890Y-50752224D01*
X173444995Y-50683858D01*
X173591405Y-50639379D01*
X173807544Y-50621011D01*
X174032350Y-50627377D01*
X174204761Y-50657101D01*
X174264667Y-50702334D01*
X174188992Y-50752827D01*
X173997529Y-50783116D01*
X173883667Y-50787000D01*
X173645572Y-50798080D01*
X173532984Y-50844086D01*
X173502812Y-50944169D01*
X173502667Y-50956334D01*
X173527595Y-51062154D01*
X173631108Y-51112193D01*
X173856296Y-51125603D01*
X173883667Y-51125667D01*
X174147077Y-51147236D01*
X174253337Y-51198041D01*
X174200070Y-51257232D01*
X173984897Y-51303958D01*
X173904833Y-51311299D01*
X173672579Y-51342710D01*
X173566933Y-51407479D01*
X173545000Y-51506667D01*
X173576039Y-51618209D01*
X173697431Y-51676708D01*
X173904833Y-51702035D01*
X174159291Y-51739288D01*
X174255193Y-51791890D01*
X174200443Y-51844118D01*
X174002944Y-51880247D01*
X173811533Y-51887667D01*
X173358399Y-51887667D01*
X173351694Y-51317562D01*
X173362865Y-50974606D01*
G36*
X173400424Y-53138312D02*
G01*
X173598739Y-53012261D01*
X173799000Y-52988334D01*
X174081360Y-53043227D01*
X174235423Y-53205484D01*
X174264667Y-53369334D01*
X174218816Y-53563629D01*
X174163067Y-53648734D01*
X174010166Y-53721605D01*
X173801003Y-53750061D01*
X173801003Y-53581000D01*
X174002519Y-53552260D01*
X174114991Y-53482349D01*
X174118139Y-53475167D01*
X174122114Y-53287254D01*
X173980841Y-53180477D01*
X173796997Y-53157667D01*
X173595481Y-53186408D01*
X173483009Y-53256319D01*
X173479861Y-53263500D01*
X173475886Y-53451413D01*
X173617158Y-53558191D01*
X173801003Y-53581000D01*
X173801003Y-53750061D01*
X173799000Y-53750334D01*
X173516640Y-53695441D01*
X173362577Y-53533184D01*
X173333333Y-53369334D01*
X173400424Y-53138312D01*
G37*
X173400424Y-53138312D02*
X173598739Y-53012261D01*
X173799000Y-52988334D01*
X174081360Y-53043227D01*
X174235423Y-53205484D01*
X174264667Y-53369334D01*
X174218816Y-53563629D01*
X174163067Y-53648734D01*
X174010166Y-53721605D01*
X173801003Y-53750061D01*
X173801003Y-53581000D01*
X174002519Y-53552260D01*
X174114991Y-53482349D01*
X174118139Y-53475167D01*
X174122114Y-53287254D01*
X173980841Y-53180477D01*
X173796997Y-53157667D01*
X173595481Y-53186408D01*
X173483009Y-53256319D01*
X173479861Y-53263500D01*
X173475886Y-53451413D01*
X173617158Y-53558191D01*
X173801003Y-53581000D01*
X173801003Y-53750061D01*
X173799000Y-53750334D01*
X173516640Y-53695441D01*
X173362577Y-53533184D01*
X173333333Y-53369334D01*
X173400424Y-53138312D01*
G36*
X173073459Y-53961672D02*
G01*
X173286744Y-53931937D01*
X173599888Y-53919746D01*
X173629667Y-53919667D01*
X173949627Y-53930173D01*
X174172641Y-53958611D01*
X174264072Y-54000363D01*
X174264667Y-54004334D01*
X174185874Y-54046995D01*
X173972589Y-54076730D01*
X173659445Y-54088921D01*
X173629667Y-54089000D01*
X173309706Y-54078495D01*
X173086692Y-54050057D01*
X172995261Y-54008304D01*
X172994667Y-54004334D01*
X173073459Y-53961672D01*
G37*
X173073459Y-53961672D02*
X173286744Y-53931937D01*
X173599888Y-53919746D01*
X173629667Y-53919667D01*
X173949627Y-53930173D01*
X174172641Y-53958611D01*
X174264072Y-54000363D01*
X174264667Y-54004334D01*
X174185874Y-54046995D01*
X173972589Y-54076730D01*
X173659445Y-54088921D01*
X173629667Y-54089000D01*
X173309706Y-54078495D01*
X173086692Y-54050057D01*
X172995261Y-54008304D01*
X172994667Y-54004334D01*
X173073459Y-53961672D01*
G36*
X173384068Y-54437715D02*
G01*
X173517267Y-54296762D01*
X173682367Y-54258334D01*
X173787511Y-54291050D01*
X173833516Y-54417588D01*
X173841333Y-54594343D01*
X173853791Y-54808516D01*
X173901885Y-54888385D01*
X173976187Y-54878604D01*
X174070332Y-54778822D01*
X174080145Y-54563648D01*
X174077686Y-54541150D01*
X174076358Y-54345576D01*
X174127394Y-54283070D01*
X174133332Y-54284576D01*
X174203110Y-54380619D01*
X174247938Y-54571895D01*
X174248475Y-54577142D01*
X174231600Y-54797706D01*
X174098626Y-54953946D01*
X174048219Y-54988919D01*
X173870928Y-55084041D01*
X173728095Y-55075995D01*
X173598744Y-55012468D01*
X173566167Y-54981931D01*
X173566167Y-54829834D01*
X173648500Y-54788157D01*
X173672000Y-54639334D01*
X173639599Y-54474490D01*
X173566167Y-54448834D01*
X173476400Y-54552013D01*
X173460333Y-54639334D01*
X173510281Y-54787641D01*
X173566167Y-54829834D01*
X173566167Y-54981931D01*
X173419397Y-54844351D01*
X173349641Y-54636505D01*
X173384068Y-54437715D01*
G37*
X173384068Y-54437715D02*
X173517267Y-54296762D01*
X173682367Y-54258334D01*
X173787511Y-54291050D01*
X173833516Y-54417588D01*
X173841333Y-54594343D01*
X173853791Y-54808516D01*
X173901885Y-54888385D01*
X173976187Y-54878604D01*
X174070332Y-54778822D01*
X174080145Y-54563648D01*
X174077686Y-54541150D01*
X174076358Y-54345576D01*
X174127394Y-54283070D01*
X174133332Y-54284576D01*
X174203110Y-54380619D01*
X174247938Y-54571895D01*
X174248475Y-54577142D01*
X174231600Y-54797706D01*
X174098626Y-54953946D01*
X174048219Y-54988919D01*
X173870928Y-55084041D01*
X173728095Y-55075995D01*
X173598744Y-55012468D01*
X173566167Y-54981931D01*
X173566167Y-54829834D01*
X173648500Y-54788157D01*
X173672000Y-54639334D01*
X173639599Y-54474490D01*
X173566167Y-54448834D01*
X173476400Y-54552013D01*
X173460333Y-54639334D01*
X173510281Y-54787641D01*
X173566167Y-54829834D01*
X173566167Y-54981931D01*
X173419397Y-54844351D01*
X173349641Y-54636505D01*
X173384068Y-54437715D01*
G36*
X173441040Y-55157167D02*
G01*
X173631975Y-55217312D01*
X173863876Y-55308096D01*
X174081792Y-55406904D01*
X174230773Y-55491121D01*
X174264667Y-55528334D01*
X174192072Y-55595322D01*
X174004692Y-55692039D01*
X173820167Y-55767844D01*
X173572985Y-55854142D01*
X173399076Y-55902857D01*
X173346022Y-55906394D01*
X173347169Y-55820903D01*
X173471223Y-55726263D01*
X173672971Y-55655121D01*
X173850245Y-55595665D01*
X173925963Y-55529554D01*
X173926000Y-55528334D01*
X173853089Y-55462428D01*
X173677278Y-55402503D01*
X173672971Y-55401547D01*
X173468414Y-55328946D01*
X173346044Y-55234200D01*
X173346022Y-55150274D01*
X173441040Y-55157167D01*
G37*
X173441040Y-55157167D02*
X173631975Y-55217312D01*
X173863876Y-55308096D01*
X174081792Y-55406904D01*
X174230773Y-55491121D01*
X174264667Y-55528334D01*
X174192072Y-55595322D01*
X174004692Y-55692039D01*
X173820167Y-55767844D01*
X173572985Y-55854142D01*
X173399076Y-55902857D01*
X173346022Y-55906394D01*
X173347169Y-55820903D01*
X173471223Y-55726263D01*
X173672971Y-55655121D01*
X173850245Y-55595665D01*
X173925963Y-55529554D01*
X173926000Y-55528334D01*
X173853089Y-55462428D01*
X173677278Y-55402503D01*
X173672971Y-55401547D01*
X173468414Y-55328946D01*
X173346044Y-55234200D01*
X173346022Y-55150274D01*
X173441040Y-55157167D01*
G36*
X173384672Y-56143824D02*
G01*
X173523833Y-56043547D01*
X173712055Y-55999676D01*
X173808835Y-56067781D01*
X173840494Y-56272243D01*
X173841333Y-56337664D01*
X173861867Y-56531553D01*
X173912250Y-56626948D01*
X173921793Y-56629000D01*
X174036508Y-56556694D01*
X174113049Y-56389062D01*
X174118312Y-56200037D01*
X174116721Y-56193642D01*
X174123070Y-56065519D01*
X174170125Y-56036334D01*
X174236074Y-56107565D01*
X174261823Y-56277543D01*
X174248073Y-56480696D01*
X174195526Y-56651451D01*
X174163067Y-56696734D01*
X174010166Y-56769605D01*
X173799000Y-56798334D01*
X173556365Y-56753573D01*
X173556365Y-56618594D01*
X173636165Y-56589883D01*
X173671983Y-56422098D01*
X173672000Y-56417334D01*
X173644717Y-56258193D01*
X173592330Y-56205667D01*
X173474251Y-56272689D01*
X173451777Y-56433067D01*
X173469117Y-56494360D01*
X173556365Y-56618594D01*
X173556365Y-56753573D01*
X173522478Y-56747321D01*
X173371722Y-56586531D01*
X173333333Y-56355339D01*
X173384672Y-56143824D01*
G37*
X173384672Y-56143824D02*
X173523833Y-56043547D01*
X173712055Y-55999676D01*
X173808835Y-56067781D01*
X173840494Y-56272243D01*
X173841333Y-56337664D01*
X173861867Y-56531553D01*
X173912250Y-56626948D01*
X173921793Y-56629000D01*
X174036508Y-56556694D01*
X174113049Y-56389062D01*
X174118312Y-56200037D01*
X174116721Y-56193642D01*
X174123070Y-56065519D01*
X174170125Y-56036334D01*
X174236074Y-56107565D01*
X174261823Y-56277543D01*
X174248073Y-56480696D01*
X174195526Y-56651451D01*
X174163067Y-56696734D01*
X174010166Y-56769605D01*
X173799000Y-56798334D01*
X173556365Y-56753573D01*
X173556365Y-56618594D01*
X173636165Y-56589883D01*
X173671983Y-56422098D01*
X173672000Y-56417334D01*
X173644717Y-56258193D01*
X173592330Y-56205667D01*
X173474251Y-56272689D01*
X173451777Y-56433067D01*
X173469117Y-56494360D01*
X173556365Y-56618594D01*
X173556365Y-56753573D01*
X173522478Y-56747321D01*
X173371722Y-56586531D01*
X173333333Y-56355339D01*
X173384672Y-56143824D01*
G36*
X173073309Y-57009427D02*
G01*
X173285543Y-56979603D01*
X173595825Y-56967705D01*
X173615948Y-56967667D01*
X174237229Y-56967667D01*
X174247850Y-57250165D01*
X174227486Y-57473902D01*
X174163627Y-57627304D01*
X174159968Y-57631165D01*
X173987899Y-57708455D01*
X173858267Y-57717329D01*
X173858267Y-57560334D01*
X174031864Y-57533508D01*
X174091745Y-57422554D01*
X174095333Y-57348667D01*
X174072237Y-57203915D01*
X173969455Y-57145883D01*
X173808058Y-57137000D01*
X173579973Y-57178107D01*
X173465994Y-57282676D01*
X173490266Y-57422580D01*
X173526216Y-57465350D01*
X173676679Y-57536205D01*
X173858267Y-57560334D01*
X173858267Y-57717329D01*
X173745923Y-57725021D01*
X173522063Y-57681239D01*
X173434933Y-57628067D01*
X173352910Y-57465883D01*
X173333333Y-57331734D01*
X173286237Y-57174652D01*
X173164000Y-57137000D01*
X173026419Y-57101544D01*
X172994667Y-57052334D01*
X173073309Y-57009427D01*
G37*
X173073309Y-57009427D02*
X173285543Y-56979603D01*
X173595825Y-56967705D01*
X173615948Y-56967667D01*
X174237229Y-56967667D01*
X174247850Y-57250165D01*
X174227486Y-57473902D01*
X174163627Y-57627304D01*
X174159968Y-57631165D01*
X173987899Y-57708455D01*
X173858267Y-57717329D01*
X173858267Y-57560334D01*
X174031864Y-57533508D01*
X174091745Y-57422554D01*
X174095333Y-57348667D01*
X174072237Y-57203915D01*
X173969455Y-57145883D01*
X173808058Y-57137000D01*
X173579973Y-57178107D01*
X173465994Y-57282676D01*
X173490266Y-57422580D01*
X173526216Y-57465350D01*
X173676679Y-57536205D01*
X173858267Y-57560334D01*
X173858267Y-57717329D01*
X173745923Y-57725021D01*
X173522063Y-57681239D01*
X173434933Y-57628067D01*
X173352910Y-57465883D01*
X173333333Y-57331734D01*
X173286237Y-57174652D01*
X173164000Y-57137000D01*
X173026419Y-57101544D01*
X172994667Y-57052334D01*
X173073309Y-57009427D01*
G36*
X173363435Y-52466129D02*
G01*
X173387400Y-52231938D01*
X173460546Y-52107264D01*
X173611213Y-52034836D01*
X173874408Y-52017482D01*
X174101752Y-52120384D01*
X174242513Y-52312089D01*
X174264667Y-52439952D01*
X174305140Y-52604946D01*
X174434000Y-52649667D01*
X174571580Y-52685123D01*
X174603333Y-52734334D01*
X174524638Y-52777155D01*
X174312032Y-52806948D01*
X174009522Y-52818611D01*
X174009522Y-52636270D01*
X174084085Y-52569877D01*
X174095333Y-52449573D01*
X174040522Y-52264170D01*
X173947167Y-52206992D01*
X173695505Y-52198234D01*
X173545970Y-52288185D01*
X173519391Y-52427870D01*
X173589295Y-52565786D01*
X173774204Y-52628583D01*
X173820167Y-52633865D01*
X174009522Y-52636270D01*
X174009522Y-52818611D01*
X174000738Y-52818950D01*
X173977269Y-52819000D01*
X173351204Y-52819000D01*
X173363435Y-52466129D01*
G37*
X173363435Y-52466129D02*
X173387400Y-52231938D01*
X173460546Y-52107264D01*
X173611213Y-52034836D01*
X173874408Y-52017482D01*
X174101752Y-52120384D01*
X174242513Y-52312089D01*
X174264667Y-52439952D01*
X174305140Y-52604946D01*
X174434000Y-52649667D01*
X174571580Y-52685123D01*
X174603333Y-52734334D01*
X174524638Y-52777155D01*
X174312032Y-52806948D01*
X174009522Y-52818611D01*
X174009522Y-52636270D01*
X174084085Y-52569877D01*
X174095333Y-52449573D01*
X174040522Y-52264170D01*
X173947167Y-52206992D01*
X173695505Y-52198234D01*
X173545970Y-52288185D01*
X173519391Y-52427870D01*
X173589295Y-52565786D01*
X173774204Y-52628583D01*
X173820167Y-52633865D01*
X174009522Y-52636270D01*
X174009522Y-52818611D01*
X174000738Y-52818950D01*
X173977269Y-52819000D01*
X173351204Y-52819000D01*
X173363435Y-52466129D01*
D12*
X127436748Y-109500000D02*
X127959252Y-109500000D01*
X127436748Y-108030000D02*
X127959252Y-108030000D01*
X127436748Y-111905000D02*
X127959252Y-111905000D01*
X127436748Y-113375000D02*
X127959252Y-113375000D01*
X127436748Y-104155000D02*
X127959252Y-104155000D01*
X127436748Y-105625000D02*
X127959252Y-105625000D01*
X127781733Y-115755000D02*
X128074267Y-115755000D01*
X127781733Y-116775000D02*
X128074267Y-116775000D01*
X127451733Y-101875000D02*
X127744267Y-101875000D01*
X127451733Y-100855000D02*
X127744267Y-100855000D01*
X196558000Y-73468733D02*
X196558000Y-73761267D01*
X195538000Y-73468733D02*
X195538000Y-73761267D01*
X193308000Y-73418733D02*
X193308000Y-73711267D01*
X192288000Y-73418733D02*
X192288000Y-73711267D01*
X183908000Y-82311267D02*
X183908000Y-82018733D01*
X182888000Y-82311267D02*
X182888000Y-82018733D01*
X191851733Y-91875000D02*
X192144267Y-91875000D01*
X191851733Y-90855000D02*
X192144267Y-90855000D01*
X191851733Y-89255000D02*
X192144267Y-89255000D01*
X191851733Y-90275000D02*
X192144267Y-90275000D01*
X198251733Y-106855000D02*
X198544267Y-106855000D01*
X198251733Y-107875000D02*
X198544267Y-107875000D01*
X197144267Y-117875000D02*
X196851733Y-117875000D01*
X197144267Y-116855000D02*
X196851733Y-116855000D01*
X127436748Y-93030000D02*
X127959252Y-93030000D01*
X127436748Y-94500000D02*
X127959252Y-94500000D01*
X127551733Y-90255000D02*
X127844267Y-90255000D01*
X127551733Y-91275000D02*
X127844267Y-91275000D01*
X121944267Y-77855000D02*
X121651733Y-77855000D01*
X121944267Y-78875000D02*
X121651733Y-78875000D01*
X127544267Y-83675000D02*
X127251733Y-83675000D01*
X127544267Y-82655000D02*
X127251733Y-82655000D01*
X127544267Y-80855000D02*
X127251733Y-80855000D01*
X127544267Y-81875000D02*
X127251733Y-81875000D01*
X121944267Y-79855000D02*
X121651733Y-79855000D01*
X121944267Y-80875000D02*
X121651733Y-80875000D01*
X143398000Y-102250000D02*
X145858000Y-102250000D01*
X145858000Y-102250000D02*
X145858000Y-100780000D01*
X145858000Y-100780000D02*
X143398000Y-100780000D01*
X160663000Y-69217500D02*
X160663000Y-71677500D01*
X162133000Y-69217500D02*
X160663000Y-69217500D01*
X162133000Y-71677500D02*
X162133000Y-69217500D01*
X191783000Y-100430000D02*
X189323000Y-100430000D01*
X191783000Y-101900000D02*
X191783000Y-100430000D01*
X189323000Y-101900000D02*
X191783000Y-101900000D01*
X189398000Y-104100000D02*
X191858000Y-104100000D01*
X191858000Y-104100000D02*
X191858000Y-102630000D01*
X191858000Y-102630000D02*
X189398000Y-102630000D01*
X192398000Y-94915000D02*
X199298000Y-94915000D01*
X192398000Y-98215000D02*
X199298000Y-98215000D01*
X192398000Y-94915000D02*
X192398000Y-98215000D01*
X134933000Y-73425000D02*
X134933000Y-70965000D01*
X133463000Y-73425000D02*
X134933000Y-73425000D01*
X133463000Y-70965000D02*
X133463000Y-73425000D01*
X135663000Y-70965000D02*
X135663000Y-73425000D01*
X135663000Y-73425000D02*
X137133000Y-73425000D01*
X137133000Y-73425000D02*
X137133000Y-70965000D01*
X123548000Y-86015000D02*
X123548000Y-82715000D01*
X123548000Y-82715000D02*
X116648000Y-82715000D01*
X123548000Y-86015000D02*
X116648000Y-86015000D01*
X147728000Y-88895000D02*
X145068000Y-88895000D01*
X147728000Y-91495000D02*
X147728000Y-88895000D01*
X145068000Y-91495000D02*
X145068000Y-88895000D01*
X147728000Y-91495000D02*
X145068000Y-91495000D01*
X147728000Y-92765000D02*
X147728000Y-94095000D01*
X147728000Y-94095000D02*
X146398000Y-94095000D01*
X139928000Y-91235000D02*
X139928000Y-92565000D01*
X138598000Y-91235000D02*
X139928000Y-91235000D01*
X137328000Y-91235000D02*
X137328000Y-93895000D01*
X137328000Y-93895000D02*
X132188000Y-93895000D01*
X137328000Y-91235000D02*
X132188000Y-91235000D01*
X132188000Y-91235000D02*
X132188000Y-93895000D01*
X149748000Y-64495000D02*
X149748000Y-61835000D01*
X142068000Y-64495000D02*
X149748000Y-64495000D01*
X142068000Y-61835000D02*
X149748000Y-61835000D01*
X142068000Y-64495000D02*
X142068000Y-61835000D01*
X140798000Y-64495000D02*
X139468000Y-64495000D01*
X139468000Y-64495000D02*
X139468000Y-63165000D01*
X194668000Y-79235000D02*
X195998000Y-79235000D01*
X194668000Y-80565000D02*
X194668000Y-79235000D01*
X194668000Y-81835000D02*
X197328000Y-81835000D01*
X197328000Y-81835000D02*
X197328000Y-84435000D01*
X194668000Y-81835000D02*
X194668000Y-84435000D01*
X194668000Y-84435000D02*
X197328000Y-84435000D01*
X190668000Y-84435000D02*
X193328000Y-84435000D01*
X190668000Y-81835000D02*
X190668000Y-84435000D01*
X193328000Y-81835000D02*
X193328000Y-84435000D01*
X190668000Y-81835000D02*
X193328000Y-81835000D01*
X190668000Y-80565000D02*
X190668000Y-79235000D01*
X190668000Y-79235000D02*
X191998000Y-79235000D01*
X175728000Y-78955000D02*
X173068000Y-78955000D01*
X175728000Y-84095000D02*
X175728000Y-78955000D01*
X173068000Y-84095000D02*
X173068000Y-78955000D01*
X175728000Y-84095000D02*
X173068000Y-84095000D01*
X175728000Y-85365000D02*
X175728000Y-86695000D01*
X175728000Y-86695000D02*
X174398000Y-86695000D01*
D13*
X189298000Y-120590000D02*
X191198000Y-120590000D01*
X194798000Y-120590000D02*
X196698000Y-120590000D01*
X196698000Y-121995000D02*
X196698000Y-120590000D01*
X189298000Y-121995000D02*
X189298000Y-120590000D01*
X191748800Y-119725000D02*
G75*
G03*
X191748800Y-119725000I-50800J0D01*
G01*
X117088800Y-75815000D02*
G75*
G03*
X117088800Y-75815000I-50800J0D01*
G01*
X114768000Y-73415000D02*
X116173000Y-73415000D01*
X114768000Y-80815000D02*
X116173000Y-80815000D01*
X116173000Y-78915000D02*
X116173000Y-80815000D01*
X116173000Y-73415000D02*
X116173000Y-75315000D01*
D12*
X192252724Y-92442500D02*
X191743276Y-92442500D01*
X192252724Y-93487500D02*
X191743276Y-93487500D01*
D10*
X160625000Y-109952000D02*
X160625000Y-113052000D01*
X162175000Y-109952000D02*
X160625000Y-109952000D01*
X163445000Y-112772000D02*
X163445000Y-110232000D01*
X160625000Y-113052000D02*
X162175000Y-113052000D01*
X181225000Y-110232000D02*
X163445000Y-110232000D01*
X181225000Y-112772000D02*
X181225000Y-110232000D01*
X163445000Y-112772000D02*
X181225000Y-112772000D01*
X186368500Y-112772000D02*
X199068500Y-112772000D01*
X199068500Y-112772000D02*
X199068500Y-110232000D01*
X199068500Y-110232000D02*
X186368500Y-110232000D01*
X183548500Y-113052000D02*
X185098500Y-113052000D01*
X186368500Y-112772000D02*
X186368500Y-110232000D01*
X185098500Y-109952000D02*
X183548500Y-109952000D01*
X183548500Y-109952000D02*
X183548500Y-113052000D01*
X154364500Y-64512000D02*
X177224500Y-64512000D01*
X177224500Y-64512000D02*
X177224500Y-61972000D01*
X177224500Y-61972000D02*
X154364500Y-61972000D01*
X151544500Y-64792000D02*
X153094500Y-64792000D01*
X154364500Y-64512000D02*
X154364500Y-61972000D01*
X153094500Y-61692000D02*
X151544500Y-61692000D01*
X151544500Y-61692000D02*
X151544500Y-64792000D01*
X181352000Y-64512000D02*
X199132000Y-64512000D01*
X199132000Y-64512000D02*
X199132000Y-61972000D01*
X199132000Y-61972000D02*
X181352000Y-61972000D01*
X178532000Y-64792000D02*
X180082000Y-64792000D01*
X181352000Y-64512000D02*
X181352000Y-61972000D01*
X180082000Y-61692000D02*
X178532000Y-61692000D01*
X178532000Y-61692000D02*
X178532000Y-64792000D01*
D12*
X140193276Y-100992500D02*
X140702724Y-100992500D01*
X140193276Y-102037500D02*
X140702724Y-102037500D01*
X147737725Y-116687500D02*
X147228277Y-116687500D01*
X147737725Y-115642500D02*
X147228277Y-115642500D01*
X147228277Y-114652501D02*
X147737725Y-114652501D01*
X147228277Y-113607501D02*
X147737725Y-113607501D01*
X140752724Y-118737500D02*
X140243276Y-118737500D01*
X140752724Y-117692500D02*
X140243276Y-117692500D01*
X168252724Y-88087500D02*
X167743276Y-88087500D01*
X168252724Y-87042500D02*
X167743276Y-87042500D01*
X168252724Y-85042500D02*
X167743276Y-85042500D01*
X168252724Y-86087500D02*
X167743276Y-86087500D01*
X147752724Y-112687500D02*
X147243276Y-112687500D01*
X147752724Y-111642500D02*
X147243276Y-111642500D01*
X200825500Y-102060276D02*
X200825500Y-102569724D01*
X201870500Y-102060276D02*
X201870500Y-102569724D01*
X167743276Y-84087500D02*
X168252724Y-84087500D01*
X167743276Y-83042500D02*
X168252724Y-83042500D01*
X162675500Y-70622776D02*
X162675500Y-71132224D01*
X163720500Y-70622776D02*
X163720500Y-71132224D01*
X185943276Y-100677501D02*
X186452724Y-100677501D01*
X185943276Y-101722501D02*
X186452724Y-101722501D01*
X185943276Y-103887500D02*
X186452724Y-103887500D01*
X185943276Y-102842500D02*
X186452724Y-102842500D01*
X131652724Y-81887500D02*
X131143276Y-81887500D01*
X131652724Y-80842500D02*
X131143276Y-80842500D01*
X133658834Y-67260276D02*
X133658834Y-67769724D01*
X134703834Y-67260276D02*
X134703834Y-67769724D01*
X136920500Y-67260276D02*
X136920500Y-67769724D01*
X135875500Y-67260276D02*
X135875500Y-67769724D01*
D14*
X128748000Y-68165000D02*
G75*
G03*
X128748000Y-68165000I-1750000J0D01*
G01*
X123998260Y-65167800D02*
X123998260Y-71162200D01*
X130000280Y-65167800D02*
X123998260Y-65167800D01*
X130000280Y-71164740D02*
X130000280Y-65167800D01*
X124005880Y-71164740D02*
X130000280Y-71164740D01*
D13*
X120848000Y-65915000D02*
G75*
G03*
X120848000Y-65915000I-100000J0D01*
G01*
X153348000Y-48815000D02*
G75*
G03*
X153348000Y-48815000I-100000J0D01*
G01*
D14*
X149990120Y-43565260D02*
X143995720Y-43565260D01*
X143995720Y-43565260D02*
X143995720Y-49562200D01*
X143995720Y-49562200D02*
X149997740Y-49562200D01*
X149997740Y-49562200D02*
X149997740Y-43567800D01*
X148748000Y-46565000D02*
G75*
G03*
X148748000Y-46565000I-1750000J0D01*
G01*
D13*
X152848000Y-83315000D02*
G75*
G03*
X152848000Y-83315000I-100000J0D01*
G01*
D14*
X156005880Y-88564740D02*
X162000280Y-88564740D01*
X162000280Y-88564740D02*
X162000280Y-82567800D01*
X162000280Y-82567800D02*
X155998260Y-82567800D01*
X155998260Y-82567800D02*
X155998260Y-88562200D01*
X160748000Y-85565000D02*
G75*
G03*
X160748000Y-85565000I-1750000J0D01*
G01*
X160748000Y-92765000D02*
G75*
G03*
X160748000Y-92765000I-1750000J0D01*
G01*
X155998260Y-89767800D02*
X155998260Y-95762200D01*
X162000280Y-89767800D02*
X155998260Y-89767800D01*
X162000280Y-95764740D02*
X162000280Y-89767800D01*
X156005880Y-95764740D02*
X162000280Y-95764740D01*
D13*
X152848000Y-90515000D02*
G75*
G03*
X152848000Y-90515000I-100000J0D01*
G01*
X152848000Y-76115000D02*
G75*
G03*
X152848000Y-76115000I-100000J0D01*
G01*
D14*
X156005880Y-81364740D02*
X162000280Y-81364740D01*
X162000280Y-81364740D02*
X162000280Y-75367800D01*
X162000280Y-75367800D02*
X155998260Y-75367800D01*
X155998260Y-75367800D02*
X155998260Y-81362200D01*
X160748000Y-78365000D02*
G75*
G03*
X160748000Y-78365000I-1750000J0D01*
G01*
D12*
X123298000Y-116675000D02*
X117288000Y-116675000D01*
X121048000Y-109855000D02*
X117288000Y-109855000D01*
X117288000Y-116675000D02*
X117288000Y-115415000D01*
X117288000Y-109855000D02*
X117288000Y-111115000D01*
X123048000Y-105925000D02*
X117038000Y-105925000D01*
X120798000Y-99105000D02*
X117038000Y-99105000D01*
X117038000Y-105925000D02*
X117038000Y-104665000D01*
X117038000Y-99105000D02*
X117038000Y-100365000D01*
X136098000Y-62685000D02*
X136878000Y-62685000D01*
X136878000Y-62685000D02*
X136878000Y-61685000D01*
X136098000Y-44445000D02*
X136878000Y-44445000D01*
X136878000Y-44445000D02*
X136878000Y-45445000D01*
X111133000Y-62685000D02*
X111133000Y-44445000D01*
X111133000Y-44445000D02*
X117553000Y-44445000D01*
X111133000Y-62685000D02*
X117553000Y-62685000D01*
X117553000Y-62685000D02*
X117553000Y-63065000D01*
X138277100Y-116981200D02*
X142518900Y-116981200D01*
X142518900Y-111748800D02*
X138277100Y-111748800D01*
X178365800Y-87732800D02*
X178365800Y-88503661D01*
X178365800Y-94997200D02*
X179136661Y-94997200D01*
X185630200Y-94997200D02*
X185630200Y-94226339D01*
X185630200Y-87732800D02*
X184859339Y-87732800D01*
X178365800Y-94226339D02*
X178365800Y-94997200D01*
X184859339Y-94997200D02*
X185630200Y-94997200D01*
X185630200Y-88503661D02*
X185630200Y-87732800D01*
X179136661Y-87732800D02*
X178365800Y-87732800D01*
D15*
G36*
X180182499Y-96464799D02*
G01*
X180182499Y-96718799D01*
X180563499Y-96718799D01*
X180563499Y-96464799D01*
X180182499Y-96464799D01*
G37*
X180182499Y-96464799D02*
X180182499Y-96718799D01*
X180563499Y-96718799D01*
X180563499Y-96464799D01*
X180182499Y-96464799D01*
G36*
X187351799Y-91499501D02*
G01*
X187351799Y-91880501D01*
X187097799Y-91880501D01*
X187097799Y-91499501D01*
X187351799Y-91499501D01*
G37*
X187351799Y-91499501D02*
X187351799Y-91880501D01*
X187097799Y-91880501D01*
X187097799Y-91499501D01*
X187351799Y-91499501D01*
G36*
X180832501Y-86265201D02*
G01*
X180832501Y-86011201D01*
X181213501Y-86011201D01*
X181213501Y-86265201D01*
X180832501Y-86265201D01*
G37*
X180832501Y-86265201D02*
X180832501Y-86011201D01*
X181213501Y-86011201D01*
X181213501Y-86265201D01*
X180832501Y-86265201D01*
D12*
X197770500Y-101105000D02*
X198245500Y-101105000D01*
X198245500Y-101105000D02*
X198245500Y-101580000D01*
X194500500Y-105325000D02*
X194025500Y-105325000D01*
X194025500Y-105325000D02*
X194025500Y-104850000D01*
X197770500Y-105325000D02*
X198245500Y-105325000D01*
X198245500Y-105325000D02*
X198245500Y-104850000D01*
X194500500Y-101105000D02*
X194025500Y-101105000D01*
X117038000Y-88855000D02*
X117038000Y-90115000D01*
X117038000Y-95675000D02*
X117038000Y-94415000D01*
X120798000Y-88855000D02*
X117038000Y-88855000D01*
X123048000Y-95675000D02*
X117038000Y-95675000D01*
X129258000Y-74730000D02*
X129258000Y-74255000D01*
X125038000Y-78475000D02*
X125513000Y-78475000D01*
X125038000Y-78000000D02*
X125038000Y-78475000D01*
X125038000Y-74255000D02*
X125513000Y-74255000D01*
X125038000Y-74730000D02*
X125038000Y-74255000D01*
X129258000Y-78475000D02*
X128783000Y-78475000D01*
X129258000Y-78000000D02*
X129258000Y-78475000D01*
X194948000Y-77915000D02*
X193848000Y-77915000D01*
X194948000Y-76015000D02*
X193848000Y-76015000D01*
X197098000Y-77865000D02*
X197098000Y-76065000D01*
D13*
X151848000Y-112765000D02*
G75*
G03*
X151848000Y-112765000I-100000J0D01*
G01*
D14*
X157898000Y-116865000D02*
X152898000Y-116865000D01*
X152898000Y-111865000D02*
X157898000Y-111865000D01*
D10*
X127531333Y-107442142D02*
X127483714Y-107489761D01*
X127340857Y-107537380D01*
X127245619Y-107537380D01*
X127102761Y-107489761D01*
X127007523Y-107394523D01*
X126959904Y-107299285D01*
X126912285Y-107108809D01*
X126912285Y-106965952D01*
X126959904Y-106775476D01*
X127007523Y-106680238D01*
X127102761Y-106585000D01*
X127245619Y-106537380D01*
X127340857Y-106537380D01*
X127483714Y-106585000D01*
X127531333Y-106632619D01*
X128483714Y-107537380D02*
X127912285Y-107537380D01*
X128198000Y-107537380D02*
X128198000Y-106537380D01*
X128102761Y-106680238D01*
X128007523Y-106775476D01*
X127912285Y-106823095D01*
X127531333Y-111317142D02*
X127483714Y-111364761D01*
X127340857Y-111412380D01*
X127245619Y-111412380D01*
X127102761Y-111364761D01*
X127007523Y-111269523D01*
X126959904Y-111174285D01*
X126912285Y-110983809D01*
X126912285Y-110840952D01*
X126959904Y-110650476D01*
X127007523Y-110555238D01*
X127102761Y-110460000D01*
X127245619Y-110412380D01*
X127340857Y-110412380D01*
X127483714Y-110460000D01*
X127531333Y-110507619D01*
X127912285Y-110507619D02*
X127959904Y-110460000D01*
X128055142Y-110412380D01*
X128293238Y-110412380D01*
X128388476Y-110460000D01*
X128436095Y-110507619D01*
X128483714Y-110602857D01*
X128483714Y-110698095D01*
X128436095Y-110840952D01*
X127864666Y-111412380D01*
X128483714Y-111412380D01*
X127531333Y-103567142D02*
X127483714Y-103614761D01*
X127340857Y-103662380D01*
X127245619Y-103662380D01*
X127102761Y-103614761D01*
X127007523Y-103519523D01*
X126959904Y-103424285D01*
X126912285Y-103233809D01*
X126912285Y-103090952D01*
X126959904Y-102900476D01*
X127007523Y-102805238D01*
X127102761Y-102710000D01*
X127245619Y-102662380D01*
X127340857Y-102662380D01*
X127483714Y-102710000D01*
X127531333Y-102757619D01*
X127864666Y-102662380D02*
X128483714Y-102662380D01*
X128150380Y-103043333D01*
X128293238Y-103043333D01*
X128388476Y-103090952D01*
X128436095Y-103138571D01*
X128483714Y-103233809D01*
X128483714Y-103471904D01*
X128436095Y-103567142D01*
X128388476Y-103614761D01*
X128293238Y-103662380D01*
X128007523Y-103662380D01*
X127912285Y-103614761D01*
X127864666Y-103567142D01*
X127761333Y-115192142D02*
X127713714Y-115239761D01*
X127570857Y-115287380D01*
X127475619Y-115287380D01*
X127332761Y-115239761D01*
X127237523Y-115144523D01*
X127189904Y-115049285D01*
X127142285Y-114858809D01*
X127142285Y-114715952D01*
X127189904Y-114525476D01*
X127237523Y-114430238D01*
X127332761Y-114335000D01*
X127475619Y-114287380D01*
X127570857Y-114287380D01*
X127713714Y-114335000D01*
X127761333Y-114382619D01*
X128618476Y-114620714D02*
X128618476Y-115287380D01*
X128380380Y-114239761D02*
X128142285Y-114954047D01*
X128761333Y-114954047D01*
X127431333Y-100292142D02*
X127383714Y-100339761D01*
X127240857Y-100387380D01*
X127145619Y-100387380D01*
X127002761Y-100339761D01*
X126907523Y-100244523D01*
X126859904Y-100149285D01*
X126812285Y-99958809D01*
X126812285Y-99815952D01*
X126859904Y-99625476D01*
X126907523Y-99530238D01*
X127002761Y-99435000D01*
X127145619Y-99387380D01*
X127240857Y-99387380D01*
X127383714Y-99435000D01*
X127431333Y-99482619D01*
X128336095Y-99387380D02*
X127859904Y-99387380D01*
X127812285Y-99863571D01*
X127859904Y-99815952D01*
X127955142Y-99768333D01*
X128193238Y-99768333D01*
X128288476Y-99815952D01*
X128336095Y-99863571D01*
X128383714Y-99958809D01*
X128383714Y-100196904D01*
X128336095Y-100292142D01*
X128288476Y-100339761D01*
X128193238Y-100387380D01*
X127955142Y-100387380D01*
X127859904Y-100339761D01*
X127812285Y-100292142D01*
X197835142Y-74257857D02*
X197882761Y-74305476D01*
X197930380Y-74448333D01*
X197930380Y-74543571D01*
X197882761Y-74686428D01*
X197787523Y-74781666D01*
X197692285Y-74829285D01*
X197501809Y-74876904D01*
X197358952Y-74876904D01*
X197168476Y-74829285D01*
X197073238Y-74781666D01*
X196978000Y-74686428D01*
X196930380Y-74543571D01*
X196930380Y-74448333D01*
X196978000Y-74305476D01*
X197025619Y-74257857D01*
X197930380Y-73305476D02*
X197930380Y-73876904D01*
X197930380Y-73591190D02*
X196930380Y-73591190D01*
X197073238Y-73686428D01*
X197168476Y-73781666D01*
X197216095Y-73876904D01*
X197930380Y-72353095D02*
X197930380Y-72924523D01*
X197930380Y-72638809D02*
X196930380Y-72638809D01*
X197073238Y-72734047D01*
X197168476Y-72829285D01*
X197216095Y-72924523D01*
X194585142Y-74207857D02*
X194632761Y-74255476D01*
X194680380Y-74398333D01*
X194680380Y-74493571D01*
X194632761Y-74636428D01*
X194537523Y-74731666D01*
X194442285Y-74779285D01*
X194251809Y-74826904D01*
X194108952Y-74826904D01*
X193918476Y-74779285D01*
X193823238Y-74731666D01*
X193728000Y-74636428D01*
X193680380Y-74493571D01*
X193680380Y-74398333D01*
X193728000Y-74255476D01*
X193775619Y-74207857D01*
X194680380Y-73255476D02*
X194680380Y-73826904D01*
X194680380Y-73541190D02*
X193680380Y-73541190D01*
X193823238Y-73636428D01*
X193918476Y-73731666D01*
X193966095Y-73826904D01*
X193775619Y-72874523D02*
X193728000Y-72826904D01*
X193680380Y-72731666D01*
X193680380Y-72493571D01*
X193728000Y-72398333D01*
X193775619Y-72350714D01*
X193870857Y-72303095D01*
X193966095Y-72303095D01*
X194108952Y-72350714D01*
X194680380Y-72922142D01*
X194680380Y-72303095D01*
X182325142Y-82807857D02*
X182372761Y-82855476D01*
X182420380Y-82998333D01*
X182420380Y-83093571D01*
X182372761Y-83236428D01*
X182277523Y-83331666D01*
X182182285Y-83379285D01*
X181991809Y-83426904D01*
X181848952Y-83426904D01*
X181658476Y-83379285D01*
X181563238Y-83331666D01*
X181468000Y-83236428D01*
X181420380Y-83093571D01*
X181420380Y-82998333D01*
X181468000Y-82855476D01*
X181515619Y-82807857D01*
X182420380Y-81855476D02*
X182420380Y-82426904D01*
X182420380Y-82141190D02*
X181420380Y-82141190D01*
X181563238Y-82236428D01*
X181658476Y-82331666D01*
X181706095Y-82426904D01*
X181420380Y-81522142D02*
X181420380Y-80903095D01*
X181801333Y-81236428D01*
X181801333Y-81093571D01*
X181848952Y-80998333D01*
X181896571Y-80950714D01*
X181991809Y-80903095D01*
X182229904Y-80903095D01*
X182325142Y-80950714D01*
X182372761Y-80998333D01*
X182420380Y-81093571D01*
X182420380Y-81379285D01*
X182372761Y-81474523D01*
X182325142Y-81522142D01*
X194755142Y-91522142D02*
X194707523Y-91569761D01*
X194564666Y-91617380D01*
X194469428Y-91617380D01*
X194326571Y-91569761D01*
X194231333Y-91474523D01*
X194183714Y-91379285D01*
X194136095Y-91188809D01*
X194136095Y-91045952D01*
X194183714Y-90855476D01*
X194231333Y-90760238D01*
X194326571Y-90665000D01*
X194469428Y-90617380D01*
X194564666Y-90617380D01*
X194707523Y-90665000D01*
X194755142Y-90712619D01*
X195707523Y-91617380D02*
X195136095Y-91617380D01*
X195421809Y-91617380D02*
X195421809Y-90617380D01*
X195326571Y-90760238D01*
X195231333Y-90855476D01*
X195136095Y-90903095D01*
X196564666Y-90950714D02*
X196564666Y-91617380D01*
X196326571Y-90569761D02*
X196088476Y-91284047D01*
X196707523Y-91284047D01*
X194955142Y-89922142D02*
X194907523Y-89969761D01*
X194764666Y-90017380D01*
X194669428Y-90017380D01*
X194526571Y-89969761D01*
X194431333Y-89874523D01*
X194383714Y-89779285D01*
X194336095Y-89588809D01*
X194336095Y-89445952D01*
X194383714Y-89255476D01*
X194431333Y-89160238D01*
X194526571Y-89065000D01*
X194669428Y-89017380D01*
X194764666Y-89017380D01*
X194907523Y-89065000D01*
X194955142Y-89112619D01*
X195907523Y-90017380D02*
X195336095Y-90017380D01*
X195621809Y-90017380D02*
X195621809Y-89017380D01*
X195526571Y-89160238D01*
X195431333Y-89255476D01*
X195336095Y-89303095D01*
X196812285Y-89017380D02*
X196336095Y-89017380D01*
X196288476Y-89493571D01*
X196336095Y-89445952D01*
X196431333Y-89398333D01*
X196669428Y-89398333D01*
X196764666Y-89445952D01*
X196812285Y-89493571D01*
X196859904Y-89588809D01*
X196859904Y-89826904D01*
X196812285Y-89922142D01*
X196764666Y-89969761D01*
X196669428Y-90017380D01*
X196431333Y-90017380D01*
X196336095Y-89969761D01*
X196288476Y-89922142D01*
X194155142Y-107722142D02*
X194107523Y-107769761D01*
X193964666Y-107817380D01*
X193869428Y-107817380D01*
X193726571Y-107769761D01*
X193631333Y-107674523D01*
X193583714Y-107579285D01*
X193536095Y-107388809D01*
X193536095Y-107245952D01*
X193583714Y-107055476D01*
X193631333Y-106960238D01*
X193726571Y-106865000D01*
X193869428Y-106817380D01*
X193964666Y-106817380D01*
X194107523Y-106865000D01*
X194155142Y-106912619D01*
X195107523Y-107817380D02*
X194536095Y-107817380D01*
X194821809Y-107817380D02*
X194821809Y-106817380D01*
X194726571Y-106960238D01*
X194631333Y-107055476D01*
X194536095Y-107103095D01*
X195964666Y-106817380D02*
X195774190Y-106817380D01*
X195678952Y-106865000D01*
X195631333Y-106912619D01*
X195536095Y-107055476D01*
X195488476Y-107245952D01*
X195488476Y-107626904D01*
X195536095Y-107722142D01*
X195583714Y-107769761D01*
X195678952Y-107817380D01*
X195869428Y-107817380D01*
X195964666Y-107769761D01*
X196012285Y-107722142D01*
X196059904Y-107626904D01*
X196059904Y-107388809D01*
X196012285Y-107293571D01*
X195964666Y-107245952D01*
X195869428Y-107198333D01*
X195678952Y-107198333D01*
X195583714Y-107245952D01*
X195536095Y-107293571D01*
X195488476Y-107388809D01*
X196355142Y-119152142D02*
X196307523Y-119199761D01*
X196164666Y-119247380D01*
X196069428Y-119247380D01*
X195926571Y-119199761D01*
X195831333Y-119104523D01*
X195783714Y-119009285D01*
X195736095Y-118818809D01*
X195736095Y-118675952D01*
X195783714Y-118485476D01*
X195831333Y-118390238D01*
X195926571Y-118295000D01*
X196069428Y-118247380D01*
X196164666Y-118247380D01*
X196307523Y-118295000D01*
X196355142Y-118342619D01*
X197307523Y-119247380D02*
X196736095Y-119247380D01*
X197021809Y-119247380D02*
X197021809Y-118247380D01*
X196926571Y-118390238D01*
X196831333Y-118485476D01*
X196736095Y-118533095D01*
X197783714Y-119247380D02*
X197974190Y-119247380D01*
X198069428Y-119199761D01*
X198117047Y-119152142D01*
X198212285Y-119009285D01*
X198259904Y-118818809D01*
X198259904Y-118437857D01*
X198212285Y-118342619D01*
X198164666Y-118295000D01*
X198069428Y-118247380D01*
X197878952Y-118247380D01*
X197783714Y-118295000D01*
X197736095Y-118342619D01*
X197688476Y-118437857D01*
X197688476Y-118675952D01*
X197736095Y-118771190D01*
X197783714Y-118818809D01*
X197878952Y-118866428D01*
X198069428Y-118866428D01*
X198164666Y-118818809D01*
X198212285Y-118771190D01*
X198259904Y-118675952D01*
X127055142Y-92442142D02*
X127007523Y-92489761D01*
X126864666Y-92537380D01*
X126769428Y-92537380D01*
X126626571Y-92489761D01*
X126531333Y-92394523D01*
X126483714Y-92299285D01*
X126436095Y-92108809D01*
X126436095Y-91965952D01*
X126483714Y-91775476D01*
X126531333Y-91680238D01*
X126626571Y-91585000D01*
X126769428Y-91537380D01*
X126864666Y-91537380D01*
X127007523Y-91585000D01*
X127055142Y-91632619D01*
X127436095Y-91632619D02*
X127483714Y-91585000D01*
X127578952Y-91537380D01*
X127817047Y-91537380D01*
X127912285Y-91585000D01*
X127959904Y-91632619D01*
X128007523Y-91727857D01*
X128007523Y-91823095D01*
X127959904Y-91965952D01*
X127388476Y-92537380D01*
X128007523Y-92537380D01*
X128626571Y-91537380D02*
X128721809Y-91537380D01*
X128817047Y-91585000D01*
X128864666Y-91632619D01*
X128912285Y-91727857D01*
X128959904Y-91918333D01*
X128959904Y-92156428D01*
X128912285Y-92346904D01*
X128864666Y-92442142D01*
X128817047Y-92489761D01*
X128721809Y-92537380D01*
X128626571Y-92537380D01*
X128531333Y-92489761D01*
X128483714Y-92442142D01*
X128436095Y-92346904D01*
X128388476Y-92156428D01*
X128388476Y-91918333D01*
X128436095Y-91727857D01*
X128483714Y-91632619D01*
X128531333Y-91585000D01*
X128626571Y-91537380D01*
X127055142Y-89692142D02*
X127007523Y-89739761D01*
X126864666Y-89787380D01*
X126769428Y-89787380D01*
X126626571Y-89739761D01*
X126531333Y-89644523D01*
X126483714Y-89549285D01*
X126436095Y-89358809D01*
X126436095Y-89215952D01*
X126483714Y-89025476D01*
X126531333Y-88930238D01*
X126626571Y-88835000D01*
X126769428Y-88787380D01*
X126864666Y-88787380D01*
X127007523Y-88835000D01*
X127055142Y-88882619D01*
X127436095Y-88882619D02*
X127483714Y-88835000D01*
X127578952Y-88787380D01*
X127817047Y-88787380D01*
X127912285Y-88835000D01*
X127959904Y-88882619D01*
X128007523Y-88977857D01*
X128007523Y-89073095D01*
X127959904Y-89215952D01*
X127388476Y-89787380D01*
X128007523Y-89787380D01*
X128959904Y-89787380D02*
X128388476Y-89787380D01*
X128674190Y-89787380D02*
X128674190Y-88787380D01*
X128578952Y-88930238D01*
X128483714Y-89025476D01*
X128388476Y-89073095D01*
X117955142Y-78722142D02*
X117907523Y-78769761D01*
X117764666Y-78817380D01*
X117669428Y-78817380D01*
X117526571Y-78769761D01*
X117431333Y-78674523D01*
X117383714Y-78579285D01*
X117336095Y-78388809D01*
X117336095Y-78245952D01*
X117383714Y-78055476D01*
X117431333Y-77960238D01*
X117526571Y-77865000D01*
X117669428Y-77817380D01*
X117764666Y-77817380D01*
X117907523Y-77865000D01*
X117955142Y-77912619D01*
X118336095Y-77912619D02*
X118383714Y-77865000D01*
X118478952Y-77817380D01*
X118717047Y-77817380D01*
X118812285Y-77865000D01*
X118859904Y-77912619D01*
X118907523Y-78007857D01*
X118907523Y-78103095D01*
X118859904Y-78245952D01*
X118288476Y-78817380D01*
X118907523Y-78817380D01*
X119764666Y-78150714D02*
X119764666Y-78817380D01*
X119526571Y-77769761D02*
X119288476Y-78484047D01*
X119907523Y-78484047D01*
X126755142Y-84952142D02*
X126707523Y-84999761D01*
X126564666Y-85047380D01*
X126469428Y-85047380D01*
X126326571Y-84999761D01*
X126231333Y-84904523D01*
X126183714Y-84809285D01*
X126136095Y-84618809D01*
X126136095Y-84475952D01*
X126183714Y-84285476D01*
X126231333Y-84190238D01*
X126326571Y-84095000D01*
X126469428Y-84047380D01*
X126564666Y-84047380D01*
X126707523Y-84095000D01*
X126755142Y-84142619D01*
X127136095Y-84142619D02*
X127183714Y-84095000D01*
X127278952Y-84047380D01*
X127517047Y-84047380D01*
X127612285Y-84095000D01*
X127659904Y-84142619D01*
X127707523Y-84237857D01*
X127707523Y-84333095D01*
X127659904Y-84475952D01*
X127088476Y-85047380D01*
X127707523Y-85047380D01*
X128612285Y-84047380D02*
X128136095Y-84047380D01*
X128088476Y-84523571D01*
X128136095Y-84475952D01*
X128231333Y-84428333D01*
X128469428Y-84428333D01*
X128564666Y-84475952D01*
X128612285Y-84523571D01*
X128659904Y-84618809D01*
X128659904Y-84856904D01*
X128612285Y-84952142D01*
X128564666Y-84999761D01*
X128469428Y-85047380D01*
X128231333Y-85047380D01*
X128136095Y-84999761D01*
X128088476Y-84952142D01*
X126755142Y-80322142D02*
X126707523Y-80369761D01*
X126564666Y-80417380D01*
X126469428Y-80417380D01*
X126326571Y-80369761D01*
X126231333Y-80274523D01*
X126183714Y-80179285D01*
X126136095Y-79988809D01*
X126136095Y-79845952D01*
X126183714Y-79655476D01*
X126231333Y-79560238D01*
X126326571Y-79465000D01*
X126469428Y-79417380D01*
X126564666Y-79417380D01*
X126707523Y-79465000D01*
X126755142Y-79512619D01*
X127136095Y-79512619D02*
X127183714Y-79465000D01*
X127278952Y-79417380D01*
X127517047Y-79417380D01*
X127612285Y-79465000D01*
X127659904Y-79512619D01*
X127707523Y-79607857D01*
X127707523Y-79703095D01*
X127659904Y-79845952D01*
X127088476Y-80417380D01*
X127707523Y-80417380D01*
X128564666Y-79417380D02*
X128374190Y-79417380D01*
X128278952Y-79465000D01*
X128231333Y-79512619D01*
X128136095Y-79655476D01*
X128088476Y-79845952D01*
X128088476Y-80226904D01*
X128136095Y-80322142D01*
X128183714Y-80369761D01*
X128278952Y-80417380D01*
X128469428Y-80417380D01*
X128564666Y-80369761D01*
X128612285Y-80322142D01*
X128659904Y-80226904D01*
X128659904Y-79988809D01*
X128612285Y-79893571D01*
X128564666Y-79845952D01*
X128469428Y-79798333D01*
X128278952Y-79798333D01*
X128183714Y-79845952D01*
X128136095Y-79893571D01*
X128088476Y-79988809D01*
X117755142Y-80722142D02*
X117707523Y-80769761D01*
X117564666Y-80817380D01*
X117469428Y-80817380D01*
X117326571Y-80769761D01*
X117231333Y-80674523D01*
X117183714Y-80579285D01*
X117136095Y-80388809D01*
X117136095Y-80245952D01*
X117183714Y-80055476D01*
X117231333Y-79960238D01*
X117326571Y-79865000D01*
X117469428Y-79817380D01*
X117564666Y-79817380D01*
X117707523Y-79865000D01*
X117755142Y-79912619D01*
X118136095Y-79912619D02*
X118183714Y-79865000D01*
X118278952Y-79817380D01*
X118517047Y-79817380D01*
X118612285Y-79865000D01*
X118659904Y-79912619D01*
X118707523Y-80007857D01*
X118707523Y-80103095D01*
X118659904Y-80245952D01*
X118088476Y-80817380D01*
X118707523Y-80817380D01*
X119040857Y-79817380D02*
X119707523Y-79817380D01*
X119278952Y-80817380D01*
X143459904Y-103397380D02*
X143459904Y-102397380D01*
X143698000Y-102397380D01*
X143840857Y-102445000D01*
X143936095Y-102540238D01*
X143983714Y-102635476D01*
X144031333Y-102825952D01*
X144031333Y-102968809D01*
X143983714Y-103159285D01*
X143936095Y-103254523D01*
X143840857Y-103349761D01*
X143698000Y-103397380D01*
X143459904Y-103397380D01*
X144983714Y-103397380D02*
X144412285Y-103397380D01*
X144698000Y-103397380D02*
X144698000Y-102397380D01*
X144602761Y-102540238D01*
X144507523Y-102635476D01*
X144412285Y-102683095D01*
X159850380Y-71303095D02*
X158850380Y-71303095D01*
X158850380Y-71065000D01*
X158898000Y-70922142D01*
X158993238Y-70826904D01*
X159088476Y-70779285D01*
X159278952Y-70731666D01*
X159421809Y-70731666D01*
X159612285Y-70779285D01*
X159707523Y-70826904D01*
X159802761Y-70922142D01*
X159850380Y-71065000D01*
X159850380Y-71303095D01*
X158945619Y-70350714D02*
X158898000Y-70303095D01*
X158850380Y-70207857D01*
X158850380Y-69969761D01*
X158898000Y-69874523D01*
X158945619Y-69826904D01*
X159040857Y-69779285D01*
X159136095Y-69779285D01*
X159278952Y-69826904D01*
X159850380Y-70398333D01*
X159850380Y-69779285D01*
X189459904Y-99817380D02*
X189459904Y-98817380D01*
X189698000Y-98817380D01*
X189840857Y-98865000D01*
X189936095Y-98960238D01*
X189983714Y-99055476D01*
X190031333Y-99245952D01*
X190031333Y-99388809D01*
X189983714Y-99579285D01*
X189936095Y-99674523D01*
X189840857Y-99769761D01*
X189698000Y-99817380D01*
X189459904Y-99817380D01*
X190364666Y-98817380D02*
X190983714Y-98817380D01*
X190650380Y-99198333D01*
X190793238Y-99198333D01*
X190888476Y-99245952D01*
X190936095Y-99293571D01*
X190983714Y-99388809D01*
X190983714Y-99626904D01*
X190936095Y-99722142D01*
X190888476Y-99769761D01*
X190793238Y-99817380D01*
X190507523Y-99817380D01*
X190412285Y-99769761D01*
X190364666Y-99722142D01*
X189259904Y-105617380D02*
X189259904Y-104617380D01*
X189498000Y-104617380D01*
X189640857Y-104665000D01*
X189736095Y-104760238D01*
X189783714Y-104855476D01*
X189831333Y-105045952D01*
X189831333Y-105188809D01*
X189783714Y-105379285D01*
X189736095Y-105474523D01*
X189640857Y-105569761D01*
X189498000Y-105617380D01*
X189259904Y-105617380D01*
X190688476Y-104950714D02*
X190688476Y-105617380D01*
X190450380Y-104569761D02*
X190212285Y-105284047D01*
X190831333Y-105284047D01*
X196059904Y-94517380D02*
X196059904Y-93517380D01*
X196298000Y-93517380D01*
X196440857Y-93565000D01*
X196536095Y-93660238D01*
X196583714Y-93755476D01*
X196631333Y-93945952D01*
X196631333Y-94088809D01*
X196583714Y-94279285D01*
X196536095Y-94374523D01*
X196440857Y-94469761D01*
X196298000Y-94517380D01*
X196059904Y-94517380D01*
X197536095Y-93517380D02*
X197059904Y-93517380D01*
X197012285Y-93993571D01*
X197059904Y-93945952D01*
X197155142Y-93898333D01*
X197393238Y-93898333D01*
X197488476Y-93945952D01*
X197536095Y-93993571D01*
X197583714Y-94088809D01*
X197583714Y-94326904D01*
X197536095Y-94422142D01*
X197488476Y-94469761D01*
X197393238Y-94517380D01*
X197155142Y-94517380D01*
X197059904Y-94469761D01*
X197012285Y-94422142D01*
X134650380Y-75503095D02*
X133650380Y-75503095D01*
X133650380Y-75265000D01*
X133698000Y-75122142D01*
X133793238Y-75026904D01*
X133888476Y-74979285D01*
X134078952Y-74931666D01*
X134221809Y-74931666D01*
X134412285Y-74979285D01*
X134507523Y-75026904D01*
X134602761Y-75122142D01*
X134650380Y-75265000D01*
X134650380Y-75503095D01*
X133650380Y-74074523D02*
X133650380Y-74265000D01*
X133698000Y-74360238D01*
X133745619Y-74407857D01*
X133888476Y-74503095D01*
X134078952Y-74550714D01*
X134459904Y-74550714D01*
X134555142Y-74503095D01*
X134602761Y-74455476D01*
X134650380Y-74360238D01*
X134650380Y-74169761D01*
X134602761Y-74074523D01*
X134555142Y-74026904D01*
X134459904Y-73979285D01*
X134221809Y-73979285D01*
X134126571Y-74026904D01*
X134078952Y-74074523D01*
X134031333Y-74169761D01*
X134031333Y-74360238D01*
X134078952Y-74455476D01*
X134126571Y-74503095D01*
X134221809Y-74550714D01*
X137050380Y-75503095D02*
X136050380Y-75503095D01*
X136050380Y-75265000D01*
X136098000Y-75122142D01*
X136193238Y-75026904D01*
X136288476Y-74979285D01*
X136478952Y-74931666D01*
X136621809Y-74931666D01*
X136812285Y-74979285D01*
X136907523Y-75026904D01*
X137002761Y-75122142D01*
X137050380Y-75265000D01*
X137050380Y-75503095D01*
X136050380Y-74598333D02*
X136050380Y-73931666D01*
X137050380Y-74360238D01*
X118409904Y-87317380D02*
X118409904Y-86317380D01*
X118648000Y-86317380D01*
X118790857Y-86365000D01*
X118886095Y-86460238D01*
X118933714Y-86555476D01*
X118981333Y-86745952D01*
X118981333Y-86888809D01*
X118933714Y-87079285D01*
X118886095Y-87174523D01*
X118790857Y-87269761D01*
X118648000Y-87317380D01*
X118409904Y-87317380D01*
X119552761Y-86745952D02*
X119457523Y-86698333D01*
X119409904Y-86650714D01*
X119362285Y-86555476D01*
X119362285Y-86507857D01*
X119409904Y-86412619D01*
X119457523Y-86365000D01*
X119552761Y-86317380D01*
X119743238Y-86317380D01*
X119838476Y-86365000D01*
X119886095Y-86412619D01*
X119933714Y-86507857D01*
X119933714Y-86555476D01*
X119886095Y-86650714D01*
X119838476Y-86698333D01*
X119743238Y-86745952D01*
X119552761Y-86745952D01*
X119457523Y-86793571D01*
X119409904Y-86841190D01*
X119362285Y-86936428D01*
X119362285Y-87126904D01*
X119409904Y-87222142D01*
X119457523Y-87269761D01*
X119552761Y-87317380D01*
X119743238Y-87317380D01*
X119838476Y-87269761D01*
X119886095Y-87222142D01*
X119933714Y-87126904D01*
X119933714Y-86936428D01*
X119886095Y-86841190D01*
X119838476Y-86793571D01*
X119743238Y-86745952D01*
X146064666Y-94547380D02*
X146064666Y-95261666D01*
X146017047Y-95404523D01*
X145921809Y-95499761D01*
X145778952Y-95547380D01*
X145683714Y-95547380D01*
X147064666Y-95547380D02*
X146493238Y-95547380D01*
X146778952Y-95547380D02*
X146778952Y-94547380D01*
X146683714Y-94690238D01*
X146588476Y-94785476D01*
X146493238Y-94833095D01*
X140380380Y-92898333D02*
X141094666Y-92898333D01*
X141237523Y-92945952D01*
X141332761Y-93041190D01*
X141380380Y-93184047D01*
X141380380Y-93279285D01*
X140475619Y-92469761D02*
X140428000Y-92422142D01*
X140380380Y-92326904D01*
X140380380Y-92088809D01*
X140428000Y-91993571D01*
X140475619Y-91945952D01*
X140570857Y-91898333D01*
X140666095Y-91898333D01*
X140808952Y-91945952D01*
X141380380Y-92517380D01*
X141380380Y-91898333D01*
X137920380Y-63498333D02*
X138634666Y-63498333D01*
X138777523Y-63545952D01*
X138872761Y-63641190D01*
X138920380Y-63784047D01*
X138920380Y-63879285D01*
X137920380Y-63117380D02*
X137920380Y-62498333D01*
X138301333Y-62831666D01*
X138301333Y-62688809D01*
X138348952Y-62593571D01*
X138396571Y-62545952D01*
X138491809Y-62498333D01*
X138729904Y-62498333D01*
X138825142Y-62545952D01*
X138872761Y-62593571D01*
X138920380Y-62688809D01*
X138920380Y-62974523D01*
X138872761Y-63069761D01*
X138825142Y-63117380D01*
X198864666Y-81817380D02*
X198864666Y-82531666D01*
X198817047Y-82674523D01*
X198721809Y-82769761D01*
X198578952Y-82817380D01*
X198483714Y-82817380D01*
X199769428Y-82150714D02*
X199769428Y-82817380D01*
X199531333Y-81769761D02*
X199293238Y-82484047D01*
X199912285Y-82484047D01*
X188464666Y-80817380D02*
X188464666Y-81531666D01*
X188417047Y-81674523D01*
X188321809Y-81769761D01*
X188178952Y-81817380D01*
X188083714Y-81817380D01*
X189417047Y-80817380D02*
X188940857Y-80817380D01*
X188893238Y-81293571D01*
X188940857Y-81245952D01*
X189036095Y-81198333D01*
X189274190Y-81198333D01*
X189369428Y-81245952D01*
X189417047Y-81293571D01*
X189464666Y-81388809D01*
X189464666Y-81626904D01*
X189417047Y-81722142D01*
X189369428Y-81769761D01*
X189274190Y-81817380D01*
X189036095Y-81817380D01*
X188940857Y-81769761D01*
X188893238Y-81722142D01*
X174064666Y-87147380D02*
X174064666Y-87861666D01*
X174017047Y-88004523D01*
X173921809Y-88099761D01*
X173778952Y-88147380D01*
X173683714Y-88147380D01*
X174445619Y-87147380D02*
X175112285Y-87147380D01*
X174683714Y-88147380D01*
X193734753Y-117027056D02*
X193734753Y-118170048D01*
X193658554Y-118398646D01*
X193506155Y-118551045D01*
X193277556Y-118627245D01*
X193125157Y-118627245D01*
X194572947Y-118627245D02*
X194877745Y-118627245D01*
X195030144Y-118551045D01*
X195106344Y-118474846D01*
X195258743Y-118246247D01*
X195334942Y-117941449D01*
X195334942Y-117331853D01*
X195258743Y-117179454D01*
X195182543Y-117103255D01*
X195030144Y-117027056D01*
X194725346Y-117027056D01*
X194572947Y-117103255D01*
X194496748Y-117179454D01*
X194420548Y-117331853D01*
X194420548Y-117712851D01*
X194496748Y-117865250D01*
X194572947Y-117941449D01*
X194725346Y-118017649D01*
X195030144Y-118017649D01*
X195182543Y-117941449D01*
X195258743Y-117865250D01*
X195334942Y-117712851D01*
X112521706Y-71910391D02*
X113664698Y-71910391D01*
X113893296Y-71986590D01*
X114045695Y-72138989D01*
X114121895Y-72367587D01*
X114121895Y-72519986D01*
X114121895Y-70310202D02*
X114121895Y-71224595D01*
X114121895Y-70767398D02*
X112521706Y-70767398D01*
X112750304Y-70919797D01*
X112902703Y-71072196D01*
X112978902Y-71224595D01*
X112521706Y-69319608D02*
X112521706Y-69167209D01*
X112597905Y-69014811D01*
X112674104Y-68938611D01*
X112826503Y-68862412D01*
X113131301Y-68786212D01*
X113512299Y-68786212D01*
X113817097Y-68862412D01*
X113969496Y-68938611D01*
X114045695Y-69014811D01*
X114121895Y-69167209D01*
X114121895Y-69319608D01*
X114045695Y-69472007D01*
X113969496Y-69548207D01*
X113817097Y-69624406D01*
X113512299Y-69700606D01*
X113131301Y-69700606D01*
X112826503Y-69624406D01*
X112674104Y-69548207D01*
X112597905Y-69472007D01*
X112521706Y-69319608D01*
X189431333Y-94847380D02*
X188955142Y-94847380D01*
X188955142Y-93847380D01*
X190288476Y-94847380D02*
X189717047Y-94847380D01*
X190002761Y-94847380D02*
X190002761Y-93847380D01*
X189907523Y-93990238D01*
X189812285Y-94085476D01*
X189717047Y-94133095D01*
X161436904Y-106854380D02*
X161436904Y-105854380D01*
X161817857Y-105854380D01*
X161913095Y-105902000D01*
X161960714Y-105949619D01*
X162008333Y-106044857D01*
X162008333Y-106187714D01*
X161960714Y-106282952D01*
X161913095Y-106330571D01*
X161817857Y-106378190D01*
X161436904Y-106378190D01*
X162960714Y-106854380D02*
X162389285Y-106854380D01*
X162675000Y-106854380D02*
X162675000Y-105854380D01*
X162579761Y-105997238D01*
X162484523Y-106092476D01*
X162389285Y-106140095D01*
X184360404Y-106854380D02*
X184360404Y-105854380D01*
X184741357Y-105854380D01*
X184836595Y-105902000D01*
X184884214Y-105949619D01*
X184931833Y-106044857D01*
X184931833Y-106187714D01*
X184884214Y-106282952D01*
X184836595Y-106330571D01*
X184741357Y-106378190D01*
X184360404Y-106378190D01*
X185312785Y-105949619D02*
X185360404Y-105902000D01*
X185455642Y-105854380D01*
X185693738Y-105854380D01*
X185788976Y-105902000D01*
X185836595Y-105949619D01*
X185884214Y-106044857D01*
X185884214Y-106140095D01*
X185836595Y-106282952D01*
X185265166Y-106854380D01*
X185884214Y-106854380D01*
X152356404Y-58594380D02*
X152356404Y-57594380D01*
X152737357Y-57594380D01*
X152832595Y-57642000D01*
X152880214Y-57689619D01*
X152927833Y-57784857D01*
X152927833Y-57927714D01*
X152880214Y-58022952D01*
X152832595Y-58070571D01*
X152737357Y-58118190D01*
X152356404Y-58118190D01*
X153261166Y-57594380D02*
X153880214Y-57594380D01*
X153546880Y-57975333D01*
X153689738Y-57975333D01*
X153784976Y-58022952D01*
X153832595Y-58070571D01*
X153880214Y-58165809D01*
X153880214Y-58403904D01*
X153832595Y-58499142D01*
X153784976Y-58546761D01*
X153689738Y-58594380D01*
X153404023Y-58594380D01*
X153308785Y-58546761D01*
X153261166Y-58499142D01*
X179343904Y-58594380D02*
X179343904Y-57594380D01*
X179724857Y-57594380D01*
X179820095Y-57642000D01*
X179867714Y-57689619D01*
X179915333Y-57784857D01*
X179915333Y-57927714D01*
X179867714Y-58022952D01*
X179820095Y-58070571D01*
X179724857Y-58118190D01*
X179343904Y-58118190D01*
X180772476Y-57927714D02*
X180772476Y-58594380D01*
X180534380Y-57546761D02*
X180296285Y-58261047D01*
X180915333Y-58261047D01*
X140281333Y-100537380D02*
X139948000Y-100061190D01*
X139709904Y-100537380D02*
X139709904Y-99537380D01*
X140090857Y-99537380D01*
X140186095Y-99585000D01*
X140233714Y-99632619D01*
X140281333Y-99727857D01*
X140281333Y-99870714D01*
X140233714Y-99965952D01*
X140186095Y-100013571D01*
X140090857Y-100061190D01*
X139709904Y-100061190D01*
X141233714Y-100537380D02*
X140662285Y-100537380D01*
X140948000Y-100537380D02*
X140948000Y-99537380D01*
X140852761Y-99680238D01*
X140757523Y-99775476D01*
X140662285Y-99823095D01*
X147316334Y-118047380D02*
X146983001Y-117571190D01*
X146744905Y-118047380D02*
X146744905Y-117047380D01*
X147125858Y-117047380D01*
X147221096Y-117095000D01*
X147268715Y-117142619D01*
X147316334Y-117237857D01*
X147316334Y-117380714D01*
X147268715Y-117475952D01*
X147221096Y-117523571D01*
X147125858Y-117571190D01*
X146744905Y-117571190D01*
X147697286Y-117142619D02*
X147744905Y-117095000D01*
X147840143Y-117047380D01*
X148078239Y-117047380D01*
X148173477Y-117095000D01*
X148221096Y-117142619D01*
X148268715Y-117237857D01*
X148268715Y-117333095D01*
X148221096Y-117475952D01*
X147649667Y-118047380D01*
X148268715Y-118047380D01*
X150231333Y-114817380D02*
X149898000Y-114341190D01*
X149659904Y-114817380D02*
X149659904Y-113817380D01*
X150040857Y-113817380D01*
X150136095Y-113865000D01*
X150183714Y-113912619D01*
X150231333Y-114007857D01*
X150231333Y-114150714D01*
X150183714Y-114245952D01*
X150136095Y-114293571D01*
X150040857Y-114341190D01*
X149659904Y-114341190D01*
X150564666Y-113817380D02*
X151183714Y-113817380D01*
X150850380Y-114198333D01*
X150993238Y-114198333D01*
X151088476Y-114245952D01*
X151136095Y-114293571D01*
X151183714Y-114388809D01*
X151183714Y-114626904D01*
X151136095Y-114722142D01*
X151088476Y-114769761D01*
X150993238Y-114817380D01*
X150707523Y-114817380D01*
X150612285Y-114769761D01*
X150564666Y-114722142D01*
X140331333Y-120097380D02*
X139998000Y-119621190D01*
X139759904Y-120097380D02*
X139759904Y-119097380D01*
X140140857Y-119097380D01*
X140236095Y-119145000D01*
X140283714Y-119192619D01*
X140331333Y-119287857D01*
X140331333Y-119430714D01*
X140283714Y-119525952D01*
X140236095Y-119573571D01*
X140140857Y-119621190D01*
X139759904Y-119621190D01*
X141188476Y-119097380D02*
X140998000Y-119097380D01*
X140902761Y-119145000D01*
X140855142Y-119192619D01*
X140759904Y-119335476D01*
X140712285Y-119525952D01*
X140712285Y-119906904D01*
X140759904Y-120002142D01*
X140807523Y-120049761D01*
X140902761Y-120097380D01*
X141093238Y-120097380D01*
X141188476Y-120049761D01*
X141236095Y-120002142D01*
X141283714Y-119906904D01*
X141283714Y-119668809D01*
X141236095Y-119573571D01*
X141188476Y-119525952D01*
X141093238Y-119478333D01*
X140902761Y-119478333D01*
X140807523Y-119525952D01*
X140759904Y-119573571D01*
X140712285Y-119668809D01*
X167831333Y-89447380D02*
X167498000Y-88971190D01*
X167259904Y-89447380D02*
X167259904Y-88447380D01*
X167640857Y-88447380D01*
X167736095Y-88495000D01*
X167783714Y-88542619D01*
X167831333Y-88637857D01*
X167831333Y-88780714D01*
X167783714Y-88875952D01*
X167736095Y-88923571D01*
X167640857Y-88971190D01*
X167259904Y-88971190D01*
X168164666Y-88447380D02*
X168831333Y-88447380D01*
X168402761Y-89447380D01*
X170831333Y-86017380D02*
X170498000Y-85541190D01*
X170259904Y-86017380D02*
X170259904Y-85017380D01*
X170640857Y-85017380D01*
X170736095Y-85065000D01*
X170783714Y-85112619D01*
X170831333Y-85207857D01*
X170831333Y-85350714D01*
X170783714Y-85445952D01*
X170736095Y-85493571D01*
X170640857Y-85541190D01*
X170259904Y-85541190D01*
X171402761Y-85445952D02*
X171307523Y-85398333D01*
X171259904Y-85350714D01*
X171212285Y-85255476D01*
X171212285Y-85207857D01*
X171259904Y-85112619D01*
X171307523Y-85065000D01*
X171402761Y-85017380D01*
X171593238Y-85017380D01*
X171688476Y-85065000D01*
X171736095Y-85112619D01*
X171783714Y-85207857D01*
X171783714Y-85255476D01*
X171736095Y-85350714D01*
X171688476Y-85398333D01*
X171593238Y-85445952D01*
X171402761Y-85445952D01*
X171307523Y-85493571D01*
X171259904Y-85541190D01*
X171212285Y-85636428D01*
X171212285Y-85826904D01*
X171259904Y-85922142D01*
X171307523Y-85969761D01*
X171402761Y-86017380D01*
X171593238Y-86017380D01*
X171688476Y-85969761D01*
X171736095Y-85922142D01*
X171783714Y-85826904D01*
X171783714Y-85636428D01*
X171736095Y-85541190D01*
X171688476Y-85493571D01*
X171593238Y-85445952D01*
X147331333Y-110617380D02*
X146998000Y-110141190D01*
X146759904Y-110617380D02*
X146759904Y-109617380D01*
X147140857Y-109617380D01*
X147236095Y-109665000D01*
X147283714Y-109712619D01*
X147331333Y-109807857D01*
X147331333Y-109950714D01*
X147283714Y-110045952D01*
X147236095Y-110093571D01*
X147140857Y-110141190D01*
X146759904Y-110141190D01*
X147807523Y-110617380D02*
X147998000Y-110617380D01*
X148093238Y-110569761D01*
X148140857Y-110522142D01*
X148236095Y-110379285D01*
X148283714Y-110188809D01*
X148283714Y-109807857D01*
X148236095Y-109712619D01*
X148188476Y-109665000D01*
X148093238Y-109617380D01*
X147902761Y-109617380D01*
X147807523Y-109665000D01*
X147759904Y-109712619D01*
X147712285Y-109807857D01*
X147712285Y-110045952D01*
X147759904Y-110141190D01*
X147807523Y-110188809D01*
X147902761Y-110236428D01*
X148093238Y-110236428D01*
X148188476Y-110188809D01*
X148236095Y-110141190D01*
X148283714Y-110045952D01*
X203230380Y-102957857D02*
X202754190Y-103291190D01*
X203230380Y-103529285D02*
X202230380Y-103529285D01*
X202230380Y-103148333D01*
X202278000Y-103053095D01*
X202325619Y-103005476D01*
X202420857Y-102957857D01*
X202563714Y-102957857D01*
X202658952Y-103005476D01*
X202706571Y-103053095D01*
X202754190Y-103148333D01*
X202754190Y-103529285D01*
X203230380Y-102005476D02*
X203230380Y-102576904D01*
X203230380Y-102291190D02*
X202230380Y-102291190D01*
X202373238Y-102386428D01*
X202468476Y-102481666D01*
X202516095Y-102576904D01*
X202230380Y-101386428D02*
X202230380Y-101291190D01*
X202278000Y-101195952D01*
X202325619Y-101148333D01*
X202420857Y-101100714D01*
X202611333Y-101053095D01*
X202849428Y-101053095D01*
X203039904Y-101100714D01*
X203135142Y-101148333D01*
X203182761Y-101195952D01*
X203230380Y-101291190D01*
X203230380Y-101386428D01*
X203182761Y-101481666D01*
X203135142Y-101529285D01*
X203039904Y-101576904D01*
X202849428Y-101624523D01*
X202611333Y-101624523D01*
X202420857Y-101576904D01*
X202325619Y-101529285D01*
X202278000Y-101481666D01*
X202230380Y-101386428D01*
X167355142Y-82587380D02*
X167021809Y-82111190D01*
X166783714Y-82587380D02*
X166783714Y-81587380D01*
X167164666Y-81587380D01*
X167259904Y-81635000D01*
X167307523Y-81682619D01*
X167355142Y-81777857D01*
X167355142Y-81920714D01*
X167307523Y-82015952D01*
X167259904Y-82063571D01*
X167164666Y-82111190D01*
X166783714Y-82111190D01*
X168307523Y-82587380D02*
X167736095Y-82587380D01*
X168021809Y-82587380D02*
X168021809Y-81587380D01*
X167926571Y-81730238D01*
X167831333Y-81825476D01*
X167736095Y-81873095D01*
X169259904Y-82587380D02*
X168688476Y-82587380D01*
X168974190Y-82587380D02*
X168974190Y-81587380D01*
X168878952Y-81730238D01*
X168783714Y-81825476D01*
X168688476Y-81873095D01*
X165080380Y-71520357D02*
X164604190Y-71853690D01*
X165080380Y-72091785D02*
X164080380Y-72091785D01*
X164080380Y-71710833D01*
X164128000Y-71615595D01*
X164175619Y-71567976D01*
X164270857Y-71520357D01*
X164413714Y-71520357D01*
X164508952Y-71567976D01*
X164556571Y-71615595D01*
X164604190Y-71710833D01*
X164604190Y-72091785D01*
X165080380Y-70567976D02*
X165080380Y-71139404D01*
X165080380Y-70853690D02*
X164080380Y-70853690D01*
X164223238Y-70948928D01*
X164318476Y-71044166D01*
X164366095Y-71139404D01*
X164175619Y-70187023D02*
X164128000Y-70139404D01*
X164080380Y-70044166D01*
X164080380Y-69806071D01*
X164128000Y-69710833D01*
X164175619Y-69663214D01*
X164270857Y-69615595D01*
X164366095Y-69615595D01*
X164508952Y-69663214D01*
X165080380Y-70234642D01*
X165080380Y-69615595D01*
X185555142Y-100222381D02*
X185221809Y-99746191D01*
X184983714Y-100222381D02*
X184983714Y-99222381D01*
X185364666Y-99222381D01*
X185459904Y-99270001D01*
X185507523Y-99317620D01*
X185555142Y-99412858D01*
X185555142Y-99555715D01*
X185507523Y-99650953D01*
X185459904Y-99698572D01*
X185364666Y-99746191D01*
X184983714Y-99746191D01*
X186507523Y-100222381D02*
X185936095Y-100222381D01*
X186221809Y-100222381D02*
X186221809Y-99222381D01*
X186126571Y-99365239D01*
X186031333Y-99460477D01*
X185936095Y-99508096D01*
X186840857Y-99222381D02*
X187459904Y-99222381D01*
X187126571Y-99603334D01*
X187269428Y-99603334D01*
X187364666Y-99650953D01*
X187412285Y-99698572D01*
X187459904Y-99793810D01*
X187459904Y-100031905D01*
X187412285Y-100127143D01*
X187364666Y-100174762D01*
X187269428Y-100222381D01*
X186983714Y-100222381D01*
X186888476Y-100174762D01*
X186840857Y-100127143D01*
X185755142Y-105217380D02*
X185421809Y-104741190D01*
X185183714Y-105217380D02*
X185183714Y-104217380D01*
X185564666Y-104217380D01*
X185659904Y-104265000D01*
X185707523Y-104312619D01*
X185755142Y-104407857D01*
X185755142Y-104550714D01*
X185707523Y-104645952D01*
X185659904Y-104693571D01*
X185564666Y-104741190D01*
X185183714Y-104741190D01*
X186707523Y-105217380D02*
X186136095Y-105217380D01*
X186421809Y-105217380D02*
X186421809Y-104217380D01*
X186326571Y-104360238D01*
X186231333Y-104455476D01*
X186136095Y-104503095D01*
X187564666Y-104550714D02*
X187564666Y-105217380D01*
X187326571Y-104169761D02*
X187088476Y-104884047D01*
X187707523Y-104884047D01*
X130755142Y-83247380D02*
X130421809Y-82771190D01*
X130183714Y-83247380D02*
X130183714Y-82247380D01*
X130564666Y-82247380D01*
X130659904Y-82295000D01*
X130707523Y-82342619D01*
X130755142Y-82437857D01*
X130755142Y-82580714D01*
X130707523Y-82675952D01*
X130659904Y-82723571D01*
X130564666Y-82771190D01*
X130183714Y-82771190D01*
X131707523Y-83247380D02*
X131136095Y-83247380D01*
X131421809Y-83247380D02*
X131421809Y-82247380D01*
X131326571Y-82390238D01*
X131231333Y-82485476D01*
X131136095Y-82533095D01*
X132612285Y-82247380D02*
X132136095Y-82247380D01*
X132088476Y-82723571D01*
X132136095Y-82675952D01*
X132231333Y-82628333D01*
X132469428Y-82628333D01*
X132564666Y-82675952D01*
X132612285Y-82723571D01*
X132659904Y-82818809D01*
X132659904Y-83056904D01*
X132612285Y-83152142D01*
X132564666Y-83199761D01*
X132469428Y-83247380D01*
X132231333Y-83247380D01*
X132136095Y-83199761D01*
X132088476Y-83152142D01*
X138650380Y-68207857D02*
X138174190Y-68541190D01*
X138650380Y-68779285D02*
X137650380Y-68779285D01*
X137650380Y-68398333D01*
X137698000Y-68303095D01*
X137745619Y-68255476D01*
X137840857Y-68207857D01*
X137983714Y-68207857D01*
X138078952Y-68255476D01*
X138126571Y-68303095D01*
X138174190Y-68398333D01*
X138174190Y-68779285D01*
X138650380Y-67255476D02*
X138650380Y-67826904D01*
X138650380Y-67541190D02*
X137650380Y-67541190D01*
X137793238Y-67636428D01*
X137888476Y-67731666D01*
X137936095Y-67826904D01*
X137650380Y-66398333D02*
X137650380Y-66588809D01*
X137698000Y-66684047D01*
X137745619Y-66731666D01*
X137888476Y-66826904D01*
X138078952Y-66874523D01*
X138459904Y-66874523D01*
X138555142Y-66826904D01*
X138602761Y-66779285D01*
X138650380Y-66684047D01*
X138650380Y-66493571D01*
X138602761Y-66398333D01*
X138555142Y-66350714D01*
X138459904Y-66303095D01*
X138221809Y-66303095D01*
X138126571Y-66350714D01*
X138078952Y-66398333D01*
X138031333Y-66493571D01*
X138031333Y-66684047D01*
X138078952Y-66779285D01*
X138126571Y-66826904D01*
X138221809Y-66874523D01*
X140450380Y-68207857D02*
X139974190Y-68541190D01*
X140450380Y-68779285D02*
X139450380Y-68779285D01*
X139450380Y-68398333D01*
X139498000Y-68303095D01*
X139545619Y-68255476D01*
X139640857Y-68207857D01*
X139783714Y-68207857D01*
X139878952Y-68255476D01*
X139926571Y-68303095D01*
X139974190Y-68398333D01*
X139974190Y-68779285D01*
X140450380Y-67255476D02*
X140450380Y-67826904D01*
X140450380Y-67541190D02*
X139450380Y-67541190D01*
X139593238Y-67636428D01*
X139688476Y-67731666D01*
X139736095Y-67826904D01*
X139450380Y-66922142D02*
X139450380Y-66255476D01*
X140450380Y-66684047D01*
X122411750Y-64595876D02*
X122503315Y-64626398D01*
X122655924Y-64626398D01*
X122716968Y-64595876D01*
X122747490Y-64565355D01*
X122778011Y-64504311D01*
X122778011Y-64443268D01*
X122747490Y-64382224D01*
X122716968Y-64351702D01*
X122655924Y-64321181D01*
X122533837Y-64290659D01*
X122472794Y-64260137D01*
X122442272Y-64229615D01*
X122411750Y-64168572D01*
X122411750Y-64107528D01*
X122442272Y-64046485D01*
X122472794Y-64015963D01*
X122533837Y-63985441D01*
X122686446Y-63985441D01*
X122778011Y-64015963D01*
X122991664Y-63985441D02*
X123144272Y-64626398D01*
X123266360Y-64168572D01*
X123388447Y-64626398D01*
X123541055Y-63985441D01*
X124120969Y-64626398D02*
X123754708Y-64626398D01*
X123937838Y-64626398D02*
X123937838Y-63985441D01*
X123876795Y-64077007D01*
X123815751Y-64138050D01*
X123754708Y-64168572D01*
X149875030Y-50652992D02*
X149966595Y-50683514D01*
X150119204Y-50683514D01*
X150180248Y-50652992D01*
X150210770Y-50622471D01*
X150241291Y-50561427D01*
X150241291Y-50500384D01*
X150210770Y-50439340D01*
X150180248Y-50408818D01*
X150119204Y-50378297D01*
X149997117Y-50347775D01*
X149936074Y-50317253D01*
X149905552Y-50286731D01*
X149875030Y-50225688D01*
X149875030Y-50164644D01*
X149905552Y-50103601D01*
X149936074Y-50073079D01*
X149997117Y-50042557D01*
X150149726Y-50042557D01*
X150241291Y-50073079D01*
X150454944Y-50042557D02*
X150607552Y-50683514D01*
X150729640Y-50225688D01*
X150851727Y-50683514D01*
X151004335Y-50042557D01*
X151217988Y-50103601D02*
X151248509Y-50073079D01*
X151309553Y-50042557D01*
X151462162Y-50042557D01*
X151523205Y-50073079D01*
X151553727Y-50103601D01*
X151584249Y-50164644D01*
X151584249Y-50225688D01*
X151553727Y-50317253D01*
X151187466Y-50683514D01*
X151584249Y-50683514D01*
X154411750Y-81995876D02*
X154503315Y-82026398D01*
X154655924Y-82026398D01*
X154716968Y-81995876D01*
X154747490Y-81965355D01*
X154778011Y-81904311D01*
X154778011Y-81843268D01*
X154747490Y-81782224D01*
X154716968Y-81751702D01*
X154655924Y-81721181D01*
X154533837Y-81690659D01*
X154472794Y-81660137D01*
X154442272Y-81629615D01*
X154411750Y-81568572D01*
X154411750Y-81507528D01*
X154442272Y-81446485D01*
X154472794Y-81415963D01*
X154533837Y-81385441D01*
X154686446Y-81385441D01*
X154778011Y-81415963D01*
X154991664Y-81385441D02*
X155144272Y-82026398D01*
X155266360Y-81568572D01*
X155388447Y-82026398D01*
X155541055Y-81385441D01*
X155724186Y-81385441D02*
X156120969Y-81385441D01*
X155907317Y-81629615D01*
X155998882Y-81629615D01*
X156059925Y-81660137D01*
X156090447Y-81690659D01*
X156120969Y-81751702D01*
X156120969Y-81904311D01*
X156090447Y-81965355D01*
X156059925Y-81995876D01*
X155998882Y-82026398D01*
X155815751Y-82026398D01*
X155754708Y-81995876D01*
X155724186Y-81965355D01*
X154411750Y-89195876D02*
X154503315Y-89226398D01*
X154655924Y-89226398D01*
X154716968Y-89195876D01*
X154747490Y-89165355D01*
X154778011Y-89104311D01*
X154778011Y-89043268D01*
X154747490Y-88982224D01*
X154716968Y-88951702D01*
X154655924Y-88921181D01*
X154533837Y-88890659D01*
X154472794Y-88860137D01*
X154442272Y-88829615D01*
X154411750Y-88768572D01*
X154411750Y-88707528D01*
X154442272Y-88646485D01*
X154472794Y-88615963D01*
X154533837Y-88585441D01*
X154686446Y-88585441D01*
X154778011Y-88615963D01*
X154991664Y-88585441D02*
X155144272Y-89226398D01*
X155266360Y-88768572D01*
X155388447Y-89226398D01*
X155541055Y-88585441D01*
X156059925Y-88799094D02*
X156059925Y-89226398D01*
X155907317Y-88554919D02*
X155754708Y-89012746D01*
X156151491Y-89012746D01*
X154411750Y-74795876D02*
X154503315Y-74826398D01*
X154655924Y-74826398D01*
X154716968Y-74795876D01*
X154747490Y-74765355D01*
X154778011Y-74704311D01*
X154778011Y-74643268D01*
X154747490Y-74582224D01*
X154716968Y-74551702D01*
X154655924Y-74521181D01*
X154533837Y-74490659D01*
X154472794Y-74460137D01*
X154442272Y-74429615D01*
X154411750Y-74368572D01*
X154411750Y-74307528D01*
X154442272Y-74246485D01*
X154472794Y-74215963D01*
X154533837Y-74185441D01*
X154686446Y-74185441D01*
X154778011Y-74215963D01*
X154991664Y-74185441D02*
X155144272Y-74826398D01*
X155266360Y-74368572D01*
X155388447Y-74826398D01*
X155541055Y-74185441D01*
X156090447Y-74185441D02*
X155785229Y-74185441D01*
X155754708Y-74490659D01*
X155785229Y-74460137D01*
X155846273Y-74429615D01*
X155998882Y-74429615D01*
X156059925Y-74460137D01*
X156090447Y-74490659D01*
X156120969Y-74551702D01*
X156120969Y-74704311D01*
X156090447Y-74765355D01*
X156059925Y-74795876D01*
X155998882Y-74826398D01*
X155846273Y-74826398D01*
X155785229Y-74795876D01*
X155754708Y-74765355D01*
X118436095Y-117217380D02*
X118436095Y-118026904D01*
X118483714Y-118122142D01*
X118531333Y-118169761D01*
X118626571Y-118217380D01*
X118817047Y-118217380D01*
X118912285Y-118169761D01*
X118959904Y-118122142D01*
X119007523Y-118026904D01*
X119007523Y-117217380D01*
X120007523Y-118217380D02*
X119436095Y-118217380D01*
X119721809Y-118217380D02*
X119721809Y-117217380D01*
X119626571Y-117360238D01*
X119531333Y-117455476D01*
X119436095Y-117503095D01*
X118186095Y-106467380D02*
X118186095Y-107276904D01*
X118233714Y-107372142D01*
X118281333Y-107419761D01*
X118376571Y-107467380D01*
X118567047Y-107467380D01*
X118662285Y-107419761D01*
X118709904Y-107372142D01*
X118757523Y-107276904D01*
X118757523Y-106467380D01*
X119186095Y-106562619D02*
X119233714Y-106515000D01*
X119328952Y-106467380D01*
X119567047Y-106467380D01*
X119662285Y-106515000D01*
X119709904Y-106562619D01*
X119757523Y-106657857D01*
X119757523Y-106753095D01*
X119709904Y-106895952D01*
X119138476Y-107467380D01*
X119757523Y-107467380D01*
X134666095Y-63627380D02*
X134666095Y-64436904D01*
X134713714Y-64532142D01*
X134761333Y-64579761D01*
X134856571Y-64627380D01*
X135047047Y-64627380D01*
X135142285Y-64579761D01*
X135189904Y-64532142D01*
X135237523Y-64436904D01*
X135237523Y-63627380D01*
X135618476Y-63627380D02*
X136237523Y-63627380D01*
X135904190Y-64008333D01*
X136047047Y-64008333D01*
X136142285Y-64055952D01*
X136189904Y-64103571D01*
X136237523Y-64198809D01*
X136237523Y-64436904D01*
X136189904Y-64532142D01*
X136142285Y-64579761D01*
X136047047Y-64627380D01*
X135761333Y-64627380D01*
X135666095Y-64579761D01*
X135618476Y-64532142D01*
X139636095Y-113817380D02*
X139636095Y-114626904D01*
X139683714Y-114722142D01*
X139731333Y-114769761D01*
X139826571Y-114817380D01*
X140017047Y-114817380D01*
X140112285Y-114769761D01*
X140159904Y-114722142D01*
X140207523Y-114626904D01*
X140207523Y-113817380D01*
X141112285Y-114150714D02*
X141112285Y-114817380D01*
X140874190Y-113769761D02*
X140636095Y-114484047D01*
X141255142Y-114484047D01*
X135064666Y-114293571D02*
X134731333Y-114293571D01*
X134731333Y-114817380D02*
X134731333Y-113817380D01*
X135207523Y-113817380D01*
X135588476Y-114817380D02*
X135588476Y-113817380D01*
X135921809Y-114531666D01*
X136255142Y-113817380D01*
X136255142Y-114817380D01*
X136683714Y-113912619D02*
X136731333Y-113865000D01*
X136826571Y-113817380D01*
X137064666Y-113817380D01*
X137159904Y-113865000D01*
X137207523Y-113912619D01*
X137255142Y-114007857D01*
X137255142Y-114103095D01*
X137207523Y-114245952D01*
X136636095Y-114817380D01*
X137255142Y-114817380D01*
X138112285Y-114150714D02*
X138112285Y-114817380D01*
X137874190Y-113769761D02*
X137636095Y-114484047D01*
X138255142Y-114484047D01*
X139207523Y-114722142D02*
X139159904Y-114769761D01*
X139017047Y-114817380D01*
X138921809Y-114817380D01*
X138778952Y-114769761D01*
X138683714Y-114674523D01*
X138636095Y-114579285D01*
X138588476Y-114388809D01*
X138588476Y-114245952D01*
X138636095Y-114055476D01*
X138683714Y-113960238D01*
X138778952Y-113865000D01*
X138921809Y-113817380D01*
X139017047Y-113817380D01*
X139159904Y-113865000D01*
X139207523Y-113912619D01*
X139826571Y-113817380D02*
X139921809Y-113817380D01*
X140017047Y-113865000D01*
X140064666Y-113912619D01*
X140112285Y-114007857D01*
X140159904Y-114198333D01*
X140159904Y-114436428D01*
X140112285Y-114626904D01*
X140064666Y-114722142D01*
X140017047Y-114769761D01*
X139921809Y-114817380D01*
X139826571Y-114817380D01*
X139731333Y-114769761D01*
X139683714Y-114722142D01*
X139636095Y-114626904D01*
X139588476Y-114436428D01*
X139588476Y-114198333D01*
X139636095Y-114007857D01*
X139683714Y-113912619D01*
X139731333Y-113865000D01*
X139826571Y-113817380D01*
X141017047Y-114150714D02*
X141017047Y-114817380D01*
X140778952Y-113769761D02*
X140540857Y-114484047D01*
X141159904Y-114484047D01*
X141874190Y-114293571D02*
X142017047Y-114341190D01*
X142064666Y-114388809D01*
X142112285Y-114484047D01*
X142112285Y-114626904D01*
X142064666Y-114722142D01*
X142017047Y-114769761D01*
X141921809Y-114817380D01*
X141540857Y-114817380D01*
X141540857Y-113817380D01*
X141874190Y-113817380D01*
X141969428Y-113865000D01*
X142017047Y-113912619D01*
X142064666Y-114007857D01*
X142064666Y-114103095D01*
X142017047Y-114198333D01*
X141969428Y-114245952D01*
X141874190Y-114293571D01*
X141540857Y-114293571D01*
X142540857Y-114436428D02*
X143302761Y-114436428D01*
X144302761Y-113865000D02*
X144207523Y-113817380D01*
X144064666Y-113817380D01*
X143921809Y-113865000D01*
X143826571Y-113960238D01*
X143778952Y-114055476D01*
X143731333Y-114245952D01*
X143731333Y-114388809D01*
X143778952Y-114579285D01*
X143826571Y-114674523D01*
X143921809Y-114769761D01*
X144064666Y-114817380D01*
X144159904Y-114817380D01*
X144302761Y-114769761D01*
X144350380Y-114722142D01*
X144350380Y-114388809D01*
X144159904Y-114388809D01*
X144636095Y-113817380D02*
X145207523Y-113817380D01*
X144921809Y-114817380D02*
X144921809Y-113817380D01*
X146112285Y-114817380D02*
X145778952Y-114341190D01*
X145540857Y-114817380D02*
X145540857Y-113817380D01*
X145921809Y-113817380D01*
X146017047Y-113865000D01*
X146064666Y-113912619D01*
X146112285Y-114007857D01*
X146112285Y-114150714D01*
X146064666Y-114245952D01*
X146017047Y-114293571D01*
X145921809Y-114341190D01*
X145540857Y-114341190D01*
X137419850Y-110230900D02*
X137419850Y-110468996D01*
X137181754Y-110373758D02*
X137419850Y-110468996D01*
X137657945Y-110373758D01*
X137276992Y-110659472D02*
X137419850Y-110468996D01*
X137562707Y-110659472D01*
X137419850Y-110230900D02*
X137419850Y-110468996D01*
X137181754Y-110373758D02*
X137419850Y-110468996D01*
X137657945Y-110373758D01*
X137276992Y-110659472D02*
X137419850Y-110468996D01*
X137562707Y-110659472D01*
X181236095Y-90817380D02*
X181236095Y-91626904D01*
X181283714Y-91722142D01*
X181331333Y-91769761D01*
X181426571Y-91817380D01*
X181617047Y-91817380D01*
X181712285Y-91769761D01*
X181759904Y-91722142D01*
X181807523Y-91626904D01*
X181807523Y-90817380D01*
X182759904Y-90817380D02*
X182283714Y-90817380D01*
X182236095Y-91293571D01*
X182283714Y-91245952D01*
X182378952Y-91198333D01*
X182617047Y-91198333D01*
X182712285Y-91245952D01*
X182759904Y-91293571D01*
X182807523Y-91388809D01*
X182807523Y-91626904D01*
X182759904Y-91722142D01*
X182712285Y-91769761D01*
X182617047Y-91817380D01*
X182378952Y-91817380D01*
X182283714Y-91769761D01*
X182236095Y-91722142D01*
X175878952Y-91531666D02*
X176355142Y-91531666D01*
X175783714Y-91817380D02*
X176117047Y-90817380D01*
X176450380Y-91817380D01*
X176640857Y-90817380D02*
X176974190Y-91817380D01*
X177307523Y-90817380D01*
X178212285Y-91817380D02*
X177878952Y-91341190D01*
X177640857Y-91817380D02*
X177640857Y-90817380D01*
X178021809Y-90817380D01*
X178117047Y-90865000D01*
X178164666Y-90912619D01*
X178212285Y-91007857D01*
X178212285Y-91150714D01*
X178164666Y-91245952D01*
X178117047Y-91293571D01*
X178021809Y-91341190D01*
X177640857Y-91341190D01*
X178545619Y-90817380D02*
X179164666Y-90817380D01*
X178831333Y-91198333D01*
X178974190Y-91198333D01*
X179069428Y-91245952D01*
X179117047Y-91293571D01*
X179164666Y-91388809D01*
X179164666Y-91626904D01*
X179117047Y-91722142D01*
X179069428Y-91769761D01*
X178974190Y-91817380D01*
X178688476Y-91817380D01*
X178593238Y-91769761D01*
X178545619Y-91722142D01*
X179545619Y-90912619D02*
X179593238Y-90865000D01*
X179688476Y-90817380D01*
X179926571Y-90817380D01*
X180021809Y-90865000D01*
X180069428Y-90912619D01*
X180117047Y-91007857D01*
X180117047Y-91103095D01*
X180069428Y-91245952D01*
X179498000Y-91817380D01*
X180117047Y-91817380D01*
X180545619Y-91817380D02*
X180545619Y-90817380D01*
X180783714Y-90817380D01*
X180926571Y-90865000D01*
X181021809Y-90960238D01*
X181069428Y-91055476D01*
X181117047Y-91245952D01*
X181117047Y-91388809D01*
X181069428Y-91579285D01*
X181021809Y-91674523D01*
X180926571Y-91769761D01*
X180783714Y-91817380D01*
X180545619Y-91817380D01*
X181498000Y-91531666D02*
X181974190Y-91531666D01*
X181402761Y-91817380D02*
X181736095Y-90817380D01*
X182069428Y-91817380D01*
X182307523Y-90817380D02*
X182926571Y-90817380D01*
X182593238Y-91198333D01*
X182736095Y-91198333D01*
X182831333Y-91245952D01*
X182878952Y-91293571D01*
X182926571Y-91388809D01*
X182926571Y-91626904D01*
X182878952Y-91722142D01*
X182831333Y-91769761D01*
X182736095Y-91817380D01*
X182450380Y-91817380D01*
X182355142Y-91769761D01*
X182307523Y-91722142D01*
X183307523Y-90912619D02*
X183355142Y-90865000D01*
X183450380Y-90817380D01*
X183688476Y-90817380D01*
X183783714Y-90865000D01*
X183831333Y-90912619D01*
X183878952Y-91007857D01*
X183878952Y-91103095D01*
X183831333Y-91245952D01*
X183259904Y-91817380D01*
X183878952Y-91817380D01*
X184307523Y-91436428D02*
X185069428Y-91436428D01*
X185545619Y-91817380D02*
X185545619Y-90817380D01*
X185783714Y-91912619D02*
X186545619Y-91912619D01*
X186783714Y-91817380D02*
X186783714Y-90817380D01*
X187164666Y-90817380D01*
X187259904Y-90865000D01*
X187307523Y-90912619D01*
X187355142Y-91007857D01*
X187355142Y-91150714D01*
X187307523Y-91245952D01*
X187259904Y-91293571D01*
X187164666Y-91341190D01*
X186783714Y-91341190D01*
X187640857Y-90817380D02*
X188212285Y-90817380D01*
X187926571Y-91817380D02*
X187926571Y-90817380D01*
X176517201Y-87836380D02*
X176517201Y-88074476D01*
X176279105Y-87979238D02*
X176517201Y-88074476D01*
X176755296Y-87979238D01*
X176374343Y-88264952D02*
X176517201Y-88074476D01*
X176660058Y-88264952D01*
X176517201Y-87836380D02*
X176517201Y-88074476D01*
X176279105Y-87979238D02*
X176517201Y-88074476D01*
X176755296Y-87979238D01*
X176374343Y-88264952D02*
X176517201Y-88074476D01*
X176660058Y-88264952D01*
X195373595Y-99367380D02*
X195373595Y-100176904D01*
X195421214Y-100272142D01*
X195468833Y-100319761D01*
X195564071Y-100367380D01*
X195754547Y-100367380D01*
X195849785Y-100319761D01*
X195897404Y-100272142D01*
X195945023Y-100176904D01*
X195945023Y-99367380D01*
X196849785Y-99367380D02*
X196659309Y-99367380D01*
X196564071Y-99415000D01*
X196516452Y-99462619D01*
X196421214Y-99605476D01*
X196373595Y-99795952D01*
X196373595Y-100176904D01*
X196421214Y-100272142D01*
X196468833Y-100319761D01*
X196564071Y-100367380D01*
X196754547Y-100367380D01*
X196849785Y-100319761D01*
X196897404Y-100272142D01*
X196945023Y-100176904D01*
X196945023Y-99938809D01*
X196897404Y-99843571D01*
X196849785Y-99795952D01*
X196754547Y-99748333D01*
X196564071Y-99748333D01*
X196468833Y-99795952D01*
X196421214Y-99843571D01*
X196373595Y-99938809D01*
X118186095Y-96217380D02*
X118186095Y-97026904D01*
X118233714Y-97122142D01*
X118281333Y-97169761D01*
X118376571Y-97217380D01*
X118567047Y-97217380D01*
X118662285Y-97169761D01*
X118709904Y-97122142D01*
X118757523Y-97026904D01*
X118757523Y-96217380D01*
X119138476Y-96217380D02*
X119805142Y-96217380D01*
X119376571Y-97217380D01*
X129900380Y-77126904D02*
X130709904Y-77126904D01*
X130805142Y-77079285D01*
X130852761Y-77031666D01*
X130900380Y-76936428D01*
X130900380Y-76745952D01*
X130852761Y-76650714D01*
X130805142Y-76603095D01*
X130709904Y-76555476D01*
X129900380Y-76555476D01*
X130900380Y-76031666D02*
X130900380Y-75841190D01*
X130852761Y-75745952D01*
X130805142Y-75698333D01*
X130662285Y-75603095D01*
X130471809Y-75555476D01*
X130090857Y-75555476D01*
X129995619Y-75603095D01*
X129948000Y-75650714D01*
X129900380Y-75745952D01*
X129900380Y-75936428D01*
X129948000Y-76031666D01*
X129995619Y-76079285D01*
X130090857Y-76126904D01*
X130328952Y-76126904D01*
X130424190Y-76079285D01*
X130471809Y-76031666D01*
X130519428Y-75936428D01*
X130519428Y-75745952D01*
X130471809Y-75650714D01*
X130424190Y-75603095D01*
X130328952Y-75555476D01*
X198121809Y-76941190D02*
X198121809Y-77417380D01*
X197788476Y-76417380D02*
X198121809Y-76941190D01*
X198455142Y-76417380D01*
X199312285Y-77417380D02*
X198740857Y-77417380D01*
X199026571Y-77417380D02*
X199026571Y-76417380D01*
X198931333Y-76560238D01*
X198836095Y-76655476D01*
X198740857Y-76703095D01*
X154809666Y-111109333D02*
X154809666Y-109709333D01*
X155143000Y-109709333D01*
X155343000Y-109776000D01*
X155476333Y-109909333D01*
X155543000Y-110042666D01*
X155609666Y-110309333D01*
X155609666Y-110509333D01*
X155543000Y-110776000D01*
X155476333Y-110909333D01*
X155343000Y-111042666D01*
X155143000Y-111109333D01*
X154809666Y-111109333D01*
X156276333Y-111109333D02*
X156543000Y-111109333D01*
X156676333Y-111042666D01*
X156743000Y-110976000D01*
X156876333Y-110776000D01*
X156943000Y-110509333D01*
X156943000Y-109976000D01*
X156876333Y-109842666D01*
X156809666Y-109776000D01*
X156676333Y-109709333D01*
X156409666Y-109709333D01*
X156276333Y-109776000D01*
X156209666Y-109842666D01*
X156143000Y-109976000D01*
X156143000Y-110309333D01*
X156209666Y-110442666D01*
X156276333Y-110509333D01*
X156409666Y-110576000D01*
X156676333Y-110576000D01*
X156809666Y-110509333D01*
X156876333Y-110442666D01*
X156943000Y-110309333D01*
M02*
