G04 #@! TF.GenerationSoftware,KiCad,Pcbnew,(5.1.12)-1*
G04 #@! TF.CreationDate,2022-03-23T16:05:10-05:00*
G04 #@! TF.ProjectId,AVR-CTF,4156522d-4354-4462-9e6b-696361645f70,rev?*
G04 #@! TF.SameCoordinates,Original*
G04 #@! TF.FileFunction,Paste,Bot*
G04 #@! TF.FilePolarity,Positive*
%FSLAX46Y46*%
G04 Gerber Fmt 4.6, Leading zero omitted, Abs format (unit mm)*
G04 Created by KiCad (PCBNEW (5.1.12)-1) date 2022-03-23 16:05:10*
%MOMM*%
%LPD*%
G01*
G04 APERTURE LIST*
%ADD10C,0.001000*%
G04 APERTURE END LIST*
D10*
G36*
X207798000Y-105165000D02*
G01*
X207398000Y-105165000D01*
X207386000Y-105165000D01*
X207374000Y-105164000D01*
X207363000Y-105162000D01*
X207351000Y-105160000D01*
X207340000Y-105157000D01*
X207328000Y-105154000D01*
X207317000Y-105150000D01*
X207306000Y-105146000D01*
X207296000Y-105140000D01*
X207285000Y-105135000D01*
X207275000Y-105129000D01*
X207266000Y-105122000D01*
X207256000Y-105115000D01*
X207247000Y-105107000D01*
X207239000Y-105099000D01*
X207231000Y-105091000D01*
X207223000Y-105082000D01*
X207216000Y-105072000D01*
X207209000Y-105063000D01*
X207203000Y-105053000D01*
X207198000Y-105042000D01*
X207192000Y-105032000D01*
X207188000Y-105021000D01*
X207184000Y-105010000D01*
X207181000Y-104998000D01*
X207178000Y-104987000D01*
X207176000Y-104975000D01*
X207174000Y-104964000D01*
X207173000Y-104952000D01*
X207173000Y-104940000D01*
X207173000Y-104928000D01*
X207174000Y-104916000D01*
X207176000Y-104905000D01*
X207178000Y-104893000D01*
X207181000Y-104882000D01*
X207184000Y-104870000D01*
X207188000Y-104859000D01*
X207192000Y-104848000D01*
X207198000Y-104838000D01*
X207203000Y-104828000D01*
X207209000Y-104817000D01*
X207216000Y-104808000D01*
X207223000Y-104798000D01*
X207231000Y-104789000D01*
X207239000Y-104781000D01*
X207247000Y-104773000D01*
X207256000Y-104765000D01*
X207266000Y-104758000D01*
X207275000Y-104751000D01*
X207286000Y-104745000D01*
X207296000Y-104740000D01*
X207306000Y-104734000D01*
X207317000Y-104730000D01*
X207328000Y-104726000D01*
X207340000Y-104723000D01*
X207351000Y-104720000D01*
X207363000Y-104718000D01*
X207374000Y-104716000D01*
X207386000Y-104715000D01*
X207398000Y-104715000D01*
X207798000Y-104715000D01*
X207798000Y-104415000D01*
X207398000Y-104415000D01*
X207371000Y-104416000D01*
X207343000Y-104418000D01*
X207316000Y-104421000D01*
X207289000Y-104426000D01*
X207262000Y-104433000D01*
X207236000Y-104441000D01*
X207210000Y-104450000D01*
X207184000Y-104460000D01*
X207160000Y-104472000D01*
X207136000Y-104485000D01*
X207112000Y-104500000D01*
X207089000Y-104515000D01*
X207068000Y-104532000D01*
X207047000Y-104550000D01*
X207027000Y-104569000D01*
X207008000Y-104589000D01*
X206990000Y-104610000D01*
X206973000Y-104631000D01*
X206958000Y-104654000D01*
X206943000Y-104678000D01*
X206930000Y-104702000D01*
X206918000Y-104726000D01*
X206908000Y-104752000D01*
X206899000Y-104778000D01*
X206891000Y-104804000D01*
X206884000Y-104831000D01*
X206879000Y-104858000D01*
X206876000Y-104885000D01*
X206874000Y-104913000D01*
X206873000Y-104940000D01*
X206874000Y-104967000D01*
X206876000Y-104995000D01*
X206879000Y-105022000D01*
X206884000Y-105049000D01*
X206891000Y-105076000D01*
X206899000Y-105102000D01*
X206908000Y-105128000D01*
X206918000Y-105154000D01*
X206930000Y-105178000D01*
X206943000Y-105202000D01*
X206958000Y-105226000D01*
X206973000Y-105249000D01*
X206990000Y-105270000D01*
X207008000Y-105291000D01*
X207027000Y-105311000D01*
X207047000Y-105330000D01*
X207068000Y-105348000D01*
X207089000Y-105365000D01*
X207112000Y-105380000D01*
X207135000Y-105395000D01*
X207160000Y-105408000D01*
X207184000Y-105420000D01*
X207210000Y-105430000D01*
X207236000Y-105439000D01*
X207262000Y-105447000D01*
X207289000Y-105454000D01*
X207316000Y-105459000D01*
X207343000Y-105462000D01*
X207371000Y-105464000D01*
X207398000Y-105465000D01*
X207798000Y-105465000D01*
X207798000Y-105165000D01*
G37*
X207798000Y-105165000D02*
X207398000Y-105165000D01*
X207386000Y-105165000D01*
X207374000Y-105164000D01*
X207363000Y-105162000D01*
X207351000Y-105160000D01*
X207340000Y-105157000D01*
X207328000Y-105154000D01*
X207317000Y-105150000D01*
X207306000Y-105146000D01*
X207296000Y-105140000D01*
X207285000Y-105135000D01*
X207275000Y-105129000D01*
X207266000Y-105122000D01*
X207256000Y-105115000D01*
X207247000Y-105107000D01*
X207239000Y-105099000D01*
X207231000Y-105091000D01*
X207223000Y-105082000D01*
X207216000Y-105072000D01*
X207209000Y-105063000D01*
X207203000Y-105053000D01*
X207198000Y-105042000D01*
X207192000Y-105032000D01*
X207188000Y-105021000D01*
X207184000Y-105010000D01*
X207181000Y-104998000D01*
X207178000Y-104987000D01*
X207176000Y-104975000D01*
X207174000Y-104964000D01*
X207173000Y-104952000D01*
X207173000Y-104940000D01*
X207173000Y-104928000D01*
X207174000Y-104916000D01*
X207176000Y-104905000D01*
X207178000Y-104893000D01*
X207181000Y-104882000D01*
X207184000Y-104870000D01*
X207188000Y-104859000D01*
X207192000Y-104848000D01*
X207198000Y-104838000D01*
X207203000Y-104828000D01*
X207209000Y-104817000D01*
X207216000Y-104808000D01*
X207223000Y-104798000D01*
X207231000Y-104789000D01*
X207239000Y-104781000D01*
X207247000Y-104773000D01*
X207256000Y-104765000D01*
X207266000Y-104758000D01*
X207275000Y-104751000D01*
X207286000Y-104745000D01*
X207296000Y-104740000D01*
X207306000Y-104734000D01*
X207317000Y-104730000D01*
X207328000Y-104726000D01*
X207340000Y-104723000D01*
X207351000Y-104720000D01*
X207363000Y-104718000D01*
X207374000Y-104716000D01*
X207386000Y-104715000D01*
X207398000Y-104715000D01*
X207798000Y-104715000D01*
X207798000Y-104415000D01*
X207398000Y-104415000D01*
X207371000Y-104416000D01*
X207343000Y-104418000D01*
X207316000Y-104421000D01*
X207289000Y-104426000D01*
X207262000Y-104433000D01*
X207236000Y-104441000D01*
X207210000Y-104450000D01*
X207184000Y-104460000D01*
X207160000Y-104472000D01*
X207136000Y-104485000D01*
X207112000Y-104500000D01*
X207089000Y-104515000D01*
X207068000Y-104532000D01*
X207047000Y-104550000D01*
X207027000Y-104569000D01*
X207008000Y-104589000D01*
X206990000Y-104610000D01*
X206973000Y-104631000D01*
X206958000Y-104654000D01*
X206943000Y-104678000D01*
X206930000Y-104702000D01*
X206918000Y-104726000D01*
X206908000Y-104752000D01*
X206899000Y-104778000D01*
X206891000Y-104804000D01*
X206884000Y-104831000D01*
X206879000Y-104858000D01*
X206876000Y-104885000D01*
X206874000Y-104913000D01*
X206873000Y-104940000D01*
X206874000Y-104967000D01*
X206876000Y-104995000D01*
X206879000Y-105022000D01*
X206884000Y-105049000D01*
X206891000Y-105076000D01*
X206899000Y-105102000D01*
X206908000Y-105128000D01*
X206918000Y-105154000D01*
X206930000Y-105178000D01*
X206943000Y-105202000D01*
X206958000Y-105226000D01*
X206973000Y-105249000D01*
X206990000Y-105270000D01*
X207008000Y-105291000D01*
X207027000Y-105311000D01*
X207047000Y-105330000D01*
X207068000Y-105348000D01*
X207089000Y-105365000D01*
X207112000Y-105380000D01*
X207135000Y-105395000D01*
X207160000Y-105408000D01*
X207184000Y-105420000D01*
X207210000Y-105430000D01*
X207236000Y-105439000D01*
X207262000Y-105447000D01*
X207289000Y-105454000D01*
X207316000Y-105459000D01*
X207343000Y-105462000D01*
X207371000Y-105464000D01*
X207398000Y-105465000D01*
X207798000Y-105465000D01*
X207798000Y-105165000D01*
G36*
X207798000Y-104715000D02*
G01*
X208198000Y-104715000D01*
X208210000Y-104715000D01*
X208222000Y-104716000D01*
X208233000Y-104718000D01*
X208245000Y-104720000D01*
X208256000Y-104723000D01*
X208268000Y-104726000D01*
X208279000Y-104730000D01*
X208290000Y-104734000D01*
X208300000Y-104740000D01*
X208310000Y-104745000D01*
X208321000Y-104751000D01*
X208330000Y-104758000D01*
X208340000Y-104765000D01*
X208349000Y-104773000D01*
X208357000Y-104781000D01*
X208365000Y-104789000D01*
X208373000Y-104798000D01*
X208380000Y-104808000D01*
X208387000Y-104817000D01*
X208393000Y-104828000D01*
X208398000Y-104838000D01*
X208404000Y-104848000D01*
X208408000Y-104859000D01*
X208412000Y-104870000D01*
X208415000Y-104882000D01*
X208418000Y-104893000D01*
X208420000Y-104905000D01*
X208422000Y-104916000D01*
X208423000Y-104928000D01*
X208423000Y-104940000D01*
X208423000Y-104952000D01*
X208422000Y-104964000D01*
X208420000Y-104975000D01*
X208418000Y-104987000D01*
X208415000Y-104998000D01*
X208412000Y-105010000D01*
X208408000Y-105021000D01*
X208404000Y-105032000D01*
X208398000Y-105042000D01*
X208393000Y-105053000D01*
X208387000Y-105063000D01*
X208380000Y-105072000D01*
X208373000Y-105082000D01*
X208365000Y-105091000D01*
X208357000Y-105099000D01*
X208349000Y-105107000D01*
X208340000Y-105115000D01*
X208330000Y-105122000D01*
X208321000Y-105129000D01*
X208311000Y-105135000D01*
X208300000Y-105140000D01*
X208290000Y-105146000D01*
X208279000Y-105150000D01*
X208268000Y-105154000D01*
X208256000Y-105157000D01*
X208245000Y-105160000D01*
X208233000Y-105162000D01*
X208222000Y-105164000D01*
X208210000Y-105165000D01*
X208198000Y-105165000D01*
X207798000Y-105165000D01*
X207798000Y-105465000D01*
X208198000Y-105465000D01*
X208225000Y-105464000D01*
X208253000Y-105462000D01*
X208280000Y-105459000D01*
X208307000Y-105454000D01*
X208334000Y-105447000D01*
X208360000Y-105439000D01*
X208386000Y-105430000D01*
X208412000Y-105420000D01*
X208436000Y-105408000D01*
X208461000Y-105395000D01*
X208484000Y-105380000D01*
X208507000Y-105365000D01*
X208528000Y-105348000D01*
X208549000Y-105330000D01*
X208569000Y-105311000D01*
X208588000Y-105291000D01*
X208606000Y-105270000D01*
X208623000Y-105249000D01*
X208638000Y-105226000D01*
X208653000Y-105202000D01*
X208666000Y-105178000D01*
X208678000Y-105154000D01*
X208688000Y-105128000D01*
X208697000Y-105102000D01*
X208705000Y-105076000D01*
X208712000Y-105049000D01*
X208717000Y-105022000D01*
X208720000Y-104995000D01*
X208722000Y-104967000D01*
X208723000Y-104940000D01*
X208722000Y-104913000D01*
X208720000Y-104885000D01*
X208717000Y-104858000D01*
X208712000Y-104831000D01*
X208705000Y-104804000D01*
X208697000Y-104778000D01*
X208688000Y-104752000D01*
X208678000Y-104726000D01*
X208666000Y-104702000D01*
X208653000Y-104678000D01*
X208638000Y-104654000D01*
X208623000Y-104631000D01*
X208606000Y-104610000D01*
X208588000Y-104589000D01*
X208569000Y-104569000D01*
X208549000Y-104550000D01*
X208528000Y-104532000D01*
X208507000Y-104515000D01*
X208484000Y-104500000D01*
X208460000Y-104485000D01*
X208436000Y-104472000D01*
X208412000Y-104460000D01*
X208386000Y-104450000D01*
X208360000Y-104441000D01*
X208334000Y-104433000D01*
X208307000Y-104426000D01*
X208280000Y-104421000D01*
X208253000Y-104418000D01*
X208225000Y-104416000D01*
X208198000Y-104415000D01*
X207798000Y-104415000D01*
X207798000Y-104715000D01*
G37*
X207798000Y-104715000D02*
X208198000Y-104715000D01*
X208210000Y-104715000D01*
X208222000Y-104716000D01*
X208233000Y-104718000D01*
X208245000Y-104720000D01*
X208256000Y-104723000D01*
X208268000Y-104726000D01*
X208279000Y-104730000D01*
X208290000Y-104734000D01*
X208300000Y-104740000D01*
X208310000Y-104745000D01*
X208321000Y-104751000D01*
X208330000Y-104758000D01*
X208340000Y-104765000D01*
X208349000Y-104773000D01*
X208357000Y-104781000D01*
X208365000Y-104789000D01*
X208373000Y-104798000D01*
X208380000Y-104808000D01*
X208387000Y-104817000D01*
X208393000Y-104828000D01*
X208398000Y-104838000D01*
X208404000Y-104848000D01*
X208408000Y-104859000D01*
X208412000Y-104870000D01*
X208415000Y-104882000D01*
X208418000Y-104893000D01*
X208420000Y-104905000D01*
X208422000Y-104916000D01*
X208423000Y-104928000D01*
X208423000Y-104940000D01*
X208423000Y-104952000D01*
X208422000Y-104964000D01*
X208420000Y-104975000D01*
X208418000Y-104987000D01*
X208415000Y-104998000D01*
X208412000Y-105010000D01*
X208408000Y-105021000D01*
X208404000Y-105032000D01*
X208398000Y-105042000D01*
X208393000Y-105053000D01*
X208387000Y-105063000D01*
X208380000Y-105072000D01*
X208373000Y-105082000D01*
X208365000Y-105091000D01*
X208357000Y-105099000D01*
X208349000Y-105107000D01*
X208340000Y-105115000D01*
X208330000Y-105122000D01*
X208321000Y-105129000D01*
X208311000Y-105135000D01*
X208300000Y-105140000D01*
X208290000Y-105146000D01*
X208279000Y-105150000D01*
X208268000Y-105154000D01*
X208256000Y-105157000D01*
X208245000Y-105160000D01*
X208233000Y-105162000D01*
X208222000Y-105164000D01*
X208210000Y-105165000D01*
X208198000Y-105165000D01*
X207798000Y-105165000D01*
X207798000Y-105465000D01*
X208198000Y-105465000D01*
X208225000Y-105464000D01*
X208253000Y-105462000D01*
X208280000Y-105459000D01*
X208307000Y-105454000D01*
X208334000Y-105447000D01*
X208360000Y-105439000D01*
X208386000Y-105430000D01*
X208412000Y-105420000D01*
X208436000Y-105408000D01*
X208461000Y-105395000D01*
X208484000Y-105380000D01*
X208507000Y-105365000D01*
X208528000Y-105348000D01*
X208549000Y-105330000D01*
X208569000Y-105311000D01*
X208588000Y-105291000D01*
X208606000Y-105270000D01*
X208623000Y-105249000D01*
X208638000Y-105226000D01*
X208653000Y-105202000D01*
X208666000Y-105178000D01*
X208678000Y-105154000D01*
X208688000Y-105128000D01*
X208697000Y-105102000D01*
X208705000Y-105076000D01*
X208712000Y-105049000D01*
X208717000Y-105022000D01*
X208720000Y-104995000D01*
X208722000Y-104967000D01*
X208723000Y-104940000D01*
X208722000Y-104913000D01*
X208720000Y-104885000D01*
X208717000Y-104858000D01*
X208712000Y-104831000D01*
X208705000Y-104804000D01*
X208697000Y-104778000D01*
X208688000Y-104752000D01*
X208678000Y-104726000D01*
X208666000Y-104702000D01*
X208653000Y-104678000D01*
X208638000Y-104654000D01*
X208623000Y-104631000D01*
X208606000Y-104610000D01*
X208588000Y-104589000D01*
X208569000Y-104569000D01*
X208549000Y-104550000D01*
X208528000Y-104532000D01*
X208507000Y-104515000D01*
X208484000Y-104500000D01*
X208460000Y-104485000D01*
X208436000Y-104472000D01*
X208412000Y-104460000D01*
X208386000Y-104450000D01*
X208360000Y-104441000D01*
X208334000Y-104433000D01*
X208307000Y-104426000D01*
X208280000Y-104421000D01*
X208253000Y-104418000D01*
X208225000Y-104416000D01*
X208198000Y-104415000D01*
X207798000Y-104415000D01*
X207798000Y-104715000D01*
G36*
X207798000Y-98015000D02*
G01*
X207398000Y-98015000D01*
X207386000Y-98015000D01*
X207374000Y-98014000D01*
X207363000Y-98012000D01*
X207351000Y-98010000D01*
X207340000Y-98007000D01*
X207328000Y-98004000D01*
X207317000Y-98000000D01*
X207306000Y-97996000D01*
X207296000Y-97990000D01*
X207286000Y-97985000D01*
X207275000Y-97979000D01*
X207266000Y-97972000D01*
X207256000Y-97965000D01*
X207247000Y-97957000D01*
X207239000Y-97949000D01*
X207231000Y-97941000D01*
X207223000Y-97932000D01*
X207216000Y-97922000D01*
X207209000Y-97913000D01*
X207203000Y-97902000D01*
X207198000Y-97892000D01*
X207192000Y-97882000D01*
X207188000Y-97871000D01*
X207184000Y-97860000D01*
X207181000Y-97848000D01*
X207178000Y-97837000D01*
X207176000Y-97825000D01*
X207174000Y-97814000D01*
X207173000Y-97802000D01*
X207173000Y-97790000D01*
X207173000Y-97778000D01*
X207174000Y-97766000D01*
X207176000Y-97755000D01*
X207178000Y-97743000D01*
X207181000Y-97732000D01*
X207184000Y-97720000D01*
X207188000Y-97709000D01*
X207192000Y-97698000D01*
X207198000Y-97688000D01*
X207203000Y-97677000D01*
X207209000Y-97667000D01*
X207216000Y-97658000D01*
X207223000Y-97648000D01*
X207231000Y-97639000D01*
X207239000Y-97631000D01*
X207247000Y-97623000D01*
X207256000Y-97615000D01*
X207266000Y-97608000D01*
X207275000Y-97601000D01*
X207285000Y-97595000D01*
X207296000Y-97590000D01*
X207306000Y-97584000D01*
X207317000Y-97580000D01*
X207328000Y-97576000D01*
X207340000Y-97573000D01*
X207351000Y-97570000D01*
X207363000Y-97568000D01*
X207374000Y-97566000D01*
X207386000Y-97565000D01*
X207398000Y-97565000D01*
X207798000Y-97565000D01*
X207798000Y-97265000D01*
X207398000Y-97265000D01*
X207371000Y-97266000D01*
X207343000Y-97268000D01*
X207316000Y-97271000D01*
X207289000Y-97276000D01*
X207262000Y-97283000D01*
X207236000Y-97291000D01*
X207210000Y-97300000D01*
X207184000Y-97310000D01*
X207160000Y-97322000D01*
X207135000Y-97335000D01*
X207112000Y-97350000D01*
X207089000Y-97365000D01*
X207068000Y-97382000D01*
X207047000Y-97400000D01*
X207027000Y-97419000D01*
X207008000Y-97439000D01*
X206990000Y-97460000D01*
X206973000Y-97481000D01*
X206958000Y-97504000D01*
X206943000Y-97528000D01*
X206930000Y-97552000D01*
X206918000Y-97576000D01*
X206908000Y-97602000D01*
X206899000Y-97628000D01*
X206891000Y-97654000D01*
X206884000Y-97681000D01*
X206879000Y-97708000D01*
X206876000Y-97735000D01*
X206874000Y-97763000D01*
X206873000Y-97790000D01*
X206874000Y-97817000D01*
X206876000Y-97845000D01*
X206879000Y-97872000D01*
X206884000Y-97899000D01*
X206891000Y-97926000D01*
X206899000Y-97952000D01*
X206908000Y-97978000D01*
X206918000Y-98004000D01*
X206930000Y-98028000D01*
X206943000Y-98052000D01*
X206958000Y-98076000D01*
X206973000Y-98099000D01*
X206990000Y-98120000D01*
X207008000Y-98141000D01*
X207027000Y-98161000D01*
X207047000Y-98180000D01*
X207068000Y-98198000D01*
X207089000Y-98215000D01*
X207112000Y-98230000D01*
X207136000Y-98245000D01*
X207160000Y-98258000D01*
X207184000Y-98270000D01*
X207210000Y-98280000D01*
X207236000Y-98289000D01*
X207262000Y-98297000D01*
X207289000Y-98304000D01*
X207316000Y-98309000D01*
X207343000Y-98312000D01*
X207371000Y-98314000D01*
X207398000Y-98315000D01*
X207798000Y-98315000D01*
X207798000Y-98015000D01*
G37*
X207798000Y-98015000D02*
X207398000Y-98015000D01*
X207386000Y-98015000D01*
X207374000Y-98014000D01*
X207363000Y-98012000D01*
X207351000Y-98010000D01*
X207340000Y-98007000D01*
X207328000Y-98004000D01*
X207317000Y-98000000D01*
X207306000Y-97996000D01*
X207296000Y-97990000D01*
X207286000Y-97985000D01*
X207275000Y-97979000D01*
X207266000Y-97972000D01*
X207256000Y-97965000D01*
X207247000Y-97957000D01*
X207239000Y-97949000D01*
X207231000Y-97941000D01*
X207223000Y-97932000D01*
X207216000Y-97922000D01*
X207209000Y-97913000D01*
X207203000Y-97902000D01*
X207198000Y-97892000D01*
X207192000Y-97882000D01*
X207188000Y-97871000D01*
X207184000Y-97860000D01*
X207181000Y-97848000D01*
X207178000Y-97837000D01*
X207176000Y-97825000D01*
X207174000Y-97814000D01*
X207173000Y-97802000D01*
X207173000Y-97790000D01*
X207173000Y-97778000D01*
X207174000Y-97766000D01*
X207176000Y-97755000D01*
X207178000Y-97743000D01*
X207181000Y-97732000D01*
X207184000Y-97720000D01*
X207188000Y-97709000D01*
X207192000Y-97698000D01*
X207198000Y-97688000D01*
X207203000Y-97677000D01*
X207209000Y-97667000D01*
X207216000Y-97658000D01*
X207223000Y-97648000D01*
X207231000Y-97639000D01*
X207239000Y-97631000D01*
X207247000Y-97623000D01*
X207256000Y-97615000D01*
X207266000Y-97608000D01*
X207275000Y-97601000D01*
X207285000Y-97595000D01*
X207296000Y-97590000D01*
X207306000Y-97584000D01*
X207317000Y-97580000D01*
X207328000Y-97576000D01*
X207340000Y-97573000D01*
X207351000Y-97570000D01*
X207363000Y-97568000D01*
X207374000Y-97566000D01*
X207386000Y-97565000D01*
X207398000Y-97565000D01*
X207798000Y-97565000D01*
X207798000Y-97265000D01*
X207398000Y-97265000D01*
X207371000Y-97266000D01*
X207343000Y-97268000D01*
X207316000Y-97271000D01*
X207289000Y-97276000D01*
X207262000Y-97283000D01*
X207236000Y-97291000D01*
X207210000Y-97300000D01*
X207184000Y-97310000D01*
X207160000Y-97322000D01*
X207135000Y-97335000D01*
X207112000Y-97350000D01*
X207089000Y-97365000D01*
X207068000Y-97382000D01*
X207047000Y-97400000D01*
X207027000Y-97419000D01*
X207008000Y-97439000D01*
X206990000Y-97460000D01*
X206973000Y-97481000D01*
X206958000Y-97504000D01*
X206943000Y-97528000D01*
X206930000Y-97552000D01*
X206918000Y-97576000D01*
X206908000Y-97602000D01*
X206899000Y-97628000D01*
X206891000Y-97654000D01*
X206884000Y-97681000D01*
X206879000Y-97708000D01*
X206876000Y-97735000D01*
X206874000Y-97763000D01*
X206873000Y-97790000D01*
X206874000Y-97817000D01*
X206876000Y-97845000D01*
X206879000Y-97872000D01*
X206884000Y-97899000D01*
X206891000Y-97926000D01*
X206899000Y-97952000D01*
X206908000Y-97978000D01*
X206918000Y-98004000D01*
X206930000Y-98028000D01*
X206943000Y-98052000D01*
X206958000Y-98076000D01*
X206973000Y-98099000D01*
X206990000Y-98120000D01*
X207008000Y-98141000D01*
X207027000Y-98161000D01*
X207047000Y-98180000D01*
X207068000Y-98198000D01*
X207089000Y-98215000D01*
X207112000Y-98230000D01*
X207136000Y-98245000D01*
X207160000Y-98258000D01*
X207184000Y-98270000D01*
X207210000Y-98280000D01*
X207236000Y-98289000D01*
X207262000Y-98297000D01*
X207289000Y-98304000D01*
X207316000Y-98309000D01*
X207343000Y-98312000D01*
X207371000Y-98314000D01*
X207398000Y-98315000D01*
X207798000Y-98315000D01*
X207798000Y-98015000D01*
G36*
X207798000Y-97565000D02*
G01*
X208198000Y-97565000D01*
X208210000Y-97565000D01*
X208222000Y-97566000D01*
X208233000Y-97568000D01*
X208245000Y-97570000D01*
X208256000Y-97573000D01*
X208268000Y-97576000D01*
X208279000Y-97580000D01*
X208290000Y-97584000D01*
X208300000Y-97590000D01*
X208311000Y-97595000D01*
X208321000Y-97601000D01*
X208330000Y-97608000D01*
X208340000Y-97615000D01*
X208349000Y-97623000D01*
X208357000Y-97631000D01*
X208365000Y-97639000D01*
X208373000Y-97648000D01*
X208380000Y-97658000D01*
X208387000Y-97667000D01*
X208393000Y-97677000D01*
X208398000Y-97688000D01*
X208404000Y-97698000D01*
X208408000Y-97709000D01*
X208412000Y-97720000D01*
X208415000Y-97732000D01*
X208418000Y-97743000D01*
X208420000Y-97755000D01*
X208422000Y-97766000D01*
X208423000Y-97778000D01*
X208423000Y-97790000D01*
X208423000Y-97802000D01*
X208422000Y-97814000D01*
X208420000Y-97825000D01*
X208418000Y-97837000D01*
X208415000Y-97848000D01*
X208412000Y-97860000D01*
X208408000Y-97871000D01*
X208404000Y-97882000D01*
X208398000Y-97892000D01*
X208393000Y-97902000D01*
X208387000Y-97913000D01*
X208380000Y-97922000D01*
X208373000Y-97932000D01*
X208365000Y-97941000D01*
X208357000Y-97949000D01*
X208349000Y-97957000D01*
X208340000Y-97965000D01*
X208330000Y-97972000D01*
X208321000Y-97979000D01*
X208310000Y-97985000D01*
X208300000Y-97990000D01*
X208290000Y-97996000D01*
X208279000Y-98000000D01*
X208268000Y-98004000D01*
X208256000Y-98007000D01*
X208245000Y-98010000D01*
X208233000Y-98012000D01*
X208222000Y-98014000D01*
X208210000Y-98015000D01*
X208198000Y-98015000D01*
X207798000Y-98015000D01*
X207798000Y-98315000D01*
X208198000Y-98315000D01*
X208225000Y-98314000D01*
X208253000Y-98312000D01*
X208280000Y-98309000D01*
X208307000Y-98304000D01*
X208334000Y-98297000D01*
X208360000Y-98289000D01*
X208386000Y-98280000D01*
X208412000Y-98270000D01*
X208436000Y-98258000D01*
X208460000Y-98245000D01*
X208484000Y-98230000D01*
X208507000Y-98215000D01*
X208528000Y-98198000D01*
X208549000Y-98180000D01*
X208569000Y-98161000D01*
X208588000Y-98141000D01*
X208606000Y-98120000D01*
X208623000Y-98099000D01*
X208638000Y-98076000D01*
X208653000Y-98052000D01*
X208666000Y-98028000D01*
X208678000Y-98004000D01*
X208688000Y-97978000D01*
X208697000Y-97952000D01*
X208705000Y-97926000D01*
X208712000Y-97899000D01*
X208717000Y-97872000D01*
X208720000Y-97845000D01*
X208722000Y-97817000D01*
X208723000Y-97790000D01*
X208722000Y-97763000D01*
X208720000Y-97735000D01*
X208717000Y-97708000D01*
X208712000Y-97681000D01*
X208705000Y-97654000D01*
X208697000Y-97628000D01*
X208688000Y-97602000D01*
X208678000Y-97576000D01*
X208666000Y-97552000D01*
X208653000Y-97528000D01*
X208638000Y-97504000D01*
X208623000Y-97481000D01*
X208606000Y-97460000D01*
X208588000Y-97439000D01*
X208569000Y-97419000D01*
X208549000Y-97400000D01*
X208528000Y-97382000D01*
X208507000Y-97365000D01*
X208484000Y-97350000D01*
X208461000Y-97335000D01*
X208436000Y-97322000D01*
X208412000Y-97310000D01*
X208386000Y-97300000D01*
X208360000Y-97291000D01*
X208334000Y-97283000D01*
X208307000Y-97276000D01*
X208280000Y-97271000D01*
X208253000Y-97268000D01*
X208225000Y-97266000D01*
X208198000Y-97265000D01*
X207798000Y-97265000D01*
X207798000Y-97565000D01*
G37*
X207798000Y-97565000D02*
X208198000Y-97565000D01*
X208210000Y-97565000D01*
X208222000Y-97566000D01*
X208233000Y-97568000D01*
X208245000Y-97570000D01*
X208256000Y-97573000D01*
X208268000Y-97576000D01*
X208279000Y-97580000D01*
X208290000Y-97584000D01*
X208300000Y-97590000D01*
X208311000Y-97595000D01*
X208321000Y-97601000D01*
X208330000Y-97608000D01*
X208340000Y-97615000D01*
X208349000Y-97623000D01*
X208357000Y-97631000D01*
X208365000Y-97639000D01*
X208373000Y-97648000D01*
X208380000Y-97658000D01*
X208387000Y-97667000D01*
X208393000Y-97677000D01*
X208398000Y-97688000D01*
X208404000Y-97698000D01*
X208408000Y-97709000D01*
X208412000Y-97720000D01*
X208415000Y-97732000D01*
X208418000Y-97743000D01*
X208420000Y-97755000D01*
X208422000Y-97766000D01*
X208423000Y-97778000D01*
X208423000Y-97790000D01*
X208423000Y-97802000D01*
X208422000Y-97814000D01*
X208420000Y-97825000D01*
X208418000Y-97837000D01*
X208415000Y-97848000D01*
X208412000Y-97860000D01*
X208408000Y-97871000D01*
X208404000Y-97882000D01*
X208398000Y-97892000D01*
X208393000Y-97902000D01*
X208387000Y-97913000D01*
X208380000Y-97922000D01*
X208373000Y-97932000D01*
X208365000Y-97941000D01*
X208357000Y-97949000D01*
X208349000Y-97957000D01*
X208340000Y-97965000D01*
X208330000Y-97972000D01*
X208321000Y-97979000D01*
X208310000Y-97985000D01*
X208300000Y-97990000D01*
X208290000Y-97996000D01*
X208279000Y-98000000D01*
X208268000Y-98004000D01*
X208256000Y-98007000D01*
X208245000Y-98010000D01*
X208233000Y-98012000D01*
X208222000Y-98014000D01*
X208210000Y-98015000D01*
X208198000Y-98015000D01*
X207798000Y-98015000D01*
X207798000Y-98315000D01*
X208198000Y-98315000D01*
X208225000Y-98314000D01*
X208253000Y-98312000D01*
X208280000Y-98309000D01*
X208307000Y-98304000D01*
X208334000Y-98297000D01*
X208360000Y-98289000D01*
X208386000Y-98280000D01*
X208412000Y-98270000D01*
X208436000Y-98258000D01*
X208460000Y-98245000D01*
X208484000Y-98230000D01*
X208507000Y-98215000D01*
X208528000Y-98198000D01*
X208549000Y-98180000D01*
X208569000Y-98161000D01*
X208588000Y-98141000D01*
X208606000Y-98120000D01*
X208623000Y-98099000D01*
X208638000Y-98076000D01*
X208653000Y-98052000D01*
X208666000Y-98028000D01*
X208678000Y-98004000D01*
X208688000Y-97978000D01*
X208697000Y-97952000D01*
X208705000Y-97926000D01*
X208712000Y-97899000D01*
X208717000Y-97872000D01*
X208720000Y-97845000D01*
X208722000Y-97817000D01*
X208723000Y-97790000D01*
X208722000Y-97763000D01*
X208720000Y-97735000D01*
X208717000Y-97708000D01*
X208712000Y-97681000D01*
X208705000Y-97654000D01*
X208697000Y-97628000D01*
X208688000Y-97602000D01*
X208678000Y-97576000D01*
X208666000Y-97552000D01*
X208653000Y-97528000D01*
X208638000Y-97504000D01*
X208623000Y-97481000D01*
X208606000Y-97460000D01*
X208588000Y-97439000D01*
X208569000Y-97419000D01*
X208549000Y-97400000D01*
X208528000Y-97382000D01*
X208507000Y-97365000D01*
X208484000Y-97350000D01*
X208461000Y-97335000D01*
X208436000Y-97322000D01*
X208412000Y-97310000D01*
X208386000Y-97300000D01*
X208360000Y-97291000D01*
X208334000Y-97283000D01*
X208307000Y-97276000D01*
X208280000Y-97271000D01*
X208253000Y-97268000D01*
X208225000Y-97266000D01*
X208198000Y-97265000D01*
X207798000Y-97265000D01*
X207798000Y-97565000D01*
G36*
X113398000Y-80915000D02*
G01*
X112998000Y-80915000D01*
X112986000Y-80915000D01*
X112974000Y-80914000D01*
X112963000Y-80912000D01*
X112951000Y-80910000D01*
X112940000Y-80907000D01*
X112928000Y-80904000D01*
X112917000Y-80900000D01*
X112906000Y-80896000D01*
X112896000Y-80890000D01*
X112885000Y-80885000D01*
X112875000Y-80879000D01*
X112866000Y-80872000D01*
X112856000Y-80865000D01*
X112847000Y-80857000D01*
X112839000Y-80849000D01*
X112831000Y-80841000D01*
X112823000Y-80832000D01*
X112816000Y-80822000D01*
X112809000Y-80813000D01*
X112803000Y-80803000D01*
X112798000Y-80792000D01*
X112792000Y-80782000D01*
X112788000Y-80771000D01*
X112784000Y-80760000D01*
X112781000Y-80748000D01*
X112778000Y-80737000D01*
X112776000Y-80725000D01*
X112774000Y-80714000D01*
X112773000Y-80702000D01*
X112773000Y-80690000D01*
X112773000Y-80678000D01*
X112774000Y-80666000D01*
X112776000Y-80655000D01*
X112778000Y-80643000D01*
X112781000Y-80632000D01*
X112784000Y-80620000D01*
X112788000Y-80609000D01*
X112792000Y-80598000D01*
X112798000Y-80588000D01*
X112803000Y-80578000D01*
X112809000Y-80567000D01*
X112816000Y-80558000D01*
X112823000Y-80548000D01*
X112831000Y-80539000D01*
X112839000Y-80531000D01*
X112847000Y-80523000D01*
X112856000Y-80515000D01*
X112866000Y-80508000D01*
X112875000Y-80501000D01*
X112886000Y-80495000D01*
X112896000Y-80490000D01*
X112906000Y-80484000D01*
X112917000Y-80480000D01*
X112928000Y-80476000D01*
X112940000Y-80473000D01*
X112951000Y-80470000D01*
X112963000Y-80468000D01*
X112974000Y-80466000D01*
X112986000Y-80465000D01*
X112998000Y-80465000D01*
X113398000Y-80465000D01*
X113398000Y-80165000D01*
X112998000Y-80165000D01*
X112971000Y-80166000D01*
X112943000Y-80168000D01*
X112916000Y-80171000D01*
X112889000Y-80176000D01*
X112862000Y-80183000D01*
X112836000Y-80191000D01*
X112810000Y-80200000D01*
X112784000Y-80210000D01*
X112760000Y-80222000D01*
X112736000Y-80235000D01*
X112712000Y-80250000D01*
X112689000Y-80265000D01*
X112668000Y-80282000D01*
X112647000Y-80300000D01*
X112627000Y-80319000D01*
X112608000Y-80339000D01*
X112590000Y-80360000D01*
X112573000Y-80381000D01*
X112558000Y-80404000D01*
X112543000Y-80428000D01*
X112530000Y-80452000D01*
X112518000Y-80476000D01*
X112508000Y-80502000D01*
X112499000Y-80528000D01*
X112491000Y-80554000D01*
X112484000Y-80581000D01*
X112479000Y-80608000D01*
X112476000Y-80635000D01*
X112474000Y-80663000D01*
X112473000Y-80690000D01*
X112474000Y-80717000D01*
X112476000Y-80745000D01*
X112479000Y-80772000D01*
X112484000Y-80799000D01*
X112491000Y-80826000D01*
X112499000Y-80852000D01*
X112508000Y-80878000D01*
X112518000Y-80904000D01*
X112530000Y-80928000D01*
X112543000Y-80952000D01*
X112558000Y-80976000D01*
X112573000Y-80999000D01*
X112590000Y-81020000D01*
X112608000Y-81041000D01*
X112627000Y-81061000D01*
X112647000Y-81080000D01*
X112668000Y-81098000D01*
X112689000Y-81115000D01*
X112712000Y-81130000D01*
X112735000Y-81145000D01*
X112760000Y-81158000D01*
X112784000Y-81170000D01*
X112810000Y-81180000D01*
X112836000Y-81189000D01*
X112862000Y-81197000D01*
X112889000Y-81204000D01*
X112916000Y-81209000D01*
X112943000Y-81212000D01*
X112971000Y-81214000D01*
X112998000Y-81215000D01*
X113398000Y-81215000D01*
X113398000Y-80915000D01*
G37*
X113398000Y-80915000D02*
X112998000Y-80915000D01*
X112986000Y-80915000D01*
X112974000Y-80914000D01*
X112963000Y-80912000D01*
X112951000Y-80910000D01*
X112940000Y-80907000D01*
X112928000Y-80904000D01*
X112917000Y-80900000D01*
X112906000Y-80896000D01*
X112896000Y-80890000D01*
X112885000Y-80885000D01*
X112875000Y-80879000D01*
X112866000Y-80872000D01*
X112856000Y-80865000D01*
X112847000Y-80857000D01*
X112839000Y-80849000D01*
X112831000Y-80841000D01*
X112823000Y-80832000D01*
X112816000Y-80822000D01*
X112809000Y-80813000D01*
X112803000Y-80803000D01*
X112798000Y-80792000D01*
X112792000Y-80782000D01*
X112788000Y-80771000D01*
X112784000Y-80760000D01*
X112781000Y-80748000D01*
X112778000Y-80737000D01*
X112776000Y-80725000D01*
X112774000Y-80714000D01*
X112773000Y-80702000D01*
X112773000Y-80690000D01*
X112773000Y-80678000D01*
X112774000Y-80666000D01*
X112776000Y-80655000D01*
X112778000Y-80643000D01*
X112781000Y-80632000D01*
X112784000Y-80620000D01*
X112788000Y-80609000D01*
X112792000Y-80598000D01*
X112798000Y-80588000D01*
X112803000Y-80578000D01*
X112809000Y-80567000D01*
X112816000Y-80558000D01*
X112823000Y-80548000D01*
X112831000Y-80539000D01*
X112839000Y-80531000D01*
X112847000Y-80523000D01*
X112856000Y-80515000D01*
X112866000Y-80508000D01*
X112875000Y-80501000D01*
X112886000Y-80495000D01*
X112896000Y-80490000D01*
X112906000Y-80484000D01*
X112917000Y-80480000D01*
X112928000Y-80476000D01*
X112940000Y-80473000D01*
X112951000Y-80470000D01*
X112963000Y-80468000D01*
X112974000Y-80466000D01*
X112986000Y-80465000D01*
X112998000Y-80465000D01*
X113398000Y-80465000D01*
X113398000Y-80165000D01*
X112998000Y-80165000D01*
X112971000Y-80166000D01*
X112943000Y-80168000D01*
X112916000Y-80171000D01*
X112889000Y-80176000D01*
X112862000Y-80183000D01*
X112836000Y-80191000D01*
X112810000Y-80200000D01*
X112784000Y-80210000D01*
X112760000Y-80222000D01*
X112736000Y-80235000D01*
X112712000Y-80250000D01*
X112689000Y-80265000D01*
X112668000Y-80282000D01*
X112647000Y-80300000D01*
X112627000Y-80319000D01*
X112608000Y-80339000D01*
X112590000Y-80360000D01*
X112573000Y-80381000D01*
X112558000Y-80404000D01*
X112543000Y-80428000D01*
X112530000Y-80452000D01*
X112518000Y-80476000D01*
X112508000Y-80502000D01*
X112499000Y-80528000D01*
X112491000Y-80554000D01*
X112484000Y-80581000D01*
X112479000Y-80608000D01*
X112476000Y-80635000D01*
X112474000Y-80663000D01*
X112473000Y-80690000D01*
X112474000Y-80717000D01*
X112476000Y-80745000D01*
X112479000Y-80772000D01*
X112484000Y-80799000D01*
X112491000Y-80826000D01*
X112499000Y-80852000D01*
X112508000Y-80878000D01*
X112518000Y-80904000D01*
X112530000Y-80928000D01*
X112543000Y-80952000D01*
X112558000Y-80976000D01*
X112573000Y-80999000D01*
X112590000Y-81020000D01*
X112608000Y-81041000D01*
X112627000Y-81061000D01*
X112647000Y-81080000D01*
X112668000Y-81098000D01*
X112689000Y-81115000D01*
X112712000Y-81130000D01*
X112735000Y-81145000D01*
X112760000Y-81158000D01*
X112784000Y-81170000D01*
X112810000Y-81180000D01*
X112836000Y-81189000D01*
X112862000Y-81197000D01*
X112889000Y-81204000D01*
X112916000Y-81209000D01*
X112943000Y-81212000D01*
X112971000Y-81214000D01*
X112998000Y-81215000D01*
X113398000Y-81215000D01*
X113398000Y-80915000D01*
G36*
X113398000Y-80465000D02*
G01*
X113798000Y-80465000D01*
X113810000Y-80465000D01*
X113822000Y-80466000D01*
X113833000Y-80468000D01*
X113845000Y-80470000D01*
X113856000Y-80473000D01*
X113868000Y-80476000D01*
X113879000Y-80480000D01*
X113890000Y-80484000D01*
X113900000Y-80490000D01*
X113910000Y-80495000D01*
X113921000Y-80501000D01*
X113930000Y-80508000D01*
X113940000Y-80515000D01*
X113949000Y-80523000D01*
X113957000Y-80531000D01*
X113965000Y-80539000D01*
X113973000Y-80548000D01*
X113980000Y-80558000D01*
X113987000Y-80567000D01*
X113993000Y-80578000D01*
X113998000Y-80588000D01*
X114004000Y-80598000D01*
X114008000Y-80609000D01*
X114012000Y-80620000D01*
X114015000Y-80632000D01*
X114018000Y-80643000D01*
X114020000Y-80655000D01*
X114022000Y-80666000D01*
X114023000Y-80678000D01*
X114023000Y-80690000D01*
X114023000Y-80702000D01*
X114022000Y-80714000D01*
X114020000Y-80725000D01*
X114018000Y-80737000D01*
X114015000Y-80748000D01*
X114012000Y-80760000D01*
X114008000Y-80771000D01*
X114004000Y-80782000D01*
X113998000Y-80792000D01*
X113993000Y-80803000D01*
X113987000Y-80813000D01*
X113980000Y-80822000D01*
X113973000Y-80832000D01*
X113965000Y-80841000D01*
X113957000Y-80849000D01*
X113949000Y-80857000D01*
X113940000Y-80865000D01*
X113930000Y-80872000D01*
X113921000Y-80879000D01*
X113911000Y-80885000D01*
X113900000Y-80890000D01*
X113890000Y-80896000D01*
X113879000Y-80900000D01*
X113868000Y-80904000D01*
X113856000Y-80907000D01*
X113845000Y-80910000D01*
X113833000Y-80912000D01*
X113822000Y-80914000D01*
X113810000Y-80915000D01*
X113798000Y-80915000D01*
X113398000Y-80915000D01*
X113398000Y-81215000D01*
X113798000Y-81215000D01*
X113825000Y-81214000D01*
X113853000Y-81212000D01*
X113880000Y-81209000D01*
X113907000Y-81204000D01*
X113934000Y-81197000D01*
X113960000Y-81189000D01*
X113986000Y-81180000D01*
X114012000Y-81170000D01*
X114036000Y-81158000D01*
X114061000Y-81145000D01*
X114084000Y-81130000D01*
X114107000Y-81115000D01*
X114128000Y-81098000D01*
X114149000Y-81080000D01*
X114169000Y-81061000D01*
X114188000Y-81041000D01*
X114206000Y-81020000D01*
X114223000Y-80999000D01*
X114238000Y-80976000D01*
X114253000Y-80952000D01*
X114266000Y-80928000D01*
X114278000Y-80904000D01*
X114288000Y-80878000D01*
X114297000Y-80852000D01*
X114305000Y-80826000D01*
X114312000Y-80799000D01*
X114317000Y-80772000D01*
X114320000Y-80745000D01*
X114322000Y-80717000D01*
X114323000Y-80690000D01*
X114322000Y-80663000D01*
X114320000Y-80635000D01*
X114317000Y-80608000D01*
X114312000Y-80581000D01*
X114305000Y-80554000D01*
X114297000Y-80528000D01*
X114288000Y-80502000D01*
X114278000Y-80476000D01*
X114266000Y-80452000D01*
X114253000Y-80428000D01*
X114238000Y-80404000D01*
X114223000Y-80381000D01*
X114206000Y-80360000D01*
X114188000Y-80339000D01*
X114169000Y-80319000D01*
X114149000Y-80300000D01*
X114128000Y-80282000D01*
X114107000Y-80265000D01*
X114084000Y-80250000D01*
X114060000Y-80235000D01*
X114036000Y-80222000D01*
X114012000Y-80210000D01*
X113986000Y-80200000D01*
X113960000Y-80191000D01*
X113934000Y-80183000D01*
X113907000Y-80176000D01*
X113880000Y-80171000D01*
X113853000Y-80168000D01*
X113825000Y-80166000D01*
X113798000Y-80165000D01*
X113398000Y-80165000D01*
X113398000Y-80465000D01*
G37*
X113398000Y-80465000D02*
X113798000Y-80465000D01*
X113810000Y-80465000D01*
X113822000Y-80466000D01*
X113833000Y-80468000D01*
X113845000Y-80470000D01*
X113856000Y-80473000D01*
X113868000Y-80476000D01*
X113879000Y-80480000D01*
X113890000Y-80484000D01*
X113900000Y-80490000D01*
X113910000Y-80495000D01*
X113921000Y-80501000D01*
X113930000Y-80508000D01*
X113940000Y-80515000D01*
X113949000Y-80523000D01*
X113957000Y-80531000D01*
X113965000Y-80539000D01*
X113973000Y-80548000D01*
X113980000Y-80558000D01*
X113987000Y-80567000D01*
X113993000Y-80578000D01*
X113998000Y-80588000D01*
X114004000Y-80598000D01*
X114008000Y-80609000D01*
X114012000Y-80620000D01*
X114015000Y-80632000D01*
X114018000Y-80643000D01*
X114020000Y-80655000D01*
X114022000Y-80666000D01*
X114023000Y-80678000D01*
X114023000Y-80690000D01*
X114023000Y-80702000D01*
X114022000Y-80714000D01*
X114020000Y-80725000D01*
X114018000Y-80737000D01*
X114015000Y-80748000D01*
X114012000Y-80760000D01*
X114008000Y-80771000D01*
X114004000Y-80782000D01*
X113998000Y-80792000D01*
X113993000Y-80803000D01*
X113987000Y-80813000D01*
X113980000Y-80822000D01*
X113973000Y-80832000D01*
X113965000Y-80841000D01*
X113957000Y-80849000D01*
X113949000Y-80857000D01*
X113940000Y-80865000D01*
X113930000Y-80872000D01*
X113921000Y-80879000D01*
X113911000Y-80885000D01*
X113900000Y-80890000D01*
X113890000Y-80896000D01*
X113879000Y-80900000D01*
X113868000Y-80904000D01*
X113856000Y-80907000D01*
X113845000Y-80910000D01*
X113833000Y-80912000D01*
X113822000Y-80914000D01*
X113810000Y-80915000D01*
X113798000Y-80915000D01*
X113398000Y-80915000D01*
X113398000Y-81215000D01*
X113798000Y-81215000D01*
X113825000Y-81214000D01*
X113853000Y-81212000D01*
X113880000Y-81209000D01*
X113907000Y-81204000D01*
X113934000Y-81197000D01*
X113960000Y-81189000D01*
X113986000Y-81180000D01*
X114012000Y-81170000D01*
X114036000Y-81158000D01*
X114061000Y-81145000D01*
X114084000Y-81130000D01*
X114107000Y-81115000D01*
X114128000Y-81098000D01*
X114149000Y-81080000D01*
X114169000Y-81061000D01*
X114188000Y-81041000D01*
X114206000Y-81020000D01*
X114223000Y-80999000D01*
X114238000Y-80976000D01*
X114253000Y-80952000D01*
X114266000Y-80928000D01*
X114278000Y-80904000D01*
X114288000Y-80878000D01*
X114297000Y-80852000D01*
X114305000Y-80826000D01*
X114312000Y-80799000D01*
X114317000Y-80772000D01*
X114320000Y-80745000D01*
X114322000Y-80717000D01*
X114323000Y-80690000D01*
X114322000Y-80663000D01*
X114320000Y-80635000D01*
X114317000Y-80608000D01*
X114312000Y-80581000D01*
X114305000Y-80554000D01*
X114297000Y-80528000D01*
X114288000Y-80502000D01*
X114278000Y-80476000D01*
X114266000Y-80452000D01*
X114253000Y-80428000D01*
X114238000Y-80404000D01*
X114223000Y-80381000D01*
X114206000Y-80360000D01*
X114188000Y-80339000D01*
X114169000Y-80319000D01*
X114149000Y-80300000D01*
X114128000Y-80282000D01*
X114107000Y-80265000D01*
X114084000Y-80250000D01*
X114060000Y-80235000D01*
X114036000Y-80222000D01*
X114012000Y-80210000D01*
X113986000Y-80200000D01*
X113960000Y-80191000D01*
X113934000Y-80183000D01*
X113907000Y-80176000D01*
X113880000Y-80171000D01*
X113853000Y-80168000D01*
X113825000Y-80166000D01*
X113798000Y-80165000D01*
X113398000Y-80165000D01*
X113398000Y-80465000D01*
G36*
X113398000Y-73765000D02*
G01*
X112998000Y-73765000D01*
X112986000Y-73765000D01*
X112974000Y-73764000D01*
X112963000Y-73762000D01*
X112951000Y-73760000D01*
X112940000Y-73757000D01*
X112928000Y-73754000D01*
X112917000Y-73750000D01*
X112906000Y-73746000D01*
X112896000Y-73740000D01*
X112886000Y-73735000D01*
X112875000Y-73729000D01*
X112866000Y-73722000D01*
X112856000Y-73715000D01*
X112847000Y-73707000D01*
X112839000Y-73699000D01*
X112831000Y-73691000D01*
X112823000Y-73682000D01*
X112816000Y-73672000D01*
X112809000Y-73663000D01*
X112803000Y-73652000D01*
X112798000Y-73642000D01*
X112792000Y-73632000D01*
X112788000Y-73621000D01*
X112784000Y-73610000D01*
X112781000Y-73598000D01*
X112778000Y-73587000D01*
X112776000Y-73575000D01*
X112774000Y-73564000D01*
X112773000Y-73552000D01*
X112773000Y-73540000D01*
X112773000Y-73528000D01*
X112774000Y-73516000D01*
X112776000Y-73505000D01*
X112778000Y-73493000D01*
X112781000Y-73482000D01*
X112784000Y-73470000D01*
X112788000Y-73459000D01*
X112792000Y-73448000D01*
X112798000Y-73438000D01*
X112803000Y-73427000D01*
X112809000Y-73417000D01*
X112816000Y-73408000D01*
X112823000Y-73398000D01*
X112831000Y-73389000D01*
X112839000Y-73381000D01*
X112847000Y-73373000D01*
X112856000Y-73365000D01*
X112866000Y-73358000D01*
X112875000Y-73351000D01*
X112885000Y-73345000D01*
X112896000Y-73340000D01*
X112906000Y-73334000D01*
X112917000Y-73330000D01*
X112928000Y-73326000D01*
X112940000Y-73323000D01*
X112951000Y-73320000D01*
X112963000Y-73318000D01*
X112974000Y-73316000D01*
X112986000Y-73315000D01*
X112998000Y-73315000D01*
X113398000Y-73315000D01*
X113398000Y-73015000D01*
X112998000Y-73015000D01*
X112971000Y-73016000D01*
X112943000Y-73018000D01*
X112916000Y-73021000D01*
X112889000Y-73026000D01*
X112862000Y-73033000D01*
X112836000Y-73041000D01*
X112810000Y-73050000D01*
X112784000Y-73060000D01*
X112760000Y-73072000D01*
X112735000Y-73085000D01*
X112712000Y-73100000D01*
X112689000Y-73115000D01*
X112668000Y-73132000D01*
X112647000Y-73150000D01*
X112627000Y-73169000D01*
X112608000Y-73189000D01*
X112590000Y-73210000D01*
X112573000Y-73231000D01*
X112558000Y-73254000D01*
X112543000Y-73278000D01*
X112530000Y-73302000D01*
X112518000Y-73326000D01*
X112508000Y-73352000D01*
X112499000Y-73378000D01*
X112491000Y-73404000D01*
X112484000Y-73431000D01*
X112479000Y-73458000D01*
X112476000Y-73485000D01*
X112474000Y-73513000D01*
X112473000Y-73540000D01*
X112474000Y-73567000D01*
X112476000Y-73595000D01*
X112479000Y-73622000D01*
X112484000Y-73649000D01*
X112491000Y-73676000D01*
X112499000Y-73702000D01*
X112508000Y-73728000D01*
X112518000Y-73754000D01*
X112530000Y-73778000D01*
X112543000Y-73802000D01*
X112558000Y-73826000D01*
X112573000Y-73849000D01*
X112590000Y-73870000D01*
X112608000Y-73891000D01*
X112627000Y-73911000D01*
X112647000Y-73930000D01*
X112668000Y-73948000D01*
X112689000Y-73965000D01*
X112712000Y-73980000D01*
X112736000Y-73995000D01*
X112760000Y-74008000D01*
X112784000Y-74020000D01*
X112810000Y-74030000D01*
X112836000Y-74039000D01*
X112862000Y-74047000D01*
X112889000Y-74054000D01*
X112916000Y-74059000D01*
X112943000Y-74062000D01*
X112971000Y-74064000D01*
X112998000Y-74065000D01*
X113398000Y-74065000D01*
X113398000Y-73765000D01*
G37*
X113398000Y-73765000D02*
X112998000Y-73765000D01*
X112986000Y-73765000D01*
X112974000Y-73764000D01*
X112963000Y-73762000D01*
X112951000Y-73760000D01*
X112940000Y-73757000D01*
X112928000Y-73754000D01*
X112917000Y-73750000D01*
X112906000Y-73746000D01*
X112896000Y-73740000D01*
X112886000Y-73735000D01*
X112875000Y-73729000D01*
X112866000Y-73722000D01*
X112856000Y-73715000D01*
X112847000Y-73707000D01*
X112839000Y-73699000D01*
X112831000Y-73691000D01*
X112823000Y-73682000D01*
X112816000Y-73672000D01*
X112809000Y-73663000D01*
X112803000Y-73652000D01*
X112798000Y-73642000D01*
X112792000Y-73632000D01*
X112788000Y-73621000D01*
X112784000Y-73610000D01*
X112781000Y-73598000D01*
X112778000Y-73587000D01*
X112776000Y-73575000D01*
X112774000Y-73564000D01*
X112773000Y-73552000D01*
X112773000Y-73540000D01*
X112773000Y-73528000D01*
X112774000Y-73516000D01*
X112776000Y-73505000D01*
X112778000Y-73493000D01*
X112781000Y-73482000D01*
X112784000Y-73470000D01*
X112788000Y-73459000D01*
X112792000Y-73448000D01*
X112798000Y-73438000D01*
X112803000Y-73427000D01*
X112809000Y-73417000D01*
X112816000Y-73408000D01*
X112823000Y-73398000D01*
X112831000Y-73389000D01*
X112839000Y-73381000D01*
X112847000Y-73373000D01*
X112856000Y-73365000D01*
X112866000Y-73358000D01*
X112875000Y-73351000D01*
X112885000Y-73345000D01*
X112896000Y-73340000D01*
X112906000Y-73334000D01*
X112917000Y-73330000D01*
X112928000Y-73326000D01*
X112940000Y-73323000D01*
X112951000Y-73320000D01*
X112963000Y-73318000D01*
X112974000Y-73316000D01*
X112986000Y-73315000D01*
X112998000Y-73315000D01*
X113398000Y-73315000D01*
X113398000Y-73015000D01*
X112998000Y-73015000D01*
X112971000Y-73016000D01*
X112943000Y-73018000D01*
X112916000Y-73021000D01*
X112889000Y-73026000D01*
X112862000Y-73033000D01*
X112836000Y-73041000D01*
X112810000Y-73050000D01*
X112784000Y-73060000D01*
X112760000Y-73072000D01*
X112735000Y-73085000D01*
X112712000Y-73100000D01*
X112689000Y-73115000D01*
X112668000Y-73132000D01*
X112647000Y-73150000D01*
X112627000Y-73169000D01*
X112608000Y-73189000D01*
X112590000Y-73210000D01*
X112573000Y-73231000D01*
X112558000Y-73254000D01*
X112543000Y-73278000D01*
X112530000Y-73302000D01*
X112518000Y-73326000D01*
X112508000Y-73352000D01*
X112499000Y-73378000D01*
X112491000Y-73404000D01*
X112484000Y-73431000D01*
X112479000Y-73458000D01*
X112476000Y-73485000D01*
X112474000Y-73513000D01*
X112473000Y-73540000D01*
X112474000Y-73567000D01*
X112476000Y-73595000D01*
X112479000Y-73622000D01*
X112484000Y-73649000D01*
X112491000Y-73676000D01*
X112499000Y-73702000D01*
X112508000Y-73728000D01*
X112518000Y-73754000D01*
X112530000Y-73778000D01*
X112543000Y-73802000D01*
X112558000Y-73826000D01*
X112573000Y-73849000D01*
X112590000Y-73870000D01*
X112608000Y-73891000D01*
X112627000Y-73911000D01*
X112647000Y-73930000D01*
X112668000Y-73948000D01*
X112689000Y-73965000D01*
X112712000Y-73980000D01*
X112736000Y-73995000D01*
X112760000Y-74008000D01*
X112784000Y-74020000D01*
X112810000Y-74030000D01*
X112836000Y-74039000D01*
X112862000Y-74047000D01*
X112889000Y-74054000D01*
X112916000Y-74059000D01*
X112943000Y-74062000D01*
X112971000Y-74064000D01*
X112998000Y-74065000D01*
X113398000Y-74065000D01*
X113398000Y-73765000D01*
G36*
X113398000Y-73315000D02*
G01*
X113798000Y-73315000D01*
X113810000Y-73315000D01*
X113822000Y-73316000D01*
X113833000Y-73318000D01*
X113845000Y-73320000D01*
X113856000Y-73323000D01*
X113868000Y-73326000D01*
X113879000Y-73330000D01*
X113890000Y-73334000D01*
X113900000Y-73340000D01*
X113911000Y-73345000D01*
X113921000Y-73351000D01*
X113930000Y-73358000D01*
X113940000Y-73365000D01*
X113949000Y-73373000D01*
X113957000Y-73381000D01*
X113965000Y-73389000D01*
X113973000Y-73398000D01*
X113980000Y-73408000D01*
X113987000Y-73417000D01*
X113993000Y-73427000D01*
X113998000Y-73438000D01*
X114004000Y-73448000D01*
X114008000Y-73459000D01*
X114012000Y-73470000D01*
X114015000Y-73482000D01*
X114018000Y-73493000D01*
X114020000Y-73505000D01*
X114022000Y-73516000D01*
X114023000Y-73528000D01*
X114023000Y-73540000D01*
X114023000Y-73552000D01*
X114022000Y-73564000D01*
X114020000Y-73575000D01*
X114018000Y-73587000D01*
X114015000Y-73598000D01*
X114012000Y-73610000D01*
X114008000Y-73621000D01*
X114004000Y-73632000D01*
X113998000Y-73642000D01*
X113993000Y-73652000D01*
X113987000Y-73663000D01*
X113980000Y-73672000D01*
X113973000Y-73682000D01*
X113965000Y-73691000D01*
X113957000Y-73699000D01*
X113949000Y-73707000D01*
X113940000Y-73715000D01*
X113930000Y-73722000D01*
X113921000Y-73729000D01*
X113910000Y-73735000D01*
X113900000Y-73740000D01*
X113890000Y-73746000D01*
X113879000Y-73750000D01*
X113868000Y-73754000D01*
X113856000Y-73757000D01*
X113845000Y-73760000D01*
X113833000Y-73762000D01*
X113822000Y-73764000D01*
X113810000Y-73765000D01*
X113798000Y-73765000D01*
X113398000Y-73765000D01*
X113398000Y-74065000D01*
X113798000Y-74065000D01*
X113825000Y-74064000D01*
X113853000Y-74062000D01*
X113880000Y-74059000D01*
X113907000Y-74054000D01*
X113934000Y-74047000D01*
X113960000Y-74039000D01*
X113986000Y-74030000D01*
X114012000Y-74020000D01*
X114036000Y-74008000D01*
X114060000Y-73995000D01*
X114084000Y-73980000D01*
X114107000Y-73965000D01*
X114128000Y-73948000D01*
X114149000Y-73930000D01*
X114169000Y-73911000D01*
X114188000Y-73891000D01*
X114206000Y-73870000D01*
X114223000Y-73849000D01*
X114238000Y-73826000D01*
X114253000Y-73802000D01*
X114266000Y-73778000D01*
X114278000Y-73754000D01*
X114288000Y-73728000D01*
X114297000Y-73702000D01*
X114305000Y-73676000D01*
X114312000Y-73649000D01*
X114317000Y-73622000D01*
X114320000Y-73595000D01*
X114322000Y-73567000D01*
X114323000Y-73540000D01*
X114322000Y-73513000D01*
X114320000Y-73485000D01*
X114317000Y-73458000D01*
X114312000Y-73431000D01*
X114305000Y-73404000D01*
X114297000Y-73378000D01*
X114288000Y-73352000D01*
X114278000Y-73326000D01*
X114266000Y-73302000D01*
X114253000Y-73278000D01*
X114238000Y-73254000D01*
X114223000Y-73231000D01*
X114206000Y-73210000D01*
X114188000Y-73189000D01*
X114169000Y-73169000D01*
X114149000Y-73150000D01*
X114128000Y-73132000D01*
X114107000Y-73115000D01*
X114084000Y-73100000D01*
X114061000Y-73085000D01*
X114036000Y-73072000D01*
X114012000Y-73060000D01*
X113986000Y-73050000D01*
X113960000Y-73041000D01*
X113934000Y-73033000D01*
X113907000Y-73026000D01*
X113880000Y-73021000D01*
X113853000Y-73018000D01*
X113825000Y-73016000D01*
X113798000Y-73015000D01*
X113398000Y-73015000D01*
X113398000Y-73315000D01*
G37*
X113398000Y-73315000D02*
X113798000Y-73315000D01*
X113810000Y-73315000D01*
X113822000Y-73316000D01*
X113833000Y-73318000D01*
X113845000Y-73320000D01*
X113856000Y-73323000D01*
X113868000Y-73326000D01*
X113879000Y-73330000D01*
X113890000Y-73334000D01*
X113900000Y-73340000D01*
X113911000Y-73345000D01*
X113921000Y-73351000D01*
X113930000Y-73358000D01*
X113940000Y-73365000D01*
X113949000Y-73373000D01*
X113957000Y-73381000D01*
X113965000Y-73389000D01*
X113973000Y-73398000D01*
X113980000Y-73408000D01*
X113987000Y-73417000D01*
X113993000Y-73427000D01*
X113998000Y-73438000D01*
X114004000Y-73448000D01*
X114008000Y-73459000D01*
X114012000Y-73470000D01*
X114015000Y-73482000D01*
X114018000Y-73493000D01*
X114020000Y-73505000D01*
X114022000Y-73516000D01*
X114023000Y-73528000D01*
X114023000Y-73540000D01*
X114023000Y-73552000D01*
X114022000Y-73564000D01*
X114020000Y-73575000D01*
X114018000Y-73587000D01*
X114015000Y-73598000D01*
X114012000Y-73610000D01*
X114008000Y-73621000D01*
X114004000Y-73632000D01*
X113998000Y-73642000D01*
X113993000Y-73652000D01*
X113987000Y-73663000D01*
X113980000Y-73672000D01*
X113973000Y-73682000D01*
X113965000Y-73691000D01*
X113957000Y-73699000D01*
X113949000Y-73707000D01*
X113940000Y-73715000D01*
X113930000Y-73722000D01*
X113921000Y-73729000D01*
X113910000Y-73735000D01*
X113900000Y-73740000D01*
X113890000Y-73746000D01*
X113879000Y-73750000D01*
X113868000Y-73754000D01*
X113856000Y-73757000D01*
X113845000Y-73760000D01*
X113833000Y-73762000D01*
X113822000Y-73764000D01*
X113810000Y-73765000D01*
X113798000Y-73765000D01*
X113398000Y-73765000D01*
X113398000Y-74065000D01*
X113798000Y-74065000D01*
X113825000Y-74064000D01*
X113853000Y-74062000D01*
X113880000Y-74059000D01*
X113907000Y-74054000D01*
X113934000Y-74047000D01*
X113960000Y-74039000D01*
X113986000Y-74030000D01*
X114012000Y-74020000D01*
X114036000Y-74008000D01*
X114060000Y-73995000D01*
X114084000Y-73980000D01*
X114107000Y-73965000D01*
X114128000Y-73948000D01*
X114149000Y-73930000D01*
X114169000Y-73911000D01*
X114188000Y-73891000D01*
X114206000Y-73870000D01*
X114223000Y-73849000D01*
X114238000Y-73826000D01*
X114253000Y-73802000D01*
X114266000Y-73778000D01*
X114278000Y-73754000D01*
X114288000Y-73728000D01*
X114297000Y-73702000D01*
X114305000Y-73676000D01*
X114312000Y-73649000D01*
X114317000Y-73622000D01*
X114320000Y-73595000D01*
X114322000Y-73567000D01*
X114323000Y-73540000D01*
X114322000Y-73513000D01*
X114320000Y-73485000D01*
X114317000Y-73458000D01*
X114312000Y-73431000D01*
X114305000Y-73404000D01*
X114297000Y-73378000D01*
X114288000Y-73352000D01*
X114278000Y-73326000D01*
X114266000Y-73302000D01*
X114253000Y-73278000D01*
X114238000Y-73254000D01*
X114223000Y-73231000D01*
X114206000Y-73210000D01*
X114188000Y-73189000D01*
X114169000Y-73169000D01*
X114149000Y-73150000D01*
X114128000Y-73132000D01*
X114107000Y-73115000D01*
X114084000Y-73100000D01*
X114061000Y-73085000D01*
X114036000Y-73072000D01*
X114012000Y-73060000D01*
X113986000Y-73050000D01*
X113960000Y-73041000D01*
X113934000Y-73033000D01*
X113907000Y-73026000D01*
X113880000Y-73021000D01*
X113853000Y-73018000D01*
X113825000Y-73016000D01*
X113798000Y-73015000D01*
X113398000Y-73015000D01*
X113398000Y-73315000D01*
G36*
G01*
X120548000Y-57890000D02*
X120548000Y-58840000D01*
G75*
G02*
X120298000Y-59090000I-250000J0D01*
G01*
X119623000Y-59090000D01*
G75*
G02*
X119373000Y-58840000I0J250000D01*
G01*
X119373000Y-57890000D01*
G75*
G02*
X119623000Y-57640000I250000J0D01*
G01*
X120298000Y-57640000D01*
G75*
G02*
X120548000Y-57890000I0J-250000D01*
G01*
G37*
G36*
G01*
X122623000Y-57890000D02*
X122623000Y-58840000D01*
G75*
G02*
X122373000Y-59090000I-250000J0D01*
G01*
X121698000Y-59090000D01*
G75*
G02*
X121448000Y-58840000I0J250000D01*
G01*
X121448000Y-57890000D01*
G75*
G02*
X121698000Y-57640000I250000J0D01*
G01*
X122373000Y-57640000D01*
G75*
G02*
X122623000Y-57890000I0J-250000D01*
G01*
G37*
G36*
G01*
X122398000Y-56127500D02*
X122398000Y-56602500D01*
G75*
G02*
X122160500Y-56840000I-237500J0D01*
G01*
X121560500Y-56840000D01*
G75*
G02*
X121323000Y-56602500I0J237500D01*
G01*
X121323000Y-56127500D01*
G75*
G02*
X121560500Y-55890000I237500J0D01*
G01*
X122160500Y-55890000D01*
G75*
G02*
X122398000Y-56127500I0J-237500D01*
G01*
G37*
G36*
G01*
X120673000Y-56127500D02*
X120673000Y-56602500D01*
G75*
G02*
X120435500Y-56840000I-237500J0D01*
G01*
X119835500Y-56840000D01*
G75*
G02*
X119598000Y-56602500I0J237500D01*
G01*
X119598000Y-56127500D01*
G75*
G02*
X119835500Y-55890000I237500J0D01*
G01*
X120435500Y-55890000D01*
G75*
G02*
X120673000Y-56127500I0J-237500D01*
G01*
G37*
G36*
G01*
X120673000Y-54127500D02*
X120673000Y-54602500D01*
G75*
G02*
X120435500Y-54840000I-237500J0D01*
G01*
X119835500Y-54840000D01*
G75*
G02*
X119598000Y-54602500I0J237500D01*
G01*
X119598000Y-54127500D01*
G75*
G02*
X119835500Y-53890000I237500J0D01*
G01*
X120435500Y-53890000D01*
G75*
G02*
X120673000Y-54127500I0J-237500D01*
G01*
G37*
G36*
G01*
X122398000Y-54127500D02*
X122398000Y-54602500D01*
G75*
G02*
X122160500Y-54840000I-237500J0D01*
G01*
X121560500Y-54840000D01*
G75*
G02*
X121323000Y-54602500I0J237500D01*
G01*
X121323000Y-54127500D01*
G75*
G02*
X121560500Y-53890000I237500J0D01*
G01*
X122160500Y-53890000D01*
G75*
G02*
X122398000Y-54127500I0J-237500D01*
G01*
G37*
G36*
G01*
X128198000Y-68402500D02*
X128198000Y-67927500D01*
G75*
G02*
X128435500Y-67690000I237500J0D01*
G01*
X129035500Y-67690000D01*
G75*
G02*
X129273000Y-67927500I0J-237500D01*
G01*
X129273000Y-68402500D01*
G75*
G02*
X129035500Y-68640000I-237500J0D01*
G01*
X128435500Y-68640000D01*
G75*
G02*
X128198000Y-68402500I0J237500D01*
G01*
G37*
G36*
G01*
X129923000Y-68402500D02*
X129923000Y-67927500D01*
G75*
G02*
X130160500Y-67690000I237500J0D01*
G01*
X130760500Y-67690000D01*
G75*
G02*
X130998000Y-67927500I0J-237500D01*
G01*
X130998000Y-68402500D01*
G75*
G02*
X130760500Y-68640000I-237500J0D01*
G01*
X130160500Y-68640000D01*
G75*
G02*
X129923000Y-68402500I0J237500D01*
G01*
G37*
G36*
G01*
X144673000Y-46327500D02*
X144673000Y-46802500D01*
G75*
G02*
X144435500Y-47040000I-237500J0D01*
G01*
X143835500Y-47040000D01*
G75*
G02*
X143598000Y-46802500I0J237500D01*
G01*
X143598000Y-46327500D01*
G75*
G02*
X143835500Y-46090000I237500J0D01*
G01*
X144435500Y-46090000D01*
G75*
G02*
X144673000Y-46327500I0J-237500D01*
G01*
G37*
G36*
G01*
X146398000Y-46327500D02*
X146398000Y-46802500D01*
G75*
G02*
X146160500Y-47040000I-237500J0D01*
G01*
X145560500Y-47040000D01*
G75*
G02*
X145323000Y-46802500I0J237500D01*
G01*
X145323000Y-46327500D01*
G75*
G02*
X145560500Y-46090000I237500J0D01*
G01*
X146160500Y-46090000D01*
G75*
G02*
X146398000Y-46327500I0J-237500D01*
G01*
G37*
G36*
G01*
X197598000Y-102127500D02*
X197598000Y-102602500D01*
G75*
G02*
X197360500Y-102840000I-237500J0D01*
G01*
X196760500Y-102840000D01*
G75*
G02*
X196523000Y-102602500I0J237500D01*
G01*
X196523000Y-102127500D01*
G75*
G02*
X196760500Y-101890000I237500J0D01*
G01*
X197360500Y-101890000D01*
G75*
G02*
X197598000Y-102127500I0J-237500D01*
G01*
G37*
G36*
G01*
X195873000Y-102127500D02*
X195873000Y-102602500D01*
G75*
G02*
X195635500Y-102840000I-237500J0D01*
G01*
X195035500Y-102840000D01*
G75*
G02*
X194798000Y-102602500I0J237500D01*
G01*
X194798000Y-102127500D01*
G75*
G02*
X195035500Y-101890000I237500J0D01*
G01*
X195635500Y-101890000D01*
G75*
G02*
X195873000Y-102127500I0J-237500D01*
G01*
G37*
G36*
G01*
X195873000Y-104127500D02*
X195873000Y-104602500D01*
G75*
G02*
X195635500Y-104840000I-237500J0D01*
G01*
X195035500Y-104840000D01*
G75*
G02*
X194798000Y-104602500I0J237500D01*
G01*
X194798000Y-104127500D01*
G75*
G02*
X195035500Y-103890000I237500J0D01*
G01*
X195635500Y-103890000D01*
G75*
G02*
X195873000Y-104127500I0J-237500D01*
G01*
G37*
G36*
G01*
X197598000Y-104127500D02*
X197598000Y-104602500D01*
G75*
G02*
X197360500Y-104840000I-237500J0D01*
G01*
X196760500Y-104840000D01*
G75*
G02*
X196523000Y-104602500I0J237500D01*
G01*
X196523000Y-104127500D01*
G75*
G02*
X196760500Y-103890000I237500J0D01*
G01*
X197360500Y-103890000D01*
G75*
G02*
X197598000Y-104127500I0J-237500D01*
G01*
G37*
G36*
G01*
X125823000Y-68402500D02*
X125823000Y-67927500D01*
G75*
G02*
X126060500Y-67690000I237500J0D01*
G01*
X126560500Y-67690000D01*
G75*
G02*
X126798000Y-67927500I0J-237500D01*
G01*
X126798000Y-68402500D01*
G75*
G02*
X126560500Y-68640000I-237500J0D01*
G01*
X126060500Y-68640000D01*
G75*
G02*
X125823000Y-68402500I0J237500D01*
G01*
G37*
G36*
G01*
X123998000Y-68402500D02*
X123998000Y-67927500D01*
G75*
G02*
X124235500Y-67690000I237500J0D01*
G01*
X124735500Y-67690000D01*
G75*
G02*
X124973000Y-67927500I0J-237500D01*
G01*
X124973000Y-68402500D01*
G75*
G02*
X124735500Y-68640000I-237500J0D01*
G01*
X124235500Y-68640000D01*
G75*
G02*
X123998000Y-68402500I0J237500D01*
G01*
G37*
G36*
G01*
X150598000Y-46327500D02*
X150598000Y-46802500D01*
G75*
G02*
X150360500Y-47040000I-237500J0D01*
G01*
X149860500Y-47040000D01*
G75*
G02*
X149623000Y-46802500I0J237500D01*
G01*
X149623000Y-46327500D01*
G75*
G02*
X149860500Y-46090000I237500J0D01*
G01*
X150360500Y-46090000D01*
G75*
G02*
X150598000Y-46327500I0J-237500D01*
G01*
G37*
G36*
G01*
X148773000Y-46327500D02*
X148773000Y-46802500D01*
G75*
G02*
X148535500Y-47040000I-237500J0D01*
G01*
X148035500Y-47040000D01*
G75*
G02*
X147798000Y-46802500I0J237500D01*
G01*
X147798000Y-46327500D01*
G75*
G02*
X148035500Y-46090000I237500J0D01*
G01*
X148535500Y-46090000D01*
G75*
G02*
X148773000Y-46327500I0J-237500D01*
G01*
G37*
M02*
