G04 #@! TF.GenerationSoftware,KiCad,Pcbnew,(5.1.12)-1*
G04 #@! TF.CreationDate,2022-03-24T17:08:19-05:00*
G04 #@! TF.ProjectId,AVR-CTF,4156522d-4354-4462-9e6b-696361645f70,rev?*
G04 #@! TF.SameCoordinates,Original*
G04 #@! TF.FileFunction,Legend,Bot*
G04 #@! TF.FilePolarity,Positive*
%FSLAX46Y46*%
G04 Gerber Fmt 4.6, Leading zero omitted, Abs format (unit mm)*
G04 Created by KiCad (PCBNEW (5.1.12)-1) date 2022-03-24 17:08:19*
%MOMM*%
%LPD*%
G01*
G04 APERTURE LIST*
%ADD10C,0.120000*%
%ADD11C,0.150000*%
G04 APERTURE END LIST*
D10*
X121259252Y-59100000D02*
X120736748Y-59100000D01*
X121259252Y-57630000D02*
X120736748Y-57630000D01*
X121144267Y-55855000D02*
X120851733Y-55855000D01*
X121144267Y-56875000D02*
X120851733Y-56875000D01*
X121144267Y-54875000D02*
X120851733Y-54875000D01*
X121144267Y-53855000D02*
X120851733Y-53855000D01*
X129451733Y-68675000D02*
X129744267Y-68675000D01*
X129451733Y-67655000D02*
X129744267Y-67655000D01*
X196344267Y-101855000D02*
X196051733Y-101855000D01*
X196344267Y-102875000D02*
X196051733Y-102875000D01*
X196344267Y-104875000D02*
X196051733Y-104875000D01*
X196344267Y-103855000D02*
X196051733Y-103855000D01*
X125143276Y-67642500D02*
X125652724Y-67642500D01*
X125143276Y-68687500D02*
X125652724Y-68687500D01*
X149452724Y-46042500D02*
X148943276Y-46042500D01*
X149452724Y-47087500D02*
X148943276Y-47087500D01*
D11*
X123964666Y-58722142D02*
X124012285Y-58769761D01*
X124155142Y-58817380D01*
X124250380Y-58817380D01*
X124393238Y-58769761D01*
X124488476Y-58674523D01*
X124536095Y-58579285D01*
X124583714Y-58388809D01*
X124583714Y-58245952D01*
X124536095Y-58055476D01*
X124488476Y-57960238D01*
X124393238Y-57865000D01*
X124250380Y-57817380D01*
X124155142Y-57817380D01*
X124012285Y-57865000D01*
X123964666Y-57912619D01*
X123107523Y-57817380D02*
X123298000Y-57817380D01*
X123393238Y-57865000D01*
X123440857Y-57912619D01*
X123536095Y-58055476D01*
X123583714Y-58245952D01*
X123583714Y-58626904D01*
X123536095Y-58722142D01*
X123488476Y-58769761D01*
X123393238Y-58817380D01*
X123202761Y-58817380D01*
X123107523Y-58769761D01*
X123059904Y-58722142D01*
X123012285Y-58626904D01*
X123012285Y-58388809D01*
X123059904Y-58293571D01*
X123107523Y-58245952D01*
X123202761Y-58198333D01*
X123393238Y-58198333D01*
X123488476Y-58245952D01*
X123536095Y-58293571D01*
X123583714Y-58388809D01*
X118564666Y-56722142D02*
X118612285Y-56769761D01*
X118755142Y-56817380D01*
X118850380Y-56817380D01*
X118993238Y-56769761D01*
X119088476Y-56674523D01*
X119136095Y-56579285D01*
X119183714Y-56388809D01*
X119183714Y-56245952D01*
X119136095Y-56055476D01*
X119088476Y-55960238D01*
X118993238Y-55865000D01*
X118850380Y-55817380D01*
X118755142Y-55817380D01*
X118612285Y-55865000D01*
X118564666Y-55912619D01*
X118231333Y-55817380D02*
X117564666Y-55817380D01*
X117993238Y-56817380D01*
X121164666Y-53292142D02*
X121212285Y-53339761D01*
X121355142Y-53387380D01*
X121450380Y-53387380D01*
X121593238Y-53339761D01*
X121688476Y-53244523D01*
X121736095Y-53149285D01*
X121783714Y-52958809D01*
X121783714Y-52815952D01*
X121736095Y-52625476D01*
X121688476Y-52530238D01*
X121593238Y-52435000D01*
X121450380Y-52387380D01*
X121355142Y-52387380D01*
X121212285Y-52435000D01*
X121164666Y-52482619D01*
X120593238Y-52815952D02*
X120688476Y-52768333D01*
X120736095Y-52720714D01*
X120783714Y-52625476D01*
X120783714Y-52577857D01*
X120736095Y-52482619D01*
X120688476Y-52435000D01*
X120593238Y-52387380D01*
X120402761Y-52387380D01*
X120307523Y-52435000D01*
X120259904Y-52482619D01*
X120212285Y-52577857D01*
X120212285Y-52625476D01*
X120259904Y-52720714D01*
X120307523Y-52768333D01*
X120402761Y-52815952D01*
X120593238Y-52815952D01*
X120688476Y-52863571D01*
X120736095Y-52911190D01*
X120783714Y-53006428D01*
X120783714Y-53196904D01*
X120736095Y-53292142D01*
X120688476Y-53339761D01*
X120593238Y-53387380D01*
X120402761Y-53387380D01*
X120307523Y-53339761D01*
X120259904Y-53292142D01*
X120212285Y-53196904D01*
X120212285Y-53006428D01*
X120259904Y-52911190D01*
X120307523Y-52863571D01*
X120402761Y-52815952D01*
X129764666Y-69952142D02*
X129812285Y-69999761D01*
X129955142Y-70047380D01*
X130050380Y-70047380D01*
X130193238Y-69999761D01*
X130288476Y-69904523D01*
X130336095Y-69809285D01*
X130383714Y-69618809D01*
X130383714Y-69475952D01*
X130336095Y-69285476D01*
X130288476Y-69190238D01*
X130193238Y-69095000D01*
X130050380Y-69047380D01*
X129955142Y-69047380D01*
X129812285Y-69095000D01*
X129764666Y-69142619D01*
X129288476Y-70047380D02*
X129098000Y-70047380D01*
X129002761Y-69999761D01*
X128955142Y-69952142D01*
X128859904Y-69809285D01*
X128812285Y-69618809D01*
X128812285Y-69237857D01*
X128859904Y-69142619D01*
X128907523Y-69095000D01*
X129002761Y-69047380D01*
X129193238Y-69047380D01*
X129288476Y-69095000D01*
X129336095Y-69142619D01*
X129383714Y-69237857D01*
X129383714Y-69475952D01*
X129336095Y-69571190D01*
X129288476Y-69618809D01*
X129193238Y-69666428D01*
X129002761Y-69666428D01*
X128907523Y-69618809D01*
X128859904Y-69571190D01*
X128812285Y-69475952D01*
X196840857Y-101292142D02*
X196888476Y-101339761D01*
X197031333Y-101387380D01*
X197126571Y-101387380D01*
X197269428Y-101339761D01*
X197364666Y-101244523D01*
X197412285Y-101149285D01*
X197459904Y-100958809D01*
X197459904Y-100815952D01*
X197412285Y-100625476D01*
X197364666Y-100530238D01*
X197269428Y-100435000D01*
X197126571Y-100387380D01*
X197031333Y-100387380D01*
X196888476Y-100435000D01*
X196840857Y-100482619D01*
X195888476Y-101387380D02*
X196459904Y-101387380D01*
X196174190Y-101387380D02*
X196174190Y-100387380D01*
X196269428Y-100530238D01*
X196364666Y-100625476D01*
X196459904Y-100673095D01*
X195555142Y-100387380D02*
X194888476Y-100387380D01*
X195317047Y-101387380D01*
X199840857Y-104922142D02*
X199888476Y-104969761D01*
X200031333Y-105017380D01*
X200126571Y-105017380D01*
X200269428Y-104969761D01*
X200364666Y-104874523D01*
X200412285Y-104779285D01*
X200459904Y-104588809D01*
X200459904Y-104445952D01*
X200412285Y-104255476D01*
X200364666Y-104160238D01*
X200269428Y-104065000D01*
X200126571Y-104017380D01*
X200031333Y-104017380D01*
X199888476Y-104065000D01*
X199840857Y-104112619D01*
X198888476Y-105017380D02*
X199459904Y-105017380D01*
X199174190Y-105017380D02*
X199174190Y-104017380D01*
X199269428Y-104160238D01*
X199364666Y-104255476D01*
X199459904Y-104303095D01*
X198317047Y-104445952D02*
X198412285Y-104398333D01*
X198459904Y-104350714D01*
X198507523Y-104255476D01*
X198507523Y-104207857D01*
X198459904Y-104112619D01*
X198412285Y-104065000D01*
X198317047Y-104017380D01*
X198126571Y-104017380D01*
X198031333Y-104065000D01*
X197983714Y-104112619D01*
X197936095Y-104207857D01*
X197936095Y-104255476D01*
X197983714Y-104350714D01*
X198031333Y-104398333D01*
X198126571Y-104445952D01*
X198317047Y-104445952D01*
X198412285Y-104493571D01*
X198459904Y-104541190D01*
X198507523Y-104636428D01*
X198507523Y-104826904D01*
X198459904Y-104922142D01*
X198412285Y-104969761D01*
X198317047Y-105017380D01*
X198126571Y-105017380D01*
X198031333Y-104969761D01*
X197983714Y-104922142D01*
X197936095Y-104826904D01*
X197936095Y-104636428D01*
X197983714Y-104541190D01*
X198031333Y-104493571D01*
X198126571Y-104445952D01*
X125564666Y-70047380D02*
X125898000Y-69571190D01*
X126136095Y-70047380D02*
X126136095Y-69047380D01*
X125755142Y-69047380D01*
X125659904Y-69095000D01*
X125612285Y-69142619D01*
X125564666Y-69237857D01*
X125564666Y-69380714D01*
X125612285Y-69475952D01*
X125659904Y-69523571D01*
X125755142Y-69571190D01*
X126136095Y-69571190D01*
X124707523Y-69380714D02*
X124707523Y-70047380D01*
X124945619Y-68999761D02*
X125183714Y-69714047D01*
X124564666Y-69714047D01*
X149364666Y-45587380D02*
X149698000Y-45111190D01*
X149936095Y-45587380D02*
X149936095Y-44587380D01*
X149555142Y-44587380D01*
X149459904Y-44635000D01*
X149412285Y-44682619D01*
X149364666Y-44777857D01*
X149364666Y-44920714D01*
X149412285Y-45015952D01*
X149459904Y-45063571D01*
X149555142Y-45111190D01*
X149936095Y-45111190D01*
X148459904Y-44587380D02*
X148936095Y-44587380D01*
X148983714Y-45063571D01*
X148936095Y-45015952D01*
X148840857Y-44968333D01*
X148602761Y-44968333D01*
X148507523Y-45015952D01*
X148459904Y-45063571D01*
X148412285Y-45158809D01*
X148412285Y-45396904D01*
X148459904Y-45492142D01*
X148507523Y-45539761D01*
X148602761Y-45587380D01*
X148840857Y-45587380D01*
X148936095Y-45539761D01*
X148983714Y-45492142D01*
M02*
