G04 #@! TF.GenerationSoftware,KiCad,Pcbnew,(5.1.12)-1*
G04 #@! TF.CreationDate,2022-03-23T16:05:10-05:00*
G04 #@! TF.ProjectId,AVR-CTF,4156522d-4354-4462-9e6b-696361645f70,rev?*
G04 #@! TF.SameCoordinates,Original*
G04 #@! TF.FileFunction,Soldermask,Top*
G04 #@! TF.FilePolarity,Negative*
%FSLAX46Y46*%
G04 Gerber Fmt 4.6, Leading zero omitted, Abs format (unit mm)*
G04 Created by KiCad (PCBNEW (5.1.12)-1) date 2022-03-23 16:05:10*
%MOMM*%
%LPD*%
G01*
G04 APERTURE LIST*
%ADD10C,0.010000*%
%ADD11R,3.500000X1.800000*%
%ADD12R,1.700000X1.700000*%
%ADD13O,1.700000X1.700000*%
%ADD14C,0.450000*%
%ADD15R,2.000000X1.900000*%
%ADD16R,1.400000X0.400000*%
%ADD17O,1.727200X2.032000*%
%ADD18R,2.100000X1.400000*%
%ADD19R,2.000000X1.500000*%
%ADD20R,2.000000X3.800000*%
%ADD21R,5.000000X5.000000*%
%ADD22R,0.900000X2.000000*%
%ADD23R,2.000000X0.900000*%
%ADD24R,1.460500X0.538480*%
%ADD25R,1.340599X0.507200*%
%ADD26R,0.507200X1.340599*%
%ADD27R,2.600000X2.600000*%
%ADD28R,1.750000X1.800000*%
%ADD29R,1.500000X1.000000*%
G04 APERTURE END LIST*
D10*
G36*
X206648000Y-105670980D02*
G01*
X206648000Y-104215000D01*
X208949600Y-104215000D01*
X208949600Y-105670980D01*
X206648000Y-105670980D01*
G37*
X206648000Y-105670980D02*
X206648000Y-104215000D01*
X208949600Y-104215000D01*
X208949600Y-105670980D01*
X206648000Y-105670980D01*
G36*
X206648000Y-98509950D02*
G01*
X206648000Y-97065000D01*
X208950040Y-97065000D01*
X208950040Y-98509950D01*
X206648000Y-98509950D01*
G37*
X206648000Y-98509950D02*
X206648000Y-97065000D01*
X208950040Y-97065000D01*
X208950040Y-98509950D01*
X206648000Y-98509950D01*
G36*
X114548000Y-79970050D02*
G01*
X114548000Y-81415000D01*
X112245960Y-81415000D01*
X112245960Y-79970050D01*
X114548000Y-79970050D01*
G37*
X114548000Y-79970050D02*
X114548000Y-81415000D01*
X112245960Y-81415000D01*
X112245960Y-79970050D01*
X114548000Y-79970050D01*
G36*
X114548000Y-72809020D02*
G01*
X114548000Y-74265000D01*
X112246400Y-74265000D01*
X112246400Y-72809020D01*
X114548000Y-72809020D01*
G37*
X114548000Y-72809020D02*
X114548000Y-74265000D01*
X112246400Y-74265000D01*
X112246400Y-72809020D01*
X114548000Y-72809020D01*
G36*
G01*
X128148000Y-109240000D02*
X128148000Y-108290000D01*
G75*
G02*
X128398000Y-108040000I250000J0D01*
G01*
X129073000Y-108040000D01*
G75*
G02*
X129323000Y-108290000I0J-250000D01*
G01*
X129323000Y-109240000D01*
G75*
G02*
X129073000Y-109490000I-250000J0D01*
G01*
X128398000Y-109490000D01*
G75*
G02*
X128148000Y-109240000I0J250000D01*
G01*
G37*
G36*
G01*
X126073000Y-109240000D02*
X126073000Y-108290000D01*
G75*
G02*
X126323000Y-108040000I250000J0D01*
G01*
X126998000Y-108040000D01*
G75*
G02*
X127248000Y-108290000I0J-250000D01*
G01*
X127248000Y-109240000D01*
G75*
G02*
X126998000Y-109490000I-250000J0D01*
G01*
X126323000Y-109490000D01*
G75*
G02*
X126073000Y-109240000I0J250000D01*
G01*
G37*
G36*
G01*
X126073000Y-113115000D02*
X126073000Y-112165000D01*
G75*
G02*
X126323000Y-111915000I250000J0D01*
G01*
X126998000Y-111915000D01*
G75*
G02*
X127248000Y-112165000I0J-250000D01*
G01*
X127248000Y-113115000D01*
G75*
G02*
X126998000Y-113365000I-250000J0D01*
G01*
X126323000Y-113365000D01*
G75*
G02*
X126073000Y-113115000I0J250000D01*
G01*
G37*
G36*
G01*
X128148000Y-113115000D02*
X128148000Y-112165000D01*
G75*
G02*
X128398000Y-111915000I250000J0D01*
G01*
X129073000Y-111915000D01*
G75*
G02*
X129323000Y-112165000I0J-250000D01*
G01*
X129323000Y-113115000D01*
G75*
G02*
X129073000Y-113365000I-250000J0D01*
G01*
X128398000Y-113365000D01*
G75*
G02*
X128148000Y-113115000I0J250000D01*
G01*
G37*
G36*
G01*
X126073000Y-105365000D02*
X126073000Y-104415000D01*
G75*
G02*
X126323000Y-104165000I250000J0D01*
G01*
X126998000Y-104165000D01*
G75*
G02*
X127248000Y-104415000I0J-250000D01*
G01*
X127248000Y-105365000D01*
G75*
G02*
X126998000Y-105615000I-250000J0D01*
G01*
X126323000Y-105615000D01*
G75*
G02*
X126073000Y-105365000I0J250000D01*
G01*
G37*
G36*
G01*
X128148000Y-105365000D02*
X128148000Y-104415000D01*
G75*
G02*
X128398000Y-104165000I250000J0D01*
G01*
X129073000Y-104165000D01*
G75*
G02*
X129323000Y-104415000I0J-250000D01*
G01*
X129323000Y-105365000D01*
G75*
G02*
X129073000Y-105615000I-250000J0D01*
G01*
X128398000Y-105615000D01*
G75*
G02*
X128148000Y-105365000I0J250000D01*
G01*
G37*
G36*
G01*
X126528000Y-116502500D02*
X126528000Y-116027500D01*
G75*
G02*
X126765500Y-115790000I237500J0D01*
G01*
X127365500Y-115790000D01*
G75*
G02*
X127603000Y-116027500I0J-237500D01*
G01*
X127603000Y-116502500D01*
G75*
G02*
X127365500Y-116740000I-237500J0D01*
G01*
X126765500Y-116740000D01*
G75*
G02*
X126528000Y-116502500I0J237500D01*
G01*
G37*
G36*
G01*
X128253000Y-116502500D02*
X128253000Y-116027500D01*
G75*
G02*
X128490500Y-115790000I237500J0D01*
G01*
X129090500Y-115790000D01*
G75*
G02*
X129328000Y-116027500I0J-237500D01*
G01*
X129328000Y-116502500D01*
G75*
G02*
X129090500Y-116740000I-237500J0D01*
G01*
X128490500Y-116740000D01*
G75*
G02*
X128253000Y-116502500I0J237500D01*
G01*
G37*
G36*
G01*
X127923000Y-101602500D02*
X127923000Y-101127500D01*
G75*
G02*
X128160500Y-100890000I237500J0D01*
G01*
X128760500Y-100890000D01*
G75*
G02*
X128998000Y-101127500I0J-237500D01*
G01*
X128998000Y-101602500D01*
G75*
G02*
X128760500Y-101840000I-237500J0D01*
G01*
X128160500Y-101840000D01*
G75*
G02*
X127923000Y-101602500I0J237500D01*
G01*
G37*
G36*
G01*
X126198000Y-101602500D02*
X126198000Y-101127500D01*
G75*
G02*
X126435500Y-100890000I237500J0D01*
G01*
X127035500Y-100890000D01*
G75*
G02*
X127273000Y-101127500I0J-237500D01*
G01*
X127273000Y-101602500D01*
G75*
G02*
X127035500Y-101840000I-237500J0D01*
G01*
X126435500Y-101840000D01*
G75*
G02*
X126198000Y-101602500I0J237500D01*
G01*
G37*
G36*
G01*
X195810500Y-72215000D02*
X196285500Y-72215000D01*
G75*
G02*
X196523000Y-72452500I0J-237500D01*
G01*
X196523000Y-73052500D01*
G75*
G02*
X196285500Y-73290000I-237500J0D01*
G01*
X195810500Y-73290000D01*
G75*
G02*
X195573000Y-73052500I0J237500D01*
G01*
X195573000Y-72452500D01*
G75*
G02*
X195810500Y-72215000I237500J0D01*
G01*
G37*
G36*
G01*
X195810500Y-73940000D02*
X196285500Y-73940000D01*
G75*
G02*
X196523000Y-74177500I0J-237500D01*
G01*
X196523000Y-74777500D01*
G75*
G02*
X196285500Y-75015000I-237500J0D01*
G01*
X195810500Y-75015000D01*
G75*
G02*
X195573000Y-74777500I0J237500D01*
G01*
X195573000Y-74177500D01*
G75*
G02*
X195810500Y-73940000I237500J0D01*
G01*
G37*
G36*
G01*
X192560500Y-72165000D02*
X193035500Y-72165000D01*
G75*
G02*
X193273000Y-72402500I0J-237500D01*
G01*
X193273000Y-73002500D01*
G75*
G02*
X193035500Y-73240000I-237500J0D01*
G01*
X192560500Y-73240000D01*
G75*
G02*
X192323000Y-73002500I0J237500D01*
G01*
X192323000Y-72402500D01*
G75*
G02*
X192560500Y-72165000I237500J0D01*
G01*
G37*
G36*
G01*
X192560500Y-73890000D02*
X193035500Y-73890000D01*
G75*
G02*
X193273000Y-74127500I0J-237500D01*
G01*
X193273000Y-74727500D01*
G75*
G02*
X193035500Y-74965000I-237500J0D01*
G01*
X192560500Y-74965000D01*
G75*
G02*
X192323000Y-74727500I0J237500D01*
G01*
X192323000Y-74127500D01*
G75*
G02*
X192560500Y-73890000I237500J0D01*
G01*
G37*
G36*
G01*
X183635500Y-81840000D02*
X183160500Y-81840000D01*
G75*
G02*
X182923000Y-81602500I0J237500D01*
G01*
X182923000Y-81002500D01*
G75*
G02*
X183160500Y-80765000I237500J0D01*
G01*
X183635500Y-80765000D01*
G75*
G02*
X183873000Y-81002500I0J-237500D01*
G01*
X183873000Y-81602500D01*
G75*
G02*
X183635500Y-81840000I-237500J0D01*
G01*
G37*
G36*
G01*
X183635500Y-83565000D02*
X183160500Y-83565000D01*
G75*
G02*
X182923000Y-83327500I0J237500D01*
G01*
X182923000Y-82727500D01*
G75*
G02*
X183160500Y-82490000I237500J0D01*
G01*
X183635500Y-82490000D01*
G75*
G02*
X183873000Y-82727500I0J-237500D01*
G01*
X183873000Y-83327500D01*
G75*
G02*
X183635500Y-83565000I-237500J0D01*
G01*
G37*
G36*
G01*
X192323000Y-91602500D02*
X192323000Y-91127500D01*
G75*
G02*
X192560500Y-90890000I237500J0D01*
G01*
X193160500Y-90890000D01*
G75*
G02*
X193398000Y-91127500I0J-237500D01*
G01*
X193398000Y-91602500D01*
G75*
G02*
X193160500Y-91840000I-237500J0D01*
G01*
X192560500Y-91840000D01*
G75*
G02*
X192323000Y-91602500I0J237500D01*
G01*
G37*
G36*
G01*
X190598000Y-91602500D02*
X190598000Y-91127500D01*
G75*
G02*
X190835500Y-90890000I237500J0D01*
G01*
X191435500Y-90890000D01*
G75*
G02*
X191673000Y-91127500I0J-237500D01*
G01*
X191673000Y-91602500D01*
G75*
G02*
X191435500Y-91840000I-237500J0D01*
G01*
X190835500Y-91840000D01*
G75*
G02*
X190598000Y-91602500I0J237500D01*
G01*
G37*
G36*
G01*
X190598000Y-90002500D02*
X190598000Y-89527500D01*
G75*
G02*
X190835500Y-89290000I237500J0D01*
G01*
X191435500Y-89290000D01*
G75*
G02*
X191673000Y-89527500I0J-237500D01*
G01*
X191673000Y-90002500D01*
G75*
G02*
X191435500Y-90240000I-237500J0D01*
G01*
X190835500Y-90240000D01*
G75*
G02*
X190598000Y-90002500I0J237500D01*
G01*
G37*
G36*
G01*
X192323000Y-90002500D02*
X192323000Y-89527500D01*
G75*
G02*
X192560500Y-89290000I237500J0D01*
G01*
X193160500Y-89290000D01*
G75*
G02*
X193398000Y-89527500I0J-237500D01*
G01*
X193398000Y-90002500D01*
G75*
G02*
X193160500Y-90240000I-237500J0D01*
G01*
X192560500Y-90240000D01*
G75*
G02*
X192323000Y-90002500I0J237500D01*
G01*
G37*
G36*
G01*
X195598000Y-107602500D02*
X195598000Y-107127500D01*
G75*
G02*
X195835500Y-106890000I237500J0D01*
G01*
X196435500Y-106890000D01*
G75*
G02*
X196673000Y-107127500I0J-237500D01*
G01*
X196673000Y-107602500D01*
G75*
G02*
X196435500Y-107840000I-237500J0D01*
G01*
X195835500Y-107840000D01*
G75*
G02*
X195598000Y-107602500I0J237500D01*
G01*
G37*
G36*
G01*
X197323000Y-107602500D02*
X197323000Y-107127500D01*
G75*
G02*
X197560500Y-106890000I237500J0D01*
G01*
X198160500Y-106890000D01*
G75*
G02*
X198398000Y-107127500I0J-237500D01*
G01*
X198398000Y-107602500D01*
G75*
G02*
X198160500Y-107840000I-237500J0D01*
G01*
X197560500Y-107840000D01*
G75*
G02*
X197323000Y-107602500I0J237500D01*
G01*
G37*
G36*
G01*
X206598000Y-94727500D02*
X206598000Y-95202500D01*
G75*
G02*
X206360500Y-95440000I-237500J0D01*
G01*
X205760500Y-95440000D01*
G75*
G02*
X205523000Y-95202500I0J237500D01*
G01*
X205523000Y-94727500D01*
G75*
G02*
X205760500Y-94490000I237500J0D01*
G01*
X206360500Y-94490000D01*
G75*
G02*
X206598000Y-94727500I0J-237500D01*
G01*
G37*
G36*
G01*
X204873000Y-94727500D02*
X204873000Y-95202500D01*
G75*
G02*
X204635500Y-95440000I-237500J0D01*
G01*
X204035500Y-95440000D01*
G75*
G02*
X203798000Y-95202500I0J237500D01*
G01*
X203798000Y-94727500D01*
G75*
G02*
X204035500Y-94490000I237500J0D01*
G01*
X204635500Y-94490000D01*
G75*
G02*
X204873000Y-94727500I0J-237500D01*
G01*
G37*
G36*
G01*
X126073000Y-94240000D02*
X126073000Y-93290000D01*
G75*
G02*
X126323000Y-93040000I250000J0D01*
G01*
X126998000Y-93040000D01*
G75*
G02*
X127248000Y-93290000I0J-250000D01*
G01*
X127248000Y-94240000D01*
G75*
G02*
X126998000Y-94490000I-250000J0D01*
G01*
X126323000Y-94490000D01*
G75*
G02*
X126073000Y-94240000I0J250000D01*
G01*
G37*
G36*
G01*
X128148000Y-94240000D02*
X128148000Y-93290000D01*
G75*
G02*
X128398000Y-93040000I250000J0D01*
G01*
X129073000Y-93040000D01*
G75*
G02*
X129323000Y-93290000I0J-250000D01*
G01*
X129323000Y-94240000D01*
G75*
G02*
X129073000Y-94490000I-250000J0D01*
G01*
X128398000Y-94490000D01*
G75*
G02*
X128148000Y-94240000I0J250000D01*
G01*
G37*
G36*
G01*
X126298000Y-91002500D02*
X126298000Y-90527500D01*
G75*
G02*
X126535500Y-90290000I237500J0D01*
G01*
X127135500Y-90290000D01*
G75*
G02*
X127373000Y-90527500I0J-237500D01*
G01*
X127373000Y-91002500D01*
G75*
G02*
X127135500Y-91240000I-237500J0D01*
G01*
X126535500Y-91240000D01*
G75*
G02*
X126298000Y-91002500I0J237500D01*
G01*
G37*
G36*
G01*
X128023000Y-91002500D02*
X128023000Y-90527500D01*
G75*
G02*
X128260500Y-90290000I237500J0D01*
G01*
X128860500Y-90290000D01*
G75*
G02*
X129098000Y-90527500I0J-237500D01*
G01*
X129098000Y-91002500D01*
G75*
G02*
X128860500Y-91240000I-237500J0D01*
G01*
X128260500Y-91240000D01*
G75*
G02*
X128023000Y-91002500I0J237500D01*
G01*
G37*
G36*
G01*
X121473000Y-78127500D02*
X121473000Y-78602500D01*
G75*
G02*
X121235500Y-78840000I-237500J0D01*
G01*
X120635500Y-78840000D01*
G75*
G02*
X120398000Y-78602500I0J237500D01*
G01*
X120398000Y-78127500D01*
G75*
G02*
X120635500Y-77890000I237500J0D01*
G01*
X121235500Y-77890000D01*
G75*
G02*
X121473000Y-78127500I0J-237500D01*
G01*
G37*
G36*
G01*
X123198000Y-78127500D02*
X123198000Y-78602500D01*
G75*
G02*
X122960500Y-78840000I-237500J0D01*
G01*
X122360500Y-78840000D01*
G75*
G02*
X122123000Y-78602500I0J237500D01*
G01*
X122123000Y-78127500D01*
G75*
G02*
X122360500Y-77890000I237500J0D01*
G01*
X122960500Y-77890000D01*
G75*
G02*
X123198000Y-78127500I0J-237500D01*
G01*
G37*
G36*
G01*
X128798000Y-82927500D02*
X128798000Y-83402500D01*
G75*
G02*
X128560500Y-83640000I-237500J0D01*
G01*
X127960500Y-83640000D01*
G75*
G02*
X127723000Y-83402500I0J237500D01*
G01*
X127723000Y-82927500D01*
G75*
G02*
X127960500Y-82690000I237500J0D01*
G01*
X128560500Y-82690000D01*
G75*
G02*
X128798000Y-82927500I0J-237500D01*
G01*
G37*
G36*
G01*
X127073000Y-82927500D02*
X127073000Y-83402500D01*
G75*
G02*
X126835500Y-83640000I-237500J0D01*
G01*
X126235500Y-83640000D01*
G75*
G02*
X125998000Y-83402500I0J237500D01*
G01*
X125998000Y-82927500D01*
G75*
G02*
X126235500Y-82690000I237500J0D01*
G01*
X126835500Y-82690000D01*
G75*
G02*
X127073000Y-82927500I0J-237500D01*
G01*
G37*
G36*
G01*
X127073000Y-81127500D02*
X127073000Y-81602500D01*
G75*
G02*
X126835500Y-81840000I-237500J0D01*
G01*
X126235500Y-81840000D01*
G75*
G02*
X125998000Y-81602500I0J237500D01*
G01*
X125998000Y-81127500D01*
G75*
G02*
X126235500Y-80890000I237500J0D01*
G01*
X126835500Y-80890000D01*
G75*
G02*
X127073000Y-81127500I0J-237500D01*
G01*
G37*
G36*
G01*
X128798000Y-81127500D02*
X128798000Y-81602500D01*
G75*
G02*
X128560500Y-81840000I-237500J0D01*
G01*
X127960500Y-81840000D01*
G75*
G02*
X127723000Y-81602500I0J237500D01*
G01*
X127723000Y-81127500D01*
G75*
G02*
X127960500Y-80890000I237500J0D01*
G01*
X128560500Y-80890000D01*
G75*
G02*
X128798000Y-81127500I0J-237500D01*
G01*
G37*
G36*
G01*
X121473000Y-80127500D02*
X121473000Y-80602500D01*
G75*
G02*
X121235500Y-80840000I-237500J0D01*
G01*
X120635500Y-80840000D01*
G75*
G02*
X120398000Y-80602500I0J237500D01*
G01*
X120398000Y-80127500D01*
G75*
G02*
X120635500Y-79890000I237500J0D01*
G01*
X121235500Y-79890000D01*
G75*
G02*
X121473000Y-80127500I0J-237500D01*
G01*
G37*
G36*
G01*
X123198000Y-80127500D02*
X123198000Y-80602500D01*
G75*
G02*
X122960500Y-80840000I-237500J0D01*
G01*
X122360500Y-80840000D01*
G75*
G02*
X122123000Y-80602500I0J237500D01*
G01*
X122123000Y-80127500D01*
G75*
G02*
X122360500Y-79890000I237500J0D01*
G01*
X122960500Y-79890000D01*
G75*
G02*
X123198000Y-80127500I0J-237500D01*
G01*
G37*
G36*
G01*
X145598000Y-101277500D02*
X145598000Y-101752500D01*
G75*
G02*
X145360500Y-101990000I-237500J0D01*
G01*
X144785500Y-101990000D01*
G75*
G02*
X144548000Y-101752500I0J237500D01*
G01*
X144548000Y-101277500D01*
G75*
G02*
X144785500Y-101040000I237500J0D01*
G01*
X145360500Y-101040000D01*
G75*
G02*
X145598000Y-101277500I0J-237500D01*
G01*
G37*
G36*
G01*
X143848000Y-101277500D02*
X143848000Y-101752500D01*
G75*
G02*
X143610500Y-101990000I-237500J0D01*
G01*
X143035500Y-101990000D01*
G75*
G02*
X142798000Y-101752500I0J237500D01*
G01*
X142798000Y-101277500D01*
G75*
G02*
X143035500Y-101040000I237500J0D01*
G01*
X143610500Y-101040000D01*
G75*
G02*
X143848000Y-101277500I0J-237500D01*
G01*
G37*
G36*
G01*
X161160500Y-71227500D02*
X161635500Y-71227500D01*
G75*
G02*
X161873000Y-71465000I0J-237500D01*
G01*
X161873000Y-72040000D01*
G75*
G02*
X161635500Y-72277500I-237500J0D01*
G01*
X161160500Y-72277500D01*
G75*
G02*
X160923000Y-72040000I0J237500D01*
G01*
X160923000Y-71465000D01*
G75*
G02*
X161160500Y-71227500I237500J0D01*
G01*
G37*
G36*
G01*
X161160500Y-69477500D02*
X161635500Y-69477500D01*
G75*
G02*
X161873000Y-69715000I0J-237500D01*
G01*
X161873000Y-70290000D01*
G75*
G02*
X161635500Y-70527500I-237500J0D01*
G01*
X161160500Y-70527500D01*
G75*
G02*
X160923000Y-70290000I0J237500D01*
G01*
X160923000Y-69715000D01*
G75*
G02*
X161160500Y-69477500I237500J0D01*
G01*
G37*
G36*
G01*
X189773000Y-100927500D02*
X189773000Y-101402500D01*
G75*
G02*
X189535500Y-101640000I-237500J0D01*
G01*
X188960500Y-101640000D01*
G75*
G02*
X188723000Y-101402500I0J237500D01*
G01*
X188723000Y-100927500D01*
G75*
G02*
X188960500Y-100690000I237500J0D01*
G01*
X189535500Y-100690000D01*
G75*
G02*
X189773000Y-100927500I0J-237500D01*
G01*
G37*
G36*
G01*
X191523000Y-100927500D02*
X191523000Y-101402500D01*
G75*
G02*
X191285500Y-101640000I-237500J0D01*
G01*
X190710500Y-101640000D01*
G75*
G02*
X190473000Y-101402500I0J237500D01*
G01*
X190473000Y-100927500D01*
G75*
G02*
X190710500Y-100690000I237500J0D01*
G01*
X191285500Y-100690000D01*
G75*
G02*
X191523000Y-100927500I0J-237500D01*
G01*
G37*
G36*
G01*
X191598000Y-103127500D02*
X191598000Y-103602500D01*
G75*
G02*
X191360500Y-103840000I-237500J0D01*
G01*
X190785500Y-103840000D01*
G75*
G02*
X190548000Y-103602500I0J237500D01*
G01*
X190548000Y-103127500D01*
G75*
G02*
X190785500Y-102890000I237500J0D01*
G01*
X191360500Y-102890000D01*
G75*
G02*
X191598000Y-103127500I0J-237500D01*
G01*
G37*
G36*
G01*
X189848000Y-103127500D02*
X189848000Y-103602500D01*
G75*
G02*
X189610500Y-103840000I-237500J0D01*
G01*
X189035500Y-103840000D01*
G75*
G02*
X188798000Y-103602500I0J237500D01*
G01*
X188798000Y-103127500D01*
G75*
G02*
X189035500Y-102890000I237500J0D01*
G01*
X189610500Y-102890000D01*
G75*
G02*
X189848000Y-103127500I0J-237500D01*
G01*
G37*
D11*
X199298000Y-96565000D03*
X194298000Y-96565000D03*
G36*
G01*
X134435500Y-71415000D02*
X133960500Y-71415000D01*
G75*
G02*
X133723000Y-71177500I0J237500D01*
G01*
X133723000Y-70602500D01*
G75*
G02*
X133960500Y-70365000I237500J0D01*
G01*
X134435500Y-70365000D01*
G75*
G02*
X134673000Y-70602500I0J-237500D01*
G01*
X134673000Y-71177500D01*
G75*
G02*
X134435500Y-71415000I-237500J0D01*
G01*
G37*
G36*
G01*
X134435500Y-73165000D02*
X133960500Y-73165000D01*
G75*
G02*
X133723000Y-72927500I0J237500D01*
G01*
X133723000Y-72352500D01*
G75*
G02*
X133960500Y-72115000I237500J0D01*
G01*
X134435500Y-72115000D01*
G75*
G02*
X134673000Y-72352500I0J-237500D01*
G01*
X134673000Y-72927500D01*
G75*
G02*
X134435500Y-73165000I-237500J0D01*
G01*
G37*
G36*
G01*
X136635500Y-73165000D02*
X136160500Y-73165000D01*
G75*
G02*
X135923000Y-72927500I0J237500D01*
G01*
X135923000Y-72352500D01*
G75*
G02*
X136160500Y-72115000I237500J0D01*
G01*
X136635500Y-72115000D01*
G75*
G02*
X136873000Y-72352500I0J-237500D01*
G01*
X136873000Y-72927500D01*
G75*
G02*
X136635500Y-73165000I-237500J0D01*
G01*
G37*
G36*
G01*
X136635500Y-71415000D02*
X136160500Y-71415000D01*
G75*
G02*
X135923000Y-71177500I0J237500D01*
G01*
X135923000Y-70602500D01*
G75*
G02*
X136160500Y-70365000I237500J0D01*
G01*
X136635500Y-70365000D01*
G75*
G02*
X136873000Y-70602500I0J-237500D01*
G01*
X136873000Y-71177500D01*
G75*
G02*
X136635500Y-71415000I-237500J0D01*
G01*
G37*
X121648000Y-84365000D03*
X116648000Y-84365000D03*
D12*
X146398000Y-92765000D03*
D13*
X146398000Y-90225000D03*
X133518000Y-92565000D03*
X136058000Y-92565000D03*
D12*
X138598000Y-92565000D03*
X140798000Y-63165000D03*
D13*
X143338000Y-63165000D03*
X145878000Y-63165000D03*
X148418000Y-63165000D03*
X195998000Y-83105000D03*
D12*
X195998000Y-80565000D03*
X191998000Y-80565000D03*
D13*
X191998000Y-83105000D03*
D12*
X174398000Y-85365000D03*
D13*
X174398000Y-82825000D03*
X174398000Y-80285000D03*
D14*
X207798000Y-97790000D03*
X207798000Y-104940000D03*
D15*
X207798000Y-100165000D03*
X207798000Y-102565000D03*
D16*
X205248000Y-100065000D03*
X205248000Y-100715000D03*
X205248000Y-101365000D03*
X205248000Y-102015000D03*
X205248000Y-102665000D03*
X115948000Y-75815000D03*
X115948000Y-76465000D03*
X115948000Y-77115000D03*
X115948000Y-77765000D03*
X115948000Y-78415000D03*
D15*
X113398000Y-75915000D03*
X113398000Y-78315000D03*
D14*
X113398000Y-73540000D03*
X113398000Y-80690000D03*
G36*
G01*
X191573000Y-92727500D02*
X191573000Y-93202500D01*
G75*
G02*
X191335500Y-93440000I-237500J0D01*
G01*
X190835500Y-93440000D01*
G75*
G02*
X190598000Y-93202500I0J237500D01*
G01*
X190598000Y-92727500D01*
G75*
G02*
X190835500Y-92490000I237500J0D01*
G01*
X191335500Y-92490000D01*
G75*
G02*
X191573000Y-92727500I0J-237500D01*
G01*
G37*
G36*
G01*
X193398000Y-92727500D02*
X193398000Y-93202500D01*
G75*
G02*
X193160500Y-93440000I-237500J0D01*
G01*
X192660500Y-93440000D01*
G75*
G02*
X192423000Y-93202500I0J237500D01*
G01*
X192423000Y-92727500D01*
G75*
G02*
X192660500Y-92490000I237500J0D01*
G01*
X193160500Y-92490000D01*
G75*
G02*
X193398000Y-92727500I0J-237500D01*
G01*
G37*
D17*
X179955000Y-111502000D03*
X177415000Y-111502000D03*
X174875000Y-111502000D03*
X172335000Y-111502000D03*
X169795000Y-111502000D03*
X167255000Y-111502000D03*
X164715000Y-111502000D03*
X162175000Y-111502000D03*
X185098500Y-111502000D03*
X187638500Y-111502000D03*
X190178500Y-111502000D03*
X192718500Y-111502000D03*
X195258500Y-111502000D03*
X197798500Y-111502000D03*
X153094500Y-63242000D03*
X155634500Y-63242000D03*
X158174500Y-63242000D03*
X160714500Y-63242000D03*
X163254500Y-63242000D03*
X165794500Y-63242000D03*
X168334500Y-63242000D03*
X170874500Y-63242000D03*
X173414500Y-63242000D03*
X175954500Y-63242000D03*
X180082000Y-63242000D03*
X182622000Y-63242000D03*
X185162000Y-63242000D03*
X187702000Y-63242000D03*
X190242000Y-63242000D03*
X192782000Y-63242000D03*
X195322000Y-63242000D03*
X197862000Y-63242000D03*
G36*
G01*
X139048000Y-101752500D02*
X139048000Y-101277500D01*
G75*
G02*
X139285500Y-101040000I237500J0D01*
G01*
X139785500Y-101040000D01*
G75*
G02*
X140023000Y-101277500I0J-237500D01*
G01*
X140023000Y-101752500D01*
G75*
G02*
X139785500Y-101990000I-237500J0D01*
G01*
X139285500Y-101990000D01*
G75*
G02*
X139048000Y-101752500I0J237500D01*
G01*
G37*
G36*
G01*
X140873000Y-101752500D02*
X140873000Y-101277500D01*
G75*
G02*
X141110500Y-101040000I237500J0D01*
G01*
X141610500Y-101040000D01*
G75*
G02*
X141848000Y-101277500I0J-237500D01*
G01*
X141848000Y-101752500D01*
G75*
G02*
X141610500Y-101990000I-237500J0D01*
G01*
X141110500Y-101990000D01*
G75*
G02*
X140873000Y-101752500I0J237500D01*
G01*
G37*
G36*
G01*
X148883001Y-115927500D02*
X148883001Y-116402500D01*
G75*
G02*
X148645501Y-116640000I-237500J0D01*
G01*
X148145501Y-116640000D01*
G75*
G02*
X147908001Y-116402500I0J237500D01*
G01*
X147908001Y-115927500D01*
G75*
G02*
X148145501Y-115690000I237500J0D01*
G01*
X148645501Y-115690000D01*
G75*
G02*
X148883001Y-115927500I0J-237500D01*
G01*
G37*
G36*
G01*
X147058001Y-115927500D02*
X147058001Y-116402500D01*
G75*
G02*
X146820501Y-116640000I-237500J0D01*
G01*
X146320501Y-116640000D01*
G75*
G02*
X146083001Y-116402500I0J237500D01*
G01*
X146083001Y-115927500D01*
G75*
G02*
X146320501Y-115690000I237500J0D01*
G01*
X146820501Y-115690000D01*
G75*
G02*
X147058001Y-115927500I0J-237500D01*
G01*
G37*
G36*
G01*
X147908001Y-114367501D02*
X147908001Y-113892501D01*
G75*
G02*
X148145501Y-113655001I237500J0D01*
G01*
X148645501Y-113655001D01*
G75*
G02*
X148883001Y-113892501I0J-237500D01*
G01*
X148883001Y-114367501D01*
G75*
G02*
X148645501Y-114605001I-237500J0D01*
G01*
X148145501Y-114605001D01*
G75*
G02*
X147908001Y-114367501I0J237500D01*
G01*
G37*
G36*
G01*
X146083001Y-114367501D02*
X146083001Y-113892501D01*
G75*
G02*
X146320501Y-113655001I237500J0D01*
G01*
X146820501Y-113655001D01*
G75*
G02*
X147058001Y-113892501I0J-237500D01*
G01*
X147058001Y-114367501D01*
G75*
G02*
X146820501Y-114605001I-237500J0D01*
G01*
X146320501Y-114605001D01*
G75*
G02*
X146083001Y-114367501I0J237500D01*
G01*
G37*
G36*
G01*
X141898000Y-117977500D02*
X141898000Y-118452500D01*
G75*
G02*
X141660500Y-118690000I-237500J0D01*
G01*
X141160500Y-118690000D01*
G75*
G02*
X140923000Y-118452500I0J237500D01*
G01*
X140923000Y-117977500D01*
G75*
G02*
X141160500Y-117740000I237500J0D01*
G01*
X141660500Y-117740000D01*
G75*
G02*
X141898000Y-117977500I0J-237500D01*
G01*
G37*
G36*
G01*
X140073000Y-117977500D02*
X140073000Y-118452500D01*
G75*
G02*
X139835500Y-118690000I-237500J0D01*
G01*
X139335500Y-118690000D01*
G75*
G02*
X139098000Y-118452500I0J237500D01*
G01*
X139098000Y-117977500D01*
G75*
G02*
X139335500Y-117740000I237500J0D01*
G01*
X139835500Y-117740000D01*
G75*
G02*
X140073000Y-117977500I0J-237500D01*
G01*
G37*
G36*
G01*
X169398000Y-87327500D02*
X169398000Y-87802500D01*
G75*
G02*
X169160500Y-88040000I-237500J0D01*
G01*
X168660500Y-88040000D01*
G75*
G02*
X168423000Y-87802500I0J237500D01*
G01*
X168423000Y-87327500D01*
G75*
G02*
X168660500Y-87090000I237500J0D01*
G01*
X169160500Y-87090000D01*
G75*
G02*
X169398000Y-87327500I0J-237500D01*
G01*
G37*
G36*
G01*
X167573000Y-87327500D02*
X167573000Y-87802500D01*
G75*
G02*
X167335500Y-88040000I-237500J0D01*
G01*
X166835500Y-88040000D01*
G75*
G02*
X166598000Y-87802500I0J237500D01*
G01*
X166598000Y-87327500D01*
G75*
G02*
X166835500Y-87090000I237500J0D01*
G01*
X167335500Y-87090000D01*
G75*
G02*
X167573000Y-87327500I0J-237500D01*
G01*
G37*
G36*
G01*
X167573000Y-85327500D02*
X167573000Y-85802500D01*
G75*
G02*
X167335500Y-86040000I-237500J0D01*
G01*
X166835500Y-86040000D01*
G75*
G02*
X166598000Y-85802500I0J237500D01*
G01*
X166598000Y-85327500D01*
G75*
G02*
X166835500Y-85090000I237500J0D01*
G01*
X167335500Y-85090000D01*
G75*
G02*
X167573000Y-85327500I0J-237500D01*
G01*
G37*
G36*
G01*
X169398000Y-85327500D02*
X169398000Y-85802500D01*
G75*
G02*
X169160500Y-86040000I-237500J0D01*
G01*
X168660500Y-86040000D01*
G75*
G02*
X168423000Y-85802500I0J237500D01*
G01*
X168423000Y-85327500D01*
G75*
G02*
X168660500Y-85090000I237500J0D01*
G01*
X169160500Y-85090000D01*
G75*
G02*
X169398000Y-85327500I0J-237500D01*
G01*
G37*
G36*
G01*
X148898000Y-111927500D02*
X148898000Y-112402500D01*
G75*
G02*
X148660500Y-112640000I-237500J0D01*
G01*
X148160500Y-112640000D01*
G75*
G02*
X147923000Y-112402500I0J237500D01*
G01*
X147923000Y-111927500D01*
G75*
G02*
X148160500Y-111690000I237500J0D01*
G01*
X148660500Y-111690000D01*
G75*
G02*
X148898000Y-111927500I0J-237500D01*
G01*
G37*
G36*
G01*
X147073000Y-111927500D02*
X147073000Y-112402500D01*
G75*
G02*
X146835500Y-112640000I-237500J0D01*
G01*
X146335500Y-112640000D01*
G75*
G02*
X146098000Y-112402500I0J237500D01*
G01*
X146098000Y-111927500D01*
G75*
G02*
X146335500Y-111690000I237500J0D01*
G01*
X146835500Y-111690000D01*
G75*
G02*
X147073000Y-111927500I0J-237500D01*
G01*
G37*
G36*
G01*
X201110500Y-102740000D02*
X201585500Y-102740000D01*
G75*
G02*
X201823000Y-102977500I0J-237500D01*
G01*
X201823000Y-103477500D01*
G75*
G02*
X201585500Y-103715000I-237500J0D01*
G01*
X201110500Y-103715000D01*
G75*
G02*
X200873000Y-103477500I0J237500D01*
G01*
X200873000Y-102977500D01*
G75*
G02*
X201110500Y-102740000I237500J0D01*
G01*
G37*
G36*
G01*
X201110500Y-100915000D02*
X201585500Y-100915000D01*
G75*
G02*
X201823000Y-101152500I0J-237500D01*
G01*
X201823000Y-101652500D01*
G75*
G02*
X201585500Y-101890000I-237500J0D01*
G01*
X201110500Y-101890000D01*
G75*
G02*
X200873000Y-101652500I0J237500D01*
G01*
X200873000Y-101152500D01*
G75*
G02*
X201110500Y-100915000I237500J0D01*
G01*
G37*
G36*
G01*
X168423000Y-83802500D02*
X168423000Y-83327500D01*
G75*
G02*
X168660500Y-83090000I237500J0D01*
G01*
X169160500Y-83090000D01*
G75*
G02*
X169398000Y-83327500I0J-237500D01*
G01*
X169398000Y-83802500D01*
G75*
G02*
X169160500Y-84040000I-237500J0D01*
G01*
X168660500Y-84040000D01*
G75*
G02*
X168423000Y-83802500I0J237500D01*
G01*
G37*
G36*
G01*
X166598000Y-83802500D02*
X166598000Y-83327500D01*
G75*
G02*
X166835500Y-83090000I237500J0D01*
G01*
X167335500Y-83090000D01*
G75*
G02*
X167573000Y-83327500I0J-237500D01*
G01*
X167573000Y-83802500D01*
G75*
G02*
X167335500Y-84040000I-237500J0D01*
G01*
X166835500Y-84040000D01*
G75*
G02*
X166598000Y-83802500I0J237500D01*
G01*
G37*
G36*
G01*
X162960500Y-71302500D02*
X163435500Y-71302500D01*
G75*
G02*
X163673000Y-71540000I0J-237500D01*
G01*
X163673000Y-72040000D01*
G75*
G02*
X163435500Y-72277500I-237500J0D01*
G01*
X162960500Y-72277500D01*
G75*
G02*
X162723000Y-72040000I0J237500D01*
G01*
X162723000Y-71540000D01*
G75*
G02*
X162960500Y-71302500I237500J0D01*
G01*
G37*
G36*
G01*
X162960500Y-69477500D02*
X163435500Y-69477500D01*
G75*
G02*
X163673000Y-69715000I0J-237500D01*
G01*
X163673000Y-70215000D01*
G75*
G02*
X163435500Y-70452500I-237500J0D01*
G01*
X162960500Y-70452500D01*
G75*
G02*
X162723000Y-70215000I0J237500D01*
G01*
X162723000Y-69715000D01*
G75*
G02*
X162960500Y-69477500I237500J0D01*
G01*
G37*
G36*
G01*
X184798000Y-101437501D02*
X184798000Y-100962501D01*
G75*
G02*
X185035500Y-100725001I237500J0D01*
G01*
X185535500Y-100725001D01*
G75*
G02*
X185773000Y-100962501I0J-237500D01*
G01*
X185773000Y-101437501D01*
G75*
G02*
X185535500Y-101675001I-237500J0D01*
G01*
X185035500Y-101675001D01*
G75*
G02*
X184798000Y-101437501I0J237500D01*
G01*
G37*
G36*
G01*
X186623000Y-101437501D02*
X186623000Y-100962501D01*
G75*
G02*
X186860500Y-100725001I237500J0D01*
G01*
X187360500Y-100725001D01*
G75*
G02*
X187598000Y-100962501I0J-237500D01*
G01*
X187598000Y-101437501D01*
G75*
G02*
X187360500Y-101675001I-237500J0D01*
G01*
X186860500Y-101675001D01*
G75*
G02*
X186623000Y-101437501I0J237500D01*
G01*
G37*
G36*
G01*
X186623000Y-103602500D02*
X186623000Y-103127500D01*
G75*
G02*
X186860500Y-102890000I237500J0D01*
G01*
X187360500Y-102890000D01*
G75*
G02*
X187598000Y-103127500I0J-237500D01*
G01*
X187598000Y-103602500D01*
G75*
G02*
X187360500Y-103840000I-237500J0D01*
G01*
X186860500Y-103840000D01*
G75*
G02*
X186623000Y-103602500I0J237500D01*
G01*
G37*
G36*
G01*
X184798000Y-103602500D02*
X184798000Y-103127500D01*
G75*
G02*
X185035500Y-102890000I237500J0D01*
G01*
X185535500Y-102890000D01*
G75*
G02*
X185773000Y-103127500I0J-237500D01*
G01*
X185773000Y-103602500D01*
G75*
G02*
X185535500Y-103840000I-237500J0D01*
G01*
X185035500Y-103840000D01*
G75*
G02*
X184798000Y-103602500I0J237500D01*
G01*
G37*
G36*
G01*
X132798000Y-81127500D02*
X132798000Y-81602500D01*
G75*
G02*
X132560500Y-81840000I-237500J0D01*
G01*
X132060500Y-81840000D01*
G75*
G02*
X131823000Y-81602500I0J237500D01*
G01*
X131823000Y-81127500D01*
G75*
G02*
X132060500Y-80890000I237500J0D01*
G01*
X132560500Y-80890000D01*
G75*
G02*
X132798000Y-81127500I0J-237500D01*
G01*
G37*
G36*
G01*
X130973000Y-81127500D02*
X130973000Y-81602500D01*
G75*
G02*
X130735500Y-81840000I-237500J0D01*
G01*
X130235500Y-81840000D01*
G75*
G02*
X129998000Y-81602500I0J237500D01*
G01*
X129998000Y-81127500D01*
G75*
G02*
X130235500Y-80890000I237500J0D01*
G01*
X130735500Y-80890000D01*
G75*
G02*
X130973000Y-81127500I0J-237500D01*
G01*
G37*
G36*
G01*
X133943834Y-67940000D02*
X134418834Y-67940000D01*
G75*
G02*
X134656334Y-68177500I0J-237500D01*
G01*
X134656334Y-68677500D01*
G75*
G02*
X134418834Y-68915000I-237500J0D01*
G01*
X133943834Y-68915000D01*
G75*
G02*
X133706334Y-68677500I0J237500D01*
G01*
X133706334Y-68177500D01*
G75*
G02*
X133943834Y-67940000I237500J0D01*
G01*
G37*
G36*
G01*
X133943834Y-66115000D02*
X134418834Y-66115000D01*
G75*
G02*
X134656334Y-66352500I0J-237500D01*
G01*
X134656334Y-66852500D01*
G75*
G02*
X134418834Y-67090000I-237500J0D01*
G01*
X133943834Y-67090000D01*
G75*
G02*
X133706334Y-66852500I0J237500D01*
G01*
X133706334Y-66352500D01*
G75*
G02*
X133943834Y-66115000I237500J0D01*
G01*
G37*
G36*
G01*
X136160500Y-66115000D02*
X136635500Y-66115000D01*
G75*
G02*
X136873000Y-66352500I0J-237500D01*
G01*
X136873000Y-66852500D01*
G75*
G02*
X136635500Y-67090000I-237500J0D01*
G01*
X136160500Y-67090000D01*
G75*
G02*
X135923000Y-66852500I0J237500D01*
G01*
X135923000Y-66352500D01*
G75*
G02*
X136160500Y-66115000I237500J0D01*
G01*
G37*
G36*
G01*
X136160500Y-67940000D02*
X136635500Y-67940000D01*
G75*
G02*
X136873000Y-68177500I0J-237500D01*
G01*
X136873000Y-68677500D01*
G75*
G02*
X136635500Y-68915000I-237500J0D01*
G01*
X136160500Y-68915000D01*
G75*
G02*
X135923000Y-68677500I0J237500D01*
G01*
X135923000Y-68177500D01*
G75*
G02*
X136160500Y-67940000I237500J0D01*
G01*
G37*
D18*
X131548000Y-70440000D03*
X122448000Y-70440000D03*
X131548000Y-65890000D03*
X122448000Y-65890000D03*
X151548000Y-48840000D03*
X142448000Y-48840000D03*
X151548000Y-44290000D03*
X142448000Y-44290000D03*
X154448000Y-83290000D03*
X163548000Y-83290000D03*
X154448000Y-87840000D03*
X163548000Y-87840000D03*
X163548000Y-95040000D03*
X154448000Y-95040000D03*
X163548000Y-90490000D03*
X154448000Y-90490000D03*
X154448000Y-76090000D03*
X163548000Y-76090000D03*
X154448000Y-80640000D03*
X163548000Y-80640000D03*
D19*
X122348000Y-115565000D03*
X122348000Y-110965000D03*
X122348000Y-113265000D03*
D20*
X116048000Y-113265000D03*
D19*
X122098000Y-104815000D03*
X122098000Y-100215000D03*
X122098000Y-102515000D03*
D20*
X115798000Y-102515000D03*
D21*
X126243000Y-54565000D03*
D22*
X118743000Y-62065000D03*
X120013000Y-62065000D03*
X121283000Y-62065000D03*
X122553000Y-62065000D03*
X123823000Y-62065000D03*
X125093000Y-62065000D03*
X126363000Y-62065000D03*
X127633000Y-62065000D03*
X128903000Y-62065000D03*
X130173000Y-62065000D03*
X131443000Y-62065000D03*
X132713000Y-62065000D03*
X133983000Y-62065000D03*
X135253000Y-62065000D03*
D23*
X136253000Y-59280000D03*
X136253000Y-58010000D03*
X136253000Y-56740000D03*
X136253000Y-55470000D03*
X136253000Y-54200000D03*
X136253000Y-52930000D03*
X136253000Y-51660000D03*
X136253000Y-50390000D03*
X136253000Y-49120000D03*
X136253000Y-47850000D03*
D22*
X135253000Y-45065000D03*
X133983000Y-45065000D03*
X132713000Y-45065000D03*
X131443000Y-45065000D03*
X130173000Y-45065000D03*
X128903000Y-45065000D03*
X127633000Y-45065000D03*
X126363000Y-45065000D03*
X125093000Y-45065000D03*
X123823000Y-45065000D03*
X122553000Y-45065000D03*
X121283000Y-45065000D03*
X120013000Y-45065000D03*
X118743000Y-45065000D03*
D24*
X137673850Y-112460000D03*
X137673850Y-113730000D03*
X137673850Y-115000000D03*
X137673850Y-116270000D03*
X143122150Y-116270000D03*
X143122150Y-115000000D03*
X143122150Y-113730000D03*
X143122150Y-112460000D03*
D25*
X177822499Y-89090001D03*
X177822499Y-89739999D03*
X177822499Y-90390001D03*
X177822499Y-91039999D03*
X177822499Y-91690001D03*
X177822499Y-92339999D03*
X177822499Y-92990001D03*
X177822499Y-93639999D03*
D26*
X179723001Y-95540501D03*
X180372999Y-95540501D03*
X181023001Y-95540501D03*
X181672999Y-95540501D03*
X182323001Y-95540501D03*
X182972999Y-95540501D03*
X183623001Y-95540501D03*
X184272999Y-95540501D03*
D25*
X186173501Y-93639999D03*
X186173501Y-92990001D03*
X186173501Y-92339999D03*
X186173501Y-91690001D03*
X186173501Y-91039999D03*
X186173501Y-90390001D03*
X186173501Y-89739999D03*
X186173501Y-89090001D03*
D26*
X184272999Y-87189499D03*
X183623001Y-87189499D03*
X182972999Y-87189499D03*
X182323001Y-87189499D03*
X181672999Y-87189499D03*
X181023001Y-87189499D03*
X180372999Y-87189499D03*
X179723001Y-87189499D03*
G36*
G01*
X193785500Y-102027500D02*
X193785500Y-101902500D01*
G75*
G02*
X193848000Y-101840000I62500J0D01*
G01*
X194548000Y-101840000D01*
G75*
G02*
X194610500Y-101902500I0J-62500D01*
G01*
X194610500Y-102027500D01*
G75*
G02*
X194548000Y-102090000I-62500J0D01*
G01*
X193848000Y-102090000D01*
G75*
G02*
X193785500Y-102027500I0J62500D01*
G01*
G37*
G36*
G01*
X193785500Y-102527500D02*
X193785500Y-102402500D01*
G75*
G02*
X193848000Y-102340000I62500J0D01*
G01*
X194548000Y-102340000D01*
G75*
G02*
X194610500Y-102402500I0J-62500D01*
G01*
X194610500Y-102527500D01*
G75*
G02*
X194548000Y-102590000I-62500J0D01*
G01*
X193848000Y-102590000D01*
G75*
G02*
X193785500Y-102527500I0J62500D01*
G01*
G37*
G36*
G01*
X193785500Y-103027500D02*
X193785500Y-102902500D01*
G75*
G02*
X193848000Y-102840000I62500J0D01*
G01*
X194548000Y-102840000D01*
G75*
G02*
X194610500Y-102902500I0J-62500D01*
G01*
X194610500Y-103027500D01*
G75*
G02*
X194548000Y-103090000I-62500J0D01*
G01*
X193848000Y-103090000D01*
G75*
G02*
X193785500Y-103027500I0J62500D01*
G01*
G37*
G36*
G01*
X193785500Y-103527500D02*
X193785500Y-103402500D01*
G75*
G02*
X193848000Y-103340000I62500J0D01*
G01*
X194548000Y-103340000D01*
G75*
G02*
X194610500Y-103402500I0J-62500D01*
G01*
X194610500Y-103527500D01*
G75*
G02*
X194548000Y-103590000I-62500J0D01*
G01*
X193848000Y-103590000D01*
G75*
G02*
X193785500Y-103527500I0J62500D01*
G01*
G37*
G36*
G01*
X193785500Y-104027500D02*
X193785500Y-103902500D01*
G75*
G02*
X193848000Y-103840000I62500J0D01*
G01*
X194548000Y-103840000D01*
G75*
G02*
X194610500Y-103902500I0J-62500D01*
G01*
X194610500Y-104027500D01*
G75*
G02*
X194548000Y-104090000I-62500J0D01*
G01*
X193848000Y-104090000D01*
G75*
G02*
X193785500Y-104027500I0J62500D01*
G01*
G37*
G36*
G01*
X193785500Y-104527500D02*
X193785500Y-104402500D01*
G75*
G02*
X193848000Y-104340000I62500J0D01*
G01*
X194548000Y-104340000D01*
G75*
G02*
X194610500Y-104402500I0J-62500D01*
G01*
X194610500Y-104527500D01*
G75*
G02*
X194548000Y-104590000I-62500J0D01*
G01*
X193848000Y-104590000D01*
G75*
G02*
X193785500Y-104527500I0J62500D01*
G01*
G37*
G36*
G01*
X194760500Y-105502500D02*
X194760500Y-104802500D01*
G75*
G02*
X194823000Y-104740000I62500J0D01*
G01*
X194948000Y-104740000D01*
G75*
G02*
X195010500Y-104802500I0J-62500D01*
G01*
X195010500Y-105502500D01*
G75*
G02*
X194948000Y-105565000I-62500J0D01*
G01*
X194823000Y-105565000D01*
G75*
G02*
X194760500Y-105502500I0J62500D01*
G01*
G37*
G36*
G01*
X195260500Y-105502500D02*
X195260500Y-104802500D01*
G75*
G02*
X195323000Y-104740000I62500J0D01*
G01*
X195448000Y-104740000D01*
G75*
G02*
X195510500Y-104802500I0J-62500D01*
G01*
X195510500Y-105502500D01*
G75*
G02*
X195448000Y-105565000I-62500J0D01*
G01*
X195323000Y-105565000D01*
G75*
G02*
X195260500Y-105502500I0J62500D01*
G01*
G37*
G36*
G01*
X195760500Y-105502500D02*
X195760500Y-104802500D01*
G75*
G02*
X195823000Y-104740000I62500J0D01*
G01*
X195948000Y-104740000D01*
G75*
G02*
X196010500Y-104802500I0J-62500D01*
G01*
X196010500Y-105502500D01*
G75*
G02*
X195948000Y-105565000I-62500J0D01*
G01*
X195823000Y-105565000D01*
G75*
G02*
X195760500Y-105502500I0J62500D01*
G01*
G37*
G36*
G01*
X196260500Y-105502500D02*
X196260500Y-104802500D01*
G75*
G02*
X196323000Y-104740000I62500J0D01*
G01*
X196448000Y-104740000D01*
G75*
G02*
X196510500Y-104802500I0J-62500D01*
G01*
X196510500Y-105502500D01*
G75*
G02*
X196448000Y-105565000I-62500J0D01*
G01*
X196323000Y-105565000D01*
G75*
G02*
X196260500Y-105502500I0J62500D01*
G01*
G37*
G36*
G01*
X196760500Y-105502500D02*
X196760500Y-104802500D01*
G75*
G02*
X196823000Y-104740000I62500J0D01*
G01*
X196948000Y-104740000D01*
G75*
G02*
X197010500Y-104802500I0J-62500D01*
G01*
X197010500Y-105502500D01*
G75*
G02*
X196948000Y-105565000I-62500J0D01*
G01*
X196823000Y-105565000D01*
G75*
G02*
X196760500Y-105502500I0J62500D01*
G01*
G37*
G36*
G01*
X197260500Y-105502500D02*
X197260500Y-104802500D01*
G75*
G02*
X197323000Y-104740000I62500J0D01*
G01*
X197448000Y-104740000D01*
G75*
G02*
X197510500Y-104802500I0J-62500D01*
G01*
X197510500Y-105502500D01*
G75*
G02*
X197448000Y-105565000I-62500J0D01*
G01*
X197323000Y-105565000D01*
G75*
G02*
X197260500Y-105502500I0J62500D01*
G01*
G37*
G36*
G01*
X197660500Y-104527500D02*
X197660500Y-104402500D01*
G75*
G02*
X197723000Y-104340000I62500J0D01*
G01*
X198423000Y-104340000D01*
G75*
G02*
X198485500Y-104402500I0J-62500D01*
G01*
X198485500Y-104527500D01*
G75*
G02*
X198423000Y-104590000I-62500J0D01*
G01*
X197723000Y-104590000D01*
G75*
G02*
X197660500Y-104527500I0J62500D01*
G01*
G37*
G36*
G01*
X197660500Y-104027500D02*
X197660500Y-103902500D01*
G75*
G02*
X197723000Y-103840000I62500J0D01*
G01*
X198423000Y-103840000D01*
G75*
G02*
X198485500Y-103902500I0J-62500D01*
G01*
X198485500Y-104027500D01*
G75*
G02*
X198423000Y-104090000I-62500J0D01*
G01*
X197723000Y-104090000D01*
G75*
G02*
X197660500Y-104027500I0J62500D01*
G01*
G37*
G36*
G01*
X197660500Y-103527500D02*
X197660500Y-103402500D01*
G75*
G02*
X197723000Y-103340000I62500J0D01*
G01*
X198423000Y-103340000D01*
G75*
G02*
X198485500Y-103402500I0J-62500D01*
G01*
X198485500Y-103527500D01*
G75*
G02*
X198423000Y-103590000I-62500J0D01*
G01*
X197723000Y-103590000D01*
G75*
G02*
X197660500Y-103527500I0J62500D01*
G01*
G37*
G36*
G01*
X197660500Y-103027500D02*
X197660500Y-102902500D01*
G75*
G02*
X197723000Y-102840000I62500J0D01*
G01*
X198423000Y-102840000D01*
G75*
G02*
X198485500Y-102902500I0J-62500D01*
G01*
X198485500Y-103027500D01*
G75*
G02*
X198423000Y-103090000I-62500J0D01*
G01*
X197723000Y-103090000D01*
G75*
G02*
X197660500Y-103027500I0J62500D01*
G01*
G37*
G36*
G01*
X197660500Y-102527500D02*
X197660500Y-102402500D01*
G75*
G02*
X197723000Y-102340000I62500J0D01*
G01*
X198423000Y-102340000D01*
G75*
G02*
X198485500Y-102402500I0J-62500D01*
G01*
X198485500Y-102527500D01*
G75*
G02*
X198423000Y-102590000I-62500J0D01*
G01*
X197723000Y-102590000D01*
G75*
G02*
X197660500Y-102527500I0J62500D01*
G01*
G37*
G36*
G01*
X197660500Y-102027500D02*
X197660500Y-101902500D01*
G75*
G02*
X197723000Y-101840000I62500J0D01*
G01*
X198423000Y-101840000D01*
G75*
G02*
X198485500Y-101902500I0J-62500D01*
G01*
X198485500Y-102027500D01*
G75*
G02*
X198423000Y-102090000I-62500J0D01*
G01*
X197723000Y-102090000D01*
G75*
G02*
X197660500Y-102027500I0J62500D01*
G01*
G37*
G36*
G01*
X197260500Y-101627500D02*
X197260500Y-100927500D01*
G75*
G02*
X197323000Y-100865000I62500J0D01*
G01*
X197448000Y-100865000D01*
G75*
G02*
X197510500Y-100927500I0J-62500D01*
G01*
X197510500Y-101627500D01*
G75*
G02*
X197448000Y-101690000I-62500J0D01*
G01*
X197323000Y-101690000D01*
G75*
G02*
X197260500Y-101627500I0J62500D01*
G01*
G37*
G36*
G01*
X196760500Y-101627500D02*
X196760500Y-100927500D01*
G75*
G02*
X196823000Y-100865000I62500J0D01*
G01*
X196948000Y-100865000D01*
G75*
G02*
X197010500Y-100927500I0J-62500D01*
G01*
X197010500Y-101627500D01*
G75*
G02*
X196948000Y-101690000I-62500J0D01*
G01*
X196823000Y-101690000D01*
G75*
G02*
X196760500Y-101627500I0J62500D01*
G01*
G37*
G36*
G01*
X196260500Y-101627500D02*
X196260500Y-100927500D01*
G75*
G02*
X196323000Y-100865000I62500J0D01*
G01*
X196448000Y-100865000D01*
G75*
G02*
X196510500Y-100927500I0J-62500D01*
G01*
X196510500Y-101627500D01*
G75*
G02*
X196448000Y-101690000I-62500J0D01*
G01*
X196323000Y-101690000D01*
G75*
G02*
X196260500Y-101627500I0J62500D01*
G01*
G37*
G36*
G01*
X195760500Y-101627500D02*
X195760500Y-100927500D01*
G75*
G02*
X195823000Y-100865000I62500J0D01*
G01*
X195948000Y-100865000D01*
G75*
G02*
X196010500Y-100927500I0J-62500D01*
G01*
X196010500Y-101627500D01*
G75*
G02*
X195948000Y-101690000I-62500J0D01*
G01*
X195823000Y-101690000D01*
G75*
G02*
X195760500Y-101627500I0J62500D01*
G01*
G37*
G36*
G01*
X195260500Y-101627500D02*
X195260500Y-100927500D01*
G75*
G02*
X195323000Y-100865000I62500J0D01*
G01*
X195448000Y-100865000D01*
G75*
G02*
X195510500Y-100927500I0J-62500D01*
G01*
X195510500Y-101627500D01*
G75*
G02*
X195448000Y-101690000I-62500J0D01*
G01*
X195323000Y-101690000D01*
G75*
G02*
X195260500Y-101627500I0J62500D01*
G01*
G37*
G36*
G01*
X194760500Y-101627500D02*
X194760500Y-100927500D01*
G75*
G02*
X194823000Y-100865000I62500J0D01*
G01*
X194948000Y-100865000D01*
G75*
G02*
X195010500Y-100927500I0J-62500D01*
G01*
X195010500Y-101627500D01*
G75*
G02*
X194948000Y-101690000I-62500J0D01*
G01*
X194823000Y-101690000D01*
G75*
G02*
X194760500Y-101627500I0J62500D01*
G01*
G37*
D27*
X196135500Y-103215000D03*
D20*
X115798000Y-92265000D03*
D19*
X122098000Y-92265000D03*
X122098000Y-89965000D03*
X122098000Y-94565000D03*
D27*
X127148000Y-76365000D03*
G36*
G01*
X128735500Y-74990000D02*
X129435500Y-74990000D01*
G75*
G02*
X129498000Y-75052500I0J-62500D01*
G01*
X129498000Y-75177500D01*
G75*
G02*
X129435500Y-75240000I-62500J0D01*
G01*
X128735500Y-75240000D01*
G75*
G02*
X128673000Y-75177500I0J62500D01*
G01*
X128673000Y-75052500D01*
G75*
G02*
X128735500Y-74990000I62500J0D01*
G01*
G37*
G36*
G01*
X128735500Y-75490000D02*
X129435500Y-75490000D01*
G75*
G02*
X129498000Y-75552500I0J-62500D01*
G01*
X129498000Y-75677500D01*
G75*
G02*
X129435500Y-75740000I-62500J0D01*
G01*
X128735500Y-75740000D01*
G75*
G02*
X128673000Y-75677500I0J62500D01*
G01*
X128673000Y-75552500D01*
G75*
G02*
X128735500Y-75490000I62500J0D01*
G01*
G37*
G36*
G01*
X128735500Y-75990000D02*
X129435500Y-75990000D01*
G75*
G02*
X129498000Y-76052500I0J-62500D01*
G01*
X129498000Y-76177500D01*
G75*
G02*
X129435500Y-76240000I-62500J0D01*
G01*
X128735500Y-76240000D01*
G75*
G02*
X128673000Y-76177500I0J62500D01*
G01*
X128673000Y-76052500D01*
G75*
G02*
X128735500Y-75990000I62500J0D01*
G01*
G37*
G36*
G01*
X128735500Y-76490000D02*
X129435500Y-76490000D01*
G75*
G02*
X129498000Y-76552500I0J-62500D01*
G01*
X129498000Y-76677500D01*
G75*
G02*
X129435500Y-76740000I-62500J0D01*
G01*
X128735500Y-76740000D01*
G75*
G02*
X128673000Y-76677500I0J62500D01*
G01*
X128673000Y-76552500D01*
G75*
G02*
X128735500Y-76490000I62500J0D01*
G01*
G37*
G36*
G01*
X128735500Y-76990000D02*
X129435500Y-76990000D01*
G75*
G02*
X129498000Y-77052500I0J-62500D01*
G01*
X129498000Y-77177500D01*
G75*
G02*
X129435500Y-77240000I-62500J0D01*
G01*
X128735500Y-77240000D01*
G75*
G02*
X128673000Y-77177500I0J62500D01*
G01*
X128673000Y-77052500D01*
G75*
G02*
X128735500Y-76990000I62500J0D01*
G01*
G37*
G36*
G01*
X128735500Y-77490000D02*
X129435500Y-77490000D01*
G75*
G02*
X129498000Y-77552500I0J-62500D01*
G01*
X129498000Y-77677500D01*
G75*
G02*
X129435500Y-77740000I-62500J0D01*
G01*
X128735500Y-77740000D01*
G75*
G02*
X128673000Y-77677500I0J62500D01*
G01*
X128673000Y-77552500D01*
G75*
G02*
X128735500Y-77490000I62500J0D01*
G01*
G37*
G36*
G01*
X128335500Y-77890000D02*
X128460500Y-77890000D01*
G75*
G02*
X128523000Y-77952500I0J-62500D01*
G01*
X128523000Y-78652500D01*
G75*
G02*
X128460500Y-78715000I-62500J0D01*
G01*
X128335500Y-78715000D01*
G75*
G02*
X128273000Y-78652500I0J62500D01*
G01*
X128273000Y-77952500D01*
G75*
G02*
X128335500Y-77890000I62500J0D01*
G01*
G37*
G36*
G01*
X127835500Y-77890000D02*
X127960500Y-77890000D01*
G75*
G02*
X128023000Y-77952500I0J-62500D01*
G01*
X128023000Y-78652500D01*
G75*
G02*
X127960500Y-78715000I-62500J0D01*
G01*
X127835500Y-78715000D01*
G75*
G02*
X127773000Y-78652500I0J62500D01*
G01*
X127773000Y-77952500D01*
G75*
G02*
X127835500Y-77890000I62500J0D01*
G01*
G37*
G36*
G01*
X127335500Y-77890000D02*
X127460500Y-77890000D01*
G75*
G02*
X127523000Y-77952500I0J-62500D01*
G01*
X127523000Y-78652500D01*
G75*
G02*
X127460500Y-78715000I-62500J0D01*
G01*
X127335500Y-78715000D01*
G75*
G02*
X127273000Y-78652500I0J62500D01*
G01*
X127273000Y-77952500D01*
G75*
G02*
X127335500Y-77890000I62500J0D01*
G01*
G37*
G36*
G01*
X126835500Y-77890000D02*
X126960500Y-77890000D01*
G75*
G02*
X127023000Y-77952500I0J-62500D01*
G01*
X127023000Y-78652500D01*
G75*
G02*
X126960500Y-78715000I-62500J0D01*
G01*
X126835500Y-78715000D01*
G75*
G02*
X126773000Y-78652500I0J62500D01*
G01*
X126773000Y-77952500D01*
G75*
G02*
X126835500Y-77890000I62500J0D01*
G01*
G37*
G36*
G01*
X126335500Y-77890000D02*
X126460500Y-77890000D01*
G75*
G02*
X126523000Y-77952500I0J-62500D01*
G01*
X126523000Y-78652500D01*
G75*
G02*
X126460500Y-78715000I-62500J0D01*
G01*
X126335500Y-78715000D01*
G75*
G02*
X126273000Y-78652500I0J62500D01*
G01*
X126273000Y-77952500D01*
G75*
G02*
X126335500Y-77890000I62500J0D01*
G01*
G37*
G36*
G01*
X125835500Y-77890000D02*
X125960500Y-77890000D01*
G75*
G02*
X126023000Y-77952500I0J-62500D01*
G01*
X126023000Y-78652500D01*
G75*
G02*
X125960500Y-78715000I-62500J0D01*
G01*
X125835500Y-78715000D01*
G75*
G02*
X125773000Y-78652500I0J62500D01*
G01*
X125773000Y-77952500D01*
G75*
G02*
X125835500Y-77890000I62500J0D01*
G01*
G37*
G36*
G01*
X124860500Y-77490000D02*
X125560500Y-77490000D01*
G75*
G02*
X125623000Y-77552500I0J-62500D01*
G01*
X125623000Y-77677500D01*
G75*
G02*
X125560500Y-77740000I-62500J0D01*
G01*
X124860500Y-77740000D01*
G75*
G02*
X124798000Y-77677500I0J62500D01*
G01*
X124798000Y-77552500D01*
G75*
G02*
X124860500Y-77490000I62500J0D01*
G01*
G37*
G36*
G01*
X124860500Y-76990000D02*
X125560500Y-76990000D01*
G75*
G02*
X125623000Y-77052500I0J-62500D01*
G01*
X125623000Y-77177500D01*
G75*
G02*
X125560500Y-77240000I-62500J0D01*
G01*
X124860500Y-77240000D01*
G75*
G02*
X124798000Y-77177500I0J62500D01*
G01*
X124798000Y-77052500D01*
G75*
G02*
X124860500Y-76990000I62500J0D01*
G01*
G37*
G36*
G01*
X124860500Y-76490000D02*
X125560500Y-76490000D01*
G75*
G02*
X125623000Y-76552500I0J-62500D01*
G01*
X125623000Y-76677500D01*
G75*
G02*
X125560500Y-76740000I-62500J0D01*
G01*
X124860500Y-76740000D01*
G75*
G02*
X124798000Y-76677500I0J62500D01*
G01*
X124798000Y-76552500D01*
G75*
G02*
X124860500Y-76490000I62500J0D01*
G01*
G37*
G36*
G01*
X124860500Y-75990000D02*
X125560500Y-75990000D01*
G75*
G02*
X125623000Y-76052500I0J-62500D01*
G01*
X125623000Y-76177500D01*
G75*
G02*
X125560500Y-76240000I-62500J0D01*
G01*
X124860500Y-76240000D01*
G75*
G02*
X124798000Y-76177500I0J62500D01*
G01*
X124798000Y-76052500D01*
G75*
G02*
X124860500Y-75990000I62500J0D01*
G01*
G37*
G36*
G01*
X124860500Y-75490000D02*
X125560500Y-75490000D01*
G75*
G02*
X125623000Y-75552500I0J-62500D01*
G01*
X125623000Y-75677500D01*
G75*
G02*
X125560500Y-75740000I-62500J0D01*
G01*
X124860500Y-75740000D01*
G75*
G02*
X124798000Y-75677500I0J62500D01*
G01*
X124798000Y-75552500D01*
G75*
G02*
X124860500Y-75490000I62500J0D01*
G01*
G37*
G36*
G01*
X124860500Y-74990000D02*
X125560500Y-74990000D01*
G75*
G02*
X125623000Y-75052500I0J-62500D01*
G01*
X125623000Y-75177500D01*
G75*
G02*
X125560500Y-75240000I-62500J0D01*
G01*
X124860500Y-75240000D01*
G75*
G02*
X124798000Y-75177500I0J62500D01*
G01*
X124798000Y-75052500D01*
G75*
G02*
X124860500Y-74990000I62500J0D01*
G01*
G37*
G36*
G01*
X125835500Y-74015000D02*
X125960500Y-74015000D01*
G75*
G02*
X126023000Y-74077500I0J-62500D01*
G01*
X126023000Y-74777500D01*
G75*
G02*
X125960500Y-74840000I-62500J0D01*
G01*
X125835500Y-74840000D01*
G75*
G02*
X125773000Y-74777500I0J62500D01*
G01*
X125773000Y-74077500D01*
G75*
G02*
X125835500Y-74015000I62500J0D01*
G01*
G37*
G36*
G01*
X126335500Y-74015000D02*
X126460500Y-74015000D01*
G75*
G02*
X126523000Y-74077500I0J-62500D01*
G01*
X126523000Y-74777500D01*
G75*
G02*
X126460500Y-74840000I-62500J0D01*
G01*
X126335500Y-74840000D01*
G75*
G02*
X126273000Y-74777500I0J62500D01*
G01*
X126273000Y-74077500D01*
G75*
G02*
X126335500Y-74015000I62500J0D01*
G01*
G37*
G36*
G01*
X126835500Y-74015000D02*
X126960500Y-74015000D01*
G75*
G02*
X127023000Y-74077500I0J-62500D01*
G01*
X127023000Y-74777500D01*
G75*
G02*
X126960500Y-74840000I-62500J0D01*
G01*
X126835500Y-74840000D01*
G75*
G02*
X126773000Y-74777500I0J62500D01*
G01*
X126773000Y-74077500D01*
G75*
G02*
X126835500Y-74015000I62500J0D01*
G01*
G37*
G36*
G01*
X127335500Y-74015000D02*
X127460500Y-74015000D01*
G75*
G02*
X127523000Y-74077500I0J-62500D01*
G01*
X127523000Y-74777500D01*
G75*
G02*
X127460500Y-74840000I-62500J0D01*
G01*
X127335500Y-74840000D01*
G75*
G02*
X127273000Y-74777500I0J62500D01*
G01*
X127273000Y-74077500D01*
G75*
G02*
X127335500Y-74015000I62500J0D01*
G01*
G37*
G36*
G01*
X127835500Y-74015000D02*
X127960500Y-74015000D01*
G75*
G02*
X128023000Y-74077500I0J-62500D01*
G01*
X128023000Y-74777500D01*
G75*
G02*
X127960500Y-74840000I-62500J0D01*
G01*
X127835500Y-74840000D01*
G75*
G02*
X127773000Y-74777500I0J62500D01*
G01*
X127773000Y-74077500D01*
G75*
G02*
X127835500Y-74015000I62500J0D01*
G01*
G37*
G36*
G01*
X128335500Y-74015000D02*
X128460500Y-74015000D01*
G75*
G02*
X128523000Y-74077500I0J-62500D01*
G01*
X128523000Y-74777500D01*
G75*
G02*
X128460500Y-74840000I-62500J0D01*
G01*
X128335500Y-74840000D01*
G75*
G02*
X128273000Y-74777500I0J62500D01*
G01*
X128273000Y-74077500D01*
G75*
G02*
X128335500Y-74015000I62500J0D01*
G01*
G37*
D28*
X196023000Y-76965000D03*
X192773000Y-76965000D03*
D29*
X152948000Y-112765000D03*
X152948000Y-114365000D03*
X152948000Y-115965000D03*
X157848000Y-115965000D03*
X157848000Y-114365000D03*
X157848000Y-112765000D03*
M02*
