%TF.GenerationSoftware,KiCad,Pcbnew,(5.1.12)-1*%
%TF.CreationDate,2022-03-24T21:15:54-05:00*%
%TF.ProjectId,Psoc-CTF,50736f63-2d43-4544-962e-6b696361645f,rev?*%
%TF.SameCoordinates,Original*%
%TF.FileFunction,Paste,Bot*%
%TF.FilePolarity,Positive*%
%FSLAX46Y46*%
G04 Gerber Fmt 4.6, Leading zero omitted, Abs format (unit mm)*
G04 Created by KiCad (PCBNEW (5.1.12)-1) date 2022-03-24 21:15:54*
%MOMM*%
%LPD*%
G01*
G04 APERTURE LIST*
%ADD10C,0.001000*%
%ADD11R,1.800000X3.500000*%
G04 APERTURE END LIST*
D10*
%TO.C,J12*%
G36*
X116998000Y-75002000D02*
G01*
X117398000Y-75002000D01*
X117410000Y-75002000D01*
X117422000Y-75003000D01*
X117433000Y-75005000D01*
X117445000Y-75007000D01*
X117456000Y-75010000D01*
X117468000Y-75013000D01*
X117479000Y-75017000D01*
X117490000Y-75021000D01*
X117500000Y-75027000D01*
X117510000Y-75032000D01*
X117521000Y-75038000D01*
X117530000Y-75045000D01*
X117540000Y-75052000D01*
X117549000Y-75060000D01*
X117557000Y-75068000D01*
X117565000Y-75076000D01*
X117573000Y-75085000D01*
X117580000Y-75095000D01*
X117587000Y-75104000D01*
X117593000Y-75115000D01*
X117598000Y-75125000D01*
X117604000Y-75135000D01*
X117608000Y-75146000D01*
X117612000Y-75157000D01*
X117615000Y-75169000D01*
X117618000Y-75180000D01*
X117620000Y-75192000D01*
X117622000Y-75203000D01*
X117623000Y-75215000D01*
X117623000Y-75227000D01*
X117623000Y-75239000D01*
X117622000Y-75251000D01*
X117620000Y-75262000D01*
X117618000Y-75274000D01*
X117615000Y-75285000D01*
X117612000Y-75297000D01*
X117608000Y-75308000D01*
X117604000Y-75319000D01*
X117598000Y-75329000D01*
X117593000Y-75339000D01*
X117587000Y-75350000D01*
X117580000Y-75359000D01*
X117573000Y-75369000D01*
X117565000Y-75378000D01*
X117557000Y-75386000D01*
X117549000Y-75394000D01*
X117540000Y-75402000D01*
X117530000Y-75409000D01*
X117521000Y-75416000D01*
X117511000Y-75422000D01*
X117500000Y-75427000D01*
X117490000Y-75433000D01*
X117479000Y-75437000D01*
X117468000Y-75441000D01*
X117456000Y-75444000D01*
X117445000Y-75447000D01*
X117433000Y-75449000D01*
X117422000Y-75451000D01*
X117410000Y-75452000D01*
X117398000Y-75452000D01*
X116998000Y-75452000D01*
X116998000Y-75752000D01*
X117353000Y-75752000D01*
X117385000Y-75752000D01*
X117414000Y-75751000D01*
X117442000Y-75748000D01*
X117471000Y-75744000D01*
X117499000Y-75738000D01*
X117527000Y-75731000D01*
X117554000Y-75723000D01*
X117581000Y-75713000D01*
X117607000Y-75701000D01*
X117633000Y-75688000D01*
X117658000Y-75674000D01*
X117682000Y-75659000D01*
X117705000Y-75642000D01*
X117728000Y-75624000D01*
X117749000Y-75605000D01*
X117770000Y-75585000D01*
X117789000Y-75564000D01*
X117807000Y-75542000D01*
X117824000Y-75519000D01*
X117840000Y-75495000D01*
X117855000Y-75470000D01*
X117868000Y-75445000D01*
X117880000Y-75419000D01*
X117890000Y-75392000D01*
X117900000Y-75365000D01*
X117907000Y-75337000D01*
X117913000Y-75309000D01*
X117918000Y-75281000D01*
X117921000Y-75252000D01*
X117923000Y-75227000D01*
X117922000Y-75200000D01*
X117920000Y-75172000D01*
X117917000Y-75145000D01*
X117912000Y-75118000D01*
X117905000Y-75091000D01*
X117897000Y-75065000D01*
X117888000Y-75039000D01*
X117878000Y-75013000D01*
X117866000Y-74989000D01*
X117853000Y-74964000D01*
X117838000Y-74941000D01*
X117823000Y-74918000D01*
X117806000Y-74897000D01*
X117788000Y-74876000D01*
X117769000Y-74856000D01*
X117749000Y-74837000D01*
X117728000Y-74819000D01*
X117707000Y-74802000D01*
X117684000Y-74787000D01*
X117660000Y-74772000D01*
X117636000Y-74759000D01*
X117612000Y-74747000D01*
X117586000Y-74737000D01*
X117560000Y-74728000D01*
X117534000Y-74720000D01*
X117507000Y-74713000D01*
X117480000Y-74708000D01*
X117453000Y-74705000D01*
X117425000Y-74703000D01*
X117398000Y-74702000D01*
X116998000Y-74702000D01*
X116998000Y-75002000D01*
G37*
X116998000Y-75002000D02*
X117398000Y-75002000D01*
X117410000Y-75002000D01*
X117422000Y-75003000D01*
X117433000Y-75005000D01*
X117445000Y-75007000D01*
X117456000Y-75010000D01*
X117468000Y-75013000D01*
X117479000Y-75017000D01*
X117490000Y-75021000D01*
X117500000Y-75027000D01*
X117510000Y-75032000D01*
X117521000Y-75038000D01*
X117530000Y-75045000D01*
X117540000Y-75052000D01*
X117549000Y-75060000D01*
X117557000Y-75068000D01*
X117565000Y-75076000D01*
X117573000Y-75085000D01*
X117580000Y-75095000D01*
X117587000Y-75104000D01*
X117593000Y-75115000D01*
X117598000Y-75125000D01*
X117604000Y-75135000D01*
X117608000Y-75146000D01*
X117612000Y-75157000D01*
X117615000Y-75169000D01*
X117618000Y-75180000D01*
X117620000Y-75192000D01*
X117622000Y-75203000D01*
X117623000Y-75215000D01*
X117623000Y-75227000D01*
X117623000Y-75239000D01*
X117622000Y-75251000D01*
X117620000Y-75262000D01*
X117618000Y-75274000D01*
X117615000Y-75285000D01*
X117612000Y-75297000D01*
X117608000Y-75308000D01*
X117604000Y-75319000D01*
X117598000Y-75329000D01*
X117593000Y-75339000D01*
X117587000Y-75350000D01*
X117580000Y-75359000D01*
X117573000Y-75369000D01*
X117565000Y-75378000D01*
X117557000Y-75386000D01*
X117549000Y-75394000D01*
X117540000Y-75402000D01*
X117530000Y-75409000D01*
X117521000Y-75416000D01*
X117511000Y-75422000D01*
X117500000Y-75427000D01*
X117490000Y-75433000D01*
X117479000Y-75437000D01*
X117468000Y-75441000D01*
X117456000Y-75444000D01*
X117445000Y-75447000D01*
X117433000Y-75449000D01*
X117422000Y-75451000D01*
X117410000Y-75452000D01*
X117398000Y-75452000D01*
X116998000Y-75452000D01*
X116998000Y-75752000D01*
X117353000Y-75752000D01*
X117385000Y-75752000D01*
X117414000Y-75751000D01*
X117442000Y-75748000D01*
X117471000Y-75744000D01*
X117499000Y-75738000D01*
X117527000Y-75731000D01*
X117554000Y-75723000D01*
X117581000Y-75713000D01*
X117607000Y-75701000D01*
X117633000Y-75688000D01*
X117658000Y-75674000D01*
X117682000Y-75659000D01*
X117705000Y-75642000D01*
X117728000Y-75624000D01*
X117749000Y-75605000D01*
X117770000Y-75585000D01*
X117789000Y-75564000D01*
X117807000Y-75542000D01*
X117824000Y-75519000D01*
X117840000Y-75495000D01*
X117855000Y-75470000D01*
X117868000Y-75445000D01*
X117880000Y-75419000D01*
X117890000Y-75392000D01*
X117900000Y-75365000D01*
X117907000Y-75337000D01*
X117913000Y-75309000D01*
X117918000Y-75281000D01*
X117921000Y-75252000D01*
X117923000Y-75227000D01*
X117922000Y-75200000D01*
X117920000Y-75172000D01*
X117917000Y-75145000D01*
X117912000Y-75118000D01*
X117905000Y-75091000D01*
X117897000Y-75065000D01*
X117888000Y-75039000D01*
X117878000Y-75013000D01*
X117866000Y-74989000D01*
X117853000Y-74964000D01*
X117838000Y-74941000D01*
X117823000Y-74918000D01*
X117806000Y-74897000D01*
X117788000Y-74876000D01*
X117769000Y-74856000D01*
X117749000Y-74837000D01*
X117728000Y-74819000D01*
X117707000Y-74802000D01*
X117684000Y-74787000D01*
X117660000Y-74772000D01*
X117636000Y-74759000D01*
X117612000Y-74747000D01*
X117586000Y-74737000D01*
X117560000Y-74728000D01*
X117534000Y-74720000D01*
X117507000Y-74713000D01*
X117480000Y-74708000D01*
X117453000Y-74705000D01*
X117425000Y-74703000D01*
X117398000Y-74702000D01*
X116998000Y-74702000D01*
X116998000Y-75002000D01*
G36*
X116998000Y-75452000D02*
G01*
X116598000Y-75452000D01*
X116586000Y-75452000D01*
X116574000Y-75451000D01*
X116563000Y-75449000D01*
X116551000Y-75447000D01*
X116540000Y-75444000D01*
X116528000Y-75441000D01*
X116517000Y-75437000D01*
X116506000Y-75433000D01*
X116496000Y-75427000D01*
X116485000Y-75422000D01*
X116475000Y-75416000D01*
X116466000Y-75409000D01*
X116456000Y-75402000D01*
X116447000Y-75394000D01*
X116439000Y-75386000D01*
X116431000Y-75378000D01*
X116423000Y-75369000D01*
X116416000Y-75359000D01*
X116409000Y-75350000D01*
X116403000Y-75339000D01*
X116398000Y-75329000D01*
X116392000Y-75319000D01*
X116388000Y-75308000D01*
X116384000Y-75297000D01*
X116381000Y-75285000D01*
X116378000Y-75274000D01*
X116376000Y-75262000D01*
X116374000Y-75251000D01*
X116373000Y-75239000D01*
X116373000Y-75227000D01*
X116373000Y-75215000D01*
X116374000Y-75203000D01*
X116376000Y-75192000D01*
X116378000Y-75180000D01*
X116381000Y-75169000D01*
X116384000Y-75157000D01*
X116388000Y-75146000D01*
X116392000Y-75135000D01*
X116398000Y-75125000D01*
X116403000Y-75115000D01*
X116409000Y-75104000D01*
X116416000Y-75095000D01*
X116423000Y-75085000D01*
X116431000Y-75076000D01*
X116439000Y-75068000D01*
X116447000Y-75060000D01*
X116456000Y-75052000D01*
X116466000Y-75045000D01*
X116475000Y-75038000D01*
X116486000Y-75032000D01*
X116496000Y-75027000D01*
X116506000Y-75021000D01*
X116517000Y-75017000D01*
X116528000Y-75013000D01*
X116540000Y-75010000D01*
X116551000Y-75007000D01*
X116563000Y-75005000D01*
X116574000Y-75003000D01*
X116586000Y-75002000D01*
X116598000Y-75002000D01*
X116998000Y-75002000D01*
X116998000Y-74702000D01*
X116643000Y-74702000D01*
X116611000Y-74702000D01*
X116582000Y-74703000D01*
X116554000Y-74706000D01*
X116525000Y-74710000D01*
X116497000Y-74716000D01*
X116469000Y-74723000D01*
X116442000Y-74731000D01*
X116415000Y-74741000D01*
X116389000Y-74753000D01*
X116363000Y-74766000D01*
X116338000Y-74780000D01*
X116314000Y-74795000D01*
X116291000Y-74812000D01*
X116268000Y-74830000D01*
X116247000Y-74849000D01*
X116226000Y-74869000D01*
X116207000Y-74890000D01*
X116189000Y-74912000D01*
X116172000Y-74935000D01*
X116156000Y-74959000D01*
X116141000Y-74984000D01*
X116128000Y-75009000D01*
X116116000Y-75035000D01*
X116106000Y-75062000D01*
X116096000Y-75089000D01*
X116089000Y-75117000D01*
X116083000Y-75145000D01*
X116078000Y-75173000D01*
X116075000Y-75202000D01*
X116073000Y-75227000D01*
X116074000Y-75254000D01*
X116076000Y-75282000D01*
X116079000Y-75309000D01*
X116084000Y-75336000D01*
X116091000Y-75363000D01*
X116099000Y-75389000D01*
X116108000Y-75415000D01*
X116118000Y-75441000D01*
X116130000Y-75465000D01*
X116143000Y-75490000D01*
X116158000Y-75513000D01*
X116173000Y-75536000D01*
X116190000Y-75557000D01*
X116208000Y-75578000D01*
X116227000Y-75598000D01*
X116247000Y-75617000D01*
X116268000Y-75635000D01*
X116289000Y-75652000D01*
X116312000Y-75667000D01*
X116335000Y-75682000D01*
X116360000Y-75695000D01*
X116384000Y-75707000D01*
X116410000Y-75717000D01*
X116436000Y-75726000D01*
X116462000Y-75734000D01*
X116489000Y-75741000D01*
X116516000Y-75746000D01*
X116543000Y-75749000D01*
X116571000Y-75751000D01*
X116598000Y-75752000D01*
X116998000Y-75752000D01*
X116998000Y-75452000D01*
G37*
X116998000Y-75452000D02*
X116598000Y-75452000D01*
X116586000Y-75452000D01*
X116574000Y-75451000D01*
X116563000Y-75449000D01*
X116551000Y-75447000D01*
X116540000Y-75444000D01*
X116528000Y-75441000D01*
X116517000Y-75437000D01*
X116506000Y-75433000D01*
X116496000Y-75427000D01*
X116485000Y-75422000D01*
X116475000Y-75416000D01*
X116466000Y-75409000D01*
X116456000Y-75402000D01*
X116447000Y-75394000D01*
X116439000Y-75386000D01*
X116431000Y-75378000D01*
X116423000Y-75369000D01*
X116416000Y-75359000D01*
X116409000Y-75350000D01*
X116403000Y-75339000D01*
X116398000Y-75329000D01*
X116392000Y-75319000D01*
X116388000Y-75308000D01*
X116384000Y-75297000D01*
X116381000Y-75285000D01*
X116378000Y-75274000D01*
X116376000Y-75262000D01*
X116374000Y-75251000D01*
X116373000Y-75239000D01*
X116373000Y-75227000D01*
X116373000Y-75215000D01*
X116374000Y-75203000D01*
X116376000Y-75192000D01*
X116378000Y-75180000D01*
X116381000Y-75169000D01*
X116384000Y-75157000D01*
X116388000Y-75146000D01*
X116392000Y-75135000D01*
X116398000Y-75125000D01*
X116403000Y-75115000D01*
X116409000Y-75104000D01*
X116416000Y-75095000D01*
X116423000Y-75085000D01*
X116431000Y-75076000D01*
X116439000Y-75068000D01*
X116447000Y-75060000D01*
X116456000Y-75052000D01*
X116466000Y-75045000D01*
X116475000Y-75038000D01*
X116486000Y-75032000D01*
X116496000Y-75027000D01*
X116506000Y-75021000D01*
X116517000Y-75017000D01*
X116528000Y-75013000D01*
X116540000Y-75010000D01*
X116551000Y-75007000D01*
X116563000Y-75005000D01*
X116574000Y-75003000D01*
X116586000Y-75002000D01*
X116598000Y-75002000D01*
X116998000Y-75002000D01*
X116998000Y-74702000D01*
X116643000Y-74702000D01*
X116611000Y-74702000D01*
X116582000Y-74703000D01*
X116554000Y-74706000D01*
X116525000Y-74710000D01*
X116497000Y-74716000D01*
X116469000Y-74723000D01*
X116442000Y-74731000D01*
X116415000Y-74741000D01*
X116389000Y-74753000D01*
X116363000Y-74766000D01*
X116338000Y-74780000D01*
X116314000Y-74795000D01*
X116291000Y-74812000D01*
X116268000Y-74830000D01*
X116247000Y-74849000D01*
X116226000Y-74869000D01*
X116207000Y-74890000D01*
X116189000Y-74912000D01*
X116172000Y-74935000D01*
X116156000Y-74959000D01*
X116141000Y-74984000D01*
X116128000Y-75009000D01*
X116116000Y-75035000D01*
X116106000Y-75062000D01*
X116096000Y-75089000D01*
X116089000Y-75117000D01*
X116083000Y-75145000D01*
X116078000Y-75173000D01*
X116075000Y-75202000D01*
X116073000Y-75227000D01*
X116074000Y-75254000D01*
X116076000Y-75282000D01*
X116079000Y-75309000D01*
X116084000Y-75336000D01*
X116091000Y-75363000D01*
X116099000Y-75389000D01*
X116108000Y-75415000D01*
X116118000Y-75441000D01*
X116130000Y-75465000D01*
X116143000Y-75490000D01*
X116158000Y-75513000D01*
X116173000Y-75536000D01*
X116190000Y-75557000D01*
X116208000Y-75578000D01*
X116227000Y-75598000D01*
X116247000Y-75617000D01*
X116268000Y-75635000D01*
X116289000Y-75652000D01*
X116312000Y-75667000D01*
X116335000Y-75682000D01*
X116360000Y-75695000D01*
X116384000Y-75707000D01*
X116410000Y-75717000D01*
X116436000Y-75726000D01*
X116462000Y-75734000D01*
X116489000Y-75741000D01*
X116516000Y-75746000D01*
X116543000Y-75749000D01*
X116571000Y-75751000D01*
X116598000Y-75752000D01*
X116998000Y-75752000D01*
X116998000Y-75452000D01*
G36*
X116998000Y-75001000D02*
G01*
X117398000Y-75001000D01*
X117410000Y-75001000D01*
X117422000Y-75002000D01*
X117433000Y-75004000D01*
X117445000Y-75006000D01*
X117456000Y-75009000D01*
X117468000Y-75012000D01*
X117479000Y-75016000D01*
X117490000Y-75020000D01*
X117500000Y-75026000D01*
X117511000Y-75031000D01*
X117521000Y-75037000D01*
X117530000Y-75044000D01*
X117540000Y-75051000D01*
X117549000Y-75059000D01*
X117557000Y-75067000D01*
X117565000Y-75075000D01*
X117573000Y-75084000D01*
X117580000Y-75094000D01*
X117587000Y-75103000D01*
X117593000Y-75113000D01*
X117598000Y-75124000D01*
X117604000Y-75134000D01*
X117608000Y-75145000D01*
X117612000Y-75156000D01*
X117615000Y-75168000D01*
X117618000Y-75179000D01*
X117620000Y-75191000D01*
X117622000Y-75202000D01*
X117623000Y-75214000D01*
X117623000Y-75226000D01*
X117623000Y-75238000D01*
X117622000Y-75250000D01*
X117620000Y-75261000D01*
X117618000Y-75273000D01*
X117615000Y-75284000D01*
X117612000Y-75296000D01*
X117608000Y-75307000D01*
X117604000Y-75318000D01*
X117598000Y-75328000D01*
X117593000Y-75338000D01*
X117587000Y-75349000D01*
X117580000Y-75358000D01*
X117573000Y-75368000D01*
X117565000Y-75377000D01*
X117557000Y-75385000D01*
X117549000Y-75393000D01*
X117540000Y-75401000D01*
X117530000Y-75408000D01*
X117521000Y-75415000D01*
X117510000Y-75421000D01*
X117500000Y-75426000D01*
X117490000Y-75432000D01*
X117479000Y-75436000D01*
X117468000Y-75440000D01*
X117456000Y-75443000D01*
X117445000Y-75446000D01*
X117433000Y-75448000D01*
X117422000Y-75450000D01*
X117410000Y-75451000D01*
X117398000Y-75451000D01*
X116998000Y-75451000D01*
X116998000Y-75751000D01*
X117348000Y-75751000D01*
X117373000Y-75752000D01*
X117402000Y-75751000D01*
X117431000Y-75749000D01*
X117459000Y-75745000D01*
X117487000Y-75740000D01*
X117515000Y-75733000D01*
X117543000Y-75725000D01*
X117570000Y-75715000D01*
X117597000Y-75704000D01*
X117623000Y-75692000D01*
X117648000Y-75678000D01*
X117673000Y-75663000D01*
X117697000Y-75646000D01*
X117719000Y-75629000D01*
X117741000Y-75610000D01*
X117762000Y-75590000D01*
X117782000Y-75569000D01*
X117801000Y-75547000D01*
X117818000Y-75525000D01*
X117835000Y-75501000D01*
X117850000Y-75476000D01*
X117864000Y-75451000D01*
X117876000Y-75425000D01*
X117887000Y-75398000D01*
X117897000Y-75371000D01*
X117905000Y-75343000D01*
X117912000Y-75315000D01*
X117917000Y-75287000D01*
X117921000Y-75259000D01*
X117923000Y-75226000D01*
X117922000Y-75199000D01*
X117920000Y-75171000D01*
X117917000Y-75144000D01*
X117912000Y-75117000D01*
X117905000Y-75090000D01*
X117897000Y-75064000D01*
X117888000Y-75038000D01*
X117878000Y-75012000D01*
X117866000Y-74988000D01*
X117853000Y-74964000D01*
X117838000Y-74940000D01*
X117823000Y-74917000D01*
X117806000Y-74896000D01*
X117788000Y-74875000D01*
X117769000Y-74855000D01*
X117749000Y-74836000D01*
X117728000Y-74818000D01*
X117707000Y-74801000D01*
X117684000Y-74786000D01*
X117661000Y-74771000D01*
X117636000Y-74758000D01*
X117612000Y-74746000D01*
X117586000Y-74736000D01*
X117560000Y-74727000D01*
X117534000Y-74719000D01*
X117507000Y-74712000D01*
X117480000Y-74707000D01*
X117453000Y-74704000D01*
X117425000Y-74702000D01*
X117398000Y-74701000D01*
X116998000Y-74701000D01*
X116998000Y-75001000D01*
G37*
X116998000Y-75001000D02*
X117398000Y-75001000D01*
X117410000Y-75001000D01*
X117422000Y-75002000D01*
X117433000Y-75004000D01*
X117445000Y-75006000D01*
X117456000Y-75009000D01*
X117468000Y-75012000D01*
X117479000Y-75016000D01*
X117490000Y-75020000D01*
X117500000Y-75026000D01*
X117511000Y-75031000D01*
X117521000Y-75037000D01*
X117530000Y-75044000D01*
X117540000Y-75051000D01*
X117549000Y-75059000D01*
X117557000Y-75067000D01*
X117565000Y-75075000D01*
X117573000Y-75084000D01*
X117580000Y-75094000D01*
X117587000Y-75103000D01*
X117593000Y-75113000D01*
X117598000Y-75124000D01*
X117604000Y-75134000D01*
X117608000Y-75145000D01*
X117612000Y-75156000D01*
X117615000Y-75168000D01*
X117618000Y-75179000D01*
X117620000Y-75191000D01*
X117622000Y-75202000D01*
X117623000Y-75214000D01*
X117623000Y-75226000D01*
X117623000Y-75238000D01*
X117622000Y-75250000D01*
X117620000Y-75261000D01*
X117618000Y-75273000D01*
X117615000Y-75284000D01*
X117612000Y-75296000D01*
X117608000Y-75307000D01*
X117604000Y-75318000D01*
X117598000Y-75328000D01*
X117593000Y-75338000D01*
X117587000Y-75349000D01*
X117580000Y-75358000D01*
X117573000Y-75368000D01*
X117565000Y-75377000D01*
X117557000Y-75385000D01*
X117549000Y-75393000D01*
X117540000Y-75401000D01*
X117530000Y-75408000D01*
X117521000Y-75415000D01*
X117510000Y-75421000D01*
X117500000Y-75426000D01*
X117490000Y-75432000D01*
X117479000Y-75436000D01*
X117468000Y-75440000D01*
X117456000Y-75443000D01*
X117445000Y-75446000D01*
X117433000Y-75448000D01*
X117422000Y-75450000D01*
X117410000Y-75451000D01*
X117398000Y-75451000D01*
X116998000Y-75451000D01*
X116998000Y-75751000D01*
X117348000Y-75751000D01*
X117373000Y-75752000D01*
X117402000Y-75751000D01*
X117431000Y-75749000D01*
X117459000Y-75745000D01*
X117487000Y-75740000D01*
X117515000Y-75733000D01*
X117543000Y-75725000D01*
X117570000Y-75715000D01*
X117597000Y-75704000D01*
X117623000Y-75692000D01*
X117648000Y-75678000D01*
X117673000Y-75663000D01*
X117697000Y-75646000D01*
X117719000Y-75629000D01*
X117741000Y-75610000D01*
X117762000Y-75590000D01*
X117782000Y-75569000D01*
X117801000Y-75547000D01*
X117818000Y-75525000D01*
X117835000Y-75501000D01*
X117850000Y-75476000D01*
X117864000Y-75451000D01*
X117876000Y-75425000D01*
X117887000Y-75398000D01*
X117897000Y-75371000D01*
X117905000Y-75343000D01*
X117912000Y-75315000D01*
X117917000Y-75287000D01*
X117921000Y-75259000D01*
X117923000Y-75226000D01*
X117922000Y-75199000D01*
X117920000Y-75171000D01*
X117917000Y-75144000D01*
X117912000Y-75117000D01*
X117905000Y-75090000D01*
X117897000Y-75064000D01*
X117888000Y-75038000D01*
X117878000Y-75012000D01*
X117866000Y-74988000D01*
X117853000Y-74964000D01*
X117838000Y-74940000D01*
X117823000Y-74917000D01*
X117806000Y-74896000D01*
X117788000Y-74875000D01*
X117769000Y-74855000D01*
X117749000Y-74836000D01*
X117728000Y-74818000D01*
X117707000Y-74801000D01*
X117684000Y-74786000D01*
X117661000Y-74771000D01*
X117636000Y-74758000D01*
X117612000Y-74746000D01*
X117586000Y-74736000D01*
X117560000Y-74727000D01*
X117534000Y-74719000D01*
X117507000Y-74712000D01*
X117480000Y-74707000D01*
X117453000Y-74704000D01*
X117425000Y-74702000D01*
X117398000Y-74701000D01*
X116998000Y-74701000D01*
X116998000Y-75001000D01*
G36*
X116998000Y-75451000D02*
G01*
X116598000Y-75451000D01*
X116586000Y-75451000D01*
X116574000Y-75450000D01*
X116563000Y-75448000D01*
X116551000Y-75446000D01*
X116540000Y-75443000D01*
X116528000Y-75440000D01*
X116517000Y-75436000D01*
X116506000Y-75432000D01*
X116496000Y-75426000D01*
X116486000Y-75421000D01*
X116475000Y-75415000D01*
X116466000Y-75408000D01*
X116456000Y-75401000D01*
X116447000Y-75393000D01*
X116439000Y-75385000D01*
X116431000Y-75377000D01*
X116423000Y-75368000D01*
X116416000Y-75358000D01*
X116409000Y-75349000D01*
X116403000Y-75338000D01*
X116398000Y-75328000D01*
X116392000Y-75318000D01*
X116388000Y-75307000D01*
X116384000Y-75296000D01*
X116381000Y-75284000D01*
X116378000Y-75273000D01*
X116376000Y-75261000D01*
X116374000Y-75250000D01*
X116373000Y-75238000D01*
X116373000Y-75226000D01*
X116373000Y-75214000D01*
X116374000Y-75202000D01*
X116376000Y-75191000D01*
X116378000Y-75179000D01*
X116381000Y-75168000D01*
X116384000Y-75156000D01*
X116388000Y-75145000D01*
X116392000Y-75134000D01*
X116398000Y-75124000D01*
X116403000Y-75113000D01*
X116409000Y-75103000D01*
X116416000Y-75094000D01*
X116423000Y-75084000D01*
X116431000Y-75075000D01*
X116439000Y-75067000D01*
X116447000Y-75059000D01*
X116456000Y-75051000D01*
X116466000Y-75044000D01*
X116475000Y-75037000D01*
X116485000Y-75031000D01*
X116496000Y-75026000D01*
X116506000Y-75020000D01*
X116517000Y-75016000D01*
X116528000Y-75012000D01*
X116540000Y-75009000D01*
X116551000Y-75006000D01*
X116563000Y-75004000D01*
X116574000Y-75002000D01*
X116586000Y-75001000D01*
X116598000Y-75001000D01*
X116998000Y-75001000D01*
X116998000Y-74701000D01*
X116648000Y-74701000D01*
X116623000Y-74700000D01*
X116594000Y-74701000D01*
X116565000Y-74703000D01*
X116537000Y-74707000D01*
X116509000Y-74712000D01*
X116481000Y-74719000D01*
X116453000Y-74727000D01*
X116426000Y-74737000D01*
X116399000Y-74748000D01*
X116373000Y-74760000D01*
X116348000Y-74774000D01*
X116323000Y-74789000D01*
X116299000Y-74806000D01*
X116277000Y-74823000D01*
X116255000Y-74842000D01*
X116234000Y-74862000D01*
X116214000Y-74883000D01*
X116195000Y-74905000D01*
X116178000Y-74927000D01*
X116161000Y-74951000D01*
X116146000Y-74976000D01*
X116132000Y-75001000D01*
X116120000Y-75027000D01*
X116109000Y-75054000D01*
X116099000Y-75081000D01*
X116091000Y-75109000D01*
X116084000Y-75137000D01*
X116079000Y-75165000D01*
X116075000Y-75193000D01*
X116073000Y-75226000D01*
X116074000Y-75253000D01*
X116076000Y-75281000D01*
X116079000Y-75308000D01*
X116084000Y-75335000D01*
X116091000Y-75362000D01*
X116099000Y-75388000D01*
X116108000Y-75414000D01*
X116118000Y-75440000D01*
X116130000Y-75464000D01*
X116143000Y-75488000D01*
X116158000Y-75512000D01*
X116173000Y-75535000D01*
X116190000Y-75556000D01*
X116208000Y-75577000D01*
X116227000Y-75597000D01*
X116247000Y-75616000D01*
X116268000Y-75634000D01*
X116289000Y-75651000D01*
X116312000Y-75666000D01*
X116336000Y-75681000D01*
X116360000Y-75694000D01*
X116384000Y-75706000D01*
X116410000Y-75716000D01*
X116436000Y-75725000D01*
X116462000Y-75733000D01*
X116489000Y-75740000D01*
X116516000Y-75745000D01*
X116543000Y-75748000D01*
X116571000Y-75750000D01*
X116598000Y-75751000D01*
X116998000Y-75751000D01*
X116998000Y-75451000D01*
G37*
X116998000Y-75451000D02*
X116598000Y-75451000D01*
X116586000Y-75451000D01*
X116574000Y-75450000D01*
X116563000Y-75448000D01*
X116551000Y-75446000D01*
X116540000Y-75443000D01*
X116528000Y-75440000D01*
X116517000Y-75436000D01*
X116506000Y-75432000D01*
X116496000Y-75426000D01*
X116486000Y-75421000D01*
X116475000Y-75415000D01*
X116466000Y-75408000D01*
X116456000Y-75401000D01*
X116447000Y-75393000D01*
X116439000Y-75385000D01*
X116431000Y-75377000D01*
X116423000Y-75368000D01*
X116416000Y-75358000D01*
X116409000Y-75349000D01*
X116403000Y-75338000D01*
X116398000Y-75328000D01*
X116392000Y-75318000D01*
X116388000Y-75307000D01*
X116384000Y-75296000D01*
X116381000Y-75284000D01*
X116378000Y-75273000D01*
X116376000Y-75261000D01*
X116374000Y-75250000D01*
X116373000Y-75238000D01*
X116373000Y-75226000D01*
X116373000Y-75214000D01*
X116374000Y-75202000D01*
X116376000Y-75191000D01*
X116378000Y-75179000D01*
X116381000Y-75168000D01*
X116384000Y-75156000D01*
X116388000Y-75145000D01*
X116392000Y-75134000D01*
X116398000Y-75124000D01*
X116403000Y-75113000D01*
X116409000Y-75103000D01*
X116416000Y-75094000D01*
X116423000Y-75084000D01*
X116431000Y-75075000D01*
X116439000Y-75067000D01*
X116447000Y-75059000D01*
X116456000Y-75051000D01*
X116466000Y-75044000D01*
X116475000Y-75037000D01*
X116485000Y-75031000D01*
X116496000Y-75026000D01*
X116506000Y-75020000D01*
X116517000Y-75016000D01*
X116528000Y-75012000D01*
X116540000Y-75009000D01*
X116551000Y-75006000D01*
X116563000Y-75004000D01*
X116574000Y-75002000D01*
X116586000Y-75001000D01*
X116598000Y-75001000D01*
X116998000Y-75001000D01*
X116998000Y-74701000D01*
X116648000Y-74701000D01*
X116623000Y-74700000D01*
X116594000Y-74701000D01*
X116565000Y-74703000D01*
X116537000Y-74707000D01*
X116509000Y-74712000D01*
X116481000Y-74719000D01*
X116453000Y-74727000D01*
X116426000Y-74737000D01*
X116399000Y-74748000D01*
X116373000Y-74760000D01*
X116348000Y-74774000D01*
X116323000Y-74789000D01*
X116299000Y-74806000D01*
X116277000Y-74823000D01*
X116255000Y-74842000D01*
X116234000Y-74862000D01*
X116214000Y-74883000D01*
X116195000Y-74905000D01*
X116178000Y-74927000D01*
X116161000Y-74951000D01*
X116146000Y-74976000D01*
X116132000Y-75001000D01*
X116120000Y-75027000D01*
X116109000Y-75054000D01*
X116099000Y-75081000D01*
X116091000Y-75109000D01*
X116084000Y-75137000D01*
X116079000Y-75165000D01*
X116075000Y-75193000D01*
X116073000Y-75226000D01*
X116074000Y-75253000D01*
X116076000Y-75281000D01*
X116079000Y-75308000D01*
X116084000Y-75335000D01*
X116091000Y-75362000D01*
X116099000Y-75388000D01*
X116108000Y-75414000D01*
X116118000Y-75440000D01*
X116130000Y-75464000D01*
X116143000Y-75488000D01*
X116158000Y-75512000D01*
X116173000Y-75535000D01*
X116190000Y-75556000D01*
X116208000Y-75577000D01*
X116227000Y-75597000D01*
X116247000Y-75616000D01*
X116268000Y-75634000D01*
X116289000Y-75651000D01*
X116312000Y-75666000D01*
X116336000Y-75681000D01*
X116360000Y-75694000D01*
X116384000Y-75706000D01*
X116410000Y-75716000D01*
X116436000Y-75725000D01*
X116462000Y-75733000D01*
X116489000Y-75740000D01*
X116516000Y-75745000D01*
X116543000Y-75748000D01*
X116571000Y-75750000D01*
X116598000Y-75751000D01*
X116998000Y-75751000D01*
X116998000Y-75451000D01*
G36*
X116998000Y-82152000D02*
G01*
X117398000Y-82152000D01*
X117410000Y-82152000D01*
X117422000Y-82153000D01*
X117433000Y-82155000D01*
X117445000Y-82157000D01*
X117456000Y-82160000D01*
X117468000Y-82163000D01*
X117479000Y-82167000D01*
X117490000Y-82171000D01*
X117500000Y-82177000D01*
X117510000Y-82182000D01*
X117521000Y-82188000D01*
X117530000Y-82195000D01*
X117540000Y-82202000D01*
X117549000Y-82210000D01*
X117557000Y-82218000D01*
X117565000Y-82226000D01*
X117573000Y-82235000D01*
X117580000Y-82245000D01*
X117587000Y-82254000D01*
X117593000Y-82264000D01*
X117598000Y-82275000D01*
X117604000Y-82285000D01*
X117608000Y-82296000D01*
X117612000Y-82307000D01*
X117615000Y-82319000D01*
X117618000Y-82330000D01*
X117620000Y-82342000D01*
X117622000Y-82353000D01*
X117623000Y-82365000D01*
X117623000Y-82377000D01*
X117623000Y-82389000D01*
X117622000Y-82401000D01*
X117620000Y-82412000D01*
X117618000Y-82424000D01*
X117615000Y-82435000D01*
X117612000Y-82447000D01*
X117608000Y-82458000D01*
X117604000Y-82469000D01*
X117598000Y-82479000D01*
X117593000Y-82490000D01*
X117587000Y-82500000D01*
X117580000Y-82509000D01*
X117573000Y-82519000D01*
X117565000Y-82528000D01*
X117557000Y-82536000D01*
X117549000Y-82544000D01*
X117540000Y-82552000D01*
X117530000Y-82559000D01*
X117521000Y-82566000D01*
X117510000Y-82572000D01*
X117500000Y-82577000D01*
X117490000Y-82583000D01*
X117479000Y-82587000D01*
X117468000Y-82591000D01*
X117456000Y-82594000D01*
X117445000Y-82597000D01*
X117433000Y-82599000D01*
X117422000Y-82601000D01*
X117410000Y-82602000D01*
X117398000Y-82602000D01*
X116998000Y-82602000D01*
X116998000Y-82902000D01*
X117353000Y-82902000D01*
X117385000Y-82902000D01*
X117414000Y-82901000D01*
X117442000Y-82898000D01*
X117471000Y-82894000D01*
X117499000Y-82888000D01*
X117527000Y-82881000D01*
X117554000Y-82873000D01*
X117581000Y-82863000D01*
X117607000Y-82851000D01*
X117633000Y-82838000D01*
X117658000Y-82824000D01*
X117682000Y-82809000D01*
X117705000Y-82792000D01*
X117728000Y-82774000D01*
X117749000Y-82755000D01*
X117770000Y-82735000D01*
X117789000Y-82714000D01*
X117807000Y-82692000D01*
X117824000Y-82669000D01*
X117840000Y-82645000D01*
X117855000Y-82620000D01*
X117868000Y-82595000D01*
X117880000Y-82569000D01*
X117890000Y-82542000D01*
X117900000Y-82515000D01*
X117907000Y-82487000D01*
X117913000Y-82459000D01*
X117918000Y-82431000D01*
X117921000Y-82402000D01*
X117923000Y-82377000D01*
X117922000Y-82350000D01*
X117920000Y-82322000D01*
X117917000Y-82295000D01*
X117912000Y-82268000D01*
X117905000Y-82241000D01*
X117897000Y-82215000D01*
X117888000Y-82189000D01*
X117878000Y-82163000D01*
X117866000Y-82139000D01*
X117853000Y-82115000D01*
X117838000Y-82091000D01*
X117823000Y-82068000D01*
X117806000Y-82047000D01*
X117788000Y-82026000D01*
X117769000Y-82006000D01*
X117749000Y-81987000D01*
X117728000Y-81969000D01*
X117707000Y-81952000D01*
X117684000Y-81937000D01*
X117661000Y-81922000D01*
X117636000Y-81909000D01*
X117612000Y-81897000D01*
X117586000Y-81887000D01*
X117560000Y-81878000D01*
X117534000Y-81870000D01*
X117507000Y-81863000D01*
X117480000Y-81858000D01*
X117453000Y-81855000D01*
X117425000Y-81853000D01*
X117398000Y-81852000D01*
X116998000Y-81852000D01*
X116998000Y-82152000D01*
G37*
X116998000Y-82152000D02*
X117398000Y-82152000D01*
X117410000Y-82152000D01*
X117422000Y-82153000D01*
X117433000Y-82155000D01*
X117445000Y-82157000D01*
X117456000Y-82160000D01*
X117468000Y-82163000D01*
X117479000Y-82167000D01*
X117490000Y-82171000D01*
X117500000Y-82177000D01*
X117510000Y-82182000D01*
X117521000Y-82188000D01*
X117530000Y-82195000D01*
X117540000Y-82202000D01*
X117549000Y-82210000D01*
X117557000Y-82218000D01*
X117565000Y-82226000D01*
X117573000Y-82235000D01*
X117580000Y-82245000D01*
X117587000Y-82254000D01*
X117593000Y-82264000D01*
X117598000Y-82275000D01*
X117604000Y-82285000D01*
X117608000Y-82296000D01*
X117612000Y-82307000D01*
X117615000Y-82319000D01*
X117618000Y-82330000D01*
X117620000Y-82342000D01*
X117622000Y-82353000D01*
X117623000Y-82365000D01*
X117623000Y-82377000D01*
X117623000Y-82389000D01*
X117622000Y-82401000D01*
X117620000Y-82412000D01*
X117618000Y-82424000D01*
X117615000Y-82435000D01*
X117612000Y-82447000D01*
X117608000Y-82458000D01*
X117604000Y-82469000D01*
X117598000Y-82479000D01*
X117593000Y-82490000D01*
X117587000Y-82500000D01*
X117580000Y-82509000D01*
X117573000Y-82519000D01*
X117565000Y-82528000D01*
X117557000Y-82536000D01*
X117549000Y-82544000D01*
X117540000Y-82552000D01*
X117530000Y-82559000D01*
X117521000Y-82566000D01*
X117510000Y-82572000D01*
X117500000Y-82577000D01*
X117490000Y-82583000D01*
X117479000Y-82587000D01*
X117468000Y-82591000D01*
X117456000Y-82594000D01*
X117445000Y-82597000D01*
X117433000Y-82599000D01*
X117422000Y-82601000D01*
X117410000Y-82602000D01*
X117398000Y-82602000D01*
X116998000Y-82602000D01*
X116998000Y-82902000D01*
X117353000Y-82902000D01*
X117385000Y-82902000D01*
X117414000Y-82901000D01*
X117442000Y-82898000D01*
X117471000Y-82894000D01*
X117499000Y-82888000D01*
X117527000Y-82881000D01*
X117554000Y-82873000D01*
X117581000Y-82863000D01*
X117607000Y-82851000D01*
X117633000Y-82838000D01*
X117658000Y-82824000D01*
X117682000Y-82809000D01*
X117705000Y-82792000D01*
X117728000Y-82774000D01*
X117749000Y-82755000D01*
X117770000Y-82735000D01*
X117789000Y-82714000D01*
X117807000Y-82692000D01*
X117824000Y-82669000D01*
X117840000Y-82645000D01*
X117855000Y-82620000D01*
X117868000Y-82595000D01*
X117880000Y-82569000D01*
X117890000Y-82542000D01*
X117900000Y-82515000D01*
X117907000Y-82487000D01*
X117913000Y-82459000D01*
X117918000Y-82431000D01*
X117921000Y-82402000D01*
X117923000Y-82377000D01*
X117922000Y-82350000D01*
X117920000Y-82322000D01*
X117917000Y-82295000D01*
X117912000Y-82268000D01*
X117905000Y-82241000D01*
X117897000Y-82215000D01*
X117888000Y-82189000D01*
X117878000Y-82163000D01*
X117866000Y-82139000D01*
X117853000Y-82115000D01*
X117838000Y-82091000D01*
X117823000Y-82068000D01*
X117806000Y-82047000D01*
X117788000Y-82026000D01*
X117769000Y-82006000D01*
X117749000Y-81987000D01*
X117728000Y-81969000D01*
X117707000Y-81952000D01*
X117684000Y-81937000D01*
X117661000Y-81922000D01*
X117636000Y-81909000D01*
X117612000Y-81897000D01*
X117586000Y-81887000D01*
X117560000Y-81878000D01*
X117534000Y-81870000D01*
X117507000Y-81863000D01*
X117480000Y-81858000D01*
X117453000Y-81855000D01*
X117425000Y-81853000D01*
X117398000Y-81852000D01*
X116998000Y-81852000D01*
X116998000Y-82152000D01*
G36*
X116998000Y-82602000D02*
G01*
X116598000Y-82602000D01*
X116586000Y-82602000D01*
X116574000Y-82601000D01*
X116563000Y-82599000D01*
X116551000Y-82597000D01*
X116540000Y-82594000D01*
X116528000Y-82591000D01*
X116517000Y-82587000D01*
X116506000Y-82583000D01*
X116496000Y-82577000D01*
X116486000Y-82572000D01*
X116475000Y-82566000D01*
X116466000Y-82559000D01*
X116456000Y-82552000D01*
X116447000Y-82544000D01*
X116439000Y-82536000D01*
X116431000Y-82528000D01*
X116423000Y-82519000D01*
X116416000Y-82509000D01*
X116409000Y-82500000D01*
X116403000Y-82490000D01*
X116398000Y-82479000D01*
X116392000Y-82469000D01*
X116388000Y-82458000D01*
X116384000Y-82447000D01*
X116381000Y-82435000D01*
X116378000Y-82424000D01*
X116376000Y-82412000D01*
X116374000Y-82401000D01*
X116373000Y-82389000D01*
X116373000Y-82377000D01*
X116373000Y-82365000D01*
X116374000Y-82353000D01*
X116376000Y-82342000D01*
X116378000Y-82330000D01*
X116381000Y-82319000D01*
X116384000Y-82307000D01*
X116388000Y-82296000D01*
X116392000Y-82285000D01*
X116398000Y-82275000D01*
X116403000Y-82264000D01*
X116409000Y-82254000D01*
X116416000Y-82245000D01*
X116423000Y-82235000D01*
X116431000Y-82226000D01*
X116439000Y-82218000D01*
X116447000Y-82210000D01*
X116456000Y-82202000D01*
X116466000Y-82195000D01*
X116475000Y-82188000D01*
X116486000Y-82182000D01*
X116496000Y-82177000D01*
X116506000Y-82171000D01*
X116517000Y-82167000D01*
X116528000Y-82163000D01*
X116540000Y-82160000D01*
X116551000Y-82157000D01*
X116563000Y-82155000D01*
X116574000Y-82153000D01*
X116586000Y-82152000D01*
X116598000Y-82152000D01*
X116998000Y-82152000D01*
X116998000Y-81852000D01*
X116643000Y-81852000D01*
X116611000Y-81852000D01*
X116582000Y-81853000D01*
X116554000Y-81856000D01*
X116525000Y-81860000D01*
X116497000Y-81866000D01*
X116469000Y-81873000D01*
X116442000Y-81881000D01*
X116415000Y-81891000D01*
X116389000Y-81903000D01*
X116363000Y-81916000D01*
X116338000Y-81930000D01*
X116314000Y-81945000D01*
X116291000Y-81962000D01*
X116268000Y-81980000D01*
X116247000Y-81999000D01*
X116226000Y-82019000D01*
X116207000Y-82040000D01*
X116189000Y-82062000D01*
X116172000Y-82085000D01*
X116156000Y-82109000D01*
X116141000Y-82134000D01*
X116128000Y-82159000D01*
X116116000Y-82185000D01*
X116106000Y-82212000D01*
X116096000Y-82239000D01*
X116089000Y-82267000D01*
X116083000Y-82295000D01*
X116078000Y-82323000D01*
X116075000Y-82352000D01*
X116073000Y-82377000D01*
X116074000Y-82404000D01*
X116076000Y-82432000D01*
X116079000Y-82459000D01*
X116084000Y-82486000D01*
X116091000Y-82513000D01*
X116099000Y-82539000D01*
X116108000Y-82565000D01*
X116118000Y-82591000D01*
X116130000Y-82615000D01*
X116143000Y-82639000D01*
X116158000Y-82663000D01*
X116173000Y-82686000D01*
X116190000Y-82707000D01*
X116208000Y-82728000D01*
X116227000Y-82748000D01*
X116247000Y-82767000D01*
X116268000Y-82785000D01*
X116289000Y-82802000D01*
X116312000Y-82817000D01*
X116335000Y-82832000D01*
X116360000Y-82845000D01*
X116384000Y-82857000D01*
X116410000Y-82867000D01*
X116436000Y-82876000D01*
X116462000Y-82884000D01*
X116489000Y-82891000D01*
X116516000Y-82896000D01*
X116543000Y-82899000D01*
X116571000Y-82901000D01*
X116598000Y-82902000D01*
X116998000Y-82902000D01*
X116998000Y-82602000D01*
G37*
X116998000Y-82602000D02*
X116598000Y-82602000D01*
X116586000Y-82602000D01*
X116574000Y-82601000D01*
X116563000Y-82599000D01*
X116551000Y-82597000D01*
X116540000Y-82594000D01*
X116528000Y-82591000D01*
X116517000Y-82587000D01*
X116506000Y-82583000D01*
X116496000Y-82577000D01*
X116486000Y-82572000D01*
X116475000Y-82566000D01*
X116466000Y-82559000D01*
X116456000Y-82552000D01*
X116447000Y-82544000D01*
X116439000Y-82536000D01*
X116431000Y-82528000D01*
X116423000Y-82519000D01*
X116416000Y-82509000D01*
X116409000Y-82500000D01*
X116403000Y-82490000D01*
X116398000Y-82479000D01*
X116392000Y-82469000D01*
X116388000Y-82458000D01*
X116384000Y-82447000D01*
X116381000Y-82435000D01*
X116378000Y-82424000D01*
X116376000Y-82412000D01*
X116374000Y-82401000D01*
X116373000Y-82389000D01*
X116373000Y-82377000D01*
X116373000Y-82365000D01*
X116374000Y-82353000D01*
X116376000Y-82342000D01*
X116378000Y-82330000D01*
X116381000Y-82319000D01*
X116384000Y-82307000D01*
X116388000Y-82296000D01*
X116392000Y-82285000D01*
X116398000Y-82275000D01*
X116403000Y-82264000D01*
X116409000Y-82254000D01*
X116416000Y-82245000D01*
X116423000Y-82235000D01*
X116431000Y-82226000D01*
X116439000Y-82218000D01*
X116447000Y-82210000D01*
X116456000Y-82202000D01*
X116466000Y-82195000D01*
X116475000Y-82188000D01*
X116486000Y-82182000D01*
X116496000Y-82177000D01*
X116506000Y-82171000D01*
X116517000Y-82167000D01*
X116528000Y-82163000D01*
X116540000Y-82160000D01*
X116551000Y-82157000D01*
X116563000Y-82155000D01*
X116574000Y-82153000D01*
X116586000Y-82152000D01*
X116598000Y-82152000D01*
X116998000Y-82152000D01*
X116998000Y-81852000D01*
X116643000Y-81852000D01*
X116611000Y-81852000D01*
X116582000Y-81853000D01*
X116554000Y-81856000D01*
X116525000Y-81860000D01*
X116497000Y-81866000D01*
X116469000Y-81873000D01*
X116442000Y-81881000D01*
X116415000Y-81891000D01*
X116389000Y-81903000D01*
X116363000Y-81916000D01*
X116338000Y-81930000D01*
X116314000Y-81945000D01*
X116291000Y-81962000D01*
X116268000Y-81980000D01*
X116247000Y-81999000D01*
X116226000Y-82019000D01*
X116207000Y-82040000D01*
X116189000Y-82062000D01*
X116172000Y-82085000D01*
X116156000Y-82109000D01*
X116141000Y-82134000D01*
X116128000Y-82159000D01*
X116116000Y-82185000D01*
X116106000Y-82212000D01*
X116096000Y-82239000D01*
X116089000Y-82267000D01*
X116083000Y-82295000D01*
X116078000Y-82323000D01*
X116075000Y-82352000D01*
X116073000Y-82377000D01*
X116074000Y-82404000D01*
X116076000Y-82432000D01*
X116079000Y-82459000D01*
X116084000Y-82486000D01*
X116091000Y-82513000D01*
X116099000Y-82539000D01*
X116108000Y-82565000D01*
X116118000Y-82591000D01*
X116130000Y-82615000D01*
X116143000Y-82639000D01*
X116158000Y-82663000D01*
X116173000Y-82686000D01*
X116190000Y-82707000D01*
X116208000Y-82728000D01*
X116227000Y-82748000D01*
X116247000Y-82767000D01*
X116268000Y-82785000D01*
X116289000Y-82802000D01*
X116312000Y-82817000D01*
X116335000Y-82832000D01*
X116360000Y-82845000D01*
X116384000Y-82857000D01*
X116410000Y-82867000D01*
X116436000Y-82876000D01*
X116462000Y-82884000D01*
X116489000Y-82891000D01*
X116516000Y-82896000D01*
X116543000Y-82899000D01*
X116571000Y-82901000D01*
X116598000Y-82902000D01*
X116998000Y-82902000D01*
X116998000Y-82602000D01*
G36*
X116998000Y-82151000D02*
G01*
X117398000Y-82151000D01*
X117410000Y-82151000D01*
X117422000Y-82152000D01*
X117433000Y-82154000D01*
X117445000Y-82156000D01*
X117456000Y-82159000D01*
X117468000Y-82162000D01*
X117479000Y-82166000D01*
X117490000Y-82170000D01*
X117500000Y-82176000D01*
X117510000Y-82181000D01*
X117521000Y-82187000D01*
X117530000Y-82194000D01*
X117540000Y-82201000D01*
X117549000Y-82209000D01*
X117557000Y-82217000D01*
X117565000Y-82225000D01*
X117573000Y-82234000D01*
X117580000Y-82244000D01*
X117587000Y-82253000D01*
X117593000Y-82264000D01*
X117598000Y-82274000D01*
X117604000Y-82284000D01*
X117608000Y-82295000D01*
X117612000Y-82306000D01*
X117615000Y-82318000D01*
X117618000Y-82329000D01*
X117620000Y-82341000D01*
X117622000Y-82352000D01*
X117623000Y-82364000D01*
X117623000Y-82376000D01*
X117623000Y-82388000D01*
X117622000Y-82400000D01*
X117620000Y-82411000D01*
X117618000Y-82423000D01*
X117615000Y-82434000D01*
X117612000Y-82446000D01*
X117608000Y-82457000D01*
X117604000Y-82468000D01*
X117598000Y-82478000D01*
X117593000Y-82489000D01*
X117587000Y-82499000D01*
X117580000Y-82508000D01*
X117573000Y-82518000D01*
X117565000Y-82527000D01*
X117557000Y-82535000D01*
X117549000Y-82543000D01*
X117540000Y-82551000D01*
X117530000Y-82558000D01*
X117521000Y-82565000D01*
X117511000Y-82571000D01*
X117500000Y-82576000D01*
X117490000Y-82582000D01*
X117479000Y-82586000D01*
X117468000Y-82590000D01*
X117456000Y-82593000D01*
X117445000Y-82596000D01*
X117433000Y-82598000D01*
X117422000Y-82600000D01*
X117410000Y-82601000D01*
X117398000Y-82601000D01*
X116998000Y-82601000D01*
X116998000Y-82901000D01*
X117348000Y-82901000D01*
X117373000Y-82902000D01*
X117402000Y-82901000D01*
X117431000Y-82899000D01*
X117459000Y-82895000D01*
X117487000Y-82890000D01*
X117515000Y-82883000D01*
X117543000Y-82875000D01*
X117570000Y-82865000D01*
X117597000Y-82854000D01*
X117623000Y-82842000D01*
X117648000Y-82828000D01*
X117673000Y-82813000D01*
X117697000Y-82796000D01*
X117719000Y-82779000D01*
X117741000Y-82760000D01*
X117762000Y-82740000D01*
X117782000Y-82719000D01*
X117801000Y-82697000D01*
X117818000Y-82675000D01*
X117835000Y-82651000D01*
X117850000Y-82626000D01*
X117864000Y-82601000D01*
X117876000Y-82575000D01*
X117887000Y-82548000D01*
X117897000Y-82521000D01*
X117905000Y-82493000D01*
X117912000Y-82465000D01*
X117917000Y-82437000D01*
X117921000Y-82409000D01*
X117923000Y-82376000D01*
X117922000Y-82349000D01*
X117920000Y-82321000D01*
X117917000Y-82294000D01*
X117912000Y-82267000D01*
X117905000Y-82240000D01*
X117897000Y-82214000D01*
X117888000Y-82188000D01*
X117878000Y-82162000D01*
X117866000Y-82138000D01*
X117853000Y-82114000D01*
X117838000Y-82090000D01*
X117823000Y-82067000D01*
X117806000Y-82046000D01*
X117788000Y-82025000D01*
X117769000Y-82005000D01*
X117749000Y-81986000D01*
X117728000Y-81968000D01*
X117707000Y-81951000D01*
X117684000Y-81936000D01*
X117660000Y-81921000D01*
X117636000Y-81908000D01*
X117612000Y-81896000D01*
X117586000Y-81886000D01*
X117560000Y-81877000D01*
X117534000Y-81869000D01*
X117507000Y-81862000D01*
X117480000Y-81857000D01*
X117453000Y-81854000D01*
X117425000Y-81852000D01*
X117398000Y-81851000D01*
X116998000Y-81851000D01*
X116998000Y-82151000D01*
G37*
X116998000Y-82151000D02*
X117398000Y-82151000D01*
X117410000Y-82151000D01*
X117422000Y-82152000D01*
X117433000Y-82154000D01*
X117445000Y-82156000D01*
X117456000Y-82159000D01*
X117468000Y-82162000D01*
X117479000Y-82166000D01*
X117490000Y-82170000D01*
X117500000Y-82176000D01*
X117510000Y-82181000D01*
X117521000Y-82187000D01*
X117530000Y-82194000D01*
X117540000Y-82201000D01*
X117549000Y-82209000D01*
X117557000Y-82217000D01*
X117565000Y-82225000D01*
X117573000Y-82234000D01*
X117580000Y-82244000D01*
X117587000Y-82253000D01*
X117593000Y-82264000D01*
X117598000Y-82274000D01*
X117604000Y-82284000D01*
X117608000Y-82295000D01*
X117612000Y-82306000D01*
X117615000Y-82318000D01*
X117618000Y-82329000D01*
X117620000Y-82341000D01*
X117622000Y-82352000D01*
X117623000Y-82364000D01*
X117623000Y-82376000D01*
X117623000Y-82388000D01*
X117622000Y-82400000D01*
X117620000Y-82411000D01*
X117618000Y-82423000D01*
X117615000Y-82434000D01*
X117612000Y-82446000D01*
X117608000Y-82457000D01*
X117604000Y-82468000D01*
X117598000Y-82478000D01*
X117593000Y-82489000D01*
X117587000Y-82499000D01*
X117580000Y-82508000D01*
X117573000Y-82518000D01*
X117565000Y-82527000D01*
X117557000Y-82535000D01*
X117549000Y-82543000D01*
X117540000Y-82551000D01*
X117530000Y-82558000D01*
X117521000Y-82565000D01*
X117511000Y-82571000D01*
X117500000Y-82576000D01*
X117490000Y-82582000D01*
X117479000Y-82586000D01*
X117468000Y-82590000D01*
X117456000Y-82593000D01*
X117445000Y-82596000D01*
X117433000Y-82598000D01*
X117422000Y-82600000D01*
X117410000Y-82601000D01*
X117398000Y-82601000D01*
X116998000Y-82601000D01*
X116998000Y-82901000D01*
X117348000Y-82901000D01*
X117373000Y-82902000D01*
X117402000Y-82901000D01*
X117431000Y-82899000D01*
X117459000Y-82895000D01*
X117487000Y-82890000D01*
X117515000Y-82883000D01*
X117543000Y-82875000D01*
X117570000Y-82865000D01*
X117597000Y-82854000D01*
X117623000Y-82842000D01*
X117648000Y-82828000D01*
X117673000Y-82813000D01*
X117697000Y-82796000D01*
X117719000Y-82779000D01*
X117741000Y-82760000D01*
X117762000Y-82740000D01*
X117782000Y-82719000D01*
X117801000Y-82697000D01*
X117818000Y-82675000D01*
X117835000Y-82651000D01*
X117850000Y-82626000D01*
X117864000Y-82601000D01*
X117876000Y-82575000D01*
X117887000Y-82548000D01*
X117897000Y-82521000D01*
X117905000Y-82493000D01*
X117912000Y-82465000D01*
X117917000Y-82437000D01*
X117921000Y-82409000D01*
X117923000Y-82376000D01*
X117922000Y-82349000D01*
X117920000Y-82321000D01*
X117917000Y-82294000D01*
X117912000Y-82267000D01*
X117905000Y-82240000D01*
X117897000Y-82214000D01*
X117888000Y-82188000D01*
X117878000Y-82162000D01*
X117866000Y-82138000D01*
X117853000Y-82114000D01*
X117838000Y-82090000D01*
X117823000Y-82067000D01*
X117806000Y-82046000D01*
X117788000Y-82025000D01*
X117769000Y-82005000D01*
X117749000Y-81986000D01*
X117728000Y-81968000D01*
X117707000Y-81951000D01*
X117684000Y-81936000D01*
X117660000Y-81921000D01*
X117636000Y-81908000D01*
X117612000Y-81896000D01*
X117586000Y-81886000D01*
X117560000Y-81877000D01*
X117534000Y-81869000D01*
X117507000Y-81862000D01*
X117480000Y-81857000D01*
X117453000Y-81854000D01*
X117425000Y-81852000D01*
X117398000Y-81851000D01*
X116998000Y-81851000D01*
X116998000Y-82151000D01*
G36*
X116998000Y-82601000D02*
G01*
X116598000Y-82601000D01*
X116586000Y-82601000D01*
X116574000Y-82600000D01*
X116563000Y-82598000D01*
X116551000Y-82596000D01*
X116540000Y-82593000D01*
X116528000Y-82590000D01*
X116517000Y-82586000D01*
X116506000Y-82582000D01*
X116496000Y-82576000D01*
X116485000Y-82571000D01*
X116475000Y-82565000D01*
X116466000Y-82558000D01*
X116456000Y-82551000D01*
X116447000Y-82543000D01*
X116439000Y-82535000D01*
X116431000Y-82527000D01*
X116423000Y-82518000D01*
X116416000Y-82508000D01*
X116409000Y-82499000D01*
X116403000Y-82489000D01*
X116398000Y-82478000D01*
X116392000Y-82468000D01*
X116388000Y-82457000D01*
X116384000Y-82446000D01*
X116381000Y-82434000D01*
X116378000Y-82423000D01*
X116376000Y-82411000D01*
X116374000Y-82400000D01*
X116373000Y-82388000D01*
X116373000Y-82376000D01*
X116373000Y-82364000D01*
X116374000Y-82352000D01*
X116376000Y-82341000D01*
X116378000Y-82329000D01*
X116381000Y-82318000D01*
X116384000Y-82306000D01*
X116388000Y-82295000D01*
X116392000Y-82284000D01*
X116398000Y-82274000D01*
X116403000Y-82264000D01*
X116409000Y-82253000D01*
X116416000Y-82244000D01*
X116423000Y-82234000D01*
X116431000Y-82225000D01*
X116439000Y-82217000D01*
X116447000Y-82209000D01*
X116456000Y-82201000D01*
X116466000Y-82194000D01*
X116475000Y-82187000D01*
X116486000Y-82181000D01*
X116496000Y-82176000D01*
X116506000Y-82170000D01*
X116517000Y-82166000D01*
X116528000Y-82162000D01*
X116540000Y-82159000D01*
X116551000Y-82156000D01*
X116563000Y-82154000D01*
X116574000Y-82152000D01*
X116586000Y-82151000D01*
X116598000Y-82151000D01*
X116998000Y-82151000D01*
X116998000Y-81851000D01*
X116648000Y-81851000D01*
X116623000Y-81850000D01*
X116594000Y-81851000D01*
X116565000Y-81853000D01*
X116537000Y-81857000D01*
X116509000Y-81862000D01*
X116481000Y-81869000D01*
X116453000Y-81877000D01*
X116426000Y-81887000D01*
X116399000Y-81898000D01*
X116373000Y-81910000D01*
X116348000Y-81924000D01*
X116323000Y-81939000D01*
X116299000Y-81956000D01*
X116277000Y-81973000D01*
X116255000Y-81992000D01*
X116234000Y-82012000D01*
X116214000Y-82033000D01*
X116195000Y-82055000D01*
X116178000Y-82077000D01*
X116161000Y-82101000D01*
X116146000Y-82126000D01*
X116132000Y-82151000D01*
X116120000Y-82177000D01*
X116109000Y-82204000D01*
X116099000Y-82231000D01*
X116091000Y-82259000D01*
X116084000Y-82287000D01*
X116079000Y-82315000D01*
X116075000Y-82343000D01*
X116073000Y-82376000D01*
X116074000Y-82403000D01*
X116076000Y-82431000D01*
X116079000Y-82458000D01*
X116084000Y-82485000D01*
X116091000Y-82512000D01*
X116099000Y-82538000D01*
X116108000Y-82564000D01*
X116118000Y-82590000D01*
X116130000Y-82614000D01*
X116143000Y-82638000D01*
X116158000Y-82662000D01*
X116173000Y-82685000D01*
X116190000Y-82706000D01*
X116208000Y-82727000D01*
X116227000Y-82747000D01*
X116247000Y-82766000D01*
X116268000Y-82784000D01*
X116289000Y-82801000D01*
X116312000Y-82816000D01*
X116335000Y-82831000D01*
X116360000Y-82844000D01*
X116384000Y-82856000D01*
X116410000Y-82866000D01*
X116436000Y-82875000D01*
X116462000Y-82883000D01*
X116489000Y-82890000D01*
X116516000Y-82895000D01*
X116543000Y-82898000D01*
X116571000Y-82900000D01*
X116598000Y-82901000D01*
X116998000Y-82901000D01*
X116998000Y-82601000D01*
G37*
X116998000Y-82601000D02*
X116598000Y-82601000D01*
X116586000Y-82601000D01*
X116574000Y-82600000D01*
X116563000Y-82598000D01*
X116551000Y-82596000D01*
X116540000Y-82593000D01*
X116528000Y-82590000D01*
X116517000Y-82586000D01*
X116506000Y-82582000D01*
X116496000Y-82576000D01*
X116485000Y-82571000D01*
X116475000Y-82565000D01*
X116466000Y-82558000D01*
X116456000Y-82551000D01*
X116447000Y-82543000D01*
X116439000Y-82535000D01*
X116431000Y-82527000D01*
X116423000Y-82518000D01*
X116416000Y-82508000D01*
X116409000Y-82499000D01*
X116403000Y-82489000D01*
X116398000Y-82478000D01*
X116392000Y-82468000D01*
X116388000Y-82457000D01*
X116384000Y-82446000D01*
X116381000Y-82434000D01*
X116378000Y-82423000D01*
X116376000Y-82411000D01*
X116374000Y-82400000D01*
X116373000Y-82388000D01*
X116373000Y-82376000D01*
X116373000Y-82364000D01*
X116374000Y-82352000D01*
X116376000Y-82341000D01*
X116378000Y-82329000D01*
X116381000Y-82318000D01*
X116384000Y-82306000D01*
X116388000Y-82295000D01*
X116392000Y-82284000D01*
X116398000Y-82274000D01*
X116403000Y-82264000D01*
X116409000Y-82253000D01*
X116416000Y-82244000D01*
X116423000Y-82234000D01*
X116431000Y-82225000D01*
X116439000Y-82217000D01*
X116447000Y-82209000D01*
X116456000Y-82201000D01*
X116466000Y-82194000D01*
X116475000Y-82187000D01*
X116486000Y-82181000D01*
X116496000Y-82176000D01*
X116506000Y-82170000D01*
X116517000Y-82166000D01*
X116528000Y-82162000D01*
X116540000Y-82159000D01*
X116551000Y-82156000D01*
X116563000Y-82154000D01*
X116574000Y-82152000D01*
X116586000Y-82151000D01*
X116598000Y-82151000D01*
X116998000Y-82151000D01*
X116998000Y-81851000D01*
X116648000Y-81851000D01*
X116623000Y-81850000D01*
X116594000Y-81851000D01*
X116565000Y-81853000D01*
X116537000Y-81857000D01*
X116509000Y-81862000D01*
X116481000Y-81869000D01*
X116453000Y-81877000D01*
X116426000Y-81887000D01*
X116399000Y-81898000D01*
X116373000Y-81910000D01*
X116348000Y-81924000D01*
X116323000Y-81939000D01*
X116299000Y-81956000D01*
X116277000Y-81973000D01*
X116255000Y-81992000D01*
X116234000Y-82012000D01*
X116214000Y-82033000D01*
X116195000Y-82055000D01*
X116178000Y-82077000D01*
X116161000Y-82101000D01*
X116146000Y-82126000D01*
X116132000Y-82151000D01*
X116120000Y-82177000D01*
X116109000Y-82204000D01*
X116099000Y-82231000D01*
X116091000Y-82259000D01*
X116084000Y-82287000D01*
X116079000Y-82315000D01*
X116075000Y-82343000D01*
X116073000Y-82376000D01*
X116074000Y-82403000D01*
X116076000Y-82431000D01*
X116079000Y-82458000D01*
X116084000Y-82485000D01*
X116091000Y-82512000D01*
X116099000Y-82538000D01*
X116108000Y-82564000D01*
X116118000Y-82590000D01*
X116130000Y-82614000D01*
X116143000Y-82638000D01*
X116158000Y-82662000D01*
X116173000Y-82685000D01*
X116190000Y-82706000D01*
X116208000Y-82727000D01*
X116227000Y-82747000D01*
X116247000Y-82766000D01*
X116268000Y-82784000D01*
X116289000Y-82801000D01*
X116312000Y-82816000D01*
X116335000Y-82831000D01*
X116360000Y-82844000D01*
X116384000Y-82856000D01*
X116410000Y-82866000D01*
X116436000Y-82875000D01*
X116462000Y-82883000D01*
X116489000Y-82890000D01*
X116516000Y-82895000D01*
X116543000Y-82898000D01*
X116571000Y-82900000D01*
X116598000Y-82901000D01*
X116998000Y-82901000D01*
X116998000Y-82601000D01*
%TO.C,J5*%
G36*
X208914500Y-110535999D02*
G01*
X209314500Y-110535999D01*
X209326500Y-110535999D01*
X209338500Y-110536999D01*
X209349500Y-110538999D01*
X209361500Y-110540999D01*
X209372500Y-110543999D01*
X209384500Y-110546999D01*
X209395500Y-110550999D01*
X209406500Y-110554999D01*
X209416500Y-110560999D01*
X209427500Y-110565999D01*
X209437500Y-110571999D01*
X209446500Y-110578999D01*
X209456500Y-110585999D01*
X209465500Y-110593999D01*
X209473500Y-110601999D01*
X209481500Y-110609999D01*
X209489500Y-110618999D01*
X209496500Y-110628999D01*
X209503500Y-110637999D01*
X209509500Y-110647999D01*
X209514500Y-110658999D01*
X209520500Y-110668999D01*
X209524500Y-110679999D01*
X209528500Y-110690999D01*
X209531500Y-110702999D01*
X209534500Y-110713999D01*
X209536500Y-110725999D01*
X209538500Y-110736999D01*
X209539500Y-110748999D01*
X209539500Y-110760999D01*
X209539500Y-110772999D01*
X209538500Y-110784999D01*
X209536500Y-110795999D01*
X209534500Y-110807999D01*
X209531500Y-110818999D01*
X209528500Y-110830999D01*
X209524500Y-110841999D01*
X209520500Y-110852999D01*
X209514500Y-110862999D01*
X209509500Y-110872999D01*
X209503500Y-110883999D01*
X209496500Y-110892999D01*
X209489500Y-110902999D01*
X209481500Y-110911999D01*
X209473500Y-110919999D01*
X209465500Y-110927999D01*
X209456500Y-110935999D01*
X209446500Y-110942999D01*
X209437500Y-110949999D01*
X209426500Y-110955999D01*
X209416500Y-110960999D01*
X209406500Y-110966999D01*
X209395500Y-110970999D01*
X209384500Y-110974999D01*
X209372500Y-110977999D01*
X209361500Y-110980999D01*
X209349500Y-110982999D01*
X209338500Y-110984999D01*
X209326500Y-110985999D01*
X209314500Y-110985999D01*
X208914500Y-110985999D01*
X208914500Y-111285999D01*
X209264500Y-111285999D01*
X209289500Y-111286999D01*
X209318500Y-111285999D01*
X209347500Y-111283999D01*
X209375500Y-111279999D01*
X209403500Y-111274999D01*
X209431500Y-111267999D01*
X209459500Y-111259999D01*
X209486500Y-111249999D01*
X209513500Y-111238999D01*
X209539500Y-111226999D01*
X209564500Y-111212999D01*
X209589500Y-111197999D01*
X209613500Y-111180999D01*
X209635500Y-111163999D01*
X209657500Y-111144999D01*
X209678500Y-111124999D01*
X209698500Y-111103999D01*
X209717500Y-111081999D01*
X209734500Y-111059999D01*
X209751500Y-111035999D01*
X209766500Y-111010999D01*
X209780500Y-110985999D01*
X209792500Y-110959999D01*
X209803500Y-110932999D01*
X209813500Y-110905999D01*
X209821500Y-110877999D01*
X209828500Y-110849999D01*
X209833500Y-110821999D01*
X209837500Y-110793999D01*
X209839500Y-110760999D01*
X209838500Y-110733999D01*
X209836500Y-110705999D01*
X209833500Y-110678999D01*
X209828500Y-110651999D01*
X209821500Y-110624999D01*
X209813500Y-110598999D01*
X209804500Y-110572999D01*
X209794500Y-110546999D01*
X209782500Y-110522999D01*
X209769500Y-110498999D01*
X209754500Y-110474999D01*
X209739500Y-110451999D01*
X209722500Y-110430999D01*
X209704500Y-110409999D01*
X209685500Y-110389999D01*
X209665500Y-110370999D01*
X209644500Y-110352999D01*
X209623500Y-110335999D01*
X209600500Y-110320999D01*
X209577500Y-110305999D01*
X209552500Y-110292999D01*
X209528500Y-110280999D01*
X209502500Y-110270999D01*
X209476500Y-110261999D01*
X209450500Y-110253999D01*
X209423500Y-110246999D01*
X209396500Y-110241999D01*
X209369500Y-110238999D01*
X209341500Y-110236999D01*
X209314500Y-110235999D01*
X208914500Y-110235999D01*
X208914500Y-110535999D01*
G37*
X208914500Y-110535999D02*
X209314500Y-110535999D01*
X209326500Y-110535999D01*
X209338500Y-110536999D01*
X209349500Y-110538999D01*
X209361500Y-110540999D01*
X209372500Y-110543999D01*
X209384500Y-110546999D01*
X209395500Y-110550999D01*
X209406500Y-110554999D01*
X209416500Y-110560999D01*
X209427500Y-110565999D01*
X209437500Y-110571999D01*
X209446500Y-110578999D01*
X209456500Y-110585999D01*
X209465500Y-110593999D01*
X209473500Y-110601999D01*
X209481500Y-110609999D01*
X209489500Y-110618999D01*
X209496500Y-110628999D01*
X209503500Y-110637999D01*
X209509500Y-110647999D01*
X209514500Y-110658999D01*
X209520500Y-110668999D01*
X209524500Y-110679999D01*
X209528500Y-110690999D01*
X209531500Y-110702999D01*
X209534500Y-110713999D01*
X209536500Y-110725999D01*
X209538500Y-110736999D01*
X209539500Y-110748999D01*
X209539500Y-110760999D01*
X209539500Y-110772999D01*
X209538500Y-110784999D01*
X209536500Y-110795999D01*
X209534500Y-110807999D01*
X209531500Y-110818999D01*
X209528500Y-110830999D01*
X209524500Y-110841999D01*
X209520500Y-110852999D01*
X209514500Y-110862999D01*
X209509500Y-110872999D01*
X209503500Y-110883999D01*
X209496500Y-110892999D01*
X209489500Y-110902999D01*
X209481500Y-110911999D01*
X209473500Y-110919999D01*
X209465500Y-110927999D01*
X209456500Y-110935999D01*
X209446500Y-110942999D01*
X209437500Y-110949999D01*
X209426500Y-110955999D01*
X209416500Y-110960999D01*
X209406500Y-110966999D01*
X209395500Y-110970999D01*
X209384500Y-110974999D01*
X209372500Y-110977999D01*
X209361500Y-110980999D01*
X209349500Y-110982999D01*
X209338500Y-110984999D01*
X209326500Y-110985999D01*
X209314500Y-110985999D01*
X208914500Y-110985999D01*
X208914500Y-111285999D01*
X209264500Y-111285999D01*
X209289500Y-111286999D01*
X209318500Y-111285999D01*
X209347500Y-111283999D01*
X209375500Y-111279999D01*
X209403500Y-111274999D01*
X209431500Y-111267999D01*
X209459500Y-111259999D01*
X209486500Y-111249999D01*
X209513500Y-111238999D01*
X209539500Y-111226999D01*
X209564500Y-111212999D01*
X209589500Y-111197999D01*
X209613500Y-111180999D01*
X209635500Y-111163999D01*
X209657500Y-111144999D01*
X209678500Y-111124999D01*
X209698500Y-111103999D01*
X209717500Y-111081999D01*
X209734500Y-111059999D01*
X209751500Y-111035999D01*
X209766500Y-111010999D01*
X209780500Y-110985999D01*
X209792500Y-110959999D01*
X209803500Y-110932999D01*
X209813500Y-110905999D01*
X209821500Y-110877999D01*
X209828500Y-110849999D01*
X209833500Y-110821999D01*
X209837500Y-110793999D01*
X209839500Y-110760999D01*
X209838500Y-110733999D01*
X209836500Y-110705999D01*
X209833500Y-110678999D01*
X209828500Y-110651999D01*
X209821500Y-110624999D01*
X209813500Y-110598999D01*
X209804500Y-110572999D01*
X209794500Y-110546999D01*
X209782500Y-110522999D01*
X209769500Y-110498999D01*
X209754500Y-110474999D01*
X209739500Y-110451999D01*
X209722500Y-110430999D01*
X209704500Y-110409999D01*
X209685500Y-110389999D01*
X209665500Y-110370999D01*
X209644500Y-110352999D01*
X209623500Y-110335999D01*
X209600500Y-110320999D01*
X209577500Y-110305999D01*
X209552500Y-110292999D01*
X209528500Y-110280999D01*
X209502500Y-110270999D01*
X209476500Y-110261999D01*
X209450500Y-110253999D01*
X209423500Y-110246999D01*
X209396500Y-110241999D01*
X209369500Y-110238999D01*
X209341500Y-110236999D01*
X209314500Y-110235999D01*
X208914500Y-110235999D01*
X208914500Y-110535999D01*
G36*
X208914500Y-110985999D02*
G01*
X208514500Y-110985999D01*
X208502500Y-110985999D01*
X208490500Y-110984999D01*
X208479500Y-110982999D01*
X208467500Y-110980999D01*
X208456500Y-110977999D01*
X208444500Y-110974999D01*
X208433500Y-110970999D01*
X208422500Y-110966999D01*
X208412500Y-110960999D01*
X208402500Y-110955999D01*
X208391500Y-110949999D01*
X208382500Y-110942999D01*
X208372500Y-110935999D01*
X208363500Y-110927999D01*
X208355500Y-110919999D01*
X208347500Y-110911999D01*
X208339500Y-110902999D01*
X208332500Y-110892999D01*
X208325500Y-110883999D01*
X208319500Y-110872999D01*
X208314500Y-110862999D01*
X208308500Y-110852999D01*
X208304500Y-110841999D01*
X208300500Y-110830999D01*
X208297500Y-110818999D01*
X208294500Y-110807999D01*
X208292500Y-110795999D01*
X208290500Y-110784999D01*
X208289500Y-110772999D01*
X208289500Y-110760999D01*
X208289500Y-110748999D01*
X208290500Y-110736999D01*
X208292500Y-110725999D01*
X208294500Y-110713999D01*
X208297500Y-110702999D01*
X208300500Y-110690999D01*
X208304500Y-110679999D01*
X208308500Y-110668999D01*
X208314500Y-110658999D01*
X208319500Y-110647999D01*
X208325500Y-110637999D01*
X208332500Y-110628999D01*
X208339500Y-110618999D01*
X208347500Y-110609999D01*
X208355500Y-110601999D01*
X208363500Y-110593999D01*
X208372500Y-110585999D01*
X208382500Y-110578999D01*
X208391500Y-110571999D01*
X208401500Y-110565999D01*
X208412500Y-110560999D01*
X208422500Y-110554999D01*
X208433500Y-110550999D01*
X208444500Y-110546999D01*
X208456500Y-110543999D01*
X208467500Y-110540999D01*
X208479500Y-110538999D01*
X208490500Y-110536999D01*
X208502500Y-110535999D01*
X208514500Y-110535999D01*
X208914500Y-110535999D01*
X208914500Y-110235999D01*
X208564500Y-110235999D01*
X208539500Y-110234999D01*
X208510500Y-110235999D01*
X208481500Y-110237999D01*
X208453500Y-110241999D01*
X208425500Y-110246999D01*
X208397500Y-110253999D01*
X208369500Y-110261999D01*
X208342500Y-110271999D01*
X208315500Y-110282999D01*
X208289500Y-110294999D01*
X208264500Y-110308999D01*
X208239500Y-110323999D01*
X208215500Y-110340999D01*
X208193500Y-110357999D01*
X208171500Y-110376999D01*
X208150500Y-110396999D01*
X208130500Y-110417999D01*
X208111500Y-110439999D01*
X208094500Y-110461999D01*
X208077500Y-110485999D01*
X208062500Y-110510999D01*
X208048500Y-110535999D01*
X208036500Y-110561999D01*
X208025500Y-110588999D01*
X208015500Y-110615999D01*
X208007500Y-110643999D01*
X208000500Y-110671999D01*
X207995500Y-110699999D01*
X207991500Y-110727999D01*
X207989500Y-110760999D01*
X207990500Y-110787999D01*
X207992500Y-110815999D01*
X207995500Y-110842999D01*
X208000500Y-110869999D01*
X208007500Y-110896999D01*
X208015500Y-110922999D01*
X208024500Y-110948999D01*
X208034500Y-110974999D01*
X208046500Y-110998999D01*
X208059500Y-111022999D01*
X208074500Y-111046999D01*
X208089500Y-111069999D01*
X208106500Y-111090999D01*
X208124500Y-111111999D01*
X208143500Y-111131999D01*
X208163500Y-111150999D01*
X208184500Y-111168999D01*
X208205500Y-111185999D01*
X208228500Y-111200999D01*
X208252500Y-111215999D01*
X208276500Y-111228999D01*
X208300500Y-111240999D01*
X208326500Y-111250999D01*
X208352500Y-111259999D01*
X208378500Y-111267999D01*
X208405500Y-111274999D01*
X208432500Y-111279999D01*
X208459500Y-111282999D01*
X208487500Y-111284999D01*
X208514500Y-111285999D01*
X208914500Y-111285999D01*
X208914500Y-110985999D01*
G37*
X208914500Y-110985999D02*
X208514500Y-110985999D01*
X208502500Y-110985999D01*
X208490500Y-110984999D01*
X208479500Y-110982999D01*
X208467500Y-110980999D01*
X208456500Y-110977999D01*
X208444500Y-110974999D01*
X208433500Y-110970999D01*
X208422500Y-110966999D01*
X208412500Y-110960999D01*
X208402500Y-110955999D01*
X208391500Y-110949999D01*
X208382500Y-110942999D01*
X208372500Y-110935999D01*
X208363500Y-110927999D01*
X208355500Y-110919999D01*
X208347500Y-110911999D01*
X208339500Y-110902999D01*
X208332500Y-110892999D01*
X208325500Y-110883999D01*
X208319500Y-110872999D01*
X208314500Y-110862999D01*
X208308500Y-110852999D01*
X208304500Y-110841999D01*
X208300500Y-110830999D01*
X208297500Y-110818999D01*
X208294500Y-110807999D01*
X208292500Y-110795999D01*
X208290500Y-110784999D01*
X208289500Y-110772999D01*
X208289500Y-110760999D01*
X208289500Y-110748999D01*
X208290500Y-110736999D01*
X208292500Y-110725999D01*
X208294500Y-110713999D01*
X208297500Y-110702999D01*
X208300500Y-110690999D01*
X208304500Y-110679999D01*
X208308500Y-110668999D01*
X208314500Y-110658999D01*
X208319500Y-110647999D01*
X208325500Y-110637999D01*
X208332500Y-110628999D01*
X208339500Y-110618999D01*
X208347500Y-110609999D01*
X208355500Y-110601999D01*
X208363500Y-110593999D01*
X208372500Y-110585999D01*
X208382500Y-110578999D01*
X208391500Y-110571999D01*
X208401500Y-110565999D01*
X208412500Y-110560999D01*
X208422500Y-110554999D01*
X208433500Y-110550999D01*
X208444500Y-110546999D01*
X208456500Y-110543999D01*
X208467500Y-110540999D01*
X208479500Y-110538999D01*
X208490500Y-110536999D01*
X208502500Y-110535999D01*
X208514500Y-110535999D01*
X208914500Y-110535999D01*
X208914500Y-110235999D01*
X208564500Y-110235999D01*
X208539500Y-110234999D01*
X208510500Y-110235999D01*
X208481500Y-110237999D01*
X208453500Y-110241999D01*
X208425500Y-110246999D01*
X208397500Y-110253999D01*
X208369500Y-110261999D01*
X208342500Y-110271999D01*
X208315500Y-110282999D01*
X208289500Y-110294999D01*
X208264500Y-110308999D01*
X208239500Y-110323999D01*
X208215500Y-110340999D01*
X208193500Y-110357999D01*
X208171500Y-110376999D01*
X208150500Y-110396999D01*
X208130500Y-110417999D01*
X208111500Y-110439999D01*
X208094500Y-110461999D01*
X208077500Y-110485999D01*
X208062500Y-110510999D01*
X208048500Y-110535999D01*
X208036500Y-110561999D01*
X208025500Y-110588999D01*
X208015500Y-110615999D01*
X208007500Y-110643999D01*
X208000500Y-110671999D01*
X207995500Y-110699999D01*
X207991500Y-110727999D01*
X207989500Y-110760999D01*
X207990500Y-110787999D01*
X207992500Y-110815999D01*
X207995500Y-110842999D01*
X208000500Y-110869999D01*
X208007500Y-110896999D01*
X208015500Y-110922999D01*
X208024500Y-110948999D01*
X208034500Y-110974999D01*
X208046500Y-110998999D01*
X208059500Y-111022999D01*
X208074500Y-111046999D01*
X208089500Y-111069999D01*
X208106500Y-111090999D01*
X208124500Y-111111999D01*
X208143500Y-111131999D01*
X208163500Y-111150999D01*
X208184500Y-111168999D01*
X208205500Y-111185999D01*
X208228500Y-111200999D01*
X208252500Y-111215999D01*
X208276500Y-111228999D01*
X208300500Y-111240999D01*
X208326500Y-111250999D01*
X208352500Y-111259999D01*
X208378500Y-111267999D01*
X208405500Y-111274999D01*
X208432500Y-111279999D01*
X208459500Y-111282999D01*
X208487500Y-111284999D01*
X208514500Y-111285999D01*
X208914500Y-111285999D01*
X208914500Y-110985999D01*
G36*
X208914500Y-110534999D02*
G01*
X209314500Y-110534999D01*
X209326500Y-110534999D01*
X209338500Y-110535999D01*
X209349500Y-110537999D01*
X209361500Y-110539999D01*
X209372500Y-110542999D01*
X209384500Y-110545999D01*
X209395500Y-110549999D01*
X209406500Y-110553999D01*
X209416500Y-110559999D01*
X209426500Y-110564999D01*
X209437500Y-110570999D01*
X209446500Y-110577999D01*
X209456500Y-110584999D01*
X209465500Y-110592999D01*
X209473500Y-110600999D01*
X209481500Y-110608999D01*
X209489500Y-110617999D01*
X209496500Y-110627999D01*
X209503500Y-110636999D01*
X209509500Y-110646999D01*
X209514500Y-110657999D01*
X209520500Y-110667999D01*
X209524500Y-110678999D01*
X209528500Y-110689999D01*
X209531500Y-110701999D01*
X209534500Y-110712999D01*
X209536500Y-110724999D01*
X209538500Y-110735999D01*
X209539500Y-110747999D01*
X209539500Y-110759999D01*
X209539500Y-110771999D01*
X209538500Y-110783999D01*
X209536500Y-110794999D01*
X209534500Y-110806999D01*
X209531500Y-110817999D01*
X209528500Y-110829999D01*
X209524500Y-110840999D01*
X209520500Y-110851999D01*
X209514500Y-110861999D01*
X209509500Y-110872999D01*
X209503500Y-110882999D01*
X209496500Y-110891999D01*
X209489500Y-110901999D01*
X209481500Y-110910999D01*
X209473500Y-110918999D01*
X209465500Y-110926999D01*
X209456500Y-110934999D01*
X209446500Y-110941999D01*
X209437500Y-110948999D01*
X209426500Y-110954999D01*
X209416500Y-110959999D01*
X209406500Y-110965999D01*
X209395500Y-110969999D01*
X209384500Y-110973999D01*
X209372500Y-110976999D01*
X209361500Y-110979999D01*
X209349500Y-110981999D01*
X209338500Y-110983999D01*
X209326500Y-110984999D01*
X209314500Y-110984999D01*
X208914500Y-110984999D01*
X208914500Y-111284999D01*
X209269500Y-111284999D01*
X209301500Y-111284999D01*
X209330500Y-111283999D01*
X209358500Y-111280999D01*
X209387500Y-111276999D01*
X209415500Y-111270999D01*
X209443500Y-111263999D01*
X209470500Y-111255999D01*
X209497500Y-111245999D01*
X209523500Y-111233999D01*
X209549500Y-111220999D01*
X209574500Y-111206999D01*
X209598500Y-111191999D01*
X209621500Y-111174999D01*
X209644500Y-111156999D01*
X209665500Y-111137999D01*
X209686500Y-111117999D01*
X209705500Y-111096999D01*
X209723500Y-111074999D01*
X209740500Y-111051999D01*
X209756500Y-111027999D01*
X209771500Y-111002999D01*
X209784500Y-110977999D01*
X209796500Y-110951999D01*
X209806500Y-110924999D01*
X209816500Y-110897999D01*
X209823500Y-110869999D01*
X209829500Y-110841999D01*
X209834500Y-110813999D01*
X209837500Y-110784999D01*
X209839500Y-110759999D01*
X209838500Y-110732999D01*
X209836500Y-110704999D01*
X209833500Y-110677999D01*
X209828500Y-110650999D01*
X209821500Y-110623999D01*
X209813500Y-110597999D01*
X209804500Y-110571999D01*
X209794500Y-110545999D01*
X209782500Y-110521999D01*
X209769500Y-110497999D01*
X209754500Y-110473999D01*
X209739500Y-110450999D01*
X209722500Y-110429999D01*
X209704500Y-110408999D01*
X209685500Y-110388999D01*
X209665500Y-110369999D01*
X209644500Y-110351999D01*
X209623500Y-110334999D01*
X209600500Y-110319999D01*
X209577500Y-110304999D01*
X209552500Y-110291999D01*
X209528500Y-110279999D01*
X209502500Y-110269999D01*
X209476500Y-110260999D01*
X209450500Y-110252999D01*
X209423500Y-110245999D01*
X209396500Y-110240999D01*
X209369500Y-110237999D01*
X209341500Y-110235999D01*
X209314500Y-110234999D01*
X208914500Y-110234999D01*
X208914500Y-110534999D01*
G37*
X208914500Y-110534999D02*
X209314500Y-110534999D01*
X209326500Y-110534999D01*
X209338500Y-110535999D01*
X209349500Y-110537999D01*
X209361500Y-110539999D01*
X209372500Y-110542999D01*
X209384500Y-110545999D01*
X209395500Y-110549999D01*
X209406500Y-110553999D01*
X209416500Y-110559999D01*
X209426500Y-110564999D01*
X209437500Y-110570999D01*
X209446500Y-110577999D01*
X209456500Y-110584999D01*
X209465500Y-110592999D01*
X209473500Y-110600999D01*
X209481500Y-110608999D01*
X209489500Y-110617999D01*
X209496500Y-110627999D01*
X209503500Y-110636999D01*
X209509500Y-110646999D01*
X209514500Y-110657999D01*
X209520500Y-110667999D01*
X209524500Y-110678999D01*
X209528500Y-110689999D01*
X209531500Y-110701999D01*
X209534500Y-110712999D01*
X209536500Y-110724999D01*
X209538500Y-110735999D01*
X209539500Y-110747999D01*
X209539500Y-110759999D01*
X209539500Y-110771999D01*
X209538500Y-110783999D01*
X209536500Y-110794999D01*
X209534500Y-110806999D01*
X209531500Y-110817999D01*
X209528500Y-110829999D01*
X209524500Y-110840999D01*
X209520500Y-110851999D01*
X209514500Y-110861999D01*
X209509500Y-110872999D01*
X209503500Y-110882999D01*
X209496500Y-110891999D01*
X209489500Y-110901999D01*
X209481500Y-110910999D01*
X209473500Y-110918999D01*
X209465500Y-110926999D01*
X209456500Y-110934999D01*
X209446500Y-110941999D01*
X209437500Y-110948999D01*
X209426500Y-110954999D01*
X209416500Y-110959999D01*
X209406500Y-110965999D01*
X209395500Y-110969999D01*
X209384500Y-110973999D01*
X209372500Y-110976999D01*
X209361500Y-110979999D01*
X209349500Y-110981999D01*
X209338500Y-110983999D01*
X209326500Y-110984999D01*
X209314500Y-110984999D01*
X208914500Y-110984999D01*
X208914500Y-111284999D01*
X209269500Y-111284999D01*
X209301500Y-111284999D01*
X209330500Y-111283999D01*
X209358500Y-111280999D01*
X209387500Y-111276999D01*
X209415500Y-111270999D01*
X209443500Y-111263999D01*
X209470500Y-111255999D01*
X209497500Y-111245999D01*
X209523500Y-111233999D01*
X209549500Y-111220999D01*
X209574500Y-111206999D01*
X209598500Y-111191999D01*
X209621500Y-111174999D01*
X209644500Y-111156999D01*
X209665500Y-111137999D01*
X209686500Y-111117999D01*
X209705500Y-111096999D01*
X209723500Y-111074999D01*
X209740500Y-111051999D01*
X209756500Y-111027999D01*
X209771500Y-111002999D01*
X209784500Y-110977999D01*
X209796500Y-110951999D01*
X209806500Y-110924999D01*
X209816500Y-110897999D01*
X209823500Y-110869999D01*
X209829500Y-110841999D01*
X209834500Y-110813999D01*
X209837500Y-110784999D01*
X209839500Y-110759999D01*
X209838500Y-110732999D01*
X209836500Y-110704999D01*
X209833500Y-110677999D01*
X209828500Y-110650999D01*
X209821500Y-110623999D01*
X209813500Y-110597999D01*
X209804500Y-110571999D01*
X209794500Y-110545999D01*
X209782500Y-110521999D01*
X209769500Y-110497999D01*
X209754500Y-110473999D01*
X209739500Y-110450999D01*
X209722500Y-110429999D01*
X209704500Y-110408999D01*
X209685500Y-110388999D01*
X209665500Y-110369999D01*
X209644500Y-110351999D01*
X209623500Y-110334999D01*
X209600500Y-110319999D01*
X209577500Y-110304999D01*
X209552500Y-110291999D01*
X209528500Y-110279999D01*
X209502500Y-110269999D01*
X209476500Y-110260999D01*
X209450500Y-110252999D01*
X209423500Y-110245999D01*
X209396500Y-110240999D01*
X209369500Y-110237999D01*
X209341500Y-110235999D01*
X209314500Y-110234999D01*
X208914500Y-110234999D01*
X208914500Y-110534999D01*
G36*
X208914500Y-110984999D02*
G01*
X208514500Y-110984999D01*
X208502500Y-110984999D01*
X208490500Y-110983999D01*
X208479500Y-110981999D01*
X208467500Y-110979999D01*
X208456500Y-110976999D01*
X208444500Y-110973999D01*
X208433500Y-110969999D01*
X208422500Y-110965999D01*
X208412500Y-110959999D01*
X208402500Y-110954999D01*
X208391500Y-110948999D01*
X208382500Y-110941999D01*
X208372500Y-110934999D01*
X208363500Y-110926999D01*
X208355500Y-110918999D01*
X208347500Y-110910999D01*
X208339500Y-110901999D01*
X208332500Y-110891999D01*
X208325500Y-110882999D01*
X208319500Y-110872999D01*
X208314500Y-110861999D01*
X208308500Y-110851999D01*
X208304500Y-110840999D01*
X208300500Y-110829999D01*
X208297500Y-110817999D01*
X208294500Y-110806999D01*
X208292500Y-110794999D01*
X208290500Y-110783999D01*
X208289500Y-110771999D01*
X208289500Y-110759999D01*
X208289500Y-110747999D01*
X208290500Y-110735999D01*
X208292500Y-110724999D01*
X208294500Y-110712999D01*
X208297500Y-110701999D01*
X208300500Y-110689999D01*
X208304500Y-110678999D01*
X208308500Y-110667999D01*
X208314500Y-110657999D01*
X208319500Y-110646999D01*
X208325500Y-110636999D01*
X208332500Y-110627999D01*
X208339500Y-110617999D01*
X208347500Y-110608999D01*
X208355500Y-110600999D01*
X208363500Y-110592999D01*
X208372500Y-110584999D01*
X208382500Y-110577999D01*
X208391500Y-110570999D01*
X208402500Y-110564999D01*
X208412500Y-110559999D01*
X208422500Y-110553999D01*
X208433500Y-110549999D01*
X208444500Y-110545999D01*
X208456500Y-110542999D01*
X208467500Y-110539999D01*
X208479500Y-110537999D01*
X208490500Y-110535999D01*
X208502500Y-110534999D01*
X208514500Y-110534999D01*
X208914500Y-110534999D01*
X208914500Y-110234999D01*
X208559500Y-110234999D01*
X208527500Y-110234999D01*
X208498500Y-110235999D01*
X208470500Y-110238999D01*
X208441500Y-110242999D01*
X208413500Y-110248999D01*
X208385500Y-110255999D01*
X208358500Y-110263999D01*
X208331500Y-110273999D01*
X208305500Y-110285999D01*
X208279500Y-110298999D01*
X208254500Y-110312999D01*
X208230500Y-110327999D01*
X208207500Y-110344999D01*
X208184500Y-110362999D01*
X208163500Y-110381999D01*
X208142500Y-110401999D01*
X208123500Y-110422999D01*
X208105500Y-110444999D01*
X208088500Y-110467999D01*
X208072500Y-110491999D01*
X208057500Y-110516999D01*
X208044500Y-110541999D01*
X208032500Y-110567999D01*
X208022500Y-110594999D01*
X208012500Y-110621999D01*
X208005500Y-110649999D01*
X207999500Y-110677999D01*
X207994500Y-110705999D01*
X207991500Y-110734999D01*
X207989500Y-110759999D01*
X207990500Y-110786999D01*
X207992500Y-110814999D01*
X207995500Y-110841999D01*
X208000500Y-110868999D01*
X208007500Y-110895999D01*
X208015500Y-110921999D01*
X208024500Y-110947999D01*
X208034500Y-110973999D01*
X208046500Y-110997999D01*
X208059500Y-111021999D01*
X208074500Y-111045999D01*
X208089500Y-111068999D01*
X208106500Y-111089999D01*
X208124500Y-111110999D01*
X208143500Y-111130999D01*
X208163500Y-111149999D01*
X208184500Y-111167999D01*
X208205500Y-111184999D01*
X208228500Y-111199999D01*
X208251500Y-111214999D01*
X208276500Y-111227999D01*
X208300500Y-111239999D01*
X208326500Y-111249999D01*
X208352500Y-111258999D01*
X208378500Y-111266999D01*
X208405500Y-111273999D01*
X208432500Y-111278999D01*
X208459500Y-111281999D01*
X208487500Y-111283999D01*
X208514500Y-111284999D01*
X208914500Y-111284999D01*
X208914500Y-110984999D01*
G37*
X208914500Y-110984999D02*
X208514500Y-110984999D01*
X208502500Y-110984999D01*
X208490500Y-110983999D01*
X208479500Y-110981999D01*
X208467500Y-110979999D01*
X208456500Y-110976999D01*
X208444500Y-110973999D01*
X208433500Y-110969999D01*
X208422500Y-110965999D01*
X208412500Y-110959999D01*
X208402500Y-110954999D01*
X208391500Y-110948999D01*
X208382500Y-110941999D01*
X208372500Y-110934999D01*
X208363500Y-110926999D01*
X208355500Y-110918999D01*
X208347500Y-110910999D01*
X208339500Y-110901999D01*
X208332500Y-110891999D01*
X208325500Y-110882999D01*
X208319500Y-110872999D01*
X208314500Y-110861999D01*
X208308500Y-110851999D01*
X208304500Y-110840999D01*
X208300500Y-110829999D01*
X208297500Y-110817999D01*
X208294500Y-110806999D01*
X208292500Y-110794999D01*
X208290500Y-110783999D01*
X208289500Y-110771999D01*
X208289500Y-110759999D01*
X208289500Y-110747999D01*
X208290500Y-110735999D01*
X208292500Y-110724999D01*
X208294500Y-110712999D01*
X208297500Y-110701999D01*
X208300500Y-110689999D01*
X208304500Y-110678999D01*
X208308500Y-110667999D01*
X208314500Y-110657999D01*
X208319500Y-110646999D01*
X208325500Y-110636999D01*
X208332500Y-110627999D01*
X208339500Y-110617999D01*
X208347500Y-110608999D01*
X208355500Y-110600999D01*
X208363500Y-110592999D01*
X208372500Y-110584999D01*
X208382500Y-110577999D01*
X208391500Y-110570999D01*
X208402500Y-110564999D01*
X208412500Y-110559999D01*
X208422500Y-110553999D01*
X208433500Y-110549999D01*
X208444500Y-110545999D01*
X208456500Y-110542999D01*
X208467500Y-110539999D01*
X208479500Y-110537999D01*
X208490500Y-110535999D01*
X208502500Y-110534999D01*
X208514500Y-110534999D01*
X208914500Y-110534999D01*
X208914500Y-110234999D01*
X208559500Y-110234999D01*
X208527500Y-110234999D01*
X208498500Y-110235999D01*
X208470500Y-110238999D01*
X208441500Y-110242999D01*
X208413500Y-110248999D01*
X208385500Y-110255999D01*
X208358500Y-110263999D01*
X208331500Y-110273999D01*
X208305500Y-110285999D01*
X208279500Y-110298999D01*
X208254500Y-110312999D01*
X208230500Y-110327999D01*
X208207500Y-110344999D01*
X208184500Y-110362999D01*
X208163500Y-110381999D01*
X208142500Y-110401999D01*
X208123500Y-110422999D01*
X208105500Y-110444999D01*
X208088500Y-110467999D01*
X208072500Y-110491999D01*
X208057500Y-110516999D01*
X208044500Y-110541999D01*
X208032500Y-110567999D01*
X208022500Y-110594999D01*
X208012500Y-110621999D01*
X208005500Y-110649999D01*
X207999500Y-110677999D01*
X207994500Y-110705999D01*
X207991500Y-110734999D01*
X207989500Y-110759999D01*
X207990500Y-110786999D01*
X207992500Y-110814999D01*
X207995500Y-110841999D01*
X208000500Y-110868999D01*
X208007500Y-110895999D01*
X208015500Y-110921999D01*
X208024500Y-110947999D01*
X208034500Y-110973999D01*
X208046500Y-110997999D01*
X208059500Y-111021999D01*
X208074500Y-111045999D01*
X208089500Y-111068999D01*
X208106500Y-111089999D01*
X208124500Y-111110999D01*
X208143500Y-111130999D01*
X208163500Y-111149999D01*
X208184500Y-111167999D01*
X208205500Y-111184999D01*
X208228500Y-111199999D01*
X208251500Y-111214999D01*
X208276500Y-111227999D01*
X208300500Y-111239999D01*
X208326500Y-111249999D01*
X208352500Y-111258999D01*
X208378500Y-111266999D01*
X208405500Y-111273999D01*
X208432500Y-111278999D01*
X208459500Y-111281999D01*
X208487500Y-111283999D01*
X208514500Y-111284999D01*
X208914500Y-111284999D01*
X208914500Y-110984999D01*
G36*
X208914500Y-117685999D02*
G01*
X209314500Y-117685999D01*
X209326500Y-117685999D01*
X209338500Y-117686999D01*
X209349500Y-117688999D01*
X209361500Y-117690999D01*
X209372500Y-117693999D01*
X209384500Y-117696999D01*
X209395500Y-117700999D01*
X209406500Y-117704999D01*
X209416500Y-117710999D01*
X209426500Y-117715999D01*
X209437500Y-117721999D01*
X209446500Y-117728999D01*
X209456500Y-117735999D01*
X209465500Y-117743999D01*
X209473500Y-117751999D01*
X209481500Y-117759999D01*
X209489500Y-117768999D01*
X209496500Y-117778999D01*
X209503500Y-117787999D01*
X209509500Y-117798999D01*
X209514500Y-117808999D01*
X209520500Y-117818999D01*
X209524500Y-117829999D01*
X209528500Y-117840999D01*
X209531500Y-117852999D01*
X209534500Y-117863999D01*
X209536500Y-117875999D01*
X209538500Y-117886999D01*
X209539500Y-117898999D01*
X209539500Y-117910999D01*
X209539500Y-117922999D01*
X209538500Y-117934999D01*
X209536500Y-117945999D01*
X209534500Y-117957999D01*
X209531500Y-117968999D01*
X209528500Y-117980999D01*
X209524500Y-117991999D01*
X209520500Y-118002999D01*
X209514500Y-118012999D01*
X209509500Y-118023999D01*
X209503500Y-118033999D01*
X209496500Y-118042999D01*
X209489500Y-118052999D01*
X209481500Y-118061999D01*
X209473500Y-118069999D01*
X209465500Y-118077999D01*
X209456500Y-118085999D01*
X209446500Y-118092999D01*
X209437500Y-118099999D01*
X209427500Y-118105999D01*
X209416500Y-118110999D01*
X209406500Y-118116999D01*
X209395500Y-118120999D01*
X209384500Y-118124999D01*
X209372500Y-118127999D01*
X209361500Y-118130999D01*
X209349500Y-118132999D01*
X209338500Y-118134999D01*
X209326500Y-118135999D01*
X209314500Y-118135999D01*
X208914500Y-118135999D01*
X208914500Y-118435999D01*
X209264500Y-118435999D01*
X209289500Y-118436999D01*
X209318500Y-118435999D01*
X209347500Y-118433999D01*
X209375500Y-118429999D01*
X209403500Y-118424999D01*
X209431500Y-118417999D01*
X209459500Y-118409999D01*
X209486500Y-118399999D01*
X209513500Y-118388999D01*
X209539500Y-118376999D01*
X209564500Y-118362999D01*
X209589500Y-118347999D01*
X209613500Y-118330999D01*
X209635500Y-118313999D01*
X209657500Y-118294999D01*
X209678500Y-118274999D01*
X209698500Y-118253999D01*
X209717500Y-118231999D01*
X209734500Y-118209999D01*
X209751500Y-118185999D01*
X209766500Y-118160999D01*
X209780500Y-118135999D01*
X209792500Y-118109999D01*
X209803500Y-118082999D01*
X209813500Y-118055999D01*
X209821500Y-118027999D01*
X209828500Y-117999999D01*
X209833500Y-117971999D01*
X209837500Y-117943999D01*
X209839500Y-117910999D01*
X209838500Y-117883999D01*
X209836500Y-117855999D01*
X209833500Y-117828999D01*
X209828500Y-117801999D01*
X209821500Y-117774999D01*
X209813500Y-117748999D01*
X209804500Y-117722999D01*
X209794500Y-117696999D01*
X209782500Y-117672999D01*
X209769500Y-117648999D01*
X209754500Y-117624999D01*
X209739500Y-117601999D01*
X209722500Y-117580999D01*
X209704500Y-117559999D01*
X209685500Y-117539999D01*
X209665500Y-117520999D01*
X209644500Y-117502999D01*
X209623500Y-117485999D01*
X209600500Y-117470999D01*
X209576500Y-117455999D01*
X209552500Y-117442999D01*
X209528500Y-117430999D01*
X209502500Y-117420999D01*
X209476500Y-117411999D01*
X209450500Y-117403999D01*
X209423500Y-117396999D01*
X209396500Y-117391999D01*
X209369500Y-117388999D01*
X209341500Y-117386999D01*
X209314500Y-117385999D01*
X208914500Y-117385999D01*
X208914500Y-117685999D01*
G37*
X208914500Y-117685999D02*
X209314500Y-117685999D01*
X209326500Y-117685999D01*
X209338500Y-117686999D01*
X209349500Y-117688999D01*
X209361500Y-117690999D01*
X209372500Y-117693999D01*
X209384500Y-117696999D01*
X209395500Y-117700999D01*
X209406500Y-117704999D01*
X209416500Y-117710999D01*
X209426500Y-117715999D01*
X209437500Y-117721999D01*
X209446500Y-117728999D01*
X209456500Y-117735999D01*
X209465500Y-117743999D01*
X209473500Y-117751999D01*
X209481500Y-117759999D01*
X209489500Y-117768999D01*
X209496500Y-117778999D01*
X209503500Y-117787999D01*
X209509500Y-117798999D01*
X209514500Y-117808999D01*
X209520500Y-117818999D01*
X209524500Y-117829999D01*
X209528500Y-117840999D01*
X209531500Y-117852999D01*
X209534500Y-117863999D01*
X209536500Y-117875999D01*
X209538500Y-117886999D01*
X209539500Y-117898999D01*
X209539500Y-117910999D01*
X209539500Y-117922999D01*
X209538500Y-117934999D01*
X209536500Y-117945999D01*
X209534500Y-117957999D01*
X209531500Y-117968999D01*
X209528500Y-117980999D01*
X209524500Y-117991999D01*
X209520500Y-118002999D01*
X209514500Y-118012999D01*
X209509500Y-118023999D01*
X209503500Y-118033999D01*
X209496500Y-118042999D01*
X209489500Y-118052999D01*
X209481500Y-118061999D01*
X209473500Y-118069999D01*
X209465500Y-118077999D01*
X209456500Y-118085999D01*
X209446500Y-118092999D01*
X209437500Y-118099999D01*
X209427500Y-118105999D01*
X209416500Y-118110999D01*
X209406500Y-118116999D01*
X209395500Y-118120999D01*
X209384500Y-118124999D01*
X209372500Y-118127999D01*
X209361500Y-118130999D01*
X209349500Y-118132999D01*
X209338500Y-118134999D01*
X209326500Y-118135999D01*
X209314500Y-118135999D01*
X208914500Y-118135999D01*
X208914500Y-118435999D01*
X209264500Y-118435999D01*
X209289500Y-118436999D01*
X209318500Y-118435999D01*
X209347500Y-118433999D01*
X209375500Y-118429999D01*
X209403500Y-118424999D01*
X209431500Y-118417999D01*
X209459500Y-118409999D01*
X209486500Y-118399999D01*
X209513500Y-118388999D01*
X209539500Y-118376999D01*
X209564500Y-118362999D01*
X209589500Y-118347999D01*
X209613500Y-118330999D01*
X209635500Y-118313999D01*
X209657500Y-118294999D01*
X209678500Y-118274999D01*
X209698500Y-118253999D01*
X209717500Y-118231999D01*
X209734500Y-118209999D01*
X209751500Y-118185999D01*
X209766500Y-118160999D01*
X209780500Y-118135999D01*
X209792500Y-118109999D01*
X209803500Y-118082999D01*
X209813500Y-118055999D01*
X209821500Y-118027999D01*
X209828500Y-117999999D01*
X209833500Y-117971999D01*
X209837500Y-117943999D01*
X209839500Y-117910999D01*
X209838500Y-117883999D01*
X209836500Y-117855999D01*
X209833500Y-117828999D01*
X209828500Y-117801999D01*
X209821500Y-117774999D01*
X209813500Y-117748999D01*
X209804500Y-117722999D01*
X209794500Y-117696999D01*
X209782500Y-117672999D01*
X209769500Y-117648999D01*
X209754500Y-117624999D01*
X209739500Y-117601999D01*
X209722500Y-117580999D01*
X209704500Y-117559999D01*
X209685500Y-117539999D01*
X209665500Y-117520999D01*
X209644500Y-117502999D01*
X209623500Y-117485999D01*
X209600500Y-117470999D01*
X209576500Y-117455999D01*
X209552500Y-117442999D01*
X209528500Y-117430999D01*
X209502500Y-117420999D01*
X209476500Y-117411999D01*
X209450500Y-117403999D01*
X209423500Y-117396999D01*
X209396500Y-117391999D01*
X209369500Y-117388999D01*
X209341500Y-117386999D01*
X209314500Y-117385999D01*
X208914500Y-117385999D01*
X208914500Y-117685999D01*
G36*
X208914500Y-118135999D02*
G01*
X208514500Y-118135999D01*
X208502500Y-118135999D01*
X208490500Y-118134999D01*
X208479500Y-118132999D01*
X208467500Y-118130999D01*
X208456500Y-118127999D01*
X208444500Y-118124999D01*
X208433500Y-118120999D01*
X208422500Y-118116999D01*
X208412500Y-118110999D01*
X208401500Y-118105999D01*
X208391500Y-118099999D01*
X208382500Y-118092999D01*
X208372500Y-118085999D01*
X208363500Y-118077999D01*
X208355500Y-118069999D01*
X208347500Y-118061999D01*
X208339500Y-118052999D01*
X208332500Y-118042999D01*
X208325500Y-118033999D01*
X208319500Y-118023999D01*
X208314500Y-118012999D01*
X208308500Y-118002999D01*
X208304500Y-117991999D01*
X208300500Y-117980999D01*
X208297500Y-117968999D01*
X208294500Y-117957999D01*
X208292500Y-117945999D01*
X208290500Y-117934999D01*
X208289500Y-117922999D01*
X208289500Y-117910999D01*
X208289500Y-117898999D01*
X208290500Y-117886999D01*
X208292500Y-117875999D01*
X208294500Y-117863999D01*
X208297500Y-117852999D01*
X208300500Y-117840999D01*
X208304500Y-117829999D01*
X208308500Y-117818999D01*
X208314500Y-117808999D01*
X208319500Y-117798999D01*
X208325500Y-117787999D01*
X208332500Y-117778999D01*
X208339500Y-117768999D01*
X208347500Y-117759999D01*
X208355500Y-117751999D01*
X208363500Y-117743999D01*
X208372500Y-117735999D01*
X208382500Y-117728999D01*
X208391500Y-117721999D01*
X208402500Y-117715999D01*
X208412500Y-117710999D01*
X208422500Y-117704999D01*
X208433500Y-117700999D01*
X208444500Y-117696999D01*
X208456500Y-117693999D01*
X208467500Y-117690999D01*
X208479500Y-117688999D01*
X208490500Y-117686999D01*
X208502500Y-117685999D01*
X208514500Y-117685999D01*
X208914500Y-117685999D01*
X208914500Y-117385999D01*
X208564500Y-117385999D01*
X208539500Y-117384999D01*
X208510500Y-117385999D01*
X208481500Y-117387999D01*
X208453500Y-117391999D01*
X208425500Y-117396999D01*
X208397500Y-117403999D01*
X208369500Y-117411999D01*
X208342500Y-117421999D01*
X208315500Y-117432999D01*
X208289500Y-117444999D01*
X208264500Y-117458999D01*
X208239500Y-117473999D01*
X208215500Y-117490999D01*
X208193500Y-117507999D01*
X208171500Y-117526999D01*
X208150500Y-117546999D01*
X208130500Y-117567999D01*
X208111500Y-117589999D01*
X208094500Y-117611999D01*
X208077500Y-117635999D01*
X208062500Y-117660999D01*
X208048500Y-117685999D01*
X208036500Y-117711999D01*
X208025500Y-117738999D01*
X208015500Y-117765999D01*
X208007500Y-117793999D01*
X208000500Y-117821999D01*
X207995500Y-117849999D01*
X207991500Y-117877999D01*
X207989500Y-117910999D01*
X207990500Y-117937999D01*
X207992500Y-117965999D01*
X207995500Y-117992999D01*
X208000500Y-118019999D01*
X208007500Y-118046999D01*
X208015500Y-118072999D01*
X208024500Y-118098999D01*
X208034500Y-118124999D01*
X208046500Y-118148999D01*
X208059500Y-118172999D01*
X208074500Y-118196999D01*
X208089500Y-118219999D01*
X208106500Y-118240999D01*
X208124500Y-118261999D01*
X208143500Y-118281999D01*
X208163500Y-118300999D01*
X208184500Y-118318999D01*
X208205500Y-118335999D01*
X208228500Y-118350999D01*
X208251500Y-118365999D01*
X208276500Y-118378999D01*
X208300500Y-118390999D01*
X208326500Y-118400999D01*
X208352500Y-118409999D01*
X208378500Y-118417999D01*
X208405500Y-118424999D01*
X208432500Y-118429999D01*
X208459500Y-118432999D01*
X208487500Y-118434999D01*
X208514500Y-118435999D01*
X208914500Y-118435999D01*
X208914500Y-118135999D01*
G37*
X208914500Y-118135999D02*
X208514500Y-118135999D01*
X208502500Y-118135999D01*
X208490500Y-118134999D01*
X208479500Y-118132999D01*
X208467500Y-118130999D01*
X208456500Y-118127999D01*
X208444500Y-118124999D01*
X208433500Y-118120999D01*
X208422500Y-118116999D01*
X208412500Y-118110999D01*
X208401500Y-118105999D01*
X208391500Y-118099999D01*
X208382500Y-118092999D01*
X208372500Y-118085999D01*
X208363500Y-118077999D01*
X208355500Y-118069999D01*
X208347500Y-118061999D01*
X208339500Y-118052999D01*
X208332500Y-118042999D01*
X208325500Y-118033999D01*
X208319500Y-118023999D01*
X208314500Y-118012999D01*
X208308500Y-118002999D01*
X208304500Y-117991999D01*
X208300500Y-117980999D01*
X208297500Y-117968999D01*
X208294500Y-117957999D01*
X208292500Y-117945999D01*
X208290500Y-117934999D01*
X208289500Y-117922999D01*
X208289500Y-117910999D01*
X208289500Y-117898999D01*
X208290500Y-117886999D01*
X208292500Y-117875999D01*
X208294500Y-117863999D01*
X208297500Y-117852999D01*
X208300500Y-117840999D01*
X208304500Y-117829999D01*
X208308500Y-117818999D01*
X208314500Y-117808999D01*
X208319500Y-117798999D01*
X208325500Y-117787999D01*
X208332500Y-117778999D01*
X208339500Y-117768999D01*
X208347500Y-117759999D01*
X208355500Y-117751999D01*
X208363500Y-117743999D01*
X208372500Y-117735999D01*
X208382500Y-117728999D01*
X208391500Y-117721999D01*
X208402500Y-117715999D01*
X208412500Y-117710999D01*
X208422500Y-117704999D01*
X208433500Y-117700999D01*
X208444500Y-117696999D01*
X208456500Y-117693999D01*
X208467500Y-117690999D01*
X208479500Y-117688999D01*
X208490500Y-117686999D01*
X208502500Y-117685999D01*
X208514500Y-117685999D01*
X208914500Y-117685999D01*
X208914500Y-117385999D01*
X208564500Y-117385999D01*
X208539500Y-117384999D01*
X208510500Y-117385999D01*
X208481500Y-117387999D01*
X208453500Y-117391999D01*
X208425500Y-117396999D01*
X208397500Y-117403999D01*
X208369500Y-117411999D01*
X208342500Y-117421999D01*
X208315500Y-117432999D01*
X208289500Y-117444999D01*
X208264500Y-117458999D01*
X208239500Y-117473999D01*
X208215500Y-117490999D01*
X208193500Y-117507999D01*
X208171500Y-117526999D01*
X208150500Y-117546999D01*
X208130500Y-117567999D01*
X208111500Y-117589999D01*
X208094500Y-117611999D01*
X208077500Y-117635999D01*
X208062500Y-117660999D01*
X208048500Y-117685999D01*
X208036500Y-117711999D01*
X208025500Y-117738999D01*
X208015500Y-117765999D01*
X208007500Y-117793999D01*
X208000500Y-117821999D01*
X207995500Y-117849999D01*
X207991500Y-117877999D01*
X207989500Y-117910999D01*
X207990500Y-117937999D01*
X207992500Y-117965999D01*
X207995500Y-117992999D01*
X208000500Y-118019999D01*
X208007500Y-118046999D01*
X208015500Y-118072999D01*
X208024500Y-118098999D01*
X208034500Y-118124999D01*
X208046500Y-118148999D01*
X208059500Y-118172999D01*
X208074500Y-118196999D01*
X208089500Y-118219999D01*
X208106500Y-118240999D01*
X208124500Y-118261999D01*
X208143500Y-118281999D01*
X208163500Y-118300999D01*
X208184500Y-118318999D01*
X208205500Y-118335999D01*
X208228500Y-118350999D01*
X208251500Y-118365999D01*
X208276500Y-118378999D01*
X208300500Y-118390999D01*
X208326500Y-118400999D01*
X208352500Y-118409999D01*
X208378500Y-118417999D01*
X208405500Y-118424999D01*
X208432500Y-118429999D01*
X208459500Y-118432999D01*
X208487500Y-118434999D01*
X208514500Y-118435999D01*
X208914500Y-118435999D01*
X208914500Y-118135999D01*
G36*
X208914500Y-117684999D02*
G01*
X209314500Y-117684999D01*
X209326500Y-117684999D01*
X209338500Y-117685999D01*
X209349500Y-117687999D01*
X209361500Y-117689999D01*
X209372500Y-117692999D01*
X209384500Y-117695999D01*
X209395500Y-117699999D01*
X209406500Y-117703999D01*
X209416500Y-117709999D01*
X209427500Y-117714999D01*
X209437500Y-117720999D01*
X209446500Y-117727999D01*
X209456500Y-117734999D01*
X209465500Y-117742999D01*
X209473500Y-117750999D01*
X209481500Y-117758999D01*
X209489500Y-117767999D01*
X209496500Y-117777999D01*
X209503500Y-117786999D01*
X209509500Y-117797999D01*
X209514500Y-117807999D01*
X209520500Y-117817999D01*
X209524500Y-117828999D01*
X209528500Y-117839999D01*
X209531500Y-117851999D01*
X209534500Y-117862999D01*
X209536500Y-117874999D01*
X209538500Y-117885999D01*
X209539500Y-117897999D01*
X209539500Y-117909999D01*
X209539500Y-117921999D01*
X209538500Y-117933999D01*
X209536500Y-117944999D01*
X209534500Y-117956999D01*
X209531500Y-117967999D01*
X209528500Y-117979999D01*
X209524500Y-117990999D01*
X209520500Y-118001999D01*
X209514500Y-118011999D01*
X209509500Y-118021999D01*
X209503500Y-118032999D01*
X209496500Y-118041999D01*
X209489500Y-118051999D01*
X209481500Y-118060999D01*
X209473500Y-118068999D01*
X209465500Y-118076999D01*
X209456500Y-118084999D01*
X209446500Y-118091999D01*
X209437500Y-118098999D01*
X209426500Y-118104999D01*
X209416500Y-118109999D01*
X209406500Y-118115999D01*
X209395500Y-118119999D01*
X209384500Y-118123999D01*
X209372500Y-118126999D01*
X209361500Y-118129999D01*
X209349500Y-118131999D01*
X209338500Y-118133999D01*
X209326500Y-118134999D01*
X209314500Y-118134999D01*
X208914500Y-118134999D01*
X208914500Y-118434999D01*
X209269500Y-118434999D01*
X209301500Y-118434999D01*
X209330500Y-118433999D01*
X209358500Y-118430999D01*
X209387500Y-118426999D01*
X209415500Y-118420999D01*
X209443500Y-118413999D01*
X209470500Y-118405999D01*
X209497500Y-118395999D01*
X209523500Y-118383999D01*
X209549500Y-118370999D01*
X209574500Y-118356999D01*
X209598500Y-118341999D01*
X209621500Y-118324999D01*
X209644500Y-118306999D01*
X209665500Y-118287999D01*
X209686500Y-118267999D01*
X209705500Y-118246999D01*
X209723500Y-118224999D01*
X209740500Y-118201999D01*
X209756500Y-118177999D01*
X209771500Y-118152999D01*
X209784500Y-118127999D01*
X209796500Y-118101999D01*
X209806500Y-118074999D01*
X209816500Y-118047999D01*
X209823500Y-118019999D01*
X209829500Y-117991999D01*
X209834500Y-117963999D01*
X209837500Y-117934999D01*
X209839500Y-117909999D01*
X209838500Y-117882999D01*
X209836500Y-117854999D01*
X209833500Y-117827999D01*
X209828500Y-117800999D01*
X209821500Y-117773999D01*
X209813500Y-117747999D01*
X209804500Y-117721999D01*
X209794500Y-117695999D01*
X209782500Y-117671999D01*
X209769500Y-117646999D01*
X209754500Y-117623999D01*
X209739500Y-117600999D01*
X209722500Y-117579999D01*
X209704500Y-117558999D01*
X209685500Y-117538999D01*
X209665500Y-117519999D01*
X209644500Y-117501999D01*
X209623500Y-117484999D01*
X209600500Y-117469999D01*
X209577500Y-117454999D01*
X209552500Y-117441999D01*
X209528500Y-117429999D01*
X209502500Y-117419999D01*
X209476500Y-117410999D01*
X209450500Y-117402999D01*
X209423500Y-117395999D01*
X209396500Y-117390999D01*
X209369500Y-117387999D01*
X209341500Y-117385999D01*
X209314500Y-117384999D01*
X208914500Y-117384999D01*
X208914500Y-117684999D01*
G37*
X208914500Y-117684999D02*
X209314500Y-117684999D01*
X209326500Y-117684999D01*
X209338500Y-117685999D01*
X209349500Y-117687999D01*
X209361500Y-117689999D01*
X209372500Y-117692999D01*
X209384500Y-117695999D01*
X209395500Y-117699999D01*
X209406500Y-117703999D01*
X209416500Y-117709999D01*
X209427500Y-117714999D01*
X209437500Y-117720999D01*
X209446500Y-117727999D01*
X209456500Y-117734999D01*
X209465500Y-117742999D01*
X209473500Y-117750999D01*
X209481500Y-117758999D01*
X209489500Y-117767999D01*
X209496500Y-117777999D01*
X209503500Y-117786999D01*
X209509500Y-117797999D01*
X209514500Y-117807999D01*
X209520500Y-117817999D01*
X209524500Y-117828999D01*
X209528500Y-117839999D01*
X209531500Y-117851999D01*
X209534500Y-117862999D01*
X209536500Y-117874999D01*
X209538500Y-117885999D01*
X209539500Y-117897999D01*
X209539500Y-117909999D01*
X209539500Y-117921999D01*
X209538500Y-117933999D01*
X209536500Y-117944999D01*
X209534500Y-117956999D01*
X209531500Y-117967999D01*
X209528500Y-117979999D01*
X209524500Y-117990999D01*
X209520500Y-118001999D01*
X209514500Y-118011999D01*
X209509500Y-118021999D01*
X209503500Y-118032999D01*
X209496500Y-118041999D01*
X209489500Y-118051999D01*
X209481500Y-118060999D01*
X209473500Y-118068999D01*
X209465500Y-118076999D01*
X209456500Y-118084999D01*
X209446500Y-118091999D01*
X209437500Y-118098999D01*
X209426500Y-118104999D01*
X209416500Y-118109999D01*
X209406500Y-118115999D01*
X209395500Y-118119999D01*
X209384500Y-118123999D01*
X209372500Y-118126999D01*
X209361500Y-118129999D01*
X209349500Y-118131999D01*
X209338500Y-118133999D01*
X209326500Y-118134999D01*
X209314500Y-118134999D01*
X208914500Y-118134999D01*
X208914500Y-118434999D01*
X209269500Y-118434999D01*
X209301500Y-118434999D01*
X209330500Y-118433999D01*
X209358500Y-118430999D01*
X209387500Y-118426999D01*
X209415500Y-118420999D01*
X209443500Y-118413999D01*
X209470500Y-118405999D01*
X209497500Y-118395999D01*
X209523500Y-118383999D01*
X209549500Y-118370999D01*
X209574500Y-118356999D01*
X209598500Y-118341999D01*
X209621500Y-118324999D01*
X209644500Y-118306999D01*
X209665500Y-118287999D01*
X209686500Y-118267999D01*
X209705500Y-118246999D01*
X209723500Y-118224999D01*
X209740500Y-118201999D01*
X209756500Y-118177999D01*
X209771500Y-118152999D01*
X209784500Y-118127999D01*
X209796500Y-118101999D01*
X209806500Y-118074999D01*
X209816500Y-118047999D01*
X209823500Y-118019999D01*
X209829500Y-117991999D01*
X209834500Y-117963999D01*
X209837500Y-117934999D01*
X209839500Y-117909999D01*
X209838500Y-117882999D01*
X209836500Y-117854999D01*
X209833500Y-117827999D01*
X209828500Y-117800999D01*
X209821500Y-117773999D01*
X209813500Y-117747999D01*
X209804500Y-117721999D01*
X209794500Y-117695999D01*
X209782500Y-117671999D01*
X209769500Y-117646999D01*
X209754500Y-117623999D01*
X209739500Y-117600999D01*
X209722500Y-117579999D01*
X209704500Y-117558999D01*
X209685500Y-117538999D01*
X209665500Y-117519999D01*
X209644500Y-117501999D01*
X209623500Y-117484999D01*
X209600500Y-117469999D01*
X209577500Y-117454999D01*
X209552500Y-117441999D01*
X209528500Y-117429999D01*
X209502500Y-117419999D01*
X209476500Y-117410999D01*
X209450500Y-117402999D01*
X209423500Y-117395999D01*
X209396500Y-117390999D01*
X209369500Y-117387999D01*
X209341500Y-117385999D01*
X209314500Y-117384999D01*
X208914500Y-117384999D01*
X208914500Y-117684999D01*
G36*
X208914500Y-118134999D02*
G01*
X208514500Y-118134999D01*
X208502500Y-118134999D01*
X208490500Y-118133999D01*
X208479500Y-118131999D01*
X208467500Y-118129999D01*
X208456500Y-118126999D01*
X208444500Y-118123999D01*
X208433500Y-118119999D01*
X208422500Y-118115999D01*
X208412500Y-118109999D01*
X208402500Y-118104999D01*
X208391500Y-118098999D01*
X208382500Y-118091999D01*
X208372500Y-118084999D01*
X208363500Y-118076999D01*
X208355500Y-118068999D01*
X208347500Y-118060999D01*
X208339500Y-118051999D01*
X208332500Y-118041999D01*
X208325500Y-118032999D01*
X208319500Y-118021999D01*
X208314500Y-118011999D01*
X208308500Y-118001999D01*
X208304500Y-117990999D01*
X208300500Y-117979999D01*
X208297500Y-117967999D01*
X208294500Y-117956999D01*
X208292500Y-117944999D01*
X208290500Y-117933999D01*
X208289500Y-117921999D01*
X208289500Y-117909999D01*
X208289500Y-117897999D01*
X208290500Y-117885999D01*
X208292500Y-117874999D01*
X208294500Y-117862999D01*
X208297500Y-117851999D01*
X208300500Y-117839999D01*
X208304500Y-117828999D01*
X208308500Y-117817999D01*
X208314500Y-117807999D01*
X208319500Y-117797999D01*
X208325500Y-117786999D01*
X208332500Y-117777999D01*
X208339500Y-117767999D01*
X208347500Y-117758999D01*
X208355500Y-117750999D01*
X208363500Y-117742999D01*
X208372500Y-117734999D01*
X208382500Y-117727999D01*
X208391500Y-117720999D01*
X208401500Y-117714999D01*
X208412500Y-117709999D01*
X208422500Y-117703999D01*
X208433500Y-117699999D01*
X208444500Y-117695999D01*
X208456500Y-117692999D01*
X208467500Y-117689999D01*
X208479500Y-117687999D01*
X208490500Y-117685999D01*
X208502500Y-117684999D01*
X208514500Y-117684999D01*
X208914500Y-117684999D01*
X208914500Y-117384999D01*
X208559500Y-117384999D01*
X208527500Y-117384999D01*
X208498500Y-117385999D01*
X208470500Y-117388999D01*
X208441500Y-117392999D01*
X208413500Y-117398999D01*
X208385500Y-117405999D01*
X208358500Y-117413999D01*
X208331500Y-117423999D01*
X208305500Y-117435999D01*
X208279500Y-117448999D01*
X208254500Y-117462999D01*
X208230500Y-117477999D01*
X208207500Y-117494999D01*
X208184500Y-117512999D01*
X208163500Y-117531999D01*
X208142500Y-117551999D01*
X208123500Y-117572999D01*
X208105500Y-117594999D01*
X208088500Y-117617999D01*
X208072500Y-117641999D01*
X208057500Y-117666999D01*
X208044500Y-117691999D01*
X208032500Y-117717999D01*
X208022500Y-117744999D01*
X208012500Y-117771999D01*
X208005500Y-117799999D01*
X207999500Y-117827999D01*
X207994500Y-117855999D01*
X207991500Y-117884999D01*
X207989500Y-117909999D01*
X207990500Y-117936999D01*
X207992500Y-117964999D01*
X207995500Y-117991999D01*
X208000500Y-118018999D01*
X208007500Y-118045999D01*
X208015500Y-118071999D01*
X208024500Y-118097999D01*
X208034500Y-118123999D01*
X208046500Y-118147999D01*
X208059500Y-118172999D01*
X208074500Y-118195999D01*
X208089500Y-118218999D01*
X208106500Y-118239999D01*
X208124500Y-118260999D01*
X208143500Y-118280999D01*
X208163500Y-118299999D01*
X208184500Y-118317999D01*
X208205500Y-118334999D01*
X208228500Y-118349999D01*
X208252500Y-118364999D01*
X208276500Y-118377999D01*
X208300500Y-118389999D01*
X208326500Y-118399999D01*
X208352500Y-118408999D01*
X208378500Y-118416999D01*
X208405500Y-118423999D01*
X208432500Y-118428999D01*
X208459500Y-118431999D01*
X208487500Y-118433999D01*
X208514500Y-118434999D01*
X208914500Y-118434999D01*
X208914500Y-118134999D01*
G37*
X208914500Y-118134999D02*
X208514500Y-118134999D01*
X208502500Y-118134999D01*
X208490500Y-118133999D01*
X208479500Y-118131999D01*
X208467500Y-118129999D01*
X208456500Y-118126999D01*
X208444500Y-118123999D01*
X208433500Y-118119999D01*
X208422500Y-118115999D01*
X208412500Y-118109999D01*
X208402500Y-118104999D01*
X208391500Y-118098999D01*
X208382500Y-118091999D01*
X208372500Y-118084999D01*
X208363500Y-118076999D01*
X208355500Y-118068999D01*
X208347500Y-118060999D01*
X208339500Y-118051999D01*
X208332500Y-118041999D01*
X208325500Y-118032999D01*
X208319500Y-118021999D01*
X208314500Y-118011999D01*
X208308500Y-118001999D01*
X208304500Y-117990999D01*
X208300500Y-117979999D01*
X208297500Y-117967999D01*
X208294500Y-117956999D01*
X208292500Y-117944999D01*
X208290500Y-117933999D01*
X208289500Y-117921999D01*
X208289500Y-117909999D01*
X208289500Y-117897999D01*
X208290500Y-117885999D01*
X208292500Y-117874999D01*
X208294500Y-117862999D01*
X208297500Y-117851999D01*
X208300500Y-117839999D01*
X208304500Y-117828999D01*
X208308500Y-117817999D01*
X208314500Y-117807999D01*
X208319500Y-117797999D01*
X208325500Y-117786999D01*
X208332500Y-117777999D01*
X208339500Y-117767999D01*
X208347500Y-117758999D01*
X208355500Y-117750999D01*
X208363500Y-117742999D01*
X208372500Y-117734999D01*
X208382500Y-117727999D01*
X208391500Y-117720999D01*
X208401500Y-117714999D01*
X208412500Y-117709999D01*
X208422500Y-117703999D01*
X208433500Y-117699999D01*
X208444500Y-117695999D01*
X208456500Y-117692999D01*
X208467500Y-117689999D01*
X208479500Y-117687999D01*
X208490500Y-117685999D01*
X208502500Y-117684999D01*
X208514500Y-117684999D01*
X208914500Y-117684999D01*
X208914500Y-117384999D01*
X208559500Y-117384999D01*
X208527500Y-117384999D01*
X208498500Y-117385999D01*
X208470500Y-117388999D01*
X208441500Y-117392999D01*
X208413500Y-117398999D01*
X208385500Y-117405999D01*
X208358500Y-117413999D01*
X208331500Y-117423999D01*
X208305500Y-117435999D01*
X208279500Y-117448999D01*
X208254500Y-117462999D01*
X208230500Y-117477999D01*
X208207500Y-117494999D01*
X208184500Y-117512999D01*
X208163500Y-117531999D01*
X208142500Y-117551999D01*
X208123500Y-117572999D01*
X208105500Y-117594999D01*
X208088500Y-117617999D01*
X208072500Y-117641999D01*
X208057500Y-117666999D01*
X208044500Y-117691999D01*
X208032500Y-117717999D01*
X208022500Y-117744999D01*
X208012500Y-117771999D01*
X208005500Y-117799999D01*
X207999500Y-117827999D01*
X207994500Y-117855999D01*
X207991500Y-117884999D01*
X207989500Y-117909999D01*
X207990500Y-117936999D01*
X207992500Y-117964999D01*
X207995500Y-117991999D01*
X208000500Y-118018999D01*
X208007500Y-118045999D01*
X208015500Y-118071999D01*
X208024500Y-118097999D01*
X208034500Y-118123999D01*
X208046500Y-118147999D01*
X208059500Y-118172999D01*
X208074500Y-118195999D01*
X208089500Y-118218999D01*
X208106500Y-118239999D01*
X208124500Y-118260999D01*
X208143500Y-118280999D01*
X208163500Y-118299999D01*
X208184500Y-118317999D01*
X208205500Y-118334999D01*
X208228500Y-118349999D01*
X208252500Y-118364999D01*
X208276500Y-118377999D01*
X208300500Y-118389999D01*
X208326500Y-118399999D01*
X208352500Y-118408999D01*
X208378500Y-118416999D01*
X208405500Y-118423999D01*
X208432500Y-118428999D01*
X208459500Y-118431999D01*
X208487500Y-118433999D01*
X208514500Y-118434999D01*
X208914500Y-118434999D01*
X208914500Y-118134999D01*
%TD*%
%TO.C,U5*%
G36*
G01*
X199510999Y-114613000D02*
X200061001Y-114613000D01*
G75*
G02*
X200311000Y-114862999I0J-249999D01*
G01*
X200311000Y-115413001D01*
G75*
G02*
X200061001Y-115663000I-249999J0D01*
G01*
X199510999Y-115663000D01*
G75*
G02*
X199261000Y-115413001I0J249999D01*
G01*
X199261000Y-114862999D01*
G75*
G02*
X199510999Y-114613000I249999J0D01*
G01*
G37*
G36*
G01*
X198210999Y-114613000D02*
X198761001Y-114613000D01*
G75*
G02*
X199011000Y-114862999I0J-249999D01*
G01*
X199011000Y-115413001D01*
G75*
G02*
X198761001Y-115663000I-249999J0D01*
G01*
X198210999Y-115663000D01*
G75*
G02*
X197961000Y-115413001I0J249999D01*
G01*
X197961000Y-114862999D01*
G75*
G02*
X198210999Y-114613000I249999J0D01*
G01*
G37*
G36*
G01*
X199510999Y-113313000D02*
X200061001Y-113313000D01*
G75*
G02*
X200311000Y-113562999I0J-249999D01*
G01*
X200311000Y-114113001D01*
G75*
G02*
X200061001Y-114363000I-249999J0D01*
G01*
X199510999Y-114363000D01*
G75*
G02*
X199261000Y-114113001I0J249999D01*
G01*
X199261000Y-113562999D01*
G75*
G02*
X199510999Y-113313000I249999J0D01*
G01*
G37*
G36*
G01*
X198210999Y-113313000D02*
X198761001Y-113313000D01*
G75*
G02*
X199011000Y-113562999I0J-249999D01*
G01*
X199011000Y-114113001D01*
G75*
G02*
X198761001Y-114363000I-249999J0D01*
G01*
X198210999Y-114363000D01*
G75*
G02*
X197961000Y-114113001I0J249999D01*
G01*
X197961000Y-113562999D01*
G75*
G02*
X198210999Y-113313000I249999J0D01*
G01*
G37*
G36*
G01*
X196848500Y-113113000D02*
X197548500Y-113113000D01*
G75*
G02*
X197611000Y-113175500I0J-62500D01*
G01*
X197611000Y-113300500D01*
G75*
G02*
X197548500Y-113363000I-62500J0D01*
G01*
X196848500Y-113363000D01*
G75*
G02*
X196786000Y-113300500I0J62500D01*
G01*
X196786000Y-113175500D01*
G75*
G02*
X196848500Y-113113000I62500J0D01*
G01*
G37*
G36*
G01*
X196848500Y-113613000D02*
X197548500Y-113613000D01*
G75*
G02*
X197611000Y-113675500I0J-62500D01*
G01*
X197611000Y-113800500D01*
G75*
G02*
X197548500Y-113863000I-62500J0D01*
G01*
X196848500Y-113863000D01*
G75*
G02*
X196786000Y-113800500I0J62500D01*
G01*
X196786000Y-113675500D01*
G75*
G02*
X196848500Y-113613000I62500J0D01*
G01*
G37*
G36*
G01*
X196848500Y-114113000D02*
X197548500Y-114113000D01*
G75*
G02*
X197611000Y-114175500I0J-62500D01*
G01*
X197611000Y-114300500D01*
G75*
G02*
X197548500Y-114363000I-62500J0D01*
G01*
X196848500Y-114363000D01*
G75*
G02*
X196786000Y-114300500I0J62500D01*
G01*
X196786000Y-114175500D01*
G75*
G02*
X196848500Y-114113000I62500J0D01*
G01*
G37*
G36*
G01*
X196848500Y-114613000D02*
X197548500Y-114613000D01*
G75*
G02*
X197611000Y-114675500I0J-62500D01*
G01*
X197611000Y-114800500D01*
G75*
G02*
X197548500Y-114863000I-62500J0D01*
G01*
X196848500Y-114863000D01*
G75*
G02*
X196786000Y-114800500I0J62500D01*
G01*
X196786000Y-114675500D01*
G75*
G02*
X196848500Y-114613000I62500J0D01*
G01*
G37*
G36*
G01*
X196848500Y-115113000D02*
X197548500Y-115113000D01*
G75*
G02*
X197611000Y-115175500I0J-62500D01*
G01*
X197611000Y-115300500D01*
G75*
G02*
X197548500Y-115363000I-62500J0D01*
G01*
X196848500Y-115363000D01*
G75*
G02*
X196786000Y-115300500I0J62500D01*
G01*
X196786000Y-115175500D01*
G75*
G02*
X196848500Y-115113000I62500J0D01*
G01*
G37*
G36*
G01*
X196848500Y-115613000D02*
X197548500Y-115613000D01*
G75*
G02*
X197611000Y-115675500I0J-62500D01*
G01*
X197611000Y-115800500D01*
G75*
G02*
X197548500Y-115863000I-62500J0D01*
G01*
X196848500Y-115863000D01*
G75*
G02*
X196786000Y-115800500I0J62500D01*
G01*
X196786000Y-115675500D01*
G75*
G02*
X196848500Y-115613000I62500J0D01*
G01*
G37*
G36*
G01*
X197823500Y-116013000D02*
X197948500Y-116013000D01*
G75*
G02*
X198011000Y-116075500I0J-62500D01*
G01*
X198011000Y-116775500D01*
G75*
G02*
X197948500Y-116838000I-62500J0D01*
G01*
X197823500Y-116838000D01*
G75*
G02*
X197761000Y-116775500I0J62500D01*
G01*
X197761000Y-116075500D01*
G75*
G02*
X197823500Y-116013000I62500J0D01*
G01*
G37*
G36*
G01*
X198323500Y-116013000D02*
X198448500Y-116013000D01*
G75*
G02*
X198511000Y-116075500I0J-62500D01*
G01*
X198511000Y-116775500D01*
G75*
G02*
X198448500Y-116838000I-62500J0D01*
G01*
X198323500Y-116838000D01*
G75*
G02*
X198261000Y-116775500I0J62500D01*
G01*
X198261000Y-116075500D01*
G75*
G02*
X198323500Y-116013000I62500J0D01*
G01*
G37*
G36*
G01*
X198823500Y-116013000D02*
X198948500Y-116013000D01*
G75*
G02*
X199011000Y-116075500I0J-62500D01*
G01*
X199011000Y-116775500D01*
G75*
G02*
X198948500Y-116838000I-62500J0D01*
G01*
X198823500Y-116838000D01*
G75*
G02*
X198761000Y-116775500I0J62500D01*
G01*
X198761000Y-116075500D01*
G75*
G02*
X198823500Y-116013000I62500J0D01*
G01*
G37*
G36*
G01*
X199323500Y-116013000D02*
X199448500Y-116013000D01*
G75*
G02*
X199511000Y-116075500I0J-62500D01*
G01*
X199511000Y-116775500D01*
G75*
G02*
X199448500Y-116838000I-62500J0D01*
G01*
X199323500Y-116838000D01*
G75*
G02*
X199261000Y-116775500I0J62500D01*
G01*
X199261000Y-116075500D01*
G75*
G02*
X199323500Y-116013000I62500J0D01*
G01*
G37*
G36*
G01*
X199823500Y-116013000D02*
X199948500Y-116013000D01*
G75*
G02*
X200011000Y-116075500I0J-62500D01*
G01*
X200011000Y-116775500D01*
G75*
G02*
X199948500Y-116838000I-62500J0D01*
G01*
X199823500Y-116838000D01*
G75*
G02*
X199761000Y-116775500I0J62500D01*
G01*
X199761000Y-116075500D01*
G75*
G02*
X199823500Y-116013000I62500J0D01*
G01*
G37*
G36*
G01*
X200323500Y-116013000D02*
X200448500Y-116013000D01*
G75*
G02*
X200511000Y-116075500I0J-62500D01*
G01*
X200511000Y-116775500D01*
G75*
G02*
X200448500Y-116838000I-62500J0D01*
G01*
X200323500Y-116838000D01*
G75*
G02*
X200261000Y-116775500I0J62500D01*
G01*
X200261000Y-116075500D01*
G75*
G02*
X200323500Y-116013000I62500J0D01*
G01*
G37*
G36*
G01*
X200723500Y-115613000D02*
X201423500Y-115613000D01*
G75*
G02*
X201486000Y-115675500I0J-62500D01*
G01*
X201486000Y-115800500D01*
G75*
G02*
X201423500Y-115863000I-62500J0D01*
G01*
X200723500Y-115863000D01*
G75*
G02*
X200661000Y-115800500I0J62500D01*
G01*
X200661000Y-115675500D01*
G75*
G02*
X200723500Y-115613000I62500J0D01*
G01*
G37*
G36*
G01*
X200723500Y-115113000D02*
X201423500Y-115113000D01*
G75*
G02*
X201486000Y-115175500I0J-62500D01*
G01*
X201486000Y-115300500D01*
G75*
G02*
X201423500Y-115363000I-62500J0D01*
G01*
X200723500Y-115363000D01*
G75*
G02*
X200661000Y-115300500I0J62500D01*
G01*
X200661000Y-115175500D01*
G75*
G02*
X200723500Y-115113000I62500J0D01*
G01*
G37*
G36*
G01*
X200723500Y-114613000D02*
X201423500Y-114613000D01*
G75*
G02*
X201486000Y-114675500I0J-62500D01*
G01*
X201486000Y-114800500D01*
G75*
G02*
X201423500Y-114863000I-62500J0D01*
G01*
X200723500Y-114863000D01*
G75*
G02*
X200661000Y-114800500I0J62500D01*
G01*
X200661000Y-114675500D01*
G75*
G02*
X200723500Y-114613000I62500J0D01*
G01*
G37*
G36*
G01*
X200723500Y-114113000D02*
X201423500Y-114113000D01*
G75*
G02*
X201486000Y-114175500I0J-62500D01*
G01*
X201486000Y-114300500D01*
G75*
G02*
X201423500Y-114363000I-62500J0D01*
G01*
X200723500Y-114363000D01*
G75*
G02*
X200661000Y-114300500I0J62500D01*
G01*
X200661000Y-114175500D01*
G75*
G02*
X200723500Y-114113000I62500J0D01*
G01*
G37*
G36*
G01*
X200723500Y-113613000D02*
X201423500Y-113613000D01*
G75*
G02*
X201486000Y-113675500I0J-62500D01*
G01*
X201486000Y-113800500D01*
G75*
G02*
X201423500Y-113863000I-62500J0D01*
G01*
X200723500Y-113863000D01*
G75*
G02*
X200661000Y-113800500I0J62500D01*
G01*
X200661000Y-113675500D01*
G75*
G02*
X200723500Y-113613000I62500J0D01*
G01*
G37*
G36*
G01*
X200723500Y-113113000D02*
X201423500Y-113113000D01*
G75*
G02*
X201486000Y-113175500I0J-62500D01*
G01*
X201486000Y-113300500D01*
G75*
G02*
X201423500Y-113363000I-62500J0D01*
G01*
X200723500Y-113363000D01*
G75*
G02*
X200661000Y-113300500I0J62500D01*
G01*
X200661000Y-113175500D01*
G75*
G02*
X200723500Y-113113000I62500J0D01*
G01*
G37*
G36*
G01*
X200323500Y-112138000D02*
X200448500Y-112138000D01*
G75*
G02*
X200511000Y-112200500I0J-62500D01*
G01*
X200511000Y-112900500D01*
G75*
G02*
X200448500Y-112963000I-62500J0D01*
G01*
X200323500Y-112963000D01*
G75*
G02*
X200261000Y-112900500I0J62500D01*
G01*
X200261000Y-112200500D01*
G75*
G02*
X200323500Y-112138000I62500J0D01*
G01*
G37*
G36*
G01*
X199823500Y-112138000D02*
X199948500Y-112138000D01*
G75*
G02*
X200011000Y-112200500I0J-62500D01*
G01*
X200011000Y-112900500D01*
G75*
G02*
X199948500Y-112963000I-62500J0D01*
G01*
X199823500Y-112963000D01*
G75*
G02*
X199761000Y-112900500I0J62500D01*
G01*
X199761000Y-112200500D01*
G75*
G02*
X199823500Y-112138000I62500J0D01*
G01*
G37*
G36*
G01*
X199323500Y-112138000D02*
X199448500Y-112138000D01*
G75*
G02*
X199511000Y-112200500I0J-62500D01*
G01*
X199511000Y-112900500D01*
G75*
G02*
X199448500Y-112963000I-62500J0D01*
G01*
X199323500Y-112963000D01*
G75*
G02*
X199261000Y-112900500I0J62500D01*
G01*
X199261000Y-112200500D01*
G75*
G02*
X199323500Y-112138000I62500J0D01*
G01*
G37*
G36*
G01*
X198823500Y-112138000D02*
X198948500Y-112138000D01*
G75*
G02*
X199011000Y-112200500I0J-62500D01*
G01*
X199011000Y-112900500D01*
G75*
G02*
X198948500Y-112963000I-62500J0D01*
G01*
X198823500Y-112963000D01*
G75*
G02*
X198761000Y-112900500I0J62500D01*
G01*
X198761000Y-112200500D01*
G75*
G02*
X198823500Y-112138000I62500J0D01*
G01*
G37*
G36*
G01*
X198323500Y-112138000D02*
X198448500Y-112138000D01*
G75*
G02*
X198511000Y-112200500I0J-62500D01*
G01*
X198511000Y-112900500D01*
G75*
G02*
X198448500Y-112963000I-62500J0D01*
G01*
X198323500Y-112963000D01*
G75*
G02*
X198261000Y-112900500I0J62500D01*
G01*
X198261000Y-112200500D01*
G75*
G02*
X198323500Y-112138000I62500J0D01*
G01*
G37*
G36*
G01*
X197823500Y-112138000D02*
X197948500Y-112138000D01*
G75*
G02*
X198011000Y-112200500I0J-62500D01*
G01*
X198011000Y-112900500D01*
G75*
G02*
X197948500Y-112963000I-62500J0D01*
G01*
X197823500Y-112963000D01*
G75*
G02*
X197761000Y-112900500I0J62500D01*
G01*
X197761000Y-112200500D01*
G75*
G02*
X197823500Y-112138000I62500J0D01*
G01*
G37*
%TD*%
%TO.C,R14*%
G36*
G01*
X198667000Y-106464999D02*
X199142000Y-106464999D01*
G75*
G02*
X199379500Y-106702499I0J-237500D01*
G01*
X199379500Y-107202499D01*
G75*
G02*
X199142000Y-107439999I-237500J0D01*
G01*
X198667000Y-107439999D01*
G75*
G02*
X198429500Y-107202499I0J237500D01*
G01*
X198429500Y-106702499D01*
G75*
G02*
X198667000Y-106464999I237500J0D01*
G01*
G37*
G36*
G01*
X198667000Y-104639999D02*
X199142000Y-104639999D01*
G75*
G02*
X199379500Y-104877499I0J-237500D01*
G01*
X199379500Y-105377499D01*
G75*
G02*
X199142000Y-105614999I-237500J0D01*
G01*
X198667000Y-105614999D01*
G75*
G02*
X198429500Y-105377499I0J237500D01*
G01*
X198429500Y-104877499D01*
G75*
G02*
X198667000Y-104639999I237500J0D01*
G01*
G37*
%TD*%
%TO.C,R13*%
G36*
G01*
X200167001Y-106465000D02*
X200642001Y-106465000D01*
G75*
G02*
X200879501Y-106702500I0J-237500D01*
G01*
X200879501Y-107202500D01*
G75*
G02*
X200642001Y-107440000I-237500J0D01*
G01*
X200167001Y-107440000D01*
G75*
G02*
X199929501Y-107202500I0J237500D01*
G01*
X199929501Y-106702500D01*
G75*
G02*
X200167001Y-106465000I237500J0D01*
G01*
G37*
G36*
G01*
X200167001Y-104640000D02*
X200642001Y-104640000D01*
G75*
G02*
X200879501Y-104877500I0J-237500D01*
G01*
X200879501Y-105377500D01*
G75*
G02*
X200642001Y-105615000I-237500J0D01*
G01*
X200167001Y-105615000D01*
G75*
G02*
X199929501Y-105377500I0J237500D01*
G01*
X199929501Y-104877500D01*
G75*
G02*
X200167001Y-104640000I237500J0D01*
G01*
G37*
%TD*%
%TO.C,R12*%
G36*
G01*
X200389500Y-119103000D02*
X199914500Y-119103000D01*
G75*
G02*
X199677000Y-118865500I0J237500D01*
G01*
X199677000Y-118365500D01*
G75*
G02*
X199914500Y-118128000I237500J0D01*
G01*
X200389500Y-118128000D01*
G75*
G02*
X200627000Y-118365500I0J-237500D01*
G01*
X200627000Y-118865500D01*
G75*
G02*
X200389500Y-119103000I-237500J0D01*
G01*
G37*
G36*
G01*
X200389500Y-120928000D02*
X199914500Y-120928000D01*
G75*
G02*
X199677000Y-120690500I0J237500D01*
G01*
X199677000Y-120190500D01*
G75*
G02*
X199914500Y-119953000I237500J0D01*
G01*
X200389500Y-119953000D01*
G75*
G02*
X200627000Y-120190500I0J-237500D01*
G01*
X200627000Y-120690500D01*
G75*
G02*
X200389500Y-120928000I-237500J0D01*
G01*
G37*
%TD*%
%TO.C,R6*%
G36*
G01*
X151000400Y-52373000D02*
X151000400Y-51898000D01*
G75*
G02*
X151237900Y-51660500I237500J0D01*
G01*
X151737900Y-51660500D01*
G75*
G02*
X151975400Y-51898000I0J-237500D01*
G01*
X151975400Y-52373000D01*
G75*
G02*
X151737900Y-52610500I-237500J0D01*
G01*
X151237900Y-52610500D01*
G75*
G02*
X151000400Y-52373000I0J237500D01*
G01*
G37*
G36*
G01*
X149175400Y-52373000D02*
X149175400Y-51898000D01*
G75*
G02*
X149412900Y-51660500I237500J0D01*
G01*
X149912900Y-51660500D01*
G75*
G02*
X150150400Y-51898000I0J-237500D01*
G01*
X150150400Y-52373000D01*
G75*
G02*
X149912900Y-52610500I-237500J0D01*
G01*
X149412900Y-52610500D01*
G75*
G02*
X149175400Y-52373000I0J237500D01*
G01*
G37*
%TD*%
%TO.C,R5*%
G36*
G01*
X119545600Y-58602500D02*
X119545600Y-58127500D01*
G75*
G02*
X119783100Y-57890000I237500J0D01*
G01*
X120283100Y-57890000D01*
G75*
G02*
X120520600Y-58127500I0J-237500D01*
G01*
X120520600Y-58602500D01*
G75*
G02*
X120283100Y-58840000I-237500J0D01*
G01*
X119783100Y-58840000D01*
G75*
G02*
X119545600Y-58602500I0J237500D01*
G01*
G37*
G36*
G01*
X117720600Y-58602500D02*
X117720600Y-58127500D01*
G75*
G02*
X117958100Y-57890000I237500J0D01*
G01*
X118458100Y-57890000D01*
G75*
G02*
X118695600Y-58127500I0J-237500D01*
G01*
X118695600Y-58602500D01*
G75*
G02*
X118458100Y-58840000I-237500J0D01*
G01*
X117958100Y-58840000D01*
G75*
G02*
X117720600Y-58602500I0J237500D01*
G01*
G37*
%TD*%
D11*
%TO.C,D6*%
X203498000Y-105865000D03*
X203498000Y-110865000D03*
%TD*%
%TO.C,D5*%
G36*
G01*
X199142000Y-109190000D02*
X198667000Y-109190000D01*
G75*
G02*
X198429500Y-108952500I0J237500D01*
G01*
X198429500Y-108377500D01*
G75*
G02*
X198667000Y-108140000I237500J0D01*
G01*
X199142000Y-108140000D01*
G75*
G02*
X199379500Y-108377500I0J-237500D01*
G01*
X199379500Y-108952500D01*
G75*
G02*
X199142000Y-109190000I-237500J0D01*
G01*
G37*
G36*
G01*
X199142000Y-110940000D02*
X198667000Y-110940000D01*
G75*
G02*
X198429500Y-110702500I0J237500D01*
G01*
X198429500Y-110127500D01*
G75*
G02*
X198667000Y-109890000I237500J0D01*
G01*
X199142000Y-109890000D01*
G75*
G02*
X199379500Y-110127500I0J-237500D01*
G01*
X199379500Y-110702500D01*
G75*
G02*
X199142000Y-110940000I-237500J0D01*
G01*
G37*
%TD*%
%TO.C,D4*%
G36*
G01*
X200642000Y-109190000D02*
X200167000Y-109190000D01*
G75*
G02*
X199929500Y-108952500I0J237500D01*
G01*
X199929500Y-108377500D01*
G75*
G02*
X200167000Y-108140000I237500J0D01*
G01*
X200642000Y-108140000D01*
G75*
G02*
X200879500Y-108377500I0J-237500D01*
G01*
X200879500Y-108952500D01*
G75*
G02*
X200642000Y-109190000I-237500J0D01*
G01*
G37*
G36*
G01*
X200642000Y-110940000D02*
X200167000Y-110940000D01*
G75*
G02*
X199929500Y-110702500I0J237500D01*
G01*
X199929500Y-110127500D01*
G75*
G02*
X200167000Y-109890000I237500J0D01*
G01*
X200642000Y-109890000D01*
G75*
G02*
X200879500Y-110127500I0J-237500D01*
G01*
X200879500Y-110702500D01*
G75*
G02*
X200642000Y-110940000I-237500J0D01*
G01*
G37*
%TD*%
%TO.C,C39*%
G36*
G01*
X198000500Y-120631000D02*
X198000500Y-120156000D01*
G75*
G02*
X198238000Y-119918500I237500J0D01*
G01*
X198838000Y-119918500D01*
G75*
G02*
X199075500Y-120156000I0J-237500D01*
G01*
X199075500Y-120631000D01*
G75*
G02*
X198838000Y-120868500I-237500J0D01*
G01*
X198238000Y-120868500D01*
G75*
G02*
X198000500Y-120631000I0J237500D01*
G01*
G37*
G36*
G01*
X196275500Y-120631000D02*
X196275500Y-120156000D01*
G75*
G02*
X196513000Y-119918500I237500J0D01*
G01*
X197113000Y-119918500D01*
G75*
G02*
X197350500Y-120156000I0J-237500D01*
G01*
X197350500Y-120631000D01*
G75*
G02*
X197113000Y-120868500I-237500J0D01*
G01*
X196513000Y-120868500D01*
G75*
G02*
X196275500Y-120631000I0J237500D01*
G01*
G37*
%TD*%
%TO.C,C38*%
G36*
G01*
X198000500Y-118853000D02*
X198000500Y-118378000D01*
G75*
G02*
X198238000Y-118140500I237500J0D01*
G01*
X198838000Y-118140500D01*
G75*
G02*
X199075500Y-118378000I0J-237500D01*
G01*
X199075500Y-118853000D01*
G75*
G02*
X198838000Y-119090500I-237500J0D01*
G01*
X198238000Y-119090500D01*
G75*
G02*
X198000500Y-118853000I0J237500D01*
G01*
G37*
G36*
G01*
X196275500Y-118853000D02*
X196275500Y-118378000D01*
G75*
G02*
X196513000Y-118140500I237500J0D01*
G01*
X197113000Y-118140500D01*
G75*
G02*
X197350500Y-118378000I0J-237500D01*
G01*
X197350500Y-118853000D01*
G75*
G02*
X197113000Y-119090500I-237500J0D01*
G01*
X196513000Y-119090500D01*
G75*
G02*
X196275500Y-118853000I0J237500D01*
G01*
G37*
%TD*%
%TO.C,C37*%
G36*
G01*
X204189500Y-117548500D02*
X204189500Y-118023500D01*
G75*
G02*
X203952000Y-118261000I-237500J0D01*
G01*
X203352000Y-118261000D01*
G75*
G02*
X203114500Y-118023500I0J237500D01*
G01*
X203114500Y-117548500D01*
G75*
G02*
X203352000Y-117311000I237500J0D01*
G01*
X203952000Y-117311000D01*
G75*
G02*
X204189500Y-117548500I0J-237500D01*
G01*
G37*
G36*
G01*
X205914500Y-117548500D02*
X205914500Y-118023500D01*
G75*
G02*
X205677000Y-118261000I-237500J0D01*
G01*
X205077000Y-118261000D01*
G75*
G02*
X204839500Y-118023500I0J237500D01*
G01*
X204839500Y-117548500D01*
G75*
G02*
X205077000Y-117311000I237500J0D01*
G01*
X205677000Y-117311000D01*
G75*
G02*
X205914500Y-117548500I0J-237500D01*
G01*
G37*
%TD*%
%TO.C,C26*%
G36*
G01*
X201629000Y-119829500D02*
X202104000Y-119829500D01*
G75*
G02*
X202341500Y-120067000I0J-237500D01*
G01*
X202341500Y-120667000D01*
G75*
G02*
X202104000Y-120904500I-237500J0D01*
G01*
X201629000Y-120904500D01*
G75*
G02*
X201391500Y-120667000I0J237500D01*
G01*
X201391500Y-120067000D01*
G75*
G02*
X201629000Y-119829500I237500J0D01*
G01*
G37*
G36*
G01*
X201629000Y-118104500D02*
X202104000Y-118104500D01*
G75*
G02*
X202341500Y-118342000I0J-237500D01*
G01*
X202341500Y-118942000D01*
G75*
G02*
X202104000Y-119179500I-237500J0D01*
G01*
X201629000Y-119179500D01*
G75*
G02*
X201391500Y-118942000I0J237500D01*
G01*
X201391500Y-118342000D01*
G75*
G02*
X201629000Y-118104500I237500J0D01*
G01*
G37*
%TD*%
%TO.C,C9*%
G36*
G01*
X118795600Y-60127500D02*
X118795600Y-60602500D01*
G75*
G02*
X118558100Y-60840000I-237500J0D01*
G01*
X117958100Y-60840000D01*
G75*
G02*
X117720600Y-60602500I0J237500D01*
G01*
X117720600Y-60127500D01*
G75*
G02*
X117958100Y-59890000I237500J0D01*
G01*
X118558100Y-59890000D01*
G75*
G02*
X118795600Y-60127500I0J-237500D01*
G01*
G37*
G36*
G01*
X120520600Y-60127500D02*
X120520600Y-60602500D01*
G75*
G02*
X120283100Y-60840000I-237500J0D01*
G01*
X119683100Y-60840000D01*
G75*
G02*
X119445600Y-60602500I0J237500D01*
G01*
X119445600Y-60127500D01*
G75*
G02*
X119683100Y-59890000I237500J0D01*
G01*
X120283100Y-59890000D01*
G75*
G02*
X120520600Y-60127500I0J-237500D01*
G01*
G37*
%TD*%
%TO.C,C8*%
G36*
G01*
X138340000Y-50467401D02*
X138815000Y-50467401D01*
G75*
G02*
X139052500Y-50704901I0J-237500D01*
G01*
X139052500Y-51304901D01*
G75*
G02*
X138815000Y-51542401I-237500J0D01*
G01*
X138340000Y-51542401D01*
G75*
G02*
X138102500Y-51304901I0J237500D01*
G01*
X138102500Y-50704901D01*
G75*
G02*
X138340000Y-50467401I237500J0D01*
G01*
G37*
G36*
G01*
X138340000Y-48742401D02*
X138815000Y-48742401D01*
G75*
G02*
X139052500Y-48979901I0J-237500D01*
G01*
X139052500Y-49579901D01*
G75*
G02*
X138815000Y-49817401I-237500J0D01*
G01*
X138340000Y-49817401D01*
G75*
G02*
X138102500Y-49579901I0J237500D01*
G01*
X138102500Y-48979901D01*
G75*
G02*
X138340000Y-48742401I237500J0D01*
G01*
G37*
%TD*%
%TO.C,C7*%
G36*
G01*
X133340000Y-50467399D02*
X133815000Y-50467399D01*
G75*
G02*
X134052500Y-50704899I0J-237500D01*
G01*
X134052500Y-51304899D01*
G75*
G02*
X133815000Y-51542399I-237500J0D01*
G01*
X133340000Y-51542399D01*
G75*
G02*
X133102500Y-51304899I0J237500D01*
G01*
X133102500Y-50704899D01*
G75*
G02*
X133340000Y-50467399I237500J0D01*
G01*
G37*
G36*
G01*
X133340000Y-48742399D02*
X133815000Y-48742399D01*
G75*
G02*
X134052500Y-48979899I0J-237500D01*
G01*
X134052500Y-49579899D01*
G75*
G02*
X133815000Y-49817399I-237500J0D01*
G01*
X133340000Y-49817399D01*
G75*
G02*
X133102500Y-49579899I0J237500D01*
G01*
X133102500Y-48979899D01*
G75*
G02*
X133340000Y-48742399I237500J0D01*
G01*
G37*
%TD*%
%TO.C,C6*%
G36*
G01*
X135602501Y-50592400D02*
X136552501Y-50592400D01*
G75*
G02*
X136802501Y-50842400I0J-250000D01*
G01*
X136802501Y-51517400D01*
G75*
G02*
X136552501Y-51767400I-250000J0D01*
G01*
X135602501Y-51767400D01*
G75*
G02*
X135352501Y-51517400I0J250000D01*
G01*
X135352501Y-50842400D01*
G75*
G02*
X135602501Y-50592400I250000J0D01*
G01*
G37*
G36*
G01*
X135602501Y-48517400D02*
X136552501Y-48517400D01*
G75*
G02*
X136802501Y-48767400I0J-250000D01*
G01*
X136802501Y-49442400D01*
G75*
G02*
X136552501Y-49692400I-250000J0D01*
G01*
X135602501Y-49692400D01*
G75*
G02*
X135352501Y-49442400I0J250000D01*
G01*
X135352501Y-48767400D01*
G75*
G02*
X135602501Y-48517400I250000J0D01*
G01*
G37*
%TD*%
%TO.C,R46*%
G36*
G01*
X120347999Y-93965000D02*
X121248001Y-93965000D01*
G75*
G02*
X121498000Y-94214999I0J-249999D01*
G01*
X121498000Y-94915001D01*
G75*
G02*
X121248001Y-95165000I-249999J0D01*
G01*
X120347999Y-95165000D01*
G75*
G02*
X120098000Y-94915001I0J249999D01*
G01*
X120098000Y-94214999D01*
G75*
G02*
X120347999Y-93965000I249999J0D01*
G01*
G37*
G36*
G01*
X120347999Y-91965000D02*
X121248001Y-91965000D01*
G75*
G02*
X121498000Y-92214999I0J-249999D01*
G01*
X121498000Y-92915001D01*
G75*
G02*
X121248001Y-93165000I-249999J0D01*
G01*
X120347999Y-93165000D01*
G75*
G02*
X120098000Y-92915001I0J249999D01*
G01*
X120098000Y-92214999D01*
G75*
G02*
X120347999Y-91965000I249999J0D01*
G01*
G37*
%TD*%
M02*
