%TF.GenerationSoftware,KiCad,Pcbnew,(5.1.12)-1*%
%TF.CreationDate,2022-03-24T17:22:39-05:00*%
%TF.ProjectId,Psoc-CTF,50736f63-2d43-4544-962e-6b696361645f,rev?*%
%TF.SameCoordinates,Original*%
%TF.FileFunction,Profile,NP*%
%FSLAX46Y46*%
G04 Gerber Fmt 4.6, Leading zero omitted, Abs format (unit mm)*
G04 Created by KiCad (PCBNEW (5.1.12)-1) date 2022-03-24 17:22:39*
%MOMM*%
%LPD*%
G01*
G04 APERTURE LIST*
%TA.AperFunction,Profile*%
%ADD10C,0.150000*%
%TD*%
%TA.AperFunction,Profile*%
%ADD11C,0.100000*%
%TD*%
%TA.AperFunction,Profile*%
%ADD12C,0.010000*%
%TD*%
G04 APERTURE END LIST*
D10*
X117598000Y-48965000D02*
G75*
G03*
X117598000Y-48965000I-1600000J0D01*
G01*
X112998000Y-46365000D02*
X112998000Y-143365000D01*
X210998000Y-46365000D02*
X210998000Y-143365000D01*
X112998000Y-46365000D02*
X210998000Y-46365000D01*
X209598000Y-69365000D02*
G75*
G03*
X209598000Y-69365000I-1600000J0D01*
G01*
X209998000Y-140765000D02*
G75*
G03*
X209998000Y-140765000I-1600000J0D01*
G01*
X117598000Y-140765000D02*
G75*
G03*
X117598000Y-140765000I-1600000J0D01*
G01*
D11*
X210998000Y-143365000D02*
X112998000Y-143365000D01*
D12*
%TO.C,J12*%
X116598000Y-82151000D02*
X117399000Y-82151000D01*
X117400000Y-82601000D02*
X116598000Y-82601000D01*
X116598000Y-75001000D02*
X117399000Y-75001000D01*
X117400000Y-75451000D02*
X116598000Y-75451000D01*
X116373000Y-82376000D02*
G75*
G03*
X116598000Y-82601000I225000J0D01*
G01*
X116598000Y-82151000D02*
G75*
G03*
X116373000Y-82376000I0J-225000D01*
G01*
X117624000Y-82376000D02*
G75*
G02*
X117400000Y-82601000I-224500J-500D01*
G01*
X117399000Y-82151000D02*
G75*
G02*
X117624000Y-82376000I0J-225000D01*
G01*
X116373000Y-75226000D02*
G75*
G03*
X116598000Y-75451000I225000J0D01*
G01*
X116598000Y-75001000D02*
G75*
G03*
X116373000Y-75226000I0J-225000D01*
G01*
X117624000Y-75226000D02*
G75*
G02*
X117400000Y-75451000I-224500J-500D01*
G01*
X117399000Y-75001000D02*
G75*
G02*
X117624000Y-75226000I0J-225000D01*
G01*
%TO.C,J5*%
X208512500Y-117685999D02*
X209314500Y-117685999D01*
X209314500Y-118135999D02*
X208513500Y-118135999D01*
X208512500Y-110535999D02*
X209314500Y-110535999D01*
X209314500Y-110985999D02*
X208513500Y-110985999D01*
X209539500Y-110760999D02*
G75*
G03*
X209314500Y-110535999I-225000J0D01*
G01*
X209314500Y-110985999D02*
G75*
G03*
X209539500Y-110760999I0J225000D01*
G01*
X208288500Y-110760999D02*
G75*
G02*
X208512500Y-110535999I224500J500D01*
G01*
X208513500Y-110985999D02*
G75*
G02*
X208288500Y-110760999I0J225000D01*
G01*
X209539500Y-117910999D02*
G75*
G03*
X209314500Y-117685999I-225000J0D01*
G01*
X209314500Y-118135999D02*
G75*
G03*
X209539500Y-117910999I0J225000D01*
G01*
X208288500Y-117910999D02*
G75*
G02*
X208512500Y-117685999I224500J500D01*
G01*
X208513500Y-118135999D02*
G75*
G02*
X208288500Y-117910999I0J225000D01*
G01*
%TD*%
M02*
