%TF.GenerationSoftware,KiCad,Pcbnew,(5.1.12)-1*%
%TF.CreationDate,2022-03-24T08:21:23-05:00*%
%TF.ProjectId,Psoc-CTF,50736f63-2d43-4544-962e-6b696361645f,rev?*%
%TF.SameCoordinates,Original*%
%TF.FileFunction,Soldermask,Top*%
%TF.FilePolarity,Negative*%
%FSLAX46Y46*%
G04 Gerber Fmt 4.6, Leading zero omitted, Abs format (unit mm)*
G04 Created by KiCad (PCBNEW (5.1.12)-1) date 2022-03-24 08:21:23*
%MOMM*%
%LPD*%
G01*
G04 APERTURE LIST*
%ADD10C,0.010000*%
%ADD11C,1.000000*%
%ADD12R,5.700000X5.700000*%
%ADD13O,0.200000X0.800000*%
%ADD14O,0.800000X0.200000*%
%ADD15R,2.600000X2.600000*%
%ADD16R,2.000000X1.500000*%
%ADD17R,2.000000X3.800000*%
%ADD18C,0.450000*%
%ADD19R,1.900000X1.750000*%
%ADD20R,1.450000X1.150000*%
%ADD21R,1.400000X0.400000*%
%ADD22R,3.500000X1.800000*%
%ADD23R,2.100000X1.400000*%
%ADD24O,1.700000X1.700000*%
%ADD25R,1.700000X1.700000*%
%ADD26R,1.500000X1.000000*%
%ADD27R,1.750000X1.800000*%
%ADD28R,1.200000X1.400000*%
%ADD29R,1.981200X0.558800*%
%ADD30R,2.000000X0.900000*%
%ADD31R,0.900000X2.000000*%
%ADD32R,5.000000X5.000000*%
%ADD33R,1.400000X2.100000*%
%ADD34O,1.727200X2.032000*%
G04 APERTURE END LIST*
D10*
%TO.C,J12*%
G36*
X114688000Y-74497330D02*
G01*
X114688000Y-75952000D01*
X112386750Y-75952000D01*
X112386750Y-74497330D01*
X114688000Y-74497330D01*
G37*
X114688000Y-74497330D02*
X114688000Y-75952000D01*
X112386750Y-75952000D01*
X112386750Y-74497330D01*
X114688000Y-74497330D01*
G36*
X114688000Y-81656850D02*
G01*
X114688000Y-83102000D01*
X112386040Y-83102000D01*
X112386040Y-81656850D01*
X114688000Y-81656850D01*
G37*
X114688000Y-81656850D02*
X114688000Y-83102000D01*
X112386040Y-83102000D01*
X112386040Y-81656850D01*
X114688000Y-81656850D01*
%TO.C,J5*%
G36*
X207764500Y-111480149D02*
G01*
X207764500Y-110034999D01*
X210066460Y-110034999D01*
X210066460Y-111480149D01*
X207764500Y-111480149D01*
G37*
X207764500Y-111480149D02*
X207764500Y-110034999D01*
X210066460Y-110034999D01*
X210066460Y-111480149D01*
X207764500Y-111480149D01*
G36*
X207764500Y-118639669D02*
G01*
X207764500Y-117184999D01*
X210065750Y-117184999D01*
X210065750Y-118639669D01*
X207764500Y-118639669D01*
G37*
X207764500Y-118639669D02*
X207764500Y-117184999D01*
X210065750Y-117184999D01*
X210065750Y-118639669D01*
X207764500Y-118639669D01*
%TD*%
D11*
%TO.C,IC1*%
X187744400Y-92461300D03*
X179125400Y-101080300D03*
D12*
X183434900Y-96770800D03*
D13*
X186034900Y-100270800D03*
X185634900Y-100270800D03*
X185234900Y-100270800D03*
X184834900Y-100270800D03*
X184434900Y-100270800D03*
X184034900Y-100270800D03*
X183634900Y-100270800D03*
X183234900Y-100270800D03*
X182834900Y-100270800D03*
X182434900Y-100270800D03*
X182034900Y-100270800D03*
X181634900Y-100270800D03*
X181234900Y-100270800D03*
X180834900Y-100270800D03*
D14*
X179934900Y-99370800D03*
X179934900Y-98970800D03*
X179934900Y-98570800D03*
X179934900Y-98170800D03*
X179934900Y-97770800D03*
X179934900Y-97370800D03*
X179934900Y-96970800D03*
X179934900Y-96570800D03*
X179934900Y-96170800D03*
X179934900Y-95770800D03*
X179934900Y-95370800D03*
X179934900Y-94970800D03*
X179934900Y-94570800D03*
X179934900Y-94170800D03*
D13*
X180834900Y-93270800D03*
X181234900Y-93270800D03*
X181634900Y-93270800D03*
X182034900Y-93270800D03*
X182434900Y-93270800D03*
X182834900Y-93270800D03*
X183234900Y-93270800D03*
X183634900Y-93270800D03*
X184034900Y-93270800D03*
X184434900Y-93270800D03*
X184834900Y-93270800D03*
X185234900Y-93270800D03*
X185634900Y-93270800D03*
X186034900Y-93270800D03*
D14*
X186934900Y-94170800D03*
X186934900Y-94570800D03*
X186934900Y-94970800D03*
X186934900Y-95370800D03*
X186934900Y-95770800D03*
X186934900Y-96170800D03*
X186934900Y-96570800D03*
X186934900Y-96970800D03*
X186934900Y-97370800D03*
X186934900Y-97770800D03*
X186934900Y-98170800D03*
X186934900Y-98570800D03*
X186934900Y-98970800D03*
X186934900Y-99370800D03*
%TD*%
D15*
%TO.C,U7*%
X130977200Y-76064000D03*
G36*
G01*
X132352200Y-77651500D02*
X132352200Y-78351500D01*
G75*
G02*
X132289700Y-78414000I-62500J0D01*
G01*
X132164700Y-78414000D01*
G75*
G02*
X132102200Y-78351500I0J62500D01*
G01*
X132102200Y-77651500D01*
G75*
G02*
X132164700Y-77589000I62500J0D01*
G01*
X132289700Y-77589000D01*
G75*
G02*
X132352200Y-77651500I0J-62500D01*
G01*
G37*
G36*
G01*
X131852200Y-77651500D02*
X131852200Y-78351500D01*
G75*
G02*
X131789700Y-78414000I-62500J0D01*
G01*
X131664700Y-78414000D01*
G75*
G02*
X131602200Y-78351500I0J62500D01*
G01*
X131602200Y-77651500D01*
G75*
G02*
X131664700Y-77589000I62500J0D01*
G01*
X131789700Y-77589000D01*
G75*
G02*
X131852200Y-77651500I0J-62500D01*
G01*
G37*
G36*
G01*
X131352200Y-77651500D02*
X131352200Y-78351500D01*
G75*
G02*
X131289700Y-78414000I-62500J0D01*
G01*
X131164700Y-78414000D01*
G75*
G02*
X131102200Y-78351500I0J62500D01*
G01*
X131102200Y-77651500D01*
G75*
G02*
X131164700Y-77589000I62500J0D01*
G01*
X131289700Y-77589000D01*
G75*
G02*
X131352200Y-77651500I0J-62500D01*
G01*
G37*
G36*
G01*
X130852200Y-77651500D02*
X130852200Y-78351500D01*
G75*
G02*
X130789700Y-78414000I-62500J0D01*
G01*
X130664700Y-78414000D01*
G75*
G02*
X130602200Y-78351500I0J62500D01*
G01*
X130602200Y-77651500D01*
G75*
G02*
X130664700Y-77589000I62500J0D01*
G01*
X130789700Y-77589000D01*
G75*
G02*
X130852200Y-77651500I0J-62500D01*
G01*
G37*
G36*
G01*
X130352200Y-77651500D02*
X130352200Y-78351500D01*
G75*
G02*
X130289700Y-78414000I-62500J0D01*
G01*
X130164700Y-78414000D01*
G75*
G02*
X130102200Y-78351500I0J62500D01*
G01*
X130102200Y-77651500D01*
G75*
G02*
X130164700Y-77589000I62500J0D01*
G01*
X130289700Y-77589000D01*
G75*
G02*
X130352200Y-77651500I0J-62500D01*
G01*
G37*
G36*
G01*
X129852200Y-77651500D02*
X129852200Y-78351500D01*
G75*
G02*
X129789700Y-78414000I-62500J0D01*
G01*
X129664700Y-78414000D01*
G75*
G02*
X129602200Y-78351500I0J62500D01*
G01*
X129602200Y-77651500D01*
G75*
G02*
X129664700Y-77589000I62500J0D01*
G01*
X129789700Y-77589000D01*
G75*
G02*
X129852200Y-77651500I0J-62500D01*
G01*
G37*
G36*
G01*
X129452200Y-77251500D02*
X129452200Y-77376500D01*
G75*
G02*
X129389700Y-77439000I-62500J0D01*
G01*
X128689700Y-77439000D01*
G75*
G02*
X128627200Y-77376500I0J62500D01*
G01*
X128627200Y-77251500D01*
G75*
G02*
X128689700Y-77189000I62500J0D01*
G01*
X129389700Y-77189000D01*
G75*
G02*
X129452200Y-77251500I0J-62500D01*
G01*
G37*
G36*
G01*
X129452200Y-76751500D02*
X129452200Y-76876500D01*
G75*
G02*
X129389700Y-76939000I-62500J0D01*
G01*
X128689700Y-76939000D01*
G75*
G02*
X128627200Y-76876500I0J62500D01*
G01*
X128627200Y-76751500D01*
G75*
G02*
X128689700Y-76689000I62500J0D01*
G01*
X129389700Y-76689000D01*
G75*
G02*
X129452200Y-76751500I0J-62500D01*
G01*
G37*
G36*
G01*
X129452200Y-76251500D02*
X129452200Y-76376500D01*
G75*
G02*
X129389700Y-76439000I-62500J0D01*
G01*
X128689700Y-76439000D01*
G75*
G02*
X128627200Y-76376500I0J62500D01*
G01*
X128627200Y-76251500D01*
G75*
G02*
X128689700Y-76189000I62500J0D01*
G01*
X129389700Y-76189000D01*
G75*
G02*
X129452200Y-76251500I0J-62500D01*
G01*
G37*
G36*
G01*
X129452200Y-75751500D02*
X129452200Y-75876500D01*
G75*
G02*
X129389700Y-75939000I-62500J0D01*
G01*
X128689700Y-75939000D01*
G75*
G02*
X128627200Y-75876500I0J62500D01*
G01*
X128627200Y-75751500D01*
G75*
G02*
X128689700Y-75689000I62500J0D01*
G01*
X129389700Y-75689000D01*
G75*
G02*
X129452200Y-75751500I0J-62500D01*
G01*
G37*
G36*
G01*
X129452200Y-75251500D02*
X129452200Y-75376500D01*
G75*
G02*
X129389700Y-75439000I-62500J0D01*
G01*
X128689700Y-75439000D01*
G75*
G02*
X128627200Y-75376500I0J62500D01*
G01*
X128627200Y-75251500D01*
G75*
G02*
X128689700Y-75189000I62500J0D01*
G01*
X129389700Y-75189000D01*
G75*
G02*
X129452200Y-75251500I0J-62500D01*
G01*
G37*
G36*
G01*
X129452200Y-74751500D02*
X129452200Y-74876500D01*
G75*
G02*
X129389700Y-74939000I-62500J0D01*
G01*
X128689700Y-74939000D01*
G75*
G02*
X128627200Y-74876500I0J62500D01*
G01*
X128627200Y-74751500D01*
G75*
G02*
X128689700Y-74689000I62500J0D01*
G01*
X129389700Y-74689000D01*
G75*
G02*
X129452200Y-74751500I0J-62500D01*
G01*
G37*
G36*
G01*
X129852200Y-73776500D02*
X129852200Y-74476500D01*
G75*
G02*
X129789700Y-74539000I-62500J0D01*
G01*
X129664700Y-74539000D01*
G75*
G02*
X129602200Y-74476500I0J62500D01*
G01*
X129602200Y-73776500D01*
G75*
G02*
X129664700Y-73714000I62500J0D01*
G01*
X129789700Y-73714000D01*
G75*
G02*
X129852200Y-73776500I0J-62500D01*
G01*
G37*
G36*
G01*
X130352200Y-73776500D02*
X130352200Y-74476500D01*
G75*
G02*
X130289700Y-74539000I-62500J0D01*
G01*
X130164700Y-74539000D01*
G75*
G02*
X130102200Y-74476500I0J62500D01*
G01*
X130102200Y-73776500D01*
G75*
G02*
X130164700Y-73714000I62500J0D01*
G01*
X130289700Y-73714000D01*
G75*
G02*
X130352200Y-73776500I0J-62500D01*
G01*
G37*
G36*
G01*
X130852200Y-73776500D02*
X130852200Y-74476500D01*
G75*
G02*
X130789700Y-74539000I-62500J0D01*
G01*
X130664700Y-74539000D01*
G75*
G02*
X130602200Y-74476500I0J62500D01*
G01*
X130602200Y-73776500D01*
G75*
G02*
X130664700Y-73714000I62500J0D01*
G01*
X130789700Y-73714000D01*
G75*
G02*
X130852200Y-73776500I0J-62500D01*
G01*
G37*
G36*
G01*
X131352200Y-73776500D02*
X131352200Y-74476500D01*
G75*
G02*
X131289700Y-74539000I-62500J0D01*
G01*
X131164700Y-74539000D01*
G75*
G02*
X131102200Y-74476500I0J62500D01*
G01*
X131102200Y-73776500D01*
G75*
G02*
X131164700Y-73714000I62500J0D01*
G01*
X131289700Y-73714000D01*
G75*
G02*
X131352200Y-73776500I0J-62500D01*
G01*
G37*
G36*
G01*
X131852200Y-73776500D02*
X131852200Y-74476500D01*
G75*
G02*
X131789700Y-74539000I-62500J0D01*
G01*
X131664700Y-74539000D01*
G75*
G02*
X131602200Y-74476500I0J62500D01*
G01*
X131602200Y-73776500D01*
G75*
G02*
X131664700Y-73714000I62500J0D01*
G01*
X131789700Y-73714000D01*
G75*
G02*
X131852200Y-73776500I0J-62500D01*
G01*
G37*
G36*
G01*
X132352200Y-73776500D02*
X132352200Y-74476500D01*
G75*
G02*
X132289700Y-74539000I-62500J0D01*
G01*
X132164700Y-74539000D01*
G75*
G02*
X132102200Y-74476500I0J62500D01*
G01*
X132102200Y-73776500D01*
G75*
G02*
X132164700Y-73714000I62500J0D01*
G01*
X132289700Y-73714000D01*
G75*
G02*
X132352200Y-73776500I0J-62500D01*
G01*
G37*
G36*
G01*
X133327200Y-74751500D02*
X133327200Y-74876500D01*
G75*
G02*
X133264700Y-74939000I-62500J0D01*
G01*
X132564700Y-74939000D01*
G75*
G02*
X132502200Y-74876500I0J62500D01*
G01*
X132502200Y-74751500D01*
G75*
G02*
X132564700Y-74689000I62500J0D01*
G01*
X133264700Y-74689000D01*
G75*
G02*
X133327200Y-74751500I0J-62500D01*
G01*
G37*
G36*
G01*
X133327200Y-75251500D02*
X133327200Y-75376500D01*
G75*
G02*
X133264700Y-75439000I-62500J0D01*
G01*
X132564700Y-75439000D01*
G75*
G02*
X132502200Y-75376500I0J62500D01*
G01*
X132502200Y-75251500D01*
G75*
G02*
X132564700Y-75189000I62500J0D01*
G01*
X133264700Y-75189000D01*
G75*
G02*
X133327200Y-75251500I0J-62500D01*
G01*
G37*
G36*
G01*
X133327200Y-75751500D02*
X133327200Y-75876500D01*
G75*
G02*
X133264700Y-75939000I-62500J0D01*
G01*
X132564700Y-75939000D01*
G75*
G02*
X132502200Y-75876500I0J62500D01*
G01*
X132502200Y-75751500D01*
G75*
G02*
X132564700Y-75689000I62500J0D01*
G01*
X133264700Y-75689000D01*
G75*
G02*
X133327200Y-75751500I0J-62500D01*
G01*
G37*
G36*
G01*
X133327200Y-76251500D02*
X133327200Y-76376500D01*
G75*
G02*
X133264700Y-76439000I-62500J0D01*
G01*
X132564700Y-76439000D01*
G75*
G02*
X132502200Y-76376500I0J62500D01*
G01*
X132502200Y-76251500D01*
G75*
G02*
X132564700Y-76189000I62500J0D01*
G01*
X133264700Y-76189000D01*
G75*
G02*
X133327200Y-76251500I0J-62500D01*
G01*
G37*
G36*
G01*
X133327200Y-76751500D02*
X133327200Y-76876500D01*
G75*
G02*
X133264700Y-76939000I-62500J0D01*
G01*
X132564700Y-76939000D01*
G75*
G02*
X132502200Y-76876500I0J62500D01*
G01*
X132502200Y-76751500D01*
G75*
G02*
X132564700Y-76689000I62500J0D01*
G01*
X133264700Y-76689000D01*
G75*
G02*
X133327200Y-76751500I0J-62500D01*
G01*
G37*
G36*
G01*
X133327200Y-77251500D02*
X133327200Y-77376500D01*
G75*
G02*
X133264700Y-77439000I-62500J0D01*
G01*
X132564700Y-77439000D01*
G75*
G02*
X132502200Y-77376500I0J62500D01*
G01*
X132502200Y-77251500D01*
G75*
G02*
X132564700Y-77189000I62500J0D01*
G01*
X133264700Y-77189000D01*
G75*
G02*
X133327200Y-77251500I0J-62500D01*
G01*
G37*
%TD*%
D16*
%TO.C,U6*%
X122394799Y-92045000D03*
X122394799Y-87445000D03*
X122394799Y-89745000D03*
D17*
X116094799Y-89745000D03*
%TD*%
%TO.C,R45*%
G36*
G01*
X139275000Y-76277500D02*
X139275000Y-76752500D01*
G75*
G02*
X139037500Y-76990000I-237500J0D01*
G01*
X138537500Y-76990000D01*
G75*
G02*
X138300000Y-76752500I0J237500D01*
G01*
X138300000Y-76277500D01*
G75*
G02*
X138537500Y-76040000I237500J0D01*
G01*
X139037500Y-76040000D01*
G75*
G02*
X139275000Y-76277500I0J-237500D01*
G01*
G37*
G36*
G01*
X141100000Y-76277500D02*
X141100000Y-76752500D01*
G75*
G02*
X140862500Y-76990000I-237500J0D01*
G01*
X140362500Y-76990000D01*
G75*
G02*
X140125000Y-76752500I0J237500D01*
G01*
X140125000Y-76277500D01*
G75*
G02*
X140362500Y-76040000I237500J0D01*
G01*
X140862500Y-76040000D01*
G75*
G02*
X141100000Y-76277500I0J-237500D01*
G01*
G37*
%TD*%
%TO.C,R44*%
G36*
G01*
X139275000Y-73991500D02*
X139275000Y-74466500D01*
G75*
G02*
X139037500Y-74704000I-237500J0D01*
G01*
X138537500Y-74704000D01*
G75*
G02*
X138300000Y-74466500I0J237500D01*
G01*
X138300000Y-73991500D01*
G75*
G02*
X138537500Y-73754000I237500J0D01*
G01*
X139037500Y-73754000D01*
G75*
G02*
X139275000Y-73991500I0J-237500D01*
G01*
G37*
G36*
G01*
X141100000Y-73991500D02*
X141100000Y-74466500D01*
G75*
G02*
X140862500Y-74704000I-237500J0D01*
G01*
X140362500Y-74704000D01*
G75*
G02*
X140125000Y-74466500I0J237500D01*
G01*
X140125000Y-73991500D01*
G75*
G02*
X140362500Y-73754000I237500J0D01*
G01*
X140862500Y-73754000D01*
G75*
G02*
X141100000Y-73991500I0J-237500D01*
G01*
G37*
%TD*%
%TO.C,R43*%
G36*
G01*
X125901000Y-75482500D02*
X125901000Y-75007500D01*
G75*
G02*
X126138500Y-74770000I237500J0D01*
G01*
X126638500Y-74770000D01*
G75*
G02*
X126876000Y-75007500I0J-237500D01*
G01*
X126876000Y-75482500D01*
G75*
G02*
X126638500Y-75720000I-237500J0D01*
G01*
X126138500Y-75720000D01*
G75*
G02*
X125901000Y-75482500I0J237500D01*
G01*
G37*
G36*
G01*
X124076000Y-75482500D02*
X124076000Y-75007500D01*
G75*
G02*
X124313500Y-74770000I237500J0D01*
G01*
X124813500Y-74770000D01*
G75*
G02*
X125051000Y-75007500I0J-237500D01*
G01*
X125051000Y-75482500D01*
G75*
G02*
X124813500Y-75720000I-237500J0D01*
G01*
X124313500Y-75720000D01*
G75*
G02*
X124076000Y-75482500I0J237500D01*
G01*
G37*
%TD*%
D18*
%TO.C,J12*%
X113538000Y-82376000D03*
X113538000Y-75226000D03*
D19*
X113538000Y-79926000D03*
X113538000Y-77676000D03*
D20*
X115768000Y-81121000D03*
X115768000Y-76481000D03*
D21*
X116188000Y-80101000D03*
X116188000Y-79461000D03*
X116188000Y-78801000D03*
X116188000Y-78151000D03*
X116188000Y-77501000D03*
%TD*%
D22*
%TO.C,D11*%
X121960000Y-83881000D03*
X126960000Y-83881000D03*
%TD*%
%TO.C,D10*%
G36*
G01*
X136539000Y-76711166D02*
X136539000Y-76236166D01*
G75*
G02*
X136776500Y-75998666I237500J0D01*
G01*
X137351500Y-75998666D01*
G75*
G02*
X137589000Y-76236166I0J-237500D01*
G01*
X137589000Y-76711166D01*
G75*
G02*
X137351500Y-76948666I-237500J0D01*
G01*
X136776500Y-76948666D01*
G75*
G02*
X136539000Y-76711166I0J237500D01*
G01*
G37*
G36*
G01*
X134789000Y-76711166D02*
X134789000Y-76236166D01*
G75*
G02*
X135026500Y-75998666I237500J0D01*
G01*
X135601500Y-75998666D01*
G75*
G02*
X135839000Y-76236166I0J-237500D01*
G01*
X135839000Y-76711166D01*
G75*
G02*
X135601500Y-76948666I-237500J0D01*
G01*
X135026500Y-76948666D01*
G75*
G02*
X134789000Y-76711166I0J237500D01*
G01*
G37*
%TD*%
%TO.C,D9*%
G36*
G01*
X136539000Y-74471500D02*
X136539000Y-73996500D01*
G75*
G02*
X136776500Y-73759000I237500J0D01*
G01*
X137351500Y-73759000D01*
G75*
G02*
X137589000Y-73996500I0J-237500D01*
G01*
X137589000Y-74471500D01*
G75*
G02*
X137351500Y-74709000I-237500J0D01*
G01*
X136776500Y-74709000D01*
G75*
G02*
X136539000Y-74471500I0J237500D01*
G01*
G37*
G36*
G01*
X134789000Y-74471500D02*
X134789000Y-73996500D01*
G75*
G02*
X135026500Y-73759000I237500J0D01*
G01*
X135601500Y-73759000D01*
G75*
G02*
X135839000Y-73996500I0J-237500D01*
G01*
X135839000Y-74471500D01*
G75*
G02*
X135601500Y-74709000I-237500J0D01*
G01*
X135026500Y-74709000D01*
G75*
G02*
X134789000Y-74471500I0J237500D01*
G01*
G37*
%TD*%
%TO.C,C45*%
G36*
G01*
X136469000Y-81070500D02*
X136469000Y-80595500D01*
G75*
G02*
X136706500Y-80358000I237500J0D01*
G01*
X137306500Y-80358000D01*
G75*
G02*
X137544000Y-80595500I0J-237500D01*
G01*
X137544000Y-81070500D01*
G75*
G02*
X137306500Y-81308000I-237500J0D01*
G01*
X136706500Y-81308000D01*
G75*
G02*
X136469000Y-81070500I0J237500D01*
G01*
G37*
G36*
G01*
X134744000Y-81070500D02*
X134744000Y-80595500D01*
G75*
G02*
X134981500Y-80358000I237500J0D01*
G01*
X135581500Y-80358000D01*
G75*
G02*
X135819000Y-80595500I0J-237500D01*
G01*
X135819000Y-81070500D01*
G75*
G02*
X135581500Y-81308000I-237500J0D01*
G01*
X134981500Y-81308000D01*
G75*
G02*
X134744000Y-81070500I0J237500D01*
G01*
G37*
%TD*%
%TO.C,C44*%
G36*
G01*
X136469000Y-78910832D02*
X136469000Y-78435832D01*
G75*
G02*
X136706500Y-78198332I237500J0D01*
G01*
X137306500Y-78198332D01*
G75*
G02*
X137544000Y-78435832I0J-237500D01*
G01*
X137544000Y-78910832D01*
G75*
G02*
X137306500Y-79148332I-237500J0D01*
G01*
X136706500Y-79148332D01*
G75*
G02*
X136469000Y-78910832I0J237500D01*
G01*
G37*
G36*
G01*
X134744000Y-78910832D02*
X134744000Y-78435832D01*
G75*
G02*
X134981500Y-78198332I237500J0D01*
G01*
X135581500Y-78198332D01*
G75*
G02*
X135819000Y-78435832I0J-237500D01*
G01*
X135819000Y-78910832D01*
G75*
G02*
X135581500Y-79148332I-237500J0D01*
G01*
X134981500Y-79148332D01*
G75*
G02*
X134744000Y-78910832I0J237500D01*
G01*
G37*
%TD*%
%TO.C,C43*%
G36*
G01*
X122030500Y-78095000D02*
X121555500Y-78095000D01*
G75*
G02*
X121318000Y-77857500I0J237500D01*
G01*
X121318000Y-77257500D01*
G75*
G02*
X121555500Y-77020000I237500J0D01*
G01*
X122030500Y-77020000D01*
G75*
G02*
X122268000Y-77257500I0J-237500D01*
G01*
X122268000Y-77857500D01*
G75*
G02*
X122030500Y-78095000I-237500J0D01*
G01*
G37*
G36*
G01*
X122030500Y-79820000D02*
X121555500Y-79820000D01*
G75*
G02*
X121318000Y-79582500I0J237500D01*
G01*
X121318000Y-78982500D01*
G75*
G02*
X121555500Y-78745000I237500J0D01*
G01*
X122030500Y-78745000D01*
G75*
G02*
X122268000Y-78982500I0J-237500D01*
G01*
X122268000Y-79582500D01*
G75*
G02*
X122030500Y-79820000I-237500J0D01*
G01*
G37*
%TD*%
%TO.C,C42*%
G36*
G01*
X129777500Y-71364000D02*
X129302500Y-71364000D01*
G75*
G02*
X129065000Y-71126500I0J237500D01*
G01*
X129065000Y-70526500D01*
G75*
G02*
X129302500Y-70289000I237500J0D01*
G01*
X129777500Y-70289000D01*
G75*
G02*
X130015000Y-70526500I0J-237500D01*
G01*
X130015000Y-71126500D01*
G75*
G02*
X129777500Y-71364000I-237500J0D01*
G01*
G37*
G36*
G01*
X129777500Y-73089000D02*
X129302500Y-73089000D01*
G75*
G02*
X129065000Y-72851500I0J237500D01*
G01*
X129065000Y-72251500D01*
G75*
G02*
X129302500Y-72014000I237500J0D01*
G01*
X129777500Y-72014000D01*
G75*
G02*
X130015000Y-72251500I0J-237500D01*
G01*
X130015000Y-72851500D01*
G75*
G02*
X129777500Y-73089000I-237500J0D01*
G01*
G37*
%TD*%
%TO.C,C41*%
G36*
G01*
X126263500Y-91568201D02*
X126738500Y-91568201D01*
G75*
G02*
X126976000Y-91805701I0J-237500D01*
G01*
X126976000Y-92405701D01*
G75*
G02*
X126738500Y-92643201I-237500J0D01*
G01*
X126263500Y-92643201D01*
G75*
G02*
X126026000Y-92405701I0J237500D01*
G01*
X126026000Y-91805701D01*
G75*
G02*
X126263500Y-91568201I237500J0D01*
G01*
G37*
G36*
G01*
X126263500Y-89843201D02*
X126738500Y-89843201D01*
G75*
G02*
X126976000Y-90080701I0J-237500D01*
G01*
X126976000Y-90680701D01*
G75*
G02*
X126738500Y-90918201I-237500J0D01*
G01*
X126263500Y-90918201D01*
G75*
G02*
X126026000Y-90680701I0J237500D01*
G01*
X126026000Y-90080701D01*
G75*
G02*
X126263500Y-89843201I237500J0D01*
G01*
G37*
%TD*%
%TO.C,C40*%
G36*
G01*
X128786000Y-91923200D02*
X129736000Y-91923200D01*
G75*
G02*
X129986000Y-92173200I0J-250000D01*
G01*
X129986000Y-92848200D01*
G75*
G02*
X129736000Y-93098200I-250000J0D01*
G01*
X128786000Y-93098200D01*
G75*
G02*
X128536000Y-92848200I0J250000D01*
G01*
X128536000Y-92173200D01*
G75*
G02*
X128786000Y-91923200I250000J0D01*
G01*
G37*
G36*
G01*
X128786000Y-89848200D02*
X129736000Y-89848200D01*
G75*
G02*
X129986000Y-90098200I0J-250000D01*
G01*
X129986000Y-90773200D01*
G75*
G02*
X129736000Y-91023200I-250000J0D01*
G01*
X128786000Y-91023200D01*
G75*
G02*
X128536000Y-90773200I0J250000D01*
G01*
X128536000Y-90098200D01*
G75*
G02*
X128786000Y-89848200I250000J0D01*
G01*
G37*
%TD*%
D23*
%TO.C,SW5*%
X164218000Y-98490000D03*
X155118000Y-98490000D03*
X164218000Y-93940000D03*
X155118000Y-93940000D03*
%TD*%
%TO.C,SW4*%
X164218000Y-90940000D03*
X155118000Y-90940000D03*
X164218000Y-86390000D03*
X155118000Y-86390000D03*
%TD*%
%TO.C,SW3*%
X164218000Y-83390000D03*
X155118000Y-83390000D03*
X164218000Y-78840000D03*
X155118000Y-78840000D03*
%TD*%
%TO.C,R42*%
G36*
G01*
X151400500Y-96625000D02*
X151875500Y-96625000D01*
G75*
G02*
X152113000Y-96862500I0J-237500D01*
G01*
X152113000Y-97362500D01*
G75*
G02*
X151875500Y-97600000I-237500J0D01*
G01*
X151400500Y-97600000D01*
G75*
G02*
X151163000Y-97362500I0J237500D01*
G01*
X151163000Y-96862500D01*
G75*
G02*
X151400500Y-96625000I237500J0D01*
G01*
G37*
G36*
G01*
X151400500Y-94800000D02*
X151875500Y-94800000D01*
G75*
G02*
X152113000Y-95037500I0J-237500D01*
G01*
X152113000Y-95537500D01*
G75*
G02*
X151875500Y-95775000I-237500J0D01*
G01*
X151400500Y-95775000D01*
G75*
G02*
X151163000Y-95537500I0J237500D01*
G01*
X151163000Y-95037500D01*
G75*
G02*
X151400500Y-94800000I237500J0D01*
G01*
G37*
%TD*%
%TO.C,R41*%
G36*
G01*
X151875500Y-88155000D02*
X151400500Y-88155000D01*
G75*
G02*
X151163000Y-87917500I0J237500D01*
G01*
X151163000Y-87417500D01*
G75*
G02*
X151400500Y-87180000I237500J0D01*
G01*
X151875500Y-87180000D01*
G75*
G02*
X152113000Y-87417500I0J-237500D01*
G01*
X152113000Y-87917500D01*
G75*
G02*
X151875500Y-88155000I-237500J0D01*
G01*
G37*
G36*
G01*
X151875500Y-89980000D02*
X151400500Y-89980000D01*
G75*
G02*
X151163000Y-89742500I0J237500D01*
G01*
X151163000Y-89242500D01*
G75*
G02*
X151400500Y-89005000I237500J0D01*
G01*
X151875500Y-89005000D01*
G75*
G02*
X152113000Y-89242500I0J-237500D01*
G01*
X152113000Y-89742500D01*
G75*
G02*
X151875500Y-89980000I-237500J0D01*
G01*
G37*
%TD*%
%TO.C,R40*%
G36*
G01*
X129175500Y-102697500D02*
X129650500Y-102697500D01*
G75*
G02*
X129888000Y-102935000I0J-237500D01*
G01*
X129888000Y-103435000D01*
G75*
G02*
X129650500Y-103672500I-237500J0D01*
G01*
X129175500Y-103672500D01*
G75*
G02*
X128938000Y-103435000I0J237500D01*
G01*
X128938000Y-102935000D01*
G75*
G02*
X129175500Y-102697500I237500J0D01*
G01*
G37*
G36*
G01*
X129175500Y-100872500D02*
X129650500Y-100872500D01*
G75*
G02*
X129888000Y-101110000I0J-237500D01*
G01*
X129888000Y-101610000D01*
G75*
G02*
X129650500Y-101847500I-237500J0D01*
G01*
X129175500Y-101847500D01*
G75*
G02*
X128938000Y-101610000I0J237500D01*
G01*
X128938000Y-101110000D01*
G75*
G02*
X129175500Y-100872500I237500J0D01*
G01*
G37*
%TD*%
%TO.C,D8*%
G36*
G01*
X126635500Y-102900000D02*
X127110500Y-102900000D01*
G75*
G02*
X127348000Y-103137500I0J-237500D01*
G01*
X127348000Y-103712500D01*
G75*
G02*
X127110500Y-103950000I-237500J0D01*
G01*
X126635500Y-103950000D01*
G75*
G02*
X126398000Y-103712500I0J237500D01*
G01*
X126398000Y-103137500D01*
G75*
G02*
X126635500Y-102900000I237500J0D01*
G01*
G37*
G36*
G01*
X126635500Y-101150000D02*
X127110500Y-101150000D01*
G75*
G02*
X127348000Y-101387500I0J-237500D01*
G01*
X127348000Y-101962500D01*
G75*
G02*
X127110500Y-102200000I-237500J0D01*
G01*
X126635500Y-102200000D01*
G75*
G02*
X126398000Y-101962500I0J237500D01*
G01*
X126398000Y-101387500D01*
G75*
G02*
X126635500Y-101150000I237500J0D01*
G01*
G37*
%TD*%
D24*
%TO.C,J11*%
X160457797Y-55051321D03*
X162997797Y-55051321D03*
X165537797Y-55051321D03*
X168077797Y-55051321D03*
X170617797Y-55051321D03*
X173157797Y-55051321D03*
X175697797Y-55051321D03*
X178237797Y-55051321D03*
X180777797Y-55051321D03*
X183317797Y-55051321D03*
X185857797Y-55051321D03*
X188397797Y-55051321D03*
X190937797Y-55051321D03*
X193477797Y-55051321D03*
X196017797Y-55051321D03*
X198557797Y-55051321D03*
X201097797Y-55051321D03*
X203637797Y-55051321D03*
X206177797Y-55051321D03*
D25*
X208717797Y-55051321D03*
%TD*%
D24*
%TO.C,J10*%
X160438000Y-47665000D03*
X162978000Y-47665000D03*
X165518000Y-47665000D03*
X168058000Y-47665000D03*
X170598000Y-47665000D03*
X173138000Y-47665000D03*
X175678000Y-47665000D03*
X178218000Y-47665000D03*
X180758000Y-47665000D03*
X183298000Y-47665000D03*
X185838000Y-47665000D03*
X188378000Y-47665000D03*
X190918000Y-47665000D03*
X193458000Y-47665000D03*
X195998000Y-47665000D03*
X198538000Y-47665000D03*
X201078000Y-47665000D03*
X203618000Y-47665000D03*
X206158000Y-47665000D03*
D25*
X208698000Y-47665000D03*
%TD*%
%TO.C,R39*%
G36*
G01*
X160695297Y-58261321D02*
X160220297Y-58261321D01*
G75*
G02*
X159982797Y-58023821I0J237500D01*
G01*
X159982797Y-57523821D01*
G75*
G02*
X160220297Y-57286321I237500J0D01*
G01*
X160695297Y-57286321D01*
G75*
G02*
X160932797Y-57523821I0J-237500D01*
G01*
X160932797Y-58023821D01*
G75*
G02*
X160695297Y-58261321I-237500J0D01*
G01*
G37*
G36*
G01*
X160695297Y-60086321D02*
X160220297Y-60086321D01*
G75*
G02*
X159982797Y-59848821I0J237500D01*
G01*
X159982797Y-59348821D01*
G75*
G02*
X160220297Y-59111321I237500J0D01*
G01*
X160695297Y-59111321D01*
G75*
G02*
X160932797Y-59348821I0J-237500D01*
G01*
X160932797Y-59848821D01*
G75*
G02*
X160695297Y-60086321I-237500J0D01*
G01*
G37*
%TD*%
%TO.C,R38*%
G36*
G01*
X163235297Y-58261321D02*
X162760297Y-58261321D01*
G75*
G02*
X162522797Y-58023821I0J237500D01*
G01*
X162522797Y-57523821D01*
G75*
G02*
X162760297Y-57286321I237500J0D01*
G01*
X163235297Y-57286321D01*
G75*
G02*
X163472797Y-57523821I0J-237500D01*
G01*
X163472797Y-58023821D01*
G75*
G02*
X163235297Y-58261321I-237500J0D01*
G01*
G37*
G36*
G01*
X163235297Y-60086321D02*
X162760297Y-60086321D01*
G75*
G02*
X162522797Y-59848821I0J237500D01*
G01*
X162522797Y-59348821D01*
G75*
G02*
X162760297Y-59111321I237500J0D01*
G01*
X163235297Y-59111321D01*
G75*
G02*
X163472797Y-59348821I0J-237500D01*
G01*
X163472797Y-59848821D01*
G75*
G02*
X163235297Y-60086321I-237500J0D01*
G01*
G37*
%TD*%
%TO.C,R37*%
G36*
G01*
X165775296Y-58261322D02*
X165300296Y-58261322D01*
G75*
G02*
X165062796Y-58023822I0J237500D01*
G01*
X165062796Y-57523822D01*
G75*
G02*
X165300296Y-57286322I237500J0D01*
G01*
X165775296Y-57286322D01*
G75*
G02*
X166012796Y-57523822I0J-237500D01*
G01*
X166012796Y-58023822D01*
G75*
G02*
X165775296Y-58261322I-237500J0D01*
G01*
G37*
G36*
G01*
X165775296Y-60086322D02*
X165300296Y-60086322D01*
G75*
G02*
X165062796Y-59848822I0J237500D01*
G01*
X165062796Y-59348822D01*
G75*
G02*
X165300296Y-59111322I237500J0D01*
G01*
X165775296Y-59111322D01*
G75*
G02*
X166012796Y-59348822I0J-237500D01*
G01*
X166012796Y-59848822D01*
G75*
G02*
X165775296Y-60086322I-237500J0D01*
G01*
G37*
%TD*%
%TO.C,R36*%
G36*
G01*
X168315298Y-58261322D02*
X167840298Y-58261322D01*
G75*
G02*
X167602798Y-58023822I0J237500D01*
G01*
X167602798Y-57523822D01*
G75*
G02*
X167840298Y-57286322I237500J0D01*
G01*
X168315298Y-57286322D01*
G75*
G02*
X168552798Y-57523822I0J-237500D01*
G01*
X168552798Y-58023822D01*
G75*
G02*
X168315298Y-58261322I-237500J0D01*
G01*
G37*
G36*
G01*
X168315298Y-60086322D02*
X167840298Y-60086322D01*
G75*
G02*
X167602798Y-59848822I0J237500D01*
G01*
X167602798Y-59348822D01*
G75*
G02*
X167840298Y-59111322I237500J0D01*
G01*
X168315298Y-59111322D01*
G75*
G02*
X168552798Y-59348822I0J-237500D01*
G01*
X168552798Y-59848822D01*
G75*
G02*
X168315298Y-60086322I-237500J0D01*
G01*
G37*
%TD*%
%TO.C,R35*%
G36*
G01*
X170855297Y-58261321D02*
X170380297Y-58261321D01*
G75*
G02*
X170142797Y-58023821I0J237500D01*
G01*
X170142797Y-57523821D01*
G75*
G02*
X170380297Y-57286321I237500J0D01*
G01*
X170855297Y-57286321D01*
G75*
G02*
X171092797Y-57523821I0J-237500D01*
G01*
X171092797Y-58023821D01*
G75*
G02*
X170855297Y-58261321I-237500J0D01*
G01*
G37*
G36*
G01*
X170855297Y-60086321D02*
X170380297Y-60086321D01*
G75*
G02*
X170142797Y-59848821I0J237500D01*
G01*
X170142797Y-59348821D01*
G75*
G02*
X170380297Y-59111321I237500J0D01*
G01*
X170855297Y-59111321D01*
G75*
G02*
X171092797Y-59348821I0J-237500D01*
G01*
X171092797Y-59848821D01*
G75*
G02*
X170855297Y-60086321I-237500J0D01*
G01*
G37*
%TD*%
%TO.C,R34*%
G36*
G01*
X173395297Y-58261321D02*
X172920297Y-58261321D01*
G75*
G02*
X172682797Y-58023821I0J237500D01*
G01*
X172682797Y-57523821D01*
G75*
G02*
X172920297Y-57286321I237500J0D01*
G01*
X173395297Y-57286321D01*
G75*
G02*
X173632797Y-57523821I0J-237500D01*
G01*
X173632797Y-58023821D01*
G75*
G02*
X173395297Y-58261321I-237500J0D01*
G01*
G37*
G36*
G01*
X173395297Y-60086321D02*
X172920297Y-60086321D01*
G75*
G02*
X172682797Y-59848821I0J237500D01*
G01*
X172682797Y-59348821D01*
G75*
G02*
X172920297Y-59111321I237500J0D01*
G01*
X173395297Y-59111321D01*
G75*
G02*
X173632797Y-59348821I0J-237500D01*
G01*
X173632797Y-59848821D01*
G75*
G02*
X173395297Y-60086321I-237500J0D01*
G01*
G37*
%TD*%
%TO.C,R33*%
G36*
G01*
X175935297Y-58261321D02*
X175460297Y-58261321D01*
G75*
G02*
X175222797Y-58023821I0J237500D01*
G01*
X175222797Y-57523821D01*
G75*
G02*
X175460297Y-57286321I237500J0D01*
G01*
X175935297Y-57286321D01*
G75*
G02*
X176172797Y-57523821I0J-237500D01*
G01*
X176172797Y-58023821D01*
G75*
G02*
X175935297Y-58261321I-237500J0D01*
G01*
G37*
G36*
G01*
X175935297Y-60086321D02*
X175460297Y-60086321D01*
G75*
G02*
X175222797Y-59848821I0J237500D01*
G01*
X175222797Y-59348821D01*
G75*
G02*
X175460297Y-59111321I237500J0D01*
G01*
X175935297Y-59111321D01*
G75*
G02*
X176172797Y-59348821I0J-237500D01*
G01*
X176172797Y-59848821D01*
G75*
G02*
X175935297Y-60086321I-237500J0D01*
G01*
G37*
%TD*%
%TO.C,R32*%
G36*
G01*
X178475297Y-58261321D02*
X178000297Y-58261321D01*
G75*
G02*
X177762797Y-58023821I0J237500D01*
G01*
X177762797Y-57523821D01*
G75*
G02*
X178000297Y-57286321I237500J0D01*
G01*
X178475297Y-57286321D01*
G75*
G02*
X178712797Y-57523821I0J-237500D01*
G01*
X178712797Y-58023821D01*
G75*
G02*
X178475297Y-58261321I-237500J0D01*
G01*
G37*
G36*
G01*
X178475297Y-60086321D02*
X178000297Y-60086321D01*
G75*
G02*
X177762797Y-59848821I0J237500D01*
G01*
X177762797Y-59348821D01*
G75*
G02*
X178000297Y-59111321I237500J0D01*
G01*
X178475297Y-59111321D01*
G75*
G02*
X178712797Y-59348821I0J-237500D01*
G01*
X178712797Y-59848821D01*
G75*
G02*
X178475297Y-60086321I-237500J0D01*
G01*
G37*
%TD*%
%TO.C,R31*%
G36*
G01*
X181015298Y-58261321D02*
X180540298Y-58261321D01*
G75*
G02*
X180302798Y-58023821I0J237500D01*
G01*
X180302798Y-57523821D01*
G75*
G02*
X180540298Y-57286321I237500J0D01*
G01*
X181015298Y-57286321D01*
G75*
G02*
X181252798Y-57523821I0J-237500D01*
G01*
X181252798Y-58023821D01*
G75*
G02*
X181015298Y-58261321I-237500J0D01*
G01*
G37*
G36*
G01*
X181015298Y-60086321D02*
X180540298Y-60086321D01*
G75*
G02*
X180302798Y-59848821I0J237500D01*
G01*
X180302798Y-59348821D01*
G75*
G02*
X180540298Y-59111321I237500J0D01*
G01*
X181015298Y-59111321D01*
G75*
G02*
X181252798Y-59348821I0J-237500D01*
G01*
X181252798Y-59848821D01*
G75*
G02*
X181015298Y-60086321I-237500J0D01*
G01*
G37*
%TD*%
%TO.C,R30*%
G36*
G01*
X183555297Y-58261321D02*
X183080297Y-58261321D01*
G75*
G02*
X182842797Y-58023821I0J237500D01*
G01*
X182842797Y-57523821D01*
G75*
G02*
X183080297Y-57286321I237500J0D01*
G01*
X183555297Y-57286321D01*
G75*
G02*
X183792797Y-57523821I0J-237500D01*
G01*
X183792797Y-58023821D01*
G75*
G02*
X183555297Y-58261321I-237500J0D01*
G01*
G37*
G36*
G01*
X183555297Y-60086321D02*
X183080297Y-60086321D01*
G75*
G02*
X182842797Y-59848821I0J237500D01*
G01*
X182842797Y-59348821D01*
G75*
G02*
X183080297Y-59111321I237500J0D01*
G01*
X183555297Y-59111321D01*
G75*
G02*
X183792797Y-59348821I0J-237500D01*
G01*
X183792797Y-59848821D01*
G75*
G02*
X183555297Y-60086321I-237500J0D01*
G01*
G37*
%TD*%
%TO.C,R29*%
G36*
G01*
X186095297Y-58261321D02*
X185620297Y-58261321D01*
G75*
G02*
X185382797Y-58023821I0J237500D01*
G01*
X185382797Y-57523821D01*
G75*
G02*
X185620297Y-57286321I237500J0D01*
G01*
X186095297Y-57286321D01*
G75*
G02*
X186332797Y-57523821I0J-237500D01*
G01*
X186332797Y-58023821D01*
G75*
G02*
X186095297Y-58261321I-237500J0D01*
G01*
G37*
G36*
G01*
X186095297Y-60086321D02*
X185620297Y-60086321D01*
G75*
G02*
X185382797Y-59848821I0J237500D01*
G01*
X185382797Y-59348821D01*
G75*
G02*
X185620297Y-59111321I237500J0D01*
G01*
X186095297Y-59111321D01*
G75*
G02*
X186332797Y-59348821I0J-237500D01*
G01*
X186332797Y-59848821D01*
G75*
G02*
X186095297Y-60086321I-237500J0D01*
G01*
G37*
%TD*%
%TO.C,R28*%
G36*
G01*
X188635296Y-58261322D02*
X188160296Y-58261322D01*
G75*
G02*
X187922796Y-58023822I0J237500D01*
G01*
X187922796Y-57523822D01*
G75*
G02*
X188160296Y-57286322I237500J0D01*
G01*
X188635296Y-57286322D01*
G75*
G02*
X188872796Y-57523822I0J-237500D01*
G01*
X188872796Y-58023822D01*
G75*
G02*
X188635296Y-58261322I-237500J0D01*
G01*
G37*
G36*
G01*
X188635296Y-60086322D02*
X188160296Y-60086322D01*
G75*
G02*
X187922796Y-59848822I0J237500D01*
G01*
X187922796Y-59348822D01*
G75*
G02*
X188160296Y-59111322I237500J0D01*
G01*
X188635296Y-59111322D01*
G75*
G02*
X188872796Y-59348822I0J-237500D01*
G01*
X188872796Y-59848822D01*
G75*
G02*
X188635296Y-60086322I-237500J0D01*
G01*
G37*
%TD*%
%TO.C,R27*%
G36*
G01*
X191175298Y-58261322D02*
X190700298Y-58261322D01*
G75*
G02*
X190462798Y-58023822I0J237500D01*
G01*
X190462798Y-57523822D01*
G75*
G02*
X190700298Y-57286322I237500J0D01*
G01*
X191175298Y-57286322D01*
G75*
G02*
X191412798Y-57523822I0J-237500D01*
G01*
X191412798Y-58023822D01*
G75*
G02*
X191175298Y-58261322I-237500J0D01*
G01*
G37*
G36*
G01*
X191175298Y-60086322D02*
X190700298Y-60086322D01*
G75*
G02*
X190462798Y-59848822I0J237500D01*
G01*
X190462798Y-59348822D01*
G75*
G02*
X190700298Y-59111322I237500J0D01*
G01*
X191175298Y-59111322D01*
G75*
G02*
X191412798Y-59348822I0J-237500D01*
G01*
X191412798Y-59848822D01*
G75*
G02*
X191175298Y-60086322I-237500J0D01*
G01*
G37*
%TD*%
%TO.C,R26*%
G36*
G01*
X193715297Y-58261321D02*
X193240297Y-58261321D01*
G75*
G02*
X193002797Y-58023821I0J237500D01*
G01*
X193002797Y-57523821D01*
G75*
G02*
X193240297Y-57286321I237500J0D01*
G01*
X193715297Y-57286321D01*
G75*
G02*
X193952797Y-57523821I0J-237500D01*
G01*
X193952797Y-58023821D01*
G75*
G02*
X193715297Y-58261321I-237500J0D01*
G01*
G37*
G36*
G01*
X193715297Y-60086321D02*
X193240297Y-60086321D01*
G75*
G02*
X193002797Y-59848821I0J237500D01*
G01*
X193002797Y-59348821D01*
G75*
G02*
X193240297Y-59111321I237500J0D01*
G01*
X193715297Y-59111321D01*
G75*
G02*
X193952797Y-59348821I0J-237500D01*
G01*
X193952797Y-59848821D01*
G75*
G02*
X193715297Y-60086321I-237500J0D01*
G01*
G37*
%TD*%
%TO.C,R25*%
G36*
G01*
X196255297Y-58261321D02*
X195780297Y-58261321D01*
G75*
G02*
X195542797Y-58023821I0J237500D01*
G01*
X195542797Y-57523821D01*
G75*
G02*
X195780297Y-57286321I237500J0D01*
G01*
X196255297Y-57286321D01*
G75*
G02*
X196492797Y-57523821I0J-237500D01*
G01*
X196492797Y-58023821D01*
G75*
G02*
X196255297Y-58261321I-237500J0D01*
G01*
G37*
G36*
G01*
X196255297Y-60086321D02*
X195780297Y-60086321D01*
G75*
G02*
X195542797Y-59848821I0J237500D01*
G01*
X195542797Y-59348821D01*
G75*
G02*
X195780297Y-59111321I237500J0D01*
G01*
X196255297Y-59111321D01*
G75*
G02*
X196492797Y-59348821I0J-237500D01*
G01*
X196492797Y-59848821D01*
G75*
G02*
X196255297Y-60086321I-237500J0D01*
G01*
G37*
%TD*%
%TO.C,R24*%
G36*
G01*
X198795297Y-58261321D02*
X198320297Y-58261321D01*
G75*
G02*
X198082797Y-58023821I0J237500D01*
G01*
X198082797Y-57523821D01*
G75*
G02*
X198320297Y-57286321I237500J0D01*
G01*
X198795297Y-57286321D01*
G75*
G02*
X199032797Y-57523821I0J-237500D01*
G01*
X199032797Y-58023821D01*
G75*
G02*
X198795297Y-58261321I-237500J0D01*
G01*
G37*
G36*
G01*
X198795297Y-60086321D02*
X198320297Y-60086321D01*
G75*
G02*
X198082797Y-59848821I0J237500D01*
G01*
X198082797Y-59348821D01*
G75*
G02*
X198320297Y-59111321I237500J0D01*
G01*
X198795297Y-59111321D01*
G75*
G02*
X199032797Y-59348821I0J-237500D01*
G01*
X199032797Y-59848821D01*
G75*
G02*
X198795297Y-60086321I-237500J0D01*
G01*
G37*
%TD*%
%TO.C,R23*%
G36*
G01*
X201365297Y-58376320D02*
X200890297Y-58376320D01*
G75*
G02*
X200652797Y-58138820I0J237500D01*
G01*
X200652797Y-57638820D01*
G75*
G02*
X200890297Y-57401320I237500J0D01*
G01*
X201365297Y-57401320D01*
G75*
G02*
X201602797Y-57638820I0J-237500D01*
G01*
X201602797Y-58138820D01*
G75*
G02*
X201365297Y-58376320I-237500J0D01*
G01*
G37*
G36*
G01*
X201365297Y-60201320D02*
X200890297Y-60201320D01*
G75*
G02*
X200652797Y-59963820I0J237500D01*
G01*
X200652797Y-59463820D01*
G75*
G02*
X200890297Y-59226320I237500J0D01*
G01*
X201365297Y-59226320D01*
G75*
G02*
X201602797Y-59463820I0J-237500D01*
G01*
X201602797Y-59963820D01*
G75*
G02*
X201365297Y-60201320I-237500J0D01*
G01*
G37*
%TD*%
%TO.C,R22*%
G36*
G01*
X203875298Y-58261321D02*
X203400298Y-58261321D01*
G75*
G02*
X203162798Y-58023821I0J237500D01*
G01*
X203162798Y-57523821D01*
G75*
G02*
X203400298Y-57286321I237500J0D01*
G01*
X203875298Y-57286321D01*
G75*
G02*
X204112798Y-57523821I0J-237500D01*
G01*
X204112798Y-58023821D01*
G75*
G02*
X203875298Y-58261321I-237500J0D01*
G01*
G37*
G36*
G01*
X203875298Y-60086321D02*
X203400298Y-60086321D01*
G75*
G02*
X203162798Y-59848821I0J237500D01*
G01*
X203162798Y-59348821D01*
G75*
G02*
X203400298Y-59111321I237500J0D01*
G01*
X203875298Y-59111321D01*
G75*
G02*
X204112798Y-59348821I0J-237500D01*
G01*
X204112798Y-59848821D01*
G75*
G02*
X203875298Y-60086321I-237500J0D01*
G01*
G37*
%TD*%
%TO.C,R21*%
G36*
G01*
X206415297Y-58261321D02*
X205940297Y-58261321D01*
G75*
G02*
X205702797Y-58023821I0J237500D01*
G01*
X205702797Y-57523821D01*
G75*
G02*
X205940297Y-57286321I237500J0D01*
G01*
X206415297Y-57286321D01*
G75*
G02*
X206652797Y-57523821I0J-237500D01*
G01*
X206652797Y-58023821D01*
G75*
G02*
X206415297Y-58261321I-237500J0D01*
G01*
G37*
G36*
G01*
X206415297Y-60086321D02*
X205940297Y-60086321D01*
G75*
G02*
X205702797Y-59848821I0J237500D01*
G01*
X205702797Y-59348821D01*
G75*
G02*
X205940297Y-59111321I237500J0D01*
G01*
X206415297Y-59111321D01*
G75*
G02*
X206652797Y-59348821I0J-237500D01*
G01*
X206652797Y-59848821D01*
G75*
G02*
X206415297Y-60086321I-237500J0D01*
G01*
G37*
%TD*%
%TO.C,R20*%
G36*
G01*
X208955297Y-58261321D02*
X208480297Y-58261321D01*
G75*
G02*
X208242797Y-58023821I0J237500D01*
G01*
X208242797Y-57523821D01*
G75*
G02*
X208480297Y-57286321I237500J0D01*
G01*
X208955297Y-57286321D01*
G75*
G02*
X209192797Y-57523821I0J-237500D01*
G01*
X209192797Y-58023821D01*
G75*
G02*
X208955297Y-58261321I-237500J0D01*
G01*
G37*
G36*
G01*
X208955297Y-60086321D02*
X208480297Y-60086321D01*
G75*
G02*
X208242797Y-59848821I0J237500D01*
G01*
X208242797Y-59348821D01*
G75*
G02*
X208480297Y-59111321I237500J0D01*
G01*
X208955297Y-59111321D01*
G75*
G02*
X209192797Y-59348821I0J-237500D01*
G01*
X209192797Y-59848821D01*
G75*
G02*
X208955297Y-60086321I-237500J0D01*
G01*
G37*
%TD*%
D24*
%TO.C,J9*%
X160438000Y-51365000D03*
X162978000Y-51365000D03*
X165518000Y-51365000D03*
X168058000Y-51365000D03*
X170598000Y-51365000D03*
X173138000Y-51365000D03*
X175678000Y-51365000D03*
X178218000Y-51365000D03*
X180758000Y-51365000D03*
X183298000Y-51365000D03*
X185838000Y-51365000D03*
X188378000Y-51365000D03*
X190918000Y-51365000D03*
X193458000Y-51365000D03*
X195998000Y-51365000D03*
X198538000Y-51365000D03*
X201078000Y-51365000D03*
X203618000Y-51365000D03*
X206158000Y-51365000D03*
D25*
X208698000Y-51365000D03*
%TD*%
D24*
%TO.C,J8*%
X160438000Y-62365000D03*
X162978000Y-62365000D03*
X165518000Y-62365000D03*
X168058000Y-62365000D03*
X170598000Y-62365000D03*
X173138000Y-62365000D03*
X175678000Y-62365000D03*
X178218000Y-62365000D03*
X180758000Y-62365000D03*
X183298000Y-62365000D03*
X185838000Y-62365000D03*
X188378000Y-62365000D03*
X190918000Y-62365000D03*
X193458000Y-62365000D03*
X195998000Y-62365000D03*
X198538000Y-62365000D03*
X201078000Y-62365000D03*
X203618000Y-62365000D03*
X206158000Y-62365000D03*
D25*
X208698000Y-62365000D03*
%TD*%
%TO.C,R19*%
G36*
G01*
X192705500Y-124739680D02*
X193180500Y-124739680D01*
G75*
G02*
X193418000Y-124977180I0J-237500D01*
G01*
X193418000Y-125477180D01*
G75*
G02*
X193180500Y-125714680I-237500J0D01*
G01*
X192705500Y-125714680D01*
G75*
G02*
X192468000Y-125477180I0J237500D01*
G01*
X192468000Y-124977180D01*
G75*
G02*
X192705500Y-124739680I237500J0D01*
G01*
G37*
G36*
G01*
X192705500Y-122914680D02*
X193180500Y-122914680D01*
G75*
G02*
X193418000Y-123152180I0J-237500D01*
G01*
X193418000Y-123652180D01*
G75*
G02*
X193180500Y-123889680I-237500J0D01*
G01*
X192705500Y-123889680D01*
G75*
G02*
X192468000Y-123652180I0J237500D01*
G01*
X192468000Y-123152180D01*
G75*
G02*
X192705500Y-122914680I237500J0D01*
G01*
G37*
%TD*%
%TO.C,R18*%
G36*
G01*
X190705499Y-124739680D02*
X191180499Y-124739680D01*
G75*
G02*
X191417999Y-124977180I0J-237500D01*
G01*
X191417999Y-125477180D01*
G75*
G02*
X191180499Y-125714680I-237500J0D01*
G01*
X190705499Y-125714680D01*
G75*
G02*
X190467999Y-125477180I0J237500D01*
G01*
X190467999Y-124977180D01*
G75*
G02*
X190705499Y-124739680I237500J0D01*
G01*
G37*
G36*
G01*
X190705499Y-122914680D02*
X191180499Y-122914680D01*
G75*
G02*
X191417999Y-123152180I0J-237500D01*
G01*
X191417999Y-123652180D01*
G75*
G02*
X191180499Y-123889680I-237500J0D01*
G01*
X190705499Y-123889680D01*
G75*
G02*
X190467999Y-123652180I0J237500D01*
G01*
X190467999Y-123152180D01*
G75*
G02*
X190705499Y-122914680I237500J0D01*
G01*
G37*
%TD*%
%TO.C,R17*%
G36*
G01*
X188705500Y-124739680D02*
X189180500Y-124739680D01*
G75*
G02*
X189418000Y-124977180I0J-237500D01*
G01*
X189418000Y-125477180D01*
G75*
G02*
X189180500Y-125714680I-237500J0D01*
G01*
X188705500Y-125714680D01*
G75*
G02*
X188468000Y-125477180I0J237500D01*
G01*
X188468000Y-124977180D01*
G75*
G02*
X188705500Y-124739680I237500J0D01*
G01*
G37*
G36*
G01*
X188705500Y-122914680D02*
X189180500Y-122914680D01*
G75*
G02*
X189418000Y-123152180I0J-237500D01*
G01*
X189418000Y-123652180D01*
G75*
G02*
X189180500Y-123889680I-237500J0D01*
G01*
X188705500Y-123889680D01*
G75*
G02*
X188468000Y-123652180I0J237500D01*
G01*
X188468000Y-123152180D01*
G75*
G02*
X188705500Y-122914680I237500J0D01*
G01*
G37*
%TD*%
%TO.C,R16*%
G36*
G01*
X186705500Y-124739679D02*
X187180500Y-124739679D01*
G75*
G02*
X187418000Y-124977179I0J-237500D01*
G01*
X187418000Y-125477179D01*
G75*
G02*
X187180500Y-125714679I-237500J0D01*
G01*
X186705500Y-125714679D01*
G75*
G02*
X186468000Y-125477179I0J237500D01*
G01*
X186468000Y-124977179D01*
G75*
G02*
X186705500Y-124739679I237500J0D01*
G01*
G37*
G36*
G01*
X186705500Y-122914679D02*
X187180500Y-122914679D01*
G75*
G02*
X187418000Y-123152179I0J-237500D01*
G01*
X187418000Y-123652179D01*
G75*
G02*
X187180500Y-123889679I-237500J0D01*
G01*
X186705500Y-123889679D01*
G75*
G02*
X186468000Y-123652179I0J237500D01*
G01*
X186468000Y-123152179D01*
G75*
G02*
X186705500Y-122914679I237500J0D01*
G01*
G37*
%TD*%
%TO.C,R15*%
G36*
G01*
X184705500Y-124739680D02*
X185180500Y-124739680D01*
G75*
G02*
X185418000Y-124977180I0J-237500D01*
G01*
X185418000Y-125477180D01*
G75*
G02*
X185180500Y-125714680I-237500J0D01*
G01*
X184705500Y-125714680D01*
G75*
G02*
X184468000Y-125477180I0J237500D01*
G01*
X184468000Y-124977180D01*
G75*
G02*
X184705500Y-124739680I237500J0D01*
G01*
G37*
G36*
G01*
X184705500Y-122914680D02*
X185180500Y-122914680D01*
G75*
G02*
X185418000Y-123152180I0J-237500D01*
G01*
X185418000Y-123652180D01*
G75*
G02*
X185180500Y-123889680I-237500J0D01*
G01*
X184705500Y-123889680D01*
G75*
G02*
X184468000Y-123652180I0J237500D01*
G01*
X184468000Y-123152180D01*
G75*
G02*
X184705500Y-122914680I237500J0D01*
G01*
G37*
%TD*%
D26*
%TO.C,D7*%
X121068000Y-115555000D03*
X121068000Y-117155000D03*
X121068000Y-118755000D03*
X116168000Y-118755000D03*
X116168000Y-117155000D03*
X116168000Y-115555000D03*
%TD*%
D27*
%TO.C,Y2*%
X191872999Y-105865000D03*
X195122999Y-105865000D03*
%TD*%
D28*
%TO.C,Y1*%
X186856000Y-85743000D03*
X186856000Y-83543000D03*
X188556000Y-83543000D03*
X188556000Y-85743000D03*
%TD*%
D29*
%TO.C,U4*%
X158360200Y-104460000D03*
X158360200Y-105730000D03*
X158360200Y-107000000D03*
X158360200Y-108270000D03*
X153635800Y-108270000D03*
X153635800Y-107000000D03*
X153635800Y-105730000D03*
X153635800Y-104460000D03*
%TD*%
D30*
%TO.C,U3*%
X143498000Y-48110000D03*
X143498000Y-49380000D03*
X143498000Y-50650000D03*
X143498000Y-51920000D03*
X143498000Y-53190000D03*
X143498000Y-54460000D03*
X143498000Y-55730000D03*
X143498000Y-57000000D03*
X143498000Y-58270000D03*
X143498000Y-59540000D03*
X143498000Y-60810000D03*
X143498000Y-62080000D03*
X143498000Y-63350000D03*
X143498000Y-64620000D03*
D31*
X140713000Y-65620000D03*
X139443000Y-65620000D03*
X138173000Y-65620000D03*
X136903000Y-65620000D03*
X135633000Y-65620000D03*
X134363000Y-65620000D03*
X133093000Y-65620000D03*
X131823000Y-65620000D03*
X130553000Y-65620000D03*
X129283000Y-65620000D03*
D30*
X126498000Y-64620000D03*
X126498000Y-63350000D03*
X126498000Y-62080000D03*
X126498000Y-60810000D03*
X126498000Y-59540000D03*
X126498000Y-58270000D03*
X126498000Y-57000000D03*
X126498000Y-55730000D03*
X126498000Y-54460000D03*
X126498000Y-53190000D03*
X126498000Y-51920000D03*
X126498000Y-50650000D03*
X126498000Y-49380000D03*
X126498000Y-48110000D03*
D32*
X133998000Y-55610000D03*
%TD*%
D16*
%TO.C,U2*%
X122434000Y-99538001D03*
X122434000Y-94938001D03*
X122434000Y-97238001D03*
D17*
X116134000Y-97238001D03*
%TD*%
D16*
%TO.C,U1*%
X120148000Y-109665000D03*
X120148000Y-105065000D03*
X120148000Y-107365000D03*
D17*
X113848000Y-107365000D03*
%TD*%
D33*
%TO.C,SW2*%
X148723000Y-57915000D03*
X148723000Y-48815000D03*
X153273000Y-57915000D03*
X153273000Y-48815000D03*
%TD*%
%TO.C,SW1*%
X116723000Y-57915000D03*
X116723000Y-48815000D03*
X121273000Y-57915000D03*
X121273000Y-48815000D03*
%TD*%
%TO.C,R11*%
G36*
G01*
X187094725Y-105345800D02*
X186619725Y-105345800D01*
G75*
G02*
X186382225Y-105108300I0J237500D01*
G01*
X186382225Y-104608300D01*
G75*
G02*
X186619725Y-104370800I237500J0D01*
G01*
X187094725Y-104370800D01*
G75*
G02*
X187332225Y-104608300I0J-237500D01*
G01*
X187332225Y-105108300D01*
G75*
G02*
X187094725Y-105345800I-237500J0D01*
G01*
G37*
G36*
G01*
X187094725Y-107170800D02*
X186619725Y-107170800D01*
G75*
G02*
X186382225Y-106933300I0J237500D01*
G01*
X186382225Y-106433300D01*
G75*
G02*
X186619725Y-106195800I237500J0D01*
G01*
X187094725Y-106195800D01*
G75*
G02*
X187332225Y-106433300I0J-237500D01*
G01*
X187332225Y-106933300D01*
G75*
G02*
X187094725Y-107170800I-237500J0D01*
G01*
G37*
%TD*%
%TO.C,R10*%
G36*
G01*
X192335500Y-97102500D02*
X192335500Y-96627500D01*
G75*
G02*
X192573000Y-96390000I237500J0D01*
G01*
X193073000Y-96390000D01*
G75*
G02*
X193310500Y-96627500I0J-237500D01*
G01*
X193310500Y-97102500D01*
G75*
G02*
X193073000Y-97340000I-237500J0D01*
G01*
X192573000Y-97340000D01*
G75*
G02*
X192335500Y-97102500I0J237500D01*
G01*
G37*
G36*
G01*
X190510500Y-97102500D02*
X190510500Y-96627500D01*
G75*
G02*
X190748000Y-96390000I237500J0D01*
G01*
X191248000Y-96390000D01*
G75*
G02*
X191485500Y-96627500I0J-237500D01*
G01*
X191485500Y-97102500D01*
G75*
G02*
X191248000Y-97340000I-237500J0D01*
G01*
X190748000Y-97340000D01*
G75*
G02*
X190510500Y-97102500I0J237500D01*
G01*
G37*
%TD*%
%TO.C,R9*%
G36*
G01*
X163660500Y-104127500D02*
X163660500Y-104602500D01*
G75*
G02*
X163423000Y-104840000I-237500J0D01*
G01*
X162923000Y-104840000D01*
G75*
G02*
X162685500Y-104602500I0J237500D01*
G01*
X162685500Y-104127500D01*
G75*
G02*
X162923000Y-103890000I237500J0D01*
G01*
X163423000Y-103890000D01*
G75*
G02*
X163660500Y-104127500I0J-237500D01*
G01*
G37*
G36*
G01*
X165485500Y-104127500D02*
X165485500Y-104602500D01*
G75*
G02*
X165248000Y-104840000I-237500J0D01*
G01*
X164748000Y-104840000D01*
G75*
G02*
X164510500Y-104602500I0J237500D01*
G01*
X164510500Y-104127500D01*
G75*
G02*
X164748000Y-103890000I237500J0D01*
G01*
X165248000Y-103890000D01*
G75*
G02*
X165485500Y-104127500I0J-237500D01*
G01*
G37*
%TD*%
%TO.C,R8*%
G36*
G01*
X155573000Y-102127500D02*
X155573000Y-102602500D01*
G75*
G02*
X155335500Y-102840000I-237500J0D01*
G01*
X154835500Y-102840000D01*
G75*
G02*
X154598000Y-102602500I0J237500D01*
G01*
X154598000Y-102127500D01*
G75*
G02*
X154835500Y-101890000I237500J0D01*
G01*
X155335500Y-101890000D01*
G75*
G02*
X155573000Y-102127500I0J-237500D01*
G01*
G37*
G36*
G01*
X157398000Y-102127500D02*
X157398000Y-102602500D01*
G75*
G02*
X157160500Y-102840000I-237500J0D01*
G01*
X156660500Y-102840000D01*
G75*
G02*
X156423000Y-102602500I0J237500D01*
G01*
X156423000Y-102127500D01*
G75*
G02*
X156660500Y-101890000I237500J0D01*
G01*
X157160500Y-101890000D01*
G75*
G02*
X157398000Y-102127500I0J-237500D01*
G01*
G37*
%TD*%
%TO.C,R7*%
G36*
G01*
X195923000Y-101602500D02*
X195923000Y-101127500D01*
G75*
G02*
X196160500Y-100890000I237500J0D01*
G01*
X196660500Y-100890000D01*
G75*
G02*
X196898000Y-101127500I0J-237500D01*
G01*
X196898000Y-101602500D01*
G75*
G02*
X196660500Y-101840000I-237500J0D01*
G01*
X196160500Y-101840000D01*
G75*
G02*
X195923000Y-101602500I0J237500D01*
G01*
G37*
G36*
G01*
X194098000Y-101602500D02*
X194098000Y-101127500D01*
G75*
G02*
X194335500Y-100890000I237500J0D01*
G01*
X194835500Y-100890000D01*
G75*
G02*
X195073000Y-101127500I0J-237500D01*
G01*
X195073000Y-101602500D01*
G75*
G02*
X194835500Y-101840000I-237500J0D01*
G01*
X194335500Y-101840000D01*
G75*
G02*
X194098000Y-101602500I0J237500D01*
G01*
G37*
%TD*%
%TO.C,R4*%
G36*
G01*
X164510500Y-106602500D02*
X164510500Y-106127500D01*
G75*
G02*
X164748000Y-105890000I237500J0D01*
G01*
X165248000Y-105890000D01*
G75*
G02*
X165485500Y-106127500I0J-237500D01*
G01*
X165485500Y-106602500D01*
G75*
G02*
X165248000Y-106840000I-237500J0D01*
G01*
X164748000Y-106840000D01*
G75*
G02*
X164510500Y-106602500I0J237500D01*
G01*
G37*
G36*
G01*
X162685500Y-106602500D02*
X162685500Y-106127500D01*
G75*
G02*
X162923000Y-105890000I237500J0D01*
G01*
X163423000Y-105890000D01*
G75*
G02*
X163660500Y-106127500I0J-237500D01*
G01*
X163660500Y-106602500D01*
G75*
G02*
X163423000Y-106840000I-237500J0D01*
G01*
X162923000Y-106840000D01*
G75*
G02*
X162685500Y-106602500I0J237500D01*
G01*
G37*
%TD*%
%TO.C,R3*%
G36*
G01*
X163660500Y-108127500D02*
X163660500Y-108602500D01*
G75*
G02*
X163423000Y-108840000I-237500J0D01*
G01*
X162923000Y-108840000D01*
G75*
G02*
X162685500Y-108602500I0J237500D01*
G01*
X162685500Y-108127500D01*
G75*
G02*
X162923000Y-107890000I237500J0D01*
G01*
X163423000Y-107890000D01*
G75*
G02*
X163660500Y-108127500I0J-237500D01*
G01*
G37*
G36*
G01*
X165485500Y-108127500D02*
X165485500Y-108602500D01*
G75*
G02*
X165248000Y-108840000I-237500J0D01*
G01*
X164748000Y-108840000D01*
G75*
G02*
X164510500Y-108602500I0J237500D01*
G01*
X164510500Y-108127500D01*
G75*
G02*
X164748000Y-107890000I237500J0D01*
G01*
X165248000Y-107890000D01*
G75*
G02*
X165485500Y-108127500I0J-237500D01*
G01*
G37*
%TD*%
%TO.C,R2*%
G36*
G01*
X137660500Y-97477500D02*
X137660500Y-97952500D01*
G75*
G02*
X137423000Y-98190000I-237500J0D01*
G01*
X136923000Y-98190000D01*
G75*
G02*
X136685500Y-97952500I0J237500D01*
G01*
X136685500Y-97477500D01*
G75*
G02*
X136923000Y-97240000I237500J0D01*
G01*
X137423000Y-97240000D01*
G75*
G02*
X137660500Y-97477500I0J-237500D01*
G01*
G37*
G36*
G01*
X139485500Y-97477500D02*
X139485500Y-97952500D01*
G75*
G02*
X139248000Y-98190000I-237500J0D01*
G01*
X138748000Y-98190000D01*
G75*
G02*
X138510500Y-97952500I0J237500D01*
G01*
X138510500Y-97477500D01*
G75*
G02*
X138748000Y-97240000I237500J0D01*
G01*
X139248000Y-97240000D01*
G75*
G02*
X139485500Y-97477500I0J-237500D01*
G01*
G37*
%TD*%
%TO.C,R1*%
G36*
G01*
X135598000Y-104914999D02*
X135598000Y-105815001D01*
G75*
G02*
X135348001Y-106065000I-249999J0D01*
G01*
X134647999Y-106065000D01*
G75*
G02*
X134398000Y-105815001I0J249999D01*
G01*
X134398000Y-104914999D01*
G75*
G02*
X134647999Y-104665000I249999J0D01*
G01*
X135348001Y-104665000D01*
G75*
G02*
X135598000Y-104914999I0J-249999D01*
G01*
G37*
G36*
G01*
X137598000Y-104914999D02*
X137598000Y-105815001D01*
G75*
G02*
X137348001Y-106065000I-249999J0D01*
G01*
X136647999Y-106065000D01*
G75*
G02*
X136398000Y-105815001I0J249999D01*
G01*
X136398000Y-104914999D01*
G75*
G02*
X136647999Y-104665000I249999J0D01*
G01*
X137348001Y-104665000D01*
G75*
G02*
X137598000Y-104914999I0J-249999D01*
G01*
G37*
%TD*%
%TO.C,L4*%
G36*
G01*
X169335500Y-108602500D02*
X169335500Y-108127500D01*
G75*
G02*
X169573000Y-107890000I237500J0D01*
G01*
X170073000Y-107890000D01*
G75*
G02*
X170310500Y-108127500I0J-237500D01*
G01*
X170310500Y-108602500D01*
G75*
G02*
X170073000Y-108840000I-237500J0D01*
G01*
X169573000Y-108840000D01*
G75*
G02*
X169335500Y-108602500I0J237500D01*
G01*
G37*
G36*
G01*
X167510500Y-108602500D02*
X167510500Y-108127500D01*
G75*
G02*
X167748000Y-107890000I237500J0D01*
G01*
X168248000Y-107890000D01*
G75*
G02*
X168485500Y-108127500I0J-237500D01*
G01*
X168485500Y-108602500D01*
G75*
G02*
X168248000Y-108840000I-237500J0D01*
G01*
X167748000Y-108840000D01*
G75*
G02*
X167510500Y-108602500I0J237500D01*
G01*
G37*
%TD*%
%TO.C,L3*%
G36*
G01*
X169335500Y-106602500D02*
X169335500Y-106127500D01*
G75*
G02*
X169573000Y-105890000I237500J0D01*
G01*
X170073000Y-105890000D01*
G75*
G02*
X170310500Y-106127500I0J-237500D01*
G01*
X170310500Y-106602500D01*
G75*
G02*
X170073000Y-106840000I-237500J0D01*
G01*
X169573000Y-106840000D01*
G75*
G02*
X169335500Y-106602500I0J237500D01*
G01*
G37*
G36*
G01*
X167510500Y-106602500D02*
X167510500Y-106127500D01*
G75*
G02*
X167748000Y-105890000I237500J0D01*
G01*
X168248000Y-105890000D01*
G75*
G02*
X168485500Y-106127500I0J-237500D01*
G01*
X168485500Y-106602500D01*
G75*
G02*
X168248000Y-106840000I-237500J0D01*
G01*
X167748000Y-106840000D01*
G75*
G02*
X167510500Y-106602500I0J237500D01*
G01*
G37*
%TD*%
%TO.C,L2*%
G36*
G01*
X169335500Y-104602500D02*
X169335500Y-104127500D01*
G75*
G02*
X169573000Y-103890000I237500J0D01*
G01*
X170073000Y-103890000D01*
G75*
G02*
X170310500Y-104127500I0J-237500D01*
G01*
X170310500Y-104602500D01*
G75*
G02*
X170073000Y-104840000I-237500J0D01*
G01*
X169573000Y-104840000D01*
G75*
G02*
X169335500Y-104602500I0J237500D01*
G01*
G37*
G36*
G01*
X167510500Y-104602500D02*
X167510500Y-104127500D01*
G75*
G02*
X167748000Y-103890000I237500J0D01*
G01*
X168248000Y-103890000D01*
G75*
G02*
X168485500Y-104127500I0J-237500D01*
G01*
X168485500Y-104602500D01*
G75*
G02*
X168248000Y-104840000I-237500J0D01*
G01*
X167748000Y-104840000D01*
G75*
G02*
X167510500Y-104602500I0J237500D01*
G01*
G37*
%TD*%
%TO.C,L1*%
G36*
G01*
X195584900Y-92033300D02*
X195584900Y-92508300D01*
G75*
G02*
X195347400Y-92745800I-237500J0D01*
G01*
X194772400Y-92745800D01*
G75*
G02*
X194534900Y-92508300I0J237500D01*
G01*
X194534900Y-92033300D01*
G75*
G02*
X194772400Y-91795800I237500J0D01*
G01*
X195347400Y-91795800D01*
G75*
G02*
X195584900Y-92033300I0J-237500D01*
G01*
G37*
G36*
G01*
X197334900Y-92033300D02*
X197334900Y-92508300D01*
G75*
G02*
X197097400Y-92745800I-237500J0D01*
G01*
X196522400Y-92745800D01*
G75*
G02*
X196284900Y-92508300I0J237500D01*
G01*
X196284900Y-92033300D01*
G75*
G02*
X196522400Y-91795800I237500J0D01*
G01*
X197097400Y-91795800D01*
G75*
G02*
X197334900Y-92033300I0J-237500D01*
G01*
G37*
%TD*%
D18*
%TO.C,J5*%
X208914500Y-110760999D03*
X208914500Y-117910999D03*
D19*
X208914500Y-113210999D03*
X208914500Y-115460999D03*
D20*
X206684500Y-112015999D03*
X206684500Y-116655999D03*
D21*
X206264500Y-113035999D03*
X206264500Y-113675999D03*
X206264500Y-114335999D03*
X206264500Y-114985999D03*
X206264500Y-115635999D03*
%TD*%
D24*
%TO.C,J4*%
X169418000Y-99375000D03*
X169418000Y-96835000D03*
X169418000Y-94295000D03*
D25*
X169418000Y-91755000D03*
%TD*%
D24*
%TO.C,J3*%
X113998000Y-68985000D03*
X113998000Y-66445000D03*
X113998000Y-63905000D03*
D25*
X113998000Y-61365000D03*
%TD*%
D24*
%TO.C,J2*%
X132969000Y-87564000D03*
X130429000Y-87564000D03*
D25*
X127889000Y-87564000D03*
%TD*%
D24*
%TO.C,J1*%
X137538000Y-93365000D03*
D25*
X134998000Y-93365000D03*
%TD*%
%TO.C,D3*%
G36*
G01*
X134413000Y-97992500D02*
X134413000Y-97517500D01*
G75*
G02*
X134650500Y-97280000I237500J0D01*
G01*
X135225500Y-97280000D01*
G75*
G02*
X135463000Y-97517500I0J-237500D01*
G01*
X135463000Y-97992500D01*
G75*
G02*
X135225500Y-98230000I-237500J0D01*
G01*
X134650500Y-98230000D01*
G75*
G02*
X134413000Y-97992500I0J237500D01*
G01*
G37*
G36*
G01*
X132663000Y-97992500D02*
X132663000Y-97517500D01*
G75*
G02*
X132900500Y-97280000I237500J0D01*
G01*
X133475500Y-97280000D01*
G75*
G02*
X133713000Y-97517500I0J-237500D01*
G01*
X133713000Y-97992500D01*
G75*
G02*
X133475500Y-98230000I-237500J0D01*
G01*
X132900500Y-98230000D01*
G75*
G02*
X132663000Y-97992500I0J237500D01*
G01*
G37*
%TD*%
D22*
%TO.C,D2*%
X133498000Y-102365000D03*
X138498000Y-102365000D03*
%TD*%
%TO.C,D1*%
X138498000Y-109365000D03*
X133498000Y-109365000D03*
%TD*%
%TO.C,C36*%
G36*
G01*
X182338175Y-106095800D02*
X182813175Y-106095800D01*
G75*
G02*
X183050675Y-106333300I0J-237500D01*
G01*
X183050675Y-106933300D01*
G75*
G02*
X182813175Y-107170800I-237500J0D01*
G01*
X182338175Y-107170800D01*
G75*
G02*
X182100675Y-106933300I0J237500D01*
G01*
X182100675Y-106333300D01*
G75*
G02*
X182338175Y-106095800I237500J0D01*
G01*
G37*
G36*
G01*
X182338175Y-104370800D02*
X182813175Y-104370800D01*
G75*
G02*
X183050675Y-104608300I0J-237500D01*
G01*
X183050675Y-105208300D01*
G75*
G02*
X182813175Y-105445800I-237500J0D01*
G01*
X182338175Y-105445800D01*
G75*
G02*
X182100675Y-105208300I0J237500D01*
G01*
X182100675Y-104608300D01*
G75*
G02*
X182338175Y-104370800I237500J0D01*
G01*
G37*
%TD*%
%TO.C,C35*%
G36*
G01*
X186832000Y-88420400D02*
X186357000Y-88420400D01*
G75*
G02*
X186119500Y-88182900I0J237500D01*
G01*
X186119500Y-87582900D01*
G75*
G02*
X186357000Y-87345400I237500J0D01*
G01*
X186832000Y-87345400D01*
G75*
G02*
X187069500Y-87582900I0J-237500D01*
G01*
X187069500Y-88182900D01*
G75*
G02*
X186832000Y-88420400I-237500J0D01*
G01*
G37*
G36*
G01*
X186832000Y-90145400D02*
X186357000Y-90145400D01*
G75*
G02*
X186119500Y-89907900I0J237500D01*
G01*
X186119500Y-89307900D01*
G75*
G02*
X186357000Y-89070400I237500J0D01*
G01*
X186832000Y-89070400D01*
G75*
G02*
X187069500Y-89307900I0J-237500D01*
G01*
X187069500Y-89907900D01*
G75*
G02*
X186832000Y-90145400I-237500J0D01*
G01*
G37*
%TD*%
%TO.C,C34*%
G36*
G01*
X185012700Y-88420400D02*
X184537700Y-88420400D01*
G75*
G02*
X184300200Y-88182900I0J237500D01*
G01*
X184300200Y-87582900D01*
G75*
G02*
X184537700Y-87345400I237500J0D01*
G01*
X185012700Y-87345400D01*
G75*
G02*
X185250200Y-87582900I0J-237500D01*
G01*
X185250200Y-88182900D01*
G75*
G02*
X185012700Y-88420400I-237500J0D01*
G01*
G37*
G36*
G01*
X185012700Y-90145400D02*
X184537700Y-90145400D01*
G75*
G02*
X184300200Y-89907900I0J237500D01*
G01*
X184300200Y-89307900D01*
G75*
G02*
X184537700Y-89070400I237500J0D01*
G01*
X185012700Y-89070400D01*
G75*
G02*
X185250200Y-89307900I0J-237500D01*
G01*
X185250200Y-89907900D01*
G75*
G02*
X185012700Y-90145400I-237500J0D01*
G01*
G37*
%TD*%
%TO.C,C33*%
G36*
G01*
X184478950Y-106095800D02*
X184953950Y-106095800D01*
G75*
G02*
X185191450Y-106333300I0J-237500D01*
G01*
X185191450Y-106933300D01*
G75*
G02*
X184953950Y-107170800I-237500J0D01*
G01*
X184478950Y-107170800D01*
G75*
G02*
X184241450Y-106933300I0J237500D01*
G01*
X184241450Y-106333300D01*
G75*
G02*
X184478950Y-106095800I237500J0D01*
G01*
G37*
G36*
G01*
X184478950Y-104370800D02*
X184953950Y-104370800D01*
G75*
G02*
X185191450Y-104608300I0J-237500D01*
G01*
X185191450Y-105208300D01*
G75*
G02*
X184953950Y-105445800I-237500J0D01*
G01*
X184478950Y-105445800D01*
G75*
G02*
X184241450Y-105208300I0J237500D01*
G01*
X184241450Y-104608300D01*
G75*
G02*
X184478950Y-104370800I237500J0D01*
G01*
G37*
%TD*%
%TO.C,C32*%
G36*
G01*
X195609900Y-90127500D02*
X195609900Y-90602500D01*
G75*
G02*
X195372400Y-90840000I-237500J0D01*
G01*
X194772400Y-90840000D01*
G75*
G02*
X194534900Y-90602500I0J237500D01*
G01*
X194534900Y-90127500D01*
G75*
G02*
X194772400Y-89890000I237500J0D01*
G01*
X195372400Y-89890000D01*
G75*
G02*
X195609900Y-90127500I0J-237500D01*
G01*
G37*
G36*
G01*
X197334900Y-90127500D02*
X197334900Y-90602500D01*
G75*
G02*
X197097400Y-90840000I-237500J0D01*
G01*
X196497400Y-90840000D01*
G75*
G02*
X196259900Y-90602500I0J237500D01*
G01*
X196259900Y-90127500D01*
G75*
G02*
X196497400Y-89890000I237500J0D01*
G01*
X197097400Y-89890000D01*
G75*
G02*
X197334900Y-90127500I0J-237500D01*
G01*
G37*
%TD*%
%TO.C,C31*%
G36*
G01*
X183193400Y-88420400D02*
X182718400Y-88420400D01*
G75*
G02*
X182480900Y-88182900I0J237500D01*
G01*
X182480900Y-87582900D01*
G75*
G02*
X182718400Y-87345400I237500J0D01*
G01*
X183193400Y-87345400D01*
G75*
G02*
X183430900Y-87582900I0J-237500D01*
G01*
X183430900Y-88182900D01*
G75*
G02*
X183193400Y-88420400I-237500J0D01*
G01*
G37*
G36*
G01*
X183193400Y-90145400D02*
X182718400Y-90145400D01*
G75*
G02*
X182480900Y-89907900I0J237500D01*
G01*
X182480900Y-89307900D01*
G75*
G02*
X182718400Y-89070400I237500J0D01*
G01*
X183193400Y-89070400D01*
G75*
G02*
X183430900Y-89307900I0J-237500D01*
G01*
X183430900Y-89907900D01*
G75*
G02*
X183193400Y-90145400I-237500J0D01*
G01*
G37*
%TD*%
%TO.C,C30*%
G36*
G01*
X173982500Y-97127500D02*
X173982500Y-97602500D01*
G75*
G02*
X173745000Y-97840000I-237500J0D01*
G01*
X173145000Y-97840000D01*
G75*
G02*
X172907500Y-97602500I0J237500D01*
G01*
X172907500Y-97127500D01*
G75*
G02*
X173145000Y-96890000I237500J0D01*
G01*
X173745000Y-96890000D01*
G75*
G02*
X173982500Y-97127500I0J-237500D01*
G01*
G37*
G36*
G01*
X175707500Y-97127500D02*
X175707500Y-97602500D01*
G75*
G02*
X175470000Y-97840000I-237500J0D01*
G01*
X174870000Y-97840000D01*
G75*
G02*
X174632500Y-97602500I0J237500D01*
G01*
X174632500Y-97127500D01*
G75*
G02*
X174870000Y-96890000I237500J0D01*
G01*
X175470000Y-96890000D01*
G75*
G02*
X175707500Y-97127500I0J-237500D01*
G01*
G37*
%TD*%
%TO.C,C29*%
G36*
G01*
X193260500Y-91690000D02*
X193735500Y-91690000D01*
G75*
G02*
X193973000Y-91927500I0J-237500D01*
G01*
X193973000Y-92527500D01*
G75*
G02*
X193735500Y-92765000I-237500J0D01*
G01*
X193260500Y-92765000D01*
G75*
G02*
X193023000Y-92527500I0J237500D01*
G01*
X193023000Y-91927500D01*
G75*
G02*
X193260500Y-91690000I237500J0D01*
G01*
G37*
G36*
G01*
X193260500Y-89965000D02*
X193735500Y-89965000D01*
G75*
G02*
X193973000Y-90202500I0J-237500D01*
G01*
X193973000Y-90802500D01*
G75*
G02*
X193735500Y-91040000I-237500J0D01*
G01*
X193260500Y-91040000D01*
G75*
G02*
X193023000Y-90802500I0J237500D01*
G01*
X193023000Y-90202500D01*
G75*
G02*
X193260500Y-89965000I237500J0D01*
G01*
G37*
%TD*%
%TO.C,C28*%
G36*
G01*
X181374100Y-88420400D02*
X180899100Y-88420400D01*
G75*
G02*
X180661600Y-88182900I0J237500D01*
G01*
X180661600Y-87582900D01*
G75*
G02*
X180899100Y-87345400I237500J0D01*
G01*
X181374100Y-87345400D01*
G75*
G02*
X181611600Y-87582900I0J-237500D01*
G01*
X181611600Y-88182900D01*
G75*
G02*
X181374100Y-88420400I-237500J0D01*
G01*
G37*
G36*
G01*
X181374100Y-90145400D02*
X180899100Y-90145400D01*
G75*
G02*
X180661600Y-89907900I0J237500D01*
G01*
X180661600Y-89307900D01*
G75*
G02*
X180899100Y-89070400I237500J0D01*
G01*
X181374100Y-89070400D01*
G75*
G02*
X181611600Y-89307900I0J-237500D01*
G01*
X181611600Y-89907900D01*
G75*
G02*
X181374100Y-90145400I-237500J0D01*
G01*
G37*
%TD*%
%TO.C,C27*%
G36*
G01*
X173982500Y-95127500D02*
X173982500Y-95602500D01*
G75*
G02*
X173745000Y-95840000I-237500J0D01*
G01*
X173145000Y-95840000D01*
G75*
G02*
X172907500Y-95602500I0J237500D01*
G01*
X172907500Y-95127500D01*
G75*
G02*
X173145000Y-94890000I237500J0D01*
G01*
X173745000Y-94890000D01*
G75*
G02*
X173982500Y-95127500I0J-237500D01*
G01*
G37*
G36*
G01*
X175707500Y-95127500D02*
X175707500Y-95602500D01*
G75*
G02*
X175470000Y-95840000I-237500J0D01*
G01*
X174870000Y-95840000D01*
G75*
G02*
X174632500Y-95602500I0J237500D01*
G01*
X174632500Y-95127500D01*
G75*
G02*
X174870000Y-94890000I237500J0D01*
G01*
X175470000Y-94890000D01*
G75*
G02*
X175707500Y-95127500I0J-237500D01*
G01*
G37*
%TD*%
%TO.C,C25*%
G36*
G01*
X192235500Y-95602500D02*
X192235500Y-95127500D01*
G75*
G02*
X192473000Y-94890000I237500J0D01*
G01*
X193073000Y-94890000D01*
G75*
G02*
X193310500Y-95127500I0J-237500D01*
G01*
X193310500Y-95602500D01*
G75*
G02*
X193073000Y-95840000I-237500J0D01*
G01*
X192473000Y-95840000D01*
G75*
G02*
X192235500Y-95602500I0J237500D01*
G01*
G37*
G36*
G01*
X190510500Y-95602500D02*
X190510500Y-95127500D01*
G75*
G02*
X190748000Y-94890000I237500J0D01*
G01*
X191348000Y-94890000D01*
G75*
G02*
X191585500Y-95127500I0J-237500D01*
G01*
X191585500Y-95602500D01*
G75*
G02*
X191348000Y-95840000I-237500J0D01*
G01*
X190748000Y-95840000D01*
G75*
G02*
X190510500Y-95602500I0J237500D01*
G01*
G37*
%TD*%
%TO.C,C24*%
G36*
G01*
X192235500Y-101602500D02*
X192235500Y-101127500D01*
G75*
G02*
X192473000Y-100890000I237500J0D01*
G01*
X193073000Y-100890000D01*
G75*
G02*
X193310500Y-101127500I0J-237500D01*
G01*
X193310500Y-101602500D01*
G75*
G02*
X193073000Y-101840000I-237500J0D01*
G01*
X192473000Y-101840000D01*
G75*
G02*
X192235500Y-101602500I0J237500D01*
G01*
G37*
G36*
G01*
X190510500Y-101602500D02*
X190510500Y-101127500D01*
G75*
G02*
X190748000Y-100890000I237500J0D01*
G01*
X191348000Y-100890000D01*
G75*
G02*
X191585500Y-101127500I0J-237500D01*
G01*
X191585500Y-101602500D01*
G75*
G02*
X191348000Y-101840000I-237500J0D01*
G01*
X190748000Y-101840000D01*
G75*
G02*
X190510500Y-101602500I0J237500D01*
G01*
G37*
%TD*%
%TO.C,C23*%
G36*
G01*
X180197400Y-106095800D02*
X180672400Y-106095800D01*
G75*
G02*
X180909900Y-106333300I0J-237500D01*
G01*
X180909900Y-106933300D01*
G75*
G02*
X180672400Y-107170800I-237500J0D01*
G01*
X180197400Y-107170800D01*
G75*
G02*
X179959900Y-106933300I0J237500D01*
G01*
X179959900Y-106333300D01*
G75*
G02*
X180197400Y-106095800I237500J0D01*
G01*
G37*
G36*
G01*
X180197400Y-104370800D02*
X180672400Y-104370800D01*
G75*
G02*
X180909900Y-104608300I0J-237500D01*
G01*
X180909900Y-105208300D01*
G75*
G02*
X180672400Y-105445800I-237500J0D01*
G01*
X180197400Y-105445800D01*
G75*
G02*
X179959900Y-105208300I0J237500D01*
G01*
X179959900Y-104608300D01*
G75*
G02*
X180197400Y-104370800I237500J0D01*
G01*
G37*
%TD*%
%TO.C,C22*%
G36*
G01*
X195823000Y-98602500D02*
X195823000Y-98127500D01*
G75*
G02*
X196060500Y-97890000I237500J0D01*
G01*
X196660500Y-97890000D01*
G75*
G02*
X196898000Y-98127500I0J-237500D01*
G01*
X196898000Y-98602500D01*
G75*
G02*
X196660500Y-98840000I-237500J0D01*
G01*
X196060500Y-98840000D01*
G75*
G02*
X195823000Y-98602500I0J237500D01*
G01*
G37*
G36*
G01*
X194098000Y-98602500D02*
X194098000Y-98127500D01*
G75*
G02*
X194335500Y-97890000I237500J0D01*
G01*
X194935500Y-97890000D01*
G75*
G02*
X195173000Y-98127500I0J-237500D01*
G01*
X195173000Y-98602500D01*
G75*
G02*
X194935500Y-98840000I-237500J0D01*
G01*
X194335500Y-98840000D01*
G75*
G02*
X194098000Y-98602500I0J237500D01*
G01*
G37*
%TD*%
%TO.C,C21*%
G36*
G01*
X192235500Y-94102500D02*
X192235500Y-93627500D01*
G75*
G02*
X192473000Y-93390000I237500J0D01*
G01*
X193073000Y-93390000D01*
G75*
G02*
X193310500Y-93627500I0J-237500D01*
G01*
X193310500Y-94102500D01*
G75*
G02*
X193073000Y-94340000I-237500J0D01*
G01*
X192473000Y-94340000D01*
G75*
G02*
X192235500Y-94102500I0J237500D01*
G01*
G37*
G36*
G01*
X190510500Y-94102500D02*
X190510500Y-93627500D01*
G75*
G02*
X190748000Y-93390000I237500J0D01*
G01*
X191348000Y-93390000D01*
G75*
G02*
X191585500Y-93627500I0J-237500D01*
G01*
X191585500Y-94102500D01*
G75*
G02*
X191348000Y-94340000I-237500J0D01*
G01*
X190748000Y-94340000D01*
G75*
G02*
X190510500Y-94102500I0J237500D01*
G01*
G37*
%TD*%
%TO.C,C20*%
G36*
G01*
X192235500Y-100102500D02*
X192235500Y-99627500D01*
G75*
G02*
X192473000Y-99390000I237500J0D01*
G01*
X193073000Y-99390000D01*
G75*
G02*
X193310500Y-99627500I0J-237500D01*
G01*
X193310500Y-100102500D01*
G75*
G02*
X193073000Y-100340000I-237500J0D01*
G01*
X192473000Y-100340000D01*
G75*
G02*
X192235500Y-100102500I0J237500D01*
G01*
G37*
G36*
G01*
X190510500Y-100102500D02*
X190510500Y-99627500D01*
G75*
G02*
X190748000Y-99390000I237500J0D01*
G01*
X191348000Y-99390000D01*
G75*
G02*
X191585500Y-99627500I0J-237500D01*
G01*
X191585500Y-100102500D01*
G75*
G02*
X191348000Y-100340000I-237500J0D01*
G01*
X190748000Y-100340000D01*
G75*
G02*
X190510500Y-100102500I0J237500D01*
G01*
G37*
%TD*%
%TO.C,C19*%
G36*
G01*
X188651300Y-88420400D02*
X188176300Y-88420400D01*
G75*
G02*
X187938800Y-88182900I0J237500D01*
G01*
X187938800Y-87582900D01*
G75*
G02*
X188176300Y-87345400I237500J0D01*
G01*
X188651300Y-87345400D01*
G75*
G02*
X188888800Y-87582900I0J-237500D01*
G01*
X188888800Y-88182900D01*
G75*
G02*
X188651300Y-88420400I-237500J0D01*
G01*
G37*
G36*
G01*
X188651300Y-90145400D02*
X188176300Y-90145400D01*
G75*
G02*
X187938800Y-89907900I0J237500D01*
G01*
X187938800Y-89307900D01*
G75*
G02*
X188176300Y-89070400I237500J0D01*
G01*
X188651300Y-89070400D01*
G75*
G02*
X188888800Y-89307900I0J-237500D01*
G01*
X188888800Y-89907900D01*
G75*
G02*
X188651300Y-90145400I-237500J0D01*
G01*
G37*
%TD*%
%TO.C,C18*%
G36*
G01*
X177735500Y-88420400D02*
X177260500Y-88420400D01*
G75*
G02*
X177023000Y-88182900I0J237500D01*
G01*
X177023000Y-87582900D01*
G75*
G02*
X177260500Y-87345400I237500J0D01*
G01*
X177735500Y-87345400D01*
G75*
G02*
X177973000Y-87582900I0J-237500D01*
G01*
X177973000Y-88182900D01*
G75*
G02*
X177735500Y-88420400I-237500J0D01*
G01*
G37*
G36*
G01*
X177735500Y-90145400D02*
X177260500Y-90145400D01*
G75*
G02*
X177023000Y-89907900I0J237500D01*
G01*
X177023000Y-89307900D01*
G75*
G02*
X177260500Y-89070400I237500J0D01*
G01*
X177735500Y-89070400D01*
G75*
G02*
X177973000Y-89307900I0J-237500D01*
G01*
X177973000Y-89907900D01*
G75*
G02*
X177735500Y-90145400I-237500J0D01*
G01*
G37*
%TD*%
%TO.C,C17*%
G36*
G01*
X188760500Y-106095800D02*
X189235500Y-106095800D01*
G75*
G02*
X189473000Y-106333300I0J-237500D01*
G01*
X189473000Y-106933300D01*
G75*
G02*
X189235500Y-107170800I-237500J0D01*
G01*
X188760500Y-107170800D01*
G75*
G02*
X188523000Y-106933300I0J237500D01*
G01*
X188523000Y-106333300D01*
G75*
G02*
X188760500Y-106095800I237500J0D01*
G01*
G37*
G36*
G01*
X188760500Y-104370800D02*
X189235500Y-104370800D01*
G75*
G02*
X189473000Y-104608300I0J-237500D01*
G01*
X189473000Y-105208300D01*
G75*
G02*
X189235500Y-105445800I-237500J0D01*
G01*
X188760500Y-105445800D01*
G75*
G02*
X188523000Y-105208300I0J237500D01*
G01*
X188523000Y-104608300D01*
G75*
G02*
X188760500Y-104370800I237500J0D01*
G01*
G37*
%TD*%
%TO.C,C16*%
G36*
G01*
X192235500Y-98602500D02*
X192235500Y-98127500D01*
G75*
G02*
X192473000Y-97890000I237500J0D01*
G01*
X193073000Y-97890000D01*
G75*
G02*
X193310500Y-98127500I0J-237500D01*
G01*
X193310500Y-98602500D01*
G75*
G02*
X193073000Y-98840000I-237500J0D01*
G01*
X192473000Y-98840000D01*
G75*
G02*
X192235500Y-98602500I0J237500D01*
G01*
G37*
G36*
G01*
X190510500Y-98602500D02*
X190510500Y-98127500D01*
G75*
G02*
X190748000Y-97890000I237500J0D01*
G01*
X191348000Y-97890000D01*
G75*
G02*
X191585500Y-98127500I0J-237500D01*
G01*
X191585500Y-98602500D01*
G75*
G02*
X191348000Y-98840000I-237500J0D01*
G01*
X190748000Y-98840000D01*
G75*
G02*
X190510500Y-98602500I0J237500D01*
G01*
G37*
%TD*%
%TO.C,C15*%
G36*
G01*
X190470600Y-88420400D02*
X189995600Y-88420400D01*
G75*
G02*
X189758100Y-88182900I0J237500D01*
G01*
X189758100Y-87582900D01*
G75*
G02*
X189995600Y-87345400I237500J0D01*
G01*
X190470600Y-87345400D01*
G75*
G02*
X190708100Y-87582900I0J-237500D01*
G01*
X190708100Y-88182900D01*
G75*
G02*
X190470600Y-88420400I-237500J0D01*
G01*
G37*
G36*
G01*
X190470600Y-90145400D02*
X189995600Y-90145400D01*
G75*
G02*
X189758100Y-89907900I0J237500D01*
G01*
X189758100Y-89307900D01*
G75*
G02*
X189995600Y-89070400I237500J0D01*
G01*
X190470600Y-89070400D01*
G75*
G02*
X190708100Y-89307900I0J-237500D01*
G01*
X190708100Y-89907900D01*
G75*
G02*
X190470600Y-90145400I-237500J0D01*
G01*
G37*
%TD*%
%TO.C,C14*%
G36*
G01*
X179554800Y-88420400D02*
X179079800Y-88420400D01*
G75*
G02*
X178842300Y-88182900I0J237500D01*
G01*
X178842300Y-87582900D01*
G75*
G02*
X179079800Y-87345400I237500J0D01*
G01*
X179554800Y-87345400D01*
G75*
G02*
X179792300Y-87582900I0J-237500D01*
G01*
X179792300Y-88182900D01*
G75*
G02*
X179554800Y-88420400I-237500J0D01*
G01*
G37*
G36*
G01*
X179554800Y-90145400D02*
X179079800Y-90145400D01*
G75*
G02*
X178842300Y-89907900I0J237500D01*
G01*
X178842300Y-89307900D01*
G75*
G02*
X179079800Y-89070400I237500J0D01*
G01*
X179554800Y-89070400D01*
G75*
G02*
X179792300Y-89307900I0J-237500D01*
G01*
X179792300Y-89907900D01*
G75*
G02*
X179554800Y-90145400I-237500J0D01*
G01*
G37*
%TD*%
%TO.C,C13*%
G36*
G01*
X195823000Y-100102500D02*
X195823000Y-99627500D01*
G75*
G02*
X196060500Y-99390000I237500J0D01*
G01*
X196660500Y-99390000D01*
G75*
G02*
X196898000Y-99627500I0J-237500D01*
G01*
X196898000Y-100102500D01*
G75*
G02*
X196660500Y-100340000I-237500J0D01*
G01*
X196060500Y-100340000D01*
G75*
G02*
X195823000Y-100102500I0J237500D01*
G01*
G37*
G36*
G01*
X194098000Y-100102500D02*
X194098000Y-99627500D01*
G75*
G02*
X194335500Y-99390000I237500J0D01*
G01*
X194935500Y-99390000D01*
G75*
G02*
X195173000Y-99627500I0J-237500D01*
G01*
X195173000Y-100102500D01*
G75*
G02*
X194935500Y-100340000I-237500J0D01*
G01*
X194335500Y-100340000D01*
G75*
G02*
X194098000Y-100102500I0J237500D01*
G01*
G37*
%TD*%
%TO.C,C12*%
G36*
G01*
X193822999Y-103602500D02*
X193822999Y-103127500D01*
G75*
G02*
X194060499Y-102890000I237500J0D01*
G01*
X194660499Y-102890000D01*
G75*
G02*
X194897999Y-103127500I0J-237500D01*
G01*
X194897999Y-103602500D01*
G75*
G02*
X194660499Y-103840000I-237500J0D01*
G01*
X194060499Y-103840000D01*
G75*
G02*
X193822999Y-103602500I0J237500D01*
G01*
G37*
G36*
G01*
X192097999Y-103602500D02*
X192097999Y-103127500D01*
G75*
G02*
X192335499Y-102890000I237500J0D01*
G01*
X192935499Y-102890000D01*
G75*
G02*
X193172999Y-103127500I0J-237500D01*
G01*
X193172999Y-103602500D01*
G75*
G02*
X192935499Y-103840000I-237500J0D01*
G01*
X192335499Y-103840000D01*
G75*
G02*
X192097999Y-103602500I0J237500D01*
G01*
G37*
%TD*%
%TO.C,C11*%
G36*
G01*
X193172999Y-108127500D02*
X193172999Y-108602500D01*
G75*
G02*
X192935499Y-108840000I-237500J0D01*
G01*
X192335499Y-108840000D01*
G75*
G02*
X192097999Y-108602500I0J237500D01*
G01*
X192097999Y-108127500D01*
G75*
G02*
X192335499Y-107890000I237500J0D01*
G01*
X192935499Y-107890000D01*
G75*
G02*
X193172999Y-108127500I0J-237500D01*
G01*
G37*
G36*
G01*
X194897999Y-108127500D02*
X194897999Y-108602500D01*
G75*
G02*
X194660499Y-108840000I-237500J0D01*
G01*
X194060499Y-108840000D01*
G75*
G02*
X193822999Y-108602500I0J237500D01*
G01*
X193822999Y-108127500D01*
G75*
G02*
X194060499Y-107890000I237500J0D01*
G01*
X194660499Y-107890000D01*
G75*
G02*
X194897999Y-108127500I0J-237500D01*
G01*
G37*
%TD*%
%TO.C,C5*%
G36*
G01*
X129046500Y-98563000D02*
X129521500Y-98563000D01*
G75*
G02*
X129759000Y-98800500I0J-237500D01*
G01*
X129759000Y-99400500D01*
G75*
G02*
X129521500Y-99638000I-237500J0D01*
G01*
X129046500Y-99638000D01*
G75*
G02*
X128809000Y-99400500I0J237500D01*
G01*
X128809000Y-98800500D01*
G75*
G02*
X129046500Y-98563000I237500J0D01*
G01*
G37*
G36*
G01*
X129046500Y-96838000D02*
X129521500Y-96838000D01*
G75*
G02*
X129759000Y-97075500I0J-237500D01*
G01*
X129759000Y-97675500D01*
G75*
G02*
X129521500Y-97913000I-237500J0D01*
G01*
X129046500Y-97913000D01*
G75*
G02*
X128809000Y-97675500I0J237500D01*
G01*
X128809000Y-97075500D01*
G75*
G02*
X129046500Y-96838000I237500J0D01*
G01*
G37*
%TD*%
%TO.C,C4*%
G36*
G01*
X126760500Y-108827500D02*
X127235500Y-108827500D01*
G75*
G02*
X127473000Y-109065000I0J-237500D01*
G01*
X127473000Y-109665000D01*
G75*
G02*
X127235500Y-109902500I-237500J0D01*
G01*
X126760500Y-109902500D01*
G75*
G02*
X126523000Y-109665000I0J237500D01*
G01*
X126523000Y-109065000D01*
G75*
G02*
X126760500Y-108827500I237500J0D01*
G01*
G37*
G36*
G01*
X126760500Y-107102500D02*
X127235500Y-107102500D01*
G75*
G02*
X127473000Y-107340000I0J-237500D01*
G01*
X127473000Y-107940000D01*
G75*
G02*
X127235500Y-108177500I-237500J0D01*
G01*
X126760500Y-108177500D01*
G75*
G02*
X126523000Y-107940000I0J237500D01*
G01*
X126523000Y-107340000D01*
G75*
G02*
X126760500Y-107102500I237500J0D01*
G01*
G37*
%TD*%
%TO.C,C3*%
G36*
G01*
X126809000Y-98688000D02*
X127759000Y-98688000D01*
G75*
G02*
X128009000Y-98938000I0J-250000D01*
G01*
X128009000Y-99613000D01*
G75*
G02*
X127759000Y-99863000I-250000J0D01*
G01*
X126809000Y-99863000D01*
G75*
G02*
X126559000Y-99613000I0J250000D01*
G01*
X126559000Y-98938000D01*
G75*
G02*
X126809000Y-98688000I250000J0D01*
G01*
G37*
G36*
G01*
X126809000Y-96613000D02*
X127759000Y-96613000D01*
G75*
G02*
X128009000Y-96863000I0J-250000D01*
G01*
X128009000Y-97538000D01*
G75*
G02*
X127759000Y-97788000I-250000J0D01*
G01*
X126809000Y-97788000D01*
G75*
G02*
X126559000Y-97538000I0J250000D01*
G01*
X126559000Y-96863000D01*
G75*
G02*
X126809000Y-96613000I250000J0D01*
G01*
G37*
%TD*%
%TO.C,C2*%
G36*
G01*
X123523000Y-108852500D02*
X124473000Y-108852500D01*
G75*
G02*
X124723000Y-109102500I0J-250000D01*
G01*
X124723000Y-109777500D01*
G75*
G02*
X124473000Y-110027500I-250000J0D01*
G01*
X123523000Y-110027500D01*
G75*
G02*
X123273000Y-109777500I0J250000D01*
G01*
X123273000Y-109102500D01*
G75*
G02*
X123523000Y-108852500I250000J0D01*
G01*
G37*
G36*
G01*
X123523000Y-106777500D02*
X124473000Y-106777500D01*
G75*
G02*
X124723000Y-107027500I0J-250000D01*
G01*
X124723000Y-107702500D01*
G75*
G02*
X124473000Y-107952500I-250000J0D01*
G01*
X123523000Y-107952500D01*
G75*
G02*
X123273000Y-107702500I0J250000D01*
G01*
X123273000Y-107027500D01*
G75*
G02*
X123523000Y-106777500I250000J0D01*
G01*
G37*
%TD*%
%TO.C,C1*%
G36*
G01*
X124473000Y-103915000D02*
X123523000Y-103915000D01*
G75*
G02*
X123273000Y-103665000I0J250000D01*
G01*
X123273000Y-102990000D01*
G75*
G02*
X123523000Y-102740000I250000J0D01*
G01*
X124473000Y-102740000D01*
G75*
G02*
X124723000Y-102990000I0J-250000D01*
G01*
X124723000Y-103665000D01*
G75*
G02*
X124473000Y-103915000I-250000J0D01*
G01*
G37*
G36*
G01*
X124473000Y-105990000D02*
X123523000Y-105990000D01*
G75*
G02*
X123273000Y-105740000I0J250000D01*
G01*
X123273000Y-105065000D01*
G75*
G02*
X123523000Y-104815000I250000J0D01*
G01*
X124473000Y-104815000D01*
G75*
G02*
X124723000Y-105065000I0J-250000D01*
G01*
X124723000Y-105740000D01*
G75*
G02*
X124473000Y-105990000I-250000J0D01*
G01*
G37*
%TD*%
D34*
%TO.C,P1*%
X159004000Y-118933000D03*
X161544000Y-118933000D03*
X164084000Y-118933000D03*
X166624000Y-118933000D03*
X169164000Y-118933000D03*
X171704000Y-118933000D03*
X174244000Y-118933000D03*
X176784000Y-118933000D03*
%TD*%
%TO.C,P2*%
X181914000Y-118933000D03*
X184454000Y-118933000D03*
X186994000Y-118933000D03*
X189534000Y-118933000D03*
X192074000Y-118933000D03*
X194614000Y-118933000D03*
%TD*%
%TO.C,P3*%
X149733000Y-70673000D03*
X152273000Y-70673000D03*
X154813000Y-70673000D03*
X157353000Y-70673000D03*
X159893000Y-70673000D03*
X162433000Y-70673000D03*
X164973000Y-70673000D03*
X167513000Y-70673000D03*
X170053000Y-70673000D03*
X172593000Y-70673000D03*
%TD*%
%TO.C,P4*%
X194564000Y-70673000D03*
X192024000Y-70673000D03*
X189484000Y-70673000D03*
X186944000Y-70673000D03*
X184404000Y-70673000D03*
X181864000Y-70673000D03*
X179324000Y-70673000D03*
X176784000Y-70673000D03*
%TD*%
D25*
%TO.C,J7*%
X186918600Y-74838600D03*
D24*
X189458600Y-74838600D03*
X191998600Y-74838600D03*
X194538600Y-74838600D03*
%TD*%
D25*
%TO.C,J6*%
X170662600Y-113649800D03*
D24*
X173202600Y-113649800D03*
X175742600Y-113649800D03*
X178282600Y-113649800D03*
X180822600Y-113649800D03*
X183362600Y-113649800D03*
X185902600Y-113649800D03*
X188442600Y-113649800D03*
X190982600Y-113649800D03*
X193522600Y-113649800D03*
%TD*%
%TO.C,R47*%
G36*
G01*
X132098000Y-90915001D02*
X132098000Y-90014999D01*
G75*
G02*
X132347999Y-89765000I249999J0D01*
G01*
X133048001Y-89765000D01*
G75*
G02*
X133298000Y-90014999I0J-249999D01*
G01*
X133298000Y-90915001D01*
G75*
G02*
X133048001Y-91165000I-249999J0D01*
G01*
X132347999Y-91165000D01*
G75*
G02*
X132098000Y-90915001I0J249999D01*
G01*
G37*
G36*
G01*
X134098000Y-90915001D02*
X134098000Y-90014999D01*
G75*
G02*
X134347999Y-89765000I249999J0D01*
G01*
X135048001Y-89765000D01*
G75*
G02*
X135298000Y-90014999I0J-249999D01*
G01*
X135298000Y-90915001D01*
G75*
G02*
X135048001Y-91165000I-249999J0D01*
G01*
X134347999Y-91165000D01*
G75*
G02*
X134098000Y-90915001I0J249999D01*
G01*
G37*
%TD*%
M02*
