%TF.GenerationSoftware,KiCad,Pcbnew,(5.1.12)-1*%
%TF.CreationDate,2022-03-24T08:21:23-05:00*%
%TF.ProjectId,Psoc-CTF,50736f63-2d43-4544-962e-6b696361645f,rev?*%
%TF.SameCoordinates,Original*%
%TF.FileFunction,Legend,Bot*%
%TF.FilePolarity,Positive*%
%FSLAX46Y46*%
G04 Gerber Fmt 4.6, Leading zero omitted, Abs format (unit mm)*
G04 Created by KiCad (PCBNEW (5.1.12)-1) date 2022-03-24 08:21:23*
%MOMM*%
%LPD*%
G01*
G04 APERTURE LIST*
%ADD10C,0.120000*%
%ADD11C,0.150000*%
G04 APERTURE END LIST*
D10*
%TO.C,U5*%
X197026000Y-112853000D02*
X197026000Y-112378000D01*
X201246000Y-116598000D02*
X200771000Y-116598000D01*
X201246000Y-116123000D02*
X201246000Y-116598000D01*
X201246000Y-112378000D02*
X200771000Y-112378000D01*
X201246000Y-112853000D02*
X201246000Y-112378000D01*
X197026000Y-116598000D02*
X197501000Y-116598000D01*
X197026000Y-116123000D02*
X197026000Y-116598000D01*
%TO.C,R14*%
X199427000Y-105785275D02*
X199427000Y-106294723D01*
X198382000Y-105785275D02*
X198382000Y-106294723D01*
%TO.C,R13*%
X200927001Y-105785276D02*
X200927001Y-106294724D01*
X199882001Y-105785276D02*
X199882001Y-106294724D01*
%TO.C,R12*%
X199629500Y-119782724D02*
X199629500Y-119273276D01*
X200674500Y-119782724D02*
X200674500Y-119273276D01*
%TO.C,R6*%
X150320676Y-51613000D02*
X150830124Y-51613000D01*
X150320676Y-52658000D02*
X150830124Y-52658000D01*
%TO.C,R5*%
X118865876Y-51672000D02*
X119375324Y-51672000D01*
X118865876Y-52717000D02*
X119375324Y-52717000D01*
%TO.C,D6*%
X205148000Y-112765000D02*
X205148000Y-105865000D01*
X201848000Y-112765000D02*
X201848000Y-105865000D01*
X205148000Y-112765000D02*
X201848000Y-112765000D01*
%TO.C,D5*%
X198169500Y-111200000D02*
X198169500Y-108740000D01*
X199639500Y-111200000D02*
X198169500Y-111200000D01*
X199639500Y-108740000D02*
X199639500Y-111200000D01*
%TO.C,D4*%
X199669500Y-111200000D02*
X199669500Y-108740000D01*
X201139500Y-111200000D02*
X199669500Y-111200000D01*
X201139500Y-108740000D02*
X201139500Y-111200000D01*
%TO.C,C39*%
X197529233Y-119883500D02*
X197821767Y-119883500D01*
X197529233Y-120903500D02*
X197821767Y-120903500D01*
%TO.C,C38*%
X197529233Y-118105500D02*
X197821767Y-118105500D01*
X197529233Y-119125500D02*
X197821767Y-119125500D01*
%TO.C,C37*%
X204660767Y-118296000D02*
X204368233Y-118296000D01*
X204660767Y-117276000D02*
X204368233Y-117276000D01*
%TO.C,C26*%
X202376500Y-119358233D02*
X202376500Y-119650767D01*
X201356500Y-119358233D02*
X201356500Y-119650767D01*
%TO.C,C9*%
X119266867Y-54954500D02*
X118974333Y-54954500D01*
X119266867Y-53934500D02*
X118974333Y-53934500D01*
%TO.C,C8*%
X139087500Y-49996134D02*
X139087500Y-50288668D01*
X138067500Y-49996134D02*
X138067500Y-50288668D01*
%TO.C,C7*%
X134087500Y-49996132D02*
X134087500Y-50288666D01*
X133067500Y-49996132D02*
X133067500Y-50288666D01*
%TO.C,C6*%
X136812501Y-49881148D02*
X136812501Y-50403652D01*
X135342501Y-49881148D02*
X135342501Y-50403652D01*
%TO.C,R46*%
X124770936Y-88630000D02*
X125225064Y-88630000D01*
X124770936Y-90100000D02*
X125225064Y-90100000D01*
%TO.C,U5*%
D11*
X195759904Y-110817380D02*
X195759904Y-111626904D01*
X195712285Y-111722142D01*
X195664666Y-111769761D01*
X195569428Y-111817380D01*
X195378952Y-111817380D01*
X195283714Y-111769761D01*
X195236095Y-111722142D01*
X195188476Y-111626904D01*
X195188476Y-110817380D01*
X194236095Y-110817380D02*
X194712285Y-110817380D01*
X194759904Y-111293571D01*
X194712285Y-111245952D01*
X194617047Y-111198333D01*
X194378952Y-111198333D01*
X194283714Y-111245952D01*
X194236095Y-111293571D01*
X194188476Y-111388809D01*
X194188476Y-111626904D01*
X194236095Y-111722142D01*
X194283714Y-111769761D01*
X194378952Y-111817380D01*
X194617047Y-111817380D01*
X194712285Y-111769761D01*
X194759904Y-111722142D01*
%TO.C,R14*%
X195950380Y-105222142D02*
X195474190Y-104888809D01*
X195950380Y-104650714D02*
X194950380Y-104650714D01*
X194950380Y-105031666D01*
X194998000Y-105126904D01*
X195045619Y-105174523D01*
X195140857Y-105222142D01*
X195283714Y-105222142D01*
X195378952Y-105174523D01*
X195426571Y-105126904D01*
X195474190Y-105031666D01*
X195474190Y-104650714D01*
X195950380Y-106174523D02*
X195950380Y-105603095D01*
X195950380Y-105888809D02*
X194950380Y-105888809D01*
X195093238Y-105793571D01*
X195188476Y-105698333D01*
X195236095Y-105603095D01*
X195283714Y-107031666D02*
X195950380Y-107031666D01*
X194902761Y-106793571D02*
X195617047Y-106555476D01*
X195617047Y-107174523D01*
%TO.C,R13*%
X197450380Y-105222142D02*
X196974190Y-104888809D01*
X197450380Y-104650714D02*
X196450380Y-104650714D01*
X196450380Y-105031666D01*
X196498000Y-105126904D01*
X196545619Y-105174523D01*
X196640857Y-105222142D01*
X196783714Y-105222142D01*
X196878952Y-105174523D01*
X196926571Y-105126904D01*
X196974190Y-105031666D01*
X196974190Y-104650714D01*
X197450380Y-106174523D02*
X197450380Y-105603095D01*
X197450380Y-105888809D02*
X196450380Y-105888809D01*
X196593238Y-105793571D01*
X196688476Y-105698333D01*
X196736095Y-105603095D01*
X196450380Y-106507857D02*
X196450380Y-107126904D01*
X196831333Y-106793571D01*
X196831333Y-106936428D01*
X196878952Y-107031666D01*
X196926571Y-107079285D01*
X197021809Y-107126904D01*
X197259904Y-107126904D01*
X197355142Y-107079285D01*
X197402761Y-107031666D01*
X197450380Y-106936428D01*
X197450380Y-106650714D01*
X197402761Y-106555476D01*
X197355142Y-106507857D01*
%TO.C,R12*%
X200700380Y-122222142D02*
X200224190Y-121888809D01*
X200700380Y-121650714D02*
X199700380Y-121650714D01*
X199700380Y-122031666D01*
X199748000Y-122126904D01*
X199795619Y-122174523D01*
X199890857Y-122222142D01*
X200033714Y-122222142D01*
X200128952Y-122174523D01*
X200176571Y-122126904D01*
X200224190Y-122031666D01*
X200224190Y-121650714D01*
X200700380Y-123174523D02*
X200700380Y-122603095D01*
X200700380Y-122888809D02*
X199700380Y-122888809D01*
X199843238Y-122793571D01*
X199938476Y-122698333D01*
X199986095Y-122603095D01*
X199795619Y-123555476D02*
X199748000Y-123603095D01*
X199700380Y-123698333D01*
X199700380Y-123936428D01*
X199748000Y-124031666D01*
X199795619Y-124079285D01*
X199890857Y-124126904D01*
X199986095Y-124126904D01*
X200128952Y-124079285D01*
X200700380Y-123507857D01*
X200700380Y-124126904D01*
%TO.C,R6*%
X150414666Y-50817380D02*
X150748000Y-50341190D01*
X150986095Y-50817380D02*
X150986095Y-49817380D01*
X150605142Y-49817380D01*
X150509904Y-49865000D01*
X150462285Y-49912619D01*
X150414666Y-50007857D01*
X150414666Y-50150714D01*
X150462285Y-50245952D01*
X150509904Y-50293571D01*
X150605142Y-50341190D01*
X150986095Y-50341190D01*
X149557523Y-49817380D02*
X149748000Y-49817380D01*
X149843238Y-49865000D01*
X149890857Y-49912619D01*
X149986095Y-50055476D01*
X150033714Y-50245952D01*
X150033714Y-50626904D01*
X149986095Y-50722142D01*
X149938476Y-50769761D01*
X149843238Y-50817380D01*
X149652761Y-50817380D01*
X149557523Y-50769761D01*
X149509904Y-50722142D01*
X149462285Y-50626904D01*
X149462285Y-50388809D01*
X149509904Y-50293571D01*
X149557523Y-50245952D01*
X149652761Y-50198333D01*
X149843238Y-50198333D01*
X149938476Y-50245952D01*
X149986095Y-50293571D01*
X150033714Y-50388809D01*
%TO.C,R5*%
X119414666Y-51067380D02*
X119748000Y-50591190D01*
X119986095Y-51067380D02*
X119986095Y-50067380D01*
X119605142Y-50067380D01*
X119509904Y-50115000D01*
X119462285Y-50162619D01*
X119414666Y-50257857D01*
X119414666Y-50400714D01*
X119462285Y-50495952D01*
X119509904Y-50543571D01*
X119605142Y-50591190D01*
X119986095Y-50591190D01*
X118509904Y-50067380D02*
X118986095Y-50067380D01*
X119033714Y-50543571D01*
X118986095Y-50495952D01*
X118890857Y-50448333D01*
X118652761Y-50448333D01*
X118557523Y-50495952D01*
X118509904Y-50543571D01*
X118462285Y-50638809D01*
X118462285Y-50876904D01*
X118509904Y-50972142D01*
X118557523Y-51019761D01*
X118652761Y-51067380D01*
X118890857Y-51067380D01*
X118986095Y-51019761D01*
X119033714Y-50972142D01*
%TO.C,D6*%
X206450380Y-107626904D02*
X205450380Y-107626904D01*
X205450380Y-107865000D01*
X205498000Y-108007857D01*
X205593238Y-108103095D01*
X205688476Y-108150714D01*
X205878952Y-108198333D01*
X206021809Y-108198333D01*
X206212285Y-108150714D01*
X206307523Y-108103095D01*
X206402761Y-108007857D01*
X206450380Y-107865000D01*
X206450380Y-107626904D01*
X205450380Y-109055476D02*
X205450380Y-108865000D01*
X205498000Y-108769761D01*
X205545619Y-108722142D01*
X205688476Y-108626904D01*
X205878952Y-108579285D01*
X206259904Y-108579285D01*
X206355142Y-108626904D01*
X206402761Y-108674523D01*
X206450380Y-108769761D01*
X206450380Y-108960238D01*
X206402761Y-109055476D01*
X206355142Y-109103095D01*
X206259904Y-109150714D01*
X206021809Y-109150714D01*
X205926571Y-109103095D01*
X205878952Y-109055476D01*
X205831333Y-108960238D01*
X205831333Y-108769761D01*
X205878952Y-108674523D01*
X205926571Y-108626904D01*
X206021809Y-108579285D01*
%TO.C,D5*%
X194795619Y-110353095D02*
X195795619Y-110353095D01*
X195795619Y-110115000D01*
X195748000Y-109972142D01*
X195652761Y-109876904D01*
X195557523Y-109829285D01*
X195367047Y-109781666D01*
X195224190Y-109781666D01*
X195033714Y-109829285D01*
X194938476Y-109876904D01*
X194843238Y-109972142D01*
X194795619Y-110115000D01*
X194795619Y-110353095D01*
X195795619Y-108876904D02*
X195795619Y-109353095D01*
X195319428Y-109400714D01*
X195367047Y-109353095D01*
X195414666Y-109257857D01*
X195414666Y-109019761D01*
X195367047Y-108924523D01*
X195319428Y-108876904D01*
X195224190Y-108829285D01*
X194986095Y-108829285D01*
X194890857Y-108876904D01*
X194843238Y-108924523D01*
X194795619Y-109019761D01*
X194795619Y-109257857D01*
X194843238Y-109353095D01*
X194890857Y-109400714D01*
%TO.C,D4*%
X196295619Y-110353095D02*
X197295619Y-110353095D01*
X197295619Y-110115000D01*
X197248000Y-109972142D01*
X197152761Y-109876904D01*
X197057523Y-109829285D01*
X196867047Y-109781666D01*
X196724190Y-109781666D01*
X196533714Y-109829285D01*
X196438476Y-109876904D01*
X196343238Y-109972142D01*
X196295619Y-110115000D01*
X196295619Y-110353095D01*
X196962285Y-108924523D02*
X196295619Y-108924523D01*
X197343238Y-109162619D02*
X196628952Y-109400714D01*
X196628952Y-108781666D01*
%TO.C,C39*%
X198390857Y-122222142D02*
X198438476Y-122269761D01*
X198581333Y-122317380D01*
X198676571Y-122317380D01*
X198819428Y-122269761D01*
X198914666Y-122174523D01*
X198962285Y-122079285D01*
X199009904Y-121888809D01*
X199009904Y-121745952D01*
X198962285Y-121555476D01*
X198914666Y-121460238D01*
X198819428Y-121365000D01*
X198676571Y-121317380D01*
X198581333Y-121317380D01*
X198438476Y-121365000D01*
X198390857Y-121412619D01*
X198057523Y-121317380D02*
X197438476Y-121317380D01*
X197771809Y-121698333D01*
X197628952Y-121698333D01*
X197533714Y-121745952D01*
X197486095Y-121793571D01*
X197438476Y-121888809D01*
X197438476Y-122126904D01*
X197486095Y-122222142D01*
X197533714Y-122269761D01*
X197628952Y-122317380D01*
X197914666Y-122317380D01*
X198009904Y-122269761D01*
X198057523Y-122222142D01*
X196962285Y-122317380D02*
X196771809Y-122317380D01*
X196676571Y-122269761D01*
X196628952Y-122222142D01*
X196533714Y-122079285D01*
X196486095Y-121888809D01*
X196486095Y-121507857D01*
X196533714Y-121412619D01*
X196581333Y-121365000D01*
X196676571Y-121317380D01*
X196867047Y-121317380D01*
X196962285Y-121365000D01*
X197009904Y-121412619D01*
X197057523Y-121507857D01*
X197057523Y-121745952D01*
X197009904Y-121841190D01*
X196962285Y-121888809D01*
X196867047Y-121936428D01*
X196676571Y-121936428D01*
X196581333Y-121888809D01*
X196533714Y-121841190D01*
X196486095Y-121745952D01*
%TO.C,C38*%
X195140857Y-117222142D02*
X195188476Y-117269761D01*
X195331333Y-117317380D01*
X195426571Y-117317380D01*
X195569428Y-117269761D01*
X195664666Y-117174523D01*
X195712285Y-117079285D01*
X195759904Y-116888809D01*
X195759904Y-116745952D01*
X195712285Y-116555476D01*
X195664666Y-116460238D01*
X195569428Y-116365000D01*
X195426571Y-116317380D01*
X195331333Y-116317380D01*
X195188476Y-116365000D01*
X195140857Y-116412619D01*
X194807523Y-116317380D02*
X194188476Y-116317380D01*
X194521809Y-116698333D01*
X194378952Y-116698333D01*
X194283714Y-116745952D01*
X194236095Y-116793571D01*
X194188476Y-116888809D01*
X194188476Y-117126904D01*
X194236095Y-117222142D01*
X194283714Y-117269761D01*
X194378952Y-117317380D01*
X194664666Y-117317380D01*
X194759904Y-117269761D01*
X194807523Y-117222142D01*
X193617047Y-116745952D02*
X193712285Y-116698333D01*
X193759904Y-116650714D01*
X193807523Y-116555476D01*
X193807523Y-116507857D01*
X193759904Y-116412619D01*
X193712285Y-116365000D01*
X193617047Y-116317380D01*
X193426571Y-116317380D01*
X193331333Y-116365000D01*
X193283714Y-116412619D01*
X193236095Y-116507857D01*
X193236095Y-116555476D01*
X193283714Y-116650714D01*
X193331333Y-116698333D01*
X193426571Y-116745952D01*
X193617047Y-116745952D01*
X193712285Y-116793571D01*
X193759904Y-116841190D01*
X193807523Y-116936428D01*
X193807523Y-117126904D01*
X193759904Y-117222142D01*
X193712285Y-117269761D01*
X193617047Y-117317380D01*
X193426571Y-117317380D01*
X193331333Y-117269761D01*
X193283714Y-117222142D01*
X193236095Y-117126904D01*
X193236095Y-116936428D01*
X193283714Y-116841190D01*
X193331333Y-116793571D01*
X193426571Y-116745952D01*
%TO.C,C37*%
X205157357Y-116713142D02*
X205204976Y-116760761D01*
X205347833Y-116808380D01*
X205443071Y-116808380D01*
X205585928Y-116760761D01*
X205681166Y-116665523D01*
X205728785Y-116570285D01*
X205776404Y-116379809D01*
X205776404Y-116236952D01*
X205728785Y-116046476D01*
X205681166Y-115951238D01*
X205585928Y-115856000D01*
X205443071Y-115808380D01*
X205347833Y-115808380D01*
X205204976Y-115856000D01*
X205157357Y-115903619D01*
X204824023Y-115808380D02*
X204204976Y-115808380D01*
X204538309Y-116189333D01*
X204395452Y-116189333D01*
X204300214Y-116236952D01*
X204252595Y-116284571D01*
X204204976Y-116379809D01*
X204204976Y-116617904D01*
X204252595Y-116713142D01*
X204300214Y-116760761D01*
X204395452Y-116808380D01*
X204681166Y-116808380D01*
X204776404Y-116760761D01*
X204824023Y-116713142D01*
X203871642Y-115808380D02*
X203204976Y-115808380D01*
X203633547Y-116808380D01*
%TO.C,C26*%
X202355142Y-121972142D02*
X202402761Y-121924523D01*
X202450380Y-121781666D01*
X202450380Y-121686428D01*
X202402761Y-121543571D01*
X202307523Y-121448333D01*
X202212285Y-121400714D01*
X202021809Y-121353095D01*
X201878952Y-121353095D01*
X201688476Y-121400714D01*
X201593238Y-121448333D01*
X201498000Y-121543571D01*
X201450380Y-121686428D01*
X201450380Y-121781666D01*
X201498000Y-121924523D01*
X201545619Y-121972142D01*
X201545619Y-122353095D02*
X201498000Y-122400714D01*
X201450380Y-122495952D01*
X201450380Y-122734047D01*
X201498000Y-122829285D01*
X201545619Y-122876904D01*
X201640857Y-122924523D01*
X201736095Y-122924523D01*
X201878952Y-122876904D01*
X202450380Y-122305476D01*
X202450380Y-122924523D01*
X201450380Y-123781666D02*
X201450380Y-123591190D01*
X201498000Y-123495952D01*
X201545619Y-123448333D01*
X201688476Y-123353095D01*
X201878952Y-123305476D01*
X202259904Y-123305476D01*
X202355142Y-123353095D01*
X202402761Y-123400714D01*
X202450380Y-123495952D01*
X202450380Y-123686428D01*
X202402761Y-123781666D01*
X202355142Y-123829285D01*
X202259904Y-123876904D01*
X202021809Y-123876904D01*
X201926571Y-123829285D01*
X201878952Y-123781666D01*
X201831333Y-123686428D01*
X201831333Y-123495952D01*
X201878952Y-123400714D01*
X201926571Y-123353095D01*
X202021809Y-123305476D01*
%TO.C,C9*%
X119164666Y-56472142D02*
X119212285Y-56519761D01*
X119355142Y-56567380D01*
X119450380Y-56567380D01*
X119593238Y-56519761D01*
X119688476Y-56424523D01*
X119736095Y-56329285D01*
X119783714Y-56138809D01*
X119783714Y-55995952D01*
X119736095Y-55805476D01*
X119688476Y-55710238D01*
X119593238Y-55615000D01*
X119450380Y-55567380D01*
X119355142Y-55567380D01*
X119212285Y-55615000D01*
X119164666Y-55662619D01*
X118688476Y-56567380D02*
X118498000Y-56567380D01*
X118402761Y-56519761D01*
X118355142Y-56472142D01*
X118259904Y-56329285D01*
X118212285Y-56138809D01*
X118212285Y-55757857D01*
X118259904Y-55662619D01*
X118307523Y-55615000D01*
X118402761Y-55567380D01*
X118593238Y-55567380D01*
X118688476Y-55615000D01*
X118736095Y-55662619D01*
X118783714Y-55757857D01*
X118783714Y-55995952D01*
X118736095Y-56091190D01*
X118688476Y-56138809D01*
X118593238Y-56186428D01*
X118402761Y-56186428D01*
X118307523Y-56138809D01*
X118259904Y-56091190D01*
X118212285Y-55995952D01*
%TO.C,C8*%
X140355142Y-49948333D02*
X140402761Y-49900714D01*
X140450380Y-49757857D01*
X140450380Y-49662619D01*
X140402761Y-49519761D01*
X140307523Y-49424523D01*
X140212285Y-49376904D01*
X140021809Y-49329285D01*
X139878952Y-49329285D01*
X139688476Y-49376904D01*
X139593238Y-49424523D01*
X139498000Y-49519761D01*
X139450380Y-49662619D01*
X139450380Y-49757857D01*
X139498000Y-49900714D01*
X139545619Y-49948333D01*
X139878952Y-50519761D02*
X139831333Y-50424523D01*
X139783714Y-50376904D01*
X139688476Y-50329285D01*
X139640857Y-50329285D01*
X139545619Y-50376904D01*
X139498000Y-50424523D01*
X139450380Y-50519761D01*
X139450380Y-50710238D01*
X139498000Y-50805476D01*
X139545619Y-50853095D01*
X139640857Y-50900714D01*
X139688476Y-50900714D01*
X139783714Y-50853095D01*
X139831333Y-50805476D01*
X139878952Y-50710238D01*
X139878952Y-50519761D01*
X139926571Y-50424523D01*
X139974190Y-50376904D01*
X140069428Y-50329285D01*
X140259904Y-50329285D01*
X140355142Y-50376904D01*
X140402761Y-50424523D01*
X140450380Y-50519761D01*
X140450380Y-50710238D01*
X140402761Y-50805476D01*
X140355142Y-50853095D01*
X140259904Y-50900714D01*
X140069428Y-50900714D01*
X139974190Y-50853095D01*
X139926571Y-50805476D01*
X139878952Y-50710238D01*
%TO.C,C7*%
X132504642Y-49975732D02*
X132552261Y-49928113D01*
X132599880Y-49785256D01*
X132599880Y-49690018D01*
X132552261Y-49547160D01*
X132457023Y-49451922D01*
X132361785Y-49404303D01*
X132171309Y-49356684D01*
X132028452Y-49356684D01*
X131837976Y-49404303D01*
X131742738Y-49451922D01*
X131647500Y-49547160D01*
X131599880Y-49690018D01*
X131599880Y-49785256D01*
X131647500Y-49928113D01*
X131695119Y-49975732D01*
X131599880Y-50309065D02*
X131599880Y-50975732D01*
X132599880Y-50547160D01*
%TO.C,C6*%
X136605142Y-52948333D02*
X136652761Y-52900714D01*
X136700380Y-52757857D01*
X136700380Y-52662619D01*
X136652761Y-52519761D01*
X136557523Y-52424523D01*
X136462285Y-52376904D01*
X136271809Y-52329285D01*
X136128952Y-52329285D01*
X135938476Y-52376904D01*
X135843238Y-52424523D01*
X135748000Y-52519761D01*
X135700380Y-52662619D01*
X135700380Y-52757857D01*
X135748000Y-52900714D01*
X135795619Y-52948333D01*
X135700380Y-53805476D02*
X135700380Y-53615000D01*
X135748000Y-53519761D01*
X135795619Y-53472142D01*
X135938476Y-53376904D01*
X136128952Y-53329285D01*
X136509904Y-53329285D01*
X136605142Y-53376904D01*
X136652761Y-53424523D01*
X136700380Y-53519761D01*
X136700380Y-53710238D01*
X136652761Y-53805476D01*
X136605142Y-53853095D01*
X136509904Y-53900714D01*
X136271809Y-53900714D01*
X136176571Y-53853095D01*
X136128952Y-53805476D01*
X136081333Y-53710238D01*
X136081333Y-53519761D01*
X136128952Y-53424523D01*
X136176571Y-53376904D01*
X136271809Y-53329285D01*
%TO.C,R46*%
X125640857Y-91467380D02*
X125974190Y-90991190D01*
X126212285Y-91467380D02*
X126212285Y-90467380D01*
X125831333Y-90467380D01*
X125736095Y-90515000D01*
X125688476Y-90562619D01*
X125640857Y-90657857D01*
X125640857Y-90800714D01*
X125688476Y-90895952D01*
X125736095Y-90943571D01*
X125831333Y-90991190D01*
X126212285Y-90991190D01*
X124783714Y-90800714D02*
X124783714Y-91467380D01*
X125021809Y-90419761D02*
X125259904Y-91134047D01*
X124640857Y-91134047D01*
X123831333Y-90467380D02*
X124021809Y-90467380D01*
X124117047Y-90515000D01*
X124164666Y-90562619D01*
X124259904Y-90705476D01*
X124307523Y-90895952D01*
X124307523Y-91276904D01*
X124259904Y-91372142D01*
X124212285Y-91419761D01*
X124117047Y-91467380D01*
X123926571Y-91467380D01*
X123831333Y-91419761D01*
X123783714Y-91372142D01*
X123736095Y-91276904D01*
X123736095Y-91038809D01*
X123783714Y-90943571D01*
X123831333Y-90895952D01*
X123926571Y-90848333D01*
X124117047Y-90848333D01*
X124212285Y-90895952D01*
X124259904Y-90943571D01*
X124307523Y-91038809D01*
%TD*%
M02*
