M48
; DRILL file {KiCad (5.1.12)-1} date 03/24/22 17:22:56
; FORMAT={-:-/ absolute / inch / decimal}
; #@! TF.CreationDate,2022-03-24T17:22:56-05:00
; #@! TF.GenerationSoftware,Kicad,Pcbnew,(5.1.12)-1
; #@! TF.FileFunction,Plated,1,2,PTH
FMAT,2
INCH
T1C0.0150
T2C0.0157
T3C0.0394
T4C0.0400
%
G90
G05
T1
X7.82Y-3.4924
X7.82Y-3.6224
X7.87Y-3.4924
X7.87Y-3.6224
X7.92Y-3.4924
X7.92Y-3.6224
X7.97Y-3.4924
X7.97Y-3.6224
X7.97Y-3.6724
X7.97Y-3.7224
X7.97Y-3.7724
X7.97Y-3.8224
X7.97Y-3.8724
X8.0436Y-3.8223
T2
X4.495Y-2.5272
X4.5481Y-4.4124
X4.5954Y-2.3795
X4.6692Y-4.5577
X4.69Y-3.8283
X4.7086Y-3.2978
X4.7243Y-4.4238
X4.7243Y-4.8254
X4.748Y-3.0144
X4.748Y-4.3372
X4.7716Y-4.4789
X4.7745Y-2.3421
X4.7794Y-3.1482
X4.7794Y-3.4474
X4.8031Y-4.6837
X4.8424Y-4.5577
X4.8661Y-1.9435
X4.8739Y-3.0537
X4.8818Y-3.2191
X4.9251Y-4.3175
X4.9291Y-3.723
X4.9369Y-3.0222
X4.9369Y-3.1797
X4.9448Y-4.0695
X4.9606Y-3.5892
X4.9842Y-3.2191
X5.0393Y-2.7073
X5.0393Y-2.849
X5.0393Y-2.8805
X5.0472Y-2.6758
X5.0472Y-4.7545
X5.0478Y-1.9402
X5.0531Y-2.9888
X5.0787Y-3.0144
X5.0899Y-2.9311
X5.1259Y-4.2033
X5.1731Y-3.9041
X5.1731Y-4.8018
X5.1889Y-2.8333
X5.1968Y-2.8648
X5.2204Y-3.7781
X5.2581Y-3.119
X5.2755Y-2.0319
X5.307Y-4.2112
X5.3128Y-3.039
X5.3543Y-2.7152
X5.3857Y-2.3293
X5.433Y-2.8175
X5.4333Y-3.1486
X5.4802Y-2.101
X5.51Y-2.0424
X5.5117Y-3.7781
X5.5356Y-2.1574
X5.5432Y-2.4711
X5.5669Y-3.2663
X5.57Y-2.7324
X5.5747Y-2.4396
X5.5747Y-3.0695
X5.5905Y-4.3136
X5.7125Y-3.0174
X5.7125Y-3.18
X5.7433Y-3.013
X5.745Y-3.1749
X5.79Y-3.1774
X5.79Y-3.2663
X5.79Y-3.4174
X5.8552Y-1.9937
X5.8739Y-3.227
X5.92Y-3.7624
X5.9684Y-3.2663
X6.0117Y-5.1207
X6.0344Y-2.073
X6.04Y-3.9874
X6.14Y-3.9624
X6.14Y-4.3124
X6.1417Y-2.5892
X6.1489Y-2.6292
X6.15Y-2.6924
X6.17Y-3.3124
X6.1852Y-3.8776
X6.1879Y-3.5803
X6.1982Y-4.3724
X6.2046Y-5.1246
X6.245Y-2.2711
X6.2913Y-4.8648
X6.3525Y-4.2849
X6.3598Y-4.1126
X6.39Y-3.4874
X6.4Y-4.3824
X6.4054Y-5.1128
X6.4881Y-4.8096
X6.49Y-3.4424
X6.49Y-3.5224
X6.5Y-3.4774
X6.5Y-4.3224
X6.51Y-4.5424
X6.555Y-4.4874
X6.565Y-4.2424
X6.5747Y-3.4621
X6.575Y-4.2724
X6.59Y-3.5024
X6.59Y-3.6124
X6.5957Y-3.2424
X6.5983Y-5.1246
X6.6019Y-3.18
X6.6068Y-3.3262
X6.61Y-2.9674
X6.61Y-3.3724
X6.61Y-4.3224
X6.6195Y-3.6774
X6.6195Y-3.7724
X6.6195Y-3.836
X6.6251Y-3.1587
X6.6268Y-3.2424
X6.6268Y-3.3024
X6.65Y-3.1774
X6.65Y-3.2674
X6.6535Y-4.2197
X6.675Y-3.2474
X6.6811Y-3.1722
X6.69Y-2.6159
X6.7Y-4.0274
X6.702Y-3.2636
X6.7116Y-3.18
X6.72Y-3.9624
X6.72Y-4.4074
X6.7234Y-2.9458
X6.7278Y-3.2455
X6.73Y-4.0724
X6.7404Y-3.1672
X6.7417Y-2.8941
X6.745Y-2.9724
X6.7514Y-3.2676
X6.755Y-3.4174
X6.768Y-3.5994
X6.77Y-3.18
X6.77Y-3.3724
X6.775Y-4.3524
X6.7759Y-2.9786
X6.7916Y-3.6574
X6.7952Y-5.1246
X6.8097Y-3.6078
X6.81Y-2.6392
X6.8627Y-4.0679
X6.8631Y-3.9671
X6.877Y-4.219
X6.8786Y-4.1863
X6.8854Y-3.9454
X6.8951Y-3.6074
X6.896Y-3.5749
X6.8989Y-2.7663
X6.907Y-4.1736
X6.9074Y-3.9234
X6.93Y-4.3824
X6.9302Y-3.9022
X6.9371Y-4.1647
X6.9375Y-3.81
X6.9405Y-3.7709
X6.9435Y-3.5889
X6.9448Y-4.8569
X6.9585Y-3.8797
X6.9682Y-3.7567
X6.9722Y-3.7259
X6.9749Y-3.5867
X6.98Y-4.1224
X6.9836Y-4.2174
X6.9846Y-3.8565
X6.995Y-2.7024
X7.005Y-3.9924
X7.0078Y-3.5862
X7.0131Y-3.7111
X7.0147Y-4.2171
X7.0201Y-4.1
X7.03Y-4.1624
X7.044Y-3.7143
X7.0448Y-4.225
X7.0472Y-4.7545
X7.0472Y-5.5419
X7.055Y-4.8569
X7.0597Y-3.5234
X7.0749Y-4.0123
X7.09Y-2.7024
X7.1066Y-4.0036
X7.1259Y-3.7174
X7.1259Y-3.8591
X7.1259Y-3.8906
X7.13Y-3.3256
X7.1314Y-3.5234
X7.1338Y-4.7781
X7.1338Y-4.8096
X7.1392Y-2.6792
X7.145Y-4.1399
X7.1574Y-3.7174
X7.1574Y-3.8591
X7.1574Y-3.8906
X7.1682Y-4.262
X7.1711Y-4.0278
X7.1848Y-3.3863
X7.1853Y-3.5721
X7.1889Y-3.7174
X7.1889Y-3.8591
X7.1889Y-3.8906
X7.19Y-3.2824
X7.19Y-3.4174
X7.1911Y-4.0515
X7.1993Y-4.2638
X7.2225Y-3.7174
X7.2225Y-3.8591
X7.2225Y-3.8906
X7.2225Y-4.8574
X7.2284Y-4.0913
X7.244Y-4.9356
X7.2514Y-3.5674
X7.2519Y-3.8591
X7.2519Y-3.8906
X7.255Y-3.4174
X7.2586Y-4.0838
X7.2612Y-3.3865
X7.2828Y-3.5687
X7.2855Y-3.8591
X7.2855Y-3.8906
X7.2861Y-3.4122
X7.295Y-4.0874
X7.3Y-4.0144
X7.3Y-4.0524
X7.3006Y-3.9827
X7.305Y-3.2874
X7.315Y-3.5724
X7.317Y-3.8591
X7.317Y-3.8906
X7.3225Y-4.8599
X7.3228Y-4.975
X7.3699Y-3.5724
X7.4Y-4.1224
X7.4014Y-3.5724
X7.4025Y-4.8574
X7.405Y-3.7941
X7.4133Y-5.0026
X7.4363Y-3.7939
X7.4564Y-4.0274
X7.465Y-3.3724
X7.469Y-3.7957
X7.47Y-3.8274
X7.48Y-3.9081
X7.48Y-4.8599
X7.505Y-4.0324
X7.5078Y-4.9789
X7.5216Y-3.6955
X7.535Y-3.3024
X7.5475Y-4.0299
X7.5536Y-4.2663
X7.5725Y-3.5399
X7.59Y-3.9924
X7.5944Y-4.9907
X7.6Y-3.443
X7.6013Y-3.412
X7.63Y-3.9024
X7.635Y-3.7963
X7.6352Y-3.45
X7.6425Y-4.8574
X7.655Y-3.7424
X7.67Y-3.8274
X7.69Y-2.9824
X7.69Y-4.0524
X7.6975Y-4.2674
X7.71Y-3.7924
X7.715Y-4.0124
X7.7156Y-3.328
X7.7248Y-4.0974
X7.7248Y-4.5099
X7.7482Y-2.8392
X7.75Y-4.4024
X7.7756Y-4.2674
X7.785Y-4.0674
X7.79Y-4.3524
X7.8165Y-4.7399
X7.82Y-4.8524
X7.8314Y-3.0087
X7.8325Y-2.8624
X7.8378Y-2.925
X7.84Y-4.6224
X7.92Y-4.646
X7.9475Y-4.7389
X7.9704Y-4.5609
X8.0092Y-4.3648
X8.0117Y-4.1679
X8.05Y-4.5024
X8.0509Y-4.5349
X8.0555Y-5.1069
X8.06Y-4.4524
X8.1Y-5.2424
X8.1231Y-5.1656
X8.13Y-4.6424
X8.195Y-5.1124
X8.24Y-5.2024
T3
X4.6062Y-2.6915
X4.6062Y-2.7915
X4.7062Y-2.6915
X4.7062Y-2.7915
X5.0744Y-3.4474
X5.1744Y-3.4474
X5.2744Y-3.4474
X5.4905Y-3.6758
X5.5905Y-3.6758
X6.3165Y-1.9553
X6.3165Y-2.101
X6.3165Y-2.5341
X6.3172Y-2.2461
X6.4165Y-1.9553
X6.4165Y-2.101
X6.4165Y-2.5341
X6.4172Y-2.2461
X6.5165Y-1.9553
X6.5165Y-2.101
X6.5165Y-2.5341
X6.5172Y-2.2461
X6.6165Y-1.9553
X6.6165Y-2.101
X6.6165Y-2.5341
X6.6172Y-2.2461
X6.67Y-3.6124
X6.67Y-3.7124
X6.67Y-3.8124
X6.67Y-3.9124
X6.7165Y-1.9553
X6.7165Y-2.101
X6.7165Y-2.5341
X6.7172Y-2.2461
X6.719Y-4.4744
X6.8165Y-1.9553
X6.8165Y-2.101
X6.8165Y-2.5341
X6.8172Y-2.2461
X6.819Y-4.4744
X6.9165Y-1.9553
X6.9165Y-2.101
X6.9165Y-2.5341
X6.9172Y-2.2461
X6.919Y-4.4744
X7.0165Y-1.9553
X7.0165Y-2.101
X7.0165Y-2.5341
X7.0172Y-2.2461
X7.019Y-4.4744
X7.1165Y-1.9553
X7.1165Y-2.101
X7.1165Y-2.5341
X7.1172Y-2.2461
X7.119Y-4.4744
X7.2165Y-1.9553
X7.2165Y-2.101
X7.2165Y-2.5341
X7.2172Y-2.2461
X7.219Y-4.4744
X7.3165Y-1.9553
X7.3165Y-2.101
X7.3165Y-2.5341
X7.3172Y-2.2461
X7.319Y-4.4744
X7.359Y-2.9464
X7.4165Y-1.9553
X7.4165Y-2.101
X7.4165Y-2.5341
X7.4172Y-2.2461
X7.419Y-4.4744
X7.459Y-2.9464
X7.5165Y-1.9553
X7.5165Y-2.101
X7.5165Y-2.5341
X7.5172Y-2.2461
X7.519Y-4.4744
X7.559Y-2.9464
X7.6165Y-1.9553
X7.6165Y-2.101
X7.6165Y-2.5341
X7.6172Y-2.2461
X7.619Y-4.4744
X7.659Y-2.9464
X7.7165Y-1.9553
X7.7165Y-2.101
X7.7165Y-2.5341
X7.7172Y-2.2461
X7.8165Y-1.9553
X7.8165Y-2.101
X7.8165Y-2.5341
X7.8172Y-2.2461
X7.9165Y-1.9553
X7.9165Y-2.101
X7.9165Y-2.5341
X7.9172Y-2.2461
X8.0165Y-1.9553
X8.0165Y-2.101
X8.0165Y-2.5341
X8.0172Y-2.2461
X8.1165Y-1.9553
X8.1165Y-2.101
X8.1165Y-2.5341
X8.1172Y-2.2461
X8.2165Y-1.9553
X8.2165Y-2.101
X8.2165Y-2.5341
X8.2172Y-2.2461
T4
X5.895Y-2.7824
X5.995Y-2.7824
X6.095Y-2.7824
X6.195Y-2.7824
X6.26Y-4.6824
X6.295Y-2.7824
X6.36Y-4.6824
X6.395Y-2.7824
X6.46Y-4.6824
X6.495Y-2.7824
X6.56Y-4.6824
X6.595Y-2.7824
X6.66Y-4.6824
X6.695Y-2.7824
X6.76Y-4.6824
X6.795Y-2.7824
X6.86Y-4.6824
X6.96Y-2.7824
X6.96Y-4.6824
X7.06Y-2.7824
X7.16Y-2.7824
X7.162Y-4.6824
X7.26Y-2.7824
X7.262Y-4.6824
X7.36Y-2.7824
X7.362Y-4.6824
X7.46Y-2.7824
X7.462Y-4.6824
X7.56Y-2.7824
X7.562Y-4.6824
X7.66Y-2.7824
X7.662Y-4.6824
T0
M30
