%TF.GenerationSoftware,KiCad,Pcbnew,(5.1.12)-1*%
%TF.CreationDate,2022-03-24T08:21:23-05:00*%
%TF.ProjectId,Psoc-CTF,50736f63-2d43-4544-962e-6b696361645f,rev?*%
%TF.SameCoordinates,Original*%
%TF.FileFunction,Paste,Top*%
%TF.FilePolarity,Positive*%
%FSLAX46Y46*%
G04 Gerber Fmt 4.6, Leading zero omitted, Abs format (unit mm)*
G04 Created by KiCad (PCBNEW (5.1.12)-1) date 2022-03-24 08:21:23*
%MOMM*%
%LPD*%
G01*
G04 APERTURE LIST*
%ADD10C,0.001000*%
%ADD11C,1.000000*%
%ADD12R,5.700000X5.700000*%
%ADD13O,0.200000X0.800000*%
%ADD14O,0.800000X0.200000*%
%ADD15R,2.000000X1.500000*%
%ADD16R,2.000000X3.800000*%
%ADD17R,1.900000X1.750000*%
%ADD18R,1.450000X1.150000*%
%ADD19R,1.400000X0.400000*%
%ADD20R,3.500000X1.800000*%
%ADD21R,2.100000X1.400000*%
%ADD22R,1.500000X1.000000*%
%ADD23R,1.750000X1.800000*%
%ADD24R,1.200000X1.400000*%
%ADD25R,1.981200X0.558800*%
%ADD26R,2.000000X0.900000*%
%ADD27R,0.900000X2.000000*%
%ADD28R,5.000000X5.000000*%
%ADD29R,1.400000X2.100000*%
G04 APERTURE END LIST*
D10*
%TO.C,J12*%
G36*
X113538000Y-75002000D02*
G01*
X113938000Y-75002000D01*
X113950000Y-75002000D01*
X113962000Y-75003000D01*
X113973000Y-75005000D01*
X113985000Y-75007000D01*
X113996000Y-75010000D01*
X114008000Y-75013000D01*
X114019000Y-75017000D01*
X114030000Y-75021000D01*
X114040000Y-75027000D01*
X114050000Y-75032000D01*
X114061000Y-75038000D01*
X114070000Y-75045000D01*
X114080000Y-75052000D01*
X114089000Y-75060000D01*
X114097000Y-75068000D01*
X114105000Y-75076000D01*
X114113000Y-75085000D01*
X114120000Y-75095000D01*
X114127000Y-75104000D01*
X114133000Y-75115000D01*
X114138000Y-75125000D01*
X114144000Y-75135000D01*
X114148000Y-75146000D01*
X114152000Y-75157000D01*
X114155000Y-75169000D01*
X114158000Y-75180000D01*
X114160000Y-75192000D01*
X114162000Y-75203000D01*
X114163000Y-75215000D01*
X114163000Y-75227000D01*
X114163000Y-75239000D01*
X114162000Y-75251000D01*
X114160000Y-75262000D01*
X114158000Y-75274000D01*
X114155000Y-75285000D01*
X114152000Y-75297000D01*
X114148000Y-75308000D01*
X114144000Y-75319000D01*
X114138000Y-75329000D01*
X114133000Y-75339000D01*
X114127000Y-75350000D01*
X114120000Y-75359000D01*
X114113000Y-75369000D01*
X114105000Y-75378000D01*
X114097000Y-75386000D01*
X114089000Y-75394000D01*
X114080000Y-75402000D01*
X114070000Y-75409000D01*
X114061000Y-75416000D01*
X114051000Y-75422000D01*
X114040000Y-75427000D01*
X114030000Y-75433000D01*
X114019000Y-75437000D01*
X114008000Y-75441000D01*
X113996000Y-75444000D01*
X113985000Y-75447000D01*
X113973000Y-75449000D01*
X113962000Y-75451000D01*
X113950000Y-75452000D01*
X113938000Y-75452000D01*
X113538000Y-75452000D01*
X113538000Y-75752000D01*
X113893000Y-75752000D01*
X113925000Y-75752000D01*
X113954000Y-75751000D01*
X113982000Y-75748000D01*
X114011000Y-75744000D01*
X114039000Y-75738000D01*
X114067000Y-75731000D01*
X114094000Y-75723000D01*
X114121000Y-75713000D01*
X114147000Y-75701000D01*
X114173000Y-75688000D01*
X114198000Y-75674000D01*
X114222000Y-75659000D01*
X114245000Y-75642000D01*
X114268000Y-75624000D01*
X114289000Y-75605000D01*
X114310000Y-75585000D01*
X114329000Y-75564000D01*
X114347000Y-75542000D01*
X114364000Y-75519000D01*
X114380000Y-75495000D01*
X114395000Y-75470000D01*
X114408000Y-75445000D01*
X114420000Y-75419000D01*
X114430000Y-75392000D01*
X114440000Y-75365000D01*
X114447000Y-75337000D01*
X114453000Y-75309000D01*
X114458000Y-75281000D01*
X114461000Y-75252000D01*
X114463000Y-75227000D01*
X114462000Y-75200000D01*
X114460000Y-75172000D01*
X114457000Y-75145000D01*
X114452000Y-75118000D01*
X114445000Y-75091000D01*
X114437000Y-75065000D01*
X114428000Y-75039000D01*
X114418000Y-75013000D01*
X114406000Y-74989000D01*
X114393000Y-74964000D01*
X114378000Y-74941000D01*
X114363000Y-74918000D01*
X114346000Y-74897000D01*
X114328000Y-74876000D01*
X114309000Y-74856000D01*
X114289000Y-74837000D01*
X114268000Y-74819000D01*
X114247000Y-74802000D01*
X114224000Y-74787000D01*
X114200000Y-74772000D01*
X114176000Y-74759000D01*
X114152000Y-74747000D01*
X114126000Y-74737000D01*
X114100000Y-74728000D01*
X114074000Y-74720000D01*
X114047000Y-74713000D01*
X114020000Y-74708000D01*
X113993000Y-74705000D01*
X113965000Y-74703000D01*
X113938000Y-74702000D01*
X113538000Y-74702000D01*
X113538000Y-75002000D01*
G37*
X113538000Y-75002000D02*
X113938000Y-75002000D01*
X113950000Y-75002000D01*
X113962000Y-75003000D01*
X113973000Y-75005000D01*
X113985000Y-75007000D01*
X113996000Y-75010000D01*
X114008000Y-75013000D01*
X114019000Y-75017000D01*
X114030000Y-75021000D01*
X114040000Y-75027000D01*
X114050000Y-75032000D01*
X114061000Y-75038000D01*
X114070000Y-75045000D01*
X114080000Y-75052000D01*
X114089000Y-75060000D01*
X114097000Y-75068000D01*
X114105000Y-75076000D01*
X114113000Y-75085000D01*
X114120000Y-75095000D01*
X114127000Y-75104000D01*
X114133000Y-75115000D01*
X114138000Y-75125000D01*
X114144000Y-75135000D01*
X114148000Y-75146000D01*
X114152000Y-75157000D01*
X114155000Y-75169000D01*
X114158000Y-75180000D01*
X114160000Y-75192000D01*
X114162000Y-75203000D01*
X114163000Y-75215000D01*
X114163000Y-75227000D01*
X114163000Y-75239000D01*
X114162000Y-75251000D01*
X114160000Y-75262000D01*
X114158000Y-75274000D01*
X114155000Y-75285000D01*
X114152000Y-75297000D01*
X114148000Y-75308000D01*
X114144000Y-75319000D01*
X114138000Y-75329000D01*
X114133000Y-75339000D01*
X114127000Y-75350000D01*
X114120000Y-75359000D01*
X114113000Y-75369000D01*
X114105000Y-75378000D01*
X114097000Y-75386000D01*
X114089000Y-75394000D01*
X114080000Y-75402000D01*
X114070000Y-75409000D01*
X114061000Y-75416000D01*
X114051000Y-75422000D01*
X114040000Y-75427000D01*
X114030000Y-75433000D01*
X114019000Y-75437000D01*
X114008000Y-75441000D01*
X113996000Y-75444000D01*
X113985000Y-75447000D01*
X113973000Y-75449000D01*
X113962000Y-75451000D01*
X113950000Y-75452000D01*
X113938000Y-75452000D01*
X113538000Y-75452000D01*
X113538000Y-75752000D01*
X113893000Y-75752000D01*
X113925000Y-75752000D01*
X113954000Y-75751000D01*
X113982000Y-75748000D01*
X114011000Y-75744000D01*
X114039000Y-75738000D01*
X114067000Y-75731000D01*
X114094000Y-75723000D01*
X114121000Y-75713000D01*
X114147000Y-75701000D01*
X114173000Y-75688000D01*
X114198000Y-75674000D01*
X114222000Y-75659000D01*
X114245000Y-75642000D01*
X114268000Y-75624000D01*
X114289000Y-75605000D01*
X114310000Y-75585000D01*
X114329000Y-75564000D01*
X114347000Y-75542000D01*
X114364000Y-75519000D01*
X114380000Y-75495000D01*
X114395000Y-75470000D01*
X114408000Y-75445000D01*
X114420000Y-75419000D01*
X114430000Y-75392000D01*
X114440000Y-75365000D01*
X114447000Y-75337000D01*
X114453000Y-75309000D01*
X114458000Y-75281000D01*
X114461000Y-75252000D01*
X114463000Y-75227000D01*
X114462000Y-75200000D01*
X114460000Y-75172000D01*
X114457000Y-75145000D01*
X114452000Y-75118000D01*
X114445000Y-75091000D01*
X114437000Y-75065000D01*
X114428000Y-75039000D01*
X114418000Y-75013000D01*
X114406000Y-74989000D01*
X114393000Y-74964000D01*
X114378000Y-74941000D01*
X114363000Y-74918000D01*
X114346000Y-74897000D01*
X114328000Y-74876000D01*
X114309000Y-74856000D01*
X114289000Y-74837000D01*
X114268000Y-74819000D01*
X114247000Y-74802000D01*
X114224000Y-74787000D01*
X114200000Y-74772000D01*
X114176000Y-74759000D01*
X114152000Y-74747000D01*
X114126000Y-74737000D01*
X114100000Y-74728000D01*
X114074000Y-74720000D01*
X114047000Y-74713000D01*
X114020000Y-74708000D01*
X113993000Y-74705000D01*
X113965000Y-74703000D01*
X113938000Y-74702000D01*
X113538000Y-74702000D01*
X113538000Y-75002000D01*
G36*
X113538000Y-75452000D02*
G01*
X113138000Y-75452000D01*
X113126000Y-75452000D01*
X113114000Y-75451000D01*
X113103000Y-75449000D01*
X113091000Y-75447000D01*
X113080000Y-75444000D01*
X113068000Y-75441000D01*
X113057000Y-75437000D01*
X113046000Y-75433000D01*
X113036000Y-75427000D01*
X113025000Y-75422000D01*
X113015000Y-75416000D01*
X113006000Y-75409000D01*
X112996000Y-75402000D01*
X112987000Y-75394000D01*
X112979000Y-75386000D01*
X112971000Y-75378000D01*
X112963000Y-75369000D01*
X112956000Y-75359000D01*
X112949000Y-75350000D01*
X112943000Y-75339000D01*
X112938000Y-75329000D01*
X112932000Y-75319000D01*
X112928000Y-75308000D01*
X112924000Y-75297000D01*
X112921000Y-75285000D01*
X112918000Y-75274000D01*
X112916000Y-75262000D01*
X112914000Y-75251000D01*
X112913000Y-75239000D01*
X112913000Y-75227000D01*
X112913000Y-75215000D01*
X112914000Y-75203000D01*
X112916000Y-75192000D01*
X112918000Y-75180000D01*
X112921000Y-75169000D01*
X112924000Y-75157000D01*
X112928000Y-75146000D01*
X112932000Y-75135000D01*
X112938000Y-75125000D01*
X112943000Y-75115000D01*
X112949000Y-75104000D01*
X112956000Y-75095000D01*
X112963000Y-75085000D01*
X112971000Y-75076000D01*
X112979000Y-75068000D01*
X112987000Y-75060000D01*
X112996000Y-75052000D01*
X113006000Y-75045000D01*
X113015000Y-75038000D01*
X113026000Y-75032000D01*
X113036000Y-75027000D01*
X113046000Y-75021000D01*
X113057000Y-75017000D01*
X113068000Y-75013000D01*
X113080000Y-75010000D01*
X113091000Y-75007000D01*
X113103000Y-75005000D01*
X113114000Y-75003000D01*
X113126000Y-75002000D01*
X113138000Y-75002000D01*
X113538000Y-75002000D01*
X113538000Y-74702000D01*
X113183000Y-74702000D01*
X113151000Y-74702000D01*
X113122000Y-74703000D01*
X113094000Y-74706000D01*
X113065000Y-74710000D01*
X113037000Y-74716000D01*
X113009000Y-74723000D01*
X112982000Y-74731000D01*
X112955000Y-74741000D01*
X112929000Y-74753000D01*
X112903000Y-74766000D01*
X112878000Y-74780000D01*
X112854000Y-74795000D01*
X112831000Y-74812000D01*
X112808000Y-74830000D01*
X112787000Y-74849000D01*
X112766000Y-74869000D01*
X112747000Y-74890000D01*
X112729000Y-74912000D01*
X112712000Y-74935000D01*
X112696000Y-74959000D01*
X112681000Y-74984000D01*
X112668000Y-75009000D01*
X112656000Y-75035000D01*
X112646000Y-75062000D01*
X112636000Y-75089000D01*
X112629000Y-75117000D01*
X112623000Y-75145000D01*
X112618000Y-75173000D01*
X112615000Y-75202000D01*
X112613000Y-75227000D01*
X112614000Y-75254000D01*
X112616000Y-75282000D01*
X112619000Y-75309000D01*
X112624000Y-75336000D01*
X112631000Y-75363000D01*
X112639000Y-75389000D01*
X112648000Y-75415000D01*
X112658000Y-75441000D01*
X112670000Y-75465000D01*
X112683000Y-75490000D01*
X112698000Y-75513000D01*
X112713000Y-75536000D01*
X112730000Y-75557000D01*
X112748000Y-75578000D01*
X112767000Y-75598000D01*
X112787000Y-75617000D01*
X112808000Y-75635000D01*
X112829000Y-75652000D01*
X112852000Y-75667000D01*
X112875000Y-75682000D01*
X112900000Y-75695000D01*
X112924000Y-75707000D01*
X112950000Y-75717000D01*
X112976000Y-75726000D01*
X113002000Y-75734000D01*
X113029000Y-75741000D01*
X113056000Y-75746000D01*
X113083000Y-75749000D01*
X113111000Y-75751000D01*
X113138000Y-75752000D01*
X113538000Y-75752000D01*
X113538000Y-75452000D01*
G37*
X113538000Y-75452000D02*
X113138000Y-75452000D01*
X113126000Y-75452000D01*
X113114000Y-75451000D01*
X113103000Y-75449000D01*
X113091000Y-75447000D01*
X113080000Y-75444000D01*
X113068000Y-75441000D01*
X113057000Y-75437000D01*
X113046000Y-75433000D01*
X113036000Y-75427000D01*
X113025000Y-75422000D01*
X113015000Y-75416000D01*
X113006000Y-75409000D01*
X112996000Y-75402000D01*
X112987000Y-75394000D01*
X112979000Y-75386000D01*
X112971000Y-75378000D01*
X112963000Y-75369000D01*
X112956000Y-75359000D01*
X112949000Y-75350000D01*
X112943000Y-75339000D01*
X112938000Y-75329000D01*
X112932000Y-75319000D01*
X112928000Y-75308000D01*
X112924000Y-75297000D01*
X112921000Y-75285000D01*
X112918000Y-75274000D01*
X112916000Y-75262000D01*
X112914000Y-75251000D01*
X112913000Y-75239000D01*
X112913000Y-75227000D01*
X112913000Y-75215000D01*
X112914000Y-75203000D01*
X112916000Y-75192000D01*
X112918000Y-75180000D01*
X112921000Y-75169000D01*
X112924000Y-75157000D01*
X112928000Y-75146000D01*
X112932000Y-75135000D01*
X112938000Y-75125000D01*
X112943000Y-75115000D01*
X112949000Y-75104000D01*
X112956000Y-75095000D01*
X112963000Y-75085000D01*
X112971000Y-75076000D01*
X112979000Y-75068000D01*
X112987000Y-75060000D01*
X112996000Y-75052000D01*
X113006000Y-75045000D01*
X113015000Y-75038000D01*
X113026000Y-75032000D01*
X113036000Y-75027000D01*
X113046000Y-75021000D01*
X113057000Y-75017000D01*
X113068000Y-75013000D01*
X113080000Y-75010000D01*
X113091000Y-75007000D01*
X113103000Y-75005000D01*
X113114000Y-75003000D01*
X113126000Y-75002000D01*
X113138000Y-75002000D01*
X113538000Y-75002000D01*
X113538000Y-74702000D01*
X113183000Y-74702000D01*
X113151000Y-74702000D01*
X113122000Y-74703000D01*
X113094000Y-74706000D01*
X113065000Y-74710000D01*
X113037000Y-74716000D01*
X113009000Y-74723000D01*
X112982000Y-74731000D01*
X112955000Y-74741000D01*
X112929000Y-74753000D01*
X112903000Y-74766000D01*
X112878000Y-74780000D01*
X112854000Y-74795000D01*
X112831000Y-74812000D01*
X112808000Y-74830000D01*
X112787000Y-74849000D01*
X112766000Y-74869000D01*
X112747000Y-74890000D01*
X112729000Y-74912000D01*
X112712000Y-74935000D01*
X112696000Y-74959000D01*
X112681000Y-74984000D01*
X112668000Y-75009000D01*
X112656000Y-75035000D01*
X112646000Y-75062000D01*
X112636000Y-75089000D01*
X112629000Y-75117000D01*
X112623000Y-75145000D01*
X112618000Y-75173000D01*
X112615000Y-75202000D01*
X112613000Y-75227000D01*
X112614000Y-75254000D01*
X112616000Y-75282000D01*
X112619000Y-75309000D01*
X112624000Y-75336000D01*
X112631000Y-75363000D01*
X112639000Y-75389000D01*
X112648000Y-75415000D01*
X112658000Y-75441000D01*
X112670000Y-75465000D01*
X112683000Y-75490000D01*
X112698000Y-75513000D01*
X112713000Y-75536000D01*
X112730000Y-75557000D01*
X112748000Y-75578000D01*
X112767000Y-75598000D01*
X112787000Y-75617000D01*
X112808000Y-75635000D01*
X112829000Y-75652000D01*
X112852000Y-75667000D01*
X112875000Y-75682000D01*
X112900000Y-75695000D01*
X112924000Y-75707000D01*
X112950000Y-75717000D01*
X112976000Y-75726000D01*
X113002000Y-75734000D01*
X113029000Y-75741000D01*
X113056000Y-75746000D01*
X113083000Y-75749000D01*
X113111000Y-75751000D01*
X113138000Y-75752000D01*
X113538000Y-75752000D01*
X113538000Y-75452000D01*
G36*
X113538000Y-75001000D02*
G01*
X113938000Y-75001000D01*
X113950000Y-75001000D01*
X113962000Y-75002000D01*
X113973000Y-75004000D01*
X113985000Y-75006000D01*
X113996000Y-75009000D01*
X114008000Y-75012000D01*
X114019000Y-75016000D01*
X114030000Y-75020000D01*
X114040000Y-75026000D01*
X114051000Y-75031000D01*
X114061000Y-75037000D01*
X114070000Y-75044000D01*
X114080000Y-75051000D01*
X114089000Y-75059000D01*
X114097000Y-75067000D01*
X114105000Y-75075000D01*
X114113000Y-75084000D01*
X114120000Y-75094000D01*
X114127000Y-75103000D01*
X114133000Y-75113000D01*
X114138000Y-75124000D01*
X114144000Y-75134000D01*
X114148000Y-75145000D01*
X114152000Y-75156000D01*
X114155000Y-75168000D01*
X114158000Y-75179000D01*
X114160000Y-75191000D01*
X114162000Y-75202000D01*
X114163000Y-75214000D01*
X114163000Y-75226000D01*
X114163000Y-75238000D01*
X114162000Y-75250000D01*
X114160000Y-75261000D01*
X114158000Y-75273000D01*
X114155000Y-75284000D01*
X114152000Y-75296000D01*
X114148000Y-75307000D01*
X114144000Y-75318000D01*
X114138000Y-75328000D01*
X114133000Y-75338000D01*
X114127000Y-75349000D01*
X114120000Y-75358000D01*
X114113000Y-75368000D01*
X114105000Y-75377000D01*
X114097000Y-75385000D01*
X114089000Y-75393000D01*
X114080000Y-75401000D01*
X114070000Y-75408000D01*
X114061000Y-75415000D01*
X114050000Y-75421000D01*
X114040000Y-75426000D01*
X114030000Y-75432000D01*
X114019000Y-75436000D01*
X114008000Y-75440000D01*
X113996000Y-75443000D01*
X113985000Y-75446000D01*
X113973000Y-75448000D01*
X113962000Y-75450000D01*
X113950000Y-75451000D01*
X113938000Y-75451000D01*
X113538000Y-75451000D01*
X113538000Y-75751000D01*
X113888000Y-75751000D01*
X113913000Y-75752000D01*
X113942000Y-75751000D01*
X113971000Y-75749000D01*
X113999000Y-75745000D01*
X114027000Y-75740000D01*
X114055000Y-75733000D01*
X114083000Y-75725000D01*
X114110000Y-75715000D01*
X114137000Y-75704000D01*
X114163000Y-75692000D01*
X114188000Y-75678000D01*
X114213000Y-75663000D01*
X114237000Y-75646000D01*
X114259000Y-75629000D01*
X114281000Y-75610000D01*
X114302000Y-75590000D01*
X114322000Y-75569000D01*
X114341000Y-75547000D01*
X114358000Y-75525000D01*
X114375000Y-75501000D01*
X114390000Y-75476000D01*
X114404000Y-75451000D01*
X114416000Y-75425000D01*
X114427000Y-75398000D01*
X114437000Y-75371000D01*
X114445000Y-75343000D01*
X114452000Y-75315000D01*
X114457000Y-75287000D01*
X114461000Y-75259000D01*
X114463000Y-75226000D01*
X114462000Y-75199000D01*
X114460000Y-75171000D01*
X114457000Y-75144000D01*
X114452000Y-75117000D01*
X114445000Y-75090000D01*
X114437000Y-75064000D01*
X114428000Y-75038000D01*
X114418000Y-75012000D01*
X114406000Y-74988000D01*
X114393000Y-74964000D01*
X114378000Y-74940000D01*
X114363000Y-74917000D01*
X114346000Y-74896000D01*
X114328000Y-74875000D01*
X114309000Y-74855000D01*
X114289000Y-74836000D01*
X114268000Y-74818000D01*
X114247000Y-74801000D01*
X114224000Y-74786000D01*
X114201000Y-74771000D01*
X114176000Y-74758000D01*
X114152000Y-74746000D01*
X114126000Y-74736000D01*
X114100000Y-74727000D01*
X114074000Y-74719000D01*
X114047000Y-74712000D01*
X114020000Y-74707000D01*
X113993000Y-74704000D01*
X113965000Y-74702000D01*
X113938000Y-74701000D01*
X113538000Y-74701000D01*
X113538000Y-75001000D01*
G37*
X113538000Y-75001000D02*
X113938000Y-75001000D01*
X113950000Y-75001000D01*
X113962000Y-75002000D01*
X113973000Y-75004000D01*
X113985000Y-75006000D01*
X113996000Y-75009000D01*
X114008000Y-75012000D01*
X114019000Y-75016000D01*
X114030000Y-75020000D01*
X114040000Y-75026000D01*
X114051000Y-75031000D01*
X114061000Y-75037000D01*
X114070000Y-75044000D01*
X114080000Y-75051000D01*
X114089000Y-75059000D01*
X114097000Y-75067000D01*
X114105000Y-75075000D01*
X114113000Y-75084000D01*
X114120000Y-75094000D01*
X114127000Y-75103000D01*
X114133000Y-75113000D01*
X114138000Y-75124000D01*
X114144000Y-75134000D01*
X114148000Y-75145000D01*
X114152000Y-75156000D01*
X114155000Y-75168000D01*
X114158000Y-75179000D01*
X114160000Y-75191000D01*
X114162000Y-75202000D01*
X114163000Y-75214000D01*
X114163000Y-75226000D01*
X114163000Y-75238000D01*
X114162000Y-75250000D01*
X114160000Y-75261000D01*
X114158000Y-75273000D01*
X114155000Y-75284000D01*
X114152000Y-75296000D01*
X114148000Y-75307000D01*
X114144000Y-75318000D01*
X114138000Y-75328000D01*
X114133000Y-75338000D01*
X114127000Y-75349000D01*
X114120000Y-75358000D01*
X114113000Y-75368000D01*
X114105000Y-75377000D01*
X114097000Y-75385000D01*
X114089000Y-75393000D01*
X114080000Y-75401000D01*
X114070000Y-75408000D01*
X114061000Y-75415000D01*
X114050000Y-75421000D01*
X114040000Y-75426000D01*
X114030000Y-75432000D01*
X114019000Y-75436000D01*
X114008000Y-75440000D01*
X113996000Y-75443000D01*
X113985000Y-75446000D01*
X113973000Y-75448000D01*
X113962000Y-75450000D01*
X113950000Y-75451000D01*
X113938000Y-75451000D01*
X113538000Y-75451000D01*
X113538000Y-75751000D01*
X113888000Y-75751000D01*
X113913000Y-75752000D01*
X113942000Y-75751000D01*
X113971000Y-75749000D01*
X113999000Y-75745000D01*
X114027000Y-75740000D01*
X114055000Y-75733000D01*
X114083000Y-75725000D01*
X114110000Y-75715000D01*
X114137000Y-75704000D01*
X114163000Y-75692000D01*
X114188000Y-75678000D01*
X114213000Y-75663000D01*
X114237000Y-75646000D01*
X114259000Y-75629000D01*
X114281000Y-75610000D01*
X114302000Y-75590000D01*
X114322000Y-75569000D01*
X114341000Y-75547000D01*
X114358000Y-75525000D01*
X114375000Y-75501000D01*
X114390000Y-75476000D01*
X114404000Y-75451000D01*
X114416000Y-75425000D01*
X114427000Y-75398000D01*
X114437000Y-75371000D01*
X114445000Y-75343000D01*
X114452000Y-75315000D01*
X114457000Y-75287000D01*
X114461000Y-75259000D01*
X114463000Y-75226000D01*
X114462000Y-75199000D01*
X114460000Y-75171000D01*
X114457000Y-75144000D01*
X114452000Y-75117000D01*
X114445000Y-75090000D01*
X114437000Y-75064000D01*
X114428000Y-75038000D01*
X114418000Y-75012000D01*
X114406000Y-74988000D01*
X114393000Y-74964000D01*
X114378000Y-74940000D01*
X114363000Y-74917000D01*
X114346000Y-74896000D01*
X114328000Y-74875000D01*
X114309000Y-74855000D01*
X114289000Y-74836000D01*
X114268000Y-74818000D01*
X114247000Y-74801000D01*
X114224000Y-74786000D01*
X114201000Y-74771000D01*
X114176000Y-74758000D01*
X114152000Y-74746000D01*
X114126000Y-74736000D01*
X114100000Y-74727000D01*
X114074000Y-74719000D01*
X114047000Y-74712000D01*
X114020000Y-74707000D01*
X113993000Y-74704000D01*
X113965000Y-74702000D01*
X113938000Y-74701000D01*
X113538000Y-74701000D01*
X113538000Y-75001000D01*
G36*
X113538000Y-75451000D02*
G01*
X113138000Y-75451000D01*
X113126000Y-75451000D01*
X113114000Y-75450000D01*
X113103000Y-75448000D01*
X113091000Y-75446000D01*
X113080000Y-75443000D01*
X113068000Y-75440000D01*
X113057000Y-75436000D01*
X113046000Y-75432000D01*
X113036000Y-75426000D01*
X113026000Y-75421000D01*
X113015000Y-75415000D01*
X113006000Y-75408000D01*
X112996000Y-75401000D01*
X112987000Y-75393000D01*
X112979000Y-75385000D01*
X112971000Y-75377000D01*
X112963000Y-75368000D01*
X112956000Y-75358000D01*
X112949000Y-75349000D01*
X112943000Y-75338000D01*
X112938000Y-75328000D01*
X112932000Y-75318000D01*
X112928000Y-75307000D01*
X112924000Y-75296000D01*
X112921000Y-75284000D01*
X112918000Y-75273000D01*
X112916000Y-75261000D01*
X112914000Y-75250000D01*
X112913000Y-75238000D01*
X112913000Y-75226000D01*
X112913000Y-75214000D01*
X112914000Y-75202000D01*
X112916000Y-75191000D01*
X112918000Y-75179000D01*
X112921000Y-75168000D01*
X112924000Y-75156000D01*
X112928000Y-75145000D01*
X112932000Y-75134000D01*
X112938000Y-75124000D01*
X112943000Y-75113000D01*
X112949000Y-75103000D01*
X112956000Y-75094000D01*
X112963000Y-75084000D01*
X112971000Y-75075000D01*
X112979000Y-75067000D01*
X112987000Y-75059000D01*
X112996000Y-75051000D01*
X113006000Y-75044000D01*
X113015000Y-75037000D01*
X113025000Y-75031000D01*
X113036000Y-75026000D01*
X113046000Y-75020000D01*
X113057000Y-75016000D01*
X113068000Y-75012000D01*
X113080000Y-75009000D01*
X113091000Y-75006000D01*
X113103000Y-75004000D01*
X113114000Y-75002000D01*
X113126000Y-75001000D01*
X113138000Y-75001000D01*
X113538000Y-75001000D01*
X113538000Y-74701000D01*
X113188000Y-74701000D01*
X113163000Y-74700000D01*
X113134000Y-74701000D01*
X113105000Y-74703000D01*
X113077000Y-74707000D01*
X113049000Y-74712000D01*
X113021000Y-74719000D01*
X112993000Y-74727000D01*
X112966000Y-74737000D01*
X112939000Y-74748000D01*
X112913000Y-74760000D01*
X112888000Y-74774000D01*
X112863000Y-74789000D01*
X112839000Y-74806000D01*
X112817000Y-74823000D01*
X112795000Y-74842000D01*
X112774000Y-74862000D01*
X112754000Y-74883000D01*
X112735000Y-74905000D01*
X112718000Y-74927000D01*
X112701000Y-74951000D01*
X112686000Y-74976000D01*
X112672000Y-75001000D01*
X112660000Y-75027000D01*
X112649000Y-75054000D01*
X112639000Y-75081000D01*
X112631000Y-75109000D01*
X112624000Y-75137000D01*
X112619000Y-75165000D01*
X112615000Y-75193000D01*
X112613000Y-75226000D01*
X112614000Y-75253000D01*
X112616000Y-75281000D01*
X112619000Y-75308000D01*
X112624000Y-75335000D01*
X112631000Y-75362000D01*
X112639000Y-75388000D01*
X112648000Y-75414000D01*
X112658000Y-75440000D01*
X112670000Y-75464000D01*
X112683000Y-75488000D01*
X112698000Y-75512000D01*
X112713000Y-75535000D01*
X112730000Y-75556000D01*
X112748000Y-75577000D01*
X112767000Y-75597000D01*
X112787000Y-75616000D01*
X112808000Y-75634000D01*
X112829000Y-75651000D01*
X112852000Y-75666000D01*
X112876000Y-75681000D01*
X112900000Y-75694000D01*
X112924000Y-75706000D01*
X112950000Y-75716000D01*
X112976000Y-75725000D01*
X113002000Y-75733000D01*
X113029000Y-75740000D01*
X113056000Y-75745000D01*
X113083000Y-75748000D01*
X113111000Y-75750000D01*
X113138000Y-75751000D01*
X113538000Y-75751000D01*
X113538000Y-75451000D01*
G37*
X113538000Y-75451000D02*
X113138000Y-75451000D01*
X113126000Y-75451000D01*
X113114000Y-75450000D01*
X113103000Y-75448000D01*
X113091000Y-75446000D01*
X113080000Y-75443000D01*
X113068000Y-75440000D01*
X113057000Y-75436000D01*
X113046000Y-75432000D01*
X113036000Y-75426000D01*
X113026000Y-75421000D01*
X113015000Y-75415000D01*
X113006000Y-75408000D01*
X112996000Y-75401000D01*
X112987000Y-75393000D01*
X112979000Y-75385000D01*
X112971000Y-75377000D01*
X112963000Y-75368000D01*
X112956000Y-75358000D01*
X112949000Y-75349000D01*
X112943000Y-75338000D01*
X112938000Y-75328000D01*
X112932000Y-75318000D01*
X112928000Y-75307000D01*
X112924000Y-75296000D01*
X112921000Y-75284000D01*
X112918000Y-75273000D01*
X112916000Y-75261000D01*
X112914000Y-75250000D01*
X112913000Y-75238000D01*
X112913000Y-75226000D01*
X112913000Y-75214000D01*
X112914000Y-75202000D01*
X112916000Y-75191000D01*
X112918000Y-75179000D01*
X112921000Y-75168000D01*
X112924000Y-75156000D01*
X112928000Y-75145000D01*
X112932000Y-75134000D01*
X112938000Y-75124000D01*
X112943000Y-75113000D01*
X112949000Y-75103000D01*
X112956000Y-75094000D01*
X112963000Y-75084000D01*
X112971000Y-75075000D01*
X112979000Y-75067000D01*
X112987000Y-75059000D01*
X112996000Y-75051000D01*
X113006000Y-75044000D01*
X113015000Y-75037000D01*
X113025000Y-75031000D01*
X113036000Y-75026000D01*
X113046000Y-75020000D01*
X113057000Y-75016000D01*
X113068000Y-75012000D01*
X113080000Y-75009000D01*
X113091000Y-75006000D01*
X113103000Y-75004000D01*
X113114000Y-75002000D01*
X113126000Y-75001000D01*
X113138000Y-75001000D01*
X113538000Y-75001000D01*
X113538000Y-74701000D01*
X113188000Y-74701000D01*
X113163000Y-74700000D01*
X113134000Y-74701000D01*
X113105000Y-74703000D01*
X113077000Y-74707000D01*
X113049000Y-74712000D01*
X113021000Y-74719000D01*
X112993000Y-74727000D01*
X112966000Y-74737000D01*
X112939000Y-74748000D01*
X112913000Y-74760000D01*
X112888000Y-74774000D01*
X112863000Y-74789000D01*
X112839000Y-74806000D01*
X112817000Y-74823000D01*
X112795000Y-74842000D01*
X112774000Y-74862000D01*
X112754000Y-74883000D01*
X112735000Y-74905000D01*
X112718000Y-74927000D01*
X112701000Y-74951000D01*
X112686000Y-74976000D01*
X112672000Y-75001000D01*
X112660000Y-75027000D01*
X112649000Y-75054000D01*
X112639000Y-75081000D01*
X112631000Y-75109000D01*
X112624000Y-75137000D01*
X112619000Y-75165000D01*
X112615000Y-75193000D01*
X112613000Y-75226000D01*
X112614000Y-75253000D01*
X112616000Y-75281000D01*
X112619000Y-75308000D01*
X112624000Y-75335000D01*
X112631000Y-75362000D01*
X112639000Y-75388000D01*
X112648000Y-75414000D01*
X112658000Y-75440000D01*
X112670000Y-75464000D01*
X112683000Y-75488000D01*
X112698000Y-75512000D01*
X112713000Y-75535000D01*
X112730000Y-75556000D01*
X112748000Y-75577000D01*
X112767000Y-75597000D01*
X112787000Y-75616000D01*
X112808000Y-75634000D01*
X112829000Y-75651000D01*
X112852000Y-75666000D01*
X112876000Y-75681000D01*
X112900000Y-75694000D01*
X112924000Y-75706000D01*
X112950000Y-75716000D01*
X112976000Y-75725000D01*
X113002000Y-75733000D01*
X113029000Y-75740000D01*
X113056000Y-75745000D01*
X113083000Y-75748000D01*
X113111000Y-75750000D01*
X113138000Y-75751000D01*
X113538000Y-75751000D01*
X113538000Y-75451000D01*
G36*
X113538000Y-82152000D02*
G01*
X113938000Y-82152000D01*
X113950000Y-82152000D01*
X113962000Y-82153000D01*
X113973000Y-82155000D01*
X113985000Y-82157000D01*
X113996000Y-82160000D01*
X114008000Y-82163000D01*
X114019000Y-82167000D01*
X114030000Y-82171000D01*
X114040000Y-82177000D01*
X114050000Y-82182000D01*
X114061000Y-82188000D01*
X114070000Y-82195000D01*
X114080000Y-82202000D01*
X114089000Y-82210000D01*
X114097000Y-82218000D01*
X114105000Y-82226000D01*
X114113000Y-82235000D01*
X114120000Y-82245000D01*
X114127000Y-82254000D01*
X114133000Y-82264000D01*
X114138000Y-82275000D01*
X114144000Y-82285000D01*
X114148000Y-82296000D01*
X114152000Y-82307000D01*
X114155000Y-82319000D01*
X114158000Y-82330000D01*
X114160000Y-82342000D01*
X114162000Y-82353000D01*
X114163000Y-82365000D01*
X114163000Y-82377000D01*
X114163000Y-82389000D01*
X114162000Y-82401000D01*
X114160000Y-82412000D01*
X114158000Y-82424000D01*
X114155000Y-82435000D01*
X114152000Y-82447000D01*
X114148000Y-82458000D01*
X114144000Y-82469000D01*
X114138000Y-82479000D01*
X114133000Y-82490000D01*
X114127000Y-82500000D01*
X114120000Y-82509000D01*
X114113000Y-82519000D01*
X114105000Y-82528000D01*
X114097000Y-82536000D01*
X114089000Y-82544000D01*
X114080000Y-82552000D01*
X114070000Y-82559000D01*
X114061000Y-82566000D01*
X114050000Y-82572000D01*
X114040000Y-82577000D01*
X114030000Y-82583000D01*
X114019000Y-82587000D01*
X114008000Y-82591000D01*
X113996000Y-82594000D01*
X113985000Y-82597000D01*
X113973000Y-82599000D01*
X113962000Y-82601000D01*
X113950000Y-82602000D01*
X113938000Y-82602000D01*
X113538000Y-82602000D01*
X113538000Y-82902000D01*
X113893000Y-82902000D01*
X113925000Y-82902000D01*
X113954000Y-82901000D01*
X113982000Y-82898000D01*
X114011000Y-82894000D01*
X114039000Y-82888000D01*
X114067000Y-82881000D01*
X114094000Y-82873000D01*
X114121000Y-82863000D01*
X114147000Y-82851000D01*
X114173000Y-82838000D01*
X114198000Y-82824000D01*
X114222000Y-82809000D01*
X114245000Y-82792000D01*
X114268000Y-82774000D01*
X114289000Y-82755000D01*
X114310000Y-82735000D01*
X114329000Y-82714000D01*
X114347000Y-82692000D01*
X114364000Y-82669000D01*
X114380000Y-82645000D01*
X114395000Y-82620000D01*
X114408000Y-82595000D01*
X114420000Y-82569000D01*
X114430000Y-82542000D01*
X114440000Y-82515000D01*
X114447000Y-82487000D01*
X114453000Y-82459000D01*
X114458000Y-82431000D01*
X114461000Y-82402000D01*
X114463000Y-82377000D01*
X114462000Y-82350000D01*
X114460000Y-82322000D01*
X114457000Y-82295000D01*
X114452000Y-82268000D01*
X114445000Y-82241000D01*
X114437000Y-82215000D01*
X114428000Y-82189000D01*
X114418000Y-82163000D01*
X114406000Y-82139000D01*
X114393000Y-82115000D01*
X114378000Y-82091000D01*
X114363000Y-82068000D01*
X114346000Y-82047000D01*
X114328000Y-82026000D01*
X114309000Y-82006000D01*
X114289000Y-81987000D01*
X114268000Y-81969000D01*
X114247000Y-81952000D01*
X114224000Y-81937000D01*
X114201000Y-81922000D01*
X114176000Y-81909000D01*
X114152000Y-81897000D01*
X114126000Y-81887000D01*
X114100000Y-81878000D01*
X114074000Y-81870000D01*
X114047000Y-81863000D01*
X114020000Y-81858000D01*
X113993000Y-81855000D01*
X113965000Y-81853000D01*
X113938000Y-81852000D01*
X113538000Y-81852000D01*
X113538000Y-82152000D01*
G37*
X113538000Y-82152000D02*
X113938000Y-82152000D01*
X113950000Y-82152000D01*
X113962000Y-82153000D01*
X113973000Y-82155000D01*
X113985000Y-82157000D01*
X113996000Y-82160000D01*
X114008000Y-82163000D01*
X114019000Y-82167000D01*
X114030000Y-82171000D01*
X114040000Y-82177000D01*
X114050000Y-82182000D01*
X114061000Y-82188000D01*
X114070000Y-82195000D01*
X114080000Y-82202000D01*
X114089000Y-82210000D01*
X114097000Y-82218000D01*
X114105000Y-82226000D01*
X114113000Y-82235000D01*
X114120000Y-82245000D01*
X114127000Y-82254000D01*
X114133000Y-82264000D01*
X114138000Y-82275000D01*
X114144000Y-82285000D01*
X114148000Y-82296000D01*
X114152000Y-82307000D01*
X114155000Y-82319000D01*
X114158000Y-82330000D01*
X114160000Y-82342000D01*
X114162000Y-82353000D01*
X114163000Y-82365000D01*
X114163000Y-82377000D01*
X114163000Y-82389000D01*
X114162000Y-82401000D01*
X114160000Y-82412000D01*
X114158000Y-82424000D01*
X114155000Y-82435000D01*
X114152000Y-82447000D01*
X114148000Y-82458000D01*
X114144000Y-82469000D01*
X114138000Y-82479000D01*
X114133000Y-82490000D01*
X114127000Y-82500000D01*
X114120000Y-82509000D01*
X114113000Y-82519000D01*
X114105000Y-82528000D01*
X114097000Y-82536000D01*
X114089000Y-82544000D01*
X114080000Y-82552000D01*
X114070000Y-82559000D01*
X114061000Y-82566000D01*
X114050000Y-82572000D01*
X114040000Y-82577000D01*
X114030000Y-82583000D01*
X114019000Y-82587000D01*
X114008000Y-82591000D01*
X113996000Y-82594000D01*
X113985000Y-82597000D01*
X113973000Y-82599000D01*
X113962000Y-82601000D01*
X113950000Y-82602000D01*
X113938000Y-82602000D01*
X113538000Y-82602000D01*
X113538000Y-82902000D01*
X113893000Y-82902000D01*
X113925000Y-82902000D01*
X113954000Y-82901000D01*
X113982000Y-82898000D01*
X114011000Y-82894000D01*
X114039000Y-82888000D01*
X114067000Y-82881000D01*
X114094000Y-82873000D01*
X114121000Y-82863000D01*
X114147000Y-82851000D01*
X114173000Y-82838000D01*
X114198000Y-82824000D01*
X114222000Y-82809000D01*
X114245000Y-82792000D01*
X114268000Y-82774000D01*
X114289000Y-82755000D01*
X114310000Y-82735000D01*
X114329000Y-82714000D01*
X114347000Y-82692000D01*
X114364000Y-82669000D01*
X114380000Y-82645000D01*
X114395000Y-82620000D01*
X114408000Y-82595000D01*
X114420000Y-82569000D01*
X114430000Y-82542000D01*
X114440000Y-82515000D01*
X114447000Y-82487000D01*
X114453000Y-82459000D01*
X114458000Y-82431000D01*
X114461000Y-82402000D01*
X114463000Y-82377000D01*
X114462000Y-82350000D01*
X114460000Y-82322000D01*
X114457000Y-82295000D01*
X114452000Y-82268000D01*
X114445000Y-82241000D01*
X114437000Y-82215000D01*
X114428000Y-82189000D01*
X114418000Y-82163000D01*
X114406000Y-82139000D01*
X114393000Y-82115000D01*
X114378000Y-82091000D01*
X114363000Y-82068000D01*
X114346000Y-82047000D01*
X114328000Y-82026000D01*
X114309000Y-82006000D01*
X114289000Y-81987000D01*
X114268000Y-81969000D01*
X114247000Y-81952000D01*
X114224000Y-81937000D01*
X114201000Y-81922000D01*
X114176000Y-81909000D01*
X114152000Y-81897000D01*
X114126000Y-81887000D01*
X114100000Y-81878000D01*
X114074000Y-81870000D01*
X114047000Y-81863000D01*
X114020000Y-81858000D01*
X113993000Y-81855000D01*
X113965000Y-81853000D01*
X113938000Y-81852000D01*
X113538000Y-81852000D01*
X113538000Y-82152000D01*
G36*
X113538000Y-82602000D02*
G01*
X113138000Y-82602000D01*
X113126000Y-82602000D01*
X113114000Y-82601000D01*
X113103000Y-82599000D01*
X113091000Y-82597000D01*
X113080000Y-82594000D01*
X113068000Y-82591000D01*
X113057000Y-82587000D01*
X113046000Y-82583000D01*
X113036000Y-82577000D01*
X113026000Y-82572000D01*
X113015000Y-82566000D01*
X113006000Y-82559000D01*
X112996000Y-82552000D01*
X112987000Y-82544000D01*
X112979000Y-82536000D01*
X112971000Y-82528000D01*
X112963000Y-82519000D01*
X112956000Y-82509000D01*
X112949000Y-82500000D01*
X112943000Y-82490000D01*
X112938000Y-82479000D01*
X112932000Y-82469000D01*
X112928000Y-82458000D01*
X112924000Y-82447000D01*
X112921000Y-82435000D01*
X112918000Y-82424000D01*
X112916000Y-82412000D01*
X112914000Y-82401000D01*
X112913000Y-82389000D01*
X112913000Y-82377000D01*
X112913000Y-82365000D01*
X112914000Y-82353000D01*
X112916000Y-82342000D01*
X112918000Y-82330000D01*
X112921000Y-82319000D01*
X112924000Y-82307000D01*
X112928000Y-82296000D01*
X112932000Y-82285000D01*
X112938000Y-82275000D01*
X112943000Y-82264000D01*
X112949000Y-82254000D01*
X112956000Y-82245000D01*
X112963000Y-82235000D01*
X112971000Y-82226000D01*
X112979000Y-82218000D01*
X112987000Y-82210000D01*
X112996000Y-82202000D01*
X113006000Y-82195000D01*
X113015000Y-82188000D01*
X113026000Y-82182000D01*
X113036000Y-82177000D01*
X113046000Y-82171000D01*
X113057000Y-82167000D01*
X113068000Y-82163000D01*
X113080000Y-82160000D01*
X113091000Y-82157000D01*
X113103000Y-82155000D01*
X113114000Y-82153000D01*
X113126000Y-82152000D01*
X113138000Y-82152000D01*
X113538000Y-82152000D01*
X113538000Y-81852000D01*
X113183000Y-81852000D01*
X113151000Y-81852000D01*
X113122000Y-81853000D01*
X113094000Y-81856000D01*
X113065000Y-81860000D01*
X113037000Y-81866000D01*
X113009000Y-81873000D01*
X112982000Y-81881000D01*
X112955000Y-81891000D01*
X112929000Y-81903000D01*
X112903000Y-81916000D01*
X112878000Y-81930000D01*
X112854000Y-81945000D01*
X112831000Y-81962000D01*
X112808000Y-81980000D01*
X112787000Y-81999000D01*
X112766000Y-82019000D01*
X112747000Y-82040000D01*
X112729000Y-82062000D01*
X112712000Y-82085000D01*
X112696000Y-82109000D01*
X112681000Y-82134000D01*
X112668000Y-82159000D01*
X112656000Y-82185000D01*
X112646000Y-82212000D01*
X112636000Y-82239000D01*
X112629000Y-82267000D01*
X112623000Y-82295000D01*
X112618000Y-82323000D01*
X112615000Y-82352000D01*
X112613000Y-82377000D01*
X112614000Y-82404000D01*
X112616000Y-82432000D01*
X112619000Y-82459000D01*
X112624000Y-82486000D01*
X112631000Y-82513000D01*
X112639000Y-82539000D01*
X112648000Y-82565000D01*
X112658000Y-82591000D01*
X112670000Y-82615000D01*
X112683000Y-82639000D01*
X112698000Y-82663000D01*
X112713000Y-82686000D01*
X112730000Y-82707000D01*
X112748000Y-82728000D01*
X112767000Y-82748000D01*
X112787000Y-82767000D01*
X112808000Y-82785000D01*
X112829000Y-82802000D01*
X112852000Y-82817000D01*
X112875000Y-82832000D01*
X112900000Y-82845000D01*
X112924000Y-82857000D01*
X112950000Y-82867000D01*
X112976000Y-82876000D01*
X113002000Y-82884000D01*
X113029000Y-82891000D01*
X113056000Y-82896000D01*
X113083000Y-82899000D01*
X113111000Y-82901000D01*
X113138000Y-82902000D01*
X113538000Y-82902000D01*
X113538000Y-82602000D01*
G37*
X113538000Y-82602000D02*
X113138000Y-82602000D01*
X113126000Y-82602000D01*
X113114000Y-82601000D01*
X113103000Y-82599000D01*
X113091000Y-82597000D01*
X113080000Y-82594000D01*
X113068000Y-82591000D01*
X113057000Y-82587000D01*
X113046000Y-82583000D01*
X113036000Y-82577000D01*
X113026000Y-82572000D01*
X113015000Y-82566000D01*
X113006000Y-82559000D01*
X112996000Y-82552000D01*
X112987000Y-82544000D01*
X112979000Y-82536000D01*
X112971000Y-82528000D01*
X112963000Y-82519000D01*
X112956000Y-82509000D01*
X112949000Y-82500000D01*
X112943000Y-82490000D01*
X112938000Y-82479000D01*
X112932000Y-82469000D01*
X112928000Y-82458000D01*
X112924000Y-82447000D01*
X112921000Y-82435000D01*
X112918000Y-82424000D01*
X112916000Y-82412000D01*
X112914000Y-82401000D01*
X112913000Y-82389000D01*
X112913000Y-82377000D01*
X112913000Y-82365000D01*
X112914000Y-82353000D01*
X112916000Y-82342000D01*
X112918000Y-82330000D01*
X112921000Y-82319000D01*
X112924000Y-82307000D01*
X112928000Y-82296000D01*
X112932000Y-82285000D01*
X112938000Y-82275000D01*
X112943000Y-82264000D01*
X112949000Y-82254000D01*
X112956000Y-82245000D01*
X112963000Y-82235000D01*
X112971000Y-82226000D01*
X112979000Y-82218000D01*
X112987000Y-82210000D01*
X112996000Y-82202000D01*
X113006000Y-82195000D01*
X113015000Y-82188000D01*
X113026000Y-82182000D01*
X113036000Y-82177000D01*
X113046000Y-82171000D01*
X113057000Y-82167000D01*
X113068000Y-82163000D01*
X113080000Y-82160000D01*
X113091000Y-82157000D01*
X113103000Y-82155000D01*
X113114000Y-82153000D01*
X113126000Y-82152000D01*
X113138000Y-82152000D01*
X113538000Y-82152000D01*
X113538000Y-81852000D01*
X113183000Y-81852000D01*
X113151000Y-81852000D01*
X113122000Y-81853000D01*
X113094000Y-81856000D01*
X113065000Y-81860000D01*
X113037000Y-81866000D01*
X113009000Y-81873000D01*
X112982000Y-81881000D01*
X112955000Y-81891000D01*
X112929000Y-81903000D01*
X112903000Y-81916000D01*
X112878000Y-81930000D01*
X112854000Y-81945000D01*
X112831000Y-81962000D01*
X112808000Y-81980000D01*
X112787000Y-81999000D01*
X112766000Y-82019000D01*
X112747000Y-82040000D01*
X112729000Y-82062000D01*
X112712000Y-82085000D01*
X112696000Y-82109000D01*
X112681000Y-82134000D01*
X112668000Y-82159000D01*
X112656000Y-82185000D01*
X112646000Y-82212000D01*
X112636000Y-82239000D01*
X112629000Y-82267000D01*
X112623000Y-82295000D01*
X112618000Y-82323000D01*
X112615000Y-82352000D01*
X112613000Y-82377000D01*
X112614000Y-82404000D01*
X112616000Y-82432000D01*
X112619000Y-82459000D01*
X112624000Y-82486000D01*
X112631000Y-82513000D01*
X112639000Y-82539000D01*
X112648000Y-82565000D01*
X112658000Y-82591000D01*
X112670000Y-82615000D01*
X112683000Y-82639000D01*
X112698000Y-82663000D01*
X112713000Y-82686000D01*
X112730000Y-82707000D01*
X112748000Y-82728000D01*
X112767000Y-82748000D01*
X112787000Y-82767000D01*
X112808000Y-82785000D01*
X112829000Y-82802000D01*
X112852000Y-82817000D01*
X112875000Y-82832000D01*
X112900000Y-82845000D01*
X112924000Y-82857000D01*
X112950000Y-82867000D01*
X112976000Y-82876000D01*
X113002000Y-82884000D01*
X113029000Y-82891000D01*
X113056000Y-82896000D01*
X113083000Y-82899000D01*
X113111000Y-82901000D01*
X113138000Y-82902000D01*
X113538000Y-82902000D01*
X113538000Y-82602000D01*
G36*
X113538000Y-82151000D02*
G01*
X113938000Y-82151000D01*
X113950000Y-82151000D01*
X113962000Y-82152000D01*
X113973000Y-82154000D01*
X113985000Y-82156000D01*
X113996000Y-82159000D01*
X114008000Y-82162000D01*
X114019000Y-82166000D01*
X114030000Y-82170000D01*
X114040000Y-82176000D01*
X114050000Y-82181000D01*
X114061000Y-82187000D01*
X114070000Y-82194000D01*
X114080000Y-82201000D01*
X114089000Y-82209000D01*
X114097000Y-82217000D01*
X114105000Y-82225000D01*
X114113000Y-82234000D01*
X114120000Y-82244000D01*
X114127000Y-82253000D01*
X114133000Y-82264000D01*
X114138000Y-82274000D01*
X114144000Y-82284000D01*
X114148000Y-82295000D01*
X114152000Y-82306000D01*
X114155000Y-82318000D01*
X114158000Y-82329000D01*
X114160000Y-82341000D01*
X114162000Y-82352000D01*
X114163000Y-82364000D01*
X114163000Y-82376000D01*
X114163000Y-82388000D01*
X114162000Y-82400000D01*
X114160000Y-82411000D01*
X114158000Y-82423000D01*
X114155000Y-82434000D01*
X114152000Y-82446000D01*
X114148000Y-82457000D01*
X114144000Y-82468000D01*
X114138000Y-82478000D01*
X114133000Y-82489000D01*
X114127000Y-82499000D01*
X114120000Y-82508000D01*
X114113000Y-82518000D01*
X114105000Y-82527000D01*
X114097000Y-82535000D01*
X114089000Y-82543000D01*
X114080000Y-82551000D01*
X114070000Y-82558000D01*
X114061000Y-82565000D01*
X114051000Y-82571000D01*
X114040000Y-82576000D01*
X114030000Y-82582000D01*
X114019000Y-82586000D01*
X114008000Y-82590000D01*
X113996000Y-82593000D01*
X113985000Y-82596000D01*
X113973000Y-82598000D01*
X113962000Y-82600000D01*
X113950000Y-82601000D01*
X113938000Y-82601000D01*
X113538000Y-82601000D01*
X113538000Y-82901000D01*
X113888000Y-82901000D01*
X113913000Y-82902000D01*
X113942000Y-82901000D01*
X113971000Y-82899000D01*
X113999000Y-82895000D01*
X114027000Y-82890000D01*
X114055000Y-82883000D01*
X114083000Y-82875000D01*
X114110000Y-82865000D01*
X114137000Y-82854000D01*
X114163000Y-82842000D01*
X114188000Y-82828000D01*
X114213000Y-82813000D01*
X114237000Y-82796000D01*
X114259000Y-82779000D01*
X114281000Y-82760000D01*
X114302000Y-82740000D01*
X114322000Y-82719000D01*
X114341000Y-82697000D01*
X114358000Y-82675000D01*
X114375000Y-82651000D01*
X114390000Y-82626000D01*
X114404000Y-82601000D01*
X114416000Y-82575000D01*
X114427000Y-82548000D01*
X114437000Y-82521000D01*
X114445000Y-82493000D01*
X114452000Y-82465000D01*
X114457000Y-82437000D01*
X114461000Y-82409000D01*
X114463000Y-82376000D01*
X114462000Y-82349000D01*
X114460000Y-82321000D01*
X114457000Y-82294000D01*
X114452000Y-82267000D01*
X114445000Y-82240000D01*
X114437000Y-82214000D01*
X114428000Y-82188000D01*
X114418000Y-82162000D01*
X114406000Y-82138000D01*
X114393000Y-82114000D01*
X114378000Y-82090000D01*
X114363000Y-82067000D01*
X114346000Y-82046000D01*
X114328000Y-82025000D01*
X114309000Y-82005000D01*
X114289000Y-81986000D01*
X114268000Y-81968000D01*
X114247000Y-81951000D01*
X114224000Y-81936000D01*
X114200000Y-81921000D01*
X114176000Y-81908000D01*
X114152000Y-81896000D01*
X114126000Y-81886000D01*
X114100000Y-81877000D01*
X114074000Y-81869000D01*
X114047000Y-81862000D01*
X114020000Y-81857000D01*
X113993000Y-81854000D01*
X113965000Y-81852000D01*
X113938000Y-81851000D01*
X113538000Y-81851000D01*
X113538000Y-82151000D01*
G37*
X113538000Y-82151000D02*
X113938000Y-82151000D01*
X113950000Y-82151000D01*
X113962000Y-82152000D01*
X113973000Y-82154000D01*
X113985000Y-82156000D01*
X113996000Y-82159000D01*
X114008000Y-82162000D01*
X114019000Y-82166000D01*
X114030000Y-82170000D01*
X114040000Y-82176000D01*
X114050000Y-82181000D01*
X114061000Y-82187000D01*
X114070000Y-82194000D01*
X114080000Y-82201000D01*
X114089000Y-82209000D01*
X114097000Y-82217000D01*
X114105000Y-82225000D01*
X114113000Y-82234000D01*
X114120000Y-82244000D01*
X114127000Y-82253000D01*
X114133000Y-82264000D01*
X114138000Y-82274000D01*
X114144000Y-82284000D01*
X114148000Y-82295000D01*
X114152000Y-82306000D01*
X114155000Y-82318000D01*
X114158000Y-82329000D01*
X114160000Y-82341000D01*
X114162000Y-82352000D01*
X114163000Y-82364000D01*
X114163000Y-82376000D01*
X114163000Y-82388000D01*
X114162000Y-82400000D01*
X114160000Y-82411000D01*
X114158000Y-82423000D01*
X114155000Y-82434000D01*
X114152000Y-82446000D01*
X114148000Y-82457000D01*
X114144000Y-82468000D01*
X114138000Y-82478000D01*
X114133000Y-82489000D01*
X114127000Y-82499000D01*
X114120000Y-82508000D01*
X114113000Y-82518000D01*
X114105000Y-82527000D01*
X114097000Y-82535000D01*
X114089000Y-82543000D01*
X114080000Y-82551000D01*
X114070000Y-82558000D01*
X114061000Y-82565000D01*
X114051000Y-82571000D01*
X114040000Y-82576000D01*
X114030000Y-82582000D01*
X114019000Y-82586000D01*
X114008000Y-82590000D01*
X113996000Y-82593000D01*
X113985000Y-82596000D01*
X113973000Y-82598000D01*
X113962000Y-82600000D01*
X113950000Y-82601000D01*
X113938000Y-82601000D01*
X113538000Y-82601000D01*
X113538000Y-82901000D01*
X113888000Y-82901000D01*
X113913000Y-82902000D01*
X113942000Y-82901000D01*
X113971000Y-82899000D01*
X113999000Y-82895000D01*
X114027000Y-82890000D01*
X114055000Y-82883000D01*
X114083000Y-82875000D01*
X114110000Y-82865000D01*
X114137000Y-82854000D01*
X114163000Y-82842000D01*
X114188000Y-82828000D01*
X114213000Y-82813000D01*
X114237000Y-82796000D01*
X114259000Y-82779000D01*
X114281000Y-82760000D01*
X114302000Y-82740000D01*
X114322000Y-82719000D01*
X114341000Y-82697000D01*
X114358000Y-82675000D01*
X114375000Y-82651000D01*
X114390000Y-82626000D01*
X114404000Y-82601000D01*
X114416000Y-82575000D01*
X114427000Y-82548000D01*
X114437000Y-82521000D01*
X114445000Y-82493000D01*
X114452000Y-82465000D01*
X114457000Y-82437000D01*
X114461000Y-82409000D01*
X114463000Y-82376000D01*
X114462000Y-82349000D01*
X114460000Y-82321000D01*
X114457000Y-82294000D01*
X114452000Y-82267000D01*
X114445000Y-82240000D01*
X114437000Y-82214000D01*
X114428000Y-82188000D01*
X114418000Y-82162000D01*
X114406000Y-82138000D01*
X114393000Y-82114000D01*
X114378000Y-82090000D01*
X114363000Y-82067000D01*
X114346000Y-82046000D01*
X114328000Y-82025000D01*
X114309000Y-82005000D01*
X114289000Y-81986000D01*
X114268000Y-81968000D01*
X114247000Y-81951000D01*
X114224000Y-81936000D01*
X114200000Y-81921000D01*
X114176000Y-81908000D01*
X114152000Y-81896000D01*
X114126000Y-81886000D01*
X114100000Y-81877000D01*
X114074000Y-81869000D01*
X114047000Y-81862000D01*
X114020000Y-81857000D01*
X113993000Y-81854000D01*
X113965000Y-81852000D01*
X113938000Y-81851000D01*
X113538000Y-81851000D01*
X113538000Y-82151000D01*
G36*
X113538000Y-82601000D02*
G01*
X113138000Y-82601000D01*
X113126000Y-82601000D01*
X113114000Y-82600000D01*
X113103000Y-82598000D01*
X113091000Y-82596000D01*
X113080000Y-82593000D01*
X113068000Y-82590000D01*
X113057000Y-82586000D01*
X113046000Y-82582000D01*
X113036000Y-82576000D01*
X113025000Y-82571000D01*
X113015000Y-82565000D01*
X113006000Y-82558000D01*
X112996000Y-82551000D01*
X112987000Y-82543000D01*
X112979000Y-82535000D01*
X112971000Y-82527000D01*
X112963000Y-82518000D01*
X112956000Y-82508000D01*
X112949000Y-82499000D01*
X112943000Y-82489000D01*
X112938000Y-82478000D01*
X112932000Y-82468000D01*
X112928000Y-82457000D01*
X112924000Y-82446000D01*
X112921000Y-82434000D01*
X112918000Y-82423000D01*
X112916000Y-82411000D01*
X112914000Y-82400000D01*
X112913000Y-82388000D01*
X112913000Y-82376000D01*
X112913000Y-82364000D01*
X112914000Y-82352000D01*
X112916000Y-82341000D01*
X112918000Y-82329000D01*
X112921000Y-82318000D01*
X112924000Y-82306000D01*
X112928000Y-82295000D01*
X112932000Y-82284000D01*
X112938000Y-82274000D01*
X112943000Y-82264000D01*
X112949000Y-82253000D01*
X112956000Y-82244000D01*
X112963000Y-82234000D01*
X112971000Y-82225000D01*
X112979000Y-82217000D01*
X112987000Y-82209000D01*
X112996000Y-82201000D01*
X113006000Y-82194000D01*
X113015000Y-82187000D01*
X113026000Y-82181000D01*
X113036000Y-82176000D01*
X113046000Y-82170000D01*
X113057000Y-82166000D01*
X113068000Y-82162000D01*
X113080000Y-82159000D01*
X113091000Y-82156000D01*
X113103000Y-82154000D01*
X113114000Y-82152000D01*
X113126000Y-82151000D01*
X113138000Y-82151000D01*
X113538000Y-82151000D01*
X113538000Y-81851000D01*
X113188000Y-81851000D01*
X113163000Y-81850000D01*
X113134000Y-81851000D01*
X113105000Y-81853000D01*
X113077000Y-81857000D01*
X113049000Y-81862000D01*
X113021000Y-81869000D01*
X112993000Y-81877000D01*
X112966000Y-81887000D01*
X112939000Y-81898000D01*
X112913000Y-81910000D01*
X112888000Y-81924000D01*
X112863000Y-81939000D01*
X112839000Y-81956000D01*
X112817000Y-81973000D01*
X112795000Y-81992000D01*
X112774000Y-82012000D01*
X112754000Y-82033000D01*
X112735000Y-82055000D01*
X112718000Y-82077000D01*
X112701000Y-82101000D01*
X112686000Y-82126000D01*
X112672000Y-82151000D01*
X112660000Y-82177000D01*
X112649000Y-82204000D01*
X112639000Y-82231000D01*
X112631000Y-82259000D01*
X112624000Y-82287000D01*
X112619000Y-82315000D01*
X112615000Y-82343000D01*
X112613000Y-82376000D01*
X112614000Y-82403000D01*
X112616000Y-82431000D01*
X112619000Y-82458000D01*
X112624000Y-82485000D01*
X112631000Y-82512000D01*
X112639000Y-82538000D01*
X112648000Y-82564000D01*
X112658000Y-82590000D01*
X112670000Y-82614000D01*
X112683000Y-82638000D01*
X112698000Y-82662000D01*
X112713000Y-82685000D01*
X112730000Y-82706000D01*
X112748000Y-82727000D01*
X112767000Y-82747000D01*
X112787000Y-82766000D01*
X112808000Y-82784000D01*
X112829000Y-82801000D01*
X112852000Y-82816000D01*
X112875000Y-82831000D01*
X112900000Y-82844000D01*
X112924000Y-82856000D01*
X112950000Y-82866000D01*
X112976000Y-82875000D01*
X113002000Y-82883000D01*
X113029000Y-82890000D01*
X113056000Y-82895000D01*
X113083000Y-82898000D01*
X113111000Y-82900000D01*
X113138000Y-82901000D01*
X113538000Y-82901000D01*
X113538000Y-82601000D01*
G37*
X113538000Y-82601000D02*
X113138000Y-82601000D01*
X113126000Y-82601000D01*
X113114000Y-82600000D01*
X113103000Y-82598000D01*
X113091000Y-82596000D01*
X113080000Y-82593000D01*
X113068000Y-82590000D01*
X113057000Y-82586000D01*
X113046000Y-82582000D01*
X113036000Y-82576000D01*
X113025000Y-82571000D01*
X113015000Y-82565000D01*
X113006000Y-82558000D01*
X112996000Y-82551000D01*
X112987000Y-82543000D01*
X112979000Y-82535000D01*
X112971000Y-82527000D01*
X112963000Y-82518000D01*
X112956000Y-82508000D01*
X112949000Y-82499000D01*
X112943000Y-82489000D01*
X112938000Y-82478000D01*
X112932000Y-82468000D01*
X112928000Y-82457000D01*
X112924000Y-82446000D01*
X112921000Y-82434000D01*
X112918000Y-82423000D01*
X112916000Y-82411000D01*
X112914000Y-82400000D01*
X112913000Y-82388000D01*
X112913000Y-82376000D01*
X112913000Y-82364000D01*
X112914000Y-82352000D01*
X112916000Y-82341000D01*
X112918000Y-82329000D01*
X112921000Y-82318000D01*
X112924000Y-82306000D01*
X112928000Y-82295000D01*
X112932000Y-82284000D01*
X112938000Y-82274000D01*
X112943000Y-82264000D01*
X112949000Y-82253000D01*
X112956000Y-82244000D01*
X112963000Y-82234000D01*
X112971000Y-82225000D01*
X112979000Y-82217000D01*
X112987000Y-82209000D01*
X112996000Y-82201000D01*
X113006000Y-82194000D01*
X113015000Y-82187000D01*
X113026000Y-82181000D01*
X113036000Y-82176000D01*
X113046000Y-82170000D01*
X113057000Y-82166000D01*
X113068000Y-82162000D01*
X113080000Y-82159000D01*
X113091000Y-82156000D01*
X113103000Y-82154000D01*
X113114000Y-82152000D01*
X113126000Y-82151000D01*
X113138000Y-82151000D01*
X113538000Y-82151000D01*
X113538000Y-81851000D01*
X113188000Y-81851000D01*
X113163000Y-81850000D01*
X113134000Y-81851000D01*
X113105000Y-81853000D01*
X113077000Y-81857000D01*
X113049000Y-81862000D01*
X113021000Y-81869000D01*
X112993000Y-81877000D01*
X112966000Y-81887000D01*
X112939000Y-81898000D01*
X112913000Y-81910000D01*
X112888000Y-81924000D01*
X112863000Y-81939000D01*
X112839000Y-81956000D01*
X112817000Y-81973000D01*
X112795000Y-81992000D01*
X112774000Y-82012000D01*
X112754000Y-82033000D01*
X112735000Y-82055000D01*
X112718000Y-82077000D01*
X112701000Y-82101000D01*
X112686000Y-82126000D01*
X112672000Y-82151000D01*
X112660000Y-82177000D01*
X112649000Y-82204000D01*
X112639000Y-82231000D01*
X112631000Y-82259000D01*
X112624000Y-82287000D01*
X112619000Y-82315000D01*
X112615000Y-82343000D01*
X112613000Y-82376000D01*
X112614000Y-82403000D01*
X112616000Y-82431000D01*
X112619000Y-82458000D01*
X112624000Y-82485000D01*
X112631000Y-82512000D01*
X112639000Y-82538000D01*
X112648000Y-82564000D01*
X112658000Y-82590000D01*
X112670000Y-82614000D01*
X112683000Y-82638000D01*
X112698000Y-82662000D01*
X112713000Y-82685000D01*
X112730000Y-82706000D01*
X112748000Y-82727000D01*
X112767000Y-82747000D01*
X112787000Y-82766000D01*
X112808000Y-82784000D01*
X112829000Y-82801000D01*
X112852000Y-82816000D01*
X112875000Y-82831000D01*
X112900000Y-82844000D01*
X112924000Y-82856000D01*
X112950000Y-82866000D01*
X112976000Y-82875000D01*
X113002000Y-82883000D01*
X113029000Y-82890000D01*
X113056000Y-82895000D01*
X113083000Y-82898000D01*
X113111000Y-82900000D01*
X113138000Y-82901000D01*
X113538000Y-82901000D01*
X113538000Y-82601000D01*
%TO.C,J5*%
G36*
X208914500Y-110535999D02*
G01*
X209314500Y-110535999D01*
X209326500Y-110535999D01*
X209338500Y-110536999D01*
X209349500Y-110538999D01*
X209361500Y-110540999D01*
X209372500Y-110543999D01*
X209384500Y-110546999D01*
X209395500Y-110550999D01*
X209406500Y-110554999D01*
X209416500Y-110560999D01*
X209427500Y-110565999D01*
X209437500Y-110571999D01*
X209446500Y-110578999D01*
X209456500Y-110585999D01*
X209465500Y-110593999D01*
X209473500Y-110601999D01*
X209481500Y-110609999D01*
X209489500Y-110618999D01*
X209496500Y-110628999D01*
X209503500Y-110637999D01*
X209509500Y-110647999D01*
X209514500Y-110658999D01*
X209520500Y-110668999D01*
X209524500Y-110679999D01*
X209528500Y-110690999D01*
X209531500Y-110702999D01*
X209534500Y-110713999D01*
X209536500Y-110725999D01*
X209538500Y-110736999D01*
X209539500Y-110748999D01*
X209539500Y-110760999D01*
X209539500Y-110772999D01*
X209538500Y-110784999D01*
X209536500Y-110795999D01*
X209534500Y-110807999D01*
X209531500Y-110818999D01*
X209528500Y-110830999D01*
X209524500Y-110841999D01*
X209520500Y-110852999D01*
X209514500Y-110862999D01*
X209509500Y-110872999D01*
X209503500Y-110883999D01*
X209496500Y-110892999D01*
X209489500Y-110902999D01*
X209481500Y-110911999D01*
X209473500Y-110919999D01*
X209465500Y-110927999D01*
X209456500Y-110935999D01*
X209446500Y-110942999D01*
X209437500Y-110949999D01*
X209426500Y-110955999D01*
X209416500Y-110960999D01*
X209406500Y-110966999D01*
X209395500Y-110970999D01*
X209384500Y-110974999D01*
X209372500Y-110977999D01*
X209361500Y-110980999D01*
X209349500Y-110982999D01*
X209338500Y-110984999D01*
X209326500Y-110985999D01*
X209314500Y-110985999D01*
X208914500Y-110985999D01*
X208914500Y-111285999D01*
X209264500Y-111285999D01*
X209289500Y-111286999D01*
X209318500Y-111285999D01*
X209347500Y-111283999D01*
X209375500Y-111279999D01*
X209403500Y-111274999D01*
X209431500Y-111267999D01*
X209459500Y-111259999D01*
X209486500Y-111249999D01*
X209513500Y-111238999D01*
X209539500Y-111226999D01*
X209564500Y-111212999D01*
X209589500Y-111197999D01*
X209613500Y-111180999D01*
X209635500Y-111163999D01*
X209657500Y-111144999D01*
X209678500Y-111124999D01*
X209698500Y-111103999D01*
X209717500Y-111081999D01*
X209734500Y-111059999D01*
X209751500Y-111035999D01*
X209766500Y-111010999D01*
X209780500Y-110985999D01*
X209792500Y-110959999D01*
X209803500Y-110932999D01*
X209813500Y-110905999D01*
X209821500Y-110877999D01*
X209828500Y-110849999D01*
X209833500Y-110821999D01*
X209837500Y-110793999D01*
X209839500Y-110760999D01*
X209838500Y-110733999D01*
X209836500Y-110705999D01*
X209833500Y-110678999D01*
X209828500Y-110651999D01*
X209821500Y-110624999D01*
X209813500Y-110598999D01*
X209804500Y-110572999D01*
X209794500Y-110546999D01*
X209782500Y-110522999D01*
X209769500Y-110498999D01*
X209754500Y-110474999D01*
X209739500Y-110451999D01*
X209722500Y-110430999D01*
X209704500Y-110409999D01*
X209685500Y-110389999D01*
X209665500Y-110370999D01*
X209644500Y-110352999D01*
X209623500Y-110335999D01*
X209600500Y-110320999D01*
X209577500Y-110305999D01*
X209552500Y-110292999D01*
X209528500Y-110280999D01*
X209502500Y-110270999D01*
X209476500Y-110261999D01*
X209450500Y-110253999D01*
X209423500Y-110246999D01*
X209396500Y-110241999D01*
X209369500Y-110238999D01*
X209341500Y-110236999D01*
X209314500Y-110235999D01*
X208914500Y-110235999D01*
X208914500Y-110535999D01*
G37*
X208914500Y-110535999D02*
X209314500Y-110535999D01*
X209326500Y-110535999D01*
X209338500Y-110536999D01*
X209349500Y-110538999D01*
X209361500Y-110540999D01*
X209372500Y-110543999D01*
X209384500Y-110546999D01*
X209395500Y-110550999D01*
X209406500Y-110554999D01*
X209416500Y-110560999D01*
X209427500Y-110565999D01*
X209437500Y-110571999D01*
X209446500Y-110578999D01*
X209456500Y-110585999D01*
X209465500Y-110593999D01*
X209473500Y-110601999D01*
X209481500Y-110609999D01*
X209489500Y-110618999D01*
X209496500Y-110628999D01*
X209503500Y-110637999D01*
X209509500Y-110647999D01*
X209514500Y-110658999D01*
X209520500Y-110668999D01*
X209524500Y-110679999D01*
X209528500Y-110690999D01*
X209531500Y-110702999D01*
X209534500Y-110713999D01*
X209536500Y-110725999D01*
X209538500Y-110736999D01*
X209539500Y-110748999D01*
X209539500Y-110760999D01*
X209539500Y-110772999D01*
X209538500Y-110784999D01*
X209536500Y-110795999D01*
X209534500Y-110807999D01*
X209531500Y-110818999D01*
X209528500Y-110830999D01*
X209524500Y-110841999D01*
X209520500Y-110852999D01*
X209514500Y-110862999D01*
X209509500Y-110872999D01*
X209503500Y-110883999D01*
X209496500Y-110892999D01*
X209489500Y-110902999D01*
X209481500Y-110911999D01*
X209473500Y-110919999D01*
X209465500Y-110927999D01*
X209456500Y-110935999D01*
X209446500Y-110942999D01*
X209437500Y-110949999D01*
X209426500Y-110955999D01*
X209416500Y-110960999D01*
X209406500Y-110966999D01*
X209395500Y-110970999D01*
X209384500Y-110974999D01*
X209372500Y-110977999D01*
X209361500Y-110980999D01*
X209349500Y-110982999D01*
X209338500Y-110984999D01*
X209326500Y-110985999D01*
X209314500Y-110985999D01*
X208914500Y-110985999D01*
X208914500Y-111285999D01*
X209264500Y-111285999D01*
X209289500Y-111286999D01*
X209318500Y-111285999D01*
X209347500Y-111283999D01*
X209375500Y-111279999D01*
X209403500Y-111274999D01*
X209431500Y-111267999D01*
X209459500Y-111259999D01*
X209486500Y-111249999D01*
X209513500Y-111238999D01*
X209539500Y-111226999D01*
X209564500Y-111212999D01*
X209589500Y-111197999D01*
X209613500Y-111180999D01*
X209635500Y-111163999D01*
X209657500Y-111144999D01*
X209678500Y-111124999D01*
X209698500Y-111103999D01*
X209717500Y-111081999D01*
X209734500Y-111059999D01*
X209751500Y-111035999D01*
X209766500Y-111010999D01*
X209780500Y-110985999D01*
X209792500Y-110959999D01*
X209803500Y-110932999D01*
X209813500Y-110905999D01*
X209821500Y-110877999D01*
X209828500Y-110849999D01*
X209833500Y-110821999D01*
X209837500Y-110793999D01*
X209839500Y-110760999D01*
X209838500Y-110733999D01*
X209836500Y-110705999D01*
X209833500Y-110678999D01*
X209828500Y-110651999D01*
X209821500Y-110624999D01*
X209813500Y-110598999D01*
X209804500Y-110572999D01*
X209794500Y-110546999D01*
X209782500Y-110522999D01*
X209769500Y-110498999D01*
X209754500Y-110474999D01*
X209739500Y-110451999D01*
X209722500Y-110430999D01*
X209704500Y-110409999D01*
X209685500Y-110389999D01*
X209665500Y-110370999D01*
X209644500Y-110352999D01*
X209623500Y-110335999D01*
X209600500Y-110320999D01*
X209577500Y-110305999D01*
X209552500Y-110292999D01*
X209528500Y-110280999D01*
X209502500Y-110270999D01*
X209476500Y-110261999D01*
X209450500Y-110253999D01*
X209423500Y-110246999D01*
X209396500Y-110241999D01*
X209369500Y-110238999D01*
X209341500Y-110236999D01*
X209314500Y-110235999D01*
X208914500Y-110235999D01*
X208914500Y-110535999D01*
G36*
X208914500Y-110985999D02*
G01*
X208514500Y-110985999D01*
X208502500Y-110985999D01*
X208490500Y-110984999D01*
X208479500Y-110982999D01*
X208467500Y-110980999D01*
X208456500Y-110977999D01*
X208444500Y-110974999D01*
X208433500Y-110970999D01*
X208422500Y-110966999D01*
X208412500Y-110960999D01*
X208402500Y-110955999D01*
X208391500Y-110949999D01*
X208382500Y-110942999D01*
X208372500Y-110935999D01*
X208363500Y-110927999D01*
X208355500Y-110919999D01*
X208347500Y-110911999D01*
X208339500Y-110902999D01*
X208332500Y-110892999D01*
X208325500Y-110883999D01*
X208319500Y-110872999D01*
X208314500Y-110862999D01*
X208308500Y-110852999D01*
X208304500Y-110841999D01*
X208300500Y-110830999D01*
X208297500Y-110818999D01*
X208294500Y-110807999D01*
X208292500Y-110795999D01*
X208290500Y-110784999D01*
X208289500Y-110772999D01*
X208289500Y-110760999D01*
X208289500Y-110748999D01*
X208290500Y-110736999D01*
X208292500Y-110725999D01*
X208294500Y-110713999D01*
X208297500Y-110702999D01*
X208300500Y-110690999D01*
X208304500Y-110679999D01*
X208308500Y-110668999D01*
X208314500Y-110658999D01*
X208319500Y-110647999D01*
X208325500Y-110637999D01*
X208332500Y-110628999D01*
X208339500Y-110618999D01*
X208347500Y-110609999D01*
X208355500Y-110601999D01*
X208363500Y-110593999D01*
X208372500Y-110585999D01*
X208382500Y-110578999D01*
X208391500Y-110571999D01*
X208401500Y-110565999D01*
X208412500Y-110560999D01*
X208422500Y-110554999D01*
X208433500Y-110550999D01*
X208444500Y-110546999D01*
X208456500Y-110543999D01*
X208467500Y-110540999D01*
X208479500Y-110538999D01*
X208490500Y-110536999D01*
X208502500Y-110535999D01*
X208514500Y-110535999D01*
X208914500Y-110535999D01*
X208914500Y-110235999D01*
X208564500Y-110235999D01*
X208539500Y-110234999D01*
X208510500Y-110235999D01*
X208481500Y-110237999D01*
X208453500Y-110241999D01*
X208425500Y-110246999D01*
X208397500Y-110253999D01*
X208369500Y-110261999D01*
X208342500Y-110271999D01*
X208315500Y-110282999D01*
X208289500Y-110294999D01*
X208264500Y-110308999D01*
X208239500Y-110323999D01*
X208215500Y-110340999D01*
X208193500Y-110357999D01*
X208171500Y-110376999D01*
X208150500Y-110396999D01*
X208130500Y-110417999D01*
X208111500Y-110439999D01*
X208094500Y-110461999D01*
X208077500Y-110485999D01*
X208062500Y-110510999D01*
X208048500Y-110535999D01*
X208036500Y-110561999D01*
X208025500Y-110588999D01*
X208015500Y-110615999D01*
X208007500Y-110643999D01*
X208000500Y-110671999D01*
X207995500Y-110699999D01*
X207991500Y-110727999D01*
X207989500Y-110760999D01*
X207990500Y-110787999D01*
X207992500Y-110815999D01*
X207995500Y-110842999D01*
X208000500Y-110869999D01*
X208007500Y-110896999D01*
X208015500Y-110922999D01*
X208024500Y-110948999D01*
X208034500Y-110974999D01*
X208046500Y-110998999D01*
X208059500Y-111022999D01*
X208074500Y-111046999D01*
X208089500Y-111069999D01*
X208106500Y-111090999D01*
X208124500Y-111111999D01*
X208143500Y-111131999D01*
X208163500Y-111150999D01*
X208184500Y-111168999D01*
X208205500Y-111185999D01*
X208228500Y-111200999D01*
X208252500Y-111215999D01*
X208276500Y-111228999D01*
X208300500Y-111240999D01*
X208326500Y-111250999D01*
X208352500Y-111259999D01*
X208378500Y-111267999D01*
X208405500Y-111274999D01*
X208432500Y-111279999D01*
X208459500Y-111282999D01*
X208487500Y-111284999D01*
X208514500Y-111285999D01*
X208914500Y-111285999D01*
X208914500Y-110985999D01*
G37*
X208914500Y-110985999D02*
X208514500Y-110985999D01*
X208502500Y-110985999D01*
X208490500Y-110984999D01*
X208479500Y-110982999D01*
X208467500Y-110980999D01*
X208456500Y-110977999D01*
X208444500Y-110974999D01*
X208433500Y-110970999D01*
X208422500Y-110966999D01*
X208412500Y-110960999D01*
X208402500Y-110955999D01*
X208391500Y-110949999D01*
X208382500Y-110942999D01*
X208372500Y-110935999D01*
X208363500Y-110927999D01*
X208355500Y-110919999D01*
X208347500Y-110911999D01*
X208339500Y-110902999D01*
X208332500Y-110892999D01*
X208325500Y-110883999D01*
X208319500Y-110872999D01*
X208314500Y-110862999D01*
X208308500Y-110852999D01*
X208304500Y-110841999D01*
X208300500Y-110830999D01*
X208297500Y-110818999D01*
X208294500Y-110807999D01*
X208292500Y-110795999D01*
X208290500Y-110784999D01*
X208289500Y-110772999D01*
X208289500Y-110760999D01*
X208289500Y-110748999D01*
X208290500Y-110736999D01*
X208292500Y-110725999D01*
X208294500Y-110713999D01*
X208297500Y-110702999D01*
X208300500Y-110690999D01*
X208304500Y-110679999D01*
X208308500Y-110668999D01*
X208314500Y-110658999D01*
X208319500Y-110647999D01*
X208325500Y-110637999D01*
X208332500Y-110628999D01*
X208339500Y-110618999D01*
X208347500Y-110609999D01*
X208355500Y-110601999D01*
X208363500Y-110593999D01*
X208372500Y-110585999D01*
X208382500Y-110578999D01*
X208391500Y-110571999D01*
X208401500Y-110565999D01*
X208412500Y-110560999D01*
X208422500Y-110554999D01*
X208433500Y-110550999D01*
X208444500Y-110546999D01*
X208456500Y-110543999D01*
X208467500Y-110540999D01*
X208479500Y-110538999D01*
X208490500Y-110536999D01*
X208502500Y-110535999D01*
X208514500Y-110535999D01*
X208914500Y-110535999D01*
X208914500Y-110235999D01*
X208564500Y-110235999D01*
X208539500Y-110234999D01*
X208510500Y-110235999D01*
X208481500Y-110237999D01*
X208453500Y-110241999D01*
X208425500Y-110246999D01*
X208397500Y-110253999D01*
X208369500Y-110261999D01*
X208342500Y-110271999D01*
X208315500Y-110282999D01*
X208289500Y-110294999D01*
X208264500Y-110308999D01*
X208239500Y-110323999D01*
X208215500Y-110340999D01*
X208193500Y-110357999D01*
X208171500Y-110376999D01*
X208150500Y-110396999D01*
X208130500Y-110417999D01*
X208111500Y-110439999D01*
X208094500Y-110461999D01*
X208077500Y-110485999D01*
X208062500Y-110510999D01*
X208048500Y-110535999D01*
X208036500Y-110561999D01*
X208025500Y-110588999D01*
X208015500Y-110615999D01*
X208007500Y-110643999D01*
X208000500Y-110671999D01*
X207995500Y-110699999D01*
X207991500Y-110727999D01*
X207989500Y-110760999D01*
X207990500Y-110787999D01*
X207992500Y-110815999D01*
X207995500Y-110842999D01*
X208000500Y-110869999D01*
X208007500Y-110896999D01*
X208015500Y-110922999D01*
X208024500Y-110948999D01*
X208034500Y-110974999D01*
X208046500Y-110998999D01*
X208059500Y-111022999D01*
X208074500Y-111046999D01*
X208089500Y-111069999D01*
X208106500Y-111090999D01*
X208124500Y-111111999D01*
X208143500Y-111131999D01*
X208163500Y-111150999D01*
X208184500Y-111168999D01*
X208205500Y-111185999D01*
X208228500Y-111200999D01*
X208252500Y-111215999D01*
X208276500Y-111228999D01*
X208300500Y-111240999D01*
X208326500Y-111250999D01*
X208352500Y-111259999D01*
X208378500Y-111267999D01*
X208405500Y-111274999D01*
X208432500Y-111279999D01*
X208459500Y-111282999D01*
X208487500Y-111284999D01*
X208514500Y-111285999D01*
X208914500Y-111285999D01*
X208914500Y-110985999D01*
G36*
X208914500Y-110534999D02*
G01*
X209314500Y-110534999D01*
X209326500Y-110534999D01*
X209338500Y-110535999D01*
X209349500Y-110537999D01*
X209361500Y-110539999D01*
X209372500Y-110542999D01*
X209384500Y-110545999D01*
X209395500Y-110549999D01*
X209406500Y-110553999D01*
X209416500Y-110559999D01*
X209426500Y-110564999D01*
X209437500Y-110570999D01*
X209446500Y-110577999D01*
X209456500Y-110584999D01*
X209465500Y-110592999D01*
X209473500Y-110600999D01*
X209481500Y-110608999D01*
X209489500Y-110617999D01*
X209496500Y-110627999D01*
X209503500Y-110636999D01*
X209509500Y-110646999D01*
X209514500Y-110657999D01*
X209520500Y-110667999D01*
X209524500Y-110678999D01*
X209528500Y-110689999D01*
X209531500Y-110701999D01*
X209534500Y-110712999D01*
X209536500Y-110724999D01*
X209538500Y-110735999D01*
X209539500Y-110747999D01*
X209539500Y-110759999D01*
X209539500Y-110771999D01*
X209538500Y-110783999D01*
X209536500Y-110794999D01*
X209534500Y-110806999D01*
X209531500Y-110817999D01*
X209528500Y-110829999D01*
X209524500Y-110840999D01*
X209520500Y-110851999D01*
X209514500Y-110861999D01*
X209509500Y-110872999D01*
X209503500Y-110882999D01*
X209496500Y-110891999D01*
X209489500Y-110901999D01*
X209481500Y-110910999D01*
X209473500Y-110918999D01*
X209465500Y-110926999D01*
X209456500Y-110934999D01*
X209446500Y-110941999D01*
X209437500Y-110948999D01*
X209426500Y-110954999D01*
X209416500Y-110959999D01*
X209406500Y-110965999D01*
X209395500Y-110969999D01*
X209384500Y-110973999D01*
X209372500Y-110976999D01*
X209361500Y-110979999D01*
X209349500Y-110981999D01*
X209338500Y-110983999D01*
X209326500Y-110984999D01*
X209314500Y-110984999D01*
X208914500Y-110984999D01*
X208914500Y-111284999D01*
X209269500Y-111284999D01*
X209301500Y-111284999D01*
X209330500Y-111283999D01*
X209358500Y-111280999D01*
X209387500Y-111276999D01*
X209415500Y-111270999D01*
X209443500Y-111263999D01*
X209470500Y-111255999D01*
X209497500Y-111245999D01*
X209523500Y-111233999D01*
X209549500Y-111220999D01*
X209574500Y-111206999D01*
X209598500Y-111191999D01*
X209621500Y-111174999D01*
X209644500Y-111156999D01*
X209665500Y-111137999D01*
X209686500Y-111117999D01*
X209705500Y-111096999D01*
X209723500Y-111074999D01*
X209740500Y-111051999D01*
X209756500Y-111027999D01*
X209771500Y-111002999D01*
X209784500Y-110977999D01*
X209796500Y-110951999D01*
X209806500Y-110924999D01*
X209816500Y-110897999D01*
X209823500Y-110869999D01*
X209829500Y-110841999D01*
X209834500Y-110813999D01*
X209837500Y-110784999D01*
X209839500Y-110759999D01*
X209838500Y-110732999D01*
X209836500Y-110704999D01*
X209833500Y-110677999D01*
X209828500Y-110650999D01*
X209821500Y-110623999D01*
X209813500Y-110597999D01*
X209804500Y-110571999D01*
X209794500Y-110545999D01*
X209782500Y-110521999D01*
X209769500Y-110497999D01*
X209754500Y-110473999D01*
X209739500Y-110450999D01*
X209722500Y-110429999D01*
X209704500Y-110408999D01*
X209685500Y-110388999D01*
X209665500Y-110369999D01*
X209644500Y-110351999D01*
X209623500Y-110334999D01*
X209600500Y-110319999D01*
X209577500Y-110304999D01*
X209552500Y-110291999D01*
X209528500Y-110279999D01*
X209502500Y-110269999D01*
X209476500Y-110260999D01*
X209450500Y-110252999D01*
X209423500Y-110245999D01*
X209396500Y-110240999D01*
X209369500Y-110237999D01*
X209341500Y-110235999D01*
X209314500Y-110234999D01*
X208914500Y-110234999D01*
X208914500Y-110534999D01*
G37*
X208914500Y-110534999D02*
X209314500Y-110534999D01*
X209326500Y-110534999D01*
X209338500Y-110535999D01*
X209349500Y-110537999D01*
X209361500Y-110539999D01*
X209372500Y-110542999D01*
X209384500Y-110545999D01*
X209395500Y-110549999D01*
X209406500Y-110553999D01*
X209416500Y-110559999D01*
X209426500Y-110564999D01*
X209437500Y-110570999D01*
X209446500Y-110577999D01*
X209456500Y-110584999D01*
X209465500Y-110592999D01*
X209473500Y-110600999D01*
X209481500Y-110608999D01*
X209489500Y-110617999D01*
X209496500Y-110627999D01*
X209503500Y-110636999D01*
X209509500Y-110646999D01*
X209514500Y-110657999D01*
X209520500Y-110667999D01*
X209524500Y-110678999D01*
X209528500Y-110689999D01*
X209531500Y-110701999D01*
X209534500Y-110712999D01*
X209536500Y-110724999D01*
X209538500Y-110735999D01*
X209539500Y-110747999D01*
X209539500Y-110759999D01*
X209539500Y-110771999D01*
X209538500Y-110783999D01*
X209536500Y-110794999D01*
X209534500Y-110806999D01*
X209531500Y-110817999D01*
X209528500Y-110829999D01*
X209524500Y-110840999D01*
X209520500Y-110851999D01*
X209514500Y-110861999D01*
X209509500Y-110872999D01*
X209503500Y-110882999D01*
X209496500Y-110891999D01*
X209489500Y-110901999D01*
X209481500Y-110910999D01*
X209473500Y-110918999D01*
X209465500Y-110926999D01*
X209456500Y-110934999D01*
X209446500Y-110941999D01*
X209437500Y-110948999D01*
X209426500Y-110954999D01*
X209416500Y-110959999D01*
X209406500Y-110965999D01*
X209395500Y-110969999D01*
X209384500Y-110973999D01*
X209372500Y-110976999D01*
X209361500Y-110979999D01*
X209349500Y-110981999D01*
X209338500Y-110983999D01*
X209326500Y-110984999D01*
X209314500Y-110984999D01*
X208914500Y-110984999D01*
X208914500Y-111284999D01*
X209269500Y-111284999D01*
X209301500Y-111284999D01*
X209330500Y-111283999D01*
X209358500Y-111280999D01*
X209387500Y-111276999D01*
X209415500Y-111270999D01*
X209443500Y-111263999D01*
X209470500Y-111255999D01*
X209497500Y-111245999D01*
X209523500Y-111233999D01*
X209549500Y-111220999D01*
X209574500Y-111206999D01*
X209598500Y-111191999D01*
X209621500Y-111174999D01*
X209644500Y-111156999D01*
X209665500Y-111137999D01*
X209686500Y-111117999D01*
X209705500Y-111096999D01*
X209723500Y-111074999D01*
X209740500Y-111051999D01*
X209756500Y-111027999D01*
X209771500Y-111002999D01*
X209784500Y-110977999D01*
X209796500Y-110951999D01*
X209806500Y-110924999D01*
X209816500Y-110897999D01*
X209823500Y-110869999D01*
X209829500Y-110841999D01*
X209834500Y-110813999D01*
X209837500Y-110784999D01*
X209839500Y-110759999D01*
X209838500Y-110732999D01*
X209836500Y-110704999D01*
X209833500Y-110677999D01*
X209828500Y-110650999D01*
X209821500Y-110623999D01*
X209813500Y-110597999D01*
X209804500Y-110571999D01*
X209794500Y-110545999D01*
X209782500Y-110521999D01*
X209769500Y-110497999D01*
X209754500Y-110473999D01*
X209739500Y-110450999D01*
X209722500Y-110429999D01*
X209704500Y-110408999D01*
X209685500Y-110388999D01*
X209665500Y-110369999D01*
X209644500Y-110351999D01*
X209623500Y-110334999D01*
X209600500Y-110319999D01*
X209577500Y-110304999D01*
X209552500Y-110291999D01*
X209528500Y-110279999D01*
X209502500Y-110269999D01*
X209476500Y-110260999D01*
X209450500Y-110252999D01*
X209423500Y-110245999D01*
X209396500Y-110240999D01*
X209369500Y-110237999D01*
X209341500Y-110235999D01*
X209314500Y-110234999D01*
X208914500Y-110234999D01*
X208914500Y-110534999D01*
G36*
X208914500Y-110984999D02*
G01*
X208514500Y-110984999D01*
X208502500Y-110984999D01*
X208490500Y-110983999D01*
X208479500Y-110981999D01*
X208467500Y-110979999D01*
X208456500Y-110976999D01*
X208444500Y-110973999D01*
X208433500Y-110969999D01*
X208422500Y-110965999D01*
X208412500Y-110959999D01*
X208402500Y-110954999D01*
X208391500Y-110948999D01*
X208382500Y-110941999D01*
X208372500Y-110934999D01*
X208363500Y-110926999D01*
X208355500Y-110918999D01*
X208347500Y-110910999D01*
X208339500Y-110901999D01*
X208332500Y-110891999D01*
X208325500Y-110882999D01*
X208319500Y-110872999D01*
X208314500Y-110861999D01*
X208308500Y-110851999D01*
X208304500Y-110840999D01*
X208300500Y-110829999D01*
X208297500Y-110817999D01*
X208294500Y-110806999D01*
X208292500Y-110794999D01*
X208290500Y-110783999D01*
X208289500Y-110771999D01*
X208289500Y-110759999D01*
X208289500Y-110747999D01*
X208290500Y-110735999D01*
X208292500Y-110724999D01*
X208294500Y-110712999D01*
X208297500Y-110701999D01*
X208300500Y-110689999D01*
X208304500Y-110678999D01*
X208308500Y-110667999D01*
X208314500Y-110657999D01*
X208319500Y-110646999D01*
X208325500Y-110636999D01*
X208332500Y-110627999D01*
X208339500Y-110617999D01*
X208347500Y-110608999D01*
X208355500Y-110600999D01*
X208363500Y-110592999D01*
X208372500Y-110584999D01*
X208382500Y-110577999D01*
X208391500Y-110570999D01*
X208402500Y-110564999D01*
X208412500Y-110559999D01*
X208422500Y-110553999D01*
X208433500Y-110549999D01*
X208444500Y-110545999D01*
X208456500Y-110542999D01*
X208467500Y-110539999D01*
X208479500Y-110537999D01*
X208490500Y-110535999D01*
X208502500Y-110534999D01*
X208514500Y-110534999D01*
X208914500Y-110534999D01*
X208914500Y-110234999D01*
X208559500Y-110234999D01*
X208527500Y-110234999D01*
X208498500Y-110235999D01*
X208470500Y-110238999D01*
X208441500Y-110242999D01*
X208413500Y-110248999D01*
X208385500Y-110255999D01*
X208358500Y-110263999D01*
X208331500Y-110273999D01*
X208305500Y-110285999D01*
X208279500Y-110298999D01*
X208254500Y-110312999D01*
X208230500Y-110327999D01*
X208207500Y-110344999D01*
X208184500Y-110362999D01*
X208163500Y-110381999D01*
X208142500Y-110401999D01*
X208123500Y-110422999D01*
X208105500Y-110444999D01*
X208088500Y-110467999D01*
X208072500Y-110491999D01*
X208057500Y-110516999D01*
X208044500Y-110541999D01*
X208032500Y-110567999D01*
X208022500Y-110594999D01*
X208012500Y-110621999D01*
X208005500Y-110649999D01*
X207999500Y-110677999D01*
X207994500Y-110705999D01*
X207991500Y-110734999D01*
X207989500Y-110759999D01*
X207990500Y-110786999D01*
X207992500Y-110814999D01*
X207995500Y-110841999D01*
X208000500Y-110868999D01*
X208007500Y-110895999D01*
X208015500Y-110921999D01*
X208024500Y-110947999D01*
X208034500Y-110973999D01*
X208046500Y-110997999D01*
X208059500Y-111021999D01*
X208074500Y-111045999D01*
X208089500Y-111068999D01*
X208106500Y-111089999D01*
X208124500Y-111110999D01*
X208143500Y-111130999D01*
X208163500Y-111149999D01*
X208184500Y-111167999D01*
X208205500Y-111184999D01*
X208228500Y-111199999D01*
X208251500Y-111214999D01*
X208276500Y-111227999D01*
X208300500Y-111239999D01*
X208326500Y-111249999D01*
X208352500Y-111258999D01*
X208378500Y-111266999D01*
X208405500Y-111273999D01*
X208432500Y-111278999D01*
X208459500Y-111281999D01*
X208487500Y-111283999D01*
X208514500Y-111284999D01*
X208914500Y-111284999D01*
X208914500Y-110984999D01*
G37*
X208914500Y-110984999D02*
X208514500Y-110984999D01*
X208502500Y-110984999D01*
X208490500Y-110983999D01*
X208479500Y-110981999D01*
X208467500Y-110979999D01*
X208456500Y-110976999D01*
X208444500Y-110973999D01*
X208433500Y-110969999D01*
X208422500Y-110965999D01*
X208412500Y-110959999D01*
X208402500Y-110954999D01*
X208391500Y-110948999D01*
X208382500Y-110941999D01*
X208372500Y-110934999D01*
X208363500Y-110926999D01*
X208355500Y-110918999D01*
X208347500Y-110910999D01*
X208339500Y-110901999D01*
X208332500Y-110891999D01*
X208325500Y-110882999D01*
X208319500Y-110872999D01*
X208314500Y-110861999D01*
X208308500Y-110851999D01*
X208304500Y-110840999D01*
X208300500Y-110829999D01*
X208297500Y-110817999D01*
X208294500Y-110806999D01*
X208292500Y-110794999D01*
X208290500Y-110783999D01*
X208289500Y-110771999D01*
X208289500Y-110759999D01*
X208289500Y-110747999D01*
X208290500Y-110735999D01*
X208292500Y-110724999D01*
X208294500Y-110712999D01*
X208297500Y-110701999D01*
X208300500Y-110689999D01*
X208304500Y-110678999D01*
X208308500Y-110667999D01*
X208314500Y-110657999D01*
X208319500Y-110646999D01*
X208325500Y-110636999D01*
X208332500Y-110627999D01*
X208339500Y-110617999D01*
X208347500Y-110608999D01*
X208355500Y-110600999D01*
X208363500Y-110592999D01*
X208372500Y-110584999D01*
X208382500Y-110577999D01*
X208391500Y-110570999D01*
X208402500Y-110564999D01*
X208412500Y-110559999D01*
X208422500Y-110553999D01*
X208433500Y-110549999D01*
X208444500Y-110545999D01*
X208456500Y-110542999D01*
X208467500Y-110539999D01*
X208479500Y-110537999D01*
X208490500Y-110535999D01*
X208502500Y-110534999D01*
X208514500Y-110534999D01*
X208914500Y-110534999D01*
X208914500Y-110234999D01*
X208559500Y-110234999D01*
X208527500Y-110234999D01*
X208498500Y-110235999D01*
X208470500Y-110238999D01*
X208441500Y-110242999D01*
X208413500Y-110248999D01*
X208385500Y-110255999D01*
X208358500Y-110263999D01*
X208331500Y-110273999D01*
X208305500Y-110285999D01*
X208279500Y-110298999D01*
X208254500Y-110312999D01*
X208230500Y-110327999D01*
X208207500Y-110344999D01*
X208184500Y-110362999D01*
X208163500Y-110381999D01*
X208142500Y-110401999D01*
X208123500Y-110422999D01*
X208105500Y-110444999D01*
X208088500Y-110467999D01*
X208072500Y-110491999D01*
X208057500Y-110516999D01*
X208044500Y-110541999D01*
X208032500Y-110567999D01*
X208022500Y-110594999D01*
X208012500Y-110621999D01*
X208005500Y-110649999D01*
X207999500Y-110677999D01*
X207994500Y-110705999D01*
X207991500Y-110734999D01*
X207989500Y-110759999D01*
X207990500Y-110786999D01*
X207992500Y-110814999D01*
X207995500Y-110841999D01*
X208000500Y-110868999D01*
X208007500Y-110895999D01*
X208015500Y-110921999D01*
X208024500Y-110947999D01*
X208034500Y-110973999D01*
X208046500Y-110997999D01*
X208059500Y-111021999D01*
X208074500Y-111045999D01*
X208089500Y-111068999D01*
X208106500Y-111089999D01*
X208124500Y-111110999D01*
X208143500Y-111130999D01*
X208163500Y-111149999D01*
X208184500Y-111167999D01*
X208205500Y-111184999D01*
X208228500Y-111199999D01*
X208251500Y-111214999D01*
X208276500Y-111227999D01*
X208300500Y-111239999D01*
X208326500Y-111249999D01*
X208352500Y-111258999D01*
X208378500Y-111266999D01*
X208405500Y-111273999D01*
X208432500Y-111278999D01*
X208459500Y-111281999D01*
X208487500Y-111283999D01*
X208514500Y-111284999D01*
X208914500Y-111284999D01*
X208914500Y-110984999D01*
G36*
X208914500Y-117685999D02*
G01*
X209314500Y-117685999D01*
X209326500Y-117685999D01*
X209338500Y-117686999D01*
X209349500Y-117688999D01*
X209361500Y-117690999D01*
X209372500Y-117693999D01*
X209384500Y-117696999D01*
X209395500Y-117700999D01*
X209406500Y-117704999D01*
X209416500Y-117710999D01*
X209426500Y-117715999D01*
X209437500Y-117721999D01*
X209446500Y-117728999D01*
X209456500Y-117735999D01*
X209465500Y-117743999D01*
X209473500Y-117751999D01*
X209481500Y-117759999D01*
X209489500Y-117768999D01*
X209496500Y-117778999D01*
X209503500Y-117787999D01*
X209509500Y-117798999D01*
X209514500Y-117808999D01*
X209520500Y-117818999D01*
X209524500Y-117829999D01*
X209528500Y-117840999D01*
X209531500Y-117852999D01*
X209534500Y-117863999D01*
X209536500Y-117875999D01*
X209538500Y-117886999D01*
X209539500Y-117898999D01*
X209539500Y-117910999D01*
X209539500Y-117922999D01*
X209538500Y-117934999D01*
X209536500Y-117945999D01*
X209534500Y-117957999D01*
X209531500Y-117968999D01*
X209528500Y-117980999D01*
X209524500Y-117991999D01*
X209520500Y-118002999D01*
X209514500Y-118012999D01*
X209509500Y-118023999D01*
X209503500Y-118033999D01*
X209496500Y-118042999D01*
X209489500Y-118052999D01*
X209481500Y-118061999D01*
X209473500Y-118069999D01*
X209465500Y-118077999D01*
X209456500Y-118085999D01*
X209446500Y-118092999D01*
X209437500Y-118099999D01*
X209427500Y-118105999D01*
X209416500Y-118110999D01*
X209406500Y-118116999D01*
X209395500Y-118120999D01*
X209384500Y-118124999D01*
X209372500Y-118127999D01*
X209361500Y-118130999D01*
X209349500Y-118132999D01*
X209338500Y-118134999D01*
X209326500Y-118135999D01*
X209314500Y-118135999D01*
X208914500Y-118135999D01*
X208914500Y-118435999D01*
X209264500Y-118435999D01*
X209289500Y-118436999D01*
X209318500Y-118435999D01*
X209347500Y-118433999D01*
X209375500Y-118429999D01*
X209403500Y-118424999D01*
X209431500Y-118417999D01*
X209459500Y-118409999D01*
X209486500Y-118399999D01*
X209513500Y-118388999D01*
X209539500Y-118376999D01*
X209564500Y-118362999D01*
X209589500Y-118347999D01*
X209613500Y-118330999D01*
X209635500Y-118313999D01*
X209657500Y-118294999D01*
X209678500Y-118274999D01*
X209698500Y-118253999D01*
X209717500Y-118231999D01*
X209734500Y-118209999D01*
X209751500Y-118185999D01*
X209766500Y-118160999D01*
X209780500Y-118135999D01*
X209792500Y-118109999D01*
X209803500Y-118082999D01*
X209813500Y-118055999D01*
X209821500Y-118027999D01*
X209828500Y-117999999D01*
X209833500Y-117971999D01*
X209837500Y-117943999D01*
X209839500Y-117910999D01*
X209838500Y-117883999D01*
X209836500Y-117855999D01*
X209833500Y-117828999D01*
X209828500Y-117801999D01*
X209821500Y-117774999D01*
X209813500Y-117748999D01*
X209804500Y-117722999D01*
X209794500Y-117696999D01*
X209782500Y-117672999D01*
X209769500Y-117648999D01*
X209754500Y-117624999D01*
X209739500Y-117601999D01*
X209722500Y-117580999D01*
X209704500Y-117559999D01*
X209685500Y-117539999D01*
X209665500Y-117520999D01*
X209644500Y-117502999D01*
X209623500Y-117485999D01*
X209600500Y-117470999D01*
X209576500Y-117455999D01*
X209552500Y-117442999D01*
X209528500Y-117430999D01*
X209502500Y-117420999D01*
X209476500Y-117411999D01*
X209450500Y-117403999D01*
X209423500Y-117396999D01*
X209396500Y-117391999D01*
X209369500Y-117388999D01*
X209341500Y-117386999D01*
X209314500Y-117385999D01*
X208914500Y-117385999D01*
X208914500Y-117685999D01*
G37*
X208914500Y-117685999D02*
X209314500Y-117685999D01*
X209326500Y-117685999D01*
X209338500Y-117686999D01*
X209349500Y-117688999D01*
X209361500Y-117690999D01*
X209372500Y-117693999D01*
X209384500Y-117696999D01*
X209395500Y-117700999D01*
X209406500Y-117704999D01*
X209416500Y-117710999D01*
X209426500Y-117715999D01*
X209437500Y-117721999D01*
X209446500Y-117728999D01*
X209456500Y-117735999D01*
X209465500Y-117743999D01*
X209473500Y-117751999D01*
X209481500Y-117759999D01*
X209489500Y-117768999D01*
X209496500Y-117778999D01*
X209503500Y-117787999D01*
X209509500Y-117798999D01*
X209514500Y-117808999D01*
X209520500Y-117818999D01*
X209524500Y-117829999D01*
X209528500Y-117840999D01*
X209531500Y-117852999D01*
X209534500Y-117863999D01*
X209536500Y-117875999D01*
X209538500Y-117886999D01*
X209539500Y-117898999D01*
X209539500Y-117910999D01*
X209539500Y-117922999D01*
X209538500Y-117934999D01*
X209536500Y-117945999D01*
X209534500Y-117957999D01*
X209531500Y-117968999D01*
X209528500Y-117980999D01*
X209524500Y-117991999D01*
X209520500Y-118002999D01*
X209514500Y-118012999D01*
X209509500Y-118023999D01*
X209503500Y-118033999D01*
X209496500Y-118042999D01*
X209489500Y-118052999D01*
X209481500Y-118061999D01*
X209473500Y-118069999D01*
X209465500Y-118077999D01*
X209456500Y-118085999D01*
X209446500Y-118092999D01*
X209437500Y-118099999D01*
X209427500Y-118105999D01*
X209416500Y-118110999D01*
X209406500Y-118116999D01*
X209395500Y-118120999D01*
X209384500Y-118124999D01*
X209372500Y-118127999D01*
X209361500Y-118130999D01*
X209349500Y-118132999D01*
X209338500Y-118134999D01*
X209326500Y-118135999D01*
X209314500Y-118135999D01*
X208914500Y-118135999D01*
X208914500Y-118435999D01*
X209264500Y-118435999D01*
X209289500Y-118436999D01*
X209318500Y-118435999D01*
X209347500Y-118433999D01*
X209375500Y-118429999D01*
X209403500Y-118424999D01*
X209431500Y-118417999D01*
X209459500Y-118409999D01*
X209486500Y-118399999D01*
X209513500Y-118388999D01*
X209539500Y-118376999D01*
X209564500Y-118362999D01*
X209589500Y-118347999D01*
X209613500Y-118330999D01*
X209635500Y-118313999D01*
X209657500Y-118294999D01*
X209678500Y-118274999D01*
X209698500Y-118253999D01*
X209717500Y-118231999D01*
X209734500Y-118209999D01*
X209751500Y-118185999D01*
X209766500Y-118160999D01*
X209780500Y-118135999D01*
X209792500Y-118109999D01*
X209803500Y-118082999D01*
X209813500Y-118055999D01*
X209821500Y-118027999D01*
X209828500Y-117999999D01*
X209833500Y-117971999D01*
X209837500Y-117943999D01*
X209839500Y-117910999D01*
X209838500Y-117883999D01*
X209836500Y-117855999D01*
X209833500Y-117828999D01*
X209828500Y-117801999D01*
X209821500Y-117774999D01*
X209813500Y-117748999D01*
X209804500Y-117722999D01*
X209794500Y-117696999D01*
X209782500Y-117672999D01*
X209769500Y-117648999D01*
X209754500Y-117624999D01*
X209739500Y-117601999D01*
X209722500Y-117580999D01*
X209704500Y-117559999D01*
X209685500Y-117539999D01*
X209665500Y-117520999D01*
X209644500Y-117502999D01*
X209623500Y-117485999D01*
X209600500Y-117470999D01*
X209576500Y-117455999D01*
X209552500Y-117442999D01*
X209528500Y-117430999D01*
X209502500Y-117420999D01*
X209476500Y-117411999D01*
X209450500Y-117403999D01*
X209423500Y-117396999D01*
X209396500Y-117391999D01*
X209369500Y-117388999D01*
X209341500Y-117386999D01*
X209314500Y-117385999D01*
X208914500Y-117385999D01*
X208914500Y-117685999D01*
G36*
X208914500Y-118135999D02*
G01*
X208514500Y-118135999D01*
X208502500Y-118135999D01*
X208490500Y-118134999D01*
X208479500Y-118132999D01*
X208467500Y-118130999D01*
X208456500Y-118127999D01*
X208444500Y-118124999D01*
X208433500Y-118120999D01*
X208422500Y-118116999D01*
X208412500Y-118110999D01*
X208401500Y-118105999D01*
X208391500Y-118099999D01*
X208382500Y-118092999D01*
X208372500Y-118085999D01*
X208363500Y-118077999D01*
X208355500Y-118069999D01*
X208347500Y-118061999D01*
X208339500Y-118052999D01*
X208332500Y-118042999D01*
X208325500Y-118033999D01*
X208319500Y-118023999D01*
X208314500Y-118012999D01*
X208308500Y-118002999D01*
X208304500Y-117991999D01*
X208300500Y-117980999D01*
X208297500Y-117968999D01*
X208294500Y-117957999D01*
X208292500Y-117945999D01*
X208290500Y-117934999D01*
X208289500Y-117922999D01*
X208289500Y-117910999D01*
X208289500Y-117898999D01*
X208290500Y-117886999D01*
X208292500Y-117875999D01*
X208294500Y-117863999D01*
X208297500Y-117852999D01*
X208300500Y-117840999D01*
X208304500Y-117829999D01*
X208308500Y-117818999D01*
X208314500Y-117808999D01*
X208319500Y-117798999D01*
X208325500Y-117787999D01*
X208332500Y-117778999D01*
X208339500Y-117768999D01*
X208347500Y-117759999D01*
X208355500Y-117751999D01*
X208363500Y-117743999D01*
X208372500Y-117735999D01*
X208382500Y-117728999D01*
X208391500Y-117721999D01*
X208402500Y-117715999D01*
X208412500Y-117710999D01*
X208422500Y-117704999D01*
X208433500Y-117700999D01*
X208444500Y-117696999D01*
X208456500Y-117693999D01*
X208467500Y-117690999D01*
X208479500Y-117688999D01*
X208490500Y-117686999D01*
X208502500Y-117685999D01*
X208514500Y-117685999D01*
X208914500Y-117685999D01*
X208914500Y-117385999D01*
X208564500Y-117385999D01*
X208539500Y-117384999D01*
X208510500Y-117385999D01*
X208481500Y-117387999D01*
X208453500Y-117391999D01*
X208425500Y-117396999D01*
X208397500Y-117403999D01*
X208369500Y-117411999D01*
X208342500Y-117421999D01*
X208315500Y-117432999D01*
X208289500Y-117444999D01*
X208264500Y-117458999D01*
X208239500Y-117473999D01*
X208215500Y-117490999D01*
X208193500Y-117507999D01*
X208171500Y-117526999D01*
X208150500Y-117546999D01*
X208130500Y-117567999D01*
X208111500Y-117589999D01*
X208094500Y-117611999D01*
X208077500Y-117635999D01*
X208062500Y-117660999D01*
X208048500Y-117685999D01*
X208036500Y-117711999D01*
X208025500Y-117738999D01*
X208015500Y-117765999D01*
X208007500Y-117793999D01*
X208000500Y-117821999D01*
X207995500Y-117849999D01*
X207991500Y-117877999D01*
X207989500Y-117910999D01*
X207990500Y-117937999D01*
X207992500Y-117965999D01*
X207995500Y-117992999D01*
X208000500Y-118019999D01*
X208007500Y-118046999D01*
X208015500Y-118072999D01*
X208024500Y-118098999D01*
X208034500Y-118124999D01*
X208046500Y-118148999D01*
X208059500Y-118172999D01*
X208074500Y-118196999D01*
X208089500Y-118219999D01*
X208106500Y-118240999D01*
X208124500Y-118261999D01*
X208143500Y-118281999D01*
X208163500Y-118300999D01*
X208184500Y-118318999D01*
X208205500Y-118335999D01*
X208228500Y-118350999D01*
X208251500Y-118365999D01*
X208276500Y-118378999D01*
X208300500Y-118390999D01*
X208326500Y-118400999D01*
X208352500Y-118409999D01*
X208378500Y-118417999D01*
X208405500Y-118424999D01*
X208432500Y-118429999D01*
X208459500Y-118432999D01*
X208487500Y-118434999D01*
X208514500Y-118435999D01*
X208914500Y-118435999D01*
X208914500Y-118135999D01*
G37*
X208914500Y-118135999D02*
X208514500Y-118135999D01*
X208502500Y-118135999D01*
X208490500Y-118134999D01*
X208479500Y-118132999D01*
X208467500Y-118130999D01*
X208456500Y-118127999D01*
X208444500Y-118124999D01*
X208433500Y-118120999D01*
X208422500Y-118116999D01*
X208412500Y-118110999D01*
X208401500Y-118105999D01*
X208391500Y-118099999D01*
X208382500Y-118092999D01*
X208372500Y-118085999D01*
X208363500Y-118077999D01*
X208355500Y-118069999D01*
X208347500Y-118061999D01*
X208339500Y-118052999D01*
X208332500Y-118042999D01*
X208325500Y-118033999D01*
X208319500Y-118023999D01*
X208314500Y-118012999D01*
X208308500Y-118002999D01*
X208304500Y-117991999D01*
X208300500Y-117980999D01*
X208297500Y-117968999D01*
X208294500Y-117957999D01*
X208292500Y-117945999D01*
X208290500Y-117934999D01*
X208289500Y-117922999D01*
X208289500Y-117910999D01*
X208289500Y-117898999D01*
X208290500Y-117886999D01*
X208292500Y-117875999D01*
X208294500Y-117863999D01*
X208297500Y-117852999D01*
X208300500Y-117840999D01*
X208304500Y-117829999D01*
X208308500Y-117818999D01*
X208314500Y-117808999D01*
X208319500Y-117798999D01*
X208325500Y-117787999D01*
X208332500Y-117778999D01*
X208339500Y-117768999D01*
X208347500Y-117759999D01*
X208355500Y-117751999D01*
X208363500Y-117743999D01*
X208372500Y-117735999D01*
X208382500Y-117728999D01*
X208391500Y-117721999D01*
X208402500Y-117715999D01*
X208412500Y-117710999D01*
X208422500Y-117704999D01*
X208433500Y-117700999D01*
X208444500Y-117696999D01*
X208456500Y-117693999D01*
X208467500Y-117690999D01*
X208479500Y-117688999D01*
X208490500Y-117686999D01*
X208502500Y-117685999D01*
X208514500Y-117685999D01*
X208914500Y-117685999D01*
X208914500Y-117385999D01*
X208564500Y-117385999D01*
X208539500Y-117384999D01*
X208510500Y-117385999D01*
X208481500Y-117387999D01*
X208453500Y-117391999D01*
X208425500Y-117396999D01*
X208397500Y-117403999D01*
X208369500Y-117411999D01*
X208342500Y-117421999D01*
X208315500Y-117432999D01*
X208289500Y-117444999D01*
X208264500Y-117458999D01*
X208239500Y-117473999D01*
X208215500Y-117490999D01*
X208193500Y-117507999D01*
X208171500Y-117526999D01*
X208150500Y-117546999D01*
X208130500Y-117567999D01*
X208111500Y-117589999D01*
X208094500Y-117611999D01*
X208077500Y-117635999D01*
X208062500Y-117660999D01*
X208048500Y-117685999D01*
X208036500Y-117711999D01*
X208025500Y-117738999D01*
X208015500Y-117765999D01*
X208007500Y-117793999D01*
X208000500Y-117821999D01*
X207995500Y-117849999D01*
X207991500Y-117877999D01*
X207989500Y-117910999D01*
X207990500Y-117937999D01*
X207992500Y-117965999D01*
X207995500Y-117992999D01*
X208000500Y-118019999D01*
X208007500Y-118046999D01*
X208015500Y-118072999D01*
X208024500Y-118098999D01*
X208034500Y-118124999D01*
X208046500Y-118148999D01*
X208059500Y-118172999D01*
X208074500Y-118196999D01*
X208089500Y-118219999D01*
X208106500Y-118240999D01*
X208124500Y-118261999D01*
X208143500Y-118281999D01*
X208163500Y-118300999D01*
X208184500Y-118318999D01*
X208205500Y-118335999D01*
X208228500Y-118350999D01*
X208251500Y-118365999D01*
X208276500Y-118378999D01*
X208300500Y-118390999D01*
X208326500Y-118400999D01*
X208352500Y-118409999D01*
X208378500Y-118417999D01*
X208405500Y-118424999D01*
X208432500Y-118429999D01*
X208459500Y-118432999D01*
X208487500Y-118434999D01*
X208514500Y-118435999D01*
X208914500Y-118435999D01*
X208914500Y-118135999D01*
G36*
X208914500Y-117684999D02*
G01*
X209314500Y-117684999D01*
X209326500Y-117684999D01*
X209338500Y-117685999D01*
X209349500Y-117687999D01*
X209361500Y-117689999D01*
X209372500Y-117692999D01*
X209384500Y-117695999D01*
X209395500Y-117699999D01*
X209406500Y-117703999D01*
X209416500Y-117709999D01*
X209427500Y-117714999D01*
X209437500Y-117720999D01*
X209446500Y-117727999D01*
X209456500Y-117734999D01*
X209465500Y-117742999D01*
X209473500Y-117750999D01*
X209481500Y-117758999D01*
X209489500Y-117767999D01*
X209496500Y-117777999D01*
X209503500Y-117786999D01*
X209509500Y-117797999D01*
X209514500Y-117807999D01*
X209520500Y-117817999D01*
X209524500Y-117828999D01*
X209528500Y-117839999D01*
X209531500Y-117851999D01*
X209534500Y-117862999D01*
X209536500Y-117874999D01*
X209538500Y-117885999D01*
X209539500Y-117897999D01*
X209539500Y-117909999D01*
X209539500Y-117921999D01*
X209538500Y-117933999D01*
X209536500Y-117944999D01*
X209534500Y-117956999D01*
X209531500Y-117967999D01*
X209528500Y-117979999D01*
X209524500Y-117990999D01*
X209520500Y-118001999D01*
X209514500Y-118011999D01*
X209509500Y-118021999D01*
X209503500Y-118032999D01*
X209496500Y-118041999D01*
X209489500Y-118051999D01*
X209481500Y-118060999D01*
X209473500Y-118068999D01*
X209465500Y-118076999D01*
X209456500Y-118084999D01*
X209446500Y-118091999D01*
X209437500Y-118098999D01*
X209426500Y-118104999D01*
X209416500Y-118109999D01*
X209406500Y-118115999D01*
X209395500Y-118119999D01*
X209384500Y-118123999D01*
X209372500Y-118126999D01*
X209361500Y-118129999D01*
X209349500Y-118131999D01*
X209338500Y-118133999D01*
X209326500Y-118134999D01*
X209314500Y-118134999D01*
X208914500Y-118134999D01*
X208914500Y-118434999D01*
X209269500Y-118434999D01*
X209301500Y-118434999D01*
X209330500Y-118433999D01*
X209358500Y-118430999D01*
X209387500Y-118426999D01*
X209415500Y-118420999D01*
X209443500Y-118413999D01*
X209470500Y-118405999D01*
X209497500Y-118395999D01*
X209523500Y-118383999D01*
X209549500Y-118370999D01*
X209574500Y-118356999D01*
X209598500Y-118341999D01*
X209621500Y-118324999D01*
X209644500Y-118306999D01*
X209665500Y-118287999D01*
X209686500Y-118267999D01*
X209705500Y-118246999D01*
X209723500Y-118224999D01*
X209740500Y-118201999D01*
X209756500Y-118177999D01*
X209771500Y-118152999D01*
X209784500Y-118127999D01*
X209796500Y-118101999D01*
X209806500Y-118074999D01*
X209816500Y-118047999D01*
X209823500Y-118019999D01*
X209829500Y-117991999D01*
X209834500Y-117963999D01*
X209837500Y-117934999D01*
X209839500Y-117909999D01*
X209838500Y-117882999D01*
X209836500Y-117854999D01*
X209833500Y-117827999D01*
X209828500Y-117800999D01*
X209821500Y-117773999D01*
X209813500Y-117747999D01*
X209804500Y-117721999D01*
X209794500Y-117695999D01*
X209782500Y-117671999D01*
X209769500Y-117646999D01*
X209754500Y-117623999D01*
X209739500Y-117600999D01*
X209722500Y-117579999D01*
X209704500Y-117558999D01*
X209685500Y-117538999D01*
X209665500Y-117519999D01*
X209644500Y-117501999D01*
X209623500Y-117484999D01*
X209600500Y-117469999D01*
X209577500Y-117454999D01*
X209552500Y-117441999D01*
X209528500Y-117429999D01*
X209502500Y-117419999D01*
X209476500Y-117410999D01*
X209450500Y-117402999D01*
X209423500Y-117395999D01*
X209396500Y-117390999D01*
X209369500Y-117387999D01*
X209341500Y-117385999D01*
X209314500Y-117384999D01*
X208914500Y-117384999D01*
X208914500Y-117684999D01*
G37*
X208914500Y-117684999D02*
X209314500Y-117684999D01*
X209326500Y-117684999D01*
X209338500Y-117685999D01*
X209349500Y-117687999D01*
X209361500Y-117689999D01*
X209372500Y-117692999D01*
X209384500Y-117695999D01*
X209395500Y-117699999D01*
X209406500Y-117703999D01*
X209416500Y-117709999D01*
X209427500Y-117714999D01*
X209437500Y-117720999D01*
X209446500Y-117727999D01*
X209456500Y-117734999D01*
X209465500Y-117742999D01*
X209473500Y-117750999D01*
X209481500Y-117758999D01*
X209489500Y-117767999D01*
X209496500Y-117777999D01*
X209503500Y-117786999D01*
X209509500Y-117797999D01*
X209514500Y-117807999D01*
X209520500Y-117817999D01*
X209524500Y-117828999D01*
X209528500Y-117839999D01*
X209531500Y-117851999D01*
X209534500Y-117862999D01*
X209536500Y-117874999D01*
X209538500Y-117885999D01*
X209539500Y-117897999D01*
X209539500Y-117909999D01*
X209539500Y-117921999D01*
X209538500Y-117933999D01*
X209536500Y-117944999D01*
X209534500Y-117956999D01*
X209531500Y-117967999D01*
X209528500Y-117979999D01*
X209524500Y-117990999D01*
X209520500Y-118001999D01*
X209514500Y-118011999D01*
X209509500Y-118021999D01*
X209503500Y-118032999D01*
X209496500Y-118041999D01*
X209489500Y-118051999D01*
X209481500Y-118060999D01*
X209473500Y-118068999D01*
X209465500Y-118076999D01*
X209456500Y-118084999D01*
X209446500Y-118091999D01*
X209437500Y-118098999D01*
X209426500Y-118104999D01*
X209416500Y-118109999D01*
X209406500Y-118115999D01*
X209395500Y-118119999D01*
X209384500Y-118123999D01*
X209372500Y-118126999D01*
X209361500Y-118129999D01*
X209349500Y-118131999D01*
X209338500Y-118133999D01*
X209326500Y-118134999D01*
X209314500Y-118134999D01*
X208914500Y-118134999D01*
X208914500Y-118434999D01*
X209269500Y-118434999D01*
X209301500Y-118434999D01*
X209330500Y-118433999D01*
X209358500Y-118430999D01*
X209387500Y-118426999D01*
X209415500Y-118420999D01*
X209443500Y-118413999D01*
X209470500Y-118405999D01*
X209497500Y-118395999D01*
X209523500Y-118383999D01*
X209549500Y-118370999D01*
X209574500Y-118356999D01*
X209598500Y-118341999D01*
X209621500Y-118324999D01*
X209644500Y-118306999D01*
X209665500Y-118287999D01*
X209686500Y-118267999D01*
X209705500Y-118246999D01*
X209723500Y-118224999D01*
X209740500Y-118201999D01*
X209756500Y-118177999D01*
X209771500Y-118152999D01*
X209784500Y-118127999D01*
X209796500Y-118101999D01*
X209806500Y-118074999D01*
X209816500Y-118047999D01*
X209823500Y-118019999D01*
X209829500Y-117991999D01*
X209834500Y-117963999D01*
X209837500Y-117934999D01*
X209839500Y-117909999D01*
X209838500Y-117882999D01*
X209836500Y-117854999D01*
X209833500Y-117827999D01*
X209828500Y-117800999D01*
X209821500Y-117773999D01*
X209813500Y-117747999D01*
X209804500Y-117721999D01*
X209794500Y-117695999D01*
X209782500Y-117671999D01*
X209769500Y-117646999D01*
X209754500Y-117623999D01*
X209739500Y-117600999D01*
X209722500Y-117579999D01*
X209704500Y-117558999D01*
X209685500Y-117538999D01*
X209665500Y-117519999D01*
X209644500Y-117501999D01*
X209623500Y-117484999D01*
X209600500Y-117469999D01*
X209577500Y-117454999D01*
X209552500Y-117441999D01*
X209528500Y-117429999D01*
X209502500Y-117419999D01*
X209476500Y-117410999D01*
X209450500Y-117402999D01*
X209423500Y-117395999D01*
X209396500Y-117390999D01*
X209369500Y-117387999D01*
X209341500Y-117385999D01*
X209314500Y-117384999D01*
X208914500Y-117384999D01*
X208914500Y-117684999D01*
G36*
X208914500Y-118134999D02*
G01*
X208514500Y-118134999D01*
X208502500Y-118134999D01*
X208490500Y-118133999D01*
X208479500Y-118131999D01*
X208467500Y-118129999D01*
X208456500Y-118126999D01*
X208444500Y-118123999D01*
X208433500Y-118119999D01*
X208422500Y-118115999D01*
X208412500Y-118109999D01*
X208402500Y-118104999D01*
X208391500Y-118098999D01*
X208382500Y-118091999D01*
X208372500Y-118084999D01*
X208363500Y-118076999D01*
X208355500Y-118068999D01*
X208347500Y-118060999D01*
X208339500Y-118051999D01*
X208332500Y-118041999D01*
X208325500Y-118032999D01*
X208319500Y-118021999D01*
X208314500Y-118011999D01*
X208308500Y-118001999D01*
X208304500Y-117990999D01*
X208300500Y-117979999D01*
X208297500Y-117967999D01*
X208294500Y-117956999D01*
X208292500Y-117944999D01*
X208290500Y-117933999D01*
X208289500Y-117921999D01*
X208289500Y-117909999D01*
X208289500Y-117897999D01*
X208290500Y-117885999D01*
X208292500Y-117874999D01*
X208294500Y-117862999D01*
X208297500Y-117851999D01*
X208300500Y-117839999D01*
X208304500Y-117828999D01*
X208308500Y-117817999D01*
X208314500Y-117807999D01*
X208319500Y-117797999D01*
X208325500Y-117786999D01*
X208332500Y-117777999D01*
X208339500Y-117767999D01*
X208347500Y-117758999D01*
X208355500Y-117750999D01*
X208363500Y-117742999D01*
X208372500Y-117734999D01*
X208382500Y-117727999D01*
X208391500Y-117720999D01*
X208401500Y-117714999D01*
X208412500Y-117709999D01*
X208422500Y-117703999D01*
X208433500Y-117699999D01*
X208444500Y-117695999D01*
X208456500Y-117692999D01*
X208467500Y-117689999D01*
X208479500Y-117687999D01*
X208490500Y-117685999D01*
X208502500Y-117684999D01*
X208514500Y-117684999D01*
X208914500Y-117684999D01*
X208914500Y-117384999D01*
X208559500Y-117384999D01*
X208527500Y-117384999D01*
X208498500Y-117385999D01*
X208470500Y-117388999D01*
X208441500Y-117392999D01*
X208413500Y-117398999D01*
X208385500Y-117405999D01*
X208358500Y-117413999D01*
X208331500Y-117423999D01*
X208305500Y-117435999D01*
X208279500Y-117448999D01*
X208254500Y-117462999D01*
X208230500Y-117477999D01*
X208207500Y-117494999D01*
X208184500Y-117512999D01*
X208163500Y-117531999D01*
X208142500Y-117551999D01*
X208123500Y-117572999D01*
X208105500Y-117594999D01*
X208088500Y-117617999D01*
X208072500Y-117641999D01*
X208057500Y-117666999D01*
X208044500Y-117691999D01*
X208032500Y-117717999D01*
X208022500Y-117744999D01*
X208012500Y-117771999D01*
X208005500Y-117799999D01*
X207999500Y-117827999D01*
X207994500Y-117855999D01*
X207991500Y-117884999D01*
X207989500Y-117909999D01*
X207990500Y-117936999D01*
X207992500Y-117964999D01*
X207995500Y-117991999D01*
X208000500Y-118018999D01*
X208007500Y-118045999D01*
X208015500Y-118071999D01*
X208024500Y-118097999D01*
X208034500Y-118123999D01*
X208046500Y-118147999D01*
X208059500Y-118172999D01*
X208074500Y-118195999D01*
X208089500Y-118218999D01*
X208106500Y-118239999D01*
X208124500Y-118260999D01*
X208143500Y-118280999D01*
X208163500Y-118299999D01*
X208184500Y-118317999D01*
X208205500Y-118334999D01*
X208228500Y-118349999D01*
X208252500Y-118364999D01*
X208276500Y-118377999D01*
X208300500Y-118389999D01*
X208326500Y-118399999D01*
X208352500Y-118408999D01*
X208378500Y-118416999D01*
X208405500Y-118423999D01*
X208432500Y-118428999D01*
X208459500Y-118431999D01*
X208487500Y-118433999D01*
X208514500Y-118434999D01*
X208914500Y-118434999D01*
X208914500Y-118134999D01*
G37*
X208914500Y-118134999D02*
X208514500Y-118134999D01*
X208502500Y-118134999D01*
X208490500Y-118133999D01*
X208479500Y-118131999D01*
X208467500Y-118129999D01*
X208456500Y-118126999D01*
X208444500Y-118123999D01*
X208433500Y-118119999D01*
X208422500Y-118115999D01*
X208412500Y-118109999D01*
X208402500Y-118104999D01*
X208391500Y-118098999D01*
X208382500Y-118091999D01*
X208372500Y-118084999D01*
X208363500Y-118076999D01*
X208355500Y-118068999D01*
X208347500Y-118060999D01*
X208339500Y-118051999D01*
X208332500Y-118041999D01*
X208325500Y-118032999D01*
X208319500Y-118021999D01*
X208314500Y-118011999D01*
X208308500Y-118001999D01*
X208304500Y-117990999D01*
X208300500Y-117979999D01*
X208297500Y-117967999D01*
X208294500Y-117956999D01*
X208292500Y-117944999D01*
X208290500Y-117933999D01*
X208289500Y-117921999D01*
X208289500Y-117909999D01*
X208289500Y-117897999D01*
X208290500Y-117885999D01*
X208292500Y-117874999D01*
X208294500Y-117862999D01*
X208297500Y-117851999D01*
X208300500Y-117839999D01*
X208304500Y-117828999D01*
X208308500Y-117817999D01*
X208314500Y-117807999D01*
X208319500Y-117797999D01*
X208325500Y-117786999D01*
X208332500Y-117777999D01*
X208339500Y-117767999D01*
X208347500Y-117758999D01*
X208355500Y-117750999D01*
X208363500Y-117742999D01*
X208372500Y-117734999D01*
X208382500Y-117727999D01*
X208391500Y-117720999D01*
X208401500Y-117714999D01*
X208412500Y-117709999D01*
X208422500Y-117703999D01*
X208433500Y-117699999D01*
X208444500Y-117695999D01*
X208456500Y-117692999D01*
X208467500Y-117689999D01*
X208479500Y-117687999D01*
X208490500Y-117685999D01*
X208502500Y-117684999D01*
X208514500Y-117684999D01*
X208914500Y-117684999D01*
X208914500Y-117384999D01*
X208559500Y-117384999D01*
X208527500Y-117384999D01*
X208498500Y-117385999D01*
X208470500Y-117388999D01*
X208441500Y-117392999D01*
X208413500Y-117398999D01*
X208385500Y-117405999D01*
X208358500Y-117413999D01*
X208331500Y-117423999D01*
X208305500Y-117435999D01*
X208279500Y-117448999D01*
X208254500Y-117462999D01*
X208230500Y-117477999D01*
X208207500Y-117494999D01*
X208184500Y-117512999D01*
X208163500Y-117531999D01*
X208142500Y-117551999D01*
X208123500Y-117572999D01*
X208105500Y-117594999D01*
X208088500Y-117617999D01*
X208072500Y-117641999D01*
X208057500Y-117666999D01*
X208044500Y-117691999D01*
X208032500Y-117717999D01*
X208022500Y-117744999D01*
X208012500Y-117771999D01*
X208005500Y-117799999D01*
X207999500Y-117827999D01*
X207994500Y-117855999D01*
X207991500Y-117884999D01*
X207989500Y-117909999D01*
X207990500Y-117936999D01*
X207992500Y-117964999D01*
X207995500Y-117991999D01*
X208000500Y-118018999D01*
X208007500Y-118045999D01*
X208015500Y-118071999D01*
X208024500Y-118097999D01*
X208034500Y-118123999D01*
X208046500Y-118147999D01*
X208059500Y-118172999D01*
X208074500Y-118195999D01*
X208089500Y-118218999D01*
X208106500Y-118239999D01*
X208124500Y-118260999D01*
X208143500Y-118280999D01*
X208163500Y-118299999D01*
X208184500Y-118317999D01*
X208205500Y-118334999D01*
X208228500Y-118349999D01*
X208252500Y-118364999D01*
X208276500Y-118377999D01*
X208300500Y-118389999D01*
X208326500Y-118399999D01*
X208352500Y-118408999D01*
X208378500Y-118416999D01*
X208405500Y-118423999D01*
X208432500Y-118428999D01*
X208459500Y-118431999D01*
X208487500Y-118433999D01*
X208514500Y-118434999D01*
X208914500Y-118434999D01*
X208914500Y-118134999D01*
%TD*%
D11*
%TO.C,IC1*%
X187744400Y-92461300D03*
X179125400Y-101080300D03*
D12*
X183434900Y-96770800D03*
D13*
X186034900Y-100270800D03*
X185634900Y-100270800D03*
X185234900Y-100270800D03*
X184834900Y-100270800D03*
X184434900Y-100270800D03*
X184034900Y-100270800D03*
X183634900Y-100270800D03*
X183234900Y-100270800D03*
X182834900Y-100270800D03*
X182434900Y-100270800D03*
X182034900Y-100270800D03*
X181634900Y-100270800D03*
X181234900Y-100270800D03*
X180834900Y-100270800D03*
D14*
X179934900Y-99370800D03*
X179934900Y-98970800D03*
X179934900Y-98570800D03*
X179934900Y-98170800D03*
X179934900Y-97770800D03*
X179934900Y-97370800D03*
X179934900Y-96970800D03*
X179934900Y-96570800D03*
X179934900Y-96170800D03*
X179934900Y-95770800D03*
X179934900Y-95370800D03*
X179934900Y-94970800D03*
X179934900Y-94570800D03*
X179934900Y-94170800D03*
D13*
X180834900Y-93270800D03*
X181234900Y-93270800D03*
X181634900Y-93270800D03*
X182034900Y-93270800D03*
X182434900Y-93270800D03*
X182834900Y-93270800D03*
X183234900Y-93270800D03*
X183634900Y-93270800D03*
X184034900Y-93270800D03*
X184434900Y-93270800D03*
X184834900Y-93270800D03*
X185234900Y-93270800D03*
X185634900Y-93270800D03*
X186034900Y-93270800D03*
D14*
X186934900Y-94170800D03*
X186934900Y-94570800D03*
X186934900Y-94970800D03*
X186934900Y-95370800D03*
X186934900Y-95770800D03*
X186934900Y-96170800D03*
X186934900Y-96570800D03*
X186934900Y-96970800D03*
X186934900Y-97370800D03*
X186934900Y-97770800D03*
X186934900Y-98170800D03*
X186934900Y-98570800D03*
X186934900Y-98970800D03*
X186934900Y-99370800D03*
%TD*%
%TO.C,U7*%
G36*
G01*
X130852200Y-75138999D02*
X130852200Y-75689001D01*
G75*
G02*
X130602201Y-75939000I-249999J0D01*
G01*
X130052199Y-75939000D01*
G75*
G02*
X129802200Y-75689001I0J249999D01*
G01*
X129802200Y-75138999D01*
G75*
G02*
X130052199Y-74889000I249999J0D01*
G01*
X130602201Y-74889000D01*
G75*
G02*
X130852200Y-75138999I0J-249999D01*
G01*
G37*
G36*
G01*
X130852200Y-76438999D02*
X130852200Y-76989001D01*
G75*
G02*
X130602201Y-77239000I-249999J0D01*
G01*
X130052199Y-77239000D01*
G75*
G02*
X129802200Y-76989001I0J249999D01*
G01*
X129802200Y-76438999D01*
G75*
G02*
X130052199Y-76189000I249999J0D01*
G01*
X130602201Y-76189000D01*
G75*
G02*
X130852200Y-76438999I0J-249999D01*
G01*
G37*
G36*
G01*
X132152200Y-75138999D02*
X132152200Y-75689001D01*
G75*
G02*
X131902201Y-75939000I-249999J0D01*
G01*
X131352199Y-75939000D01*
G75*
G02*
X131102200Y-75689001I0J249999D01*
G01*
X131102200Y-75138999D01*
G75*
G02*
X131352199Y-74889000I249999J0D01*
G01*
X131902201Y-74889000D01*
G75*
G02*
X132152200Y-75138999I0J-249999D01*
G01*
G37*
G36*
G01*
X132152200Y-76438999D02*
X132152200Y-76989001D01*
G75*
G02*
X131902201Y-77239000I-249999J0D01*
G01*
X131352199Y-77239000D01*
G75*
G02*
X131102200Y-76989001I0J249999D01*
G01*
X131102200Y-76438999D01*
G75*
G02*
X131352199Y-76189000I249999J0D01*
G01*
X131902201Y-76189000D01*
G75*
G02*
X132152200Y-76438999I0J-249999D01*
G01*
G37*
G36*
G01*
X132352200Y-77651500D02*
X132352200Y-78351500D01*
G75*
G02*
X132289700Y-78414000I-62500J0D01*
G01*
X132164700Y-78414000D01*
G75*
G02*
X132102200Y-78351500I0J62500D01*
G01*
X132102200Y-77651500D01*
G75*
G02*
X132164700Y-77589000I62500J0D01*
G01*
X132289700Y-77589000D01*
G75*
G02*
X132352200Y-77651500I0J-62500D01*
G01*
G37*
G36*
G01*
X131852200Y-77651500D02*
X131852200Y-78351500D01*
G75*
G02*
X131789700Y-78414000I-62500J0D01*
G01*
X131664700Y-78414000D01*
G75*
G02*
X131602200Y-78351500I0J62500D01*
G01*
X131602200Y-77651500D01*
G75*
G02*
X131664700Y-77589000I62500J0D01*
G01*
X131789700Y-77589000D01*
G75*
G02*
X131852200Y-77651500I0J-62500D01*
G01*
G37*
G36*
G01*
X131352200Y-77651500D02*
X131352200Y-78351500D01*
G75*
G02*
X131289700Y-78414000I-62500J0D01*
G01*
X131164700Y-78414000D01*
G75*
G02*
X131102200Y-78351500I0J62500D01*
G01*
X131102200Y-77651500D01*
G75*
G02*
X131164700Y-77589000I62500J0D01*
G01*
X131289700Y-77589000D01*
G75*
G02*
X131352200Y-77651500I0J-62500D01*
G01*
G37*
G36*
G01*
X130852200Y-77651500D02*
X130852200Y-78351500D01*
G75*
G02*
X130789700Y-78414000I-62500J0D01*
G01*
X130664700Y-78414000D01*
G75*
G02*
X130602200Y-78351500I0J62500D01*
G01*
X130602200Y-77651500D01*
G75*
G02*
X130664700Y-77589000I62500J0D01*
G01*
X130789700Y-77589000D01*
G75*
G02*
X130852200Y-77651500I0J-62500D01*
G01*
G37*
G36*
G01*
X130352200Y-77651500D02*
X130352200Y-78351500D01*
G75*
G02*
X130289700Y-78414000I-62500J0D01*
G01*
X130164700Y-78414000D01*
G75*
G02*
X130102200Y-78351500I0J62500D01*
G01*
X130102200Y-77651500D01*
G75*
G02*
X130164700Y-77589000I62500J0D01*
G01*
X130289700Y-77589000D01*
G75*
G02*
X130352200Y-77651500I0J-62500D01*
G01*
G37*
G36*
G01*
X129852200Y-77651500D02*
X129852200Y-78351500D01*
G75*
G02*
X129789700Y-78414000I-62500J0D01*
G01*
X129664700Y-78414000D01*
G75*
G02*
X129602200Y-78351500I0J62500D01*
G01*
X129602200Y-77651500D01*
G75*
G02*
X129664700Y-77589000I62500J0D01*
G01*
X129789700Y-77589000D01*
G75*
G02*
X129852200Y-77651500I0J-62500D01*
G01*
G37*
G36*
G01*
X129452200Y-77251500D02*
X129452200Y-77376500D01*
G75*
G02*
X129389700Y-77439000I-62500J0D01*
G01*
X128689700Y-77439000D01*
G75*
G02*
X128627200Y-77376500I0J62500D01*
G01*
X128627200Y-77251500D01*
G75*
G02*
X128689700Y-77189000I62500J0D01*
G01*
X129389700Y-77189000D01*
G75*
G02*
X129452200Y-77251500I0J-62500D01*
G01*
G37*
G36*
G01*
X129452200Y-76751500D02*
X129452200Y-76876500D01*
G75*
G02*
X129389700Y-76939000I-62500J0D01*
G01*
X128689700Y-76939000D01*
G75*
G02*
X128627200Y-76876500I0J62500D01*
G01*
X128627200Y-76751500D01*
G75*
G02*
X128689700Y-76689000I62500J0D01*
G01*
X129389700Y-76689000D01*
G75*
G02*
X129452200Y-76751500I0J-62500D01*
G01*
G37*
G36*
G01*
X129452200Y-76251500D02*
X129452200Y-76376500D01*
G75*
G02*
X129389700Y-76439000I-62500J0D01*
G01*
X128689700Y-76439000D01*
G75*
G02*
X128627200Y-76376500I0J62500D01*
G01*
X128627200Y-76251500D01*
G75*
G02*
X128689700Y-76189000I62500J0D01*
G01*
X129389700Y-76189000D01*
G75*
G02*
X129452200Y-76251500I0J-62500D01*
G01*
G37*
G36*
G01*
X129452200Y-75751500D02*
X129452200Y-75876500D01*
G75*
G02*
X129389700Y-75939000I-62500J0D01*
G01*
X128689700Y-75939000D01*
G75*
G02*
X128627200Y-75876500I0J62500D01*
G01*
X128627200Y-75751500D01*
G75*
G02*
X128689700Y-75689000I62500J0D01*
G01*
X129389700Y-75689000D01*
G75*
G02*
X129452200Y-75751500I0J-62500D01*
G01*
G37*
G36*
G01*
X129452200Y-75251500D02*
X129452200Y-75376500D01*
G75*
G02*
X129389700Y-75439000I-62500J0D01*
G01*
X128689700Y-75439000D01*
G75*
G02*
X128627200Y-75376500I0J62500D01*
G01*
X128627200Y-75251500D01*
G75*
G02*
X128689700Y-75189000I62500J0D01*
G01*
X129389700Y-75189000D01*
G75*
G02*
X129452200Y-75251500I0J-62500D01*
G01*
G37*
G36*
G01*
X129452200Y-74751500D02*
X129452200Y-74876500D01*
G75*
G02*
X129389700Y-74939000I-62500J0D01*
G01*
X128689700Y-74939000D01*
G75*
G02*
X128627200Y-74876500I0J62500D01*
G01*
X128627200Y-74751500D01*
G75*
G02*
X128689700Y-74689000I62500J0D01*
G01*
X129389700Y-74689000D01*
G75*
G02*
X129452200Y-74751500I0J-62500D01*
G01*
G37*
G36*
G01*
X129852200Y-73776500D02*
X129852200Y-74476500D01*
G75*
G02*
X129789700Y-74539000I-62500J0D01*
G01*
X129664700Y-74539000D01*
G75*
G02*
X129602200Y-74476500I0J62500D01*
G01*
X129602200Y-73776500D01*
G75*
G02*
X129664700Y-73714000I62500J0D01*
G01*
X129789700Y-73714000D01*
G75*
G02*
X129852200Y-73776500I0J-62500D01*
G01*
G37*
G36*
G01*
X130352200Y-73776500D02*
X130352200Y-74476500D01*
G75*
G02*
X130289700Y-74539000I-62500J0D01*
G01*
X130164700Y-74539000D01*
G75*
G02*
X130102200Y-74476500I0J62500D01*
G01*
X130102200Y-73776500D01*
G75*
G02*
X130164700Y-73714000I62500J0D01*
G01*
X130289700Y-73714000D01*
G75*
G02*
X130352200Y-73776500I0J-62500D01*
G01*
G37*
G36*
G01*
X130852200Y-73776500D02*
X130852200Y-74476500D01*
G75*
G02*
X130789700Y-74539000I-62500J0D01*
G01*
X130664700Y-74539000D01*
G75*
G02*
X130602200Y-74476500I0J62500D01*
G01*
X130602200Y-73776500D01*
G75*
G02*
X130664700Y-73714000I62500J0D01*
G01*
X130789700Y-73714000D01*
G75*
G02*
X130852200Y-73776500I0J-62500D01*
G01*
G37*
G36*
G01*
X131352200Y-73776500D02*
X131352200Y-74476500D01*
G75*
G02*
X131289700Y-74539000I-62500J0D01*
G01*
X131164700Y-74539000D01*
G75*
G02*
X131102200Y-74476500I0J62500D01*
G01*
X131102200Y-73776500D01*
G75*
G02*
X131164700Y-73714000I62500J0D01*
G01*
X131289700Y-73714000D01*
G75*
G02*
X131352200Y-73776500I0J-62500D01*
G01*
G37*
G36*
G01*
X131852200Y-73776500D02*
X131852200Y-74476500D01*
G75*
G02*
X131789700Y-74539000I-62500J0D01*
G01*
X131664700Y-74539000D01*
G75*
G02*
X131602200Y-74476500I0J62500D01*
G01*
X131602200Y-73776500D01*
G75*
G02*
X131664700Y-73714000I62500J0D01*
G01*
X131789700Y-73714000D01*
G75*
G02*
X131852200Y-73776500I0J-62500D01*
G01*
G37*
G36*
G01*
X132352200Y-73776500D02*
X132352200Y-74476500D01*
G75*
G02*
X132289700Y-74539000I-62500J0D01*
G01*
X132164700Y-74539000D01*
G75*
G02*
X132102200Y-74476500I0J62500D01*
G01*
X132102200Y-73776500D01*
G75*
G02*
X132164700Y-73714000I62500J0D01*
G01*
X132289700Y-73714000D01*
G75*
G02*
X132352200Y-73776500I0J-62500D01*
G01*
G37*
G36*
G01*
X133327200Y-74751500D02*
X133327200Y-74876500D01*
G75*
G02*
X133264700Y-74939000I-62500J0D01*
G01*
X132564700Y-74939000D01*
G75*
G02*
X132502200Y-74876500I0J62500D01*
G01*
X132502200Y-74751500D01*
G75*
G02*
X132564700Y-74689000I62500J0D01*
G01*
X133264700Y-74689000D01*
G75*
G02*
X133327200Y-74751500I0J-62500D01*
G01*
G37*
G36*
G01*
X133327200Y-75251500D02*
X133327200Y-75376500D01*
G75*
G02*
X133264700Y-75439000I-62500J0D01*
G01*
X132564700Y-75439000D01*
G75*
G02*
X132502200Y-75376500I0J62500D01*
G01*
X132502200Y-75251500D01*
G75*
G02*
X132564700Y-75189000I62500J0D01*
G01*
X133264700Y-75189000D01*
G75*
G02*
X133327200Y-75251500I0J-62500D01*
G01*
G37*
G36*
G01*
X133327200Y-75751500D02*
X133327200Y-75876500D01*
G75*
G02*
X133264700Y-75939000I-62500J0D01*
G01*
X132564700Y-75939000D01*
G75*
G02*
X132502200Y-75876500I0J62500D01*
G01*
X132502200Y-75751500D01*
G75*
G02*
X132564700Y-75689000I62500J0D01*
G01*
X133264700Y-75689000D01*
G75*
G02*
X133327200Y-75751500I0J-62500D01*
G01*
G37*
G36*
G01*
X133327200Y-76251500D02*
X133327200Y-76376500D01*
G75*
G02*
X133264700Y-76439000I-62500J0D01*
G01*
X132564700Y-76439000D01*
G75*
G02*
X132502200Y-76376500I0J62500D01*
G01*
X132502200Y-76251500D01*
G75*
G02*
X132564700Y-76189000I62500J0D01*
G01*
X133264700Y-76189000D01*
G75*
G02*
X133327200Y-76251500I0J-62500D01*
G01*
G37*
G36*
G01*
X133327200Y-76751500D02*
X133327200Y-76876500D01*
G75*
G02*
X133264700Y-76939000I-62500J0D01*
G01*
X132564700Y-76939000D01*
G75*
G02*
X132502200Y-76876500I0J62500D01*
G01*
X132502200Y-76751500D01*
G75*
G02*
X132564700Y-76689000I62500J0D01*
G01*
X133264700Y-76689000D01*
G75*
G02*
X133327200Y-76751500I0J-62500D01*
G01*
G37*
G36*
G01*
X133327200Y-77251500D02*
X133327200Y-77376500D01*
G75*
G02*
X133264700Y-77439000I-62500J0D01*
G01*
X132564700Y-77439000D01*
G75*
G02*
X132502200Y-77376500I0J62500D01*
G01*
X132502200Y-77251500D01*
G75*
G02*
X132564700Y-77189000I62500J0D01*
G01*
X133264700Y-77189000D01*
G75*
G02*
X133327200Y-77251500I0J-62500D01*
G01*
G37*
%TD*%
D15*
%TO.C,U6*%
X122394799Y-92045000D03*
X122394799Y-87445000D03*
X122394799Y-89745000D03*
D16*
X116094799Y-89745000D03*
%TD*%
%TO.C,R45*%
G36*
G01*
X139275000Y-76277500D02*
X139275000Y-76752500D01*
G75*
G02*
X139037500Y-76990000I-237500J0D01*
G01*
X138537500Y-76990000D01*
G75*
G02*
X138300000Y-76752500I0J237500D01*
G01*
X138300000Y-76277500D01*
G75*
G02*
X138537500Y-76040000I237500J0D01*
G01*
X139037500Y-76040000D01*
G75*
G02*
X139275000Y-76277500I0J-237500D01*
G01*
G37*
G36*
G01*
X141100000Y-76277500D02*
X141100000Y-76752500D01*
G75*
G02*
X140862500Y-76990000I-237500J0D01*
G01*
X140362500Y-76990000D01*
G75*
G02*
X140125000Y-76752500I0J237500D01*
G01*
X140125000Y-76277500D01*
G75*
G02*
X140362500Y-76040000I237500J0D01*
G01*
X140862500Y-76040000D01*
G75*
G02*
X141100000Y-76277500I0J-237500D01*
G01*
G37*
%TD*%
%TO.C,R44*%
G36*
G01*
X139275000Y-73991500D02*
X139275000Y-74466500D01*
G75*
G02*
X139037500Y-74704000I-237500J0D01*
G01*
X138537500Y-74704000D01*
G75*
G02*
X138300000Y-74466500I0J237500D01*
G01*
X138300000Y-73991500D01*
G75*
G02*
X138537500Y-73754000I237500J0D01*
G01*
X139037500Y-73754000D01*
G75*
G02*
X139275000Y-73991500I0J-237500D01*
G01*
G37*
G36*
G01*
X141100000Y-73991500D02*
X141100000Y-74466500D01*
G75*
G02*
X140862500Y-74704000I-237500J0D01*
G01*
X140362500Y-74704000D01*
G75*
G02*
X140125000Y-74466500I0J237500D01*
G01*
X140125000Y-73991500D01*
G75*
G02*
X140362500Y-73754000I237500J0D01*
G01*
X140862500Y-73754000D01*
G75*
G02*
X141100000Y-73991500I0J-237500D01*
G01*
G37*
%TD*%
%TO.C,R43*%
G36*
G01*
X125901000Y-75482500D02*
X125901000Y-75007500D01*
G75*
G02*
X126138500Y-74770000I237500J0D01*
G01*
X126638500Y-74770000D01*
G75*
G02*
X126876000Y-75007500I0J-237500D01*
G01*
X126876000Y-75482500D01*
G75*
G02*
X126638500Y-75720000I-237500J0D01*
G01*
X126138500Y-75720000D01*
G75*
G02*
X125901000Y-75482500I0J237500D01*
G01*
G37*
G36*
G01*
X124076000Y-75482500D02*
X124076000Y-75007500D01*
G75*
G02*
X124313500Y-74770000I237500J0D01*
G01*
X124813500Y-74770000D01*
G75*
G02*
X125051000Y-75007500I0J-237500D01*
G01*
X125051000Y-75482500D01*
G75*
G02*
X124813500Y-75720000I-237500J0D01*
G01*
X124313500Y-75720000D01*
G75*
G02*
X124076000Y-75482500I0J237500D01*
G01*
G37*
%TD*%
D17*
%TO.C,J12*%
X113538000Y-79926000D03*
X113538000Y-77676000D03*
D18*
X115768000Y-81121000D03*
X115768000Y-76481000D03*
D19*
X116188000Y-80101000D03*
X116188000Y-79461000D03*
X116188000Y-78801000D03*
X116188000Y-78151000D03*
X116188000Y-77501000D03*
%TD*%
D20*
%TO.C,D11*%
X121960000Y-83881000D03*
X126960000Y-83881000D03*
%TD*%
%TO.C,D10*%
G36*
G01*
X136539000Y-76711166D02*
X136539000Y-76236166D01*
G75*
G02*
X136776500Y-75998666I237500J0D01*
G01*
X137351500Y-75998666D01*
G75*
G02*
X137589000Y-76236166I0J-237500D01*
G01*
X137589000Y-76711166D01*
G75*
G02*
X137351500Y-76948666I-237500J0D01*
G01*
X136776500Y-76948666D01*
G75*
G02*
X136539000Y-76711166I0J237500D01*
G01*
G37*
G36*
G01*
X134789000Y-76711166D02*
X134789000Y-76236166D01*
G75*
G02*
X135026500Y-75998666I237500J0D01*
G01*
X135601500Y-75998666D01*
G75*
G02*
X135839000Y-76236166I0J-237500D01*
G01*
X135839000Y-76711166D01*
G75*
G02*
X135601500Y-76948666I-237500J0D01*
G01*
X135026500Y-76948666D01*
G75*
G02*
X134789000Y-76711166I0J237500D01*
G01*
G37*
%TD*%
%TO.C,D9*%
G36*
G01*
X136539000Y-74471500D02*
X136539000Y-73996500D01*
G75*
G02*
X136776500Y-73759000I237500J0D01*
G01*
X137351500Y-73759000D01*
G75*
G02*
X137589000Y-73996500I0J-237500D01*
G01*
X137589000Y-74471500D01*
G75*
G02*
X137351500Y-74709000I-237500J0D01*
G01*
X136776500Y-74709000D01*
G75*
G02*
X136539000Y-74471500I0J237500D01*
G01*
G37*
G36*
G01*
X134789000Y-74471500D02*
X134789000Y-73996500D01*
G75*
G02*
X135026500Y-73759000I237500J0D01*
G01*
X135601500Y-73759000D01*
G75*
G02*
X135839000Y-73996500I0J-237500D01*
G01*
X135839000Y-74471500D01*
G75*
G02*
X135601500Y-74709000I-237500J0D01*
G01*
X135026500Y-74709000D01*
G75*
G02*
X134789000Y-74471500I0J237500D01*
G01*
G37*
%TD*%
%TO.C,C45*%
G36*
G01*
X136469000Y-81070500D02*
X136469000Y-80595500D01*
G75*
G02*
X136706500Y-80358000I237500J0D01*
G01*
X137306500Y-80358000D01*
G75*
G02*
X137544000Y-80595500I0J-237500D01*
G01*
X137544000Y-81070500D01*
G75*
G02*
X137306500Y-81308000I-237500J0D01*
G01*
X136706500Y-81308000D01*
G75*
G02*
X136469000Y-81070500I0J237500D01*
G01*
G37*
G36*
G01*
X134744000Y-81070500D02*
X134744000Y-80595500D01*
G75*
G02*
X134981500Y-80358000I237500J0D01*
G01*
X135581500Y-80358000D01*
G75*
G02*
X135819000Y-80595500I0J-237500D01*
G01*
X135819000Y-81070500D01*
G75*
G02*
X135581500Y-81308000I-237500J0D01*
G01*
X134981500Y-81308000D01*
G75*
G02*
X134744000Y-81070500I0J237500D01*
G01*
G37*
%TD*%
%TO.C,C44*%
G36*
G01*
X136469000Y-78910832D02*
X136469000Y-78435832D01*
G75*
G02*
X136706500Y-78198332I237500J0D01*
G01*
X137306500Y-78198332D01*
G75*
G02*
X137544000Y-78435832I0J-237500D01*
G01*
X137544000Y-78910832D01*
G75*
G02*
X137306500Y-79148332I-237500J0D01*
G01*
X136706500Y-79148332D01*
G75*
G02*
X136469000Y-78910832I0J237500D01*
G01*
G37*
G36*
G01*
X134744000Y-78910832D02*
X134744000Y-78435832D01*
G75*
G02*
X134981500Y-78198332I237500J0D01*
G01*
X135581500Y-78198332D01*
G75*
G02*
X135819000Y-78435832I0J-237500D01*
G01*
X135819000Y-78910832D01*
G75*
G02*
X135581500Y-79148332I-237500J0D01*
G01*
X134981500Y-79148332D01*
G75*
G02*
X134744000Y-78910832I0J237500D01*
G01*
G37*
%TD*%
%TO.C,C43*%
G36*
G01*
X122030500Y-78095000D02*
X121555500Y-78095000D01*
G75*
G02*
X121318000Y-77857500I0J237500D01*
G01*
X121318000Y-77257500D01*
G75*
G02*
X121555500Y-77020000I237500J0D01*
G01*
X122030500Y-77020000D01*
G75*
G02*
X122268000Y-77257500I0J-237500D01*
G01*
X122268000Y-77857500D01*
G75*
G02*
X122030500Y-78095000I-237500J0D01*
G01*
G37*
G36*
G01*
X122030500Y-79820000D02*
X121555500Y-79820000D01*
G75*
G02*
X121318000Y-79582500I0J237500D01*
G01*
X121318000Y-78982500D01*
G75*
G02*
X121555500Y-78745000I237500J0D01*
G01*
X122030500Y-78745000D01*
G75*
G02*
X122268000Y-78982500I0J-237500D01*
G01*
X122268000Y-79582500D01*
G75*
G02*
X122030500Y-79820000I-237500J0D01*
G01*
G37*
%TD*%
%TO.C,C42*%
G36*
G01*
X129777500Y-71364000D02*
X129302500Y-71364000D01*
G75*
G02*
X129065000Y-71126500I0J237500D01*
G01*
X129065000Y-70526500D01*
G75*
G02*
X129302500Y-70289000I237500J0D01*
G01*
X129777500Y-70289000D01*
G75*
G02*
X130015000Y-70526500I0J-237500D01*
G01*
X130015000Y-71126500D01*
G75*
G02*
X129777500Y-71364000I-237500J0D01*
G01*
G37*
G36*
G01*
X129777500Y-73089000D02*
X129302500Y-73089000D01*
G75*
G02*
X129065000Y-72851500I0J237500D01*
G01*
X129065000Y-72251500D01*
G75*
G02*
X129302500Y-72014000I237500J0D01*
G01*
X129777500Y-72014000D01*
G75*
G02*
X130015000Y-72251500I0J-237500D01*
G01*
X130015000Y-72851500D01*
G75*
G02*
X129777500Y-73089000I-237500J0D01*
G01*
G37*
%TD*%
%TO.C,C41*%
G36*
G01*
X126263500Y-91568201D02*
X126738500Y-91568201D01*
G75*
G02*
X126976000Y-91805701I0J-237500D01*
G01*
X126976000Y-92405701D01*
G75*
G02*
X126738500Y-92643201I-237500J0D01*
G01*
X126263500Y-92643201D01*
G75*
G02*
X126026000Y-92405701I0J237500D01*
G01*
X126026000Y-91805701D01*
G75*
G02*
X126263500Y-91568201I237500J0D01*
G01*
G37*
G36*
G01*
X126263500Y-89843201D02*
X126738500Y-89843201D01*
G75*
G02*
X126976000Y-90080701I0J-237500D01*
G01*
X126976000Y-90680701D01*
G75*
G02*
X126738500Y-90918201I-237500J0D01*
G01*
X126263500Y-90918201D01*
G75*
G02*
X126026000Y-90680701I0J237500D01*
G01*
X126026000Y-90080701D01*
G75*
G02*
X126263500Y-89843201I237500J0D01*
G01*
G37*
%TD*%
%TO.C,C40*%
G36*
G01*
X128786000Y-91923200D02*
X129736000Y-91923200D01*
G75*
G02*
X129986000Y-92173200I0J-250000D01*
G01*
X129986000Y-92848200D01*
G75*
G02*
X129736000Y-93098200I-250000J0D01*
G01*
X128786000Y-93098200D01*
G75*
G02*
X128536000Y-92848200I0J250000D01*
G01*
X128536000Y-92173200D01*
G75*
G02*
X128786000Y-91923200I250000J0D01*
G01*
G37*
G36*
G01*
X128786000Y-89848200D02*
X129736000Y-89848200D01*
G75*
G02*
X129986000Y-90098200I0J-250000D01*
G01*
X129986000Y-90773200D01*
G75*
G02*
X129736000Y-91023200I-250000J0D01*
G01*
X128786000Y-91023200D01*
G75*
G02*
X128536000Y-90773200I0J250000D01*
G01*
X128536000Y-90098200D01*
G75*
G02*
X128786000Y-89848200I250000J0D01*
G01*
G37*
%TD*%
D21*
%TO.C,SW5*%
X164218000Y-98490000D03*
X155118000Y-98490000D03*
X164218000Y-93940000D03*
X155118000Y-93940000D03*
%TD*%
%TO.C,SW4*%
X164218000Y-90940000D03*
X155118000Y-90940000D03*
X164218000Y-86390000D03*
X155118000Y-86390000D03*
%TD*%
%TO.C,SW3*%
X164218000Y-83390000D03*
X155118000Y-83390000D03*
X164218000Y-78840000D03*
X155118000Y-78840000D03*
%TD*%
%TO.C,R42*%
G36*
G01*
X151400500Y-96625000D02*
X151875500Y-96625000D01*
G75*
G02*
X152113000Y-96862500I0J-237500D01*
G01*
X152113000Y-97362500D01*
G75*
G02*
X151875500Y-97600000I-237500J0D01*
G01*
X151400500Y-97600000D01*
G75*
G02*
X151163000Y-97362500I0J237500D01*
G01*
X151163000Y-96862500D01*
G75*
G02*
X151400500Y-96625000I237500J0D01*
G01*
G37*
G36*
G01*
X151400500Y-94800000D02*
X151875500Y-94800000D01*
G75*
G02*
X152113000Y-95037500I0J-237500D01*
G01*
X152113000Y-95537500D01*
G75*
G02*
X151875500Y-95775000I-237500J0D01*
G01*
X151400500Y-95775000D01*
G75*
G02*
X151163000Y-95537500I0J237500D01*
G01*
X151163000Y-95037500D01*
G75*
G02*
X151400500Y-94800000I237500J0D01*
G01*
G37*
%TD*%
%TO.C,R41*%
G36*
G01*
X151875500Y-88155000D02*
X151400500Y-88155000D01*
G75*
G02*
X151163000Y-87917500I0J237500D01*
G01*
X151163000Y-87417500D01*
G75*
G02*
X151400500Y-87180000I237500J0D01*
G01*
X151875500Y-87180000D01*
G75*
G02*
X152113000Y-87417500I0J-237500D01*
G01*
X152113000Y-87917500D01*
G75*
G02*
X151875500Y-88155000I-237500J0D01*
G01*
G37*
G36*
G01*
X151875500Y-89980000D02*
X151400500Y-89980000D01*
G75*
G02*
X151163000Y-89742500I0J237500D01*
G01*
X151163000Y-89242500D01*
G75*
G02*
X151400500Y-89005000I237500J0D01*
G01*
X151875500Y-89005000D01*
G75*
G02*
X152113000Y-89242500I0J-237500D01*
G01*
X152113000Y-89742500D01*
G75*
G02*
X151875500Y-89980000I-237500J0D01*
G01*
G37*
%TD*%
%TO.C,R40*%
G36*
G01*
X129175500Y-102697500D02*
X129650500Y-102697500D01*
G75*
G02*
X129888000Y-102935000I0J-237500D01*
G01*
X129888000Y-103435000D01*
G75*
G02*
X129650500Y-103672500I-237500J0D01*
G01*
X129175500Y-103672500D01*
G75*
G02*
X128938000Y-103435000I0J237500D01*
G01*
X128938000Y-102935000D01*
G75*
G02*
X129175500Y-102697500I237500J0D01*
G01*
G37*
G36*
G01*
X129175500Y-100872500D02*
X129650500Y-100872500D01*
G75*
G02*
X129888000Y-101110000I0J-237500D01*
G01*
X129888000Y-101610000D01*
G75*
G02*
X129650500Y-101847500I-237500J0D01*
G01*
X129175500Y-101847500D01*
G75*
G02*
X128938000Y-101610000I0J237500D01*
G01*
X128938000Y-101110000D01*
G75*
G02*
X129175500Y-100872500I237500J0D01*
G01*
G37*
%TD*%
%TO.C,D8*%
G36*
G01*
X126635500Y-102900000D02*
X127110500Y-102900000D01*
G75*
G02*
X127348000Y-103137500I0J-237500D01*
G01*
X127348000Y-103712500D01*
G75*
G02*
X127110500Y-103950000I-237500J0D01*
G01*
X126635500Y-103950000D01*
G75*
G02*
X126398000Y-103712500I0J237500D01*
G01*
X126398000Y-103137500D01*
G75*
G02*
X126635500Y-102900000I237500J0D01*
G01*
G37*
G36*
G01*
X126635500Y-101150000D02*
X127110500Y-101150000D01*
G75*
G02*
X127348000Y-101387500I0J-237500D01*
G01*
X127348000Y-101962500D01*
G75*
G02*
X127110500Y-102200000I-237500J0D01*
G01*
X126635500Y-102200000D01*
G75*
G02*
X126398000Y-101962500I0J237500D01*
G01*
X126398000Y-101387500D01*
G75*
G02*
X126635500Y-101150000I237500J0D01*
G01*
G37*
%TD*%
%TO.C,R39*%
G36*
G01*
X160695297Y-58261321D02*
X160220297Y-58261321D01*
G75*
G02*
X159982797Y-58023821I0J237500D01*
G01*
X159982797Y-57523821D01*
G75*
G02*
X160220297Y-57286321I237500J0D01*
G01*
X160695297Y-57286321D01*
G75*
G02*
X160932797Y-57523821I0J-237500D01*
G01*
X160932797Y-58023821D01*
G75*
G02*
X160695297Y-58261321I-237500J0D01*
G01*
G37*
G36*
G01*
X160695297Y-60086321D02*
X160220297Y-60086321D01*
G75*
G02*
X159982797Y-59848821I0J237500D01*
G01*
X159982797Y-59348821D01*
G75*
G02*
X160220297Y-59111321I237500J0D01*
G01*
X160695297Y-59111321D01*
G75*
G02*
X160932797Y-59348821I0J-237500D01*
G01*
X160932797Y-59848821D01*
G75*
G02*
X160695297Y-60086321I-237500J0D01*
G01*
G37*
%TD*%
%TO.C,R38*%
G36*
G01*
X163235297Y-58261321D02*
X162760297Y-58261321D01*
G75*
G02*
X162522797Y-58023821I0J237500D01*
G01*
X162522797Y-57523821D01*
G75*
G02*
X162760297Y-57286321I237500J0D01*
G01*
X163235297Y-57286321D01*
G75*
G02*
X163472797Y-57523821I0J-237500D01*
G01*
X163472797Y-58023821D01*
G75*
G02*
X163235297Y-58261321I-237500J0D01*
G01*
G37*
G36*
G01*
X163235297Y-60086321D02*
X162760297Y-60086321D01*
G75*
G02*
X162522797Y-59848821I0J237500D01*
G01*
X162522797Y-59348821D01*
G75*
G02*
X162760297Y-59111321I237500J0D01*
G01*
X163235297Y-59111321D01*
G75*
G02*
X163472797Y-59348821I0J-237500D01*
G01*
X163472797Y-59848821D01*
G75*
G02*
X163235297Y-60086321I-237500J0D01*
G01*
G37*
%TD*%
%TO.C,R37*%
G36*
G01*
X165775296Y-58261322D02*
X165300296Y-58261322D01*
G75*
G02*
X165062796Y-58023822I0J237500D01*
G01*
X165062796Y-57523822D01*
G75*
G02*
X165300296Y-57286322I237500J0D01*
G01*
X165775296Y-57286322D01*
G75*
G02*
X166012796Y-57523822I0J-237500D01*
G01*
X166012796Y-58023822D01*
G75*
G02*
X165775296Y-58261322I-237500J0D01*
G01*
G37*
G36*
G01*
X165775296Y-60086322D02*
X165300296Y-60086322D01*
G75*
G02*
X165062796Y-59848822I0J237500D01*
G01*
X165062796Y-59348822D01*
G75*
G02*
X165300296Y-59111322I237500J0D01*
G01*
X165775296Y-59111322D01*
G75*
G02*
X166012796Y-59348822I0J-237500D01*
G01*
X166012796Y-59848822D01*
G75*
G02*
X165775296Y-60086322I-237500J0D01*
G01*
G37*
%TD*%
%TO.C,R36*%
G36*
G01*
X168315298Y-58261322D02*
X167840298Y-58261322D01*
G75*
G02*
X167602798Y-58023822I0J237500D01*
G01*
X167602798Y-57523822D01*
G75*
G02*
X167840298Y-57286322I237500J0D01*
G01*
X168315298Y-57286322D01*
G75*
G02*
X168552798Y-57523822I0J-237500D01*
G01*
X168552798Y-58023822D01*
G75*
G02*
X168315298Y-58261322I-237500J0D01*
G01*
G37*
G36*
G01*
X168315298Y-60086322D02*
X167840298Y-60086322D01*
G75*
G02*
X167602798Y-59848822I0J237500D01*
G01*
X167602798Y-59348822D01*
G75*
G02*
X167840298Y-59111322I237500J0D01*
G01*
X168315298Y-59111322D01*
G75*
G02*
X168552798Y-59348822I0J-237500D01*
G01*
X168552798Y-59848822D01*
G75*
G02*
X168315298Y-60086322I-237500J0D01*
G01*
G37*
%TD*%
%TO.C,R35*%
G36*
G01*
X170855297Y-58261321D02*
X170380297Y-58261321D01*
G75*
G02*
X170142797Y-58023821I0J237500D01*
G01*
X170142797Y-57523821D01*
G75*
G02*
X170380297Y-57286321I237500J0D01*
G01*
X170855297Y-57286321D01*
G75*
G02*
X171092797Y-57523821I0J-237500D01*
G01*
X171092797Y-58023821D01*
G75*
G02*
X170855297Y-58261321I-237500J0D01*
G01*
G37*
G36*
G01*
X170855297Y-60086321D02*
X170380297Y-60086321D01*
G75*
G02*
X170142797Y-59848821I0J237500D01*
G01*
X170142797Y-59348821D01*
G75*
G02*
X170380297Y-59111321I237500J0D01*
G01*
X170855297Y-59111321D01*
G75*
G02*
X171092797Y-59348821I0J-237500D01*
G01*
X171092797Y-59848821D01*
G75*
G02*
X170855297Y-60086321I-237500J0D01*
G01*
G37*
%TD*%
%TO.C,R34*%
G36*
G01*
X173395297Y-58261321D02*
X172920297Y-58261321D01*
G75*
G02*
X172682797Y-58023821I0J237500D01*
G01*
X172682797Y-57523821D01*
G75*
G02*
X172920297Y-57286321I237500J0D01*
G01*
X173395297Y-57286321D01*
G75*
G02*
X173632797Y-57523821I0J-237500D01*
G01*
X173632797Y-58023821D01*
G75*
G02*
X173395297Y-58261321I-237500J0D01*
G01*
G37*
G36*
G01*
X173395297Y-60086321D02*
X172920297Y-60086321D01*
G75*
G02*
X172682797Y-59848821I0J237500D01*
G01*
X172682797Y-59348821D01*
G75*
G02*
X172920297Y-59111321I237500J0D01*
G01*
X173395297Y-59111321D01*
G75*
G02*
X173632797Y-59348821I0J-237500D01*
G01*
X173632797Y-59848821D01*
G75*
G02*
X173395297Y-60086321I-237500J0D01*
G01*
G37*
%TD*%
%TO.C,R33*%
G36*
G01*
X175935297Y-58261321D02*
X175460297Y-58261321D01*
G75*
G02*
X175222797Y-58023821I0J237500D01*
G01*
X175222797Y-57523821D01*
G75*
G02*
X175460297Y-57286321I237500J0D01*
G01*
X175935297Y-57286321D01*
G75*
G02*
X176172797Y-57523821I0J-237500D01*
G01*
X176172797Y-58023821D01*
G75*
G02*
X175935297Y-58261321I-237500J0D01*
G01*
G37*
G36*
G01*
X175935297Y-60086321D02*
X175460297Y-60086321D01*
G75*
G02*
X175222797Y-59848821I0J237500D01*
G01*
X175222797Y-59348821D01*
G75*
G02*
X175460297Y-59111321I237500J0D01*
G01*
X175935297Y-59111321D01*
G75*
G02*
X176172797Y-59348821I0J-237500D01*
G01*
X176172797Y-59848821D01*
G75*
G02*
X175935297Y-60086321I-237500J0D01*
G01*
G37*
%TD*%
%TO.C,R32*%
G36*
G01*
X178475297Y-58261321D02*
X178000297Y-58261321D01*
G75*
G02*
X177762797Y-58023821I0J237500D01*
G01*
X177762797Y-57523821D01*
G75*
G02*
X178000297Y-57286321I237500J0D01*
G01*
X178475297Y-57286321D01*
G75*
G02*
X178712797Y-57523821I0J-237500D01*
G01*
X178712797Y-58023821D01*
G75*
G02*
X178475297Y-58261321I-237500J0D01*
G01*
G37*
G36*
G01*
X178475297Y-60086321D02*
X178000297Y-60086321D01*
G75*
G02*
X177762797Y-59848821I0J237500D01*
G01*
X177762797Y-59348821D01*
G75*
G02*
X178000297Y-59111321I237500J0D01*
G01*
X178475297Y-59111321D01*
G75*
G02*
X178712797Y-59348821I0J-237500D01*
G01*
X178712797Y-59848821D01*
G75*
G02*
X178475297Y-60086321I-237500J0D01*
G01*
G37*
%TD*%
%TO.C,R31*%
G36*
G01*
X181015298Y-58261321D02*
X180540298Y-58261321D01*
G75*
G02*
X180302798Y-58023821I0J237500D01*
G01*
X180302798Y-57523821D01*
G75*
G02*
X180540298Y-57286321I237500J0D01*
G01*
X181015298Y-57286321D01*
G75*
G02*
X181252798Y-57523821I0J-237500D01*
G01*
X181252798Y-58023821D01*
G75*
G02*
X181015298Y-58261321I-237500J0D01*
G01*
G37*
G36*
G01*
X181015298Y-60086321D02*
X180540298Y-60086321D01*
G75*
G02*
X180302798Y-59848821I0J237500D01*
G01*
X180302798Y-59348821D01*
G75*
G02*
X180540298Y-59111321I237500J0D01*
G01*
X181015298Y-59111321D01*
G75*
G02*
X181252798Y-59348821I0J-237500D01*
G01*
X181252798Y-59848821D01*
G75*
G02*
X181015298Y-60086321I-237500J0D01*
G01*
G37*
%TD*%
%TO.C,R30*%
G36*
G01*
X183555297Y-58261321D02*
X183080297Y-58261321D01*
G75*
G02*
X182842797Y-58023821I0J237500D01*
G01*
X182842797Y-57523821D01*
G75*
G02*
X183080297Y-57286321I237500J0D01*
G01*
X183555297Y-57286321D01*
G75*
G02*
X183792797Y-57523821I0J-237500D01*
G01*
X183792797Y-58023821D01*
G75*
G02*
X183555297Y-58261321I-237500J0D01*
G01*
G37*
G36*
G01*
X183555297Y-60086321D02*
X183080297Y-60086321D01*
G75*
G02*
X182842797Y-59848821I0J237500D01*
G01*
X182842797Y-59348821D01*
G75*
G02*
X183080297Y-59111321I237500J0D01*
G01*
X183555297Y-59111321D01*
G75*
G02*
X183792797Y-59348821I0J-237500D01*
G01*
X183792797Y-59848821D01*
G75*
G02*
X183555297Y-60086321I-237500J0D01*
G01*
G37*
%TD*%
%TO.C,R29*%
G36*
G01*
X186095297Y-58261321D02*
X185620297Y-58261321D01*
G75*
G02*
X185382797Y-58023821I0J237500D01*
G01*
X185382797Y-57523821D01*
G75*
G02*
X185620297Y-57286321I237500J0D01*
G01*
X186095297Y-57286321D01*
G75*
G02*
X186332797Y-57523821I0J-237500D01*
G01*
X186332797Y-58023821D01*
G75*
G02*
X186095297Y-58261321I-237500J0D01*
G01*
G37*
G36*
G01*
X186095297Y-60086321D02*
X185620297Y-60086321D01*
G75*
G02*
X185382797Y-59848821I0J237500D01*
G01*
X185382797Y-59348821D01*
G75*
G02*
X185620297Y-59111321I237500J0D01*
G01*
X186095297Y-59111321D01*
G75*
G02*
X186332797Y-59348821I0J-237500D01*
G01*
X186332797Y-59848821D01*
G75*
G02*
X186095297Y-60086321I-237500J0D01*
G01*
G37*
%TD*%
%TO.C,R28*%
G36*
G01*
X188635296Y-58261322D02*
X188160296Y-58261322D01*
G75*
G02*
X187922796Y-58023822I0J237500D01*
G01*
X187922796Y-57523822D01*
G75*
G02*
X188160296Y-57286322I237500J0D01*
G01*
X188635296Y-57286322D01*
G75*
G02*
X188872796Y-57523822I0J-237500D01*
G01*
X188872796Y-58023822D01*
G75*
G02*
X188635296Y-58261322I-237500J0D01*
G01*
G37*
G36*
G01*
X188635296Y-60086322D02*
X188160296Y-60086322D01*
G75*
G02*
X187922796Y-59848822I0J237500D01*
G01*
X187922796Y-59348822D01*
G75*
G02*
X188160296Y-59111322I237500J0D01*
G01*
X188635296Y-59111322D01*
G75*
G02*
X188872796Y-59348822I0J-237500D01*
G01*
X188872796Y-59848822D01*
G75*
G02*
X188635296Y-60086322I-237500J0D01*
G01*
G37*
%TD*%
%TO.C,R27*%
G36*
G01*
X191175298Y-58261322D02*
X190700298Y-58261322D01*
G75*
G02*
X190462798Y-58023822I0J237500D01*
G01*
X190462798Y-57523822D01*
G75*
G02*
X190700298Y-57286322I237500J0D01*
G01*
X191175298Y-57286322D01*
G75*
G02*
X191412798Y-57523822I0J-237500D01*
G01*
X191412798Y-58023822D01*
G75*
G02*
X191175298Y-58261322I-237500J0D01*
G01*
G37*
G36*
G01*
X191175298Y-60086322D02*
X190700298Y-60086322D01*
G75*
G02*
X190462798Y-59848822I0J237500D01*
G01*
X190462798Y-59348822D01*
G75*
G02*
X190700298Y-59111322I237500J0D01*
G01*
X191175298Y-59111322D01*
G75*
G02*
X191412798Y-59348822I0J-237500D01*
G01*
X191412798Y-59848822D01*
G75*
G02*
X191175298Y-60086322I-237500J0D01*
G01*
G37*
%TD*%
%TO.C,R26*%
G36*
G01*
X193715297Y-58261321D02*
X193240297Y-58261321D01*
G75*
G02*
X193002797Y-58023821I0J237500D01*
G01*
X193002797Y-57523821D01*
G75*
G02*
X193240297Y-57286321I237500J0D01*
G01*
X193715297Y-57286321D01*
G75*
G02*
X193952797Y-57523821I0J-237500D01*
G01*
X193952797Y-58023821D01*
G75*
G02*
X193715297Y-58261321I-237500J0D01*
G01*
G37*
G36*
G01*
X193715297Y-60086321D02*
X193240297Y-60086321D01*
G75*
G02*
X193002797Y-59848821I0J237500D01*
G01*
X193002797Y-59348821D01*
G75*
G02*
X193240297Y-59111321I237500J0D01*
G01*
X193715297Y-59111321D01*
G75*
G02*
X193952797Y-59348821I0J-237500D01*
G01*
X193952797Y-59848821D01*
G75*
G02*
X193715297Y-60086321I-237500J0D01*
G01*
G37*
%TD*%
%TO.C,R25*%
G36*
G01*
X196255297Y-58261321D02*
X195780297Y-58261321D01*
G75*
G02*
X195542797Y-58023821I0J237500D01*
G01*
X195542797Y-57523821D01*
G75*
G02*
X195780297Y-57286321I237500J0D01*
G01*
X196255297Y-57286321D01*
G75*
G02*
X196492797Y-57523821I0J-237500D01*
G01*
X196492797Y-58023821D01*
G75*
G02*
X196255297Y-58261321I-237500J0D01*
G01*
G37*
G36*
G01*
X196255297Y-60086321D02*
X195780297Y-60086321D01*
G75*
G02*
X195542797Y-59848821I0J237500D01*
G01*
X195542797Y-59348821D01*
G75*
G02*
X195780297Y-59111321I237500J0D01*
G01*
X196255297Y-59111321D01*
G75*
G02*
X196492797Y-59348821I0J-237500D01*
G01*
X196492797Y-59848821D01*
G75*
G02*
X196255297Y-60086321I-237500J0D01*
G01*
G37*
%TD*%
%TO.C,R24*%
G36*
G01*
X198795297Y-58261321D02*
X198320297Y-58261321D01*
G75*
G02*
X198082797Y-58023821I0J237500D01*
G01*
X198082797Y-57523821D01*
G75*
G02*
X198320297Y-57286321I237500J0D01*
G01*
X198795297Y-57286321D01*
G75*
G02*
X199032797Y-57523821I0J-237500D01*
G01*
X199032797Y-58023821D01*
G75*
G02*
X198795297Y-58261321I-237500J0D01*
G01*
G37*
G36*
G01*
X198795297Y-60086321D02*
X198320297Y-60086321D01*
G75*
G02*
X198082797Y-59848821I0J237500D01*
G01*
X198082797Y-59348821D01*
G75*
G02*
X198320297Y-59111321I237500J0D01*
G01*
X198795297Y-59111321D01*
G75*
G02*
X199032797Y-59348821I0J-237500D01*
G01*
X199032797Y-59848821D01*
G75*
G02*
X198795297Y-60086321I-237500J0D01*
G01*
G37*
%TD*%
%TO.C,R23*%
G36*
G01*
X201365297Y-58376320D02*
X200890297Y-58376320D01*
G75*
G02*
X200652797Y-58138820I0J237500D01*
G01*
X200652797Y-57638820D01*
G75*
G02*
X200890297Y-57401320I237500J0D01*
G01*
X201365297Y-57401320D01*
G75*
G02*
X201602797Y-57638820I0J-237500D01*
G01*
X201602797Y-58138820D01*
G75*
G02*
X201365297Y-58376320I-237500J0D01*
G01*
G37*
G36*
G01*
X201365297Y-60201320D02*
X200890297Y-60201320D01*
G75*
G02*
X200652797Y-59963820I0J237500D01*
G01*
X200652797Y-59463820D01*
G75*
G02*
X200890297Y-59226320I237500J0D01*
G01*
X201365297Y-59226320D01*
G75*
G02*
X201602797Y-59463820I0J-237500D01*
G01*
X201602797Y-59963820D01*
G75*
G02*
X201365297Y-60201320I-237500J0D01*
G01*
G37*
%TD*%
%TO.C,R22*%
G36*
G01*
X203875298Y-58261321D02*
X203400298Y-58261321D01*
G75*
G02*
X203162798Y-58023821I0J237500D01*
G01*
X203162798Y-57523821D01*
G75*
G02*
X203400298Y-57286321I237500J0D01*
G01*
X203875298Y-57286321D01*
G75*
G02*
X204112798Y-57523821I0J-237500D01*
G01*
X204112798Y-58023821D01*
G75*
G02*
X203875298Y-58261321I-237500J0D01*
G01*
G37*
G36*
G01*
X203875298Y-60086321D02*
X203400298Y-60086321D01*
G75*
G02*
X203162798Y-59848821I0J237500D01*
G01*
X203162798Y-59348821D01*
G75*
G02*
X203400298Y-59111321I237500J0D01*
G01*
X203875298Y-59111321D01*
G75*
G02*
X204112798Y-59348821I0J-237500D01*
G01*
X204112798Y-59848821D01*
G75*
G02*
X203875298Y-60086321I-237500J0D01*
G01*
G37*
%TD*%
%TO.C,R21*%
G36*
G01*
X206415297Y-58261321D02*
X205940297Y-58261321D01*
G75*
G02*
X205702797Y-58023821I0J237500D01*
G01*
X205702797Y-57523821D01*
G75*
G02*
X205940297Y-57286321I237500J0D01*
G01*
X206415297Y-57286321D01*
G75*
G02*
X206652797Y-57523821I0J-237500D01*
G01*
X206652797Y-58023821D01*
G75*
G02*
X206415297Y-58261321I-237500J0D01*
G01*
G37*
G36*
G01*
X206415297Y-60086321D02*
X205940297Y-60086321D01*
G75*
G02*
X205702797Y-59848821I0J237500D01*
G01*
X205702797Y-59348821D01*
G75*
G02*
X205940297Y-59111321I237500J0D01*
G01*
X206415297Y-59111321D01*
G75*
G02*
X206652797Y-59348821I0J-237500D01*
G01*
X206652797Y-59848821D01*
G75*
G02*
X206415297Y-60086321I-237500J0D01*
G01*
G37*
%TD*%
%TO.C,R20*%
G36*
G01*
X208955297Y-58261321D02*
X208480297Y-58261321D01*
G75*
G02*
X208242797Y-58023821I0J237500D01*
G01*
X208242797Y-57523821D01*
G75*
G02*
X208480297Y-57286321I237500J0D01*
G01*
X208955297Y-57286321D01*
G75*
G02*
X209192797Y-57523821I0J-237500D01*
G01*
X209192797Y-58023821D01*
G75*
G02*
X208955297Y-58261321I-237500J0D01*
G01*
G37*
G36*
G01*
X208955297Y-60086321D02*
X208480297Y-60086321D01*
G75*
G02*
X208242797Y-59848821I0J237500D01*
G01*
X208242797Y-59348821D01*
G75*
G02*
X208480297Y-59111321I237500J0D01*
G01*
X208955297Y-59111321D01*
G75*
G02*
X209192797Y-59348821I0J-237500D01*
G01*
X209192797Y-59848821D01*
G75*
G02*
X208955297Y-60086321I-237500J0D01*
G01*
G37*
%TD*%
%TO.C,R19*%
G36*
G01*
X192705500Y-124739680D02*
X193180500Y-124739680D01*
G75*
G02*
X193418000Y-124977180I0J-237500D01*
G01*
X193418000Y-125477180D01*
G75*
G02*
X193180500Y-125714680I-237500J0D01*
G01*
X192705500Y-125714680D01*
G75*
G02*
X192468000Y-125477180I0J237500D01*
G01*
X192468000Y-124977180D01*
G75*
G02*
X192705500Y-124739680I237500J0D01*
G01*
G37*
G36*
G01*
X192705500Y-122914680D02*
X193180500Y-122914680D01*
G75*
G02*
X193418000Y-123152180I0J-237500D01*
G01*
X193418000Y-123652180D01*
G75*
G02*
X193180500Y-123889680I-237500J0D01*
G01*
X192705500Y-123889680D01*
G75*
G02*
X192468000Y-123652180I0J237500D01*
G01*
X192468000Y-123152180D01*
G75*
G02*
X192705500Y-122914680I237500J0D01*
G01*
G37*
%TD*%
%TO.C,R18*%
G36*
G01*
X190705499Y-124739680D02*
X191180499Y-124739680D01*
G75*
G02*
X191417999Y-124977180I0J-237500D01*
G01*
X191417999Y-125477180D01*
G75*
G02*
X191180499Y-125714680I-237500J0D01*
G01*
X190705499Y-125714680D01*
G75*
G02*
X190467999Y-125477180I0J237500D01*
G01*
X190467999Y-124977180D01*
G75*
G02*
X190705499Y-124739680I237500J0D01*
G01*
G37*
G36*
G01*
X190705499Y-122914680D02*
X191180499Y-122914680D01*
G75*
G02*
X191417999Y-123152180I0J-237500D01*
G01*
X191417999Y-123652180D01*
G75*
G02*
X191180499Y-123889680I-237500J0D01*
G01*
X190705499Y-123889680D01*
G75*
G02*
X190467999Y-123652180I0J237500D01*
G01*
X190467999Y-123152180D01*
G75*
G02*
X190705499Y-122914680I237500J0D01*
G01*
G37*
%TD*%
%TO.C,R17*%
G36*
G01*
X188705500Y-124739680D02*
X189180500Y-124739680D01*
G75*
G02*
X189418000Y-124977180I0J-237500D01*
G01*
X189418000Y-125477180D01*
G75*
G02*
X189180500Y-125714680I-237500J0D01*
G01*
X188705500Y-125714680D01*
G75*
G02*
X188468000Y-125477180I0J237500D01*
G01*
X188468000Y-124977180D01*
G75*
G02*
X188705500Y-124739680I237500J0D01*
G01*
G37*
G36*
G01*
X188705500Y-122914680D02*
X189180500Y-122914680D01*
G75*
G02*
X189418000Y-123152180I0J-237500D01*
G01*
X189418000Y-123652180D01*
G75*
G02*
X189180500Y-123889680I-237500J0D01*
G01*
X188705500Y-123889680D01*
G75*
G02*
X188468000Y-123652180I0J237500D01*
G01*
X188468000Y-123152180D01*
G75*
G02*
X188705500Y-122914680I237500J0D01*
G01*
G37*
%TD*%
%TO.C,R16*%
G36*
G01*
X186705500Y-124739679D02*
X187180500Y-124739679D01*
G75*
G02*
X187418000Y-124977179I0J-237500D01*
G01*
X187418000Y-125477179D01*
G75*
G02*
X187180500Y-125714679I-237500J0D01*
G01*
X186705500Y-125714679D01*
G75*
G02*
X186468000Y-125477179I0J237500D01*
G01*
X186468000Y-124977179D01*
G75*
G02*
X186705500Y-124739679I237500J0D01*
G01*
G37*
G36*
G01*
X186705500Y-122914679D02*
X187180500Y-122914679D01*
G75*
G02*
X187418000Y-123152179I0J-237500D01*
G01*
X187418000Y-123652179D01*
G75*
G02*
X187180500Y-123889679I-237500J0D01*
G01*
X186705500Y-123889679D01*
G75*
G02*
X186468000Y-123652179I0J237500D01*
G01*
X186468000Y-123152179D01*
G75*
G02*
X186705500Y-122914679I237500J0D01*
G01*
G37*
%TD*%
%TO.C,R15*%
G36*
G01*
X184705500Y-124739680D02*
X185180500Y-124739680D01*
G75*
G02*
X185418000Y-124977180I0J-237500D01*
G01*
X185418000Y-125477180D01*
G75*
G02*
X185180500Y-125714680I-237500J0D01*
G01*
X184705500Y-125714680D01*
G75*
G02*
X184468000Y-125477180I0J237500D01*
G01*
X184468000Y-124977180D01*
G75*
G02*
X184705500Y-124739680I237500J0D01*
G01*
G37*
G36*
G01*
X184705500Y-122914680D02*
X185180500Y-122914680D01*
G75*
G02*
X185418000Y-123152180I0J-237500D01*
G01*
X185418000Y-123652180D01*
G75*
G02*
X185180500Y-123889680I-237500J0D01*
G01*
X184705500Y-123889680D01*
G75*
G02*
X184468000Y-123652180I0J237500D01*
G01*
X184468000Y-123152180D01*
G75*
G02*
X184705500Y-122914680I237500J0D01*
G01*
G37*
%TD*%
D22*
%TO.C,D7*%
X121068000Y-115555000D03*
X121068000Y-117155000D03*
X121068000Y-118755000D03*
X116168000Y-118755000D03*
X116168000Y-117155000D03*
X116168000Y-115555000D03*
%TD*%
D23*
%TO.C,Y2*%
X191872999Y-105865000D03*
X195122999Y-105865000D03*
%TD*%
D24*
%TO.C,Y1*%
X186856000Y-85743000D03*
X186856000Y-83543000D03*
X188556000Y-83543000D03*
X188556000Y-85743000D03*
%TD*%
D25*
%TO.C,U4*%
X158360200Y-104460000D03*
X158360200Y-105730000D03*
X158360200Y-107000000D03*
X158360200Y-108270000D03*
X153635800Y-108270000D03*
X153635800Y-107000000D03*
X153635800Y-105730000D03*
X153635800Y-104460000D03*
%TD*%
D26*
%TO.C,U3*%
X143498000Y-48110000D03*
X143498000Y-49380000D03*
X143498000Y-50650000D03*
X143498000Y-51920000D03*
X143498000Y-53190000D03*
X143498000Y-54460000D03*
X143498000Y-55730000D03*
X143498000Y-57000000D03*
X143498000Y-58270000D03*
X143498000Y-59540000D03*
X143498000Y-60810000D03*
X143498000Y-62080000D03*
X143498000Y-63350000D03*
X143498000Y-64620000D03*
D27*
X140713000Y-65620000D03*
X139443000Y-65620000D03*
X138173000Y-65620000D03*
X136903000Y-65620000D03*
X135633000Y-65620000D03*
X134363000Y-65620000D03*
X133093000Y-65620000D03*
X131823000Y-65620000D03*
X130553000Y-65620000D03*
X129283000Y-65620000D03*
D26*
X126498000Y-64620000D03*
X126498000Y-63350000D03*
X126498000Y-62080000D03*
X126498000Y-60810000D03*
X126498000Y-59540000D03*
X126498000Y-58270000D03*
X126498000Y-57000000D03*
X126498000Y-55730000D03*
X126498000Y-54460000D03*
X126498000Y-53190000D03*
X126498000Y-51920000D03*
X126498000Y-50650000D03*
X126498000Y-49380000D03*
X126498000Y-48110000D03*
D28*
X133998000Y-55610000D03*
%TD*%
D15*
%TO.C,U2*%
X122434000Y-99538001D03*
X122434000Y-94938001D03*
X122434000Y-97238001D03*
D16*
X116134000Y-97238001D03*
%TD*%
D15*
%TO.C,U1*%
X120148000Y-109665000D03*
X120148000Y-105065000D03*
X120148000Y-107365000D03*
D16*
X113848000Y-107365000D03*
%TD*%
D29*
%TO.C,SW2*%
X148723000Y-57915000D03*
X148723000Y-48815000D03*
X153273000Y-57915000D03*
X153273000Y-48815000D03*
%TD*%
%TO.C,SW1*%
X116723000Y-57915000D03*
X116723000Y-48815000D03*
X121273000Y-57915000D03*
X121273000Y-48815000D03*
%TD*%
%TO.C,R11*%
G36*
G01*
X187094725Y-105345800D02*
X186619725Y-105345800D01*
G75*
G02*
X186382225Y-105108300I0J237500D01*
G01*
X186382225Y-104608300D01*
G75*
G02*
X186619725Y-104370800I237500J0D01*
G01*
X187094725Y-104370800D01*
G75*
G02*
X187332225Y-104608300I0J-237500D01*
G01*
X187332225Y-105108300D01*
G75*
G02*
X187094725Y-105345800I-237500J0D01*
G01*
G37*
G36*
G01*
X187094725Y-107170800D02*
X186619725Y-107170800D01*
G75*
G02*
X186382225Y-106933300I0J237500D01*
G01*
X186382225Y-106433300D01*
G75*
G02*
X186619725Y-106195800I237500J0D01*
G01*
X187094725Y-106195800D01*
G75*
G02*
X187332225Y-106433300I0J-237500D01*
G01*
X187332225Y-106933300D01*
G75*
G02*
X187094725Y-107170800I-237500J0D01*
G01*
G37*
%TD*%
%TO.C,R10*%
G36*
G01*
X192335500Y-97102500D02*
X192335500Y-96627500D01*
G75*
G02*
X192573000Y-96390000I237500J0D01*
G01*
X193073000Y-96390000D01*
G75*
G02*
X193310500Y-96627500I0J-237500D01*
G01*
X193310500Y-97102500D01*
G75*
G02*
X193073000Y-97340000I-237500J0D01*
G01*
X192573000Y-97340000D01*
G75*
G02*
X192335500Y-97102500I0J237500D01*
G01*
G37*
G36*
G01*
X190510500Y-97102500D02*
X190510500Y-96627500D01*
G75*
G02*
X190748000Y-96390000I237500J0D01*
G01*
X191248000Y-96390000D01*
G75*
G02*
X191485500Y-96627500I0J-237500D01*
G01*
X191485500Y-97102500D01*
G75*
G02*
X191248000Y-97340000I-237500J0D01*
G01*
X190748000Y-97340000D01*
G75*
G02*
X190510500Y-97102500I0J237500D01*
G01*
G37*
%TD*%
%TO.C,R9*%
G36*
G01*
X163660500Y-104127500D02*
X163660500Y-104602500D01*
G75*
G02*
X163423000Y-104840000I-237500J0D01*
G01*
X162923000Y-104840000D01*
G75*
G02*
X162685500Y-104602500I0J237500D01*
G01*
X162685500Y-104127500D01*
G75*
G02*
X162923000Y-103890000I237500J0D01*
G01*
X163423000Y-103890000D01*
G75*
G02*
X163660500Y-104127500I0J-237500D01*
G01*
G37*
G36*
G01*
X165485500Y-104127500D02*
X165485500Y-104602500D01*
G75*
G02*
X165248000Y-104840000I-237500J0D01*
G01*
X164748000Y-104840000D01*
G75*
G02*
X164510500Y-104602500I0J237500D01*
G01*
X164510500Y-104127500D01*
G75*
G02*
X164748000Y-103890000I237500J0D01*
G01*
X165248000Y-103890000D01*
G75*
G02*
X165485500Y-104127500I0J-237500D01*
G01*
G37*
%TD*%
%TO.C,R8*%
G36*
G01*
X155573000Y-102127500D02*
X155573000Y-102602500D01*
G75*
G02*
X155335500Y-102840000I-237500J0D01*
G01*
X154835500Y-102840000D01*
G75*
G02*
X154598000Y-102602500I0J237500D01*
G01*
X154598000Y-102127500D01*
G75*
G02*
X154835500Y-101890000I237500J0D01*
G01*
X155335500Y-101890000D01*
G75*
G02*
X155573000Y-102127500I0J-237500D01*
G01*
G37*
G36*
G01*
X157398000Y-102127500D02*
X157398000Y-102602500D01*
G75*
G02*
X157160500Y-102840000I-237500J0D01*
G01*
X156660500Y-102840000D01*
G75*
G02*
X156423000Y-102602500I0J237500D01*
G01*
X156423000Y-102127500D01*
G75*
G02*
X156660500Y-101890000I237500J0D01*
G01*
X157160500Y-101890000D01*
G75*
G02*
X157398000Y-102127500I0J-237500D01*
G01*
G37*
%TD*%
%TO.C,R7*%
G36*
G01*
X195923000Y-101602500D02*
X195923000Y-101127500D01*
G75*
G02*
X196160500Y-100890000I237500J0D01*
G01*
X196660500Y-100890000D01*
G75*
G02*
X196898000Y-101127500I0J-237500D01*
G01*
X196898000Y-101602500D01*
G75*
G02*
X196660500Y-101840000I-237500J0D01*
G01*
X196160500Y-101840000D01*
G75*
G02*
X195923000Y-101602500I0J237500D01*
G01*
G37*
G36*
G01*
X194098000Y-101602500D02*
X194098000Y-101127500D01*
G75*
G02*
X194335500Y-100890000I237500J0D01*
G01*
X194835500Y-100890000D01*
G75*
G02*
X195073000Y-101127500I0J-237500D01*
G01*
X195073000Y-101602500D01*
G75*
G02*
X194835500Y-101840000I-237500J0D01*
G01*
X194335500Y-101840000D01*
G75*
G02*
X194098000Y-101602500I0J237500D01*
G01*
G37*
%TD*%
%TO.C,R4*%
G36*
G01*
X164510500Y-106602500D02*
X164510500Y-106127500D01*
G75*
G02*
X164748000Y-105890000I237500J0D01*
G01*
X165248000Y-105890000D01*
G75*
G02*
X165485500Y-106127500I0J-237500D01*
G01*
X165485500Y-106602500D01*
G75*
G02*
X165248000Y-106840000I-237500J0D01*
G01*
X164748000Y-106840000D01*
G75*
G02*
X164510500Y-106602500I0J237500D01*
G01*
G37*
G36*
G01*
X162685500Y-106602500D02*
X162685500Y-106127500D01*
G75*
G02*
X162923000Y-105890000I237500J0D01*
G01*
X163423000Y-105890000D01*
G75*
G02*
X163660500Y-106127500I0J-237500D01*
G01*
X163660500Y-106602500D01*
G75*
G02*
X163423000Y-106840000I-237500J0D01*
G01*
X162923000Y-106840000D01*
G75*
G02*
X162685500Y-106602500I0J237500D01*
G01*
G37*
%TD*%
%TO.C,R3*%
G36*
G01*
X163660500Y-108127500D02*
X163660500Y-108602500D01*
G75*
G02*
X163423000Y-108840000I-237500J0D01*
G01*
X162923000Y-108840000D01*
G75*
G02*
X162685500Y-108602500I0J237500D01*
G01*
X162685500Y-108127500D01*
G75*
G02*
X162923000Y-107890000I237500J0D01*
G01*
X163423000Y-107890000D01*
G75*
G02*
X163660500Y-108127500I0J-237500D01*
G01*
G37*
G36*
G01*
X165485500Y-108127500D02*
X165485500Y-108602500D01*
G75*
G02*
X165248000Y-108840000I-237500J0D01*
G01*
X164748000Y-108840000D01*
G75*
G02*
X164510500Y-108602500I0J237500D01*
G01*
X164510500Y-108127500D01*
G75*
G02*
X164748000Y-107890000I237500J0D01*
G01*
X165248000Y-107890000D01*
G75*
G02*
X165485500Y-108127500I0J-237500D01*
G01*
G37*
%TD*%
%TO.C,R2*%
G36*
G01*
X137660500Y-97477500D02*
X137660500Y-97952500D01*
G75*
G02*
X137423000Y-98190000I-237500J0D01*
G01*
X136923000Y-98190000D01*
G75*
G02*
X136685500Y-97952500I0J237500D01*
G01*
X136685500Y-97477500D01*
G75*
G02*
X136923000Y-97240000I237500J0D01*
G01*
X137423000Y-97240000D01*
G75*
G02*
X137660500Y-97477500I0J-237500D01*
G01*
G37*
G36*
G01*
X139485500Y-97477500D02*
X139485500Y-97952500D01*
G75*
G02*
X139248000Y-98190000I-237500J0D01*
G01*
X138748000Y-98190000D01*
G75*
G02*
X138510500Y-97952500I0J237500D01*
G01*
X138510500Y-97477500D01*
G75*
G02*
X138748000Y-97240000I237500J0D01*
G01*
X139248000Y-97240000D01*
G75*
G02*
X139485500Y-97477500I0J-237500D01*
G01*
G37*
%TD*%
%TO.C,R1*%
G36*
G01*
X135598000Y-104914999D02*
X135598000Y-105815001D01*
G75*
G02*
X135348001Y-106065000I-249999J0D01*
G01*
X134647999Y-106065000D01*
G75*
G02*
X134398000Y-105815001I0J249999D01*
G01*
X134398000Y-104914999D01*
G75*
G02*
X134647999Y-104665000I249999J0D01*
G01*
X135348001Y-104665000D01*
G75*
G02*
X135598000Y-104914999I0J-249999D01*
G01*
G37*
G36*
G01*
X137598000Y-104914999D02*
X137598000Y-105815001D01*
G75*
G02*
X137348001Y-106065000I-249999J0D01*
G01*
X136647999Y-106065000D01*
G75*
G02*
X136398000Y-105815001I0J249999D01*
G01*
X136398000Y-104914999D01*
G75*
G02*
X136647999Y-104665000I249999J0D01*
G01*
X137348001Y-104665000D01*
G75*
G02*
X137598000Y-104914999I0J-249999D01*
G01*
G37*
%TD*%
%TO.C,L4*%
G36*
G01*
X169335500Y-108602500D02*
X169335500Y-108127500D01*
G75*
G02*
X169573000Y-107890000I237500J0D01*
G01*
X170073000Y-107890000D01*
G75*
G02*
X170310500Y-108127500I0J-237500D01*
G01*
X170310500Y-108602500D01*
G75*
G02*
X170073000Y-108840000I-237500J0D01*
G01*
X169573000Y-108840000D01*
G75*
G02*
X169335500Y-108602500I0J237500D01*
G01*
G37*
G36*
G01*
X167510500Y-108602500D02*
X167510500Y-108127500D01*
G75*
G02*
X167748000Y-107890000I237500J0D01*
G01*
X168248000Y-107890000D01*
G75*
G02*
X168485500Y-108127500I0J-237500D01*
G01*
X168485500Y-108602500D01*
G75*
G02*
X168248000Y-108840000I-237500J0D01*
G01*
X167748000Y-108840000D01*
G75*
G02*
X167510500Y-108602500I0J237500D01*
G01*
G37*
%TD*%
%TO.C,L3*%
G36*
G01*
X169335500Y-106602500D02*
X169335500Y-106127500D01*
G75*
G02*
X169573000Y-105890000I237500J0D01*
G01*
X170073000Y-105890000D01*
G75*
G02*
X170310500Y-106127500I0J-237500D01*
G01*
X170310500Y-106602500D01*
G75*
G02*
X170073000Y-106840000I-237500J0D01*
G01*
X169573000Y-106840000D01*
G75*
G02*
X169335500Y-106602500I0J237500D01*
G01*
G37*
G36*
G01*
X167510500Y-106602500D02*
X167510500Y-106127500D01*
G75*
G02*
X167748000Y-105890000I237500J0D01*
G01*
X168248000Y-105890000D01*
G75*
G02*
X168485500Y-106127500I0J-237500D01*
G01*
X168485500Y-106602500D01*
G75*
G02*
X168248000Y-106840000I-237500J0D01*
G01*
X167748000Y-106840000D01*
G75*
G02*
X167510500Y-106602500I0J237500D01*
G01*
G37*
%TD*%
%TO.C,L2*%
G36*
G01*
X169335500Y-104602500D02*
X169335500Y-104127500D01*
G75*
G02*
X169573000Y-103890000I237500J0D01*
G01*
X170073000Y-103890000D01*
G75*
G02*
X170310500Y-104127500I0J-237500D01*
G01*
X170310500Y-104602500D01*
G75*
G02*
X170073000Y-104840000I-237500J0D01*
G01*
X169573000Y-104840000D01*
G75*
G02*
X169335500Y-104602500I0J237500D01*
G01*
G37*
G36*
G01*
X167510500Y-104602500D02*
X167510500Y-104127500D01*
G75*
G02*
X167748000Y-103890000I237500J0D01*
G01*
X168248000Y-103890000D01*
G75*
G02*
X168485500Y-104127500I0J-237500D01*
G01*
X168485500Y-104602500D01*
G75*
G02*
X168248000Y-104840000I-237500J0D01*
G01*
X167748000Y-104840000D01*
G75*
G02*
X167510500Y-104602500I0J237500D01*
G01*
G37*
%TD*%
%TO.C,L1*%
G36*
G01*
X195584900Y-92033300D02*
X195584900Y-92508300D01*
G75*
G02*
X195347400Y-92745800I-237500J0D01*
G01*
X194772400Y-92745800D01*
G75*
G02*
X194534900Y-92508300I0J237500D01*
G01*
X194534900Y-92033300D01*
G75*
G02*
X194772400Y-91795800I237500J0D01*
G01*
X195347400Y-91795800D01*
G75*
G02*
X195584900Y-92033300I0J-237500D01*
G01*
G37*
G36*
G01*
X197334900Y-92033300D02*
X197334900Y-92508300D01*
G75*
G02*
X197097400Y-92745800I-237500J0D01*
G01*
X196522400Y-92745800D01*
G75*
G02*
X196284900Y-92508300I0J237500D01*
G01*
X196284900Y-92033300D01*
G75*
G02*
X196522400Y-91795800I237500J0D01*
G01*
X197097400Y-91795800D01*
G75*
G02*
X197334900Y-92033300I0J-237500D01*
G01*
G37*
%TD*%
D17*
%TO.C,J5*%
X208914500Y-113210999D03*
X208914500Y-115460999D03*
D18*
X206684500Y-112015999D03*
X206684500Y-116655999D03*
D19*
X206264500Y-113035999D03*
X206264500Y-113675999D03*
X206264500Y-114335999D03*
X206264500Y-114985999D03*
X206264500Y-115635999D03*
%TD*%
%TO.C,D3*%
G36*
G01*
X134413000Y-97992500D02*
X134413000Y-97517500D01*
G75*
G02*
X134650500Y-97280000I237500J0D01*
G01*
X135225500Y-97280000D01*
G75*
G02*
X135463000Y-97517500I0J-237500D01*
G01*
X135463000Y-97992500D01*
G75*
G02*
X135225500Y-98230000I-237500J0D01*
G01*
X134650500Y-98230000D01*
G75*
G02*
X134413000Y-97992500I0J237500D01*
G01*
G37*
G36*
G01*
X132663000Y-97992500D02*
X132663000Y-97517500D01*
G75*
G02*
X132900500Y-97280000I237500J0D01*
G01*
X133475500Y-97280000D01*
G75*
G02*
X133713000Y-97517500I0J-237500D01*
G01*
X133713000Y-97992500D01*
G75*
G02*
X133475500Y-98230000I-237500J0D01*
G01*
X132900500Y-98230000D01*
G75*
G02*
X132663000Y-97992500I0J237500D01*
G01*
G37*
%TD*%
D20*
%TO.C,D2*%
X133498000Y-102365000D03*
X138498000Y-102365000D03*
%TD*%
%TO.C,D1*%
X138498000Y-109365000D03*
X133498000Y-109365000D03*
%TD*%
%TO.C,C36*%
G36*
G01*
X182338175Y-106095800D02*
X182813175Y-106095800D01*
G75*
G02*
X183050675Y-106333300I0J-237500D01*
G01*
X183050675Y-106933300D01*
G75*
G02*
X182813175Y-107170800I-237500J0D01*
G01*
X182338175Y-107170800D01*
G75*
G02*
X182100675Y-106933300I0J237500D01*
G01*
X182100675Y-106333300D01*
G75*
G02*
X182338175Y-106095800I237500J0D01*
G01*
G37*
G36*
G01*
X182338175Y-104370800D02*
X182813175Y-104370800D01*
G75*
G02*
X183050675Y-104608300I0J-237500D01*
G01*
X183050675Y-105208300D01*
G75*
G02*
X182813175Y-105445800I-237500J0D01*
G01*
X182338175Y-105445800D01*
G75*
G02*
X182100675Y-105208300I0J237500D01*
G01*
X182100675Y-104608300D01*
G75*
G02*
X182338175Y-104370800I237500J0D01*
G01*
G37*
%TD*%
%TO.C,C35*%
G36*
G01*
X186832000Y-88420400D02*
X186357000Y-88420400D01*
G75*
G02*
X186119500Y-88182900I0J237500D01*
G01*
X186119500Y-87582900D01*
G75*
G02*
X186357000Y-87345400I237500J0D01*
G01*
X186832000Y-87345400D01*
G75*
G02*
X187069500Y-87582900I0J-237500D01*
G01*
X187069500Y-88182900D01*
G75*
G02*
X186832000Y-88420400I-237500J0D01*
G01*
G37*
G36*
G01*
X186832000Y-90145400D02*
X186357000Y-90145400D01*
G75*
G02*
X186119500Y-89907900I0J237500D01*
G01*
X186119500Y-89307900D01*
G75*
G02*
X186357000Y-89070400I237500J0D01*
G01*
X186832000Y-89070400D01*
G75*
G02*
X187069500Y-89307900I0J-237500D01*
G01*
X187069500Y-89907900D01*
G75*
G02*
X186832000Y-90145400I-237500J0D01*
G01*
G37*
%TD*%
%TO.C,C34*%
G36*
G01*
X185012700Y-88420400D02*
X184537700Y-88420400D01*
G75*
G02*
X184300200Y-88182900I0J237500D01*
G01*
X184300200Y-87582900D01*
G75*
G02*
X184537700Y-87345400I237500J0D01*
G01*
X185012700Y-87345400D01*
G75*
G02*
X185250200Y-87582900I0J-237500D01*
G01*
X185250200Y-88182900D01*
G75*
G02*
X185012700Y-88420400I-237500J0D01*
G01*
G37*
G36*
G01*
X185012700Y-90145400D02*
X184537700Y-90145400D01*
G75*
G02*
X184300200Y-89907900I0J237500D01*
G01*
X184300200Y-89307900D01*
G75*
G02*
X184537700Y-89070400I237500J0D01*
G01*
X185012700Y-89070400D01*
G75*
G02*
X185250200Y-89307900I0J-237500D01*
G01*
X185250200Y-89907900D01*
G75*
G02*
X185012700Y-90145400I-237500J0D01*
G01*
G37*
%TD*%
%TO.C,C33*%
G36*
G01*
X184478950Y-106095800D02*
X184953950Y-106095800D01*
G75*
G02*
X185191450Y-106333300I0J-237500D01*
G01*
X185191450Y-106933300D01*
G75*
G02*
X184953950Y-107170800I-237500J0D01*
G01*
X184478950Y-107170800D01*
G75*
G02*
X184241450Y-106933300I0J237500D01*
G01*
X184241450Y-106333300D01*
G75*
G02*
X184478950Y-106095800I237500J0D01*
G01*
G37*
G36*
G01*
X184478950Y-104370800D02*
X184953950Y-104370800D01*
G75*
G02*
X185191450Y-104608300I0J-237500D01*
G01*
X185191450Y-105208300D01*
G75*
G02*
X184953950Y-105445800I-237500J0D01*
G01*
X184478950Y-105445800D01*
G75*
G02*
X184241450Y-105208300I0J237500D01*
G01*
X184241450Y-104608300D01*
G75*
G02*
X184478950Y-104370800I237500J0D01*
G01*
G37*
%TD*%
%TO.C,C32*%
G36*
G01*
X195609900Y-90127500D02*
X195609900Y-90602500D01*
G75*
G02*
X195372400Y-90840000I-237500J0D01*
G01*
X194772400Y-90840000D01*
G75*
G02*
X194534900Y-90602500I0J237500D01*
G01*
X194534900Y-90127500D01*
G75*
G02*
X194772400Y-89890000I237500J0D01*
G01*
X195372400Y-89890000D01*
G75*
G02*
X195609900Y-90127500I0J-237500D01*
G01*
G37*
G36*
G01*
X197334900Y-90127500D02*
X197334900Y-90602500D01*
G75*
G02*
X197097400Y-90840000I-237500J0D01*
G01*
X196497400Y-90840000D01*
G75*
G02*
X196259900Y-90602500I0J237500D01*
G01*
X196259900Y-90127500D01*
G75*
G02*
X196497400Y-89890000I237500J0D01*
G01*
X197097400Y-89890000D01*
G75*
G02*
X197334900Y-90127500I0J-237500D01*
G01*
G37*
%TD*%
%TO.C,C31*%
G36*
G01*
X183193400Y-88420400D02*
X182718400Y-88420400D01*
G75*
G02*
X182480900Y-88182900I0J237500D01*
G01*
X182480900Y-87582900D01*
G75*
G02*
X182718400Y-87345400I237500J0D01*
G01*
X183193400Y-87345400D01*
G75*
G02*
X183430900Y-87582900I0J-237500D01*
G01*
X183430900Y-88182900D01*
G75*
G02*
X183193400Y-88420400I-237500J0D01*
G01*
G37*
G36*
G01*
X183193400Y-90145400D02*
X182718400Y-90145400D01*
G75*
G02*
X182480900Y-89907900I0J237500D01*
G01*
X182480900Y-89307900D01*
G75*
G02*
X182718400Y-89070400I237500J0D01*
G01*
X183193400Y-89070400D01*
G75*
G02*
X183430900Y-89307900I0J-237500D01*
G01*
X183430900Y-89907900D01*
G75*
G02*
X183193400Y-90145400I-237500J0D01*
G01*
G37*
%TD*%
%TO.C,C30*%
G36*
G01*
X173982500Y-97127500D02*
X173982500Y-97602500D01*
G75*
G02*
X173745000Y-97840000I-237500J0D01*
G01*
X173145000Y-97840000D01*
G75*
G02*
X172907500Y-97602500I0J237500D01*
G01*
X172907500Y-97127500D01*
G75*
G02*
X173145000Y-96890000I237500J0D01*
G01*
X173745000Y-96890000D01*
G75*
G02*
X173982500Y-97127500I0J-237500D01*
G01*
G37*
G36*
G01*
X175707500Y-97127500D02*
X175707500Y-97602500D01*
G75*
G02*
X175470000Y-97840000I-237500J0D01*
G01*
X174870000Y-97840000D01*
G75*
G02*
X174632500Y-97602500I0J237500D01*
G01*
X174632500Y-97127500D01*
G75*
G02*
X174870000Y-96890000I237500J0D01*
G01*
X175470000Y-96890000D01*
G75*
G02*
X175707500Y-97127500I0J-237500D01*
G01*
G37*
%TD*%
%TO.C,C29*%
G36*
G01*
X193260500Y-91690000D02*
X193735500Y-91690000D01*
G75*
G02*
X193973000Y-91927500I0J-237500D01*
G01*
X193973000Y-92527500D01*
G75*
G02*
X193735500Y-92765000I-237500J0D01*
G01*
X193260500Y-92765000D01*
G75*
G02*
X193023000Y-92527500I0J237500D01*
G01*
X193023000Y-91927500D01*
G75*
G02*
X193260500Y-91690000I237500J0D01*
G01*
G37*
G36*
G01*
X193260500Y-89965000D02*
X193735500Y-89965000D01*
G75*
G02*
X193973000Y-90202500I0J-237500D01*
G01*
X193973000Y-90802500D01*
G75*
G02*
X193735500Y-91040000I-237500J0D01*
G01*
X193260500Y-91040000D01*
G75*
G02*
X193023000Y-90802500I0J237500D01*
G01*
X193023000Y-90202500D01*
G75*
G02*
X193260500Y-89965000I237500J0D01*
G01*
G37*
%TD*%
%TO.C,C28*%
G36*
G01*
X181374100Y-88420400D02*
X180899100Y-88420400D01*
G75*
G02*
X180661600Y-88182900I0J237500D01*
G01*
X180661600Y-87582900D01*
G75*
G02*
X180899100Y-87345400I237500J0D01*
G01*
X181374100Y-87345400D01*
G75*
G02*
X181611600Y-87582900I0J-237500D01*
G01*
X181611600Y-88182900D01*
G75*
G02*
X181374100Y-88420400I-237500J0D01*
G01*
G37*
G36*
G01*
X181374100Y-90145400D02*
X180899100Y-90145400D01*
G75*
G02*
X180661600Y-89907900I0J237500D01*
G01*
X180661600Y-89307900D01*
G75*
G02*
X180899100Y-89070400I237500J0D01*
G01*
X181374100Y-89070400D01*
G75*
G02*
X181611600Y-89307900I0J-237500D01*
G01*
X181611600Y-89907900D01*
G75*
G02*
X181374100Y-90145400I-237500J0D01*
G01*
G37*
%TD*%
%TO.C,C27*%
G36*
G01*
X173982500Y-95127500D02*
X173982500Y-95602500D01*
G75*
G02*
X173745000Y-95840000I-237500J0D01*
G01*
X173145000Y-95840000D01*
G75*
G02*
X172907500Y-95602500I0J237500D01*
G01*
X172907500Y-95127500D01*
G75*
G02*
X173145000Y-94890000I237500J0D01*
G01*
X173745000Y-94890000D01*
G75*
G02*
X173982500Y-95127500I0J-237500D01*
G01*
G37*
G36*
G01*
X175707500Y-95127500D02*
X175707500Y-95602500D01*
G75*
G02*
X175470000Y-95840000I-237500J0D01*
G01*
X174870000Y-95840000D01*
G75*
G02*
X174632500Y-95602500I0J237500D01*
G01*
X174632500Y-95127500D01*
G75*
G02*
X174870000Y-94890000I237500J0D01*
G01*
X175470000Y-94890000D01*
G75*
G02*
X175707500Y-95127500I0J-237500D01*
G01*
G37*
%TD*%
%TO.C,C25*%
G36*
G01*
X192235500Y-95602500D02*
X192235500Y-95127500D01*
G75*
G02*
X192473000Y-94890000I237500J0D01*
G01*
X193073000Y-94890000D01*
G75*
G02*
X193310500Y-95127500I0J-237500D01*
G01*
X193310500Y-95602500D01*
G75*
G02*
X193073000Y-95840000I-237500J0D01*
G01*
X192473000Y-95840000D01*
G75*
G02*
X192235500Y-95602500I0J237500D01*
G01*
G37*
G36*
G01*
X190510500Y-95602500D02*
X190510500Y-95127500D01*
G75*
G02*
X190748000Y-94890000I237500J0D01*
G01*
X191348000Y-94890000D01*
G75*
G02*
X191585500Y-95127500I0J-237500D01*
G01*
X191585500Y-95602500D01*
G75*
G02*
X191348000Y-95840000I-237500J0D01*
G01*
X190748000Y-95840000D01*
G75*
G02*
X190510500Y-95602500I0J237500D01*
G01*
G37*
%TD*%
%TO.C,C24*%
G36*
G01*
X192235500Y-101602500D02*
X192235500Y-101127500D01*
G75*
G02*
X192473000Y-100890000I237500J0D01*
G01*
X193073000Y-100890000D01*
G75*
G02*
X193310500Y-101127500I0J-237500D01*
G01*
X193310500Y-101602500D01*
G75*
G02*
X193073000Y-101840000I-237500J0D01*
G01*
X192473000Y-101840000D01*
G75*
G02*
X192235500Y-101602500I0J237500D01*
G01*
G37*
G36*
G01*
X190510500Y-101602500D02*
X190510500Y-101127500D01*
G75*
G02*
X190748000Y-100890000I237500J0D01*
G01*
X191348000Y-100890000D01*
G75*
G02*
X191585500Y-101127500I0J-237500D01*
G01*
X191585500Y-101602500D01*
G75*
G02*
X191348000Y-101840000I-237500J0D01*
G01*
X190748000Y-101840000D01*
G75*
G02*
X190510500Y-101602500I0J237500D01*
G01*
G37*
%TD*%
%TO.C,C23*%
G36*
G01*
X180197400Y-106095800D02*
X180672400Y-106095800D01*
G75*
G02*
X180909900Y-106333300I0J-237500D01*
G01*
X180909900Y-106933300D01*
G75*
G02*
X180672400Y-107170800I-237500J0D01*
G01*
X180197400Y-107170800D01*
G75*
G02*
X179959900Y-106933300I0J237500D01*
G01*
X179959900Y-106333300D01*
G75*
G02*
X180197400Y-106095800I237500J0D01*
G01*
G37*
G36*
G01*
X180197400Y-104370800D02*
X180672400Y-104370800D01*
G75*
G02*
X180909900Y-104608300I0J-237500D01*
G01*
X180909900Y-105208300D01*
G75*
G02*
X180672400Y-105445800I-237500J0D01*
G01*
X180197400Y-105445800D01*
G75*
G02*
X179959900Y-105208300I0J237500D01*
G01*
X179959900Y-104608300D01*
G75*
G02*
X180197400Y-104370800I237500J0D01*
G01*
G37*
%TD*%
%TO.C,C22*%
G36*
G01*
X195823000Y-98602500D02*
X195823000Y-98127500D01*
G75*
G02*
X196060500Y-97890000I237500J0D01*
G01*
X196660500Y-97890000D01*
G75*
G02*
X196898000Y-98127500I0J-237500D01*
G01*
X196898000Y-98602500D01*
G75*
G02*
X196660500Y-98840000I-237500J0D01*
G01*
X196060500Y-98840000D01*
G75*
G02*
X195823000Y-98602500I0J237500D01*
G01*
G37*
G36*
G01*
X194098000Y-98602500D02*
X194098000Y-98127500D01*
G75*
G02*
X194335500Y-97890000I237500J0D01*
G01*
X194935500Y-97890000D01*
G75*
G02*
X195173000Y-98127500I0J-237500D01*
G01*
X195173000Y-98602500D01*
G75*
G02*
X194935500Y-98840000I-237500J0D01*
G01*
X194335500Y-98840000D01*
G75*
G02*
X194098000Y-98602500I0J237500D01*
G01*
G37*
%TD*%
%TO.C,C21*%
G36*
G01*
X192235500Y-94102500D02*
X192235500Y-93627500D01*
G75*
G02*
X192473000Y-93390000I237500J0D01*
G01*
X193073000Y-93390000D01*
G75*
G02*
X193310500Y-93627500I0J-237500D01*
G01*
X193310500Y-94102500D01*
G75*
G02*
X193073000Y-94340000I-237500J0D01*
G01*
X192473000Y-94340000D01*
G75*
G02*
X192235500Y-94102500I0J237500D01*
G01*
G37*
G36*
G01*
X190510500Y-94102500D02*
X190510500Y-93627500D01*
G75*
G02*
X190748000Y-93390000I237500J0D01*
G01*
X191348000Y-93390000D01*
G75*
G02*
X191585500Y-93627500I0J-237500D01*
G01*
X191585500Y-94102500D01*
G75*
G02*
X191348000Y-94340000I-237500J0D01*
G01*
X190748000Y-94340000D01*
G75*
G02*
X190510500Y-94102500I0J237500D01*
G01*
G37*
%TD*%
%TO.C,C20*%
G36*
G01*
X192235500Y-100102500D02*
X192235500Y-99627500D01*
G75*
G02*
X192473000Y-99390000I237500J0D01*
G01*
X193073000Y-99390000D01*
G75*
G02*
X193310500Y-99627500I0J-237500D01*
G01*
X193310500Y-100102500D01*
G75*
G02*
X193073000Y-100340000I-237500J0D01*
G01*
X192473000Y-100340000D01*
G75*
G02*
X192235500Y-100102500I0J237500D01*
G01*
G37*
G36*
G01*
X190510500Y-100102500D02*
X190510500Y-99627500D01*
G75*
G02*
X190748000Y-99390000I237500J0D01*
G01*
X191348000Y-99390000D01*
G75*
G02*
X191585500Y-99627500I0J-237500D01*
G01*
X191585500Y-100102500D01*
G75*
G02*
X191348000Y-100340000I-237500J0D01*
G01*
X190748000Y-100340000D01*
G75*
G02*
X190510500Y-100102500I0J237500D01*
G01*
G37*
%TD*%
%TO.C,C19*%
G36*
G01*
X188651300Y-88420400D02*
X188176300Y-88420400D01*
G75*
G02*
X187938800Y-88182900I0J237500D01*
G01*
X187938800Y-87582900D01*
G75*
G02*
X188176300Y-87345400I237500J0D01*
G01*
X188651300Y-87345400D01*
G75*
G02*
X188888800Y-87582900I0J-237500D01*
G01*
X188888800Y-88182900D01*
G75*
G02*
X188651300Y-88420400I-237500J0D01*
G01*
G37*
G36*
G01*
X188651300Y-90145400D02*
X188176300Y-90145400D01*
G75*
G02*
X187938800Y-89907900I0J237500D01*
G01*
X187938800Y-89307900D01*
G75*
G02*
X188176300Y-89070400I237500J0D01*
G01*
X188651300Y-89070400D01*
G75*
G02*
X188888800Y-89307900I0J-237500D01*
G01*
X188888800Y-89907900D01*
G75*
G02*
X188651300Y-90145400I-237500J0D01*
G01*
G37*
%TD*%
%TO.C,C18*%
G36*
G01*
X177735500Y-88420400D02*
X177260500Y-88420400D01*
G75*
G02*
X177023000Y-88182900I0J237500D01*
G01*
X177023000Y-87582900D01*
G75*
G02*
X177260500Y-87345400I237500J0D01*
G01*
X177735500Y-87345400D01*
G75*
G02*
X177973000Y-87582900I0J-237500D01*
G01*
X177973000Y-88182900D01*
G75*
G02*
X177735500Y-88420400I-237500J0D01*
G01*
G37*
G36*
G01*
X177735500Y-90145400D02*
X177260500Y-90145400D01*
G75*
G02*
X177023000Y-89907900I0J237500D01*
G01*
X177023000Y-89307900D01*
G75*
G02*
X177260500Y-89070400I237500J0D01*
G01*
X177735500Y-89070400D01*
G75*
G02*
X177973000Y-89307900I0J-237500D01*
G01*
X177973000Y-89907900D01*
G75*
G02*
X177735500Y-90145400I-237500J0D01*
G01*
G37*
%TD*%
%TO.C,C17*%
G36*
G01*
X188760500Y-106095800D02*
X189235500Y-106095800D01*
G75*
G02*
X189473000Y-106333300I0J-237500D01*
G01*
X189473000Y-106933300D01*
G75*
G02*
X189235500Y-107170800I-237500J0D01*
G01*
X188760500Y-107170800D01*
G75*
G02*
X188523000Y-106933300I0J237500D01*
G01*
X188523000Y-106333300D01*
G75*
G02*
X188760500Y-106095800I237500J0D01*
G01*
G37*
G36*
G01*
X188760500Y-104370800D02*
X189235500Y-104370800D01*
G75*
G02*
X189473000Y-104608300I0J-237500D01*
G01*
X189473000Y-105208300D01*
G75*
G02*
X189235500Y-105445800I-237500J0D01*
G01*
X188760500Y-105445800D01*
G75*
G02*
X188523000Y-105208300I0J237500D01*
G01*
X188523000Y-104608300D01*
G75*
G02*
X188760500Y-104370800I237500J0D01*
G01*
G37*
%TD*%
%TO.C,C16*%
G36*
G01*
X192235500Y-98602500D02*
X192235500Y-98127500D01*
G75*
G02*
X192473000Y-97890000I237500J0D01*
G01*
X193073000Y-97890000D01*
G75*
G02*
X193310500Y-98127500I0J-237500D01*
G01*
X193310500Y-98602500D01*
G75*
G02*
X193073000Y-98840000I-237500J0D01*
G01*
X192473000Y-98840000D01*
G75*
G02*
X192235500Y-98602500I0J237500D01*
G01*
G37*
G36*
G01*
X190510500Y-98602500D02*
X190510500Y-98127500D01*
G75*
G02*
X190748000Y-97890000I237500J0D01*
G01*
X191348000Y-97890000D01*
G75*
G02*
X191585500Y-98127500I0J-237500D01*
G01*
X191585500Y-98602500D01*
G75*
G02*
X191348000Y-98840000I-237500J0D01*
G01*
X190748000Y-98840000D01*
G75*
G02*
X190510500Y-98602500I0J237500D01*
G01*
G37*
%TD*%
%TO.C,C15*%
G36*
G01*
X190470600Y-88420400D02*
X189995600Y-88420400D01*
G75*
G02*
X189758100Y-88182900I0J237500D01*
G01*
X189758100Y-87582900D01*
G75*
G02*
X189995600Y-87345400I237500J0D01*
G01*
X190470600Y-87345400D01*
G75*
G02*
X190708100Y-87582900I0J-237500D01*
G01*
X190708100Y-88182900D01*
G75*
G02*
X190470600Y-88420400I-237500J0D01*
G01*
G37*
G36*
G01*
X190470600Y-90145400D02*
X189995600Y-90145400D01*
G75*
G02*
X189758100Y-89907900I0J237500D01*
G01*
X189758100Y-89307900D01*
G75*
G02*
X189995600Y-89070400I237500J0D01*
G01*
X190470600Y-89070400D01*
G75*
G02*
X190708100Y-89307900I0J-237500D01*
G01*
X190708100Y-89907900D01*
G75*
G02*
X190470600Y-90145400I-237500J0D01*
G01*
G37*
%TD*%
%TO.C,C14*%
G36*
G01*
X179554800Y-88420400D02*
X179079800Y-88420400D01*
G75*
G02*
X178842300Y-88182900I0J237500D01*
G01*
X178842300Y-87582900D01*
G75*
G02*
X179079800Y-87345400I237500J0D01*
G01*
X179554800Y-87345400D01*
G75*
G02*
X179792300Y-87582900I0J-237500D01*
G01*
X179792300Y-88182900D01*
G75*
G02*
X179554800Y-88420400I-237500J0D01*
G01*
G37*
G36*
G01*
X179554800Y-90145400D02*
X179079800Y-90145400D01*
G75*
G02*
X178842300Y-89907900I0J237500D01*
G01*
X178842300Y-89307900D01*
G75*
G02*
X179079800Y-89070400I237500J0D01*
G01*
X179554800Y-89070400D01*
G75*
G02*
X179792300Y-89307900I0J-237500D01*
G01*
X179792300Y-89907900D01*
G75*
G02*
X179554800Y-90145400I-237500J0D01*
G01*
G37*
%TD*%
%TO.C,C13*%
G36*
G01*
X195823000Y-100102500D02*
X195823000Y-99627500D01*
G75*
G02*
X196060500Y-99390000I237500J0D01*
G01*
X196660500Y-99390000D01*
G75*
G02*
X196898000Y-99627500I0J-237500D01*
G01*
X196898000Y-100102500D01*
G75*
G02*
X196660500Y-100340000I-237500J0D01*
G01*
X196060500Y-100340000D01*
G75*
G02*
X195823000Y-100102500I0J237500D01*
G01*
G37*
G36*
G01*
X194098000Y-100102500D02*
X194098000Y-99627500D01*
G75*
G02*
X194335500Y-99390000I237500J0D01*
G01*
X194935500Y-99390000D01*
G75*
G02*
X195173000Y-99627500I0J-237500D01*
G01*
X195173000Y-100102500D01*
G75*
G02*
X194935500Y-100340000I-237500J0D01*
G01*
X194335500Y-100340000D01*
G75*
G02*
X194098000Y-100102500I0J237500D01*
G01*
G37*
%TD*%
%TO.C,C12*%
G36*
G01*
X193822999Y-103602500D02*
X193822999Y-103127500D01*
G75*
G02*
X194060499Y-102890000I237500J0D01*
G01*
X194660499Y-102890000D01*
G75*
G02*
X194897999Y-103127500I0J-237500D01*
G01*
X194897999Y-103602500D01*
G75*
G02*
X194660499Y-103840000I-237500J0D01*
G01*
X194060499Y-103840000D01*
G75*
G02*
X193822999Y-103602500I0J237500D01*
G01*
G37*
G36*
G01*
X192097999Y-103602500D02*
X192097999Y-103127500D01*
G75*
G02*
X192335499Y-102890000I237500J0D01*
G01*
X192935499Y-102890000D01*
G75*
G02*
X193172999Y-103127500I0J-237500D01*
G01*
X193172999Y-103602500D01*
G75*
G02*
X192935499Y-103840000I-237500J0D01*
G01*
X192335499Y-103840000D01*
G75*
G02*
X192097999Y-103602500I0J237500D01*
G01*
G37*
%TD*%
%TO.C,C11*%
G36*
G01*
X193172999Y-108127500D02*
X193172999Y-108602500D01*
G75*
G02*
X192935499Y-108840000I-237500J0D01*
G01*
X192335499Y-108840000D01*
G75*
G02*
X192097999Y-108602500I0J237500D01*
G01*
X192097999Y-108127500D01*
G75*
G02*
X192335499Y-107890000I237500J0D01*
G01*
X192935499Y-107890000D01*
G75*
G02*
X193172999Y-108127500I0J-237500D01*
G01*
G37*
G36*
G01*
X194897999Y-108127500D02*
X194897999Y-108602500D01*
G75*
G02*
X194660499Y-108840000I-237500J0D01*
G01*
X194060499Y-108840000D01*
G75*
G02*
X193822999Y-108602500I0J237500D01*
G01*
X193822999Y-108127500D01*
G75*
G02*
X194060499Y-107890000I237500J0D01*
G01*
X194660499Y-107890000D01*
G75*
G02*
X194897999Y-108127500I0J-237500D01*
G01*
G37*
%TD*%
%TO.C,C5*%
G36*
G01*
X129046500Y-98563000D02*
X129521500Y-98563000D01*
G75*
G02*
X129759000Y-98800500I0J-237500D01*
G01*
X129759000Y-99400500D01*
G75*
G02*
X129521500Y-99638000I-237500J0D01*
G01*
X129046500Y-99638000D01*
G75*
G02*
X128809000Y-99400500I0J237500D01*
G01*
X128809000Y-98800500D01*
G75*
G02*
X129046500Y-98563000I237500J0D01*
G01*
G37*
G36*
G01*
X129046500Y-96838000D02*
X129521500Y-96838000D01*
G75*
G02*
X129759000Y-97075500I0J-237500D01*
G01*
X129759000Y-97675500D01*
G75*
G02*
X129521500Y-97913000I-237500J0D01*
G01*
X129046500Y-97913000D01*
G75*
G02*
X128809000Y-97675500I0J237500D01*
G01*
X128809000Y-97075500D01*
G75*
G02*
X129046500Y-96838000I237500J0D01*
G01*
G37*
%TD*%
%TO.C,C4*%
G36*
G01*
X126760500Y-108827500D02*
X127235500Y-108827500D01*
G75*
G02*
X127473000Y-109065000I0J-237500D01*
G01*
X127473000Y-109665000D01*
G75*
G02*
X127235500Y-109902500I-237500J0D01*
G01*
X126760500Y-109902500D01*
G75*
G02*
X126523000Y-109665000I0J237500D01*
G01*
X126523000Y-109065000D01*
G75*
G02*
X126760500Y-108827500I237500J0D01*
G01*
G37*
G36*
G01*
X126760500Y-107102500D02*
X127235500Y-107102500D01*
G75*
G02*
X127473000Y-107340000I0J-237500D01*
G01*
X127473000Y-107940000D01*
G75*
G02*
X127235500Y-108177500I-237500J0D01*
G01*
X126760500Y-108177500D01*
G75*
G02*
X126523000Y-107940000I0J237500D01*
G01*
X126523000Y-107340000D01*
G75*
G02*
X126760500Y-107102500I237500J0D01*
G01*
G37*
%TD*%
%TO.C,C3*%
G36*
G01*
X126809000Y-98688000D02*
X127759000Y-98688000D01*
G75*
G02*
X128009000Y-98938000I0J-250000D01*
G01*
X128009000Y-99613000D01*
G75*
G02*
X127759000Y-99863000I-250000J0D01*
G01*
X126809000Y-99863000D01*
G75*
G02*
X126559000Y-99613000I0J250000D01*
G01*
X126559000Y-98938000D01*
G75*
G02*
X126809000Y-98688000I250000J0D01*
G01*
G37*
G36*
G01*
X126809000Y-96613000D02*
X127759000Y-96613000D01*
G75*
G02*
X128009000Y-96863000I0J-250000D01*
G01*
X128009000Y-97538000D01*
G75*
G02*
X127759000Y-97788000I-250000J0D01*
G01*
X126809000Y-97788000D01*
G75*
G02*
X126559000Y-97538000I0J250000D01*
G01*
X126559000Y-96863000D01*
G75*
G02*
X126809000Y-96613000I250000J0D01*
G01*
G37*
%TD*%
%TO.C,C2*%
G36*
G01*
X123523000Y-108852500D02*
X124473000Y-108852500D01*
G75*
G02*
X124723000Y-109102500I0J-250000D01*
G01*
X124723000Y-109777500D01*
G75*
G02*
X124473000Y-110027500I-250000J0D01*
G01*
X123523000Y-110027500D01*
G75*
G02*
X123273000Y-109777500I0J250000D01*
G01*
X123273000Y-109102500D01*
G75*
G02*
X123523000Y-108852500I250000J0D01*
G01*
G37*
G36*
G01*
X123523000Y-106777500D02*
X124473000Y-106777500D01*
G75*
G02*
X124723000Y-107027500I0J-250000D01*
G01*
X124723000Y-107702500D01*
G75*
G02*
X124473000Y-107952500I-250000J0D01*
G01*
X123523000Y-107952500D01*
G75*
G02*
X123273000Y-107702500I0J250000D01*
G01*
X123273000Y-107027500D01*
G75*
G02*
X123523000Y-106777500I250000J0D01*
G01*
G37*
%TD*%
%TO.C,C1*%
G36*
G01*
X124473000Y-103915000D02*
X123523000Y-103915000D01*
G75*
G02*
X123273000Y-103665000I0J250000D01*
G01*
X123273000Y-102990000D01*
G75*
G02*
X123523000Y-102740000I250000J0D01*
G01*
X124473000Y-102740000D01*
G75*
G02*
X124723000Y-102990000I0J-250000D01*
G01*
X124723000Y-103665000D01*
G75*
G02*
X124473000Y-103915000I-250000J0D01*
G01*
G37*
G36*
G01*
X124473000Y-105990000D02*
X123523000Y-105990000D01*
G75*
G02*
X123273000Y-105740000I0J250000D01*
G01*
X123273000Y-105065000D01*
G75*
G02*
X123523000Y-104815000I250000J0D01*
G01*
X124473000Y-104815000D01*
G75*
G02*
X124723000Y-105065000I0J-250000D01*
G01*
X124723000Y-105740000D01*
G75*
G02*
X124473000Y-105990000I-250000J0D01*
G01*
G37*
%TD*%
%TO.C,R47*%
G36*
G01*
X132098000Y-90915001D02*
X132098000Y-90014999D01*
G75*
G02*
X132347999Y-89765000I249999J0D01*
G01*
X133048001Y-89765000D01*
G75*
G02*
X133298000Y-90014999I0J-249999D01*
G01*
X133298000Y-90915001D01*
G75*
G02*
X133048001Y-91165000I-249999J0D01*
G01*
X132347999Y-91165000D01*
G75*
G02*
X132098000Y-90915001I0J249999D01*
G01*
G37*
G36*
G01*
X134098000Y-90915001D02*
X134098000Y-90014999D01*
G75*
G02*
X134347999Y-89765000I249999J0D01*
G01*
X135048001Y-89765000D01*
G75*
G02*
X135298000Y-90014999I0J-249999D01*
G01*
X135298000Y-90915001D01*
G75*
G02*
X135048001Y-91165000I-249999J0D01*
G01*
X134347999Y-91165000D01*
G75*
G02*
X134098000Y-90915001I0J249999D01*
G01*
G37*
%TD*%
M02*
