%TF.GenerationSoftware,KiCad,Pcbnew,(5.1.12)-1*%
%TF.CreationDate,2022-03-24T08:21:23-05:00*%
%TF.ProjectId,Psoc-CTF,50736f63-2d43-4544-962e-6b696361645f,rev?*%
%TF.SameCoordinates,Original*%
%TF.FileFunction,Soldermask,Bot*%
%TF.FilePolarity,Negative*%
%FSLAX46Y46*%
G04 Gerber Fmt 4.6, Leading zero omitted, Abs format (unit mm)*
G04 Created by KiCad (PCBNEW (5.1.12)-1) date 2022-03-24 08:21:23*
%MOMM*%
%LPD*%
G01*
G04 APERTURE LIST*
%ADD10C,0.010000*%
%ADD11C,0.450000*%
%ADD12O,1.700000X1.700000*%
%ADD13R,1.700000X1.700000*%
%ADD14R,2.600000X2.600000*%
%ADD15R,1.800000X3.500000*%
%ADD16O,1.727200X2.032000*%
G04 APERTURE END LIST*
D10*
%TO.C,J12*%
G36*
X114688000Y-74494140D02*
G01*
X114688000Y-75952000D01*
X112385900Y-75952000D01*
X112385900Y-74494140D01*
X114688000Y-74494140D01*
G37*
X114688000Y-74494140D02*
X114688000Y-75952000D01*
X112385900Y-75952000D01*
X112385900Y-74494140D01*
X114688000Y-74494140D01*
G36*
X114688000Y-81654830D02*
G01*
X114688000Y-83102000D01*
X112386860Y-83102000D01*
X112386860Y-81654830D01*
X114688000Y-81654830D01*
G37*
X114688000Y-81654830D02*
X114688000Y-83102000D01*
X112386860Y-83102000D01*
X112386860Y-81654830D01*
X114688000Y-81654830D01*
%TO.C,J5*%
G36*
X207764500Y-111482169D02*
G01*
X207764500Y-110034999D01*
X210065640Y-110034999D01*
X210065640Y-111482169D01*
X207764500Y-111482169D01*
G37*
X207764500Y-111482169D02*
X207764500Y-110034999D01*
X210065640Y-110034999D01*
X210065640Y-111482169D01*
X207764500Y-111482169D01*
G36*
X207764500Y-118642859D02*
G01*
X207764500Y-117184999D01*
X210066600Y-117184999D01*
X210066600Y-118642859D01*
X207764500Y-118642859D01*
G37*
X207764500Y-118642859D02*
X207764500Y-117184999D01*
X210066600Y-117184999D01*
X210066600Y-118642859D01*
X207764500Y-118642859D01*
%TD*%
D11*
%TO.C,J12*%
X113538000Y-82376000D03*
X113538000Y-75226000D03*
%TD*%
D12*
%TO.C,J11*%
X160457797Y-55051321D03*
X162997797Y-55051321D03*
X165537797Y-55051321D03*
X168077797Y-55051321D03*
X170617797Y-55051321D03*
X173157797Y-55051321D03*
X175697797Y-55051321D03*
X178237797Y-55051321D03*
X180777797Y-55051321D03*
X183317797Y-55051321D03*
X185857797Y-55051321D03*
X188397797Y-55051321D03*
X190937797Y-55051321D03*
X193477797Y-55051321D03*
X196017797Y-55051321D03*
X198557797Y-55051321D03*
X201097797Y-55051321D03*
X203637797Y-55051321D03*
X206177797Y-55051321D03*
D13*
X208717797Y-55051321D03*
%TD*%
D12*
%TO.C,J10*%
X160438000Y-47665000D03*
X162978000Y-47665000D03*
X165518000Y-47665000D03*
X168058000Y-47665000D03*
X170598000Y-47665000D03*
X173138000Y-47665000D03*
X175678000Y-47665000D03*
X178218000Y-47665000D03*
X180758000Y-47665000D03*
X183298000Y-47665000D03*
X185838000Y-47665000D03*
X188378000Y-47665000D03*
X190918000Y-47665000D03*
X193458000Y-47665000D03*
X195998000Y-47665000D03*
X198538000Y-47665000D03*
X201078000Y-47665000D03*
X203618000Y-47665000D03*
X206158000Y-47665000D03*
D13*
X208698000Y-47665000D03*
%TD*%
D12*
%TO.C,J9*%
X160438000Y-51365000D03*
X162978000Y-51365000D03*
X165518000Y-51365000D03*
X168058000Y-51365000D03*
X170598000Y-51365000D03*
X173138000Y-51365000D03*
X175678000Y-51365000D03*
X178218000Y-51365000D03*
X180758000Y-51365000D03*
X183298000Y-51365000D03*
X185838000Y-51365000D03*
X188378000Y-51365000D03*
X190918000Y-51365000D03*
X193458000Y-51365000D03*
X195998000Y-51365000D03*
X198538000Y-51365000D03*
X201078000Y-51365000D03*
X203618000Y-51365000D03*
X206158000Y-51365000D03*
D13*
X208698000Y-51365000D03*
%TD*%
D12*
%TO.C,J8*%
X160438000Y-62365000D03*
X162978000Y-62365000D03*
X165518000Y-62365000D03*
X168058000Y-62365000D03*
X170598000Y-62365000D03*
X173138000Y-62365000D03*
X175678000Y-62365000D03*
X178218000Y-62365000D03*
X180758000Y-62365000D03*
X183298000Y-62365000D03*
X185838000Y-62365000D03*
X188378000Y-62365000D03*
X190918000Y-62365000D03*
X193458000Y-62365000D03*
X195998000Y-62365000D03*
X198538000Y-62365000D03*
X201078000Y-62365000D03*
X203618000Y-62365000D03*
X206158000Y-62365000D03*
D13*
X208698000Y-62365000D03*
%TD*%
D14*
%TO.C,U5*%
X199136000Y-114488000D03*
G36*
G01*
X196848500Y-113113000D02*
X197548500Y-113113000D01*
G75*
G02*
X197611000Y-113175500I0J-62500D01*
G01*
X197611000Y-113300500D01*
G75*
G02*
X197548500Y-113363000I-62500J0D01*
G01*
X196848500Y-113363000D01*
G75*
G02*
X196786000Y-113300500I0J62500D01*
G01*
X196786000Y-113175500D01*
G75*
G02*
X196848500Y-113113000I62500J0D01*
G01*
G37*
G36*
G01*
X196848500Y-113613000D02*
X197548500Y-113613000D01*
G75*
G02*
X197611000Y-113675500I0J-62500D01*
G01*
X197611000Y-113800500D01*
G75*
G02*
X197548500Y-113863000I-62500J0D01*
G01*
X196848500Y-113863000D01*
G75*
G02*
X196786000Y-113800500I0J62500D01*
G01*
X196786000Y-113675500D01*
G75*
G02*
X196848500Y-113613000I62500J0D01*
G01*
G37*
G36*
G01*
X196848500Y-114113000D02*
X197548500Y-114113000D01*
G75*
G02*
X197611000Y-114175500I0J-62500D01*
G01*
X197611000Y-114300500D01*
G75*
G02*
X197548500Y-114363000I-62500J0D01*
G01*
X196848500Y-114363000D01*
G75*
G02*
X196786000Y-114300500I0J62500D01*
G01*
X196786000Y-114175500D01*
G75*
G02*
X196848500Y-114113000I62500J0D01*
G01*
G37*
G36*
G01*
X196848500Y-114613000D02*
X197548500Y-114613000D01*
G75*
G02*
X197611000Y-114675500I0J-62500D01*
G01*
X197611000Y-114800500D01*
G75*
G02*
X197548500Y-114863000I-62500J0D01*
G01*
X196848500Y-114863000D01*
G75*
G02*
X196786000Y-114800500I0J62500D01*
G01*
X196786000Y-114675500D01*
G75*
G02*
X196848500Y-114613000I62500J0D01*
G01*
G37*
G36*
G01*
X196848500Y-115113000D02*
X197548500Y-115113000D01*
G75*
G02*
X197611000Y-115175500I0J-62500D01*
G01*
X197611000Y-115300500D01*
G75*
G02*
X197548500Y-115363000I-62500J0D01*
G01*
X196848500Y-115363000D01*
G75*
G02*
X196786000Y-115300500I0J62500D01*
G01*
X196786000Y-115175500D01*
G75*
G02*
X196848500Y-115113000I62500J0D01*
G01*
G37*
G36*
G01*
X196848500Y-115613000D02*
X197548500Y-115613000D01*
G75*
G02*
X197611000Y-115675500I0J-62500D01*
G01*
X197611000Y-115800500D01*
G75*
G02*
X197548500Y-115863000I-62500J0D01*
G01*
X196848500Y-115863000D01*
G75*
G02*
X196786000Y-115800500I0J62500D01*
G01*
X196786000Y-115675500D01*
G75*
G02*
X196848500Y-115613000I62500J0D01*
G01*
G37*
G36*
G01*
X197823500Y-116013000D02*
X197948500Y-116013000D01*
G75*
G02*
X198011000Y-116075500I0J-62500D01*
G01*
X198011000Y-116775500D01*
G75*
G02*
X197948500Y-116838000I-62500J0D01*
G01*
X197823500Y-116838000D01*
G75*
G02*
X197761000Y-116775500I0J62500D01*
G01*
X197761000Y-116075500D01*
G75*
G02*
X197823500Y-116013000I62500J0D01*
G01*
G37*
G36*
G01*
X198323500Y-116013000D02*
X198448500Y-116013000D01*
G75*
G02*
X198511000Y-116075500I0J-62500D01*
G01*
X198511000Y-116775500D01*
G75*
G02*
X198448500Y-116838000I-62500J0D01*
G01*
X198323500Y-116838000D01*
G75*
G02*
X198261000Y-116775500I0J62500D01*
G01*
X198261000Y-116075500D01*
G75*
G02*
X198323500Y-116013000I62500J0D01*
G01*
G37*
G36*
G01*
X198823500Y-116013000D02*
X198948500Y-116013000D01*
G75*
G02*
X199011000Y-116075500I0J-62500D01*
G01*
X199011000Y-116775500D01*
G75*
G02*
X198948500Y-116838000I-62500J0D01*
G01*
X198823500Y-116838000D01*
G75*
G02*
X198761000Y-116775500I0J62500D01*
G01*
X198761000Y-116075500D01*
G75*
G02*
X198823500Y-116013000I62500J0D01*
G01*
G37*
G36*
G01*
X199323500Y-116013000D02*
X199448500Y-116013000D01*
G75*
G02*
X199511000Y-116075500I0J-62500D01*
G01*
X199511000Y-116775500D01*
G75*
G02*
X199448500Y-116838000I-62500J0D01*
G01*
X199323500Y-116838000D01*
G75*
G02*
X199261000Y-116775500I0J62500D01*
G01*
X199261000Y-116075500D01*
G75*
G02*
X199323500Y-116013000I62500J0D01*
G01*
G37*
G36*
G01*
X199823500Y-116013000D02*
X199948500Y-116013000D01*
G75*
G02*
X200011000Y-116075500I0J-62500D01*
G01*
X200011000Y-116775500D01*
G75*
G02*
X199948500Y-116838000I-62500J0D01*
G01*
X199823500Y-116838000D01*
G75*
G02*
X199761000Y-116775500I0J62500D01*
G01*
X199761000Y-116075500D01*
G75*
G02*
X199823500Y-116013000I62500J0D01*
G01*
G37*
G36*
G01*
X200323500Y-116013000D02*
X200448500Y-116013000D01*
G75*
G02*
X200511000Y-116075500I0J-62500D01*
G01*
X200511000Y-116775500D01*
G75*
G02*
X200448500Y-116838000I-62500J0D01*
G01*
X200323500Y-116838000D01*
G75*
G02*
X200261000Y-116775500I0J62500D01*
G01*
X200261000Y-116075500D01*
G75*
G02*
X200323500Y-116013000I62500J0D01*
G01*
G37*
G36*
G01*
X200723500Y-115613000D02*
X201423500Y-115613000D01*
G75*
G02*
X201486000Y-115675500I0J-62500D01*
G01*
X201486000Y-115800500D01*
G75*
G02*
X201423500Y-115863000I-62500J0D01*
G01*
X200723500Y-115863000D01*
G75*
G02*
X200661000Y-115800500I0J62500D01*
G01*
X200661000Y-115675500D01*
G75*
G02*
X200723500Y-115613000I62500J0D01*
G01*
G37*
G36*
G01*
X200723500Y-115113000D02*
X201423500Y-115113000D01*
G75*
G02*
X201486000Y-115175500I0J-62500D01*
G01*
X201486000Y-115300500D01*
G75*
G02*
X201423500Y-115363000I-62500J0D01*
G01*
X200723500Y-115363000D01*
G75*
G02*
X200661000Y-115300500I0J62500D01*
G01*
X200661000Y-115175500D01*
G75*
G02*
X200723500Y-115113000I62500J0D01*
G01*
G37*
G36*
G01*
X200723500Y-114613000D02*
X201423500Y-114613000D01*
G75*
G02*
X201486000Y-114675500I0J-62500D01*
G01*
X201486000Y-114800500D01*
G75*
G02*
X201423500Y-114863000I-62500J0D01*
G01*
X200723500Y-114863000D01*
G75*
G02*
X200661000Y-114800500I0J62500D01*
G01*
X200661000Y-114675500D01*
G75*
G02*
X200723500Y-114613000I62500J0D01*
G01*
G37*
G36*
G01*
X200723500Y-114113000D02*
X201423500Y-114113000D01*
G75*
G02*
X201486000Y-114175500I0J-62500D01*
G01*
X201486000Y-114300500D01*
G75*
G02*
X201423500Y-114363000I-62500J0D01*
G01*
X200723500Y-114363000D01*
G75*
G02*
X200661000Y-114300500I0J62500D01*
G01*
X200661000Y-114175500D01*
G75*
G02*
X200723500Y-114113000I62500J0D01*
G01*
G37*
G36*
G01*
X200723500Y-113613000D02*
X201423500Y-113613000D01*
G75*
G02*
X201486000Y-113675500I0J-62500D01*
G01*
X201486000Y-113800500D01*
G75*
G02*
X201423500Y-113863000I-62500J0D01*
G01*
X200723500Y-113863000D01*
G75*
G02*
X200661000Y-113800500I0J62500D01*
G01*
X200661000Y-113675500D01*
G75*
G02*
X200723500Y-113613000I62500J0D01*
G01*
G37*
G36*
G01*
X200723500Y-113113000D02*
X201423500Y-113113000D01*
G75*
G02*
X201486000Y-113175500I0J-62500D01*
G01*
X201486000Y-113300500D01*
G75*
G02*
X201423500Y-113363000I-62500J0D01*
G01*
X200723500Y-113363000D01*
G75*
G02*
X200661000Y-113300500I0J62500D01*
G01*
X200661000Y-113175500D01*
G75*
G02*
X200723500Y-113113000I62500J0D01*
G01*
G37*
G36*
G01*
X200323500Y-112138000D02*
X200448500Y-112138000D01*
G75*
G02*
X200511000Y-112200500I0J-62500D01*
G01*
X200511000Y-112900500D01*
G75*
G02*
X200448500Y-112963000I-62500J0D01*
G01*
X200323500Y-112963000D01*
G75*
G02*
X200261000Y-112900500I0J62500D01*
G01*
X200261000Y-112200500D01*
G75*
G02*
X200323500Y-112138000I62500J0D01*
G01*
G37*
G36*
G01*
X199823500Y-112138000D02*
X199948500Y-112138000D01*
G75*
G02*
X200011000Y-112200500I0J-62500D01*
G01*
X200011000Y-112900500D01*
G75*
G02*
X199948500Y-112963000I-62500J0D01*
G01*
X199823500Y-112963000D01*
G75*
G02*
X199761000Y-112900500I0J62500D01*
G01*
X199761000Y-112200500D01*
G75*
G02*
X199823500Y-112138000I62500J0D01*
G01*
G37*
G36*
G01*
X199323500Y-112138000D02*
X199448500Y-112138000D01*
G75*
G02*
X199511000Y-112200500I0J-62500D01*
G01*
X199511000Y-112900500D01*
G75*
G02*
X199448500Y-112963000I-62500J0D01*
G01*
X199323500Y-112963000D01*
G75*
G02*
X199261000Y-112900500I0J62500D01*
G01*
X199261000Y-112200500D01*
G75*
G02*
X199323500Y-112138000I62500J0D01*
G01*
G37*
G36*
G01*
X198823500Y-112138000D02*
X198948500Y-112138000D01*
G75*
G02*
X199011000Y-112200500I0J-62500D01*
G01*
X199011000Y-112900500D01*
G75*
G02*
X198948500Y-112963000I-62500J0D01*
G01*
X198823500Y-112963000D01*
G75*
G02*
X198761000Y-112900500I0J62500D01*
G01*
X198761000Y-112200500D01*
G75*
G02*
X198823500Y-112138000I62500J0D01*
G01*
G37*
G36*
G01*
X198323500Y-112138000D02*
X198448500Y-112138000D01*
G75*
G02*
X198511000Y-112200500I0J-62500D01*
G01*
X198511000Y-112900500D01*
G75*
G02*
X198448500Y-112963000I-62500J0D01*
G01*
X198323500Y-112963000D01*
G75*
G02*
X198261000Y-112900500I0J62500D01*
G01*
X198261000Y-112200500D01*
G75*
G02*
X198323500Y-112138000I62500J0D01*
G01*
G37*
G36*
G01*
X197823500Y-112138000D02*
X197948500Y-112138000D01*
G75*
G02*
X198011000Y-112200500I0J-62500D01*
G01*
X198011000Y-112900500D01*
G75*
G02*
X197948500Y-112963000I-62500J0D01*
G01*
X197823500Y-112963000D01*
G75*
G02*
X197761000Y-112900500I0J62500D01*
G01*
X197761000Y-112200500D01*
G75*
G02*
X197823500Y-112138000I62500J0D01*
G01*
G37*
%TD*%
%TO.C,R14*%
G36*
G01*
X198667000Y-106464999D02*
X199142000Y-106464999D01*
G75*
G02*
X199379500Y-106702499I0J-237500D01*
G01*
X199379500Y-107202499D01*
G75*
G02*
X199142000Y-107439999I-237500J0D01*
G01*
X198667000Y-107439999D01*
G75*
G02*
X198429500Y-107202499I0J237500D01*
G01*
X198429500Y-106702499D01*
G75*
G02*
X198667000Y-106464999I237500J0D01*
G01*
G37*
G36*
G01*
X198667000Y-104639999D02*
X199142000Y-104639999D01*
G75*
G02*
X199379500Y-104877499I0J-237500D01*
G01*
X199379500Y-105377499D01*
G75*
G02*
X199142000Y-105614999I-237500J0D01*
G01*
X198667000Y-105614999D01*
G75*
G02*
X198429500Y-105377499I0J237500D01*
G01*
X198429500Y-104877499D01*
G75*
G02*
X198667000Y-104639999I237500J0D01*
G01*
G37*
%TD*%
%TO.C,R13*%
G36*
G01*
X200167001Y-106465000D02*
X200642001Y-106465000D01*
G75*
G02*
X200879501Y-106702500I0J-237500D01*
G01*
X200879501Y-107202500D01*
G75*
G02*
X200642001Y-107440000I-237500J0D01*
G01*
X200167001Y-107440000D01*
G75*
G02*
X199929501Y-107202500I0J237500D01*
G01*
X199929501Y-106702500D01*
G75*
G02*
X200167001Y-106465000I237500J0D01*
G01*
G37*
G36*
G01*
X200167001Y-104640000D02*
X200642001Y-104640000D01*
G75*
G02*
X200879501Y-104877500I0J-237500D01*
G01*
X200879501Y-105377500D01*
G75*
G02*
X200642001Y-105615000I-237500J0D01*
G01*
X200167001Y-105615000D01*
G75*
G02*
X199929501Y-105377500I0J237500D01*
G01*
X199929501Y-104877500D01*
G75*
G02*
X200167001Y-104640000I237500J0D01*
G01*
G37*
%TD*%
%TO.C,R12*%
G36*
G01*
X200389500Y-119103000D02*
X199914500Y-119103000D01*
G75*
G02*
X199677000Y-118865500I0J237500D01*
G01*
X199677000Y-118365500D01*
G75*
G02*
X199914500Y-118128000I237500J0D01*
G01*
X200389500Y-118128000D01*
G75*
G02*
X200627000Y-118365500I0J-237500D01*
G01*
X200627000Y-118865500D01*
G75*
G02*
X200389500Y-119103000I-237500J0D01*
G01*
G37*
G36*
G01*
X200389500Y-120928000D02*
X199914500Y-120928000D01*
G75*
G02*
X199677000Y-120690500I0J237500D01*
G01*
X199677000Y-120190500D01*
G75*
G02*
X199914500Y-119953000I237500J0D01*
G01*
X200389500Y-119953000D01*
G75*
G02*
X200627000Y-120190500I0J-237500D01*
G01*
X200627000Y-120690500D01*
G75*
G02*
X200389500Y-120928000I-237500J0D01*
G01*
G37*
%TD*%
%TO.C,R6*%
G36*
G01*
X151000400Y-52373000D02*
X151000400Y-51898000D01*
G75*
G02*
X151237900Y-51660500I237500J0D01*
G01*
X151737900Y-51660500D01*
G75*
G02*
X151975400Y-51898000I0J-237500D01*
G01*
X151975400Y-52373000D01*
G75*
G02*
X151737900Y-52610500I-237500J0D01*
G01*
X151237900Y-52610500D01*
G75*
G02*
X151000400Y-52373000I0J237500D01*
G01*
G37*
G36*
G01*
X149175400Y-52373000D02*
X149175400Y-51898000D01*
G75*
G02*
X149412900Y-51660500I237500J0D01*
G01*
X149912900Y-51660500D01*
G75*
G02*
X150150400Y-51898000I0J-237500D01*
G01*
X150150400Y-52373000D01*
G75*
G02*
X149912900Y-52610500I-237500J0D01*
G01*
X149412900Y-52610500D01*
G75*
G02*
X149175400Y-52373000I0J237500D01*
G01*
G37*
%TD*%
%TO.C,R5*%
G36*
G01*
X119545600Y-52432000D02*
X119545600Y-51957000D01*
G75*
G02*
X119783100Y-51719500I237500J0D01*
G01*
X120283100Y-51719500D01*
G75*
G02*
X120520600Y-51957000I0J-237500D01*
G01*
X120520600Y-52432000D01*
G75*
G02*
X120283100Y-52669500I-237500J0D01*
G01*
X119783100Y-52669500D01*
G75*
G02*
X119545600Y-52432000I0J237500D01*
G01*
G37*
G36*
G01*
X117720600Y-52432000D02*
X117720600Y-51957000D01*
G75*
G02*
X117958100Y-51719500I237500J0D01*
G01*
X118458100Y-51719500D01*
G75*
G02*
X118695600Y-51957000I0J-237500D01*
G01*
X118695600Y-52432000D01*
G75*
G02*
X118458100Y-52669500I-237500J0D01*
G01*
X117958100Y-52669500D01*
G75*
G02*
X117720600Y-52432000I0J237500D01*
G01*
G37*
%TD*%
D11*
%TO.C,J5*%
X208914500Y-110760999D03*
X208914500Y-117910999D03*
%TD*%
D12*
%TO.C,J4*%
X169418000Y-99375000D03*
X169418000Y-96835000D03*
X169418000Y-94295000D03*
D13*
X169418000Y-91755000D03*
%TD*%
D12*
%TO.C,J3*%
X113998000Y-68985000D03*
X113998000Y-66445000D03*
X113998000Y-63905000D03*
D13*
X113998000Y-61365000D03*
%TD*%
D12*
%TO.C,J2*%
X132969000Y-87564000D03*
X130429000Y-87564000D03*
D13*
X127889000Y-87564000D03*
%TD*%
D12*
%TO.C,J1*%
X137538000Y-93365000D03*
D13*
X134998000Y-93365000D03*
%TD*%
D15*
%TO.C,D6*%
X203498000Y-105865000D03*
X203498000Y-110865000D03*
%TD*%
%TO.C,D5*%
G36*
G01*
X199142000Y-109190000D02*
X198667000Y-109190000D01*
G75*
G02*
X198429500Y-108952500I0J237500D01*
G01*
X198429500Y-108377500D01*
G75*
G02*
X198667000Y-108140000I237500J0D01*
G01*
X199142000Y-108140000D01*
G75*
G02*
X199379500Y-108377500I0J-237500D01*
G01*
X199379500Y-108952500D01*
G75*
G02*
X199142000Y-109190000I-237500J0D01*
G01*
G37*
G36*
G01*
X199142000Y-110940000D02*
X198667000Y-110940000D01*
G75*
G02*
X198429500Y-110702500I0J237500D01*
G01*
X198429500Y-110127500D01*
G75*
G02*
X198667000Y-109890000I237500J0D01*
G01*
X199142000Y-109890000D01*
G75*
G02*
X199379500Y-110127500I0J-237500D01*
G01*
X199379500Y-110702500D01*
G75*
G02*
X199142000Y-110940000I-237500J0D01*
G01*
G37*
%TD*%
%TO.C,D4*%
G36*
G01*
X200642000Y-109190000D02*
X200167000Y-109190000D01*
G75*
G02*
X199929500Y-108952500I0J237500D01*
G01*
X199929500Y-108377500D01*
G75*
G02*
X200167000Y-108140000I237500J0D01*
G01*
X200642000Y-108140000D01*
G75*
G02*
X200879500Y-108377500I0J-237500D01*
G01*
X200879500Y-108952500D01*
G75*
G02*
X200642000Y-109190000I-237500J0D01*
G01*
G37*
G36*
G01*
X200642000Y-110940000D02*
X200167000Y-110940000D01*
G75*
G02*
X199929500Y-110702500I0J237500D01*
G01*
X199929500Y-110127500D01*
G75*
G02*
X200167000Y-109890000I237500J0D01*
G01*
X200642000Y-109890000D01*
G75*
G02*
X200879500Y-110127500I0J-237500D01*
G01*
X200879500Y-110702500D01*
G75*
G02*
X200642000Y-110940000I-237500J0D01*
G01*
G37*
%TD*%
%TO.C,C39*%
G36*
G01*
X198000500Y-120631000D02*
X198000500Y-120156000D01*
G75*
G02*
X198238000Y-119918500I237500J0D01*
G01*
X198838000Y-119918500D01*
G75*
G02*
X199075500Y-120156000I0J-237500D01*
G01*
X199075500Y-120631000D01*
G75*
G02*
X198838000Y-120868500I-237500J0D01*
G01*
X198238000Y-120868500D01*
G75*
G02*
X198000500Y-120631000I0J237500D01*
G01*
G37*
G36*
G01*
X196275500Y-120631000D02*
X196275500Y-120156000D01*
G75*
G02*
X196513000Y-119918500I237500J0D01*
G01*
X197113000Y-119918500D01*
G75*
G02*
X197350500Y-120156000I0J-237500D01*
G01*
X197350500Y-120631000D01*
G75*
G02*
X197113000Y-120868500I-237500J0D01*
G01*
X196513000Y-120868500D01*
G75*
G02*
X196275500Y-120631000I0J237500D01*
G01*
G37*
%TD*%
%TO.C,C38*%
G36*
G01*
X198000500Y-118853000D02*
X198000500Y-118378000D01*
G75*
G02*
X198238000Y-118140500I237500J0D01*
G01*
X198838000Y-118140500D01*
G75*
G02*
X199075500Y-118378000I0J-237500D01*
G01*
X199075500Y-118853000D01*
G75*
G02*
X198838000Y-119090500I-237500J0D01*
G01*
X198238000Y-119090500D01*
G75*
G02*
X198000500Y-118853000I0J237500D01*
G01*
G37*
G36*
G01*
X196275500Y-118853000D02*
X196275500Y-118378000D01*
G75*
G02*
X196513000Y-118140500I237500J0D01*
G01*
X197113000Y-118140500D01*
G75*
G02*
X197350500Y-118378000I0J-237500D01*
G01*
X197350500Y-118853000D01*
G75*
G02*
X197113000Y-119090500I-237500J0D01*
G01*
X196513000Y-119090500D01*
G75*
G02*
X196275500Y-118853000I0J237500D01*
G01*
G37*
%TD*%
%TO.C,C37*%
G36*
G01*
X204189500Y-117548500D02*
X204189500Y-118023500D01*
G75*
G02*
X203952000Y-118261000I-237500J0D01*
G01*
X203352000Y-118261000D01*
G75*
G02*
X203114500Y-118023500I0J237500D01*
G01*
X203114500Y-117548500D01*
G75*
G02*
X203352000Y-117311000I237500J0D01*
G01*
X203952000Y-117311000D01*
G75*
G02*
X204189500Y-117548500I0J-237500D01*
G01*
G37*
G36*
G01*
X205914500Y-117548500D02*
X205914500Y-118023500D01*
G75*
G02*
X205677000Y-118261000I-237500J0D01*
G01*
X205077000Y-118261000D01*
G75*
G02*
X204839500Y-118023500I0J237500D01*
G01*
X204839500Y-117548500D01*
G75*
G02*
X205077000Y-117311000I237500J0D01*
G01*
X205677000Y-117311000D01*
G75*
G02*
X205914500Y-117548500I0J-237500D01*
G01*
G37*
%TD*%
%TO.C,C26*%
G36*
G01*
X201629000Y-119829500D02*
X202104000Y-119829500D01*
G75*
G02*
X202341500Y-120067000I0J-237500D01*
G01*
X202341500Y-120667000D01*
G75*
G02*
X202104000Y-120904500I-237500J0D01*
G01*
X201629000Y-120904500D01*
G75*
G02*
X201391500Y-120667000I0J237500D01*
G01*
X201391500Y-120067000D01*
G75*
G02*
X201629000Y-119829500I237500J0D01*
G01*
G37*
G36*
G01*
X201629000Y-118104500D02*
X202104000Y-118104500D01*
G75*
G02*
X202341500Y-118342000I0J-237500D01*
G01*
X202341500Y-118942000D01*
G75*
G02*
X202104000Y-119179500I-237500J0D01*
G01*
X201629000Y-119179500D01*
G75*
G02*
X201391500Y-118942000I0J237500D01*
G01*
X201391500Y-118342000D01*
G75*
G02*
X201629000Y-118104500I237500J0D01*
G01*
G37*
%TD*%
%TO.C,C9*%
G36*
G01*
X118795600Y-54207000D02*
X118795600Y-54682000D01*
G75*
G02*
X118558100Y-54919500I-237500J0D01*
G01*
X117958100Y-54919500D01*
G75*
G02*
X117720600Y-54682000I0J237500D01*
G01*
X117720600Y-54207000D01*
G75*
G02*
X117958100Y-53969500I237500J0D01*
G01*
X118558100Y-53969500D01*
G75*
G02*
X118795600Y-54207000I0J-237500D01*
G01*
G37*
G36*
G01*
X120520600Y-54207000D02*
X120520600Y-54682000D01*
G75*
G02*
X120283100Y-54919500I-237500J0D01*
G01*
X119683100Y-54919500D01*
G75*
G02*
X119445600Y-54682000I0J237500D01*
G01*
X119445600Y-54207000D01*
G75*
G02*
X119683100Y-53969500I237500J0D01*
G01*
X120283100Y-53969500D01*
G75*
G02*
X120520600Y-54207000I0J-237500D01*
G01*
G37*
%TD*%
%TO.C,C8*%
G36*
G01*
X138340000Y-50467401D02*
X138815000Y-50467401D01*
G75*
G02*
X139052500Y-50704901I0J-237500D01*
G01*
X139052500Y-51304901D01*
G75*
G02*
X138815000Y-51542401I-237500J0D01*
G01*
X138340000Y-51542401D01*
G75*
G02*
X138102500Y-51304901I0J237500D01*
G01*
X138102500Y-50704901D01*
G75*
G02*
X138340000Y-50467401I237500J0D01*
G01*
G37*
G36*
G01*
X138340000Y-48742401D02*
X138815000Y-48742401D01*
G75*
G02*
X139052500Y-48979901I0J-237500D01*
G01*
X139052500Y-49579901D01*
G75*
G02*
X138815000Y-49817401I-237500J0D01*
G01*
X138340000Y-49817401D01*
G75*
G02*
X138102500Y-49579901I0J237500D01*
G01*
X138102500Y-48979901D01*
G75*
G02*
X138340000Y-48742401I237500J0D01*
G01*
G37*
%TD*%
%TO.C,C7*%
G36*
G01*
X133340000Y-50467399D02*
X133815000Y-50467399D01*
G75*
G02*
X134052500Y-50704899I0J-237500D01*
G01*
X134052500Y-51304899D01*
G75*
G02*
X133815000Y-51542399I-237500J0D01*
G01*
X133340000Y-51542399D01*
G75*
G02*
X133102500Y-51304899I0J237500D01*
G01*
X133102500Y-50704899D01*
G75*
G02*
X133340000Y-50467399I237500J0D01*
G01*
G37*
G36*
G01*
X133340000Y-48742399D02*
X133815000Y-48742399D01*
G75*
G02*
X134052500Y-48979899I0J-237500D01*
G01*
X134052500Y-49579899D01*
G75*
G02*
X133815000Y-49817399I-237500J0D01*
G01*
X133340000Y-49817399D01*
G75*
G02*
X133102500Y-49579899I0J237500D01*
G01*
X133102500Y-48979899D01*
G75*
G02*
X133340000Y-48742399I237500J0D01*
G01*
G37*
%TD*%
%TO.C,C6*%
G36*
G01*
X135602501Y-50592400D02*
X136552501Y-50592400D01*
G75*
G02*
X136802501Y-50842400I0J-250000D01*
G01*
X136802501Y-51517400D01*
G75*
G02*
X136552501Y-51767400I-250000J0D01*
G01*
X135602501Y-51767400D01*
G75*
G02*
X135352501Y-51517400I0J250000D01*
G01*
X135352501Y-50842400D01*
G75*
G02*
X135602501Y-50592400I250000J0D01*
G01*
G37*
G36*
G01*
X135602501Y-48517400D02*
X136552501Y-48517400D01*
G75*
G02*
X136802501Y-48767400I0J-250000D01*
G01*
X136802501Y-49442400D01*
G75*
G02*
X136552501Y-49692400I-250000J0D01*
G01*
X135602501Y-49692400D01*
G75*
G02*
X135352501Y-49442400I0J250000D01*
G01*
X135352501Y-48767400D01*
G75*
G02*
X135602501Y-48517400I250000J0D01*
G01*
G37*
%TD*%
D16*
%TO.C,P1*%
X159004000Y-118933000D03*
X161544000Y-118933000D03*
X164084000Y-118933000D03*
X166624000Y-118933000D03*
X169164000Y-118933000D03*
X171704000Y-118933000D03*
X174244000Y-118933000D03*
X176784000Y-118933000D03*
%TD*%
%TO.C,P2*%
X181914000Y-118933000D03*
X184454000Y-118933000D03*
X186994000Y-118933000D03*
X189534000Y-118933000D03*
X192074000Y-118933000D03*
X194614000Y-118933000D03*
%TD*%
%TO.C,P3*%
X149733000Y-70673000D03*
X152273000Y-70673000D03*
X154813000Y-70673000D03*
X157353000Y-70673000D03*
X159893000Y-70673000D03*
X162433000Y-70673000D03*
X164973000Y-70673000D03*
X167513000Y-70673000D03*
X170053000Y-70673000D03*
X172593000Y-70673000D03*
%TD*%
%TO.C,P4*%
X194564000Y-70673000D03*
X192024000Y-70673000D03*
X189484000Y-70673000D03*
X186944000Y-70673000D03*
X184404000Y-70673000D03*
X181864000Y-70673000D03*
X179324000Y-70673000D03*
X176784000Y-70673000D03*
%TD*%
D13*
%TO.C,J7*%
X186918600Y-74838600D03*
D12*
X189458600Y-74838600D03*
X191998600Y-74838600D03*
X194538600Y-74838600D03*
%TD*%
D13*
%TO.C,J6*%
X170662600Y-113649800D03*
D12*
X173202600Y-113649800D03*
X175742600Y-113649800D03*
X178282600Y-113649800D03*
X180822600Y-113649800D03*
X183362600Y-113649800D03*
X185902600Y-113649800D03*
X188442600Y-113649800D03*
X190982600Y-113649800D03*
X193522600Y-113649800D03*
%TD*%
%TO.C,R46*%
G36*
G01*
X125398000Y-89815001D02*
X125398000Y-88914999D01*
G75*
G02*
X125647999Y-88665000I249999J0D01*
G01*
X126348001Y-88665000D01*
G75*
G02*
X126598000Y-88914999I0J-249999D01*
G01*
X126598000Y-89815001D01*
G75*
G02*
X126348001Y-90065000I-249999J0D01*
G01*
X125647999Y-90065000D01*
G75*
G02*
X125398000Y-89815001I0J249999D01*
G01*
G37*
G36*
G01*
X123398000Y-89815001D02*
X123398000Y-88914999D01*
G75*
G02*
X123647999Y-88665000I249999J0D01*
G01*
X124348001Y-88665000D01*
G75*
G02*
X124598000Y-88914999I0J-249999D01*
G01*
X124598000Y-89815001D01*
G75*
G02*
X124348001Y-90065000I-249999J0D01*
G01*
X123647999Y-90065000D01*
G75*
G02*
X123398000Y-89815001I0J249999D01*
G01*
G37*
%TD*%
M02*
